<svg id="Layer_1" data-name="Layer 1" xmlns="http://www.w3.org/2000/svg" viewBox="0 0 48 48"><defs><style>.cls-1{fill:#0d5ca4;}.cls-2{fill:#f7c42d;}.cls-3{fill:none;stroke:#dce2e5;stroke-miterlimit:10;stroke-width:0.5px;}</style></defs><title>All Flags</title><g id="SEK"><path class="cls-1" d="M44,24a20.61,20.61,0,0,1-.39,4A20,20,0,0,1,24,44a20,20,0,0,1-12.08-4.06A20,20,0,0,1,4.39,28,20.61,20.61,0,0,1,4,24,20,20,0,0,1,19.92,4.42,19.61,19.61,0,0,1,24,4,20,20,0,0,1,43.61,20,20.61,20.61,0,0,1,44,24Z"/><path class="cls-2" d="M19.92,4.42V43.58a19.74,19.74,0,0,1-8-3.64V8.06A19.87,19.87,0,0,1,19.92,4.42Z"/><path class="cls-2" d="M44,24a20.61,20.61,0,0,1-.39,4H4.39A20.61,20.61,0,0,1,4,24a19.85,19.85,0,0,1,.4-4H43.61A20.61,20.61,0,0,1,44,24Z"/><circle class="cls-3" cx="24" cy="24" r="20"/></g></svg>