<svg id="Layer_1" data-name="Layer 1" xmlns="http://www.w3.org/2000/svg" viewBox="0 0 48 48"><defs><style>.cls-1{fill:#fff;}.cls-2{fill:#c30000;}.cls-3{fill:#060268;}.cls-4{fill:#facb00;}.cls-5{fill:none;stroke:#dce2e5;stroke-miterlimit:10;stroke-width:0.5px;}</style></defs><title>All Flags</title><g id="MYR"><path class="cls-1" d="M34.29,41.15a20,20,0,0,1-20.59,0Z"/><path class="cls-2" d="M38,38.29a19.65,19.65,0,0,1-3.69,2.85H13.7A19.65,19.65,0,0,1,10,38.29Z"/><path class="cls-1" d="M40.41,35.43A18.33,18.33,0,0,1,38,38.28H10a18.83,18.83,0,0,1-2.41-2.85Z"/><path class="cls-2" d="M42.07,32.57a19.69,19.69,0,0,1-1.65,2.86H7.58a19.69,19.69,0,0,1-1.65-2.86Z"/><path class="cls-1" d="M43.17,29.72a18.87,18.87,0,0,1-1.1,2.85H5.93a18.87,18.87,0,0,1-1.1-2.85Z"/><path class="cls-2" d="M43.8,26.86a20.33,20.33,0,0,1-.63,2.85H4.83a19,19,0,0,1-.63-2.85Z"/><path class="cls-1" d="M44,24a20.56,20.56,0,0,1-.2,2.85H41.06V24Z"/><path class="cls-2" d="M44,24H41.06V21.15H43.8A20.56,20.56,0,0,1,44,24Z"/><path class="cls-1" d="M43.8,21.14H41.06V18.29h2.11A19,19,0,0,1,43.8,21.14Z"/><path class="cls-2" d="M43.17,18.28H41.06V15.43h1A18.87,18.87,0,0,1,43.17,18.28Z"/><path class="cls-1" d="M42.07,15.42h-1V13.56A18.54,18.54,0,0,1,42.07,15.42Z"/><path class="cls-3" d="M41.06,13.56V26.85H4.2A20.56,20.56,0,0,1,4,24,20,20,0,0,1,41.06,13.56Z"/><polygon class="cls-4" points="29.21 21.91 26.92 18.96 26.12 22.62 25.33 18.96 23.03 21.91 23.91 18.27 20.55 19.93 22.92 17.03 19.18 17.07 22.57 15.48 19.19 13.9 22.92 13.94 20.56 11.04 23.91 12.7 23.05 9.07 25.34 12.02 26.14 8.37 26.93 12.02 29.23 9.07 28.35 12.71 31.7 11.05 29.34 13.95 33.08 13.91 29.69 15.5 33.08 17.08 29.34 17.04 31.7 19.94 28.35 18.28 29.21 21.91"/><path class="cls-4" d="M19.68,23.13a7.51,7.51,0,0,0,2.69-.49,8.56,8.56,0,1,1,.1-14.1,7.56,7.56,0,1,0-2.79,14.59Z"/><circle class="cls-5" cx="24" cy="24" r="20"/></g></svg>