<svg id="Layer_1" data-name="Layer 1" xmlns="http://www.w3.org/2000/svg" viewBox="0 0 48 48"><defs><style>.cls-1{fill:#f93;}.cls-2{fill:#fff;}.cls-3{fill:#128807;}.cls-4{fill:#008;}.cls-5{fill:none;stroke:#dce2e5;stroke-miterlimit:10;stroke-width:0.5px;}</style></defs><title>All Flags</title><g id="INR"><path class="cls-1" d="M42.86,17.34H5.14a20,20,0,0,1,37.72,0Z"/><path class="cls-2" d="M44,24a19.92,19.92,0,0,1-1.14,6.67H5.14a20.05,20.05,0,0,1,0-13.33H42.86A19.82,19.82,0,0,1,44,24Z"/><path class="cls-3" d="M42.86,30.67a20,20,0,0,1-37.72,0Z"/><path class="cls-4" d="M24,19.39s0,.23,0,.58,0,.81.06,1.27c0,.11,0,.23,0,.34s0,.23,0,.34,0,.21,0,.31,0,.19,0,.28a3.82,3.82,0,0,1-.09.57h0a5.06,5.06,0,0,1-.08-.57,2.46,2.46,0,0,1,0-.28c0-.1,0-.21,0-.31s0-.22,0-.34,0-.23,0-.34c0-.46,0-.93.05-1.27s0-.58,0-.58Z"/><path class="cls-4" d="M22.79,19.57l.17.55c.12.33.25.77.39,1.21,0,.11.07.22.1.33s.07.21.1.31.05.21.07.31,0,.19.05.27a3.33,3.33,0,0,1,.07.59h0a5.17,5.17,0,0,1-.23-.53l-.09-.27-.09-.3a3.2,3.2,0,0,1-.07-.33c0-.11,0-.22-.08-.33-.1-.46-.2-.9-.28-1.24l-.12-.57Z"/><path class="cls-4" d="M21.69,20l.31.49.68,1.07.19.29.18.28.14.28c0,.08.09.17.13.25a3.28,3.28,0,0,1,.21.54h0a4.27,4.27,0,0,1-.36-.46L23,22.56l-.16-.26-.15-.3c-.06-.1-.11-.2-.16-.3l-.59-1.13c-.16-.31-.26-.52-.26-.52Z"/><path class="cls-4" d="M20.75,20.79l.43.38.93.86.26.24.24.22.22.23.18.21c.22.27.35.47.35.47l0,0a5.09,5.09,0,0,1-.46-.35l-.22-.19a2.13,2.13,0,0,1-.22-.21l-.23-.25L22,22.17l-.86-.94-.39-.42Z"/><path class="cls-4" d="M20,21.75l.52.26,1.12.59.31.16a2.69,2.69,0,0,1,.29.16,1.75,1.75,0,0,1,.27.16l.23.16a4.27,4.27,0,0,1,.46.36v0a4.16,4.16,0,0,1-.54-.22l-.25-.12-.28-.15a2.2,2.2,0,0,1-.28-.18l-.29-.18-1.07-.68L20,21.77Z"/><path class="cls-4" d="M19.59,22.86l.57.13,1.24.28.33.07.33.07.3.09.26.09a4.86,4.86,0,0,1,.54.23v0a3.8,3.8,0,0,1-.58-.06l-.27-.06L22,23.65l-.32-.1-.32-.1-1.22-.38-.54-.18Z"/><path class="cls-4" d="M19.45,24.06,20,24,21.3,24h.34l.34,0,.31,0h.28a3.83,3.83,0,0,1,.58.09v0s-.23.05-.58.09l-.28,0h-1L20,24.11l-.58,0Z"/><path class="cls-4" d="M19.63,25.25l.55-.19,1.21-.37.33-.11.32-.1.3-.07.28-.05a4.84,4.84,0,0,1,.57-.07v0a5.17,5.17,0,0,1-.53.23l-.27.09-.3.09-.32.08-.34.07-1.24.28-.57.12Z"/><path class="cls-4" d="M20.1,26.34l.49-.31,1.07-.68.29-.19.28-.17.28-.15.25-.12a5,5,0,0,1,.54-.22l0,0s-.18.16-.46.36l-.23.16-.27.16-.3.16-.3.15c-.41.22-.82.44-1.13.59l-.51.27Z"/><path class="cls-4" d="M20.85,27.29s.15-.18.39-.43l.86-.94.23-.25a2.73,2.73,0,0,1,.23-.25,2.13,2.13,0,0,1,.22-.21L23,25a4.48,4.48,0,0,1,.47-.34h0s-.13.2-.35.47l-.18.21-.22.23-.24.23-.26.23c-.34.31-.67.63-.93.86l-.43.38Z"/><path class="cls-4" d="M21.81,28s.11-.2.26-.51l.59-1.13a3,3,0,0,0,.16-.31,2.69,2.69,0,0,1,.16-.29l.16-.27.16-.23c.2-.28.36-.46.36-.46h0a5,5,0,0,1-.21.54c0,.09-.08.17-.13.26a1.82,1.82,0,0,1-.15.27l-.17.28c-.07.1-.13.2-.19.3l-.68,1.07-.32.48Z"/><path class="cls-4" d="M22.93,28.44l.12-.56c.07-.34.17-.79.27-1.24,0-.12.06-.23.08-.34s.05-.22.07-.33l.09-.3a1.61,1.61,0,0,0,.09-.26,4.15,4.15,0,0,1,.23-.53h0a4.86,4.86,0,0,1-.07.58,1.77,1.77,0,0,1-.06.28,2.11,2.11,0,0,1-.07.3c0,.1-.06.21-.1.32s-.06.21-.1.33c-.14.44-.27.88-.38,1.21l-.18.55Z"/><path class="cls-4" d="M24.12,28.58s0-.23,0-.58,0-.81-.05-1.27c0-.11,0-.23,0-.34s0-.23,0-.33,0-.22,0-.32a2.46,2.46,0,0,1,0-.28,5.06,5.06,0,0,1,.08-.57h0a3.82,3.82,0,0,1,.09.57c0,.09,0,.18,0,.28s0,.21,0,.32,0,.21,0,.33,0,.23,0,.34c0,.46,0,.93-.06,1.27s0,.58,0,.58Z"/><path class="cls-4" d="M25.31,28.4l-.18-.55c-.11-.33-.24-.77-.38-1.21,0-.11-.07-.22-.1-.33s-.07-.21-.1-.31-.06-.21-.08-.31,0-.19,0-.28a4.86,4.86,0,0,1-.07-.58h0a3.29,3.29,0,0,1,.23.54c0,.08.06.17.1.26l.09.3c0,.1.05.21.07.33s.05.22.07.33c.11.45.21.9.28,1.24l.12.57Z"/><path class="cls-4" d="M26.41,27.93l-.32-.49-.68-1.07-.18-.29a3.23,3.23,0,0,1-.18-.28,2.6,2.6,0,0,1-.15-.28,1.87,1.87,0,0,1-.12-.25,5,5,0,0,1-.22-.54h0a4.27,4.27,0,0,1,.36.46,2.29,2.29,0,0,1,.16.23l.17.26.15.3c0,.1.1.2.16.3l.59,1.13.26.52Z"/><path class="cls-4" d="M27.35,27.18l-.43-.38L26,25.94l-.25-.24-.25-.22-.21-.23a1.68,1.68,0,0,1-.18-.21,5.07,5.07,0,0,1-.36-.47l0,0s.2.13.47.35l.21.19a2.19,2.19,0,0,1,.23.21,2.62,2.62,0,0,1,.22.25l.24.25.86.94.38.42Z"/><path class="cls-4" d="M28.06,26.22,27.55,26l-1.13-.59-.31-.16a2.69,2.69,0,0,1-.29-.16l-.27-.16-.23-.16c-.28-.2-.46-.36-.46-.36l0,0a5,5,0,0,1,.54.22l.25.12c.09,0,.18.1.27.15a2.29,2.29,0,0,1,.29.18l.29.18,1.07.68.49.32Z"/><path class="cls-4" d="M28.5,25.11,27.94,25,26.7,24.7l-.34-.07L26,24.56l-.3-.09-.27-.09c-.32-.12-.54-.23-.54-.23v0a3.7,3.7,0,0,1,.58.06l.28,0,.3.08.32.1.33.1L28,24.9l.55.18Z"/><path class="cls-4" d="M28.64,23.91l-.57,0L26.8,24h-.35l-.33,0-.31,0h-.29a3.82,3.82,0,0,1-.57-.09v0a3.82,3.82,0,0,1,.57-.09l.29,0h1l1.27.06.57,0Z"/><path class="cls-4" d="M28.47,22.72l-.55.19-1.22.37-.33.11-.31.1-.31.07-.27.05a4.86,4.86,0,0,1-.58.07v0a4.86,4.86,0,0,1,.54-.23l.26-.09.3-.09.33-.08.34-.07,1.24-.28.56-.12Z"/><path class="cls-4" d="M28,21.63l-.48.31-1.08.68-.29.19-.28.17a1.91,1.91,0,0,1-.28.15,1.42,1.42,0,0,1-.25.12,4.16,4.16,0,0,1-.54.22v0a4.27,4.27,0,0,1,.46-.36l.23-.16.27-.16.29-.16.31-.16c.41-.21.81-.43,1.13-.58L28,21.6Z"/><path class="cls-4" d="M27.25,20.68l-.39.43-.86.94-.23.25-.23.25a2.19,2.19,0,0,1-.23.21L25.1,23c-.27.22-.47.35-.47.35v0a4.48,4.48,0,0,1,.34-.47l.19-.21.21-.22a2.73,2.73,0,0,1,.25-.23l.25-.23c.34-.32.68-.64.94-.87l.43-.38Z"/><path class="cls-4" d="M26.28,20s-.1.21-.26.51-.37.72-.59,1.13c-.05.1-.11.2-.16.31l-.15.29-.17.27a1.88,1.88,0,0,1-.16.23,4,4,0,0,1-.36.46h0a3.28,3.28,0,0,1,.21-.54l.12-.26.15-.27.18-.29.19-.29c.24-.39.48-.78.68-1.07s.31-.48.31-.48Z"/><path class="cls-4" d="M25.16,19.53s0,.22-.11.56-.18.79-.28,1.24a3.38,3.38,0,0,1-.08.34c0,.11,0,.22-.07.33l-.09.29-.09.27a4.15,4.15,0,0,1-.23.53h0a4.86,4.86,0,0,1,.07-.58c0-.09,0-.18,0-.28s0-.19.07-.3.07-.21.1-.32l.11-.33c.13-.44.27-.88.37-1.21l.18-.55Z"/><path class="cls-4" d="M25,24a.93.93,0,1,1-.93-.94A.93.93,0,0,1,25,24Z"/><path class="cls-4" d="M25.13,24a1.09,1.09,0,1,1-1.08-1.09A1.08,1.08,0,0,1,25.13,24Z"/><path class="cls-4" d="M24.05,18.67A5.32,5.32,0,1,0,29.36,24,5.32,5.32,0,0,0,24.05,18.67Zm3.86,7.88a4,4,0,0,1-.29.39,4.26,4.26,0,0,1-.51.53,3.37,3.37,0,0,1-.37.29,4.06,4.06,0,0,1-.63.38c-.15.07-.3.14-.44.19a3.58,3.58,0,0,1-.71.2,2.54,2.54,0,0,1-.47.07,3.24,3.24,0,0,1-.44,0h-.3a3.56,3.56,0,0,1-.47-.05,4.46,4.46,0,0,1-.72-.18,3.38,3.38,0,0,1-.44-.18,4.94,4.94,0,0,1-.64-.35,2.72,2.72,0,0,1-.38-.29,4.3,4.3,0,0,1-.54-.51c-.1-.12-.2-.25-.29-.38a3.9,3.9,0,0,1-.38-.63c-.07-.14-.13-.29-.19-.44a3.31,3.31,0,0,1-.2-.7,3.7,3.7,0,0,1-.07-.48,3.1,3.1,0,0,1,0-.43v-.3c0-.16,0-.32.06-.48a4.35,4.35,0,0,1,.18-.71,3.38,3.38,0,0,1,.18-.44,4.13,4.13,0,0,1,.36-.65,3.37,3.37,0,0,1,.28-.38A5.13,5.13,0,0,1,21,20.5c.13-.11.25-.21.38-.3a4,4,0,0,1,.63-.37,3.43,3.43,0,0,1,.44-.19,3.4,3.4,0,0,1,.71-.2,2.42,2.42,0,0,1,.47-.07,3.15,3.15,0,0,1,.44,0l.3,0a2.59,2.59,0,0,1,.47.05,4.35,4.35,0,0,1,.71.18,3.52,3.52,0,0,1,.45.18,4.94,4.94,0,0,1,.64.35,3.47,3.47,0,0,1,.38.29,4.26,4.26,0,0,1,.53.51,2.48,2.48,0,0,1,.29.37,3.77,3.77,0,0,1,.39.64c.07.14.13.29.19.44a5.15,5.15,0,0,1,.2.7c0,.15,0,.31.07.47s0,.3,0,.45,0,.19,0,.29,0,.32-.05.48a4.38,4.38,0,0,1-.19.71,3.34,3.34,0,0,1-.17.44A3.63,3.63,0,0,1,27.91,26.55Z"/><path class="cls-4" d="M21.37,20.29a.25.25,0,0,1-.25.25.26.26,0,0,1-.26-.25.26.26,0,0,1,.26-.26A.26.26,0,0,1,21.37,20.29Z"/><path class="cls-4" d="M20.51,21.1a.26.26,0,0,1-.19.31.25.25,0,0,1-.31-.17.26.26,0,0,1,.18-.32A.27.27,0,0,1,20.51,21.1Z"/><path class="cls-4" d="M19.88,22.12a.26.26,0,0,1-.09.35.27.27,0,0,1-.35-.09.26.26,0,0,1,.44-.26Z"/><path class="cls-4" d="M19.54,23.26a.25.25,0,1,1-.36,0A.25.25,0,0,1,19.54,23.26Z"/><path class="cls-4" d="M19.5,24.45a.25.25,0,0,1,.1.35.26.26,0,0,1-.35.09.25.25,0,0,1-.09-.34A.24.24,0,0,1,19.5,24.45Z"/><path class="cls-4" d="M19.78,25.61a.26.26,0,0,1,.18.32.25.25,0,0,1-.49-.14A.26.26,0,0,1,19.78,25.61Z"/><path class="cls-4" d="M20.35,26.66a.26.26,0,0,1,0,.51.26.26,0,1,1,0-.51Z"/><path class="cls-4" d="M21.17,27.53a.25.25,0,0,1,.31.18.27.27,0,0,1-.18.31.24.24,0,0,1-.31-.18A.25.25,0,0,1,21.17,27.53Z"/><path class="cls-4" d="M22.18,28.15a.26.26,0,0,1,.35.1.25.25,0,0,1-.09.34.26.26,0,1,1-.26-.44Z"/><path class="cls-4" d="M23.32,28.49a.25.25,0,0,1,.36,0,.27.27,0,0,1,0,.37.27.27,0,0,1-.36,0A.27.27,0,0,1,23.32,28.49Z"/><path class="cls-4" d="M24.52,28.53a.25.25,0,0,1,.34-.1.25.25,0,0,1,.1.35.25.25,0,0,1-.35.09A.25.25,0,0,1,24.52,28.53Z"/><path class="cls-4" d="M25.68,28.25a.25.25,0,0,1,.31-.18.27.27,0,0,1,.18.32.26.26,0,0,1-.32.17A.24.24,0,0,1,25.68,28.25Z"/><path class="cls-4" d="M26.72,27.68a.26.26,0,0,1,.52,0,.26.26,0,1,1-.52,0Z"/><path class="cls-4" d="M27.59,26.87a.26.26,0,0,1,.18-.32.26.26,0,0,1,.13.5A.27.27,0,0,1,27.59,26.87Z"/><path class="cls-4" d="M28.21,25.85a.26.26,0,0,1,.1-.35.25.25,0,0,1,.35.1.24.24,0,0,1-.1.34A.26.26,0,0,1,28.21,25.85Z"/><path class="cls-4" d="M28.56,24.71a.25.25,0,1,1,.36,0A.25.25,0,0,1,28.56,24.71Z"/><path class="cls-4" d="M28.59,23.52a.26.26,0,1,1,.26-.44.25.25,0,0,1,.09.34A.25.25,0,0,1,28.59,23.52Z"/><path class="cls-4" d="M28.31,22.36a.27.27,0,0,1-.18-.32.26.26,0,0,1,.5.14A.27.27,0,0,1,28.31,22.36Z"/><path class="cls-4" d="M27.75,21.31a.26.26,0,1,1,0-.51.26.26,0,0,1,0,.51Z"/><path class="cls-4" d="M26.93,20.44a.24.24,0,0,1-.31-.18.25.25,0,0,1,.49-.13A.25.25,0,0,1,26.93,20.44Z"/><path class="cls-4" d="M25.91,19.82a.25.25,0,0,1-.34-.1.26.26,0,0,1,.09-.35.26.26,0,0,1,.35.1A.25.25,0,0,1,25.91,19.82Z"/><circle class="cls-4" cx="24.59" cy="19.3" r="0.26"/><path class="cls-4" d="M23.58,19.44a.26.26,0,0,1-.35.1.26.26,0,1,1,.26-.44A.25.25,0,0,1,23.58,19.44Z"/><path class="cls-4" d="M22.42,19.72a.26.26,0,0,1-.31.18.25.25,0,0,1-.18-.31.25.25,0,0,1,.49.13Z"/><circle class="cls-5" cx="24" cy="24" r="20"/></g></svg>