<svg id="Layer_1" data-name="Layer 1" xmlns="http://www.w3.org/2000/svg" viewBox="0 0 48 48"><defs><style>.cls-1{fill:#193c6d;}.cls-2{fill:#fff;}.cls-3{fill:#d02039;}.cls-4{fill:none;stroke:#dce2e5;stroke-miterlimit:10;stroke-width:0.5px;}</style></defs><title>All Flags</title><g id="GBP"><path class="cls-1" d="M44,24a20.25,20.25,0,0,1-.4,4c-.08.37-.16.74-.26,1.1-.15.56-.31,1.1-.5,1.64a22,22,0,0,1-1,2.23,20.37,20.37,0,0,1-2.16,3.4,20.12,20.12,0,0,1-9,6.47,19.89,19.89,0,0,1-2.67.75,20.1,20.1,0,0,1-8,0,19.24,19.24,0,0,1-2.7-.74,20.06,20.06,0,0,1-9-6.45c-.3-.37-.58-.76-.85-1.15A21.1,21.1,0,0,1,6.14,33a18.22,18.22,0,0,1-1-2.27c-.19-.53-.36-1.07-.5-1.62-.1-.37-.19-.74-.27-1.12A20.25,20.25,0,0,1,4,24a19.66,19.66,0,0,1,.38-3.86c.08-.42.17-.83.28-1.23.14-.55.31-1.1.5-1.64a20.23,20.23,0,0,1,1-2.23A19.48,19.48,0,0,1,8.31,11.6a20,20,0,0,1,9-6.46A19.24,19.24,0,0,1,20,4.4a20.1,20.1,0,0,1,8,0,21.49,21.49,0,0,1,2.67.75,20.06,20.06,0,0,1,8.93,6.4c.31.39.61.8.89,1.21A21.1,21.1,0,0,1,41.88,15a21.42,21.42,0,0,1,1,2.25c.18.52.35,1.05.49,1.59s.21.85.3,1.28A20.45,20.45,0,0,1,44,24Z"/><path class="cls-2" d="M44,24a20.25,20.25,0,0,1-.4,4c-.08.37-.16.74-.26,1.1-.15.56-.31,1.1-.5,1.64H5.17c-.19-.53-.36-1.07-.5-1.62-.1-.37-.19-.74-.27-1.12A20.25,20.25,0,0,1,4,24a19.66,19.66,0,0,1,.38-3.86c.08-.42.17-.83.28-1.23.14-.55.31-1.1.5-1.64H42.84c.18.52.35,1.05.49,1.59s.21.85.3,1.28A20.45,20.45,0,0,1,44,24Z"/><path class="cls-2" d="M30.73,5.16V42.84a19.89,19.89,0,0,1-2.67.75,20.1,20.1,0,0,1-8,0,19.24,19.24,0,0,1-2.7-.74V5.14A19.24,19.24,0,0,1,20,4.4a20.1,20.1,0,0,1,8,0A21.49,21.49,0,0,1,30.73,5.16Z"/><path class="cls-2" d="M43.33,18.86l-2.54,1.28L33.11,24l-2.38,1.19-2.67,1.34L25.1,28,24,28.55l-4,2-.38.19L17.33,31.9l-9,4.51c-.3-.37-.58-.76-.85-1.15A21.1,21.1,0,0,1,6.14,33a18.22,18.22,0,0,1-1-2.27c-.19-.53-.36-1.07-.5-1.62L6.9,28l8-4,2.45-1.23L20,21.41l2.55-1.27L24,19.43l4.07-2.05.23-.11L30.73,16l8.93-4.48c.31.39.61.8.89,1.21A21.1,21.1,0,0,1,41.88,15a21.42,21.42,0,0,1,1,2.25C43,17.79,43.19,18.32,43.33,18.86Z"/><path class="cls-2" d="M43.34,29.1c-.15.56-.31,1.1-.5,1.64a22,22,0,0,1-1,2.23,20.37,20.37,0,0,1-2.16,3.4l-9-4.48-2.32-1.15-.35-.18-4-2L22.92,28,20,26.56l-2.7-1.34L14.88,24,7.12,20.14,4.66,18.91c.14-.55.31-1.1.5-1.64a20.23,20.23,0,0,1,1-2.23A19.48,19.48,0,0,1,8.31,11.6l9,4.5,2.33,1.17.37.18,4,2,1.41.71,2.66,1.33,2.67,1.33L33.11,24l8,4Z"/><path class="cls-3" d="M28.06,4.41V43.59a20.1,20.1,0,0,1-8,0V4.4a20.1,20.1,0,0,1,8,0Z"/><path class="cls-3" d="M44,24a20.25,20.25,0,0,1-.4,4H4.4A20.25,20.25,0,0,1,4,24a19.66,19.66,0,0,1,.38-3.86H43.63A20.45,20.45,0,0,1,44,24Z"/><path class="cls-3" d="M42.84,30.74a22,22,0,0,1-1,2.23l-4.49-2.23Z"/><path class="cls-3" d="M16.55,30.74,7.47,35.26A21.1,21.1,0,0,1,6.14,33l4.57-2.27Z"/><path class="cls-3" d="M10.6,17.27H5.16a20.23,20.23,0,0,1,1-2.23Z"/><path class="cls-3" d="M41.88,15l-4.51,2.25H31.53l9-4.5A21.1,21.1,0,0,1,41.88,15Z"/><circle class="cls-4" cx="24" cy="24" r="20"/></g></svg>