<svg id="Layer_1" data-name="Layer 1" xmlns="http://www.w3.org/2000/svg" viewBox="0 0 48 48"><defs><style>.cls-1{fill:#de2616;}.cls-2{fill:#fadd10;}.cls-3{fill:none;stroke:#dce2e5;stroke-miterlimit:10;stroke-width:0.5px;}</style></defs><title>All Flags</title><g id="CNH"><circle class="cls-1" cx="24" cy="24" r="20"/><polygon class="cls-2" points="13.9 9.42 15.13 13.45 19.6 13.4 16.01 15.97 17.33 20.04 13.9 17.43 10.42 20.04 11.55 15.92 8.35 13.42 12.65 13.37 13.9 9.42"/><polygon class="cls-2" points="24.59 21.41 24.53 22.82 25.82 23.31 24.44 23.71 24.45 25.11 23.69 23.92 22.28 24.24 23.19 23.21 22.43 22.03 23.73 22.5 24.59 21.41"/><polygon class="cls-2" points="27.82 17.31 28.31 18.64 29.7 18.59 28.57 19.49 29.11 20.77 27.95 19.98 26.77 20.81 27.22 19.51 26.07 18.71 27.45 18.64 27.82 17.31"/><polygon class="cls-2" points="27.04 11.49 28.03 12.51 29.27 11.9 28.61 13.19 29.63 14.13 28.24 13.88 27.51 15.12 27.38 13.75 26.01 13.48 27.24 12.86 27.04 11.49"/><polygon class="cls-2" points="22.42 7.99 23.74 8.52 24.63 7.47 24.54 8.9 25.86 9.37 24.48 9.69 24.31 11.12 23.64 9.92 22.27 10.23 23.16 9.16 22.42 7.99"/><circle class="cls-3" cx="24" cy="24" r="20"/></g></svg>