<svg id="Layer_1" data-name="Layer 1" xmlns="http://www.w3.org/2000/svg" viewBox="0 0 48 48"><defs><style>.cls-1{fill:#23346a;}.cls-2{fill:#fff;}.cls-3{fill:#cf142d;}.cls-4{fill:#cd132d;}.cls-5{fill:none;stroke:#dce2e5;stroke-miterlimit:10;stroke-width:0.5px;}</style></defs><title>All Flags</title><g id="NZD"><path class="cls-1" d="M44,24A20,20,0,1,1,4.81,18.36a17.82,17.82,0,0,1,.65-1.86,19.2,19.2,0,0,1,1.46-2.9c.11-.2.24-.39.37-.58s.17-.27.26-.4l.15-.21c.21-.29.42-.57.64-.85s.5-.61.77-.9a1.9,1.9,0,0,1,.19-.21q.3-.34.63-.66c.36-.36.73-.7,1.12-1A20,20,0,0,1,20.7,4.27l.55-.08A20.82,20.82,0,0,1,24,4,20,20,0,0,1,44,24Z"/><path class="cls-2" d="M21.25,8.76V13.6H6.92c.11-.2.24-.39.37-.58s.17-.27.26-.4l.15-.21c.21-.29.42-.57.64-.85s.5-.61.77-.9a1.9,1.9,0,0,1,.19-.21q.3-.34.63-.66c.36-.36.73-.7,1.12-1Z"/><path class="cls-2" d="M9.3,10.45v7.91H4.81a17.82,17.82,0,0,1,.65-1.86,19.2,19.2,0,0,1,1.46-2.9c.11-.2.24-.39.37-.58s.17-.27.26-.4l.15-.21c.21-.29.42-.57.64-.85s.5-.61.77-.9A1.9,1.9,0,0,1,9.3,10.45Z"/><path class="cls-2" d="M21.25,4.19V5.62L15,8.76l-2.06,1-2.76,1.39-.85.43-1,.48-.64.32c.21-.29.42-.57.64-.85s.5-.61.77-.9a1.9,1.9,0,0,1,.19-.21q.3-.34.63-.66c.36-.36.73-.7,1.12-1A20,20,0,0,1,20.7,4.27Z"/><path class="cls-2" d="M21.25,16.72v1.64H18L9.3,14l-.83-.42-.13-.06-1-.52c.08-.14.17-.27.26-.4l.15-.21c.21-.29.42-.57.64-.85s.5-.61.77-.9l.19.09.85.43L13,12.62l2,1Z"/><path class="cls-3" d="M8.34,11.56v6.8H5.46V16.5a19.2,19.2,0,0,1,1.46-2.9c.11-.2.24-.39.37-.58s.17-.27.26-.4l.15-.21C7.91,12.12,8.12,11.84,8.34,11.56Z"/><path class="cls-3" d="M21.25,9.79v2.83H7.55l.15-.21c.21-.29.42-.57.64-.85s.5-.61.77-.9a1.9,1.9,0,0,1,.19-.21q.3-.34.63-.66Z"/><polygon class="cls-3" points="21.25 17.29 21.25 18.36 11.69 13.6 13.79 13.6 21.25 17.29"/><path class="cls-3" d="M20.7,4.27l-9,4.49h-.63A20,20,0,0,1,20.7,4.27Z"/><polygon class="cls-4" points="34.09 14.31 32.8 15.25 33.27 13.74 32.02 12.78 33.58 12.77 34.07 11.27 34.58 12.78 36.18 12.76 34.9 13.73 35.36 15.25 34.09 14.31"/><path class="cls-2" d="M34.07,12l.35,1h1.09l-.87.65.32,1L34.09,14l-.88.64.31-1L32.66,13h1.08l.33-1m0-1.4-.41,1.26-.23.72h-2l1,.78.62.48-.22.73-.39,1.27L33.47,15l.61-.45.62.45,1.07.79-.39-1.27-.23-.74.63-.47,1.07-.81-1.35,0h-.76l-.25-.74-.43-1.25Z"/><polygon class="cls-4" points="39.77 19.11 38.73 19.87 39.11 18.65 38.1 17.87 39.36 17.86 39.76 16.64 40.17 17.87 41.47 17.85 40.43 18.64 40.81 19.87 39.77 19.11"/><path class="cls-2" d="M39.76,17.24l.28.82h.85l-.68.52.25.81-.69-.51-.69.51.25-.8-.68-.53h.85l.26-.81m0-1.19-.35,1.08-.17.54H37.56l.86.67.47.37-.17.55-.33,1.09.91-.67.47-.35.46.35.92.67-.33-1.09-.17-.56.47-.36.92-.7-1.15,0H40.3l-.18-.56-.37-1.07Z"/><polygon class="cls-4" points="27.43 21.01 26.15 21.95 26.61 20.45 25.37 19.48 26.93 19.47 27.41 17.97 27.93 19.48 29.53 19.46 28.24 20.43 28.71 21.96 27.43 21.01"/><path class="cls-2" d="M27.42,18.67l.35,1,1.09,0-.88.66.32,1-.87-.64-.88.64.31-1L26,19.7h1.09l.33-1m0-1.4L27,18.54l-.23.71h-2l1,.79.63.48-.23.72-.39,1.27,1.07-.78.62-.45.61.45,1.07.79-.39-1.28-.22-.74.62-.47,1.08-.81-1.35,0h-.77l-.25-.73-.42-1.26Z"/><polygon class="cls-4" points="34.09 31.67 32.64 32.73 33.16 31.03 31.77 29.94 33.52 29.94 34.06 28.25 34.64 29.95 36.45 29.92 35 31.02 35.53 32.73 34.09 31.67"/><path class="cls-2" d="M34.07,29.05l.4,1.15,1.21,0-1,.74.35,1.16-1-.72-1,.72.35-1.14-1-.75H33.7l.37-1.13m0-1.6-.47,1.44-.25.79H31l1.14.89.69.53-.24.81-.45,1.45,1.22-.9.69-.5.67.5,1.23.91-.45-1.46-.25-.82.69-.52,1.23-.93-1.53,0h-.86l-.27-.81-.49-1.43Z"/><circle class="cls-5" cx="24" cy="24" r="20"/></g></svg>