<svg id="Layer_1" data-name="Layer 1" xmlns="http://www.w3.org/2000/svg" viewBox="0 0 48 48"><defs><style>.cls-1{fill:#fff;}.cls-2{fill:#e41f21;}.cls-3{fill:none;stroke:#dce2e5;stroke-miterlimit:10;stroke-width:0.5px;}</style></defs><title>All Flags</title><g id="CAD"><path class="cls-1" d="M44.25,24A20,20,0,1,1,36.88,8.53,19.92,19.92,0,0,1,44.25,24Z"/><path class="cls-2" d="M11.52,8.62V39.46a20,20,0,0,1,0-30.84Z"/><path class="cls-2" d="M44.25,24a19.92,19.92,0,0,1-7.37,15.5v-31A20,20,0,0,1,44.25,24Z"/><path class="cls-2" d="M23.82,35.21h.84l-.11-5.1s0-.3.44-.22l4.63.62-.42-1.37a.5.5,0,0,1,.17-.66l4.76-3.85-1-.46s-.42-.1-.22-.8l.78-2.85-2.54.55s-.68.28-.75-.35l-.33-1.12-2.28,2.55s-.67.54-.67-.52l1-5.08-1.38.74a.54.54,0,0,1-.83-.35l-1.66-3.1-1.74,3.28s-.17.44-.76.15l-1.37-.71,1,5.31s-.14.85-.82.14l-2.17-2.42L18,20.92s-.1.33-.71.18l-2.52-.58.9,3.13a.47.47,0,0,1-.38.56l-.88.44L19,28.35a.78.78,0,0,1,.28,1l-.35,1.17L22,30a14.91,14.91,0,0,1,1.72-.17.33.33,0,0,1,.28.28h0v.23Z"/><circle class="cls-3" cx="24" cy="24" r="20"/></g></svg>