<svg id="Layer_1" data-name="Layer 1" xmlns="http://www.w3.org/2000/svg" viewBox="0 0 48 48"><defs><style>.cls-1{fill:#00278d;}.cls-2{fill:#ffe100;}</style></defs><title>All Flags</title><g id="Euro"><circle class="cls-1" cx="24" cy="24" r="20"/><polygon class="cls-2" points="24 5.5 24.68 7.41 26.5 7.41 25.04 8.58 25.55 10.5 24.04 9.36 22.46 10.5 23.02 8.57 21.5 7.41 23.38 7.41 24 5.5"/><polygon class="cls-2" points="24 37.5 24.68 39.41 26.5 39.41 25.04 40.58 25.55 42.5 24.04 41.36 22.46 42.5 23.02 40.58 21.5 39.41 23.38 39.41 24 37.5"/><polygon class="cls-2" points="8 21.5 8.68 23.41 10.5 23.41 9.04 24.58 9.55 26.5 8.04 25.36 6.46 26.5 7.02 24.57 5.5 23.41 7.38 23.41 8 21.5"/><polygon class="cls-2" points="40 21.5 40.68 23.44 42.5 23.41 41.04 24.58 41.55 26.5 40.03 25.36 38.46 26.5 39.02 24.57 37.5 23.41 39.38 23.41 40 21.5"/><polygon class="cls-2" points="16 34.5 16.68 36.41 18.5 36.41 17.04 37.58 17.55 39.5 16.04 38.36 14.46 39.5 15.02 37.58 13.5 36.41 15.38 36.41 16 34.5"/><polygon class="cls-2" points="11 28.5 11.68 30.41 13.5 30.41 12.04 31.58 12.55 33.5 11.04 32.36 9.46 33.5 10.02 31.57 8.5 30.41 10.38 30.41 11 28.5"/><polygon class="cls-2" points="11 13.5 11.68 15.41 13.5 15.41 12.04 16.58 12.55 18.5 11.04 17.36 9.46 18.5 10.02 16.57 8.5 15.41 10.38 15.41 11 13.5"/><polygon class="cls-2" points="16 7.5 16.68 9.41 18.5 9.41 17.04 10.58 17.55 12.5 16.04 11.36 14.46 12.5 15.02 10.57 13.5 9.41 15.38 9.41 16 7.5"/><polygon class="cls-2" points="31.5 7.5 32.18 9.41 34 9.41 32.54 10.58 33.05 12.5 31.54 11.36 29.96 12.5 30.52 10.57 29 9.41 30.88 9.41 31.5 7.5"/><polygon class="cls-2" points="37 13.5 37.68 15.41 39.5 15.41 38.04 16.58 38.55 18.5 37.03 17.36 35.46 18.5 36.02 16.57 34.5 15.41 36.38 15.41 37 13.5"/><polygon class="cls-2" points="31.5 34.5 32.18 36.41 34 36.41 32.54 37.58 33.05 39.5 31.54 38.36 29.96 39.5 30.52 37.58 29 36.41 30.88 36.41 31.5 34.5"/><polygon class="cls-2" points="37 28.5 37.68 30.41 39.5 30.41 38.04 31.58 38.55 33.5 37.03 32.36 35.46 33.5 36.02 31.57 34.5 30.41 36.38 30.41 37 28.5"/></g></svg>