<svg id="Layer_1" data-name="Layer 1" xmlns="http://www.w3.org/2000/svg" viewBox="0 0 48 48"><defs><style>.cls-1{fill:#cf2045;}.cls-2{fill:#fff;}.cls-3{fill:none;stroke:#dce2e5;stroke-miterlimit:10;stroke-width:0.5px;}</style></defs><title>All Flags</title><g id="DKK"><path class="cls-1" d="M44,24v.24a22.8,22.8,0,0,1-.2,2.49s0,.07,0,.1A19.94,19.94,0,0,1,24,44c-.6,0-1.2,0-1.8-.08l-.87-.1-.88-.14-.75-.14a19.86,19.86,0,0,1-4.92-1.81A20.11,20.11,0,0,1,4.22,26.83s0-.07,0-.1A22.8,22.8,0,0,1,4,24.24v-.6a22.42,22.42,0,0,1,.2-2.48A20,20,0,0,1,14.78,6.25a20.23,20.23,0,0,1,5.67-1.94c.54-.09,1.09-.17,1.64-.22S23.36,4,24,4s1.28,0,1.91.09A20,20,0,0,1,43.8,21.16a22.42,22.42,0,0,1,.2,2.48Z"/><path class="cls-2" d="M20.45,4.31V43.68l-.75-.14a19.82,19.82,0,0,1-4.92-1.79V6.25A20.23,20.23,0,0,1,20.45,4.31Z"/><path class="cls-2" d="M44,24v.24a20.11,20.11,0,0,1-.2,2.59H4.2A20.11,20.11,0,0,1,4,24.24v-.6a22.42,22.42,0,0,1,.2-2.48H43.8a22.42,22.42,0,0,1,.2,2.48Z"/><circle class="cls-3" cx="24" cy="24" r="20"/></g></svg>