<svg id="Layer_1" data-name="Layer 1" xmlns="http://www.w3.org/2000/svg" viewBox="0 0 48 48"><defs><style>.cls-1{fill:#d02039;}.cls-2{fill:#fff;}.cls-3{fill:#cb1d23;}.cls-4{fill:none;stroke:#dce2e5;stroke-miterlimit:10;stroke-width:0.5px;}</style></defs><title>All Flags</title><g id="HKD"><path class="cls-1" d="M44,24c0,.57,0,1.14-.07,1.7a19.48,19.48,0,0,1-.53,3.16,18,18,0,0,1-1,3A20,20,0,0,1,38.23,38a19.33,19.33,0,0,1-4,3.16,20,20,0,0,1-20.4,0,19.33,19.33,0,0,1-4-3.16,20,20,0,0,1-4.16-6.17,18,18,0,0,1-1-3,19.48,19.48,0,0,1-.53-3.16C4,25.14,4,24.57,4,24a19.42,19.42,0,0,1,.11-2c0-.49.11-1,.19-1.46a20.52,20.52,0,0,1,.6-2.46l0-.05q.21-.69.48-1.35h0c.23-.58.48-1.15.76-1.7l.26-.49a1.62,1.62,0,0,0,.1-.18l.29-.49a20,20,0,0,1,8.94-8l.06,0c.31-.14.63-.28,1-.4L17,5.24A20.11,20.11,0,0,1,24,4h.57a20,20,0,0,1,13.92,6.21,20.72,20.72,0,0,1,2.39,3,19.26,19.26,0,0,1,1.63,3.16,18.81,18.81,0,0,1,1,3.06A19.41,19.41,0,0,1,44,22.65C44,23.1,44,23.55,44,24Z"/><path class="cls-2" d="M23.35,24.37A6.47,6.47,0,0,1,19.79,16,6.22,6.22,0,0,1,26.31,12a1.93,1.93,0,0,0-.85,3,3.41,3.41,0,0,1-1.41,4.63,2.84,2.84,0,0,0-.7,4.73"/><polygon class="cls-3" points="22.74 17.63 23.57 15.86 21.8 16.8 23.81 17.04 22.28 15.61 22.74 17.63"/><path class="cls-3" d="M23.35,24.25A4.79,4.79,0,0,1,22,17.75l-.12-.12c-1.19,1.65-1.31,5.21,1.31,6.74Z"/><path class="cls-2" d="M23.35,24.37a6.47,6.47,0,0,1,6.86-6,6.69,6.69,0,0,1,5.79,5,2.07,2.07,0,0,0-3.2.12,3.37,3.37,0,0,1-4.85.12,2.73,2.73,0,0,0-4.6.82"/><polygon class="cls-3" points="29.48 21.78 31.49 21.9 29.97 20.59 30.43 22.48 31.27 20.71 29.48 21.78"/><path class="cls-3" d="M23.45,24.37c.6-2.84,3.68-3.9,5.81-3.3v-.24c-1.89-.49-5.33.46-6,3.42Z"/><path class="cls-2" d="M23.35,24.37a6.5,6.5,0,0,1-9,.73,6.08,6.08,0,0,1-1.76-7.35,1.91,1.91,0,0,0,2.61,1.65,3.47,3.47,0,0,1,4,2.84,2.74,2.74,0,0,0,4.14,2.13"/><polygon class="cls-3" points="16.83 22.84 15.28 21.53 15.76 23.43 16.59 21.53 14.82 22.6 16.83 22.84"/><path class="cls-3" d="M23.23,24.25a4.63,4.63,0,0,1-6.52-.82l-.24.24c1.31,1.53,4.63,2.72,7,.7Z"/><path class="cls-2" d="M23.35,24.37A6.22,6.22,0,0,1,31,29a6.35,6.35,0,0,1-2.83,7,2.1,2.1,0,0,0-1.07-3,3.37,3.37,0,0,1-1.67-4.64,2.65,2.65,0,0,0-2.11-4"/><polygon class="cls-3" points="27.71 29.35 28.2 31.36 28.9 29.47 27.25 30.54 29.27 30.78 27.71 29.35"/><path class="cls-3" d="M23.35,24.37a4.67,4.67,0,0,1,4.85,4.52h.21c0-2-2-5-5.06-4.64Z"/><path class="cls-2" d="M23.35,24.37a6.4,6.4,0,0,1-2,8.79,6.27,6.27,0,0,1-7.59-.61,2,2,0,0,0,2.5-2,3.2,3.2,0,0,1,3.9-2.84,2.78,2.78,0,0,0,3.2-3.33"/><polygon class="cls-3" points="19.91 30.08 18.14 31.15 20.15 31.24 18.72 29.96 19.09 31.97 19.91 30.08"/><path class="cls-3" d="M23.23,24.37a4.68,4.68,0,0,1-2.74,6.05l.12.12a4.92,4.92,0,0,0,2.84-6.29Z"/><path class="cls-3" d="M23.35,24a.39.39,0,0,1,.22.34l-.22.25A1.21,1.21,0,0,1,23,24.5c0-.37.24-.47.36-.47"/><circle class="cls-4" cx="24" cy="24" r="20"/></g></svg>