<svg id="Layer_1" data-name="Layer 1" xmlns="http://www.w3.org/2000/svg" viewBox="0 0 48 48"><defs><style>.cls-1{fill:#27326d;}.cls-2{fill:#fff;}.cls-3{fill:#cf142d;}</style></defs><title>All Flags</title><g id="AUD"><path class="cls-1" d="M44,24A20,20,0,1,1,6.42,14.45c.14-.25.28-.5.43-.73s.32-.53.5-.79.42-.62.64-.92.46-.59.7-.87v0c.3-.35.59-.67.89-1s.43-.45.66-.66l.06-.06.4-.37c.25-.21.49-.42.75-.62S12,8,12.27,7.8s.59-.41.89-.61a19.85,19.85,0,0,1,7.44-2.9c.51-.09,1-.16,1.54-.2h0C22.76,4,23.37,4,24,4h.28A20,20,0,0,1,44,24Z"/><path class="cls-2" d="M24.28,8.43v4.5H7.35c.2-.31.42-.62.64-.92s.46-.59.7-.87v-.05h0q.42-.49.87-1t.66-.66l.06-.06.4-.37c.25-.21.49-.42.75-.62Z"/><path class="cls-2" d="M13.16,7.19V17.36H8.69V11.09h0q.42-.49.87-1t.66-.66l.06-.06.4-.37c.25-.21.49-.42.75-.62S12,8,12.27,7.8,12.86,7.39,13.16,7.19Z"/><path class="cls-2" d="M24.28,4V5.5L18.44,8.43l-1.92,1L14,10.67l-.8.4-.89.45-1,.49-.37.19-1.33.67-.13.06-.77.39L6.42,14.45c.14-.25.28-.5.43-.73s.32-.53.5-.79.42-.62.64-.92.46-.59.7-.87v-.05h0q.42-.49.87-1t.66-.66l.19-.09.47-.24,1.36-.68.08,0L13.16,8,20.6,4.29c.51-.09,1-.16,1.54-.2h0C22.76,4,23.37,4,24,4Z"/><path class="cls-2" d="M24.28,15.83v1.53h-3l-8.12-4-.78-.39-.11-.06-1.35-.67L10.55,12l-1-.47-.87-.44q.42-.49.87-1t.66-.66l.06-.06.4-.37.2.1.47.24.89.44.89.45.8.39L16.64,12l1.82.92Z"/><path class="cls-3" d="M12.27,7.8v9.56H9.59V10.14q.32-.35.66-.66l.06-.06.4-.37c.25-.21.49-.42.75-.62S12,8,12.27,7.8Z"/><path class="cls-3" d="M24.28,9.39V12H8c.22-.29.46-.59.7-.87v-.05h0q.42-.49.87-1t.66-.66l.06-.06Z"/><polygon class="cls-3" points="24.27 16.35 24.27 17.36 15.39 12.93 17.34 12.93 24.27 16.35"/><path class="cls-3" d="M8.43,12.93l-1.58.79c.16-.27.32-.53.5-.79Z"/><path class="cls-3" d="M24.28,4h0L15.38,8.43h-2l8.71-4.34h0C22.76,4,23.37,4,24,4Z"/><polygon class="cls-2" points="14.01 29.06 14.37 31.62 12.58 29.76 10.81 31.62 11.19 29.05 8.57 28.86 8.67 28.8 10.81 27.55 9.45 25.43 11.81 26.33 12.59 23.89 13.37 26.34 15.76 25.45 14.33 27.56 16.5 28.85 14.01 29.06"/><polygon class="cls-2" points="36.25 34.98 35.44 34.12 34.61 35 34.78 33.78 33.55 33.69 34.61 33.07 33.97 32.08 35.08 32.5 35.45 31.35 35.82 32.5 36.94 32.09 36.27 33.08 37.29 33.69 36.11 33.79 36.25 34.98"/><path class="cls-2" d="M39.63,21.33l1.16.08-.17,1.14.79-.82.76.81L42,21.42l1.11-.1-1-.57.63-.93-1.06.39-.35-1.09-.34,1.08-1-.4.6.94,0,0Z"/><polygon class="cls-2" points="36.16 16 36.31 17.25 35.45 16.35 34.56 17.28 34.75 15.99 33.45 15.9 34.57 15.24 33.89 14.19 35.06 14.64 35.45 13.41 35.84 14.64 37.04 14.2 36.32 15.25 37.4 15.9 36.16 16"/><polygon class="cls-2" points="29.46 23.24 29.61 24.5 28.75 23.59 27.87 24.52 28.05 23.24 26.75 23.14 27.87 22.48 27.19 21.43 28.36 21.88 28.75 20.66 29.15 21.89 30.34 21.44 29.62 22.49 30.71 23.14 29.46 23.24"/><polygon class="cls-2" points="38.58 25.58 38.83 26.43 38.11 25.96 37.44 26.4 37.62 25.6 36.96 25.07 37.82 25.06 38.14 24.27 38.44 25.07 39.26 25.06 38.58 25.58"/></g></svg>