<svg id="Layer_1" data-name="Layer 1" xmlns="http://www.w3.org/2000/svg" viewBox="0 0 48 48"><defs><style>.cls-1{fill:#b32135;}.cls-2{fill:#3a3b6f;}.cls-3{fill:#fff;}.cls-4{fill:#fcfcfb;}.cls-5{fill:none;stroke:#dce2e5;stroke-miterlimit:10;stroke-width:0.5px;}</style></defs><title>All Flags</title><g id="US"><path class="cls-1" d="M44,24c0,.57,0,1.14-.07,1.7a19.48,19.48,0,0,1-.53,3.16,18,18,0,0,1-1,3A20,20,0,0,1,38.23,38a19.33,19.33,0,0,1-4,3.16,20,20,0,0,1-20.4,0,19.33,19.33,0,0,1-4-3.16,20,20,0,0,1-4.16-6.17,18,18,0,0,1-1-3,19.48,19.48,0,0,1-.53-3.16C4,25.14,4,24.57,4,24a19.42,19.42,0,0,1,.11-2c0-.49.11-1,.19-1.46a20.52,20.52,0,0,1,.6-2.46l0-.05q.21-.69.48-1.35h0c.23-.58.48-1.15.76-1.7l.26-.49a1.62,1.62,0,0,0,.1-.18l.29-.49a20,20,0,0,1,8.94-8l.06,0c.31-.14.63-.28,1-.4L17,5.24A20.11,20.11,0,0,1,24,4h.57a20,20,0,0,1,13.92,6.21,20.72,20.72,0,0,1,2.39,3,19.26,19.26,0,0,1,1.63,3.16,18.81,18.81,0,0,1,1,3.06A19.41,19.41,0,0,1,44,22.65C44,23.1,44,23.55,44,24Z"/><path class="cls-2" d="M24.57,4V25.7H4.07C4,25.14,4,24.57,4,24a19.42,19.42,0,0,1,.11-2c0-.49.11-1,.19-1.46a20.52,20.52,0,0,1,.6-2.46l0-.05q.21-.69.48-1.35h0c.23-.58.48-1.15.76-1.7l.26-.49a1.62,1.62,0,0,0,.1-.18l.29-.49a20,20,0,0,1,8.94-8l.06,0c.31-.14.63-.28,1-.4L17,5.24A20.11,20.11,0,0,1,24,4Z"/><path class="cls-3" d="M38.49,10.22H24.57V7.07H34.64A19.78,19.78,0,0,1,38.49,10.22Z"/><path class="cls-3" d="M42.51,16.43H24.57V13.27H40.88A19.26,19.26,0,0,1,42.51,16.43Z"/><path class="cls-3" d="M44,22.65H24.57V19.49H43.49A19.41,19.41,0,0,1,44,22.65Z"/><path class="cls-3" d="M43.93,25.7a19.48,19.48,0,0,1-.53,3.16H4.6a19.48,19.48,0,0,1-.53-3.16Z"/><path class="cls-3" d="M42.39,31.87A19.23,19.23,0,0,1,40.68,35H7.32a19.23,19.23,0,0,1-1.71-3.16Z"/><path class="cls-3" d="M38.23,38a19.33,19.33,0,0,1-4,3.16H13.8a19.33,19.33,0,0,1-4-3.16Z"/><polygon class="cls-4" points="15.09 9.34 14.34 8.79 13.59 9.34 13.86 8.48 13.13 7.91 14.05 7.9 14.33 7.03 14.63 7.91 15.56 7.9 14.81 8.46 15.09 9.34"/><polygon class="cls-4" points="20.2 9.34 19.46 8.79 18.71 9.34 18.98 8.48 18.25 7.91 19.17 7.9 19.45 7.03 19.75 7.91 20.68 7.9 19.93 8.46 20.2 9.34"/><polygon class="cls-4" points="10.03 13.71 9.29 13.16 8.54 13.71 8.8 12.85 8.07 12.28 8.99 12.27 9.28 11.4 9.58 12.28 10.5 12.27 9.76 12.83 10.03 13.71"/><polygon class="cls-4" points="15.08 13.71 14.33 13.16 13.59 13.71 13.85 12.85 13.12 12.28 14.04 12.27 14.32 11.4 14.62 12.28 15.55 12.27 14.81 12.83 15.08 13.71"/><polygon class="cls-4" points="20.2 13.71 19.45 13.16 18.71 13.71 18.97 12.85 18.24 12.28 19.16 12.27 19.44 11.4 19.74 12.28 20.67 12.27 19.93 12.83 20.2 13.71"/><polygon class="cls-4" points="4.92 18 4.94 18.08 4.9 18.05 4.92 18"/><polygon class="cls-4" points="5.41 16.64 5.4 16.64 5.4 16.64 5.41 16.64"/><polygon class="cls-4" points="10.02 18.08 9.28 17.54 8.53 18.08 8.8 17.21 8.06 16.64 8.99 16.64 9.27 15.77 9.57 16.65 10.49 16.64 9.75 17.2 10.02 18.08"/><polygon class="cls-4" points="15.07 18.08 14.32 17.54 13.58 18.08 13.84 17.21 13.11 16.64 14.04 16.64 14.31 15.77 14.61 16.65 15.54 16.64 14.8 17.2 15.07 18.08"/><polygon class="cls-4" points="20.19 18.08 19.44 17.54 18.7 18.08 18.96 17.21 18.23 16.64 19.16 16.64 19.43 15.77 19.73 16.65 20.66 16.64 19.92 17.2 20.19 18.08"/><path class="cls-4" d="M4.66,21.57l.27.88-.74-.55L4.11,22c0-.49.11-1,.19-1.46l.17.51h.94Z"/><polygon class="cls-4" points="10.01 22.45 9.27 21.9 8.52 22.45 8.79 21.58 8.05 21.01 8.98 21.01 9.26 20.14 9.56 21.02 10.48 21.01 9.74 21.57 10.01 22.45"/><polygon class="cls-4" points="15.06 22.45 14.32 21.9 13.57 22.45 13.84 21.58 13.1 21.01 14.03 21.01 14.31 20.14 14.61 21.02 15.53 21.01 14.79 21.57 15.06 22.45"/><polygon class="cls-4" points="20.18 22.45 19.44 21.9 18.69 22.45 18.95 21.58 18.22 21.01 19.15 21.01 19.43 20.14 19.73 21.02 20.65 21.01 19.91 21.57 20.18 22.45"/><path class="cls-4" d="M17.4,6.31l.27.88-.74-.55-.75.55.27-.87-.7-.54.06,0h.83l.12-.4L17,5.24l.18.52h.93Z"/><polygon class="cls-4" points="22.71 7.19 21.97 6.64 21.22 7.19 21.48 6.32 20.75 5.75 21.67 5.75 21.96 4.88 22.26 5.76 23.18 5.75 22.44 6.31 22.71 7.19"/><polygon class="cls-4" points="12.55 11.54 11.81 10.99 11.06 11.54 11.33 10.68 10.59 10.11 11.52 10.1 11.8 9.23 12.1 10.11 13.02 10.1 12.28 10.66 12.55 11.54"/><polygon class="cls-4" points="17.67 11.54 16.93 10.99 16.18 11.54 16.45 10.68 15.71 10.11 16.64 10.1 16.92 9.23 17.22 10.11 18.14 10.1 17.4 10.66 17.67 11.54"/><polygon class="cls-4" points="22.71 11.54 21.96 10.99 21.22 11.54 21.48 10.68 20.75 10.11 21.67 10.1 21.95 9.23 22.25 10.11 23.18 10.1 22.43 10.66 22.71 11.54"/><path class="cls-4" d="M7.23,15l.27.89-.74-.55L6,15.9,6.27,15l-.11-.09.26-.49h0l0-.18.29-.49.24.69.92,0Z"/><polygon class="cls-4" points="12.55 15.9 11.81 15.35 11.06 15.9 11.32 15.03 10.59 14.46 11.51 14.45 11.79 13.58 12.1 14.47 13.02 14.45 12.28 15.01 12.55 15.9"/><polygon class="cls-4" points="17.67 15.9 16.93 15.35 16.18 15.9 16.44 15.03 15.71 14.46 16.63 14.45 16.91 13.58 17.21 14.47 18.14 14.45 17.4 15.01 17.67 15.9"/><polygon class="cls-4" points="22.7 15.9 21.96 15.35 21.21 15.9 21.48 15.03 20.75 14.46 21.67 14.45 21.95 13.58 22.25 14.47 23.18 14.45 22.43 15.01 22.7 15.9"/><polygon class="cls-4" points="7.5 20.25 6.76 19.7 6.01 20.25 6.27 19.38 5.54 18.81 6.46 18.81 6.75 17.94 7.05 18.82 7.97 18.81 7.23 19.37 7.5 20.25"/><polygon class="cls-4" points="12.55 20.25 11.8 19.7 11.06 20.25 11.32 19.38 10.59 18.81 11.51 18.81 11.79 17.94 12.09 18.82 13.02 18.81 12.28 19.37 12.55 20.25"/><polygon class="cls-4" points="17.67 20.25 16.92 19.7 16.18 20.25 16.44 19.38 15.71 18.81 16.63 18.81 16.91 17.94 17.21 18.82 18.14 18.81 17.4 19.37 17.67 20.25"/><polygon class="cls-4" points="22.7 20.25 21.96 19.7 21.21 20.25 21.48 19.38 20.74 18.81 21.67 18.81 21.95 17.94 22.25 18.82 23.17 18.81 22.43 19.37 22.7 20.25"/><polygon class="cls-4" points="7.5 24.6 6.75 24.06 6.01 24.6 6.27 23.74 5.54 23.17 6.46 23.16 6.74 22.29 7.04 23.18 7.97 23.16 7.22 23.72 7.5 24.6"/><polygon class="cls-4" points="12.54 24.6 11.8 24.06 11.05 24.6 11.32 23.74 10.59 23.17 11.51 23.16 11.79 22.29 12.09 23.18 13.02 23.16 12.27 23.72 12.54 24.6"/><polygon class="cls-4" points="17.66 24.6 16.92 24.06 16.17 24.6 16.44 23.74 15.71 23.17 16.63 23.16 16.91 22.29 17.21 23.18 18.14 23.16 17.39 23.72 17.66 24.6"/><polygon class="cls-4" points="22.7 24.6 21.96 24.06 21.21 24.6 21.47 23.74 20.74 23.17 21.66 23.16 21.95 22.29 22.25 23.18 23.17 23.16 22.43 23.72 22.7 24.6"/><circle class="cls-5" cx="24" cy="24" r="20"/></g></svg>