<svg id="Layer_1" data-name="Layer 1" xmlns="http://www.w3.org/2000/svg" viewBox="0 0 48 48"><defs><style>.cls-1{fill:#e3161a;}.cls-2{fill:#fff;}.cls-3{fill:#241e50;}.cls-4{fill:none;stroke:#dce2e5;stroke-miterlimit:10;stroke-width:0.5px;}</style></defs><title>All Flags</title><g id="THB"><path class="cls-1" d="M38.91,10.67H9.09a20,20,0,0,1,29.82,0Z"/><path class="cls-2" d="M42.87,17.35H5.13a20,20,0,0,1,4-6.68H38.91A20,20,0,0,1,42.87,17.35Z"/><path class="cls-3" d="M44,24a20.05,20.05,0,0,1-1.13,6.65H5.13a20.13,20.13,0,0,1,0-13.3H42.87A20.05,20.05,0,0,1,44,24Z"/><path class="cls-1" d="M38.91,37.33a20,20,0,0,1-29.82,0Z"/><path class="cls-2" d="M42.87,30.65h0a20,20,0,0,1-4,6.68H9.09a20,20,0,0,1-4-6.68H42.87Z"/><circle class="cls-4" cx="24" cy="24" r="20"/></g></svg>