<svg id="Layer_1" data-name="Layer 1" xmlns="http://www.w3.org/2000/svg" viewBox="0 0 48 48"><defs><style>.cls-1{fill:#e73c42;}.cls-2{fill:#fff;}.cls-3{fill:#1d3661;}.cls-4{fill:none;stroke:#dce2e5;stroke-miterlimit:10;stroke-width:0.5px;}</style></defs><title>All Flags</title><g id="NOK"><path class="cls-1" d="M44,24a20.07,20.07,0,0,1-.63,5A20,20,0,0,1,24,44,20.11,20.11,0,0,1,19,43.35a19.9,19.9,0,0,1-7.56-3.83A20,20,0,0,1,4.63,29,20.07,20.07,0,0,1,4,24a20.72,20.72,0,0,1,.16-2.5,20.39,20.39,0,0,1,.5-2.61A19.92,19.92,0,0,1,11.39,8.48,20.49,20.49,0,0,1,14,6.68a19.54,19.54,0,0,1,4.95-2A20.11,20.11,0,0,1,24,4,20,20,0,0,1,43.34,18.89,20.6,20.6,0,0,1,44,24Z"/><path class="cls-2" d="M21.49,4.16V43.84A19,19,0,0,1,19,43.35a19.9,19.9,0,0,1-7.56-3.83v-31A20.49,20.49,0,0,1,14,6.68a19.54,19.54,0,0,1,4.95-2A19,19,0,0,1,21.49,4.16Z"/><path class="cls-2" d="M44,24a20.07,20.07,0,0,1-.63,5H4.63A20.07,20.07,0,0,1,4,24a20.72,20.72,0,0,1,.16-2.5,20.39,20.39,0,0,1,.5-2.61H43.34A20.6,20.6,0,0,1,44,24Z"/><path class="cls-3" d="M44,24a19.78,19.78,0,0,1-.15,2.45H4.15A19.78,19.78,0,0,1,4,24a20.72,20.72,0,0,1,.16-2.5H43.84A18.86,18.86,0,0,1,44,24Z"/><path class="cls-3" d="M19,4.65v38.7a19.54,19.54,0,0,1-4.95-2V6.68A19.54,19.54,0,0,1,19,4.65Z"/><circle class="cls-4" cx="24" cy="24" r="20"/></g></svg>