<svg id="Layer_1" data-name="Layer 1" xmlns="http://www.w3.org/2000/svg" viewBox="0 0 48 48"><defs><style>.cls-1{fill:#e32434;}.cls-2{fill:#fff;}.cls-3{fill:none;stroke:#dce2e5;stroke-miterlimit:10;stroke-width:0.5px;}</style></defs><title>All Flags</title><g id="SGD"><path class="cls-1" d="M44,24H4a20,20,0,0,1,40,0Z"/><path class="cls-2" d="M44,24A20,20,0,0,1,4,24Z"/><polygon class="cls-2" points="17 10.87 17.38 12.13 18.74 12.13 17.62 12.96 17.99 14.17 16.97 13.4 15.93 14.17 16.32 12.93 15.27 12.13 16.55 12.13 17 10.87"/><polygon class="cls-2" points="21.03 7.91 21.4 9.17 22.77 9.17 21.65 10 22.01 11.21 21 10.44 19.96 11.21 20.35 9.97 19.29 9.17 20.58 9.17 21.03 7.91"/><polygon class="cls-2" points="25.04 10.87 25.42 12.13 26.78 12.13 25.67 12.96 26.03 14.17 25.01 13.4 23.97 14.17 24.36 12.93 23.31 12.13 24.59 12.13 25.04 10.87"/><polygon class="cls-2" points="23.51 15.63 23.88 16.89 25.24 16.89 24.13 17.72 24.49 18.94 23.47 18.16 22.43 18.94 22.82 17.69 21.77 16.89 23.05 16.89 23.51 15.63"/><polygon class="cls-2" points="18.49 15.63 18.87 16.89 20.23 16.89 19.11 17.72 19.47 18.94 18.46 18.16 17.42 18.94 17.81 17.69 16.75 16.89 18.04 16.89 18.49 15.63"/><path class="cls-2" d="M19.67,21.11A7.57,7.57,0,1,1,19.8,6.92a7.1,7.1,0,0,0-.13,14.19Z"/><circle class="cls-3" cx="24" cy="24" r="20"/></g></svg>