<svg xmlns="http://www.w3.org/2000/svg" xmlns:xlink="http://www.w3.org/1999/xlink" width="55" height="55" viewBox="0 0 55 55">
    <defs>
        <path id="a" d="M.483.118h14.428v8.41H.483z"/>
        <path id="c" d="M.483.205h14.428v8.41H.483z"/>
        <path id="e" d="M0 37.036h20.655V.539H0z"/>
    </defs>
    <g fill="none" fill-rule="evenodd">
        <circle cx="27.5" cy="27.5" r="27.5" fill="#EBEFF1"/>
        <g transform="translate(17 9)">
            <path fill="#525252" d="M4.44 8.876c-2.232 0-3.363 1.593-3.363 4.734v10.355c0 3.14 1.13 4.733 3.362 4.733h9.746c2.231 0 3.363-1.592 3.363-4.733V13.61c0-3.14-1.132-4.734-3.363-4.734H4.44zm9.745 20.9H4.44C1.577 29.775 0 27.711 0 23.965V13.61C0 9.863 1.577 7.8 4.44 7.8h9.745c2.863 0 4.44 2.063 4.44 5.81v10.355c0 3.747-1.577 5.81-4.44 5.81z"/>
            <g transform="translate(1.615 .42)">
                <mask id="b" fill="#fff">
                    <use xlink:href="#a"/>
                </mask>
                <path fill="#525252" d="M1.647 7.451h12.1l-.693-4.565a1.98 1.98 0 0 0-1.967-1.691h-6.78c-.99 0-1.818.711-1.967 1.69l-.693 4.566zm12.726 1.077H1.02a.538.538 0 0 1-.532-.62l.787-5.183A3.047 3.047 0 0 1 4.306.118h6.78a3.05 3.05 0 0 1 3.032 2.606l.787 5.185a.538.538 0 0 1-.532.62z" mask="url(#b)"/>
            </g>
            <g transform="translate(1.615 28.42)">
                <mask id="d" fill="#fff">
                    <use xlink:href="#c"/>
                </mask>
                <path fill="#525252" d="M1.647 1.282l.693 4.565c.149.98.976 1.692 1.967 1.692h6.78a1.98 1.98 0 0 0 1.967-1.692l.693-4.565h-12.1zm9.44 7.334h-6.78a3.047 3.047 0 0 1-3.031-2.607L.489.825a.538.538 0 0 1 .532-.62h13.352a.538.538 0 0 1 .532.62l-.787 5.184a3.05 3.05 0 0 1-3.031 2.607z" mask="url(#d)"/>
            </g>
            <mask id="f" fill="#fff">
                <use xlink:href="#e"/>
            </mask>
            <path fill="#525252" d="M18.673 15.85h.905v-2.006h-.905v2.007zm1.443 1.078h-1.982a.538.538 0 0 1-.538-.539v-3.084c0-.297.24-.538.538-.538h1.982c.298 0 .539.241.539.538v3.084c0 .297-.24.539-.539.539zM18.673 23.73h.06v-3.034h-.06v3.035zm.599 1.078h-1.138a.538.538 0 0 1-.538-.539v-4.111c0-.297.24-.539.538-.539h1.138c.297 0 .538.242.538.539v4.111c0 .297-.24.539-.538.539zM5.755 11.699c-1.532 0-2.308 1.113-2.308 3.31v7.558c0 2.195.776 3.309 2.308 3.309h7.114c1.532 0 2.309-1.114 2.309-3.31v-7.558c0-2.196-.777-3.31-2.309-3.31H5.755zm7.114 15.254H5.755c-2.183 0-3.385-1.558-3.385-4.386v-7.559c0-2.828 1.202-4.386 3.385-4.386h7.114c2.183 0 3.386 1.558 3.386 4.386v7.559c0 2.828-1.203 4.386-3.386 4.386z" mask="url(#f)"/>
        </g>
    </g>
</svg>
