<svg xmlns="http://www.w3.org/2000/svg" xmlns:xlink="http://www.w3.org/1999/xlink" width="55" height="55" viewBox="0 0 55 55">
    <defs>
        <path id="a" d="M0 .53h12.882v12.048H0z"/>
    </defs>
    <g fill="none" fill-rule="evenodd">
        <circle cx="27.5" cy="27.5" r="27.5" fill="#EBEFF1"/>
        <path fill="#525252" d="M19.237 27.071c-.081 0-.424.076-.595.2-.106.076-.253.384-.242.505.161.61.45 1.237.832 1.798.356.522.767 1.032 1.164 1.526.34.423.692.86 1.018 1.314 1.644 2.291 3.516 3.844 5.723 4.748.941.384 1.333 1.171 1.076 2.157-.05.192-.072.399-.064.587l10.88-4.588c-.577-.803-1.203-1.756-1.458-2.949-.602-2.818-1.285-6.013-2.911-8.799-.357-.611-1.078-1.172-1.656-1.058-1.801.36-3.934.806-6.09 1.38-1.212.322-2.452.382-3.329-1.329a85.81 85.81 0 0 1-.829-1.677 74.755 74.755 0 0 0-.912-1.84c-.242-.465-.48-.81-.73-1.053-.378-.369-.8-.518-1.158-.413-.341.102-.599.438-.707.922-.06.276-.004.692.152 1.114.8 2.154 1.65 4.334 2.471 6.442l.224.574c.181.465.378.924.576 1.383l.28.652a.553.553 0 0 1-.28.718l-.33.15a.553.553 0 0 1-.654-.149 6.582 6.582 0 0 1-.165-.206c-.1-.129-.195-.25-.293-.342a41.988 41.988 0 0 1-.482-.463c-.5-.486-.971-.945-1.504-1.304h-.007zm9.229 13.902c.236.607.514 1.233.832 1.869.41.823 1.154 1.107 1.989.77a399.206 399.206 0 0 0 8.275-3.51c.567-.246 1.107-.752.926-1.429-.253-.948-.543-1.743-.876-2.401l-11.146 4.7zm2.16 3.883c-.965 0-1.829-.542-2.318-1.52a22.131 22.131 0 0 1-1.143-2.703c-.155-.455-.164-1.05-.022-1.594.116-.442-.003-.682-.425-.855-2.404-.984-4.433-2.66-6.202-5.124-.308-.43-.65-.856-.982-1.267-.41-.51-.835-1.038-1.215-1.596a7.043 7.043 0 0 1-.99-2.154c-.151-.57.227-1.351.665-1.668.432-.314 1.346-.572 1.869-.22.462.312.878.68 1.273 1.057l-.07-.178-.224-.574A423.198 423.198 0 0 1 18.364 20c-.135-.367-.34-1.078-.194-1.738.198-.888.733-1.522 1.47-1.741.756-.225 1.574.023 2.247.68.335.328.642.765.938 1.337.32.616.623 1.24.927 1.865.268.554.537 1.108.817 1.656.464.906.906 1.07 2.06.764 2.186-.581 4.34-1.032 6.158-1.395 1.12-.224 2.27.628 2.828 1.585 1.715 2.939 2.418 6.225 3.037 9.125.196.913.648 1.668 1.315 2.59.661.914 1.167 2.078 1.59 3.66.293 1.1-.331 2.196-1.553 2.728a410.99 410.99 0 0 1-8.3 3.52c-.363.148-.728.22-1.078.22z"/>
        <g transform="translate(13 10.024)">
            <mask id="b" fill="#fff">
                <use xlink:href="#a"/>
            </mask>
            <path fill="#525252" d="M3.42 12.578a.552.552 0 0 1-.284-.078A6.479 6.479 0 0 1 0 6.97 6.448 6.448 0 0 1 6.44.53a6.448 6.448 0 0 1 6.311 7.738.552.552 0 1 1-1.083-.222 5.341 5.341 0 0 0-5.227-6.41 5.342 5.342 0 0 0-5.335 5.334c0 1.894.971 3.606 2.598 4.58a.553.553 0 0 1-.285 1.028" mask="url(#b)"/>
        </g>
    </g>
</svg>
