<svg xmlns="http://www.w3.org/2000/svg" xmlns:xlink="http://www.w3.org/1999/xlink" width="55" height="55" viewBox="0 0 55 55">
    <defs>
        <path id="a" d="M0 .29h32.375v14.047H0z"/>
    </defs>
    <g fill="none" fill-rule="evenodd">
        <circle cx="27.5" cy="27.5" r="27.5" fill="#EBEFF1"/>
        <g transform="translate(11 14.29)">
            <mask id="b" fill="#fff">
                <use xlink:href="#a"/>
            </mask>
            <path fill="#525252" d="M31.796 14.337a.578.578 0 0 1-.369-.134l-15.24-12.68L.949 14.203a.579.579 0 0 1-.74-.89L15.702.424a.58.58 0 0 1 .37-.134h.231a.58.58 0 0 1 .37.134l15.494 12.89a.579.579 0 0 1-.37 1.024" mask="url(#b)"/>
        </g>
        <path fill="#525252" d="M21.891 41.46h-6.454a.578.578 0 0 1-.578-.577V24.895a.578.578 0 1 1 1.156 0v15.41h5.876a.578.578 0 1 1 0 1.156M38.938 41.46h-6.454a.578.578 0 1 1 0-1.155h5.876v-15.41a.578.578 0 1 1 1.156 0v15.988c0 .319-.258.578-.578.578"/>
        <path fill="#525252" d="M32.484 41.447a.578.578 0 0 1-.578-.578V30.132H22.47v10.737a.578.578 0 0 1-1.157 0V29.554c0-.32.259-.578.578-.578h10.593c.32 0 .578.259.578.578v11.315c0 .32-.258.578-.578.578M32.484 27.241H21.89a.578.578 0 1 1 0-1.156h10.593a.578.578 0 1 1 0 1.156"/>
    </g>
</svg>
