<svg xmlns="http://www.w3.org/2000/svg" xmlns:xlink="http://www.w3.org/1999/xlink" width="55" height="55" viewBox="0 0 55 55">
    <defs>
        <path id="a" d="M.062.057h25.076V36.6H.062z"/>
    </defs>
    <g fill="none" fill-rule="evenodd">
        <circle cx="27.5" cy="27.5" r="27.5" fill="#EBEFF1"/>
        <g transform="translate(18.8 9.543)">
            <mask id="b" fill="#fff">
                <use xlink:href="#a"/>
            </mask>
            <path fill="#525252" d="M15.893 36.6a3.32 3.32 0 0 1-.667-.068L3.014 34.026c-2.06-.424-3.337-2.71-2.847-5.096l5.18-25.243C5.837 1.3 7.911-.297 9.972.124l12.212 2.507c1.018.208 1.873.867 2.408 1.854.517.952.674 2.104.44 3.242l-1.677 7.98a.6.6 0 1 1-1.174-.247l1.676-7.977c.176-.859.063-1.72-.32-2.426-.363-.67-.93-1.114-1.594-1.25L9.73 1.3c-1.405-.289-2.85.888-3.207 2.628l-5.18 25.243c-.358 1.739.501 3.39 1.913 3.68l12.212 2.506c1.412.288 2.85-.89 3.208-2.629l1.46-7.12a.6.6 0 1 1 1.176.242l-1.46 7.12c-.438 2.128-2.136 3.63-3.959 3.63" mask="url(#b)"/>
        </g>
        <path fill="#525252" d="M42.802 19.909a.603.603 0 0 1-.121-.013l-18.51-3.798a.6.6 0 1 1 .242-1.176l18.509 3.8a.6.6 0 0 1-.12 1.187M36.744 15.59a.603.603 0 0 1-.121-.012l-5.183-1.063a.6.6 0 0 1 .241-1.176l5.183 1.064a.6.6 0 0 1-.12 1.188M38.507 40.832a.603.603 0 0 1-.12-.012l-18.51-3.799a.6.6 0 1 1 .242-1.175l18.508 3.799a.6.6 0 0 1-.12 1.187M29.72 41.504a1.096 1.096 0 1 1-2.147-.441 1.096 1.096 0 0 1 2.147.44M35.528 34.451l-.017-1.422a2.278 2.278 0 0 1-1.146-.538c-.486-.426-.746-.965-.752-1.56l-.003-.233 1.12-.014.003.233c.002.219.136.468.375.702.238.198.595.317.965.312.368-.005.708-.13.932-.342.234-.2.355-.446.352-.703-.003-.218-.136-.468-.375-.701-.211-.207-.54-.318-.928-.313a2.588 2.588 0 0 1-1.687-.605c-.484-.425-.743-.964-.75-1.558a2.002 2.002 0 0 1 .722-1.586c.307-.275.702-.47 1.125-.556l-.018-1.424 1.12-.014.018 1.423c.429.07.806.246 1.146.537.485.426.745.965.752 1.56l.003.234-1.12.013-.003-.233c-.003-.219-.137-.468-.375-.701-.236-.179-.58-.285-.95-.28-.369.005-.71.118-.962.322a.9.9 0 0 0-.338.69c.003.22.136.469.376.702.21.206.54.318.927.313a2.589 2.589 0 0 1 1.687.604c.484.425.743.964.75 1.56a2 2 0 0 1-.721 1.584c-.307.275-.702.47-1.125.556l.017 1.425-1.12.013z"/>
        <path fill="#525252" d="M36.015 23.079c-3.507.042-6.221 2.823-6.178 6.33a6.261 6.261 0 0 0 6.33 6.179 6.262 6.262 0 0 0 6.179-6.33 6.263 6.263 0 0 0-6.33-6.18m.164 13.63c-4.066.05-7.414-3.218-7.464-7.285-.049-4.067 3.219-7.415 7.286-7.464 4.066-.05 7.415 3.218 7.464 7.285.05 4.067-3.219 7.415-7.286 7.464M27.522 24.357a.636.636 0 0 1-.12-.012l-14.03-2.847a.6.6 0 1 1 .24-1.176l14.029 2.847a.6.6 0 0 1-.12 1.188"/>
        <path fill="#525252" d="M15.15 24.232l-2.781-2.87a.6.6 0 0 1 .172-.959l3.603-1.724.518 1.083-2.85 1.364 2.199 2.27-.862.836zM26.322 30.957a.636.636 0 0 1-.12-.012l-14.03-2.847a.6.6 0 1 1 .24-1.176l14.029 2.847a.6.6 0 0 1-.12 1.188"/>
        <path fill="#525252" d="M13.95 30.832l-2.781-2.87a.6.6 0 0 1 .172-.959l3.603-1.724.518 1.083-2.85 1.364 2.199 2.27-.862.836z"/>
    </g>
</svg>
