<svg xmlns="http://www.w3.org/2000/svg" xmlns:xlink="http://www.w3.org/1999/xlink" width="48" height="48" viewBox="0 0 48 48">
    <defs>
        <path id="a" d="M2.379.695v.864h-.187c-1.008 0-1.828.785-1.828 1.75 0 .964.82 1.75 1.828 1.75h1.191c.557 0 1.01.432 1.01.966 0 .533-.453.966-1.01.966h-1.19c-.558 0-1.01-.433-1.01-.966a.401.401 0 0 0-.41-.392.401.401 0 0 0-.41.392c0 .965.821 1.75 1.83 1.75h.186v.864c0 .216.183.391.41.391a.401.401 0 0 0 .408-.391v-.865h.186c1.009 0 1.83-.784 1.83-1.75 0-.964-.821-1.749-1.83-1.749h-1.19c-.558 0-1.01-.434-1.01-.966 0-.533.452-.967 1.01-.967h1.19c.557 0 1.01.434 1.01.967a.4.4 0 0 0 .41.391c.226 0 .41-.175.41-.391 0-.965-.821-1.75-1.83-1.75h-.186V.695a.402.402 0 0 0-.409-.392.401.401 0 0 0-.41.392z"/>
    </defs>
    <g fill="none" fill-rule="evenodd">
        <circle cx="24" cy="24" r="24" fill="#EBEFF1"/>
        <g transform="translate(25.429 11.976)">
            <mask id="b" fill="#fff">
                <use xlink:href="#a"/>
            </mask>
            <path fill="#495A63" d="M-4.485 13.879H10.06V-4.545H-4.485z" mask="url(#b)"/>
        </g>
        <g fill="#525252">
            <path d="M30.64 23.687H17.1a.476.476 0 0 1 0-.952h13.54a.476.476 0 1 1 0 .952M30.64 26.195H17.1a.476.476 0 0 1 0-.953h13.54a.476.476 0 1 1 0 .953M30.64 28.702H17.1a.476.476 0 0 1 0-.952h13.54a.476.476 0 1 1 0 .952"/>
            <path d="M26.014 38.02h-11.43a.476.476 0 0 1-.476-.476V9.925c0-.263.213-.476.477-.476h18.571c.263 0 .476.213.476.476v21.21a.476.476 0 1 1-.952 0V10.402H15.06v26.667h10.954a.476.476 0 1 1 0 .952"/>
            <path d="M26.49 31.612v4.865l5.422-4.865H26.49zm-.477 6.408a.477.477 0 0 1-.476-.476v-6.409c0-.262.213-.476.476-.476h7.143a.476.476 0 0 1 .318.83l-7.143 6.41a.476.476 0 0 1-.318.121z"/>
        </g>
    </g>
</svg>
