<svg xmlns="http://www.w3.org/2000/svg" xmlns:xlink="http://www.w3.org/1999/xlink" width="55" height="55" viewBox="0 0 55 55">
    <defs>
        <path id="a" d="M0 .453h21.88V2.67H0z"/>
    </defs>
    <g fill="none" fill-rule="evenodd">
        <circle cx="27.5" cy="27.5" r="27.5" fill="#EBEFF1"/>
        <path fill="#525252" d="M38.343 43.82H17.537a.536.536 0 0 1-.537-.537v-31.21a.536.536 0 1 1 1.073 0v30.674h19.734V12.073a.536.536 0 1 1 1.073 0v31.21c0 .296-.24.537-.537.537"/>
        <g transform="translate(17 11.088)">
            <mask id="b" fill="#fff">
                <use xlink:href="#a"/>
            </mask>
            <path fill="#525252" d="M19.27 2.671c-.99 0-1.978-.342-2.776-.952a4.609 4.609 0 0 1-2.778.952c-1.234 0-2.184-.524-2.776-.98-.592.456-1.542.98-2.776.98a4.607 4.607 0 0 1-2.778-.952 4.617 4.617 0 0 1-2.775.952c-.812 0-1.603-.23-2.353-.685a.536.536 0 1 1 .557-.918c.58.352 1.183.53 1.796.53.876 0 1.754-.355 2.407-.972a.536.536 0 0 1 .738 0c.65.618 1.528.972 2.408.972.85 0 1.729-.365 2.41-1a.536.536 0 0 1 .732 0c.681.635 1.56 1 2.41 1 .88 0 1.758-.354 2.408-.972a.536.536 0 0 1 .738 0c.652.617 1.53.972 2.407.972.613 0 1.217-.178 1.796-.53a.538.538 0 0 1 .557.918c-.75.454-1.541.685-2.353.685" mask="url(#b)"/>
        </g>
        <path fill="#525252" d="M35.569 18.06H20.31a.537.537 0 0 1 0-1.073H35.57a.536.536 0 1 1 0 1.073M35.569 20.885H20.31a.537.537 0 0 1 0-1.073H35.57a.536.536 0 1 1 0 1.073M35.569 39.316H20.31a.537.537 0 0 1 0-1.074H35.57a.536.536 0 1 1 0 1.074M26.387 32.458l-.74-1.28c-.3-.489-.489-.807-.669-1.142h-.017c-.163.335-.327.645-.627 1.151l-.695 1.271h-.86l1.77-2.928-1.7-2.86h.866l.765 1.357c.215.377.377.67.532.978h.026c.163-.343.31-.61.524-.978l.79-1.357h.86l-1.761 2.817 1.803 2.971h-.867z"/>
        <path fill="#525252" d="M26.503 32.257h.394l-1.682-2.772 1.634-2.614h-.38l-.733 1.257c-.203.35-.352.62-.517.964l-.054.115h-.251l-.08-.112a20.54 20.54 0 0 0-.529-.969l-.707-1.255h-.396l1.581 2.66-1.647 2.726h.383l.638-1.167c.31-.521.467-.823.624-1.142l.055-.113h.246l.073.106c.18.335.373.656.664 1.132l.684 1.184zm1.109.402H26.27l-.797-1.38c-.201-.33-.357-.587-.495-.828-.12.229-.261.485-.472.839l-.748 1.37h-1.335l1.89-3.131-1.818-3.06h1.337l.824 1.459c.139.246.258.456.365.658.112-.216.227-.42.367-.66l.848-1.458h1.339l-1.888 3.02 1.925 3.171zM32.234 32.458l-.74-1.28c-.3-.489-.489-.807-.669-1.142h-.018c-.162.335-.326.645-.626 1.151l-.696 1.271h-.859l1.77-2.928-1.702-2.86h.868l.764 1.357c.215.377.378.67.532.978h.027c.163-.343.31-.61.524-.978l.79-1.357h.858l-1.76 2.817 1.803 2.971h-.866z"/>
        <path fill="#525252" d="M32.35 32.257h.393l-1.683-2.772 1.634-2.614h-.379l-.732 1.257c-.198.34-.347.607-.517.964l-.054.115h-.252l-.082-.112a19.317 19.317 0 0 0-.527-.969l-.706-1.255h-.397l1.582 2.66-1.647 2.726h.382l.639-1.167c.312-.525.469-.825.622-1.141l.055-.114h.246l.075.106c.167.31.34.606.664 1.132l.684 1.184zm1.107.402h-1.34l-.797-1.38a31.514 31.514 0 0 1-.495-.829c-.119.228-.26.484-.472.84l-.749 1.37H28.27l1.89-3.131-1.82-3.06h1.34l.822 1.459c.14.246.258.456.366.658.114-.22.229-.424.367-.66l.848-1.458h1.337l-1.887 3.02 1.924 3.171z"/>
    </g>
</svg>
