<svg xmlns="http://www.w3.org/2000/svg" width="55" height="55" viewBox="0 0 55 55">
    <g fill="none" fill-rule="evenodd">
        <circle cx="27.5" cy="27.5" r="27.5" fill="#EBEFF1"/>
        <g fill="#525252">
            <path d="M16.345 43.95a.633.633 0 0 1-.634-.633V16.053c0-2.786 1.952-5.053 4.353-5.053h14.423c2.4 0 4.353 2.267 4.353 5.053v2.551a.633.633 0 1 1-1.268 0v-2.55c0-2.089-1.383-3.786-3.085-3.786H20.064c-1.701 0-3.086 1.697-3.086 3.785v27.264c0 .35-.283.633-.633.633"/>
            <path d="M38.206 43.95a.633.633 0 0 1-.634-.633V18.354a.633.633 0 1 1 1.268 0v24.963c0 .35-.283.633-.634.633"/>
            <path d="M38.206 19.238h-21.86a.633.633 0 1 1 0-1.268h21.86a.633.633 0 1 1 0 1.268M30.336 15.753h-6.121a.634.634 0 1 1 0-1.268h6.121a.633.633 0 1 1 0 1.268M40.917 43.95H13.634a.633.633 0 1 1 0-1.267h27.283a.633.633 0 1 1 0 1.267M27.275 30.88a4.44 4.44 0 0 0-4.434 4.435 4.44 4.44 0 0 0 4.434 4.434 4.44 4.44 0 0 0 4.435-4.434 4.44 4.44 0 0 0-4.435-4.435m0 10.138a5.71 5.71 0 0 1-5.704-5.703 5.71 5.71 0 0 1 5.704-5.704 5.71 5.71 0 0 1 5.704 5.704 5.71 5.71 0 0 1-5.704 5.703"/>
            <path d="M25.755 37.976a.633.633 0 0 1-.567-.35l-1.014-2.028a.633.633 0 1 1 1.134-.567l.62 1.242 3.434-3.434a.634.634 0 1 1 .896.896l-4.055 4.056a.635.635 0 0 1-.448.185M20.253 24.261c0 1.287.697 2.44 1.921 2.44 1.233 0 1.93-1.136 1.93-2.503 0-1.196-.626-2.447-1.921-2.447-1.286 0-1.93 1.188-1.93 2.51m4.673-.098c0 2.073-1.26 3.172-2.796 3.172-1.591 0-2.708-1.233-2.708-3.056 0-1.912 1.188-3.163 2.797-3.163 1.643 0 2.707 1.26 2.707 3.047"/>
            <path d="M22.183 21.989c-1.17 0-1.692 1.14-1.692 2.272 0 1.06.527 2.201 1.683 2.201 1.169 0 1.692-1.137 1.692-2.264 0-1.064-.527-2.21-1.683-2.21m-.009 4.95c-1.417 0-2.159-1.347-2.159-2.677 0-1.368.67-2.748 2.168-2.748 1.417 0 2.159 1.35 2.159 2.685 0 1.614-.891 2.74-2.168 2.74m.045-5.584c-1.507 0-2.559 1.203-2.559 2.925 0 1.686.993 2.818 2.47 2.818 1.554 0 2.558-1.152 2.558-2.934 0-1.68-.992-2.809-2.469-2.809m-.09 6.219c-1.733 0-2.945-1.355-2.945-3.294 0-2.002 1.248-3.4 3.035-3.4 1.761 0 2.945 1.32 2.945 3.284 0 2.356-1.524 3.41-3.034 3.41M27.49 21.876h-1.832v-.661h4.458v.66h-1.84v5.362h-.787z"/>
            <path d="M27.727 26.998h.311v-5.36h1.84v-.186h-3.982v.186h1.831v5.36zm.787.476h-1.263v-5.36h-1.83v-1.138h4.933v1.138h-1.84v5.36zM32.197 24.19c.171.044.384.062.644.062.938 0 1.51-.455 1.51-1.286 0-.795-.563-1.18-1.421-1.18-.34 0-.598.027-.733.063v2.341zm-.777-2.904a9.06 9.06 0 0 1 1.492-.116c.768 0 1.332.178 1.689.5.33.286.527.724.527 1.26 0 .545-.161.974-.465 1.287-.41.437-1.08.66-1.84.66-.232 0-.447-.009-.626-.053v2.412h-.777v-5.95z"/>
            <path d="M32.435 23.993c.113.014.248.022.406.022.475 0 1.272-.137 1.272-1.05 0-1.078-1.242-.967-1.678-.916v1.944zm.406.497c-.297 0-.52-.022-.704-.07l-.178-.046v-2.708l.177-.047c.17-.045.459-.07.794-.07 1.039 0 1.66.53 1.66 1.416 0 .956-.655 1.525-1.75 1.525zm-1.183 2.508h.301V24.52l.296.073c.165.04.38.047.568.047.72 0 1.312-.209 1.667-.587.266-.274.4-.65.4-1.123 0-.448-.158-.831-.445-1.08-.322-.29-.852-.442-1.533-.442-.44 0-.86.028-1.254.083v5.507zm.777.476h-1.253v-6.39l.2-.033c.475-.079.99-.119 1.53-.119.813 0 1.435.19 1.848.562.39.337.606.848.606 1.436 0 .6-.179 1.089-.533 1.452-.507.543-1.406.808-2.398.72v2.372z"/>
        </g>
    </g>
</svg>
