<svg xmlns="http://www.w3.org/2000/svg" xmlns:xlink="http://www.w3.org/1999/xlink" width="48" height="48" viewBox="0 0 48 48">
    <defs>
        <path id="a" d="M2.495.692v1.062h-.229c-1.24 0-2.247.964-2.247 2.15 0 1.185 1.008 2.149 2.247 2.149H3.73c.685 0 1.24.533 1.24 1.188 0 .654-.555 1.187-1.24 1.187H2.266c-.685 0-1.24-.533-1.24-1.187a.494.494 0 0 0-.504-.482.494.494 0 0 0-.503.482c0 1.185 1.008 2.149 2.247 2.149h.229v1.062c0 .266.225.481.503.481a.493.493 0 0 0 .503-.481V9.39h.228c1.24 0 2.247-.964 2.247-2.15 0-1.184-1.008-2.149-2.247-2.149H2.266c-.685 0-1.24-.532-1.24-1.187s.555-1.188 1.24-1.188H3.73c.685 0 1.24.533 1.24 1.188 0 .265.227.48.504.48a.493.493 0 0 0 .503-.48c0-1.186-1.008-2.15-2.247-2.15H3.5V.692A.494.494 0 0 0 2.998.21a.493.493 0 0 0-.503.482z"/>
    </defs>
    <g fill="none" fill-rule="evenodd">
        <circle cx="24" cy="24" r="24" fill="#EBEFF1"/>
        <g fill="#525252">
            <path d="M11.268 29.202a.53.53 0 0 1-.53-.53v-2.994a.53.53 0 1 1 1.06 0v2.994a.53.53 0 0 1-.53.53M11.268 21.807a.53.53 0 0 1-.53-.53v-8.98a.53.53 0 1 1 1.06 0v8.98a.53.53 0 0 1-.53.53M32.695 15.948H15.43a.53.53 0 1 1 0-1.06h17.266a.53.53 0 1 1 0 1.06"/>
            <path d="M14.898 9.39c-1.751.195-3.1 1.347-3.1 2.734s1.349 2.539 3.1 2.734V9.39zm.53 6.558c-2.586 0-4.69-1.715-4.69-3.824 0-2.108 2.104-3.824 4.69-3.824a.53.53 0 0 1 .53.53v6.588a.53.53 0 0 1-.53.53zM36.896 19.242a.53.53 0 0 1-.53-.53c0-1.524-1.628-2.764-3.63-2.764a.53.53 0 0 1 0-1.06c2.586 0 4.69 1.715 4.69 3.824a.53.53 0 0 1-.53.53M32.57 32.496H15.428a.53.53 0 1 1 0-1.06H32.57a.53.53 0 1 1 0 1.06"/>
            <path d="M33.266 32.525v5.47c1.751-.196 3.1-1.348 3.1-2.735 0-1.387-1.349-2.539-3.1-2.735m-.53 6.56a.53.53 0 0 1-.53-.531v-6.588a.53.53 0 0 1 .53-.53c2.586 0 4.69 1.716 4.69 3.824 0 2.109-2.104 3.824-4.69 3.824M15.428 32.496c-2.586 0-4.69-1.715-4.69-3.824a.53.53 0 0 1 1.06 0c0 1.524 1.629 2.764 3.63 2.764a.53.53 0 1 1 0 1.06M36.895 21.807a.53.53 0 0 1-.53-.53l.001-2.392a.53.53 0 1 1 1.06 0v2.392a.53.53 0 0 1-.53.53"/>
            <path d="M36.889 35.096h-.001a.53.53 0 0 1-.53-.53l.005-8.889a.53.53 0 0 1 1.06 0l-.004 8.89a.53.53 0 0 1-.53.53"/>
        </g>
        <g transform="translate(21.084 18.12)">
            <mask id="b" fill="#fff">
                <use xlink:href="#a"/>
            </mask>
            <path fill="#495A63" d="M-5.938 16.89h17.872V-5.746H-5.938z" mask="url(#b)"/>
        </g>
        <g fill="#525252">
            <path d="M16.14 26.208H7.533a.53.53 0 1 1 0-1.06h8.075v-2.912H7.534a.53.53 0 1 1 0-1.06h8.605a.53.53 0 0 1 .53.53v3.972a.53.53 0 0 1-.53.53"/>
            <path d="M7.534 28.856a.53.53 0 0 1-.375-.156l-4.633-4.633a.53.53 0 0 1 0-.75l4.633-4.633a.53.53 0 0 1 .905.375v2.647a.53.53 0 1 1-1.06 0V20.34L3.65 23.692l3.354 3.354v-1.369a.53.53 0 1 1 1.06 0v2.648a.53.53 0 0 1-.53.53M40.63 26.208h-8.605a.53.53 0 0 1-.53-.53v-3.972a.53.53 0 0 1 .53-.53h8.605a.53.53 0 1 1 0 1.06h-8.074v2.912h8.074a.53.53 0 1 1 0 1.06"/>
            <path d="M40.63 28.856a.53.53 0 0 1-.53-.53v-2.649a.53.53 0 1 1 1.06 0v1.369l3.354-3.354-3.354-3.353v1.367a.53.53 0 1 1-1.06 0V19.06a.53.53 0 0 1 .905-.375l4.633 4.633a.53.53 0 0 1 0 .75L41.005 28.7a.53.53 0 0 1-.375.156"/>
        </g>
    </g>
</svg>
