<svg xmlns="http://www.w3.org/2000/svg" xmlns:xlink="http://www.w3.org/1999/xlink" width="55" height="55" viewBox="0 0 55 55">
    <defs>
        <path id="a" d="M.273.244H8.39V7.66H.273z"/>
    </defs>
    <g fill="none" fill-rule="evenodd">
        <circle cx="27.5" cy="27.5" r="27.5" fill="#EBEFF1"/>
        <path fill="#525252" d="M26.366 43.804c-3.306 0-6.53-1.002-9.305-2.924a16.292 16.292 0 0 1-6.796-10.552c-1.614-8.897 4.311-17.449 13.208-19.063 8.901-1.614 17.449 4.311 19.063 13.208.601 3.313.182 6.679-1.213 9.731a.56.56 0 1 1-1.017-.464 15.194 15.194 0 0 0 1.129-9.068c-1.504-8.29-9.47-13.81-17.762-12.306-8.29 1.504-13.811 9.472-12.307 17.762A15.177 15.177 0 0 0 17.7 39.96a15.18 15.18 0 0 0 11.43 2.475 15.23 15.23 0 0 0 7.617-3.786.56.56 0 0 1 .758.822 16.349 16.349 0 0 1-8.176 4.065c-.988.18-1.979.268-2.962.268"/>
        <g transform="translate(36.288 33.176)">
            <mask id="b" fill="#fff">
                <use xlink:href="#a"/>
            </mask>
            <path fill="#525252" d="M7.83 7.66a.564.564 0 0 1-.097-.008L.736 6.43A.559.559 0 1 1 .93 5.328l5.88 1.027-2.762-5.292a.56.56 0 0 1 .992-.518l3.287 6.297a.561.561 0 0 1-.496.818" mask="url(#b)"/>
        </g>
        <path fill="#525252" d="M29.813 27.91a.56.56 0 0 1-.56-.559v-6.93a.56.56 0 1 1 1.12 0v6.93a.56.56 0 0 1-.56.56M22.883 27.91a.56.56 0 0 1-.56-.559v-6.93a.56.56 0 1 1 1.12 0v6.93a.56.56 0 0 1-.56.56"/>
        <path fill="#525252" d="M29.813 20.98a.56.56 0 0 1-.56-.559 2.909 2.909 0 0 0-2.905-2.905 2.91 2.91 0 0 0-2.906 2.905.56.56 0 1 1-1.118 0 4.03 4.03 0 0 1 4.024-4.024 4.029 4.029 0 0 1 4.024 4.024.56.56 0 0 1-.56.56M26.348 31.474c-2.22 0-4.024-1.762-4.024-3.928l.004-.092c.022-.302.267-.556.584-.54.302.013.54.243.535.545l-.003.076c-.001 1.56 1.302 2.82 2.904 2.82 1.602 0 2.905-1.26 2.905-2.809l-.003-.077a.558.558 0 1 1 1.117-.038c.003.052.005.083.005.115 0 2.166-1.805 3.928-4.024 3.928M32.783 27.899a.56.56 0 0 1-.56-.56v-4.021a.56.56 0 1 1 1.119 0v4.022a.56.56 0 0 1-.56.559M19.913 27.899a.56.56 0 0 1-.559-.56v-4.021a.56.56 0 1 1 1.119 0v4.022a.56.56 0 0 1-.56.559"/>
        <path fill="#525252" d="M26.348 34.518c-3.857 0-6.994-3.058-6.994-6.816 0-.047.003-.094.006-.14a.594.594 0 0 1 .576-.571c.309.009.554.24.546.548l-.01.163c0 3.141 2.637 5.697 5.876 5.697 3.24 0 5.875-2.556 5.875-5.697l-.009-.158a.56.56 0 0 1 .54-.58c.287-.004.567.23.578.54.007.101.01.15.01.198 0 3.758-3.137 6.816-6.994 6.816"/>
        <path fill="#525252" d="M26.348 39.394a.56.56 0 0 1-.559-.56V34.38a.56.56 0 1 1 1.119 0v4.455a.56.56 0 0 1-.56.559"/>
    </g>
</svg>
