<svg xmlns="http://www.w3.org/2000/svg" width="48" height="48" viewBox="0 0 48 48">
    <g fill="none" fill-rule="evenodd">
        <path fill="#FFF" d="M0 0h48v48H0z"/>
        <g transform="translate(3 3)">
            <circle cx="21" cy="21" r="21" fill="#DCE2E5" fill-rule="nonzero" opacity=".2"/>
            <path fill="#DCE2E5" fill-rule="nonzero" d="M24.55 31.73V11.98h-7.21v19.75h-2.27l2.96 3.33L21 38.39l2.97-3.33 2.96-3.33z"/>
            <path fill="#FFF" fill-rule="nonzero" d="M21.28 19.76h-.56a.5.5 0 1 1 0-1h.56a.47.47 0 0 1 .48.47.2.2 0 1 0 .39 0 .87.87 0 0 0-.87-.86h-.09V18a.19.19 0 0 0-.38 0v.43h-.09a.87.87 0 1 0 0 1.73h.56a.5.5 0 1 1 0 1h-.56a.48.48 0 0 1-.48-.48.2.2 0 1 0-.39 0 .86.86 0 0 0 .87.86h.09v.43a.19.19 0 0 0 .38 0v-.43h.09a.87.87 0 1 0 0-1.73v-.05z"/>
            <circle cx="21" cy="19.96" r="3.79" stroke="#FFF" stroke-width=".5"/>
            <path stroke="#FFF" stroke-width=".5" d="M8.09 14.58H33.9v10.74H8.09z"/>
            <path stroke="#FFF" stroke-width=".5" d="M33.91 15.25h2.86v-2.26H5.23v2.26h2.86"/>
            <rect width="30.27" height="2.95" x="5.86" y="10.66" fill="#DCE2E5" fill-rule="nonzero" rx=".48"/>
            <path fill="#6B8592" fill-rule="nonzero" d="M8 15.89h26v13H8z"/>
            <path fill="#F2F5F6" fill-rule="nonzero" d="M9.08 16.98h23.83v10.83H9.08z"/>
            <circle cx="21" cy="22.39" r="3.79" fill="#6B8592" fill-rule="nonzero"/>
            <circle cx="32.92" cy="16.98" r="1.08" fill="#6B8592" fill-rule="nonzero"/>
            <circle cx="32.92" cy="27.81" r="1.08" fill="#6B8592" fill-rule="nonzero"/>
            <circle cx="9.08" cy="27.81" r="1.08" fill="#6B8592" fill-rule="nonzero"/>
            <circle cx="9.08" cy="16.98" r="1.08" fill="#6B8592" fill-rule="nonzero"/>
            <path fill="#F2F5F6" fill-rule="nonzero" d="M8 14.81h26v1.08H8z"/>
            <path fill="#6B8592" fill-rule="nonzero" d="M8 13.73h26v1.08H8z"/>
            <path fill="#F2F5F6" fill-rule="nonzero" d="M8 12.64h26v1.08H8z"/>
            <path fill="#6B8592" fill-rule="nonzero" d="M8 11.56h26v1.08H8z"/>
            <path fill="#F2F5F6" fill-rule="nonzero" d="M21.28 22.2h-.56a.47.47 0 0 1-.48-.48.48.48 0 0 1 .48-.48h.56a.48.48 0 0 1 .48.48.2.2 0 1 0 .39 0 .87.87 0 0 0-.87-.86h-.09v-.43a.19.19 0 0 0-.38 0v.43h-.09a.87.87 0 1 0 0 1.73h.56a.47.47 0 0 1 .48.48.48.48 0 0 1-.48.48h-.56a.48.48 0 0 1-.48-.48.2.2 0 1 0-.39 0 .87.87 0 0 0 .87.86h.09v.43a.19.19 0 0 0 .38 0v-.43h.09a.87.87 0 1 0 0-1.73z"/>
        </g>
    </g>
</svg>
