<svg xmlns="http://www.w3.org/2000/svg" width="48" height="48" viewBox="0 0 48 48">
    <g fill="none" fill-rule="evenodd">
        <path fill="#FFF" d="M0 0h48v48H0z"/>
        <g fill-rule="nonzero" transform="translate(3 3)">
            <circle cx="21" cy="21" r="21" fill="#DCE2E5" opacity=".2"/>
            <path fill="#DCE2E5" d="M37.17 11.79a1.87 1.87 0 1 0 0-3.74h-.12c.08-.2.12-.414.12-.63a1.87 1.87 0 0 0-1.86-1.87 1.87 1.87 0 0 0-2.79-1.62A1.84 1.84 0 0 0 30 3.32a1.85 1.85 0 0 0-.34-.4 1.84 1.84 0 0 0-1.16-1.58 1.86 1.86 0 0 0-1.94.35 1.85 1.85 0 0 0-3 .77h-.11a1.85 1.85 0 0 0-1.57.87 1.85 1.85 0 0 0-2.49.62 1.83 1.83 0 0 0-.92-.24 1.86 1.86 0 0 0-1.86 1.86 1.87 1.87 0 0 0-1.87 1.87c0 .216.04.43.12.63h-.12a1.87 1.87 0 1 0 0 3.74l22.43-.02z"/>
            <path fill="#F2F5F6" d="M14.3 11.58h19.1v25.66H14.3z"/>
            <path fill="#6B8592" d="M33.4 11.58h4.37v25.66H33.4zM16.7 11.58h2.06v25.66H16.7zM20.58 11.58h2.06v25.66h-2.06zM24.45 11.58h2.07v25.66h-2.07zM28.33 11.58h2.06v25.66h-2.06z"/>
            <circle cx="14.59" cy="8.02" r="1" fill="#F2F5F6"/>
            <path fill="#F2F5F6" d="M25.22 5.44a.88.88 0 0 1-1.2.39.91.91 0 0 1-.39-1.21.894.894 0 0 1 1.59.82zM32.08 9.92a.89.89 0 0 1-1.2.38.894.894 0 0 1 .82-1.59.9.9 0 0 1 .38 1.21z"/>
            <circle cx="29.5" cy="2.65" r="1" fill="#F2F5F6"/>
            <circle cx="20.7" cy="9.06" r="1.34" fill="#F2F5F6"/>
            <circle cx="34.42" cy="5.18" r="1.34" fill="#F2F5F6"/>
            <path fill="#DCE2E5" d="M6.58 17.57H20c.64 0 1.1.42 1 .94l-1.62 19.6a1.23 1.23 0 0 1-1.26.93h-9.7a1.23 1.23 0 0 1-1.26-.93l-1.62-19.6c-.06-.51.46-.94 1.04-.94z"/>
            <rect width="16.4" height="2.98" x="5.06" y="17.3" fill="#F2F5F6" rx="1.25" transform="rotate(180 13.26 18.79)"/>
            <path fill="#6B8592" d="M11.63 17.3l-2.09-6.56-6.86-3.28-.59 1.49 5.96 2.98 1.64 5.37z"/>
        </g>
    </g>
</svg>
