<svg xmlns="http://www.w3.org/2000/svg" width="48" height="48" viewBox="0 0 48 48">
    <g fill="none" fill-rule="evenodd">
        <path fill="#FFF" d="M0 0h48v48H0z"/>
        <g fill-rule="nonzero" transform="translate(3 3)">
            <circle cx="21" cy="21" r="21" fill="#DCE2E5" opacity=".2"/>
            <circle cx="20.97" cy="21" r="18.6" fill="#DCE2E5" opacity=".4"/>
            <path fill="#6B8592" d="M21.34 7.93c7.218 0 13.07 5.852 13.07 13.07-.006 7.214-5.856 13.06-13.07 13.06-7.213 0-13.06-5.847-13.06-13.06 0-7.214 5.846-13.064 13.06-13.07z"/>
            <path fill="#F2F5F6" d="M21.34 10.47A10.52 10.52 0 0 1 31.87 21a10.52 10.52 0 0 1-10.53 10.52A10.52 10.52 0 0 1 10.82 21a10.52 10.52 0 0 1 10.52-10.53z"/>
            <path fill="#DCE2E5" d="M19.76 25.12h1.17a1.18 1.18 0 0 0 1.18-1.18c0-.652.528-1.18 1.18-1.18a1.17 1.17 0 0 0 1.17-1.17c0-.652.528-1.18 1.18-1.18a1.17 1.17 0 0 0 1.17-1.18v-1.17l2.36 2.35v1.18A1.17 1.17 0 0 1 28 22.76a1.18 1.18 0 0 0-1.18 1.18 1.17 1.17 0 0 1-1.17 1.18 1.17 1.17 0 0 0-1.18 1.17 1.17 1.17 0 0 1-1.17 1.18h-1.19l-2.35-2.35zM17 13.56l-2.08 2.08a1.18 1.18 0 0 0-.35.83v2.36c.002.312.128.61.35.83l1 1c.226.217.352.517.35.83 0 .652.528 1.18 1.18 1.18h1.11a1.18 1.18 0 0 0 .83-.35l1.53-1.53c.22-.22.52-.341.83-.34a1.18 1.18 0 0 0 1.18-1.18V17a1.14 1.14 0 0 0-.35-.83l-1-1a1.17 1.17 0 0 1-.34-.83A1.18 1.18 0 0 0 20 13.21h-2.2a1.21 1.21 0 0 0-.84.35H17z"/>
            <path fill="#6B8592" d="M41.29 6.18v15.5h-2.75a1.37 1.37 0 0 1-1.38-1.37v-9c0-2.19.87-4.291 2.42-5.84a1 1 0 0 1 1.71.71z"/>
            <path fill="#6B8592" d="M38.54 21.68h2.75v13.76a1.38 1.38 0 0 1-2.75 0V21.68zM2.78 16.18h2.75v19.26a1.38 1.38 0 0 1-2.75 0V16.18zM.71 4.49h1.38v6.88H.71zM3.46 4.49h1.38v6.88H3.46zM6.21 4.49h1.38v6.88H6.21zM18.42 16c.917 0 1.66.743 1.66 1.66a1.66 1.66 0 0 1-1.66 1.67 1.67 1.67 0 0 1-1.67-1.67A1.66 1.66 0 0 1 18.42 16z"/>
            <path fill="#6B8592" d="M.71 10v3.44a3.44 3.44 0 0 0 6.88 0V10H.71zM23.29 25.12a1.17 1.17 0 0 1 1.17-1.18 1.18 1.18 0 0 0 1.18-1.18c0-.646.524-1.17 1.17-1.17A1.18 1.18 0 0 0 28 20.41v-1.18l-1.18-1.17v1.17a1.17 1.17 0 0 1-1.17 1.18 1.18 1.18 0 0 0-1.18 1.18 1.17 1.17 0 0 1-1.17 1.17 1.18 1.18 0 0 0-1.18 1.18 1.18 1.18 0 0 1-1.18 1.18h-1.18l1.17 1.17h1.18a1.17 1.17 0 0 0 1.18-1.17z"/>
        </g>
    </g>
</svg>
