<svg xmlns="http://www.w3.org/2000/svg" width="48" height="48" viewBox="0 0 48 48">
    <g fill="none" fill-rule="evenodd">
        <path fill="#FFF" d="M0 0h48v48H0z"/>
        <g fill-rule="nonzero" transform="translate(3 3)">
            <circle cx="21" cy="21" r="21" fill="#DCE2E5" opacity=".2"/>
            <path fill="#DCE2E5" d="M3.85 9.9h34.3a3 3 0 0 1 3 3v16.22a3 3 0 0 1-3 3H3.85a3 3 0 0 1-3-3V12.88a3 3 0 0 1 3-2.98z"/>
            <path fill="#6B8592" d="M26.55 9.9h2.78v22.2h-2.78z"/>
            <path fill="#6B8592" d="M37 27.25h-4.2a4.17 4.17 0 1 1 0-8.33H37c0 1.4-2.77 2.8-2.77 4.21 0 1.41 2.77 2.74 2.77 4.12zM18.92 27.25h4.16a4.17 4.17 0 1 0 0-8.33h-4.16c0 1.4 2.77 2.8 2.77 4.21 0 1.41-2.77 2.74-2.77 4.12z"/>
            <path fill="#F2F5F6" d="M23.78 22.39h3.47v1.39h-3.47zM28.63 22.39h3.47v1.39h-3.47zM5.74 22.81a.7.7 0 0 1 .7-.7h9.71a.7.7 0 1 1 0 1.39H6.44a.69.69 0 0 1-.7-.69zM5.74 25.58a.69.69 0 0 1 .7-.69h9.71a.69.69 0 0 1 .7.69.7.7 0 0 1-.7.7H6.44a.7.7 0 0 1-.7-.7zM12.68 20a.69.69 0 0 1 .7-.69h2.77a.69.69 0 1 1 0 1.38h-2.77a.69.69 0 0 1-.7-.69z"/>
            <path fill="#6B8592" d="M8.09 15.9H6.9a1 1 0 0 1 0-2h1.19a1 1 0 0 1 1 1 .41.41 0 0 0 .82 0c0-1.01-.82-1.83-1.83-1.83H7.9v-.9a.41.41 0 1 0-.81 0v.9H6.9a1.83 1.83 0 1 0 0 3.66h1.19a1 1 0 0 1 0 2H6.9a1 1 0 0 1-1-1 .41.41 0 0 0-.82 0 1.83 1.83 0 0 0 1.82 1.83h.19v.9a.41.41 0 1 0 .81 0v-.9h.19a1.83 1.83 0 1 0 0-3.66z"/>
        </g>
    </g>
</svg>
