<svg xmlns="http://www.w3.org/2000/svg" width="48" height="48" viewBox="0 0 48 48">
    <g fill="none" fill-rule="evenodd">
        <path fill="#FFF" d="M0 0h48v48H0z"/>
        <g fill-rule="nonzero" transform="translate(3 3)">
            <circle cx="21" cy="21" r="21" fill="#DCE2E5" opacity=".2"/>
            <path fill="#DCE2E5" d="M29.55 15.22L29 16.93a3.73 3.73 0 0 1-4.72 2.35l-1.4-.47-9.78-3.27a3.75 3.75 0 0 1-2.35-4.72l.58-1.71a3.73 3.73 0 0 1 4.72-2.35L27.2 10.5a3.74 3.74 0 0 1 2.35 4.72z"/>
            <path fill="#DCE2E5" d="M23.62 18.16l-.77.65-9.75-3.27a3.75 3.75 0 0 1-2.35-4.72l.58-1.71a3.71 3.71 0 0 1 2.44-2.38l9.85 11.43z"/>
            <path fill="#F2F5F6" d="M21.62 19.01l-6.47 5.64-.98.85L2.11 11.67l.98-.85 6.47-5.65z"/>
            <path fill="#DCE2E5" d="M10.3 6l-7.43 6.42a.9.9 0 0 1-1.27-.1l-.17-.19a.91.91 0 0 1 .09-1.28l.59-.5L9 4.45a.92.92 0 0 1 1.27.08l.17.2A.9.9 0 0 1 10.3 6z"/>
            <circle cx="11.12" cy="14.5" r="3.5" fill="#DCE2E5"/>
            <path fill="#F2F5F6" d="M32 24.27l-9.48-4L26 11.91a3.11 3.11 0 0 1 .9-1.19l3.35-2.67L37.18 11l.41 4.26a3 3 0 0 1-.22 1.46l-2.74 6.5A2 2 0 0 1 32 24.27z"/>
            <path fill="#DCE2E5" d="M37.18 11l-3.29 2.72-.3.29a2.87 2.87 0 0 0-.55.86l-3.54 8.4-8.94-3.76a2 2 0 0 1-1.08-2.67l2.73-6.49a2.91 2.91 0 0 1 .58-.89c.097-.11.204-.21.32-.3l3.35-2.67L37.18 11z"/>
            <path fill="#F2F5F6" d="M33.59 14a2.87 2.87 0 0 0-.55.86l-1.68 4-10.82-4.59 1.67-4a2.91 2.91 0 0 1 .58-.89L33.59 14z"/>
            <path fill="#6B8592" d="M27.67 14.46a1 1 0 0 1-1.3 1h-.05a1 1 0 0 1-.22-1.61l1.14-1a.25.25 0 0 1 .41.17l.02 1.44z"/>
            <path fill="#F2F5F6" d="M37.18 11L26.46 6.45l1.13-2.71A1.38 1.38 0 0 1 29.4 3l8.19 3.44a1.39 1.39 0 0 1 .73 1.81L37.18 11zM38.39 19.46l-5.68 17.45A1.8 1.8 0 0 1 31 38.16H10.83a1.82 1.82 0 0 1-1.72-1.24L3.34 19.46h35.05z"/>
            <path fill="#6B8592" d="M39.76 21.26a2.51 2.51 0 0 0 .75-1.8v-.15a2.55 2.55 0 0 0-2.51-2.4H3.76a2.54 2.54 0 0 0-2.55 2.55A2.54 2.54 0 0 0 3.55 22l5 15.13a2.41 2.41 0 0 0 2.29 1.65H31a2.42 2.42 0 0 0 2.29-1.66L38.19 22a2.5 2.5 0 0 0 1.57-.74zm-12.7.74h4.61l-1 4.65h-4l.41-4.6a.43.43 0 0 0-.02-.05zm-11.87 4.66h-4l-1-4.65h4.6l.4 4.65zM4.81 22H9a.48.48 0 0 0 0 .12l1 4.53H6.34L4.81 22zm1.93 5.84h3.47l.91 4.24h-3l-1.38-4.24zm4.09 9.72a1.2 1.2 0 0 1-1.15-.84l-1.15-3.44h2.84l.91 4.29-1.45-.01zm.6-9.72h3.87l.37 4.24h-3.34l-.9-4.24zm2.07 9.72l-.91-4.29h3.19l.38 4.29H13.5zM16 22h4.29v4.65h-3.9L16 22zm.52 5.84h3.77v4.24h-3.4l-.37-4.24zm3.77 9.72h-2.93L17 33.28h3.29v4.28zm4.23 0h-3v-4.28h3.42l-.42 4.28zm.48-5.47h-3.54v-4.24h3.9L25 32.09zm-3.53-5.43V22h4.42l-.41 4.65-4.01.01zm6.9 10.91H25.7l.38-4.29h3.19l-.9 4.29zm-2.18-5.48l.38-4.24h3.86l-.9 4.24h-3.34zm7.09 1.19l-1.13 3.45a1.2 1.2 0 0 1-1.15.84h-1.43l.92-4.29h2.79zm-2.53-1.19l.9-4.24H35l-1.4 4.24h-2.85zm1.16-5.43l1-4.53a.48.48 0 0 0 0-.12h4.07l-1.51 4.65h-3.56z"/>
            <path fill="#F2F5F6" d="M22.59 6.42v12.11a1.73 1.73 0 0 1-3.46 0V6.42a1.74 1.74 0 0 1 1.73-1.73c.46-.004.9.18 1.22.51h.06c.302.333.463.77.45 1.22z"/>
            <path fill="#6B8592" d="M22.59 6.42v12.11c0 .432-.16.85-.45 1.17a1.7 1.7 0 0 1-.46-1.17V6.42a1.7 1.7 0 0 1 .46-1.17c.29.32.45.738.45 1.17z"/>
        </g>
    </g>
</svg>
