<svg xmlns="http://www.w3.org/2000/svg" width="48" height="48" viewBox="0 0 48 48">
    <g fill="none" fill-rule="evenodd">
        <path fill="#FFF" d="M0 0h48v48H0z"/>
        <g fill-rule="nonzero" transform="translate(3 3)">
            <circle cx="21" cy="21" r="21" fill="#DCE2E5" opacity=".2"/>
            <path fill="#6B8592" d="M7.74 15.91h-4.3a1.76 1.76 0 0 0-1.76 1.76V37a1.76 1.76 0 0 0 1.76 1.76h4.3A1.76 1.76 0 0 0 9.5 37V17.67a1.76 1.76 0 0 0-1.76-1.76z"/>
            <path fill="#DCE2E5" d="M18 21.18h-4.3a1.75 1.75 0 0 0-1.7 1.76V37a1.75 1.75 0 0 0 1.75 1.76H18A1.76 1.76 0 0 0 19.77 37V23A1.76 1.76 0 0 0 18 21.18z"/>
            <path fill="#6B8592" d="M28.29 21.18H24a1.76 1.76 0 0 0-1.76 1.76V37A1.76 1.76 0 0 0 24 38.75h4.3A1.75 1.75 0 0 0 30 37V23a1.75 1.75 0 0 0-1.71-1.82z"/>
            <path fill="#DCE2E5" d="M38.56 15.91h-4.3a1.76 1.76 0 0 0-1.76 1.76V37c0 .972.788 1.76 1.76 1.76h4.3A1.76 1.76 0 0 0 40.32 37V17.67a1.76 1.76 0 0 0-1.76-1.76z"/>
            <circle cx="20.6" cy="11.14" r="7.88" fill="#F2F5F6"/>
            <circle cx="20.6" cy="11.14" r="6.57" fill="#6B8592"/>
            <path fill="#F2F5F6" d="M20.9 10.72h-1a.82.82 0 0 1-.82-.81.82.82 0 0 1 .82-.82h1a.82.82 0 0 1 .82.82.33.33 0 1 0 .66 0 1.48 1.48 0 0 0-1.48-1.48h-.15V7.7a.33.33 0 1 0-.66 0v.73h-.15a1.5 1.5 0 0 0 0 3h1a.82.82 0 0 1 .82.81.82.82 0 0 1-.82.82h-1a.82.82 0 0 1-.82-.82.33.33 0 1 0-.66 0c0 .817.663 1.48 1.48 1.48h.15v.73a.33.33 0 1 0 .66 0v-.73h.15a1.5 1.5 0 0 0 0-3z"/>
        </g>
    </g>
</svg>
