<svg xmlns="http://www.w3.org/2000/svg" width="48" height="48" viewBox="0 0 48 48">
    <g fill="none" fill-rule="evenodd">
        <path fill="#FFF" d="M0 0h48v48H0z"/>
        <g transform="translate(3 3)">
            <circle cx="21" cy="21" r="21" fill="#DCE2E5" fill-rule="nonzero" opacity=".2"/>
            <circle cx="16.26" cy="13.93" r="6.19" fill="#DCE2E5" fill-rule="nonzero"/>
            <circle cx="20.94" cy="9.53" r="3.04" fill="#DCE2E5" fill-rule="nonzero"/>
            <circle cx="11.65" cy="9.53" r="3.04" fill="#DCE2E5" fill-rule="nonzero"/>
            <circle cx="16.52" cy="26.83" r="8.32" fill="#DCE2E5" fill-rule="nonzero"/>
            <circle cx="16.34" cy="15.74" r="1" fill="#6B8592" fill-rule="nonzero"/>
            <path stroke="#6B8592" stroke-width=".5" d="M16.34 17.06a1.08 1.08 0 1 1-2.15 0M18.48 17.06a1.07 1.07 0 1 1-2.14 0"/>
            <path fill="#6B8592" fill-rule="nonzero" d="M27.56 25.52a2.79 2.79 0 0 1-2.79 2.79 3.08 3.08 0 0 1-.61-.07v-.6a10.27 10.27 0 0 0-4.35-8.37c4.56 1.16 7.75 3.55 7.75 6.25zM13 19.33a10.27 10.27 0 0 0-4.33 8.37v.6a3.08 3.08 0 0 1-.61.07 2.79 2.79 0 0 1-2.76-2.79c0-2.7 3.19-5.09 7.7-6.25z"/>
            <circle cx="10" cy="31.19" r="4.35" fill="#6B8592" fill-rule="nonzero"/>
            <circle cx="23.33" cy="31.19" r="4.35" fill="#6B8592" fill-rule="nonzero"/>
            <circle cx="31.18" cy="28.92" r="8.46" fill="#F2F5F6" fill-rule="nonzero"/>
            <circle cx="31.18" cy="28.92" r="7.52" fill="#6B8592" fill-rule="nonzero"/>
            <path stroke="#F2F5F6" d="M33 21a7.79 7.79 0 0 1-6.45 8.93 7.68 7.68 0 0 1-3-.11M29.49 37.34a7.79 7.79 0 0 1 10.15-8.05"/>
        </g>
    </g>
</svg>
