<svg xmlns="http://www.w3.org/2000/svg" width="48" height="48" viewBox="0 0 48 48">
    <g fill="none" fill-rule="evenodd">
        <path fill="#FFF" d="M0 0h48v48H0z"/>
        <g fill-rule="nonzero" transform="translate(3 3)">
            <circle cx="21" cy="21" r="21" fill="#DCE2E5" opacity=".2"/>
            <path fill="#DCE2E5" d="M31 6.15H9.21A1.66 1.66 0 0 0 7.5 7.76v30.87a1.67 1.67 0 0 0 1.71 1.62H31a1.66 1.66 0 0 0 1.71-1.62V7.76A1.66 1.66 0 0 0 31 6.15z"/>
            <path fill="#F2F5F6" d="M9.83 8.08v30.24h15.31l5.26-4.98V8.08z"/>
            <path fill="#6B8592" d="M25.14 33.34v4.98l5.26-4.98zM22.46 4.76a2.21 2.21 0 0 0 .12-.68 2.47 2.47 0 0 0-4.93 0c.006.23.043.46.11.68H12v1.81c0 1.24.73 2.25 1.62 2.25h13c.9 0 1.63-1 1.63-2.25V4.76h-5.79zM27.77 21.4H12.5a.44.44 0 1 1 0-.88h15.27a.44.44 0 1 1 0 .88zM27.77 24.5H12.5a.44.44 0 1 1 0-.88h15.27a.44.44 0 1 1 0 .88zM27.77 27.47H12.5a.44.44 0 1 1 0-.88h15.27a.44.44 0 1 1 0 .88zM27.77 30.62H12.5a.44.44 0 0 1 0-.88h15.27a.44.44 0 1 1 0 .88zM39.38 20.44c.83-.83 1.11-1.89.63-2.38-.48-.49-1.55-.2-2.38.63l-3.89 3.89 1.75 1.75 3.89-3.89z"/>
            <path fill="#6B8592" d="M39.55 20.99l-.17.17-.36-.36-.3.3.36.36-3.21 3.22.23.23 3.69-3.68z"/>
            <path fill="#DCE2E5" d="M31.19 28.63c-.92.92-3.07 2.29-3.55 1.81s.89-2.64 1.8-3.56l4.32-4.31 1.75 1.75-4.32 4.31z"/>
            <path fill="#6B8592" d="M20.43 11.13a3.61 3.61 0 0 1 1.84.5A3.74 3.74 0 0 1 23.61 13a3.64 3.64 0 0 1 0 3.68A3.7 3.7 0 0 1 18.59 18a3.74 3.74 0 0 1-1.34-1.34 3.7 3.7 0 0 1 0-3.68 3.74 3.74 0 0 1 1.34-1.34 3.61 3.61 0 0 1 1.84-.51zm2.13 4.09v-.83a.15.15 0 0 0 0-.12.13.13 0 0 0-.12 0H21v-1.42a.13.13 0 0 0-.05-.12.15.15 0 0 0-.12-.05H20a.15.15 0 0 0-.13.05.17.17 0 0 0-.05.12v1.37h-1.35a.17.17 0 0 0-.17.17v.83a.15.15 0 0 0 .05.13.18.18 0 0 0 .12.05h1.37v1.37a.18.18 0 0 0 .05.12.15.15 0 0 0 .13.05h.83a.17.17 0 0 0 .17-.17V15.4h1.37a.17.17 0 0 0 .12-.05.15.15 0 0 0 .05-.13z"/>
        </g>
    </g>
</svg>
