<svg xmlns="http://www.w3.org/2000/svg" width="48" height="48" viewBox="0 0 48 48">
    <g fill="none" fill-rule="evenodd">
        <path fill="#FFF" d="M0 0h48v48H0z"/>
        <g fill-rule="nonzero" transform="translate(3 3)">
            <circle cx="21" cy="21" r="21" fill="#DCE2E5" opacity=".2"/>
            <path fill="#DCE2E5" d="M29.07 7.9v-.33h.56A1.47 1.47 0 0 0 31.07 6V4.41a1.47 1.47 0 0 0-1.44-1.58H12.31a1.46 1.46 0 0 0-1.43 1.58V6a1.46 1.46 0 0 0 1.43 1.58h.79v.32c0 3.1-5.53 1.45-5.53 7.1v17.55a6.62 6.62 0 0 0 6.62 6.62h13.62a6.62 6.62 0 0 0 6.62-6.62V15c0-5.65-5.36-4-5.36-7.1z" opacity=".5"/>
            <path fill="#DCE2E5" d="M20.18 2.83h9.45a1.47 1.47 0 0 1 1.44 1.58V6a1.47 1.47 0 0 1-1.44 1.58H12.31A1.46 1.46 0 0 1 10.88 6V4.41a1.46 1.46 0 0 1 1.43-1.58h9.48"/>
            <path fill="#F2F5F6" d="M31.07 22.24A8.38 8.38 0 1 1 31.05 39a8.38 8.38 0 0 1 .02-16.76z"/>
            <path fill="#6B8592" d="M31.07 23.64a7 7 0 1 1 0 14 7 7 0 0 1 0-14z"/>
            <path fill="#F2F5F6" d="M31.38 30.18h-1a.87.87 0 1 1 0-1.73h1a.87.87 0 0 1 .87.86.36.36 0 1 0 .71 0 1.58 1.58 0 0 0-1.58-1.57h-.16V27a.34.34 0 0 0-.35-.35.35.35 0 0 0-.35.35v.77h-.16a1.57 1.57 0 0 0 0 3.14h1a.87.87 0 0 1 0 1.74h-1a.87.87 0 0 1-.87-.87.35.35 0 0 0-.7 0c0 .867.703 1.57 1.57 1.57h.16v.78a.35.35 0 1 0 .7 0v-.78h.16a1.57 1.57 0 1 0 0-3.14v-.03z"/>
        </g>
    </g>
</svg>
