<svg xmlns="http://www.w3.org/2000/svg" width="48" height="48" viewBox="0 0 48 48">
    <g fill="none" fill-rule="evenodd">
        <path fill="#FFF" d="M0 0h48v48H0z"/>
        <g transform="translate(3 3)">
            <circle cx="21" cy="21" r="21" fill="#DCE2E5" fill-rule="nonzero" opacity=".2"/>
            <path fill="#6B8592" fill-rule="nonzero" d="M20.22 21.54h1.53a1.3 1.3 0 1 1 0 2.6h-1.53a1.3 1.3 0 0 1-1.3-1.3.53.53 0 1 0-1.05 0 2.35 2.35 0 0 0 2.35 2.35h.24v1.17a.52.52 0 0 0 .53.52.52.52 0 0 0 .52-.52v-1.17h.24a2.35 2.35 0 1 0 0-4.7h-1.53a1.3 1.3 0 1 1 0-2.6h1.53a1.3 1.3 0 0 1 1.3 1.3.53.53 0 0 0 1.06 0 2.36 2.36 0 0 0-2.36-2.35h-.24v-1.17a.52.52 0 0 0-.52-.52.52.52 0 0 0-.53.52v1.17h-.24a2.35 2.35 0 1 0 0 4.7z"/>
            <path fill="#6B8592" d="M4.16 22.05h1.07a16 16 0 0 0 4.59 10.29 15.65 15.65 0 0 0 22.36 0A16.11 16.11 0 0 0 36.32 25a1.05 1.05 0 0 0-.58-1.21 1 1 0 0 0-1.27.36l-.41.61L32.89 23a1 1 0 0 0-1-.44 1 1 0 0 0-.81.79 10.29 10.29 0 0 1-20.3-1.32h1a1 1 0 0 0 .92-.56 1.07 1.07 0 0 0-.07-1.08l-3.84-5.56a1 1 0 0 0-.85-.46 1 1 0 0 0-.85.46l-3.77 5.58a1 1 0 0 0 .84 1.64z"/>
            <path fill="#DCE2E5" d="M5.73 16.84l.87-1.28.49-.73a1 1 0 0 1 .85-.46 1 1 0 0 1 .85.46l2.28 3.36A10.29 10.29 0 0 1 31.26 20h-1a1 1 0 0 0-.92.56 1.07 1.07 0 0 0 .07 1.08l3.78 5.58a1 1 0 0 0 .85.46 1 1 0 0 0 .85-.46l3.77-5.58a1 1 0 0 0-.82-1.64h-1.07a16 16 0 0 0-4.59-10.34 15.65 15.65 0 0 0-22.36 0 16.06 16.06 0 0 0-4.09 7.18z"/>
        </g>
    </g>
</svg>
