<svg xmlns="http://www.w3.org/2000/svg" width="48" height="48" viewBox="0 0 48 48">
    <g fill="none" fill-rule="evenodd">
        <path fill="#FFF" d="M0 0h48v48H0z"/>
        <g fill-rule="nonzero" transform="translate(3 3)">
            <circle cx="21" cy="21" r="21" fill="#DCE2E5" opacity=".2"/>
            <path fill="#6B8592" d="M24.93 12l-1 .5-4.23-4.62L10 19.11v12.72h5.53V26.1a4.39 4.39 0 0 1 8.77 0v5.73h5.53V18.58L24.93 12z"/>
            <path fill="#F2F5F6" d="M20.91 19.48h-.32a9.77 9.77 0 0 0-1.53 0 1.31 1.31 0 0 1-.52-.07.81.81 0 0 1-.54-.62.84.84 0 0 1 .41-.93 2.25 2.25 0 0 0 .84-.81 1.13 1.13 0 0 1 .27-.34.56.56 0 0 1 .63-.07 1 1 0 0 1 .32.3l.36.5c.176.226.373.433.59.62a.93.93 0 0 1 .33.59.69.69 0 0 1-.45.78l-.18.06-.21-.01z"/>
            <ellipse cx="19.005" cy="15.522" fill="#F2F5F6" rx="1" ry="1" transform="rotate(-9.52 19.005 15.522)"/>
            <ellipse cx="17.85" cy="16.924" fill="#F2F5F6" rx="1" ry="1" transform="rotate(-15.29 17.85 16.924)"/>
            <ellipse cx="20.848" cy="15.517" fill="#F2F5F6" rx="1" ry="1" transform="rotate(-77.49 20.848 15.517)"/>
            <ellipse cx="21.991" cy="16.989" fill="#F2F5F6" rx="1" ry="1" transform="rotate(-71.57 21.99 16.99)"/>
            <path fill="#DCE2E5" d="M5.115 22.203L20.113 7.205l1.648 1.648L6.763 23.85z"/>
            <path fill="#DCE2E5" d="M33.492 23.844L18.494 8.846l1.647-1.648L35.14 22.196zM39.32 33.08l-1.21-3s-.55-1.22-1.22-1.22h-9.74c-.67 0-.95.57-1.21 1.22s-1 2.32-1.22 3c-.22.68.55 1.22 1.22 1.22h12.17c.67 0 1.5-.52 1.21-1.22z"/>
        </g>
    </g>
</svg>
