<svg xmlns="http://www.w3.org/2000/svg" width="48" height="48" viewBox="0 0 48 48">
    <g fill="none" fill-rule="evenodd">
        <path fill="#FFF" d="M0 0h48v48H0z"/>
        <g fill-rule="nonzero" transform="translate(3 3)">
            <circle cx="21" cy="21" r="21" fill="#DCE2E5" opacity=".2"/>
            <path fill="#6B8592" d="M2.86 38.59h36.28v-2.67H2.86zM2.86 10.91h11.26v-2.5H2.86zM13.49 5.91H28.5v-2.5H13.49zM27.88 15.92h11.26v-2.5H27.88z"/>
            <path fill="#F2F5F6" d="M3.49 35.93h10.63V10.91H3.49z"/>
            <path fill="#DCE2E5" d="M3.78 35.93H16V10.91H3.78zM26 35.93h12.59V15.92H26z"/>
            <path fill="#6B8592" d="M5.99 15.92h3.13v-2.5H5.99zM11.62 15.92h2.5v-2.5h-2.5zM5.99 20.92h3.13v-2.5H5.99zM11.62 20.92h2.5v-2.5h-2.5zM5.99 25.92h3.13v-2.5H5.99zM11.62 25.92h2.5v-2.5h-2.5zM5.99 30.93h3.13v-2.5H5.99zM11.62 30.93h2.5v-2.5h-2.5z"/>
            <path fill="#F2F5F6" d="M14.12 35.93h13.76V5.91H14.12z"/>
            <path fill="#6B8592" d="M27.88 20.92h2.5v-2.5h-2.5zM32.88 20.92h3.13v-2.5h-3.13zM27.88 25.92h2.5v-2.5h-2.5zM32.88 25.92h3.13v-2.5h-3.13zM27.88 30.93h2.5v-2.5h-2.5zM32.88 30.93h3.13v-2.5h-3.13zM16.62 10.91h3.13v-2.5h-3.13zM22.25 10.91h3.13v-2.5h-3.13zM16.62 15.92h3.13v-2.5h-3.13zM22.25 15.92h3.13v-2.5h-3.13zM16.62 20.92h3.13v-2.5h-3.13zM22.25 20.92h3.13v-2.5h-3.13zM16.62 25.92h3.13v-2.5h-3.13zM22.25 25.92h3.13v-2.5h-3.13zM16.62 30.93h3.13v-2.5h-3.13zM22.25 30.93h3.13v-2.5h-3.13z"/>
        </g>
    </g>
</svg>
