<svg xmlns="http://www.w3.org/2000/svg" width="48" height="48" viewBox="0 0 48 48">
    <g fill="none" fill-rule="evenodd">
        <path fill="#FFF" d="M0 0h48v48H0z"/>
        <g fill-rule="nonzero" transform="translate(3 3)">
            <circle cx="21" cy="21" r="21" fill="#DCE2E5" opacity=".2"/>
            <path fill="#DCE2E5" d="M7.53 18.97h19.75v-7.21H7.53V9.48L4.2 12.45.88 15.42l3.32 2.96 3.33 2.97zM34.47 29.96H14.72v-7.22h19.75v-2.27l3.33 2.97 3.33 2.96-3.33 2.97-3.33 2.97z"/>
            <circle cx="21.36" cy="21" r="11.55" fill="#F2F5F6"/>
            <circle cx="21.36" cy="21" r="9.62" fill="#6B8592"/>
            <path fill="#F2F5F6" d="M21.8 20.4h-1.41a1.2 1.2 0 0 1 0-2.39h1.41A1.19 1.19 0 0 1 23 19.2a.5.5 0 1 0 1 0 2.17 2.17 0 0 0-2.2-2.2h-.22v-1a.48.48 0 0 0-.48-.49.49.49 0 0 0-.49.49v1h-.22a2.17 2.17 0 0 0 0 4.33h1.41a1.2 1.2 0 1 1 0 2.39h-1.41a1.2 1.2 0 0 1-1.19-1.2.5.5 0 1 0-1 0 2.16 2.16 0 0 0 2.16 2.16h.22v1.07c0 .27.22.49.49.49a.48.48 0 0 0 .48-.49v-1.03h.22a2.16 2.16 0 1 0 0-4.32h.03z"/>
        </g>
    </g>
</svg>
