<svg xmlns="http://www.w3.org/2000/svg" width="48" height="48" viewBox="0 0 48 48">
    <g fill="none" fill-rule="evenodd">
        <path fill="#FFF" d="M0 0h48v48H0z"/>
        <g fill-rule="nonzero" transform="translate(3 3)">
            <circle cx="21" cy="21" r="21" fill="#DCE2E5" opacity=".2"/>
            <path fill="#DCE2E5" d="M24.21 5.28h-6.42a1.48 1.48 0 0 0-1.47 1.24l-.54 3.23h10.44l-.54-3.23a1.48 1.48 0 0 0-1.47-1.24zM2.37 15.71H6.1v1.49H2.37zM35.91 15.71h3.73v1.49h-3.73z"/>
            <path fill="#6B8592" d="M32.11 9H9.89a2.24 2.24 0 0 0-2.1 1.47L5.35 17.2v2.24h31.3V17.2l-2.44-6.73A2.24 2.24 0 0 0 32.11 9z"/>
            <path fill="#DCE2E5" d="M2.37 14.22h.74a1.49 1.49 0 1 1 0 2.98h-.74a1.49 1.49 0 1 1 0-2.98zM38.89 14.22h.74a1.49 1.49 0 1 1 0 2.98h-.74a1.49 1.49 0 1 1 0-2.98z"/>
            <path fill="#F2F5F6" d="M32.11 10.49a.76.76 0 0 1 .7.49l2.35 6.48V18H6.84v-.49L9.19 11a.76.76 0 0 1 .7-.49h22.22"/>
            <path fill="#6B8592" d="M2.37 29.87v6a.74.74 0 0 0 .74.74h2.24a.74.74 0 0 0 .74-.74v-6H2.37z"/>
            <path fill="#6B8592" d="M2.37 32.83a3.63 3.63 0 0 0 2.23.77h1.49v-3.73H2.37v2.96zM39.63 29.87v6a.74.74 0 0 1-.74.74h-2.24a.74.74 0 0 1-.74-.74v-6h3.72z"/>
            <path fill="#6B8592" d="M39.63 32.83a3.63 3.63 0 0 1-2.23.77h-1.49v-3.73h3.72v3-.04z"/>
            <path fill="#DCE2E5" d="M39 20.11l-2.35-2.91H5.35L3 20.11A3 3 0 0 0 2.37 22v7.9a2.23 2.23 0 0 0 2.23 2.21h32.8a2.23 2.23 0 0 0 2.23-2.24V22a3 3 0 0 0-.63-1.89z"/>
            <path fill="#F2F5F6" d="M13.38 25.4h15.24a.74.74 0 0 0 .72-.56l.37-1.5a.74.74 0 0 0-.72-.92H13a.74.74 0 0 0-.72.92l.37 1.5a.74.74 0 0 0 .73.56z"/>
            <path fill="#6B8592" d="M7.58 27.64a1.12 1.12 0 1 1 .02 2.24 1.12 1.12 0 0 1-.02-2.24zM34.42 27.64a1.12 1.12 0 1 1-1.12 1.11 1.11 1.11 0 0 1 1.12-1.11zM7.21 21.3a2.24 2.24 0 1 1 .06 4.48 2.24 2.24 0 0 1-.06-4.48zM34.79 21.3a2.24 2.24 0 1 1 0 4.48 2.24 2.24 0 0 1 0-4.48z"/>
            <path fill="#F2F5F6" d="M29.2 29.13H12.8a.74.74 0 0 0-.74.74v2.24h17.88v-2.24a.74.74 0 0 0-.74-.74z"/>
            <path fill="#6B8592" d="M23.24 8.26h-4.48a.75.75 0 0 1-.76-.75.74.74 0 0 1 .74-.74h4.48a.74.74 0 0 1 .74.74.75.75 0 0 1-.72.75z"/>
        </g>
    </g>
</svg>
