<svg xmlns="http://www.w3.org/2000/svg" width="48" height="48" viewBox="0 0 48 48">
    <g fill="none" fill-rule="evenodd">
        <path fill="#FFF" d="M0 0h48v48H0z"/>
        <g fill-rule="nonzero" transform="translate(3 3)">
            <circle cx="21" cy="21" r="21" fill="#DCE2E5" opacity=".2"/>
            <path fill="#6B8592" d="M8.85 31.13l-6-4.71a.74.74 0 0 1-.24-1 3.84 3.84 0 0 1 4.63-1.19l5.41 3.07-3.8 3.83zM10.86 33.13l4.72 6a.74.74 0 0 0 1 .24l.36-.25a3.24 3.24 0 0 0 1-3.91l-3.24-5.88-3.84 3.8z"/>
            <path fill="#DCE2E5" d="M10.48 12.7a2.06 2.06 0 0 1-.14-2.78c1-1.17 2.16-2.49 2.88-3.21a7.2 7.2 0 0 1 2.13-1.51.39.39 0 0 1 .48 0l2.09 2.09a.38.38 0 0 1 0 .48A7 7 0 0 1 16.46 10c-.72.72-2 1.93-3.21 2.89a2.07 2.07 0 0 1-2.77-.19zM29.3 31.53a2.08 2.08 0 0 1-.14-2.78c1-1.18 2.17-2.49 2.89-3.21A7 7 0 0 1 34.18 24a.38.38 0 0 1 .48 0l2.09 2.09a.39.39 0 0 1 0 .48 7.2 7.2 0 0 1-1.51 2.13c-.72.72-2 1.92-3.21 2.88a2.07 2.07 0 0 1-2.73-.05z"/>
            <path fill="#6B8592" d="M19.89 19.81l7.38-7.38L4.41 5.24a1.3 1.3 0 0 0-1.25.31L1.23 7.48a1.5 1.5 0 0 0 .54 2.32l18.12 10.01zM22.19 22.11l7.38-7.38 7.19 22.86a1.3 1.3 0 0 1-.31 1.25l-1.93 1.93a1.5 1.5 0 0 1-2.32-.54L22.19 22.11z"/>
            <path fill="#DCE2E5" d="M36.12 11.62L23.72 24a68.3 68.3 0 0 1-6.6 5.8l-5.9 4.53c-1.37 1-3 1.17-3.87.3-.87-.88-.74-2.5.3-3.87l4.53-5.9a68.3 68.3 0 0 1 5.8-6.6l12.4-12.4a20.39 20.39 0 0 1 5.7-4.08c1.77-.78 3.65-1.34 4.56-.42.91.92.36 2.79-.44 4.56a20.39 20.39 0 0 1-4.08 5.7z"/>
            <path fill="#F2F5F6" d="M37.15 9.25l-.42.42c-.4.4-4.8-4-4.4-4.4l.42-.42a.89.89 0 0 1 1-.21 7.22 7.22 0 0 1 3.63 3.63.89.89 0 0 1-.23.98z"/>
            <path fill="#6B8592" d="M8.69 33.9a.55.55 0 0 1-.41-.18.59.59 0 0 1 0-.83l5.14-5.15a.594.594 0 1 1 .84.84l-5.15 5.14a.59.59 0 0 1-.42.18z"/>
        </g>
    </g>
</svg>
