<svg xmlns="http://www.w3.org/2000/svg" width="48" height="48" viewBox="0 0 48 48">
    <g fill="none" fill-rule="evenodd">
        <path fill="#FFF" d="M0 0h48v48H0z"/>
        <g fill-rule="nonzero" transform="translate(3 3)">
            <circle cx="21" cy="21" r="21" fill="#DCE2E5" opacity=".2"/>
            <path fill="#6B8592" d="M15.45 30v8.33h11.1V30zM22 41.12h-2a2.06 2.06 0 0 1-1.67-.83l-1.45-1.94h8.32l-1.45 1.94a2.06 2.06 0 0 1-1.67.83"/>
            <path fill="#DCE2E5" d="M34.12 12.88A13.58 13.58 0 0 0 22.18.94c-.42 0-.76-.07-1.18-.07a6.68 6.68 0 0 0-1.18.07A13.65 13.65 0 0 0 7.88 12.88 13.37 13.37 0 0 0 12 24.12 11.55 11.55 0 0 1 15.45 30h11.1A11.55 11.55 0 0 1 30 24.12a13.37 13.37 0 0 0 4.1-11.24"/>
            <path fill="#6B8592" d="M26.55 13.37h-4.16l3.47-6.25h-4.17l-4.85 9h3.47l-3.47 9z"/>
            <path fill="#F2F5F6" d="M20.31 33.49a.7.7 0 0 0 0-1.39h-4.86v1.39h4.86zM18.22 36.27a.7.7 0 1 0 0-1.39h-2.77v1.39h2.77zM26.55 32.1h-2.77a.7.7 0 1 0 0 1.39h2.77V32.1zM21.69 34.88a.7.7 0 0 0 0 1.39h4.86v-1.39h-4.86z"/>
        </g>
    </g>
</svg>
