<svg xmlns="http://www.w3.org/2000/svg" xmlns:xlink="http://www.w3.org/1999/xlink" width="40" height="40" viewBox="0 0 40 40">
    <defs>
        <path id="a" d="M0 0h40v40H0z"/>
    </defs>
    <g fill="none" fill-rule="evenodd">
        <path fill="#495A63" d="M5.568 29.715h27.857V11.501H5.568z"/>
        <path fill="#F0F5F7" d="M18.545 18.43c.022.49.382.878.962 1.038l.002.001v-2.086a2.728 2.728 0 0 0-.325.097.959.959 0 0 0-.639.95M21.915 21.802c-.028-.549-.584-.825-1.424-1.065v2.325c.494-.035.925-.207 1.169-.471.188-.204.271-.462.255-.789"/>
        <path fill="#F0F5F7" d="M20 13.158a7.04 7.04 0 0 0-7.032 7.033c0 1.995.846 3.886 2.324 5.22h4.59a.49.49 0 0 1-.373-.474v-.976c-.84-.176-1.71-.595-2.257-1.124a.49.49 0 1 1 .682-.706c.37.359.979.661 1.575.82v-2.468c-.089-.023-.177-.045-.262-.07-.996-.273-1.641-1.017-1.682-1.939a1.927 1.927 0 0 1 1.275-1.913c.23-.086.452-.141.67-.179v-.938a.491.491 0 0 1 .98 0v.908a4.257 4.257 0 0 1 2.19.935.491.491 0 0 1-.65.735 3.227 3.227 0 0 0-1.54-.684v2.38c1.13.293 2.34.736 2.405 2.035.03.586-.148 1.106-.513 1.502-.428.465-1.115.75-1.891.79v.892a.49.49 0 0 1-.372.475h4.589a7.026 7.026 0 0 0 2.324-5.221A7.04 7.04 0 0 0 20 13.158M11.1 23.616a.899.899 0 0 0 0 1.795h2.822a7.988 7.988 0 0 1-1.165-1.795H11.1z"/>
        <g>
            <mask id="b" fill="#fff">
                <use xlink:href="#a"/>
            </mask>
            <path fill="#F0F5F7" d="M28.9 26.393h-3.988l-.017.001-.014-.001H11.1a1.882 1.882 0 0 1-1.88-1.88c0-1.035.844-1.878 1.88-1.878h1.27a8.034 8.034 0 0 1-.383-2.444c0-4.42 3.594-8.014 8.013-8.014 4.419 0 8.014 3.595 8.014 8.014a8.01 8.01 0 0 1-.384 2.444h1.27c1.036 0 1.88.843 1.88 1.878 0 1.037-.844 1.88-1.88 1.88M20 0C8.954 0 0 8.954 0 20c0 11.045 8.954 20 20 20s20-8.955 20-20C40 8.954 31.046 0 20 0" mask="url(#b)"/>
        </g>
        <path fill="#F0F5F7" d="M28.9 23.616h-1.656a7.996 7.996 0 0 1-1.166 1.795H28.9a.899.899 0 0 0 0-1.795"/>
    </g>
</svg>
