<svg xmlns="http://www.w3.org/2000/svg" xmlns:xlink="http://www.w3.org/1999/xlink" width="24" height="24" viewBox="0 0 24 24">
    <defs>
        <path id="a" d="M12 3.531c1.57 0 3.023.393 4.36 1.178a8.81 8.81 0 0 1 3.181 3.182 8.452 8.452 0 0 1 1.178 4.359c0 1.57-.393 3.023-1.178 4.36a8.81 8.81 0 0 1-3.182 3.181A8.452 8.452 0 0 1 12 20.969a8.452 8.452 0 0 1-4.36-1.178 8.81 8.81 0 0 1-3.181-3.182 8.452 8.452 0 0 1-1.178-4.359c0-1.57.393-3.023 1.178-4.36A8.81 8.81 0 0 1 7.641 4.71 8.452 8.452 0 0 1 12 3.531zm0 15.75a6.823 6.823 0 0 0 3.516-.949 7.09 7.09 0 0 0 2.566-2.566c.633-1.078.95-2.25.95-3.516a6.823 6.823 0 0 0-.95-3.516 7.09 7.09 0 0 0-2.566-2.566A6.823 6.823 0 0 0 12 5.218a6.823 6.823 0 0 0-3.516.95 7.09 7.09 0 0 0-2.566 2.566 6.823 6.823 0 0 0-.95 3.516c0 1.266.317 2.438.95 3.516a7.09 7.09 0 0 0 2.566 2.566c1.078.633 2.25.95 3.516.95zm1.477-3.656c0 .398-.147.744-.44 1.037-.293.293-.639.44-1.037.44-.398 0-.744-.147-1.037-.44a1.418 1.418 0 0 1-.44-1.037c0-.398.147-.744.44-1.037.293-.293.639-.44 1.037-.44.398 0 .744.147 1.037.44.293.293.44.639.44 1.037zm-2.848-7.418c-.024-.14.006-.252.088-.334a.451.451 0 0 1 .334-.123h1.898c.14 0 .252.041.334.123.082.082.112.193.088.334l-.21 4.781a.57.57 0 0 1-.16.264.37.37 0 0 1-.263.123h-1.476a.37.37 0 0 1-.264-.123.57.57 0 0 1-.158-.264l-.211-4.78z"/>
    </defs>
    <g fill="none" fill-rule="evenodd">
        <mask id="b" fill="#fff">
            <use xlink:href="#a"/>
        </mask>
        <use fill="#6B8592" fill-rule="nonzero" xlink:href="#a"/>
        <g fill="#F4AF62" mask="url(#b)">
            <path d="M0 0h24v24H0z"/>
        </g>
        <path d="M0 0h24v24H0z" mask="url(#b)"/>
    </g>
</svg>
