<?xml version="1.0" encoding="UTF-8"?>
<svg width="72px" height="72px" viewBox="0 0 72 72" version="1.1" xmlns="http://www.w3.org/2000/svg" xmlns:xlink="http://www.w3.org/1999/xlink">
    <!-- Generator: Sketch 59.1 (86144) - https://sketch.com -->
    <title>Icons/Card status/Light/Alert</title>
    <desc>Created with Sketch.</desc>
    <defs>
        <path d="M36,0 C55.882251,0 72,16.117749 72,36 C72,55.882251 55.882251,72 36,72 C16.117749,72 0,55.882251 0,36 C0,16.117749 16.117749,0 36,0 Z M36,3 C17.7746033,3 3,17.7746033 3,36 C3,54.2253967 17.7746033,69 36,69 C54.2253967,69 69,54.2253967 69,36 C69,17.7746033 54.2253967,3 36,3 Z M35.7777698,39.999965 C36.6944343,39.999965 37.4791545,40.3263529 38.1319309,40.9791294 C38.7847073,41.6319058 39.1110952,42.4166259 39.1110952,43.3332904 C39.1110952,44.2499549 38.7847073,45.034675 38.1319309,45.6874515 C37.4791545,46.3402279 36.6944343,46.6666158 35.7777698,46.6666158 C34.8611053,46.6666158 34.0763852,46.3402279 33.4236088,45.6874515 C32.7708323,45.034675 32.4444444,44.2499549 32.4444444,43.3332904 C32.4444444,42.4166259 32.7708323,41.6319058 33.4236088,40.9791294 C34.0763852,40.3263529 34.8611053,39.999965 35.7777698,39.999965 Z M37.7360985,25.3333333 C38.0138758,25.3333333 38.2499859,25.4374998 38.4444301,25.6458326 C38.6388743,25.8541654 38.7360961,26.0972202 38.7360961,26.3749975 L38.1527642,37.7083038 C38.1527642,37.9860812 38.0555424,38.2152473 37.8610982,38.3958022 C37.666654,38.5763571 37.4305439,38.6666349 37.1527666,38.6666349 L34.4027731,38.6666349 C34.1249958,38.6666349 33.8888857,38.5763571 33.6944415,38.3958022 C33.4999973,38.2152473 33.4027755,37.9860812 33.4027755,37.7083038 L32.8194436,26.3749975 C32.8194436,26.0972202 32.9166653,25.8541654 33.1111095,25.6458326 C33.3055537,25.4374998 33.5416638,25.3333333 33.8194436,25.3333333 L37.7360985,25.3333333 Z" id="path-1"></path>
    </defs>
    <g id="Icons/Card-status/Light/Alert" stroke="none" stroke-width="1" fill="none" fill-rule="evenodd">
        <mask id="mask-2" fill="white">
            <use xlink:href="#path-1"></use>
        </mask>
        <use id="Alert" fill="#F4AF62" fill-rule="nonzero" xlink:href="#path-1"></use>
        <g id="Colours/Icons/Light" mask="url(#mask-2)" fill="#FFFFFF">
            <rect id="Colour" x="0" y="0" width="72" height="72"></rect>
        </g>
        <polygon id="Path" opacity="0.87" mask="url(#mask-2)" points="0 0 72 0 72 72 0 72"></polygon>
    </g>
</svg>