<svg xmlns="http://www.w3.org/2000/svg" xmlns:xlink="http://www.w3.org/1999/xlink" width="48" height="48" viewBox="0 0 48 48">
    <defs>
        <path id="a" d="M2.623.727v1.117h-.24C1.08 1.844.02 2.858.02 4.105c0 1.245 1.06 2.26 2.363 2.26H3.92c.72 0 1.304.56 1.304 1.248s-.584 1.248-1.304 1.248H2.383c-.72 0-1.304-.56-1.304-1.248a.52.52 0 0 0-.53-.506.519.519 0 0 0-.529.506c0 1.246 1.06 2.26 2.363 2.26h.24v1.116c0 .28.237.506.529.506a.518.518 0 0 0 .529-.506V9.873h.24c1.303 0 2.363-1.014 2.363-2.26 0-1.246-1.06-2.26-2.363-2.26H2.383c-.72 0-1.304-.56-1.304-1.248 0-.689.584-1.249 1.304-1.249H3.92c.72 0 1.304.56 1.304 1.25 0 .277.237.504.53.504.29 0 .529-.227.529-.505 0-1.247-1.06-2.261-2.363-2.261h-.24V.727a.519.519 0 0 0-.529-.506.519.519 0 0 0-.529.506z"/>
    </defs>
    <g fill="none" fill-rule="evenodd">
        <circle cx="24" cy="24" r="24" fill="#EBEFF1"/>
        <g fill="#525252">
            <path d="M15.332 10.302a7.057 7.057 0 0 0-7.049 7.05 7.057 7.057 0 0 0 7.05 7.049 7.056 7.056 0 0 0 7.048-7.05 7.056 7.056 0 0 0-7.049-7.049m0 15.213c-4.501 0-8.164-3.662-8.164-8.164 0-4.501 3.663-8.164 8.164-8.164 4.502 0 8.164 3.663 8.164 8.164 0 4.502-3.662 8.164-8.164 8.164M32.447 23.138a7.056 7.056 0 0 0-7.049 7.05 7.056 7.056 0 0 0 7.049 7.049 7.057 7.057 0 0 0 7.049-7.05 7.057 7.057 0 0 0-7.05-7.049m0 15.213c-4.5 0-8.163-3.662-8.163-8.164 0-4.501 3.662-8.164 8.164-8.164 4.501 0 8.164 3.663 8.164 8.164 0 4.502-3.663 8.164-8.164 8.164M21.522 37.809c-2.667 0-5.234-.902-7.34-2.599A11.656 11.656 0 0 1 9.88 27.33a.557.557 0 1 1 1.108-.12 10.55 10.55 0 0 0 3.895 7.134 10.553 10.553 0 0 0 7.797 2.289.557.557 0 1 1 .119 1.108c-.427.046-.853.069-1.276.069M37.346 20.653a.557.557 0 0 1-.554-.498 10.549 10.549 0 0 0-3.894-7.132 10.543 10.543 0 0 0-7.799-2.29.557.557 0 1 1-.118-1.108c6.43-.695 12.228 3.979 12.92 10.41a.557.557 0 0 1-.555.618"/>
            <path d="M28.388 12.862a.555.555 0 0 1-.3-.088l-3.764-2.413a.557.557 0 0 1 .045-.964l3.971-2.053a.556.556 0 1 1 .512.99l-3.113 1.61 2.95 1.892a.558.558 0 0 1-.301 1.026M20.157 40.257a.558.558 0 0 1-.311-1.02l2.913-1.95-3.146-1.548a.558.558 0 0 1 .492-1l4.012 1.973a.558.558 0 0 1 .064.964l-3.714 2.487a.558.558 0 0 1-.31.094"/>
        </g>
        <g transform="translate(29.295 24.329)">
            <mask id="b" fill="#fff">
                <use xlink:href="#a"/>
            </mask>
            <path fill="#495A63" d="M-6.243 17.76h18.79V-6.044h-18.79z" mask="url(#b)"/>
        </g>
        <g fill="#525252">
            <path d="M15.316 17.593a.557.557 0 0 1-.483-.279l-2.545-4.406a.557.557 0 0 1 .966-.557l2.062 3.57 2.06-3.57a.557.557 0 0 1 .966.557l-2.544 4.406a.557.557 0 0 1-.482.28M18.29 20.348H12.35a.557.557 0 1 1 0-1.114h5.941a.557.557 0 1 1 0 1.114"/>
            <path d="M18.316 18.066h-5.942a.557.557 0 1 1 0-1.114h5.942a.557.557 0 1 1 0 1.114"/>
            <path d="M15.349 22.63a.557.557 0 0 1-.558-.557V17.51a.557.557 0 1 1 1.115 0v4.564c0 .308-.249.558-.557.558"/>
        </g>
    </g>
</svg>
