<?xml version="1.0" encoding="UTF-8"?>
<svg width="24px" height="24px" viewBox="0 0 24 24" version="1.1" xmlns="http://www.w3.org/2000/svg" xmlns:xlink="http://www.w3.org/1999/xlink">
    <!-- Generator: Sketch 59.1 (86144) - https://sketch.com -->
    <title>Icons/Banner / toast/Info</title>
    <desc>Created with Sketch.</desc>
    <defs>
        <path d="M11.9999785,3.53128688 C13.5702875,3.53128688 15.0234088,3.92386425 16.3593431,4.70901845 C17.6952775,5.49417265 18.755822,6.55471717 19.5409762,7.89065149 C20.3261304,9.2265858 20.7187078,10.6797072 20.7187078,12.2500161 C20.7187078,13.820325 20.3261304,15.2734464 19.5409762,16.6093807 C18.755822,17.945315 17.6952775,19.0058595 16.3593431,19.7910137 C15.0234088,20.5761679 13.5702875,20.9687453 11.9999785,20.9687453 C10.4296696,20.9687453 8.97654825,20.5761679 7.64061394,19.7910137 C6.30467962,19.0058595 5.2441351,17.945315 4.4589809,16.6093807 C3.6738267,15.2734464 3.28124933,13.820325 3.28124933,12.2500161 C3.28124933,10.6797072 3.6738267,9.2265858 4.4589809,7.89065149 C5.2441351,6.55471717 6.30467962,5.49417265 7.64061394,4.70901845 C8.97654825,3.92386425 10.4296696,3.53128688 11.9999785,3.53128688 Z M11.9999785,19.2812493 C13.2656005,19.2812493 14.4374726,18.9648438 15.5155952,18.3320328 C16.5937178,17.6992219 17.4491843,16.8437553 18.0819953,15.7656327 C18.7148063,14.6875101 19.0312118,13.5156381 19.0312118,12.2500161 C19.0312118,10.9843941 18.7148063,9.81252208 18.0819953,8.73439948 C17.4491843,7.65627687 16.5937178,6.80081034 15.5155952,6.16799934 C14.4374726,5.53518835 13.2656005,5.21878286 11.9999785,5.21878286 C10.7343566,5.21878286 9.56248453,5.53518835 8.48436192,6.16799934 C7.40623932,6.80081034 6.55077278,7.65627687 5.91796179,8.73439948 C5.2851508,9.81252208 4.96874531,10.9843941 4.96874531,12.2500161 C4.96874531,13.5156381 5.2851508,14.6875101 5.91796179,15.7656327 C6.55077278,16.8437553 7.40623932,17.6992219 8.48436192,18.3320328 C9.56248453,18.9648438 10.7343566,19.2812493 11.9999785,19.2812493 Z M11.9999785,7.39846516 C12.3984149,7.39846516 12.7441176,7.54494936 13.0370854,7.83791724 C13.3300533,8.13088511 13.4765375,8.47658777 13.4765375,8.87502414 C13.4765375,9.27346051 13.3300533,9.61916317 13.0370854,9.91213104 C12.7441176,10.2050989 12.3984149,10.3515831 11.9999785,10.3515831 C11.6015422,10.3515831 11.2558395,10.2050989 10.9628716,9.91213104 C10.6699038,9.61916317 10.5234196,9.27346051 10.5234196,8.87502414 C10.5234196,8.47658777 10.6699038,8.13088511 10.9628716,7.83791724 C11.2558395,7.54494936 11.6015422,7.39846516 11.9999785,7.39846516 Z M13.9687238,16.3281314 C13.9687238,16.4453184 13.9277081,16.5449279 13.8456773,16.6269588 C13.7636464,16.7089897 13.6640369,16.7500054 13.5468499,16.7500054 L10.4531072,16.7500054 C10.3359202,16.7500054 10.2363107,16.7089897 10.1542798,16.6269588 C10.0722489,16.5449279 10.0312332,16.4453184 10.0312332,16.3281314 L10.0312332,15.4843834 C10.0312332,15.3671963 10.0722489,15.2675868 10.1542798,15.185556 C10.2363107,15.1035251 10.3359202,15.0625094 10.4531072,15.0625094 L10.8749812,15.0625094 L10.8749812,12.8125148 L10.4531072,12.8125148 C10.3359202,12.8125148 10.2363107,12.771499 10.1542798,12.6894682 C10.0722489,12.6074373 10.0312332,12.5078278 10.0312332,12.3906408 L10.0312332,11.5468928 C10.0312332,11.4297057 10.0722489,11.3300962 10.1542798,11.2480654 C10.2363107,11.1660345 10.3359202,11.1250188 10.4531072,11.1250188 L12.7031019,11.1250188 C12.8202889,11.1250188 12.9198984,11.1660345 13.0019293,11.2480654 C13.0839602,11.3300962 13.1249759,11.4297057 13.1249759,11.5468928 L13.1249759,15.0625094 L13.5468499,15.0625094 C13.6640369,15.0625094 13.7636464,15.1035251 13.8456773,15.185556 C13.9277081,15.2675868 13.9687238,15.3671963 13.9687238,15.4843834 L13.9687238,16.3281314 Z" id="path-1"></path>
    </defs>
    <g id="Icons/Banner-/-toast/Info" stroke="none" stroke-width="1" fill="none" fill-rule="evenodd">
        <mask id="mask-2" fill="white">
            <use xlink:href="#path-1"></use>
        </mask>
        <use id="Info" fill="#6B8592" fill-rule="nonzero" xlink:href="#path-1"></use>
        <g id="Colours/Icons/Default" mask="url(#mask-2)" fill="#6B8592">
            <rect id="Colour" x="0" y="0" width="24" height="24"></rect>
        </g>
        <polygon id="Path" mask="url(#mask-2)" points="0 0 24 0 24 24 0 24"></polygon>
    </g>
</svg>