<svg xmlns="http://www.w3.org/2000/svg" xmlns:xlink="http://www.w3.org/1999/xlink" width="24" height="24" viewBox="0 0 24 24">
    <defs>
        <path id="a" d="M12 21a9 9 0 1 0 0-18 9 9 0 0 0 0 18zm0-2a7 7 0 1 1 0-14 7 7 0 0 1 0 14zm0-11.602c.398 0 .744.147 1.037.44.293.293.44.639.44 1.037 0 .398-.147.744-.44 1.037-.293.293-.639.44-1.037.44-.398 0-.744-.147-1.037-.44a1.418 1.418 0 0 1-.44-1.037c0-.398.147-.744.44-1.037.293-.293.639-.44 1.037-.44zm1.969 8.93a.407.407 0 0 1-.123.299.407.407 0 0 1-.3.123h-3.093a.407.407 0 0 1-.299-.123.407.407 0 0 1-.123-.299v-.844c0-.117.041-.216.123-.298a.407.407 0 0 1 .3-.123h.421v-2.25h-.422a.407.407 0 0 1-.299-.124.407.407 0 0 1-.123-.298v-.844c0-.117.041-.217.123-.299a.407.407 0 0 1 .3-.123h2.25c.116 0 .216.041.298.123a.407.407 0 0 1 .123.299v3.516h.422c.117 0 .217.04.299.123a.407.407 0 0 1 .123.298v.844z"/>
    </defs>
    <g fill="none" fill-rule="evenodd">
        <mask id="b" fill="#fff">
            <use xlink:href="#a"/>
        </mask>
        <use fill="#6B8592" fill-rule="nonzero" xlink:href="#a"/>
        <g fill="#005EFD" mask="url(#b)">
            <path d="M0 0h24v24H0z"/>
        </g>
        <path d="M0 0h24v24H0z" mask="url(#b)"/>
    </g>
</svg>
