<svg xmlns="http://www.w3.org/2000/svg" xmlns:xlink="http://www.w3.org/1999/xlink" width="101" height="90" viewBox="0 0 101 90">
    <defs>
        <path id="a" d="M0 .696h71.632v64.925H0z"/>
        <path id="c" d="M0 .696h71.633v66.345H0z"/>
    </defs>
    <g fill="none" fill-rule="evenodd">
        <g transform="translate(0 .222)">
            <mask id="b" fill="#fff">
                <use xlink:href="#a"/>
            </mask>
            <path fill="#B2BEC4" d="M65.834.696H5.942C2.57.696 0 3.872 0 7.244v40.344c0 3.373 2.57 6.374 5.942 6.374h4.16v11.66L21.9 53.961h43.933c3.373 0 5.798-3 5.798-6.374V7.244c0-3.372-2.425-6.548-5.798-6.548" mask="url(#b)"/>
        </g>
        <g transform="translate(28.47 22.263)">
            <mask id="d" fill="#fff">
                <use xlink:href="#c"/>
            </mask>
            <path fill="#EBEFF1" d="M65.737.696H5.845C2.47.696 0 3.861 0 7.234v40.344c0 3.373 2.471 6.384 5.845 6.384h8.326l13.38 13.08v-13.08h38.186c3.372 0 5.896-3.01 5.896-6.384V7.234c0-3.373-2.524-6.538-5.896-6.538" mask="url(#d)"/>
        </g>
        <path fill="#667C88" d="M66.892 59.691h-5.264a2.652 2.652 0 0 0 2.631 2.258 2.663 2.663 0 0 0 2.633-2.258M65.75 39.984a7.617 7.617 0 0 0-2.98 0 1.623 1.623 0 0 1 1.489-.967c.45 0 .859.18 1.153.476.138.142.251.305.337.491m-9.667 12.02c-.229 1.388-.546 2.776-.952 3.907a.408.408 0 0 1-.394.307 1.34 1.34 0 0 0-1.33 1.333c0 .353.145.68.376.92l.018.018c.238.239.57.39.936.39H73.78a1.337 1.337 0 0 0 1.332-1.328c0-.361-.143-.686-.374-.925l-.019-.017a1.334 1.334 0 0 0-.94-.391.402.402 0 0 1-.378-.27c-.412-1.139-.737-2.543-.963-3.944-.262-1.592-.4-3.185-.4-4.385 0-2.14-.876-4.083-2.284-5.494a7.938 7.938 0 0 0-2.24-1.569 3.255 3.255 0 0 0-.954-2.212 3.248 3.248 0 0 0-2.301-.954c-.9 0-1.71.366-2.303.954a3.24 3.24 0 0 0-.95 2.212 7.903 7.903 0 0 0-2.242 1.569 7.77 7.77 0 0 0-2.288 5.494c0 1.2-.134 2.793-.394 4.385"/>
    </g>
</svg>
