<svg xmlns="http://www.w3.org/2000/svg" xmlns:xlink="http://www.w3.org/1999/xlink" width="57" height="100" viewBox="0 0 57 100">
    <defs>
        <path id="a" d="M0 .402h56.741v98.913H0z"/>
        <path id="c" d="M0 .402h56.74V55.61H0z"/>
    </defs>
    <g fill="none" fill-rule="evenodd">
        <g transform="translate(0 .283)">
            <mask id="b" fill="#fff">
                <use xlink:href="#a"/>
            </mask>
            <path fill="#B2BEC4" d="M51.541 99.315H5.2a5.2 5.2 0 0 1-5.2-5.2V5.602a5.2 5.2 0 0 1 5.2-5.2H51.54a5.2 5.2 0 0 1 5.2 5.2v88.513a5.2 5.2 0 0 1-5.2 5.2" mask="url(#b)"/>
        </g>
        <g transform="translate(0 .283)">
            <mask id="d" fill="#fff">
                <use xlink:href="#c"/>
            </mask>
            <path fill="#667C88" d="M56.74 55.61H0V5.513A5.112 5.112 0 0 1 5.11.402H51.63a5.112 5.112 0 0 1 5.112 5.112v50.095z" mask="url(#d)"/>
        </g>
        <path fill="#B2BEC4" d="M48.817 9.886H7.923a1.278 1.278 0 0 1 0-2.556h40.894a1.279 1.279 0 0 1 0 2.556"/>
        <path fill="#EBEFF1" d="M16.614 52.57h-8.18a1.79 1.79 0 1 1 0-3.579h8.18a1.789 1.789 0 0 1 0 3.578M32.46 52.57H24.28a1.79 1.79 0 1 1 0-3.579h8.179a1.79 1.79 0 0 1 0 3.578M48.306 52.57h-8.178a1.789 1.789 0 1 1 0-3.579h8.178a1.79 1.79 0 0 1 0 3.578M16.869 64.327h-8.69a1.534 1.534 0 0 1-1.534-1.534V60.75c0-.848.687-1.534 1.534-1.534h8.69c.847 0 1.533.686 1.533 1.534v2.044c0 .847-.686 1.534-1.533 1.534M32.715 64.327h-8.69a1.534 1.534 0 0 1-1.534-1.534V60.75c0-.848.687-1.534 1.534-1.534h8.69c.847 0 1.534.686 1.534 1.534v2.044c0 .847-.687 1.534-1.534 1.534M48.562 64.327h-8.69a1.533 1.533 0 0 1-1.533-1.534V60.75c0-.848.686-1.534 1.532-1.534h8.69c.847 0 1.534.686 1.534 1.534v2.044c0 .847-.687 1.534-1.533 1.534M16.869 73.528h-8.69a1.534 1.534 0 0 1-1.534-1.534V69.95c0-.847.687-1.534 1.534-1.534h8.69c.847 0 1.533.687 1.533 1.534v2.044c0 .847-.686 1.534-1.533 1.534M32.715 73.528h-8.69a1.534 1.534 0 0 1-1.534-1.534V69.95c0-.847.687-1.534 1.534-1.534h8.69c.847 0 1.534.687 1.534 1.534v2.044c0 .847-.687 1.534-1.534 1.534M48.562 73.528h-8.69a1.533 1.533 0 0 1-1.533-1.534V69.95c0-.847.686-1.534 1.532-1.534h8.69c.847 0 1.534.687 1.534 1.534v2.044c0 .847-.687 1.534-1.533 1.534M16.869 82.73h-8.69a1.534 1.534 0 0 1-1.534-1.534V79.15c0-.846.687-1.532 1.534-1.532h8.69c.847 0 1.533.686 1.533 1.532v2.046c0 .847-.686 1.533-1.533 1.533M32.715 82.73h-8.69a1.534 1.534 0 0 1-1.534-1.534V79.15c0-.846.687-1.532 1.534-1.532h8.69c.847 0 1.534.686 1.534 1.532v2.046c0 .847-.687 1.533-1.534 1.533M48.562 82.73h-8.69a1.533 1.533 0 0 1-1.533-1.534V79.15c0-.846.686-1.532 1.532-1.532h8.69c.847 0 1.534.686 1.534 1.532v2.046c0 .847-.687 1.533-1.533 1.533"/>
        <path fill="#94A4AD" d="M16.869 92.953h-8.69a1.534 1.534 0 0 1-1.534-1.534v-3.067c0-.847.687-1.534 1.534-1.534h8.69c.847 0 1.533.687 1.533 1.534v3.067c0 .847-.686 1.534-1.533 1.534M32.715 92.953h-8.69a1.534 1.534 0 0 1-1.534-1.534v-3.067c0-.847.687-1.534 1.534-1.534h8.69c.847 0 1.534.687 1.534 1.534v3.067c0 .847-.687 1.534-1.534 1.534M48.562 92.953h-8.69a1.533 1.533 0 0 1-1.533-1.534v-3.067c0-.847.686-1.534 1.532-1.534h8.69c.847 0 1.534.687 1.534 1.534v3.067c0 .847-.687 1.534-1.533 1.534"/>
        <path fill="#B2BEC4" d="M47.54 16.532H9.2a2.556 2.556 0 0 0-2.555 2.555v24.026a2.556 2.556 0 0 0 2.556 2.556H47.54a2.555 2.555 0 0 0 2.555-2.556V19.087a2.555 2.555 0 0 0-2.555-2.555"/>
        <path fill="#EBEFF1" d="M24.801 36.477l-1.807-1.808 8.946-8.945 1.807 1.807z"/>
        <path fill="#EBEFF1" d="M31.94 36.477l-8.946-8.946 1.807-1.807 8.946 8.945z"/>
    </g>
</svg>
