<svg xmlns="http://www.w3.org/2000/svg" xmlns:xlink="http://www.w3.org/1999/xlink" width="85" height="86" viewBox="0 0 85 86">
    <defs>
        <path id="a" d="M0 .076h44.9v21.871H0z"/>
        <path id="c" d="M.158.312h77.527V86H.158z"/>
    </defs>
    <g fill="none" fill-rule="evenodd">
        <path fill="#ED1D24" d="M21.306 41L1 33.305C2.158 28.507 4.178 24.013 6.847 20L25 31.175A20.99 20.99 0 0 0 21.306 41M45 50l-22-8.132A20.06 20.06 0 0 1 27.108 33L45 43.753V50zM45 43L28 31.632c2.147-2.424 4.82-4.378 7.823-5.632L45 35.356V43z"/>
        <g transform="translate(0 35)">
            <mask id="b" fill="#fff">
                <use xlink:href="#a"/>
            </mask>
            <path fill="#ED1D24" d="M2.335 21.947A42.899 42.899 0 0 1 0 8.028C0 5.296.26 2.644.752.076l20.26 7.171-.024.752c0 5.02 1.746 9.647 4.653 13.265-1.498-3.252-2.543-6.876-2.543-10.75 0-.845.039-1.671.14-2.476L44.9 15.713v6.234H2.335z" mask="url(#b)"/>
        </g>
        <path fill="#ED1D24" d="M4.033 60.508A52.78 52.78 0 0 1 3 58h12.65l2.374 2.52H37L32.835 65H9.474c-.733-2.438-2.85-4.274-5.44-4.492"/>
        <g transform="translate(7)">
            <mask id="d" fill="#fff">
                <use xlink:href="#c"/>
            </mask>
            <path fill="#ED1D24" d="M44.911 62.244a22.713 22.713 0 0 0 4.17-2.835 19.082 19.082 0 0 0 2.289-2.326 21.515 21.515 0 0 0 5.101-13.94c0-11.832-9.49-21.434-21.22-21.434-2.457 0-4.826.448-7.016 1.222L13.428 6.397A41.934 41.934 0 0 1 35.251.312c23.43 0 42.434 19.178 42.434 42.862C77.685 66.842 58.682 86 35.251 86c-11.662 0-22.227-4.755-29.899-12.42H57.43L2.845 70.83l57.667-.348L.158 67.286l23.186-.365s12.158.378 21.567-4.677" mask="url(#d)"/>
        </g>
        <path fill="#ED1D24" d="M25.853 30L8 18.118A42.905 42.905 0 0 1 18.537 8L34 23.783c-3.182 1.375-5.986 3.547-8.147 6.217"/>
    </g>
</svg>
