<?xml version="1.0" encoding="UTF-8"?>
<svg width="16px" height="16px" viewBox="0 0 16 16" version="1.1" xmlns="http://www.w3.org/2000/svg" xmlns:xlink="http://www.w3.org/1999/xlink">
    <!-- Generator: Sketch 55 (78076) - https://sketchapp.com -->
    <title>Icon/Link/Question</title>
    <desc>Created with Sketch.</desc>
    <g id="------Icons" stroke="none" stroke-width="1" fill="none" fill-rule="evenodd">
        <g id="Icons---Link" transform="translate(-500.000000, -223.000000)">
            <g id="Icon/Link/Question" transform="translate(496.000000, 219.000000)">
                <path d="M11.7499815,4 C13.1458117,4 14.4374751,4.34895766 15.6249723,5.0468725 C16.8124695,5.74478735 17.7551757,6.68749359 18.4530905,7.87499076 C19.1510054,9.06248793 19.499963,10.3541514 19.499963,11.7499815 C19.499963,13.1458117 19.1510054,14.4374751 18.4530905,15.6249723 C17.7551757,16.8124695 16.8124695,17.7551757 15.6249723,18.4530905 C14.4374751,19.1510054 13.1458117,19.499963 11.7499815,19.499963 C10.3541514,19.499963 9.06248793,19.1510054 7.87499076,18.4530905 C6.68749359,17.7551757 5.74478735,16.8124695 5.0468725,15.6249723 C4.34895766,14.4374751 4,13.1458117 4,11.7499815 C4,10.3541514 4.34895766,9.06248793 5.0468725,7.87499076 C5.74478735,6.68749359 6.68749359,5.74478735 7.87499076,5.0468725 C9.06248793,4.34895766 10.3541514,4 11.7499815,4 Z M11.7499815,17.9999666 C12.8749788,17.9999666 13.9166429,17.7187173 14.8749741,17.1562186 C15.8333053,16.59372 16.59372,15.8333053 17.1562186,14.8749741 C17.7187173,13.9166429 17.9999666,12.8749788 17.9999666,11.7499815 C17.9999666,10.6249842 17.7187173,9.58332018 17.1562186,8.62498897 C16.59372,7.66665777 15.8333053,6.90624307 14.8749741,6.34374441 C13.9166429,5.78124575 12.8749788,5.49999642 11.7499815,5.49999642 C10.6249842,5.49999642 9.58332018,5.78124575 8.62498897,6.34374441 C7.66665777,6.90624307 6.90624307,7.66665777 6.34374441,8.62498897 C5.78124575,9.58332018 5.49999642,10.6249842 5.49999642,11.7499815 C5.49999642,12.8749788 5.78124575,13.9166429 6.34374441,14.8749741 C6.90624307,15.8333053 7.66665777,16.59372 8.62498897,17.1562186 C9.58332018,17.7187173 10.6249842,17.9999666 11.7499815,17.9999666 Z M15.0937236,10.0312356 C15.0937236,10.5937343 14.9270574,11.0728996 14.5937247,11.4687322 C14.3853917,11.6978982 14.0416426,11.9478976 13.5624772,12.2187304 C13.3124778,12.3645635 13.1458117,12.4791463 13.0624784,12.5624796 C12.9166452,12.6666458 12.8437289,12.7916455 12.8437289,12.9374787 L12.8437289,13.1249782 C12.8437289,13.2291445 12.8072705,13.3176863 12.7343542,13.3906026 C12.6614378,13.4635189 12.5728961,13.4999774 12.4687298,13.4999774 L11.0312332,13.4999774 C10.927067,13.4999774 10.8385252,13.4635189 10.7656089,13.3906026 C10.6926925,13.3176863 10.6562341,13.2291445 10.6562341,13.1249782 L10.6562341,12.8437289 C10.6562341,12.3645635 10.8229002,11.9583145 11.1562329,11.6249818 C11.3437325,11.4374823 11.6562317,11.2187328 12.0937307,10.9687334 L12.1562306,10.9374835 C12.4687298,10.7499839 12.6874793,10.6041508 12.812479,10.4999845 C12.9583121,10.3541514 13.0312285,10.1874852 13.0312285,9.99998569 C13.0312285,9.74998629 12.9010203,9.5416533 12.6406044,9.37498719 C12.3801885,9.20832107 12.0885222,9.12498778 11.7656065,9.12498778 C11.4426907,9.12498778 11.1666494,9.19790411 10.9374835,9.34373726 C10.7499839,9.46873696 10.5208179,9.70831988 10.2499851,10.0624855 C10.1874852,10.1249854 10.1093604,10.1666518 10.0156107,10.1874852 C9.92186088,10.2083187 9.83331958,10.1874852 9.74998629,10.1249854 L8.87498838,9.46873696 C8.79165508,9.40623711 8.7447802,9.32290382 8.73436371,9.21873756 C8.72394723,9.1145713 8.73957219,9.02082152 8.7812386,8.93748823 C9.17707115,8.37498957 9.62498659,7.95311558 10.1249854,7.67186625 C10.6249842,7.39061692 11.2291493,7.24999225 11.9374811,7.24999225 C12.4374799,7.24999225 12.9374787,7.37499195 13.4374775,7.62499136 C13.9374763,7.87499076 14.3385169,8.20832346 14.6405996,8.62498897 C14.9426824,9.04165449 15.0937236,9.51040337 15.0937236,10.0312356 Z M13.0624784,15.2499732 C13.0624784,15.6041388 12.9322702,15.9114301 12.6718543,16.171846 C12.4114384,16.4322619 12.1041472,16.56247 11.7499815,16.56247 C11.3958159,16.56247 11.0885246,16.4322619 10.8281087,16.171846 C10.5676928,15.9114301 10.4374847,15.6041388 10.4374847,15.2499732 C10.4374847,14.8958075 10.5676928,14.5885163 10.8281087,14.3281004 C11.0885246,14.0676845 11.3958159,13.9374763 11.7499815,13.9374763 C12.1041472,13.9374763 12.4114384,14.0676845 12.6718543,14.3281004 C12.9322702,14.5885163 13.0624784,14.8958075 13.0624784,15.2499732 Z" id="Question" fill="#005EFD" fill-rule="nonzero"></path>
                <polygon id="Path" points="0 0 24 0 24 24 0 24"></polygon>
            </g>
        </g>
    </g>
</svg>