<svg xmlns="http://www.w3.org/2000/svg" xmlns:xlink="http://www.w3.org/1999/xlink" width="24" height="24" viewBox="0 0 24 24">
    <defs>
        <path id="a" d="M15.875 14.875c0 .938-.328 1.734-.984 2.39-.657.657-1.454.985-2.391.985-.938 0-1.734-.328-2.39-.984-.657-.657-.985-1.453-.985-2.391 0-.352.047-.691.14-1.02L5.82 11.711c-.656.61-1.441.914-2.355.914-.914 0-1.7-.328-2.356-.984-.656-.657-.984-1.453-.984-2.391 0-.937.328-1.734.984-2.39.657-.657 1.442-.985 2.356-.985.914 0 1.7.305 2.355.914l3.446-2.144a3.693 3.693 0 0 1-.141-1.02c0-.937.328-1.734.984-2.39C10.766.577 11.562.25 12.5.25c.937 0 1.734.328 2.39.984.657.657.985 1.454.985 2.391 0 .938-.328 1.734-.984 2.39-.657.657-1.442.985-2.356.985-.914 0-1.7-.305-2.355-.914L6.734 8.23c.211.68.211 1.36 0 2.04l3.446 2.144c.656-.61 1.441-.914 2.355-.914.914 0 1.7.328 2.356.984.656.657.984 1.454.984 2.391zM12.5 1.938c-.469 0-.867.164-1.195.492a1.627 1.627 0 0 0-.493 1.195c0 .469.165.867.493 1.195.328.328.726.493 1.195.493.469 0 .867-.165 1.195-.493.328-.328.492-.726.492-1.195 0-.469-.164-.867-.492-1.195a1.627 1.627 0 0 0-1.195-.492zm-9 5.625c-.469 0-.867.164-1.195.492a1.627 1.627 0 0 0-.493 1.195c0 .469.165.867.493 1.195.328.328.726.493 1.195.493.469 0 .867-.165 1.195-.493.328-.328.492-.726.492-1.195 0-.469-.164-.867-.492-1.195A1.627 1.627 0 0 0 3.5 7.563zm9 5.625c-.469 0-.867.164-1.195.492a1.627 1.627 0 0 0-.493 1.195c0 .469.165.867.493 1.195.328.328.726.492 1.195.492.469 0 .867-.164 1.195-.492.328-.328.492-.726.492-1.195 0-.469-.164-.867-.492-1.195a1.627 1.627 0 0 0-1.195-.492z"/>
    </defs>
    <g fill="none" fill-rule="evenodd" transform="translate(4 3)">
        <mask id="b" fill="#fff">
            <use xlink:href="#a"/>
        </mask>
        <use fill="#6B8592" fill-rule="nonzero" xlink:href="#a"/>
        <g fill="#005EFD" mask="url(#b)">
            <path d="M-4-3h24v24H-4z"/>
        </g>
        <path d="M-4-3h24v24H-4z" mask="url(#b)"/>
    </g>
</svg>
