<svg xmlns="http://www.w3.org/2000/svg" xmlns:xlink="http://www.w3.org/1999/xlink" width="72" height="72" viewBox="0 0 72 72">
    <defs>
        <path id="a" d="M36 72c19.882 0 36-16.118 36-36S55.882 0 36 0 0 16.118 0 36s16.118 36 36 36zm0-3C17.775 69 3 54.225 3 36S17.775 3 36 3s33 14.775 33 33-14.775 33-33 33zm-3.844-24.422l-7.828-7.781c-.219-.219-.328-.5-.328-.844s.11-.625.328-.844l1.734-1.687c.22-.25.493-.375.82-.375.329 0 .618.125.868.375l5.25 5.25 11.25-11.25c.25-.25.539-.375.867-.375.328 0 .602.125.82.375l1.735 1.687c.219.22.328.5.328.844s-.11.625-.328.844L33.844 44.578c-.219.25-.5.375-.844.375a1.07 1.07 0 0 1-.844-.375z"/>
    </defs>
    <g fill="none" fill-rule="evenodd">
        <mask id="b" fill="#fff">
            <use xlink:href="#a"/>
        </mask>
        <use fill="#319988" fill-rule="nonzero" xlink:href="#a"/>
        <g fill="#319988" mask="url(#b)">
            <path d="M0 0h72v72H0z"/>
        </g>
    </g>
</svg>
