<?xml version="1.0" standalone="no"?>
<!DOCTYPE svg PUBLIC "-//W3C//DTD SVG 1.1//EN" "http://www.w3.org/Graphics/SVG/1.1/DTD/svg11.dtd" >
<svg xmlns="http://www.w3.org/2000/svg" xmlns:xlink="http://www.w3.org/1999/xlink" version="1.1">
<metadata>
Created by FontForge 20170731 at Tue Nov 22 05:06:08 2011
 By Aleksey,,,
Copyright 1994-2011 Luc(as) de Groot, published by LucasFonts, www.lucasfonts.com  All rights reserved.
</metadata>
<defs>
<font id="TheSansC4s-SemiLight" horiz-adv-x="550" >
  <font-face 
    font-family="TheSans C4s SemiLight"
    font-weight="400"
    font-stretch="normal"
    units-per-em="1000"
    panose-1="2 11 4 2 5 3 2 2 2 3"
    ascent="740"
    descent="-260"
    x-height="497"
    cap-height="675"
    bbox="-455 -321 2833 980"
    underline-thickness="60"
    underline-position="-341"
    unicode-range="U+000D-FB05"
  />
<missing-glyph 
d="M300 150h-150v250h50v-200h100v-50zM500 50h-450v450h450v-450zM350 350h-100v50h150v-250h-50v100h-100v50h100v50zM100 100h350v350h-350v-350z" />
    <glyph glyph-name="f_b" unicode="fb" horiz-adv-x="889" 
d="M335 438h-145v-438h-75v438h-108v59h108v36q0 102 53.5 152t164.5 50q34 0 75 -3.5t65 -6.5l24 -3v-244q0 -54 -9 -91l2 -1q21 56 66 88t104 32q88 0 136 -60t48 -175q0 -131 -69 -204t-188 -73q-39 0 -80.5 4.5t-62.5 9.5l-22 5v654q-50 8 -100 8q-68 0 -100 -32
t-32 -106v-40h145v-59zM497 240v-173q43 -14 97 -14q81 0 126 51.5t45 160.5q0 179 -120 179q-69 0 -108.5 -64.5t-39.5 -139.5z" />
    <glyph glyph-name="f_f" unicode="ff" horiz-adv-x="650" 
d="M493 0h-75v438h-228v-438h-75v438h-108v59h108v25q0 42 10.5 76.5t33.5 64.5t65 47t100 17q72 0 160 -28q48 36 123 36q18 0 38 -2t31 -4l11 -2l-7 -64q-39 11 -78 11q-57 0 -83 -34t-26 -107v-36h146v-59h-146v-438zM418 497v32q0 67 24 113q-65 24 -125 24
q-127 0 -127 -134v-35h228z" />
    <glyph glyph-name="f_f_b" unicode="ffb" horiz-adv-x="1192" 
d="M637 438h-144v-438h-75v438h-228v-438h-75v438h-108v59h108v25q0 41 10.5 76t33.5 64.5t65 46.5t100 17q79 0 164 -29q52 38 148 38q34 0 75 -3.5t65 -6.5l24 -3v-244q0 -54 -9 -91l2 -1q21 56 66 88t104 32q88 0 135.5 -60t47.5 -175q0 -131 -69 -204t-187 -73
q-40 0 -81 4.5t-63 9.5l-21 5v654q-50 8 -100 8q-69 0 -100.5 -32t-31.5 -106v-40h144v-59zM418 497v36q0 67 24 109q-65 24 -125 24q-127 0 -127 -134v-35h228zM800 240v-173q43 -14 97 -14q170 0 170 212q0 179 -119 179q-69 0 -108.5 -64.5t-39.5 -139.5z" />
    <glyph glyph-name="f_f_f" unicode="fff" horiz-adv-x="957" 
d="M800 0h-75v438h-232v-438h-75v438h-228v-438h-75v438h-108v59h108v21q0 88 49 146t160 58q72 0 160 -28q49 37 123 37q18 0 38 -2.5t31 -4.5l11 -2l-7 -64q-39 12 -78 12q-57 0 -83 -34.5t-26 -107.5v-31h232v32q0 104 49 155t140 51q18 0 38 -2t31 -4l11 -2l-7 -64
q-39 11 -78 11q-57 0 -83 -34t-26 -107v-36h146v-59h-146v-438zM418 497v27q0 68 24 114q-62 23 -125 23q-127 0 -127 -134v-30h228z" />
    <glyph glyph-name="f_f_h" unicode="ffh" horiz-adv-x="1211" 
d="M1120 0h-75v321q0 62 -20.5 92.5t-72.5 30.5q-66 0 -109 -58.5t-43 -147.5v-238h-75v667q-50 8 -100 8q-69 0 -100.5 -32t-31.5 -106v-40h144v-59h-144v-438h-75v438h-228v-438h-75v438h-108v59h108v25q0 41 10.5 76t33.5 64.5t65 46.5t100 17q79 0 164 -29q52 38 148 38
q34 0 75 -3.5t65 -6.5l24 -3v-236q0 -67 -9 -99l2 -1q22 56 68.5 88t109.5 32q149 0 149 -160v-346zM418 497v36q0 67 24 109q-65 24 -125 24q-127 0 -127 -134v-35h228z" />
    <glyph glyph-name="f_f_i" unicode="ffi" horiz-adv-x="890" 
d="M800 0h-75v438h-232v-438h-75v438h-228v-438h-75v438h-108v59h108v25q0 42 10.5 76.5t33.5 64.5t65 47t100 17q81 0 169 -32q57 41 145 41q75 0 142 -19l-15 -63q-65 20 -134 20q-138 0 -138 -143v-34h307v-497zM418 497v23q0 74 29 121q-70 25 -130 25q-127 0 -127 -134
v-35h228z" />
    <glyph glyph-name="f_f_igrave" unicode="ff&#xec;" horiz-adv-x="895" 
d="M804 0h-75v438h-232v-438h-75v438h-232v-438h-75v438h-108v59h108v31q0 98 47.5 148t133.5 50l59 -4l-6 -63q-27 6 -58 6q-101 0 -101 -133v-35h232v58q0 87 37.5 133.5t107.5 46.5l51 -4l-7 -63q-23 6 -46 6q-68 0 -68 -114v-63h307v-497zM806 593l-47 -26l-95 155
l59 32z" />
    <glyph glyph-name="f_f_iacute" unicode="ff&#xed;" horiz-adv-x="895" 
d="M804 0h-75v438h-232v-438h-75v438h-232v-438h-75v438h-108v59h108v31q0 98 47.5 148t133.5 50l59 -4l-6 -63q-27 6 -58 6q-101 0 -101 -133v-35h232v40q0 98 47.5 148t132.5 50l60 -4l-6 -63q-28 6 -58 6q-101 0 -101 -133v-44h307v-497zM876 713l-112 -141l-44 30
l100 148z" />
    <glyph glyph-name="f_f_icircumflex" unicode="ff&#xee;" horiz-adv-x="895" 
d="M804 0h-75v438h-232v-438h-75v438h-232v-438h-75v438h-108v59h108v31q0 98 47.5 148t133.5 50l59 -4l-6 -63q-27 6 -58 6q-101 0 -101 -133v-35h232v58q0 87 37.5 133.5t107.5 46.5l51 -4l-7 -63q-23 6 -46 6q-68 0 -68 -114v-63h307v-497zM889 611l-35 -36l-86 86
l-87 -86l-33 35l121 129z" />
    <glyph glyph-name="f_f_itilde" unicode="ff&#x129;" horiz-adv-x="895" 
d="M903 661l-39 29q-21 -47 -47 -47q-15 0 -42.5 27.5t-56.5 27.5q-25 0 -49 -20t-39 -54l39 -29q21 46 47 46q15 0 42.5 -27.5t56.5 -27.5q25 0 49 20.5t39 54.5zM804 0h-75v438h-232v-438h-75v438h-232v-438h-75v438h-108v59h108v32q0 98 44 147.5t123 49.5l58 -4l-6 -64
q-27 7 -56 7q-88 0 -88 -132v-36h232v58q0 87 37.5 133.5t107.5 46.5l51 -4l-7 -63q-23 6 -46 6q-68 0 -68 -114v-63h307v-497z" />
    <glyph glyph-name="f_f_idieresis" unicode="ff&#xef;" horiz-adv-x="900" 
d="M900 657q0 -20 -14 -34t-34 -14t-33.5 14t-13.5 34q0 19 13.5 33t33.5 14t34 -13.5t14 -33.5zM742 657q0 -20 -14 -34t-34 -14t-33.5 14t-13.5 34q0 19 13.5 33t33.5 14t34 -13.5t14 -33.5zM809 0h-75v438h-237v-438h-75v438h-232v-438h-75v438h-108v59h108v32
q0 98 44 147.5t123 49.5l58 -4l-6 -64q-27 7 -56 7q-88 0 -88 -132v-36h232v58q0 87 37.5 133.5t108.5 46.5l48 -4l-7 -63q-22 7 -45 7q-67 0 -67 -115v-63h312v-497z" />
    <glyph glyph-name="f_f_imacron" unicode="ff&#x12b;" horiz-adv-x="895" 
d="M883 623h-223v57h223v-57zM804 0h-75v438h-232v-438h-75v438h-232v-438h-75v438h-108v59h108v32q0 98 44 147.5t123 49.5l58 -4l-6 -64q-27 7 -56 7q-88 0 -88 -132v-36h232v58q0 87 37.5 133.5t108.5 46.5l48 -4l-7 -63q-22 7 -45 7q-67 0 -67 -115v-63h307v-497z" />
    <glyph glyph-name="f_f_ibreve" unicode="ff&#x12d;" horiz-adv-x="895" 
d="M804 0h-75v438h-232v-438h-75v438h-232v-438h-75v438h-108v59h108v31q0 98 47.5 148t133.5 50l59 -4l-6 -63q-27 6 -58 6q-101 0 -101 -133v-35h232v58q0 87 37.5 133.5t107.5 46.5l51 -4l-7 -63q-23 6 -46 6q-68 0 -68 -114v-63h307v-497zM829 717h54q0 -61 -30 -94
t-84 -33t-82.5 33t-28.5 94h52q0 -29 16 -49.5t44 -20.5t43.5 19t15.5 51z" />
    <glyph glyph-name="f_f_iogonek" unicode="ff&#x12f;" horiz-adv-x="891" 
d="M418 497v23q0 74 29 121q-70 25 -130 25q-127 0 -127 -134v-35h228zM833 -148l26 -43q-48 -42 -106 -42q-48 0 -74.5 23.5t-26.5 63.5q0 69 73 148v436h-232v-438h-75v438h-228v-438h-75v438h-108v59h108v25q0 42 10.5 76.5t33.5 64.5t65 47t100 17q81 0 169 -32
q57 41 145 41q75 0 142 -19l-15 -63q-65 20 -134 20q-138 0 -138 -143v-34h307v-497q-75 -69 -75 -132q0 -42 42 -42q31 0 66 26z" />
    <glyph glyph-name="f_f_dotlessi" unicode="ff&#x131;" horiz-adv-x="895" 
d="M804 0h-75v438h-232v-438h-75v438h-232v-438h-75v438h-108v59h108v31q0 98 47.5 148t133.5 50l59 -4l-6 -63q-27 6 -58 6q-101 0 -101 -133v-35h232v40q0 98 47.5 148t132.5 50l60 -4l-6 -63q-28 6 -58 6q-101 0 -101 -133v-44h307v-497z" />
    <glyph glyph-name="f_f_j" unicode="ffj" horiz-adv-x="891" 
d="M800 497v-560q0 -102 -36.5 -147.5t-127.5 -45.5q-38 0 -67 9l7 66q33 -12 64 -12q50 0 67.5 26t17.5 99v506h-232v-438h-75v438h-228v-438h-75v438h-108v59h108v25q0 42 10.5 76.5t33.5 64.5t65 47t100 17q81 0 169 -32q57 41 145 41q75 0 142 -19l-15 -63
q-65 20 -134 20q-138 0 -138 -143v-34h307zM418 497v23q0 74 29 121q-70 25 -130 25q-127 0 -127 -134v-35h228z" />
    <glyph glyph-name="f_f_dotlessj" unicode="ff&#x237;" horiz-adv-x="895" 
d="M804 497v-560q0 -100 -36.5 -146.5t-119.5 -46.5q-18 0 -37 2t-29 4l-9 2l7 66q32 -11 72 -11q44 0 60.5 26t16.5 99v506h-232v-438h-75v438h-232v-438h-75v438h-108v59h108v31q0 98 47.5 148t133.5 50l59 -4l-6 -63q-27 6 -58 6q-101 0 -101 -133v-35h232v58
q0 87 37.5 133.5t107.5 46.5l51 -4l-7 -63q-23 6 -46 6q-68 0 -68 -114v-63h307z" />
    <glyph glyph-name="f_f_jcircumflex" unicode="ff&#x135;" horiz-adv-x="895" 
d="M804 497v-560q0 -100 -36.5 -146.5t-119.5 -46.5q-18 0 -37 2t-29 4l-9 2l7 66q32 -11 72 -11q44 0 60.5 26t16.5 99v506h-232v-438h-75v438h-232v-438h-75v438h-108v59h108v31q0 98 47.5 148t133.5 50l59 -4l-6 -63q-27 6 -58 6q-101 0 -101 -133v-35h232v58
q0 87 37.5 133.5t107.5 46.5l51 -4l-7 -63q-23 6 -46 6q-68 0 -68 -114v-63h307zM889 611l-35 -36l-86 86l-87 -86l-33 35l121 129z" />
    <glyph glyph-name="f_f_k" unicode="ffk" horiz-adv-x="1116" 
d="M418 497v36q0 67 24 109q-65 24 -125 24q-127 0 -127 -134v-35h228zM1093 0h-98l-195 261v-261h-75v667q-50 8 -100 8q-69 0 -100.5 -32t-31.5 -106v-40h144v-59h-144v-438h-75v438h-228v-438h-75v438h-108v59h108v25q0 41 10.5 76t33.5 64.5t65 46.5t100 17
q79 0 164 -29q52 38 148 38q34 0 75 -3.5t65 -6.5l24 -3v-448l186 223h91l-197 -226z" />
    <glyph glyph-name="f_f_l" unicode="ffl" horiz-adv-x="890" 
d="M800 0h-75v667q-50 8 -100 8q-69 0 -100.5 -32t-31.5 -106v-40h144v-59h-144v-438h-75v438h-228v-438h-75v438h-108v59h108v25q0 41 10.5 76t33.5 64.5t65 46.5t100 17q79 0 164 -29q52 38 148 38q34 0 75 -3.5t65 -6.5l24 -3v-722zM418 497v36q0 67 24 109
q-65 24 -125 24q-127 0 -127 -134v-35h228z" />
    <glyph glyph-name="f_h" unicode="fh" horiz-adv-x="908" 
d="M817 0h-74v321q0 62 -21 92.5t-73 30.5q-66 0 -109 -58.5t-43 -147.5v-238h-75v667q-50 8 -100 8q-68 0 -100 -32t-32 -106v-40h145v-59h-145v-438h-75v438h-108v59h108v36q0 102 53.5 152t164.5 50q34 0 75 -3.5t65 -6.5l24 -3v-236q0 -66 -8 -99l2 -1q22 56 68 88
t109 32q149 0 149 -160v-346z" />
    <glyph glyph-name="f_i" unicode="fi" horiz-adv-x="588" 
d="M497 0h-75v438h-232v-438h-75v438h-108v59h108v23q0 103 55 159.5t165 56.5q76 0 143 -19l-16 -63q-65 20 -133 20q-139 0 -139 -143v-34h307v-497z" />
    <glyph glyph-name="f_i.TRK" unicode="fi" horiz-adv-x="588" 
d="M512 656q0 -21 -15 -35.5t-36 -14.5t-36 14.5t-15 35.5t15 35.5t36 14.5t36 -14.5t15 -35.5zM497 0h-75v438h-232v-438h-75v438h-108v59h108v40q0 98 47.5 148t132.5 50l59 -4l-6 -63q-28 6 -58 6q-100 0 -100 -133v-44h307v-497z" />
    <glyph glyph-name="f_igrave" unicode="f&#xec;" horiz-adv-x="588" 
d="M497 0h-75v438h-232v-438h-75v438h-108v59h108v58q0 87 38 133.5t107 46.5l51 -4l-7 -63q-22 6 -46 6q-68 0 -68 -114v-63h307v-497zM499 593l-47 -26l-95 155l59 32z" />
    <glyph glyph-name="f_iacute" unicode="f&#xed;" horiz-adv-x="588" 
d="M497 0h-75v438h-232v-438h-75v438h-108v59h108v40q0 98 47.5 148t133.5 50l59 -4l-6 -63q-27 6 -58 6q-101 0 -101 -133v-44h307v-497zM569 713l-112 -141l-44 30l100 148z" />
    <glyph glyph-name="f_icircumflex" unicode="f&#xee;" horiz-adv-x="588" 
d="M497 0h-75v438h-232v-438h-75v438h-108v59h108v58q0 87 38 133.5t107 46.5l51 -4l-7 -63q-22 6 -46 6q-68 0 -68 -114v-63h307v-497zM583 611l-35 -36l-86 86l-87 -86l-33 35l121 129z" />
    <glyph glyph-name="f_itilde" unicode="f&#x129;" horiz-adv-x="588" 
d="M497 0h-75v438h-232v-438h-75v438h-108v59h108v58q0 87 38 133.5t107 46.5l51 -4l-7 -63q-22 6 -46 6q-68 0 -68 -115v-62h307v-497zM323 624l39 -29q22 46 48 46q14 0 41.5 -27.5t56.5 -27.5q26 0 50 20.5t38 54.5l-39 29q-21 -47 -47 -47q-15 0 -42.5 27.5t-55.5 27.5
q-26 0 -50 -20t-39 -54z" />
    <glyph glyph-name="f_idieresis" unicode="f&#xef;" horiz-adv-x="593" 
d="M502 0h-75v438h-237v-438h-75v438h-108v59h108v58q0 87 37.5 133.5t108.5 46.5l48 -4l-7 -63q-22 7 -45 7q-67 0 -67 -115v-63h312v-497zM593 657q0 -20 -14 -34t-34 -14t-33.5 14t-13.5 34q0 19 14 33t33 14q20 0 34 -13.5t14 -33.5zM435 657q0 -20 -13.5 -34t-33.5 -14
t-34 14t-14 34t14 33.5t34 13.5t33.5 -14t13.5 -33z" />
    <glyph glyph-name="f_imacron" unicode="f&#x12b;" horiz-adv-x="588" 
d="M576 623h-223v57h223v-57zM497 0h-75v438h-232v-438h-75v438h-108v59h108v58q0 87 37.5 133.5t108.5 46.5l48 -4l-7 -63q-22 7 -45 7q-67 0 -67 -115v-63h307v-497z" />
    <glyph glyph-name="f_ibreve" unicode="f&#x12d;" horiz-adv-x="588" 
d="M497 0h-75v438h-232v-438h-75v438h-108v59h108v58q0 87 38 133.5t107 46.5l51 -4l-7 -63q-22 6 -46 6q-68 0 -68 -114v-63h307v-497zM522 717h54q0 -61 -30 -94t-84 -33t-82.5 33t-28.5 94h52q0 -29 16 -49.5t44 -20.5t43.5 19t15.5 51z" />
    <glyph glyph-name="f_iogonek" unicode="f&#x12f;" horiz-adv-x="588" 
d="M531 -148l25 -43q-47 -42 -105 -42q-48 0 -74.5 23.5t-26.5 63.5q0 70 72 148v436h-232v-438h-75v438h-108v59h108v23q0 103 55 159.5t165 56.5q76 0 143 -19l-16 -63q-65 20 -133 20q-139 0 -139 -143v-34h307v-497q-74 -69 -74 -132q0 -42 41 -42q30 0 67 26z" />
    <glyph glyph-name="f_dotlessi" unicode="f&#x131;" horiz-adv-x="588" 
d="M497 0h-75v438h-232v-438h-75v438h-108v59h108v40q0 98 47.5 148t133.5 50l59 -4l-6 -63q-27 6 -58 6q-101 0 -101 -133v-44h307v-497z" />
    <glyph glyph-name="f_ij" unicode="f&#x133;" horiz-adv-x="908" 
d="M512 656q0 -21 -15 -35.5t-36 -14.5t-36 14.5t-15 35.5t15 35.5t36 14.5t36 -14.5t15 -35.5zM830 656q0 -21 -15 -35.5t-36 -14.5t-36 14.5t-15 35.5t15 35.5t36 14.5t36 -14.5t15 -35.5zM817 497v-528q0 -114 -64 -170t-171 -56q-82 0 -144 17l11 73q62 -23 142 -23
q78 0 115 38.5t37 122.5v44q0 56 8 96l-2 1q-22 -55 -68 -87.5t-109 -32.5q-150 0 -150 159v287h-232v-438h-75v438h-108v59h108v40q0 98 47.5 148t132.5 50l59 -4l-6 -63q-28 6 -58 6q-100 0 -100 -133v-44h307v-321q0 -61 21 -91.5t73 -30.5q66 0 109 58.5t43 147.5v237
h74z" />
    <glyph glyph-name="f_j" unicode="fj" horiz-adv-x="587" 
d="M497 497v-560q0 -102 -36 -147.5t-127 -45.5q-38 0 -68 9l8 66q31 -12 64 -12q50 0 67 26t17 99v506h-232v-438h-75v438h-108v59h108v23q0 103 55 159.5t165 56.5q76 0 143 -19l-16 -63q-65 20 -133 20q-139 0 -139 -143v-34h307z" />
    <glyph glyph-name="f_dotlessj" unicode="f&#x237;" horiz-adv-x="588" 
d="M497 497v-560q0 -102 -36 -147.5t-127 -45.5q-38 0 -68 9l8 66q31 -12 64 -12q50 0 67 26t17 99v506h-232v-438h-75v438h-108v59h108v40q0 98 47.5 148t133.5 50l59 -4l-6 -63q-27 6 -58 6q-101 0 -101 -133v-44h307z" />
    <glyph glyph-name="f_jcircumflex" unicode="f&#x135;" horiz-adv-x="588" 
d="M497 497v-560q0 -102 -36 -147.5t-127 -45.5q-38 0 -68 9l8 66q31 -12 64 -12q50 0 67 26t17 99v506h-232v-438h-75v438h-108v59h108v58q0 87 38 133.5t107 46.5l51 -4l-7 -63q-22 6 -46 6q-68 0 -68 -114v-63h307zM583 611l-35 -36l-86 86l-87 -86l-33 35l121 129z" />
    <glyph glyph-name="f_k" unicode="fk" horiz-adv-x="813" 
d="M791 0h-98l-196 261v-261h-75v667q-50 8 -100 8q-68 0 -100 -32t-32 -106v-40h145v-59h-145v-438h-75v438h-108v59h108v36q0 102 53.5 152t164.5 50q34 0 75 -3.5t65 -6.5l24 -3v-448l187 223h91l-198 -226z" />
    <glyph glyph-name="f_l" unicode="fl" horiz-adv-x="588" 
d="M497 0h-75v667q-50 8 -100 8q-68 0 -100 -32t-32 -106v-40h145v-59h-145v-438h-75v438h-108v59h108v36q0 102 53.5 152t164.5 50q34 0 75 -3.5t65 -6.5l24 -3v-722z" />
    <glyph glyph-name="f_lacute" unicode="f&#x13a;" horiz-adv-x="588" 
d="M497 0h-75v667q-50 8 -100 8q-68 0 -100 -32t-32 -106v-40h145v-59h-145v-438h-75v438h-108v59h108v36q0 102 53.5 152t164.5 50q34 0 75 -3.5t65 -6.5l24 -3v-722zM610 846l-180 -57l-16 44l172 74z" />
    <glyph glyph-name="f_lcaron" unicode="f&#x13e;" horiz-adv-x="611" 
d="M497 0h-75v667q-50 8 -100 8q-68 0 -100 -32t-32 -106v-40h145v-59h-145v-438h-75v438h-108v59h108v36q0 102 53.5 152t164.5 50q34 0 75 -3.5t65 -6.5l24 -3v-722zM673 737l-70 -168l-51 16l57 171z" />
    <glyph glyph-name="f_lcommaaccent" unicode="f&#x13c;" horiz-adv-x="588" 
d="M497 0h-75v667q-50 8 -100 8q-68 0 -100 -32t-32 -106v-40h145v-59h-145v-438h-75v438h-108v59h108v36q0 102 53.5 152t164.5 50q34 0 75 -3.5t65 -6.5l24 -3v-722zM411 -239l-24 28q45 37 45 73q0 12 -7 24t-7 22q0 17 12 29.5t31 12.5q21 0 34.5 -15.5t13.5 -38.5
q0 -68 -98 -135z" />
    <glyph glyph-name=".notdef" 
d="M300 150h-150v250h50v-200h100v-50zM500 50h-450v450h450v-450zM350 350h-100v50h150v-250h-50v100h-100v50h100v50zM100 100h350v350h-350v-350z" />
    <glyph glyph-name=".null" horiz-adv-x="0" 
 />
    <glyph glyph-name=".null" horiz-adv-x="0" 
 />
    <glyph glyph-name="nonmarkingreturn" horiz-adv-x="333" 
 />
    <glyph glyph-name="CR" unicode="&#xd;" horiz-adv-x="500" 
 />
    <glyph glyph-name="space" unicode=" " horiz-adv-x="218" 
 />
    <glyph glyph-name="exclam" unicode="!" horiz-adv-x="319" 
d="M214 701l-14 -541h-62l-14 541h90zM222 44q0 -22 -15.5 -37t-37.5 -15t-37.5 15t-15.5 37t15 37.5t38 15.5t38 -15.5t15 -37.5z" />
    <glyph glyph-name="quotedbl" unicode="&#x22;" horiz-adv-x="350" 
d="M295 698l-13 -220h-55l-13 220h81zM137 698l-14 -220h-54l-14 220h82z" />
    <glyph glyph-name="numbersign" unicode="#" horiz-adv-x="574" 
d="M539 436h-99l-21 -190h97v-52h-102l-20 -194h-61l20 194h-162l-20 -194h-61l20 194h-96v52h102l21 190h-98v51h102l21 188h61l-21 -188h162l20 188h61l-20 -188h94v-51zM379 436h-161l-21 -190h161z" />
    <glyph glyph-name="dollar" unicode="$" horiz-adv-x="488" 
d="M261 -108h-57v130q-68 0 -125 15l4 72q57 -23 132 -23q62 0 99.5 26.5t37.5 81.5q0 34 -21.5 58.5t-53.5 37.5t-70 29.5t-70 34t-53.5 51.5t-21.5 81q0 64 44.5 109t117.5 55v107h58v-104q63 -2 106 -12l-5 -68q-59 18 -114 18q-69 0 -100.5 -27t-31.5 -68
q0 -33 21.5 -57t54.5 -37.5t70.5 -30.5t70.5 -35t54.5 -51.5t21.5 -79.5q0 -69 -45 -118t-124 -62v-133z" />
    <glyph glyph-name="percent" unicode="%" horiz-adv-x="746" 
d="M699 152q0 -71 -40 -116t-107 -45q-137 0 -137 152q0 69 40 114t107 45q137 0 137 -150zM644 659l-495 -679l-50 35l496 678zM331 535q0 -72 -40 -116.5t-107 -44.5q-137 0 -137 151q0 70 39.5 114.5t107.5 44.5q137 0 137 -149zM635 145q0 53 -19 78.5t-60 25.5
q-35 0 -56 -27.5t-21 -72.5q0 -106 81 -106q33 0 54 28.5t21 73.5zM267 528q0 104 -79 104q-34 0 -55.5 -28t-21.5 -72q0 -106 80 -106q34 0 55 28t21 74z" />
    <glyph glyph-name="ampersand" unicode="&#x26;" horiz-adv-x="794" 
d="M732 41l-46 -59q-79 58 -143 110q-111 -101 -265 -101q-104 0 -161.5 52.5t-57.5 139.5q0 65 36 115t104 103q-92 107 -92 187q0 62 45.5 104.5t124.5 42.5q72 0 112 -36.5t40 -94.5q0 -54 -30.5 -100t-102.5 -102q85 -90 245 -215q78 106 69 256h76q5 -174 -92 -297z
M292 55q114 0 198 77q-160 128 -250 224q-55 -44 -79.5 -82t-24.5 -82q0 -61 41.5 -99t114.5 -38zM355 595q0 36 -21.5 59t-64.5 23q-38 0 -62.5 -24t-24.5 -61q0 -64 73 -148q100 78 100 151z" />
    <glyph glyph-name="quotesingle" unicode="'" horiz-adv-x="192" 
d="M137 698l-14 -220h-54l-14 220h82z" />
    <glyph glyph-name="parenleft" unicode="(" horiz-adv-x="302" 
d="M278 -179l-55 -27q-83 131 -114 249t-31 241q0 264 146 495l52 -27q-126 -214 -126 -463q0 -256 128 -468z" />
    <glyph glyph-name="parenright" unicode=")" horiz-adv-x="302" 
d="M84 -206l-52 27q126 213 126 463q0 256 -127 467l55 28q83 -132 114 -250t31 -240q0 -262 -147 -495z" />
    <glyph glyph-name="asterisk" unicode="*" horiz-adv-x="369" 
d="M322 537l-29 -51l-93 65l10 -113h-58l10 113l-93 -65l-28 50l103 48l-103 48l29 49l92 -64l-9 113h57l-9 -113l93 64l28 -49l-103 -47z" />
    <glyph glyph-name="plus" unicode="+" 
d="M507 266h-197v-207h-71v207h-196v63h196v206h71v-206h197v-63z" />
    <glyph glyph-name="comma" unicode="," horiz-adv-x="217" 
d="M58 -147l-33 29q82 90 44 140q-19 24 -6 50.5t43 26.5q34 0 49 -32.5t-8 -92t-89 -121.5z" />
    <glyph glyph-name="hyphen" unicode="-" horiz-adv-x="328" 
d="M280 260h-232v62h232v-62z" />
    <glyph glyph-name="period" unicode="." horiz-adv-x="217" 
d="M163 46q0 -23 -16 -38.5t-39 -15.5q-22 0 -38 16t-16 38t16 38t38 16q23 0 39 -15.5t16 -38.5z" />
    <glyph glyph-name="slash" unicode="/" horiz-adv-x="428" 
d="M429 757l-350 -918h-71l350 918h71z" />
    <glyph glyph-name="zero" unicode="0" horiz-adv-x="584" 
d="M531 344q0 -174 -68.5 -263t-177.5 -89q-232 0 -232 339q0 174 68.5 263t177.5 89q232 0 232 -339zM451 335q0 286 -158 286q-73 0 -116.5 -68.5t-43.5 -213.5q0 -284 159 -284q72 0 115.5 68t43.5 212z" />
    <glyph glyph-name="one" unicode="1" horiz-adv-x="349" 
d="M251 0h-77v599l-132 -52l-13 70l160 58h62v-675z" />
    <glyph glyph-name="two" unicode="2" horiz-adv-x="502" 
d="M451 0h-386v61l136 158q82 95 112 154.5t30 119.5q0 55 -32 90t-94 35q-67 0 -134 -41l-12 68q80 39 165 39q89 0 139 -50.5t50 -129.5q0 -71 -37 -141.5t-130 -176.5l-101 -118l1 -1q75 4 293 4v-71z" />
    <glyph glyph-name="three" unicode="3" horiz-adv-x="495" 
d="M64 3l10 69q39 -14 103 -14q78 0 124.5 39.5t46.5 98.5t-49.5 93t-138.5 34q-30 0 -60 -3v61q222 -6 222 134q0 50 -31.5 78t-86.5 28q-61 0 -120 -31l-6 65q70 29 140 29q91 0 137 -43.5t46 -112.5q0 -58 -31 -101t-85 -63v-2q64 -13 103.5 -56t39.5 -106
q0 -90 -72.5 -149t-183.5 -59q-67 0 -108 11z" />
    <glyph glyph-name="four" unicode="4" horiz-adv-x="540" 
d="M519 161h-117v-161h-75v161h-305l-5 59l284 455h101v-445h117v-69zM328 230v373h-1l-235 -376q65 3 236 3z" />
    <glyph glyph-name="five" unicode="5" horiz-adv-x="464" 
d="M61 5l9 70q59 -18 119 -18q75 0 116.5 38.5t41.5 107.5q0 141 -186 141l-76 -4v335h301v-72h-230v-198q135 6 202.5 -46t67.5 -144q0 -100 -67 -162t-176 -62q-61 0 -122 14z" />
    <glyph glyph-name="six" unicode="6" horiz-adv-x="576" 
d="M463 681v-68q-32 5 -61 5q-203 0 -244 -228q-6 -35 -8 -45l1 -1q24 35 68.5 57.5t100.5 22.5q93 0 148 -55t55 -146q0 -100 -64 -166t-166 -66q-55 0 -96.5 20t-64.5 49.5t-37.5 71t-18.5 76.5t-4 73q0 202 93.5 302t243.5 100q32 0 54 -2zM445 211q0 68 -37 109t-105 41
q-65 0 -106 -41.5t-41 -99.5q0 -75 38.5 -120.5t105.5 -45.5q63 0 104 43t41 114z" />
    <glyph glyph-name="seven" unicode="7" horiz-adv-x="453" 
d="M423 675v-65q-61 -131 -118.5 -298.5t-89.5 -311.5h-85q38 154 98 324.5t111 279.5q-29 -2 -313 -2v73h397z" />
    <glyph glyph-name="eight" unicode="8" horiz-adv-x="549" 
d="M485 170q0 -83 -62.5 -131t-158.5 -48q-97 0 -150 46t-53 119q0 59 38 102.5t105 85.5q-67 38 -99.5 78t-32.5 93q0 77 57.5 123.5t152.5 46.5q86 0 137.5 -43t51.5 -112q0 -54 -35.5 -94.5t-100.5 -81.5q72 -40 111 -83.5t39 -100.5zM392 523q0 44 -30.5 72t-87.5 28
q-58 0 -91.5 -26.5t-33.5 -72.5q0 -41 31 -72t94 -66q64 40 91 70.5t27 66.5zM405 160q0 26 -11 48t-34 41.5t-42.5 32t-53.5 30.5q-60 -37 -91.5 -70t-31.5 -78q0 -51 35.5 -80.5t97.5 -29.5q56 0 93.5 28t37.5 78z" />
    <glyph glyph-name="nine" unicode="9" horiz-adv-x="582" 
d="M95 -3v71q40 -10 88 -10q100 0 158.5 54t78.5 167l9 50h-1q-22 -35 -66.5 -57.5t-100.5 -22.5q-93 0 -147.5 55.5t-54.5 147.5q0 98 64 165t165 67q56 0 97.5 -20t64.5 -49.5t37.5 -71t18.5 -76.5t4 -73q0 -202 -91.5 -302.5t-244.5 -100.5q-46 0 -79 6zM425 455
q0 76 -38.5 121t-105.5 45q-63 0 -103.5 -43t-40.5 -114q0 -68 37 -109.5t104 -41.5q65 0 106 42t41 100z" />
    <glyph glyph-name="colon" unicode=":" horiz-adv-x="282" 
d="M211 343q0 -23 -15.5 -39t-38.5 -16t-39 16t-16 39q0 22 16 38t39 16t38.5 -15.5t15.5 -38.5zM211 46q0 -22 -15.5 -38t-38.5 -16t-39 16t-16 38t16 38t39 16t38.5 -16t15.5 -38z" />
    <glyph glyph-name="semicolon" unicode=";" horiz-adv-x="282" 
d="M211 343q0 -23 -15.5 -39t-38.5 -16t-39 16t-16 39q0 22 16 38t39 16t38.5 -15.5t15.5 -38.5zM108 -147l-33 29q81 89 44 140q-19 24 -6 50.5t43 26.5q34 0 49 -32.5t-8 -92t-89 -121.5z" />
    <glyph glyph-name="less" unicode="&#x3c;" 
d="M438 76l-47 -52l-316 279l315 279l48 -48l-267 -230z" />
    <glyph glyph-name="equal" unicode="=" 
d="M493 347h-436v63h436v-63zM493 185h-436v62h436v-62z" />
    <glyph glyph-name="greater" unicode="&#x3e;" 
d="M475 304l-315 -280l-48 48l267 231l-267 228l47 51z" />
    <glyph glyph-name="question" unicode="?" horiz-adv-x="443" 
d="M227 160h-73q-16 48 -12 87.5t20 65t38.5 50.5t43.5 44.5t36 46.5t15 56q0 52 -56.5 88t-148.5 40l10 69q126 -4 202 -59t76 -130q0 -38 -15 -70.5t-36.5 -52.5t-45 -45t-40.5 -47.5t-22.5 -60t8.5 -82.5zM244 44q0 -22 -15.5 -37t-37.5 -15t-37.5 15t-15.5 37t15 37.5
t38 15.5t38 -15.5t15 -37.5z" />
    <glyph glyph-name="at" unicode="@" horiz-adv-x="1024" 
d="M680 -72l9 -58q-96 -28 -198 -28q-189 0 -297.5 106t-108.5 285q0 104 37.5 194.5t101 153t149 98.5t179.5 36q184 0 283.5 -101t99.5 -248q0 -135 -66 -216t-166 -81q-64 0 -94 38t-24 89h-2q-19 -51 -60.5 -89t-96.5 -38q-54 0 -85 39.5t-31 108.5q0 122 63.5 204.5
t178.5 82.5q32 0 67 -3.5t53 -6.5l19 -4l-43 -224q-13 -66 5 -100t61 -34q67 0 109.5 62t42.5 167q0 57 -18 108t-54.5 94t-100 68t-146.5 25q-165 0 -278.5 -117.5t-113.5 -295.5q0 -158 89.5 -249.5t254.5 -91.5q83 0 181 26zM594 375l11 61q-28 7 -68 7q-73 0 -112.5 -67
t-39.5 -145q0 -99 60 -99q45 0 86.5 64.5t62.5 178.5z" />
    <glyph glyph-name="A" unicode="A" horiz-adv-x="611" 
d="M598 0h-87l-59 167h-300l-59 -167h-80l248 675h90zM433 229l-100 277q-9 27 -30 93h-1q-23 -74 -29 -91l-101 -279h261z" />
    <glyph glyph-name="B" unicode="B" horiz-adv-x="566" 
d="M91 0v675q89 3 175 3q113 0 168 -43.5t55 -120.5q0 -54 -31.5 -96.5t-85.5 -61.5v-1q65 -11 103 -52t38 -106q0 -34 -13 -67t-41 -64t-81.5 -50t-124.5 -19q-29 0 -89.5 1.5t-72.5 1.5zM168 615v-237q20 -1 73 -1q83 0 125.5 32.5t42.5 92.5q0 116 -152 116q-5 0 -89 -3z
M168 318v-254q30 -5 92 -5q86 0 129 36.5t43 95.5q0 64 -46 96t-148 32q-54 0 -70 -1z" />
    <glyph glyph-name="C" unicode="C" horiz-adv-x="590" 
d="M529 95l15 -65q-87 -37 -190 -37q-151 0 -228 88.5t-77 240.5q0 162 81.5 261t246.5 99q80 0 158 -22l-13 -71q-82 28 -156 28q-118 0 -176.5 -79t-58.5 -203q0 -133 60 -204t179 -71q84 0 159 35z" />
    <glyph glyph-name="D" unicode="D" horiz-adv-x="683" 
d="M91 0v675q24 0 91 1.5t104 1.5q168 0 257.5 -82.5t89.5 -251.5t-103 -258t-275 -89q-37 0 -90 1.5t-74 1.5zM168 613v-546q47 -7 97 -7q133 0 210.5 70t77.5 209q0 277 -275 277q-29 0 -110 -3z" />
    <glyph glyph-name="E" unicode="E" horiz-adv-x="514" 
d="M442 0h-351v675h351v-62h-274v-234h252v-62h-252v-253h274v-64z" />
    <glyph glyph-name="F" unicode="F" horiz-adv-x="472" 
d="M434 612h-266v-237h248v-61h-248v-314h-77v675h343v-63z" />
    <glyph glyph-name="G" unicode="G" horiz-adv-x="685" 
d="M599 340v-311q-103 -38 -220 -38q-156 0 -244.5 88t-88.5 244q0 161 92.5 261t265.5 100q90 0 185 -29l-17 -70q-87 34 -177 34q-69 0 -122 -23t-84 -63.5t-46.5 -90.5t-15.5 -107q0 -133 70 -205.5t194 -72.5q69 0 131 20v263h77z" />
    <glyph glyph-name="H" unicode="H" horiz-adv-x="702" 
d="M611 0h-76v318h-367v-318h-77v675h77v-293h367v293h76v-675z" />
    <glyph glyph-name="I" unicode="I" horiz-adv-x="259" 
d="M168 0h-77v675h77v-675z" />
    <glyph glyph-name="J" unicode="J" horiz-adv-x="345" 
d="M254 675v-503q0 -179 -173 -179q-40 0 -80 8v69q33 -12 81 -12q47 0 71.5 26t24.5 93v498h76z" />
    <glyph glyph-name="K" unicode="K" horiz-adv-x="579" 
d="M561 0h-106l-287 339v-339h-77v675h77v-323l288 323h93l-299 -325z" />
    <glyph glyph-name="L" unicode="L" horiz-adv-x="425" 
d="M418 0h-327v675h77v-611h250v-64z" />
    <glyph glyph-name="M" unicode="M" horiz-adv-x="893" 
d="M839 0h-79l-58 419q-17 126 -20 186h-2q-12 -48 -38 -126l-169 -479h-70l-159 453q-36 104 -48 152h-1q-4 -71 -17 -191l-48 -414h-77l89 675h105l162 -457q23 -65 33 -114h1q13 65 32 114l161 457h110z" />
    <glyph glyph-name="N" unicode="N" horiz-adv-x="694" 
d="M603 0h-85l-285 459q-45 74 -74 134q7 -180 7 -401v-192h-75v675h102l281 -450q34 -56 61 -114q-7 157 -7 391v173h75v-675z" />
    <glyph glyph-name="O" unicode="O" horiz-adv-x="708" 
d="M662 346q0 -166 -90.5 -260.5t-226.5 -94.5q-143 0 -221 91t-78 247q0 166 90.5 260.5t226.5 94.5q143 0 221 -91t78 -247zM582 333q0 131 -58.5 208t-169.5 77q-99 0 -163.5 -72.5t-64.5 -202.5q0 -131 59 -208.5t169 -77.5q99 0 163.5 73t64.5 203z" />
    <glyph glyph-name="P" unicode="P" horiz-adv-x="549" 
d="M168 0h-77v675q96 3 170 3q125 0 188.5 -58.5t63.5 -148.5q0 -103 -73 -168.5t-194 -65.5l-78 3v-240zM168 614v-309q43 -6 85 -6q88 0 134.5 45t46.5 115q0 72 -46 114.5t-138 42.5z" />
    <glyph glyph-name="Q" unicode="Q" horiz-adv-x="708" 
d="M707 0v-67q-57 -7 -103 0.5t-73.5 20.5t-70 25t-90.5 12h-25q-143 0 -221 91t-78 247q0 166 90.5 260.5t226.5 94.5q143 0 221 -91t78 -247q0 -113 -45 -196.5t-125 -116.5q21 0 85.5 -20t129.5 -13zM582 333q0 131 -58.5 208t-169.5 77q-99 0 -163.5 -72.5t-64.5 -202.5
q0 -131 59 -208.5t169 -77.5q99 0 163.5 73t64.5 203z" />
    <glyph glyph-name="R" unicode="R" horiz-adv-x="564" 
d="M536 0h-96l-218 300h-54v-300h-77v674q87 4 167 4q107 0 169.5 -44t62.5 -135q0 -85 -52.5 -133.5t-134.5 -58.5q30 -34 57 -71zM168 614v-255q41 -1 78 -1q79 0 121.5 34.5t42.5 96.5t-41.5 95t-118.5 33z" />
    <glyph glyph-name="S" unicode="S" horiz-adv-x="504" 
d="M405 671l-9 -69q-59 18 -118 18q-71 0 -108 -29t-37 -81q0 -32 17.5 -56t45.5 -39.5t61.5 -29.5t67.5 -30t62 -36.5t45.5 -54t17.5 -77.5q0 -87 -64 -141.5t-179 -54.5q-79 0 -149 20l11 73q68 -26 143 -26q158 0 158 121q0 33 -17.5 57.5t-45 40t-61 29.5t-67.5 30
t-61.5 36.5t-45 53.5t-17.5 77q0 81 61 131t168 50q61 0 121 -13z" />
    <glyph glyph-name="T" unicode="T" horiz-adv-x="519" 
d="M500 611h-203v-611h-76v611h-202v64h481v-64z" />
    <glyph glyph-name="U" unicode="U" horiz-adv-x="697" 
d="M606 675v-419q0 -130 -67.5 -197.5t-198.5 -67.5q-75 0 -126.5 19.5t-77 54.5t-35.5 73t-10 86v451h77v-444q0 -83 38.5 -130t139.5 -47q95 0 140 45t45 151v425h75z" />
    <glyph glyph-name="V" unicode="V" horiz-adv-x="613" 
d="M598 675l-248 -675h-90l-246 675h86l161 -452q27 -82 46 -146h1q18 65 49 150l161 448h80z" />
    <glyph glyph-name="W" unicode="W" horiz-adv-x="954" 
d="M916 675l-183 -675h-97l-138 474q-13 51 -22 96h-1q-10 -59 -20 -96l-135 -474h-97l-185 675h82l127 -465q19 -80 29 -136h1q14 78 29 131l134 470h77l140 -478q17 -60 30 -123h1q9 54 22 111l131 490h75z" />
    <glyph glyph-name="X" unicode="X" horiz-adv-x="587" 
d="M567 0h-95l-183 291l-181 -291h-88l224 349l-210 326h88l169 -267l166 267h86l-206 -322z" />
    <glyph glyph-name="Y" unicode="Y" horiz-adv-x="527" 
d="M523 675l-222 -411v-264h-76v264l-221 411h85l123 -232q28 -55 53 -112h1q25 58 55 114l121 230h81z" />
    <glyph glyph-name="Z" unicode="Z" horiz-adv-x="540" 
d="M495 0h-449v56l299 465l60 88q-72 -2 -158 -2h-190v68h435v-57l-315 -486q-8 -13 -23.5 -35.5t-19.5 -29.5q22 3 177 3h184v-70z" />
    <glyph glyph-name="bracketleft" unicode="[" horiz-adv-x="319" 
d="M281 -196h-189v965h189v-57h-120v-850h120v-58z" />
    <glyph glyph-name="backslash" unicode="\" horiz-adv-x="427" 
d="M434 -161h-71l-350 918h71z" />
    <glyph glyph-name="bracketright" unicode="]" horiz-adv-x="319" 
d="M228 -196h-189v58h119v850h-119v57h189v-965z" />
    <glyph glyph-name="asciicircum" unicode="^" 
d="M469 375l-57 -30l-149 272l-143 -272l-52 28l166 302h62z" />
    <glyph glyph-name="underscore" unicode="_" 
d="M550 -250h-550v59h550v-59z" />
    <glyph glyph-name="grave" unicode="`" horiz-adv-x="350" 
d="M260 609l-38 -36l-132 128l49 46z" />
    <glyph glyph-name="a" unicode="a" horiz-adv-x="520" 
d="M430 0h-74q0 76 5 105h-2q-19 -49 -65.5 -81.5t-107.5 -32.5q-60 0 -98 36t-38 96q0 78 79 123.5t224 45.5v30q0 64 -25.5 94t-86.5 30q-71 0 -151 -35l-14 59q89 36 174 36q95 0 136.5 -45t41.5 -129v-183q0 -105 2 -149zM353 222v15q-228 0 -228 -103q0 -36 22.5 -59
t59.5 -23q63 0 104.5 52.5t41.5 117.5z" />
    <glyph glyph-name="b" unicode="b" horiz-adv-x="558" 
d="M166 730v-252q0 -54 -9 -91l2 -1q21 56 66 88t104 32q88 0 135.5 -60t47.5 -175q0 -131 -69 -204t-187 -73q-40 0 -81 4.5t-63 9.5l-21 5v717h75zM166 240v-173q43 -14 97 -14q170 0 170 212q0 179 -119 179q-69 0 -108.5 -64.5t-39.5 -139.5z" />
    <glyph glyph-name="c" unicode="c" horiz-adv-x="440" 
d="M397 83l14 -62q-67 -28 -152 -28q-215 0 -215 238q0 125 61.5 199t175.5 74q72 0 127 -22l-15 -64q-61 24 -121 24q-70 0 -109.5 -54.5t-39.5 -143.5q0 -187 151 -187q68 0 123 26z" />
    <glyph glyph-name="d" unicode="d" horiz-adv-x="558" 
d="M467 0h-74q0 69 9 108l-2 1q-21 -54 -66.5 -86t-104.5 -32q-90 0 -136.5 62t-46.5 173q0 131 68.5 204t185.5 73q35 0 92 -5v232h75v-730zM392 257v175q-50 12 -97 12q-170 0 -170 -212q0 -179 119 -179q69 0 108.5 64.5t39.5 139.5z" />
    <glyph glyph-name="e" unicode="e" horiz-adv-x="505" 
d="M430 80l11 -59q-88 -30 -167 -30q-230 0 -230 255q0 114 59 187t160 73q97 0 145 -57t48 -146l-2 -53h-332q-1 -101 39 -149t123 -48q71 0 146 27zM124 305h255q1 68 -31 105.5t-90 37.5q-53 0 -89.5 -37.5t-44.5 -105.5z" />
    <glyph glyph-name="f" unicode="f" horiz-adv-x="348" 
d="M337 497v-59h-147v-438h-75v438h-108v59h108v32q0 104 49.5 155t139.5 51q18 0 38 -2t32 -4l11 -2l-7 -64q-39 11 -78 11q-57 0 -83.5 -34t-26.5 -107v-36h147z" />
    <glyph glyph-name="g" unicode="g" horiz-adv-x="531" 
d="M495 438h-81q35 -43 35 -101q0 -80 -52.5 -132t-146.5 -52q-32 0 -59 6q-32 -20 -32 -45q0 -37 80 -40l83 -3q90 -3 135 -41t45 -104q0 -82 -69.5 -132.5t-184.5 -50.5q-98 0 -153.5 38.5t-55.5 108.5q0 82 87 139q-44 23 -44 70t53 83q-73 47 -73 140q0 80 52.5 132
t146.5 52q35 0 67 -9h167v-59zM216 9q-10 0 -26 2q-73 -46 -73 -108q0 -49 38.5 -75t104.5 -26q80 0 123 31.5t43 82.5q0 86 -124 90zM375 329q0 53 -32 86t-88 33q-55 0 -87 -33t-32 -86t32 -86t87 -33q56 0 88 33t32 86z" />
    <glyph glyph-name="h" unicode="h" horiz-adv-x="577" 
d="M486 0h-75v321q0 62 -20.5 92.5t-72.5 30.5q-66 0 -109 -58.5t-43 -147.5v-238h-75v730h75v-244q0 -66 -8 -99l2 -1q22 56 68 88t109 32q149 0 149 -160v-346z" />
    <glyph glyph-name="i" unicode="i" horiz-adv-x="257" 
d="M181 657q0 -21 -15.5 -36t-36.5 -15q-22 0 -37 14.5t-15 36.5q0 21 15 36t37 15q21 0 36.5 -15t15.5 -36zM166 0h-75v497h75v-497z" />
    <glyph glyph-name="j" unicode="j" horiz-adv-x="265" 
d="M188 657q0 -21 -15 -36t-37 -15q-21 0 -36 14.5t-15 36.5q0 21 15 36t36 15q22 0 37 -14.5t15 -36.5zM173 497v-560q0 -101 -36 -147t-120 -46q-18 0 -36.5 2t-28.5 4l-9 2l7 66q32 -11 72 -11q43 0 60 26.5t17 98.5v565h74z" />
    <glyph glyph-name="k" unicode="k" horiz-adv-x="482" 
d="M459 0h-97l-196 261v-261h-75v730h75v-456l187 223h87l-195 -224z" />
    <glyph glyph-name="l" unicode="l" horiz-adv-x="257" 
d="M166 0h-75v730h75v-730z" />
    <glyph glyph-name="m" unicode="m" horiz-adv-x="884" 
d="M793 0h-75v320q0 61 -19.5 92.5t-70.5 31.5q-60 0 -104.5 -57.5t-44.5 -150.5v-236h-74v321q0 59 -19 91t-71 32q-62 0 -105.5 -59t-43.5 -149v-236h-75v497h74q0 -70 -8 -111l2 -1q21 56 67.5 88.5t107.5 32.5q32 0 57.5 -9t40 -22t24 -30t13 -31t4.5 -27q17 45 61 82
t112 37q147 0 147 -162v-344z" />
    <glyph glyph-name="n" unicode="n" horiz-adv-x="577" 
d="M486 0h-75v321q0 62 -20.5 92.5t-72.5 30.5q-66 0 -109 -58.5t-43 -147.5v-238h-75v497h74q0 -63 -8 -111l2 -1q22 56 68 88.5t110 32.5q149 0 149 -160v-346z" />
    <glyph glyph-name="o" unicode="o" horiz-adv-x="542" 
d="M499 254q0 -114 -62 -188.5t-174 -74.5q-103 0 -161.5 63.5t-58.5 188.5q0 114 62.5 188.5t174.5 74.5q102 0 160.5 -63.5t58.5 -188.5zM422 249q0 92 -40 143.5t-110 51.5t-110.5 -50.5t-40.5 -145.5q0 -92 39.5 -143t109.5 -51q68 0 110 48.5t42 146.5z" />
    <glyph glyph-name="p" unicode="p" horiz-adv-x="558" 
d="M166 -249h-75v746h74q0 -69 -8 -108l2 -1q21 55 66 86.5t104 31.5q88 0 135.5 -60t47.5 -175q0 -132 -67.5 -204.5t-186.5 -72.5q-53 0 -92 7v-250zM166 240v-174q42 -13 97 -13q170 0 170 212q0 179 -119 179q-69 0 -108.5 -64.5t-39.5 -139.5z" />
    <glyph glyph-name="q" unicode="q" horiz-adv-x="558" 
d="M467 -249h-75v271q0 51 7 86l-2 1q-20 -54 -65 -86t-102 -32q-89 0 -136.5 59.5t-47.5 174.5q0 132 69 205.5t190 73.5q84 0 162 -14v-739zM392 258v175q-50 12 -97 12q-80 0 -125 -52t-45 -161q0 -179 119 -179q47 0 82 33.5t50.5 79t15.5 92.5z" />
    <glyph glyph-name="r" unicode="r" horiz-adv-x="354" 
d="M331 505l-3 -74q-81 14 -121.5 -45.5t-40.5 -186.5v-199h-75v497h74q0 -61 -12 -125l2 -1q17 63 60.5 102.5t115.5 31.5z" />
    <glyph glyph-name="s" unicode="s" horiz-adv-x="428" 
d="M343 496l-7 -64q-50 15 -100 15q-52 0 -79 -20t-27 -55q0 -32 25 -52t61 -31t72.5 -25t61.5 -45t25 -79q0 -64 -53 -106.5t-147 -42.5q-63 0 -119 14l7 69q56 -21 120 -21q55 0 85 21.5t30 59.5q0 32 -25 52t-61 31t-72 25t-61 44.5t-25 79.5q0 61 50 100.5t140 39.5
q47 0 99 -10z" />
    <glyph glyph-name="t" unicode="t" horiz-adv-x="370" 
d="M330 65l6 -62q-50 -11 -94 -11q-72 0 -100.5 34t-28.5 114v298h-106v59h106v165l75 21v-186h145v-59h-145v-277q0 -61 15 -82.5t58 -21.5q37 0 69 8z" />
    <glyph glyph-name="u" unicode="u" horiz-adv-x="577" 
d="M486 0h-74q0 63 8 111l-2 1q-22 -56 -68 -88.5t-110 -32.5q-149 0 -149 160v346h75v-321q0 -62 20.5 -92.5t72.5 -30.5q66 0 109 58.5t43 147.5v238h75v-497z" />
    <glyph glyph-name="v" unicode="v" horiz-adv-x="478" 
d="M467 497l-188 -497h-84l-184 497h84l116 -329q21 -65 28 -92h1q10 37 27 89l119 332h81z" />
    <glyph glyph-name="w" unicode="w" horiz-adv-x="792" 
d="M773 497l-162 -497h-87l-109 323q-16 50 -28 96h-1q-6 -27 -35 -127l-91 -292h-88l-153 497h84l86 -301q5 -19 16.5 -61t15.5 -59h1q12 52 33 121l95 300h86l97 -300q25 -77 35 -122h2q3 14 33 121l90 301h80z" />
    <glyph glyph-name="x" unicode="x" horiz-adv-x="515" 
d="M490 0h-99l-137 200l-137 -200h-93l188 249l-178 248h93l133 -196l136 196h86l-178 -245z" />
    <glyph glyph-name="y" unicode="y" horiz-adv-x="471" 
d="M461 497l-204 -544q-43 -116 -95 -163t-136 -47l-52 6l8 65q29 -7 58 -7q45 0 77 29.5t61 105.5l23 58l-190 497h86l104 -286q22 -61 39 -121h1q13 47 49 152l89 255h82z" />
    <glyph glyph-name="z" unicode="z" horiz-adv-x="446" 
d="M393 0h-344v53l253 379q-64 -2 -141 -2h-107v67h334v-52l-251 -378q60 2 144 2h112v-69z" />
    <glyph glyph-name="braceleft" unicode="{" horiz-adv-x="333" 
d="M300 -196h-17q-78 0 -111.5 45t-33.5 139v191q0 57 -23.5 81t-84.5 28v60q63 4 85.5 26t22.5 82v130q0 183 145 183h17v-57q-53 0 -73 -26.5t-20 -96.5v-128q0 -124 -93 -142v-1q93 -15 93 -144v-189q0 -70 20 -96.5t73 -26.5v-58z" />
    <glyph glyph-name="bar" unicode="|" horiz-adv-x="284" 
d="M171 -249h-59v1000h59v-1000z" />
    <glyph glyph-name="braceright" unicode="}" horiz-adv-x="329" 
d="M39 -196v58q53 0 73.5 26.5t20.5 96.5v189q0 129 93 144v1q-93 13 -93 137v133q0 70 -20.5 96.5t-73.5 26.5v57h17q146 0 146 -183v-125q0 -63 22.5 -86t85.5 -27v-60q-61 -4 -84.5 -28t-23.5 -81v-191q0 -93 -34 -138.5t-112 -45.5h-17z" />
    <glyph glyph-name="asciitilde" unicode="~" 
d="M437 571h56v-7q0 -63 -34.5 -102.5t-92.5 -39.5q-30 0 -53.5 11.5t-38 28t-27 33.5t-29.5 28.5t-37 11.5q-64 0 -66 -92h-56v6q0 64 34.5 103t92.5 39q30 0 53.5 -11.5t38 -28.5t27 -33.5t29.5 -28t37 -11.5q64 0 66 93z" />
    <glyph glyph-name="uni00A0" unicode="&#xa0;" horiz-adv-x="218" 
 />
    <glyph glyph-name="exclamdown" unicode="&#xa1;" horiz-adv-x="319" 
d="M203 453q0 -23 -15.5 -38t-37.5 -15t-37.5 15t-15.5 38q0 22 15.5 37t37.5 15t37.5 -15t15.5 -37zM195 -204h-90l14 541h62z" />
    <glyph glyph-name="cent" unicode="&#xa2;" horiz-adv-x="456" 
d="M301 -25h-60v134q-94 8 -145.5 68.5t-51.5 166.5q0 97 53 162.5t144 77.5v114h60v-110q59 -2 110 -22l-6 -66q-52 26 -118 26q-77 0 -121 -47t-44 -131q0 -79 39 -127.5t125 -48.5q68 0 122 32l6 -67q-56 -24 -113 -28v-134z" />
    <glyph glyph-name="sterling" unicode="&#xa3;" horiz-adv-x="469" 
d="M438 0h-395v53q59 46 81.5 89t22.5 104q0 35 -6 83h-111v59h103q-13 89 -13 120q0 84 48 129.5t136 45.5q59 0 102 -13l-13 -65q-45 17 -93 17q-49 0 -76.5 -27.5t-27.5 -78.5q0 -45 12 -128h158v-59h-150q5 -37 5 -75q0 -65 -19 -107t-71 -86q39 6 100 6h207v-67z" />
    <glyph glyph-name="currency" unicode="&#xa4;" 
d="M496 106l-54 -41l-81 110q-41 -27 -94 -27q-43 0 -73 15l-73 -98l-54 40l74 92q-41 47 -41 133q0 77 46 126l-79 98l53 40l76 -103q36 20 85 20q52 0 86 -19l77 102l52 -41l-80 -99q34 -44 34 -119t-41 -122zM382 334q0 55 -26.5 87.5t-83.5 32.5q-45 0 -74.5 -33.5
t-29.5 -88.5q0 -127 109 -127q43 0 74 35.5t31 93.5z" />
    <glyph glyph-name="yen" unicode="&#xa5;" horiz-adv-x="588" 
d="M500 103h-168v-103h-76v103h-169v54h169v74h-169v53h150l-193 391h84l114 -238q24 -47 52 -123h2q20 58 59 134l112 227h81l-198 -391h150v-53h-168v-74h168v-54z" />
    <glyph glyph-name="brokenbar" unicode="&#xa6;" horiz-adv-x="284" 
d="M171 383h-59v368h59v-368zM171 -249h-59v378h59v-378z" />
    <glyph glyph-name="section" unicode="&#xa7;" horiz-adv-x="516" 
d="M424 230q0 -82 -79 -140q39 -53 39 -104q0 -63 -46 -106.5t-129 -43.5q-35 0 -77 11l7 64q43 -13 74 -13q43 0 68 23t25 60q0 31 -23.5 64.5t-57 65.5t-67 66.5t-57 78t-23.5 88.5q0 81 79 141q-40 53 -40 104q0 64 43 105t125 41q38 0 73 -8l-7 -64q-34 11 -68 11
q-43 0 -65 -21t-22 -58q0 -30 23.5 -64t57 -66.5t67 -67t57 -78.5t23.5 -89zM352 220q0 29 -16.5 60.5t-32.5 50t-54.5 57.5t-51.5 53q-47 -33 -47 -87q0 -23 7.5 -44.5t27 -46.5t33 -40t44.5 -45.5t43 -43.5q47 33 47 86z" />
    <glyph glyph-name="dieresis" unicode="&#xa8;" horiz-adv-x="463" 
d="M373 657q0 -20 -13.5 -34t-33.5 -14t-34 14t-14 34t14 33.5t34 13.5t33.5 -14t13.5 -33zM185 657q0 -20 -13.5 -34t-33.5 -14t-34 14t-14 34t14 33.5t34 13.5t33.5 -14t13.5 -33z" />
    <glyph glyph-name="copyright" unicode="&#xa9;" horiz-adv-x="753" 
d="M708 336q0 -138 -97.5 -235.5t-235.5 -97.5q-142 0 -238 96t-96 235t97.5 236t236.5 97t236 -96t97 -235zM647 334q0 113 -79.5 194t-192.5 81t-192.5 -79.5t-79.5 -193.5t79.5 -194.5t192.5 -80.5t192.5 80t79.5 193zM466 228l7 -53q-45 -17 -98 -17q-81 0 -119 46.5
t-38 125.5t42 131t132 52q39 0 77 -12l-6 -56q-34 16 -75 16q-103 0 -103 -128q0 -120 99 -120q44 0 82 15z" />
    <glyph glyph-name="ordfeminine" unicode="&#xaa;" horiz-adv-x="383" 
d="M312 351h-66q0 27 6 54h-1q-13 -28 -40.5 -44.5t-61.5 -16.5q-47 0 -72 23.5t-25 61.5q0 54 50 85t145 31v19q0 65 -69 65q-52 0 -102 -25l-5 57q53 21 117 21q66 0 94.5 -31t28.5 -79v-134zM339 225h-279v60h279v-60zM247 491v9q-72 0 -101.5 -15.5t-29.5 -46.5
q0 -20 12 -31t34 -11q41 0 63 33t22 62z" />
    <glyph glyph-name="guillemotleft" unicode="&#xab;" horiz-adv-x="499" 
d="M421 153l-56 -32l-124 172l125 175l55 -31l-103 -143zM231 152l-57 -32l-115 173l116 177l55 -31l-95 -145z" />
    <glyph glyph-name="logicalnot" unicode="&#xac;" 
d="M479 106h-65v160h-371v63h436v-223z" />
    <glyph glyph-name="uni00AD" unicode="&#xad;" horiz-adv-x="328" 
d="M280 260h-232v62h232v-62z" />
    <glyph glyph-name="registered" unicode="&#xae;" horiz-adv-x="562" 
d="M495 528q0 -88 -63.5 -151t-150.5 -63q-91 0 -153 62t-62 152q0 89 63 151.5t152 62.5q90 0 152 -61.5t62 -152.5zM442 526q0 68 -47.5 117t-113.5 49q-67 0 -114.5 -47.5t-47.5 -114.5q0 -68 47.5 -117t114.5 -49t114 47.5t47 114.5zM371 414h-55l-59 99h-3v-99h-44v230
h74q77 0 77 -59q0 -58 -57 -66q7 -9 21 -31zM254 610v-68h15q23 0 34.5 11t11.5 26q0 31 -38 31h-23z" />
    <glyph glyph-name="macron" unicode="&#xaf;" horiz-adv-x="425" 
d="M335 623h-245v57h245v-57z" />
    <glyph glyph-name="macron" unicode="&#x2c9;" horiz-adv-x="425" 
d="M335 623h-245v57h245v-57z" />
    <glyph glyph-name="degree" unicode="&#xb0;" horiz-adv-x="371" 
d="M311 614q0 -55 -39.5 -89t-91.5 -34q-56 0 -89 32.5t-33 88.5q0 55 38.5 89.5t89.5 34.5q61 0 93 -35t32 -87zM250 613q0 29 -15.5 50.5t-50.5 21.5q-28 0 -46.5 -20t-18.5 -52q0 -33 17.5 -52t46.5 -19t48 20t19 51z" />
    <glyph glyph-name="plusminus" unicode="&#xb1;" 
d="M507 331h-197v-201h-70v201h-197v63h197v200h70v-200h197v-63zM506 0h-462v63h462v-63z" />
    <glyph glyph-name="twosuperior" unicode="&#xb2;" horiz-adv-x="351" 
d="M312 367h-271v52l101 101q78 78 78 134q0 35 -19 55.5t-57 20.5q-45 0 -87 -24l-12 53q54 27 115 27q63 0 98.5 -32.5t35.5 -87.5q0 -80 -85 -165l-77 -76q47 2 180 2v-60z" />
    <glyph glyph-name="threesuperior" unicode="&#xb3;" horiz-adv-x="341" 
d="M39 368l8 57q36 -12 79 -12q44 0 68.5 19.5t24.5 52.5q0 38 -38.5 56.5t-113.5 9.5v52q69 0 103.5 17t34.5 57q0 27 -18.5 41.5t-51.5 14.5q-44 0 -81 -17l-9 52q51 18 104 18q59 0 93 -26t34 -75q0 -73 -70 -97q40 -7 63 -34.5t23 -62.5q0 -59 -48 -95.5t-123 -36.5
q-37 0 -82 9z" />
    <glyph glyph-name="acute" unicode="&#xb4;" horiz-adv-x="350" 
d="M260 701l-132 -128l-38 36l121 138z" />
    <glyph glyph-name="mu1" unicode="&#xb5;" horiz-adv-x="588" 
d="M548 56v-61q-26 -2 -33 -2q-102 0 -93 117l-1 1q-22 -55 -66 -87t-105 -32q-66 0 -91 39l9 -280h-77v746h75v-330q0 -114 93 -114q67 0 109.5 58t42.5 149v237h75v-328q0 -71 12 -92t50 -21z" />
    <glyph glyph-name="paragraph" unicode="&#xb6;" horiz-adv-x="569" 
d="M504 618h-72v-714h-145v57h75v714h142v-57zM287 675v-421q-105 -1 -161 59.5t-56 153.5q0 90 60.5 149t156.5 59z" />
    <glyph glyph-name="periodcentered" unicode="&#xb7;" horiz-adv-x="220" 
d="M167 297q0 -24 -16.5 -40.5t-40.5 -16.5t-40.5 16.5t-16.5 40.5t16.5 40.5t40.5 16.5t40.5 -16.5t16.5 -40.5z" />
    <glyph glyph-name="cedilla" unicode="&#xb8;" horiz-adv-x="296" 
d="M109 -69l67 28q67 -88 -23 -194h-63q28 35 39.5 60.5t7 51.5t-27.5 54z" />
    <glyph glyph-name="onesuperior" unicode="&#xb9;" horiz-adv-x="268" 
d="M192 367h-71v346l-92 -35l-12 59l117 42h58v-412z" />
    <glyph glyph-name="ordmasculine" unicode="&#xba;" horiz-adv-x="417" 
d="M363 518q0 -76 -42 -124.5t-119 -48.5q-70 0 -109.5 41.5t-39.5 123.5q0 75 42.5 124t118.5 49q70 0 109.5 -41.5t39.5 -123.5zM349 225h-281v60h281v-60zM294 514q0 54 -22.5 83.5t-62.5 29.5t-63.5 -29.5t-23.5 -83.5t23 -83.5t63 -29.5t63 29t23 84z" />
    <glyph glyph-name="guillemotright" unicode="&#xbb;" horiz-adv-x="499" 
d="M440 296l-117 -176l-55 31l96 144l-95 143l57 32zM258 296l-126 -175l-54 31l103 143l-102 141l56 32z" />
    <glyph glyph-name="onequarter" unicode="&#xbc;" horiz-adv-x="810" 
d="M192 367h-71v346l-92 -35l-12 59l117 42h58v-412zM726 767l-634 -904l-51 35l635 904zM769 -9h-68v-94h-67v94h-194l-5 47l168 271h98v-261h68v-57zM634 48v210l-131 -212q35 2 131 2z" />
    <glyph glyph-name="onehalf" unicode="&#xbd;" horiz-adv-x="838" 
d="M192 367h-71v346l-92 -35l-12 59l117 42h58v-412zM726 767l-634 -904l-51 35l635 904zM786 -103h-271v52l101 101q78 78 78 134q0 35 -19 55.5t-57 20.5q-45 0 -87 -24l-12 53q54 27 115 27q63 0 98.5 -32.5t35.5 -87.5q0 -80 -85 -165l-77 -76q47 2 180 2v-60z" />
    <glyph glyph-name="threequarters" unicode="&#xbe;" horiz-adv-x="831" 
d="M747 767l-634 -904l-51 35l635 904zM39 368l8 57q36 -12 79 -12q44 0 68.5 19.5t24.5 52.5q0 38 -38.5 56.5t-113.5 9.5v52q69 0 103.5 17t34.5 57q0 27 -18.5 41.5t-51.5 14.5q-44 0 -81 -17l-9 52q51 18 104 18q59 0 93 -26t34 -75q0 -73 -70 -97q40 -7 63 -34.5
t23 -62.5q0 -59 -48 -95.5t-123 -36.5q-37 0 -82 9zM791 -9h-68v-94h-67v94h-194l-5 47l168 271h98v-261h68v-57zM656 48v210l-131 -212q35 2 131 2z" />
    <glyph glyph-name="questiondown" unicode="&#xbf;" horiz-adv-x="443" 
d="M306 453q0 -22 -15.5 -37.5t-38.5 -15.5q-22 0 -37.5 15t-15.5 38q0 22 15.5 37t37.5 15q23 0 38.5 -15t15.5 -37zM353 -141l-10 -69q-125 4 -201.5 59t-76.5 130q0 38 15 70.5t36.5 52.5t45 45t40.5 47.5t22.5 60t-8.5 82.5h74q16 -48 11.5 -87.5t-20.5 -65t-38.5 -50.5
t-43.5 -44.5t-36 -46.5t-15 -56q0 -52 56.5 -88t148.5 -40z" />
    <glyph glyph-name="Agrave" unicode="&#xc0;" horiz-adv-x="611" 
d="M598 0h-87l-59 167h-300l-59 -167h-80l248 675h90zM433 229l-100 277q-9 27 -30 93h-1q-23 -74 -29 -91l-101 -279h261zM363 773l-16 -44l-180 57l24 61z" />
    <glyph glyph-name="Aacute" unicode="&#xc1;" horiz-adv-x="611" 
d="M598 0h-87l-59 167h-300l-59 -167h-80l248 675h90zM433 229l-100 277q-9 27 -30 93h-1q-23 -74 -29 -91l-101 -279h261zM436 786l-180 -57l-16 44l172 74z" />
    <glyph glyph-name="Acircumflex" unicode="&#xc2;" horiz-adv-x="611" 
d="M598 0h-87l-59 167h-300l-59 -167h-80l248 675h90zM433 229l-100 277q-9 27 -30 93h-1q-23 -74 -29 -91l-101 -279h261zM461 773l-23 -46l-133 62l-134 -62l-22 45l157 82z" />
    <glyph glyph-name="Atilde" unicode="&#xc3;" horiz-adv-x="611" 
d="M598 0h-87l-59 167h-300l-59 -167h-80l248 675h90zM433 229l-100 277q-9 27 -30 93h-1q-23 -74 -29 -91l-101 -279h261zM440 837l40 -29q-40 -70 -107 -70q-36 0 -75 27t-59 27q-36 0 -64 -46l-40 29q39 70 107 70q36 0 75 -27t59 -27q35 0 64 46z" />
    <glyph glyph-name="Adieresis" unicode="&#xc4;" horiz-adv-x="611" 
d="M598 0h-87l-59 167h-300l-59 -167h-80l248 675h90zM433 229l-100 277q-9 27 -30 93h-1q-23 -74 -29 -91l-101 -279h261zM458 779q0 -19 -14 -33t-33 -14q-20 0 -34 13.5t-14 33.5t14 34t34 14t33.5 -14t13.5 -34zM245 779q0 -19 -13.5 -33t-33.5 -14t-34 13.5t-14 33.5
t14 34t34 14t33.5 -14t13.5 -34z" />
    <glyph glyph-name="Aring" unicode="&#xc5;" horiz-adv-x="611" 
d="M598 0h-87l-59 167h-300l-59 -167h-80l248 675h90zM433 229l-100 277q-9 27 -30 93h-1q-23 -74 -29 -91l-101 -279h261zM420 818q0 -45 -31.5 -75.5t-83.5 -30.5q-50 0 -78 25.5t-28 75.5q0 45 31.5 75t83.5 30q50 0 78 -25.5t28 -74.5zM361 815q0 58 -52 58
q-22 0 -37 -14.5t-15 -42.5q0 -58 52 -58q22 0 37 14.5t15 42.5z" />
    <glyph glyph-name="AE" unicode="&#xc6;" horiz-adv-x="779" 
d="M707 0h-341v169h-239l-91 -169h-80l368 675h378v-62h-261v-234h243v-62h-243v-253h266v-64zM366 230v383h-6q-30 -66 -69 -137l-135 -246h210z" />
    <glyph glyph-name="Ccedilla" unicode="&#xc7;" horiz-adv-x="590" 
d="M529 95l15 -65q-87 -37 -190 -37q-151 0 -228 88.5t-77 240.5q0 162 81.5 261t246.5 99q80 0 158 -22l-13 -71q-82 28 -156 28q-118 0 -176.5 -79t-58.5 -203q0 -133 60 -204t179 -71q84 0 159 35zM290 -69l67 28q67 -88 -23 -194h-63q28 35 39.5 60.5t7 51.5t-27.5 54z
" />
    <glyph glyph-name="Egrave" unicode="&#xc8;" horiz-adv-x="514" 
d="M442 0h-351v675h351v-62h-274v-234h252v-62h-252v-253h274v-64zM321 773l-16 -44l-180 57l24 61z" />
    <glyph glyph-name="Eacute" unicode="&#xc9;" horiz-adv-x="514" 
d="M442 0h-351v675h351v-62h-274v-234h252v-62h-252v-253h274v-64zM393 786l-180 -57l-16 44l172 74z" />
    <glyph glyph-name="Ecircumflex" unicode="&#xca;" horiz-adv-x="514" 
d="M442 0h-351v675h351v-62h-274v-234h252v-62h-252v-253h274v-64zM419 773l-23 -46l-133 62l-134 -62l-22 45l157 82z" />
    <glyph glyph-name="Edieresis" unicode="&#xcb;" horiz-adv-x="514" 
d="M442 0h-351v675h351v-62h-274v-234h252v-62h-252v-253h274v-64zM410 779q0 -19 -14 -33t-33 -14q-20 0 -34 13.5t-14 33.5t14 34t34 14t33.5 -14t13.5 -34zM197 779q0 -19 -13.5 -33t-33.5 -14t-34 13.5t-14 33.5t14 34t34 14t33.5 -14t13.5 -34z" />
    <glyph glyph-name="Igrave" unicode="&#xcc;" horiz-adv-x="259" 
d="M168 0h-77v675h77v-675zM186 773l-16 -44l-180 57l24 61z" />
    <glyph glyph-name="Iacute" unicode="&#xcd;" horiz-adv-x="259" 
d="M168 0h-77v675h77v-675zM270 786l-180 -57l-16 44l172 74z" />
    <glyph glyph-name="Icircumflex" unicode="&#xce;" horiz-adv-x="259" 
d="M168 0h-77v675h77v-675zM285 773l-23 -46l-133 62l-134 -62l-22 45l157 82z" />
    <glyph glyph-name="Idieresis" unicode="&#xcf;" horiz-adv-x="259" 
d="M168 0h-77v675h77v-675zM274 779q0 -20 -14 -33.5t-34 -13.5t-33.5 14t-13.5 33q0 20 13.5 34t33.5 14t34 -14t14 -34zM79 779q0 -19 -13.5 -33t-33.5 -14t-34 13.5t-14 33.5t14 34t34 14t33.5 -14t13.5 -34z" />
    <glyph glyph-name="Eth" unicode="&#xd0;" horiz-adv-x="691" 
d="M3 318v59h97v298q24 0 90.5 1.5t103.5 1.5q169 0 258.5 -82.5t89.5 -251.5q0 -168 -103 -257.5t-276 -89.5q-36 0 -89.5 1.5t-73.5 1.5v318h-97zM328 318h-153v-251q49 -7 98 -7q133 0 210.5 70t77.5 209q0 277 -275 277q-27 0 -111 -3v-236h153v-59z" />
    <glyph glyph-name="Ntilde" unicode="&#xd1;" horiz-adv-x="694" 
d="M603 0h-85l-285 459q-45 74 -74 134q7 -180 7 -401v-192h-75v675h102l281 -450q34 -56 61 -114q-7 157 -7 391v173h75v-675zM485 837l40 -29q-40 -70 -107 -70q-36 0 -75 27t-59 27q-36 0 -64 -46l-40 29q39 70 107 70q36 0 75 -27t59 -27q35 0 64 46z" />
    <glyph glyph-name="Ograve" unicode="&#xd2;" horiz-adv-x="708" 
d="M662 346q0 -166 -90.5 -260.5t-226.5 -94.5q-143 0 -221 91t-78 247q0 166 90.5 260.5t226.5 94.5q143 0 221 -91t78 -247zM582 333q0 131 -58.5 208t-169.5 77q-99 0 -163.5 -72.5t-64.5 -202.5q0 -131 59 -208.5t169 -77.5q99 0 163.5 73t64.5 203zM405 773l-16 -44
l-180 57l24 61z" />
    <glyph glyph-name="Oacute" unicode="&#xd3;" horiz-adv-x="708" 
d="M662 346q0 -166 -90.5 -260.5t-226.5 -94.5q-143 0 -221 91t-78 247q0 166 90.5 260.5t226.5 94.5q143 0 221 -91t78 -247zM582 333q0 131 -58.5 208t-169.5 77q-99 0 -163.5 -72.5t-64.5 -202.5q0 -131 59 -208.5t169 -77.5q99 0 163.5 73t64.5 203zM504 786l-180 -57
l-16 44l172 74z" />
    <glyph glyph-name="Ocircumflex" unicode="&#xd4;" horiz-adv-x="708" 
d="M662 346q0 -166 -90.5 -260.5t-226.5 -94.5q-143 0 -221 91t-78 247q0 166 90.5 260.5t226.5 94.5q143 0 221 -91t78 -247zM582 333q0 131 -58.5 208t-169.5 77q-99 0 -163.5 -72.5t-64.5 -202.5q0 -131 59 -208.5t169 -77.5q99 0 163.5 73t64.5 203zM516 773l-23 -46
l-133 62l-134 -62l-22 45l157 82z" />
    <glyph glyph-name="Otilde" unicode="&#xd5;" horiz-adv-x="708" 
d="M662 346q0 -166 -90.5 -260.5t-226.5 -94.5q-143 0 -221 91t-78 247q0 166 90.5 260.5t226.5 94.5q143 0 221 -91t78 -247zM582 333q0 131 -58.5 208t-169.5 77q-99 0 -163.5 -72.5t-64.5 -202.5q0 -131 59 -208.5t169 -77.5q99 0 163.5 73t64.5 203zM486 837l40 -29
q-40 -70 -107 -70q-36 0 -75 27t-59 27q-36 0 -64 -46l-40 29q39 70 107 70q36 0 75 -27t59 -27q35 0 64 46z" />
    <glyph glyph-name="Odieresis" unicode="&#xd6;" horiz-adv-x="708" 
d="M662 346q0 -166 -90.5 -260.5t-226.5 -94.5q-143 0 -221 91t-78 247q0 166 90.5 260.5t226.5 94.5q143 0 221 -91t78 -247zM582 333q0 131 -58.5 208t-169.5 77q-99 0 -163.5 -72.5t-64.5 -202.5q0 -131 59 -208.5t169 -77.5q99 0 163.5 73t64.5 203zM511 779
q0 -19 -13.5 -33t-33.5 -14t-34 13.5t-14 33.5t14 34t34 14t33.5 -14t13.5 -34zM298 779q0 -19 -14 -33t-33 -14q-20 0 -34 13.5t-14 33.5t14 34t34 14t33.5 -14t13.5 -34z" />
    <glyph glyph-name="multiply" unicode="&#xd7;" 
d="M492 126l-46 -46l-173 173l-173 -173l-42 42l173 173l-173 173l46 46l173 -173l173 173l42 -42l-173 -173z" />
    <glyph glyph-name="Oslash" unicode="&#xd8;" horiz-adv-x="708" 
d="M596 739l-55 -106q121 -87 121 -287q0 -166 -90.5 -260.5t-226.5 -94.5q-70 0 -124 24l-54 -106l-55 27l55 106q-121 87 -121 287q0 166 90.5 260.5t226.5 94.5q70 0 124 -24l54 106zM505 563l-251 -484q46 -23 100 -23q100 0 165 73t65 204q0 153 -79 230zM203 112
l251 484q-43 23 -100 23q-100 0 -165 -73t-65 -203q0 -154 79 -231z" />
    <glyph glyph-name="Ugrave" unicode="&#xd9;" horiz-adv-x="697" 
d="M606 675v-419q0 -130 -67.5 -197.5t-198.5 -67.5q-75 0 -126.5 19.5t-77 54.5t-35.5 73t-10 86v451h77v-444q0 -83 38.5 -130t139.5 -47q95 0 140 45t45 151v425h75zM392 773l-16 -44l-180 57l24 61z" />
    <glyph glyph-name="Uacute" unicode="&#xda;" horiz-adv-x="697" 
d="M606 675v-419q0 -130 -67.5 -197.5t-198.5 -67.5q-75 0 -126.5 19.5t-77 54.5t-35.5 73t-10 86v451h77v-444q0 -83 38.5 -130t139.5 -47q95 0 140 45t45 151v425h75zM514 786l-180 -57l-16 44l172 74z" />
    <glyph glyph-name="Ucircumflex" unicode="&#xdb;" horiz-adv-x="697" 
d="M606 675v-419q0 -130 -67.5 -197.5t-198.5 -67.5q-75 0 -126.5 19.5t-77 54.5t-35.5 73t-10 86v451h77v-444q0 -83 38.5 -130t139.5 -47q95 0 140 45t45 151v425h75zM508 773l-23 -46l-133 62l-134 -62l-22 45l157 82z" />
    <glyph glyph-name="Udieresis" unicode="&#xdc;" horiz-adv-x="697" 
d="M606 675v-419q0 -130 -67.5 -197.5t-198.5 -67.5q-75 0 -126.5 19.5t-77 54.5t-35.5 73t-10 86v451h77v-444q0 -83 38.5 -130t139.5 -47q95 0 140 45t45 151v425h75zM502 779q0 -19 -14 -33t-33 -14q-20 0 -34 13.5t-14 33.5t14 34t34 14t33.5 -14t13.5 -34zM289 779
q0 -19 -13.5 -33t-33.5 -14t-34 13.5t-14 33.5t14 34t34 14t33.5 -14t13.5 -34z" />
    <glyph glyph-name="Yacute" unicode="&#xdd;" horiz-adv-x="527" 
d="M523 675l-222 -411v-264h-76v264l-221 411h85l123 -232q28 -55 53 -112h1q25 58 55 114l121 230h81zM426 786l-180 -57l-16 44l172 74z" />
    <glyph glyph-name="Thorn" unicode="&#xde;" horiz-adv-x="533" 
d="M168 0h-77v675h77v-101q43 3 93 3q125 0 188.5 -59t63.5 -149q0 -102 -73 -168t-194 -66l-78 3v-138zM168 510v-307q43 -6 85 -6q88 0 134.5 45t46.5 116q0 72 -46 114t-138 42z" />
    <glyph glyph-name="germandbls" unicode="&#xdf;" horiz-adv-x="587" 
d="M250 1l7 68q43 -16 91 -16q59 0 88.5 23.5t29.5 59.5q0 31 -21 54t-51 39t-60 33.5t-51 49t-21 75.5q0 40 22.5 69.5t49 44.5t49 39.5t22.5 56.5q0 38 -27.5 58t-74.5 20q-137 0 -137 -168v-507h-75v502q0 122 59 177.5t158 55.5q82 0 128 -36.5t46 -94.5q0 -38 -15 -65
t-36 -42.5t-42 -28.5t-36 -31t-15 -43q0 -30 21 -52.5t51 -38.5t60.5 -34t51.5 -49t21 -74q0 -68 -53 -111.5t-144 -43.5q-54 0 -96 10z" />
    <glyph glyph-name="agrave" unicode="&#xe0;" horiz-adv-x="520" 
d="M430 0h-74q0 76 5 105h-2q-19 -49 -65.5 -81.5t-107.5 -32.5q-60 0 -98 36t-38 96q0 78 79 123.5t224 45.5v30q0 64 -25.5 94t-86.5 30q-71 0 -151 -35l-14 59q89 36 174 36q95 0 136.5 -45t41.5 -129v-183q0 -105 2 -149zM353 222v15q-228 0 -228 -103q0 -36 22.5 -59
t59.5 -23q63 0 104.5 52.5t41.5 117.5zM302 609l-38 -36l-132 128l49 46z" />
    <glyph glyph-name="aacute" unicode="&#xe1;" horiz-adv-x="520" 
d="M430 0h-74q0 76 5 105h-2q-19 -49 -65.5 -81.5t-107.5 -32.5q-60 0 -98 36t-38 96q0 78 79 123.5t224 45.5v30q0 64 -25.5 94t-86.5 30q-71 0 -151 -35l-14 59q89 36 174 36q95 0 136.5 -45t41.5 -129v-183q0 -105 2 -149zM353 222v15q-228 0 -228 -103q0 -36 22.5 -59
t59.5 -23q63 0 104.5 52.5t41.5 117.5zM381 701l-132 -128l-38 36l121 138z" />
    <glyph glyph-name="acircumflex" unicode="&#xe2;" horiz-adv-x="520" 
d="M430 0h-74q0 76 5 105h-2q-19 -49 -65.5 -81.5t-107.5 -32.5q-60 0 -98 36t-38 96q0 78 79 123.5t224 45.5v30q0 64 -25.5 94t-86.5 30q-71 0 -151 -35l-14 59q89 36 174 36q95 0 136.5 -45t41.5 -129v-183q0 -105 2 -149zM353 222v15q-228 0 -228 -103q0 -36 22.5 -59
t59.5 -23q63 0 104.5 52.5t41.5 117.5zM389 612l-34 -37l-99 86l-100 -86l-33 36l134 129z" />
    <glyph glyph-name="atilde" unicode="&#xe3;" horiz-adv-x="520" 
d="M430 0h-74q0 76 5 105h-2q-19 -49 -65.5 -81.5t-107.5 -32.5q-60 0 -98 36t-38 96q0 78 79 123.5t224 45.5v30q0 64 -25.5 94t-86.5 30q-71 0 -151 -35l-14 59q89 36 174 36q95 0 136.5 -45t41.5 -129v-183q0 -105 2 -149zM353 222v15q-228 0 -228 -103q0 -36 22.5 -59
t59.5 -23q63 0 104.5 52.5t41.5 117.5zM380 703l38 -31q-39 -72 -104 -72q-35 0 -72.5 28t-56.5 28q-35 0 -62 -48l-38 31q39 73 104 73q35 0 72.5 -28t56.5 -28q35 0 62 47z" />
    <glyph glyph-name="adieresis" unicode="&#xe4;" horiz-adv-x="520" 
d="M430 0h-74q0 76 5 105h-2q-19 -49 -65.5 -81.5t-107.5 -32.5q-60 0 -98 36t-38 96q0 78 79 123.5t224 45.5v30q0 64 -25.5 94t-86.5 30q-71 0 -151 -35l-14 59q89 36 174 36q95 0 136.5 -45t41.5 -129v-183q0 -105 2 -149zM353 222v15q-228 0 -228 -103q0 -36 22.5 -59
t59.5 -23q63 0 104.5 52.5t41.5 117.5zM395 657q0 -20 -13.5 -34t-33.5 -14t-34 14t-14 34t14 33.5t34 13.5t33.5 -14t13.5 -33zM207 657q0 -20 -13.5 -34t-33.5 -14t-34 14t-14 34t14 33.5t34 13.5t33.5 -14t13.5 -33z" />
    <glyph glyph-name="aring" unicode="&#xe5;" horiz-adv-x="520" 
d="M430 0h-74q0 76 5 105h-2q-19 -49 -65.5 -81.5t-107.5 -32.5q-60 0 -98 36t-38 96q0 78 79 123.5t224 45.5v30q0 64 -25.5 94t-86.5 30q-71 0 -151 -35l-14 59q89 36 174 36q95 0 136.5 -45t41.5 -129v-183q0 -105 2 -149zM353 222v15q-228 0 -228 -103q0 -36 22.5 -59
t59.5 -23q63 0 104.5 52.5t41.5 117.5zM369 667q0 -46 -31 -76.5t-83 -30.5q-50 0 -77.5 26t-27.5 76q0 46 31 76.5t83 30.5q50 0 77.5 -26t27.5 -76zM312 664q0 59 -52 59q-22 0 -37 -15t-15 -43q0 -59 51 -59q22 0 37.5 15t15.5 43z" />
    <glyph glyph-name="ae" unicode="&#xe6;" horiz-adv-x="809" 
d="M734 80l11 -59q-88 -30 -167 -30q-160 0 -200 119h-1q-23 -50 -73.5 -84.5t-116.5 -34.5q-61 0 -99 36t-38 96q0 78 79 123.5t224 45.5v30q0 64 -25.5 94t-86.5 30q-71 0 -151 -35l-14 59q89 36 174 36q120 0 154 -84h1q24 37 66 60.5t96 23.5q97 0 145.5 -56.5
t48.5 -144.5l-2 -50h-332q-7 -202 161 -202q72 0 146 27zM429 310h253q1 64 -31 101t-89 37q-52 0 -88 -36.5t-45 -101.5zM353 222v15q-228 0 -228 -103q0 -36 22.5 -59t59.5 -23q63 0 104.5 52.5t41.5 117.5z" />
    <glyph glyph-name="ccedilla" unicode="&#xe7;" horiz-adv-x="440" 
d="M397 83l14 -62q-67 -28 -152 -28q-215 0 -215 238q0 125 61.5 199t175.5 74q72 0 127 -22l-15 -64q-61 24 -121 24q-70 0 -109.5 -54.5t-39.5 -143.5q0 -187 151 -187q68 0 123 26zM206 -69l67 28q67 -88 -23 -194h-63q28 35 39.5 60.5t7 51.5t-27.5 54z" />
    <glyph glyph-name="egrave" unicode="&#xe8;" horiz-adv-x="505" 
d="M430 80l11 -59q-88 -30 -167 -30q-230 0 -230 255q0 114 59 187t160 73q97 0 145 -57t48 -146l-2 -53h-332q-1 -101 39 -149t123 -48q71 0 146 27zM124 305h255q1 68 -31 105.5t-90 37.5q-53 0 -89.5 -37.5t-44.5 -105.5zM304 609l-38 -36l-132 128l49 46z" />
    <glyph glyph-name="eacute" unicode="&#xe9;" horiz-adv-x="505" 
d="M430 80l11 -59q-88 -30 -167 -30q-230 0 -230 255q0 114 59 187t160 73q97 0 145 -57t48 -146l-2 -53h-332q-1 -101 39 -149t123 -48q71 0 146 27zM124 305h255q1 68 -31 105.5t-90 37.5q-53 0 -89.5 -37.5t-44.5 -105.5zM385 701l-132 -128l-38 36l121 138z" />
    <glyph glyph-name="ecircumflex" unicode="&#xea;" horiz-adv-x="505" 
d="M430 80l11 -59q-88 -30 -167 -30q-230 0 -230 255q0 114 59 187t160 73q97 0 145 -57t48 -146l-2 -53h-332q-1 -101 39 -149t123 -48q71 0 146 27zM124 305h255q1 68 -31 105.5t-90 37.5q-53 0 -89.5 -37.5t-44.5 -105.5zM393 612l-34 -37l-99 86l-100 -86l-33 36
l134 129z" />
    <glyph glyph-name="edieresis" unicode="&#xeb;" horiz-adv-x="505" 
d="M430 80l11 -59q-88 -30 -167 -30q-230 0 -230 255q0 114 59 187t160 73q97 0 145 -57t48 -146l-2 -53h-332q-1 -101 39 -149t123 -48q71 0 146 27zM124 305h255q1 68 -31 105.5t-90 37.5q-53 0 -89.5 -37.5t-44.5 -105.5zM402 657q0 -20 -13.5 -34t-33.5 -14t-34 14
t-14 34t14 33.5t34 13.5q19 0 33 -14t14 -33zM214 657q0 -20 -13.5 -34t-33.5 -14t-34 14t-14 34t14 33.5t34 13.5q19 0 33 -14t14 -33z" />
    <glyph glyph-name="igrave" unicode="&#xec;" horiz-adv-x="257" 
d="M166 0h-75v497h75v-497zM166 593l-47 -26l-95 155l59 32z" />
    <glyph glyph-name="iacute" unicode="&#xed;" horiz-adv-x="257" 
d="M166 0h-75v497h75v-497zM246 713l-112 -141l-44 30l100 148z" />
    <glyph glyph-name="icircumflex" unicode="&#xee;" horiz-adv-x="257" 
d="M166 0h-75v497h75v-497zM249 611l-35 -36l-86 86l-87 -86l-33 35l121 129z" />
    <glyph glyph-name="idieresis" unicode="&#xef;" horiz-adv-x="257" 
d="M166 0h-75v497h75v-497zM262 657q0 -20 -14 -34t-34 -14t-34 14t-14 34t14 33.5t34 13.5t34 -13.5t14 -33.5zM91 657q0 -20 -14 -34t-34 -14t-34 14t-14 34t14 33.5t34 13.5t34 -13.5t14 -33.5z" />
    <glyph glyph-name="eth" unicode="&#xf0;" horiz-adv-x="543" 
d="M458 675l-101 -44q140 -165 140 -360q0 -137 -64.5 -208.5t-168.5 -71.5q-103 0 -162.5 64.5t-59.5 190.5q0 111 63 185t170 74q85 0 115 -51q-4 8 -32 55q-25 46 -68 93l-106 -48l-32 42l98 44q-24 23 -83 69l76 33q38 -31 78 -71l104 46zM420 261q0 85 -38 134t-111 49
q-63 0 -107 -49.5t-44 -143.5q0 -93 41 -144.5t114 -51.5q64 0 104.5 50.5t40.5 155.5z" />
    <glyph glyph-name="ntilde" unicode="&#xf1;" horiz-adv-x="577" 
d="M486 0h-75v321q0 62 -20.5 92.5t-72.5 30.5q-66 0 -109 -58.5t-43 -147.5v-238h-75v497h74q0 -63 -8 -111l2 -1q22 56 68 88.5t110 32.5q149 0 149 -160v-346zM421 703l38 -31q-39 -72 -104 -72q-35 0 -72.5 28t-56.5 28q-35 0 -62 -48l-38 31q39 73 104 73
q35 0 72.5 -28t56.5 -28q35 0 62 47z" />
    <glyph glyph-name="ograve" unicode="&#xf2;" horiz-adv-x="542" 
d="M499 254q0 -114 -62 -188.5t-174 -74.5q-103 0 -161.5 63.5t-58.5 188.5q0 114 62.5 188.5t174.5 74.5q102 0 160.5 -63.5t58.5 -188.5zM422 249q0 92 -40 143.5t-110 51.5t-110.5 -50.5t-40.5 -145.5q0 -92 39.5 -143t109.5 -51q68 0 110 48.5t42 146.5zM321 609
l-38 -36l-132 128l49 46z" />
    <glyph glyph-name="oacute" unicode="&#xf3;" horiz-adv-x="542" 
d="M499 254q0 -114 -62 -188.5t-174 -74.5q-103 0 -161.5 63.5t-58.5 188.5q0 114 62.5 188.5t174.5 74.5q102 0 160.5 -63.5t58.5 -188.5zM422 249q0 92 -40 143.5t-110 51.5t-110.5 -50.5t-40.5 -145.5q0 -92 39.5 -143t109.5 -51q68 0 110 48.5t42 146.5zM400 701
l-132 -128l-38 36l121 138z" />
    <glyph glyph-name="ocircumflex" unicode="&#xf4;" horiz-adv-x="542" 
d="M499 254q0 -114 -62 -188.5t-174 -74.5q-103 0 -161.5 63.5t-58.5 188.5q0 114 62.5 188.5t174.5 74.5q102 0 160.5 -63.5t58.5 -188.5zM422 249q0 92 -40 143.5t-110 51.5t-110.5 -50.5t-40.5 -145.5q0 -92 39.5 -143t109.5 -51q68 0 110 48.5t42 146.5zM405 612
l-34 -37l-99 86l-100 -86l-33 36l134 129z" />
    <glyph glyph-name="otilde" unicode="&#xf5;" horiz-adv-x="542" 
d="M499 254q0 -114 -62 -188.5t-174 -74.5q-103 0 -161.5 63.5t-58.5 188.5q0 114 62.5 188.5t174.5 74.5q102 0 160.5 -63.5t58.5 -188.5zM422 249q0 92 -40 143.5t-110 51.5t-110.5 -50.5t-40.5 -145.5q0 -92 39.5 -143t109.5 -51q68 0 110 48.5t42 146.5zM404 703l38 -31
q-39 -72 -104 -72q-35 0 -72.5 28t-56.5 28q-35 0 -62 -48l-38 31q39 73 104 73q35 0 72.5 -28t56.5 -28q35 0 62 47z" />
    <glyph glyph-name="odieresis" unicode="&#xf6;" horiz-adv-x="542" 
d="M499 254q0 -114 -62 -188.5t-174 -74.5q-103 0 -161.5 63.5t-58.5 188.5q0 114 62.5 188.5t174.5 74.5q102 0 160.5 -63.5t58.5 -188.5zM422 249q0 92 -40 143.5t-110 51.5t-110.5 -50.5t-40.5 -145.5q0 -92 39.5 -143t109.5 -51q68 0 110 48.5t42 146.5zM413 657
q0 -20 -13.5 -34t-33.5 -14t-34 14t-14 34t14 33.5t34 13.5t33.5 -14t13.5 -33zM225 657q0 -20 -13.5 -34t-33.5 -14t-34 14t-14 34t14 33.5t34 13.5t33.5 -14t13.5 -33z" />
    <glyph glyph-name="divide" unicode="&#xf7;" 
d="M327 498q0 -22 -15.5 -37.5t-38.5 -15.5q-22 0 -37.5 15.5t-15.5 37.5t15.5 37.5t37.5 15.5q23 0 38.5 -15.5t15.5 -37.5zM507 266h-464v63h464v-63zM327 96q0 -22 -15.5 -38t-38.5 -16q-22 0 -37.5 16t-15.5 38t15.5 37.5t37.5 15.5t38 -15.5t16 -37.5z" />
    <glyph glyph-name="oslash" unicode="&#xf8;" horiz-adv-x="542" 
d="M467 560l-50 -95q82 -64 82 -211q0 -114 -62 -188.5t-174 -74.5q-51 0 -89 16l-49 -94l-50 24l51 95q-83 63 -83 211q0 114 62.5 188.5t174.5 74.5q50 0 88 -16l49 94zM382 399l-177 -334q31 -14 65 -14q72 0 114 51t42 147q0 99 -44 150zM160 98l177 334q-30 14 -64 14
q-72 0 -114 -51t-42 -147q0 -98 43 -150z" />
    <glyph glyph-name="ugrave" unicode="&#xf9;" horiz-adv-x="577" 
d="M486 0h-74q0 63 8 111l-2 1q-22 -56 -68 -88.5t-110 -32.5q-149 0 -149 160v346h75v-321q0 -62 20.5 -92.5t72.5 -30.5q66 0 109 58.5t43 147.5v238h75v-497zM328 609l-38 -36l-132 128l49 46z" />
    <glyph glyph-name="uacute" unicode="&#xfa;" horiz-adv-x="577" 
d="M486 0h-74q0 63 8 111l-2 1q-22 -56 -68 -88.5t-110 -32.5q-149 0 -149 160v346h75v-321q0 -62 20.5 -92.5t72.5 -30.5q66 0 109 58.5t43 147.5v238h75v-497zM421 701l-132 -128l-38 36l121 138z" />
    <glyph glyph-name="ucircumflex" unicode="&#xfb;" horiz-adv-x="577" 
d="M486 0h-74q0 63 8 111l-2 1q-22 -56 -68 -88.5t-110 -32.5q-149 0 -149 160v346h75v-321q0 -62 20.5 -92.5t72.5 -30.5q66 0 109 58.5t43 147.5v238h75v-497zM421 612l-34 -37l-99 86l-100 -86l-33 36l134 129z" />
    <glyph glyph-name="udieresis" unicode="&#xfc;" horiz-adv-x="577" 
d="M486 0h-74q0 63 8 111l-2 1q-22 -56 -68 -88.5t-110 -32.5q-149 0 -149 160v346h75v-321q0 -62 20.5 -92.5t72.5 -30.5q66 0 109 58.5t43 147.5v238h75v-497zM429 657q0 -20 -13.5 -34t-33.5 -14t-34 14t-14 34t14 33.5t34 13.5t33.5 -14t13.5 -33zM241 657
q0 -20 -13.5 -34t-33.5 -14t-34 14t-14 34t14 33.5t34 13.5t33.5 -14t13.5 -33z" />
    <glyph glyph-name="yacute" unicode="&#xfd;" horiz-adv-x="471" 
d="M461 497l-204 -544q-43 -116 -95 -163t-136 -47l-52 6l8 65q29 -7 58 -7q45 0 77 29.5t61 105.5l23 58l-190 497h86l104 -286q22 -61 39 -121h1q13 47 49 152l89 255h82zM372 701l-132 -128l-38 36l121 138z" />
    <glyph glyph-name="thorn" unicode="&#xfe;" horiz-adv-x="558" 
d="M166 -249h-75v979h75v-224q0 -79 -7 -114l2 -1q21 53 65.5 84t102.5 31q88 0 135.5 -60t47.5 -175q0 -132 -67.5 -204.5t-186.5 -72.5q-53 0 -92 7v-250zM166 240v-174q42 -13 97 -13q170 0 170 212q0 179 -119 179q-69 0 -108.5 -64.5t-39.5 -139.5z" />
    <glyph glyph-name="ydieresis" unicode="&#xff;" horiz-adv-x="471" 
d="M461 497l-204 -544q-43 -116 -95 -163t-136 -47l-52 6l8 65q29 -7 58 -7q45 0 77 29.5t61 105.5l23 58l-190 497h86l104 -286q22 -61 39 -121h1q13 47 49 152l89 255h82zM379 657q0 -20 -13.5 -34t-33.5 -14t-34 14t-14 34t14 33.5t34 13.5t33.5 -14t13.5 -33zM191 657
q0 -20 -13.5 -34t-33.5 -14t-34 14t-14 34t14 33.5t34 13.5t33.5 -14t13.5 -33z" />
    <glyph glyph-name="Amacron" unicode="&#x100;" horiz-adv-x="611" 
d="M598 0h-87l-59 167h-300l-59 -167h-80l248 675h90zM433 229l-100 277q-9 27 -30 93h-1q-23 -74 -29 -91l-101 -279h261zM440 751h-269v54h269v-54z" />
    <glyph glyph-name="amacron" unicode="&#x101;" horiz-adv-x="520" 
d="M430 0h-74q0 76 5 105h-2q-19 -49 -65.5 -81.5t-107.5 -32.5q-60 0 -98 36t-38 96q0 78 79 123.5t224 45.5v30q0 64 -25.5 94t-86.5 30q-71 0 -151 -35l-14 59q89 36 174 36q95 0 136.5 -45t41.5 -129v-183q0 -105 2 -149zM353 222v15q-228 0 -228 -103q0 -36 22.5 -59
t59.5 -23q63 0 104.5 52.5t41.5 117.5zM378 623h-245v57h245v-57z" />
    <glyph glyph-name="Abreve" unicode="&#x102;" horiz-adv-x="611" 
d="M598 0h-87l-59 167h-300l-59 -167h-80l248 675h90zM433 229l-100 277q-9 27 -30 93h-1q-23 -74 -29 -91l-101 -279h261zM377 849h51q0 -51 -34.5 -83.5t-91.5 -32.5q-59 0 -91 32.5t-32 83.5h50q0 -27 21 -45t53 -18q33 0 53.5 18t20.5 45z" />
    <glyph glyph-name="abreve" unicode="&#x103;" horiz-adv-x="520" 
d="M430 0h-74q0 76 5 105h-2q-19 -49 -65.5 -81.5t-107.5 -32.5q-60 0 -98 36t-38 96q0 78 79 123.5t224 45.5v30q0 64 -25.5 94t-86.5 30q-71 0 -151 -35l-14 59q89 36 174 36q95 0 136.5 -45t41.5 -129v-183q0 -105 2 -149zM353 222v15q-228 0 -228 -103q0 -36 22.5 -59
t59.5 -23q63 0 104.5 52.5t41.5 117.5zM325 717h53q0 -54 -30.5 -90.5t-90.5 -36.5t-89.5 36.5t-29.5 90.5h52q0 -30 18 -50t50 -20q31 0 49 18.5t18 51.5z" />
    <glyph glyph-name="Aogonek" unicode="&#x104;" horiz-adv-x="611" 
d="M605 -148l26 -43q-48 -42 -106 -42q-48 0 -74.5 23.5t-26.5 63.5q0 81 87 146l-59 167h-300l-59 -167h-80l248 675h90l247 -675q-101 -63 -101 -132q0 -42 42 -42q31 0 66 26zM433 229l-100 277q-9 27 -30 93h-1q-23 -74 -29 -91l-101 -279h261z" />
    <glyph glyph-name="aogonek" unicode="&#x105;" horiz-adv-x="520" 
d="M457 -148l25 -43q-47 -42 -105 -42q-48 0 -74.5 23.5t-26.5 63.5q0 82 93 152q-9 53 -7 96l-1 1q-21 -49 -67.5 -80.5t-107.5 -31.5q-60 0 -98 36t-38 96q0 78 79 123.5t224 45.5v30q0 64 -25.5 94t-86.5 30q-71 0 -151 -35l-14 59q89 36 174 36q95 0 136.5 -45
t41.5 -129v-151q0 -101 15 -181q-94 -67 -94 -132q0 -42 41 -42q30 0 67 26zM353 222v15q-228 0 -228 -103q0 -36 22.5 -59t59.5 -23q63 0 104.5 52.5t41.5 117.5z" />
    <glyph glyph-name="Cacute" unicode="&#x106;" horiz-adv-x="590" 
d="M529 95l15 -65q-87 -37 -190 -37q-151 0 -228 88.5t-77 240.5q0 162 81.5 261t246.5 99q80 0 158 -22l-13 -71q-82 28 -156 28q-118 0 -176.5 -79t-58.5 -203q0 -133 60 -204t179 -71q84 0 159 35zM497 786l-180 -57l-16 44l172 74z" />
    <glyph glyph-name="cacute" unicode="&#x107;" horiz-adv-x="440" 
d="M397 83l14 -62q-67 -28 -152 -28q-215 0 -215 238q0 125 61.5 199t175.5 74q72 0 127 -22l-15 -64q-61 24 -121 24q-70 0 -109.5 -54.5t-39.5 -143.5q0 -187 151 -187q68 0 123 26zM382 701l-132 -128l-38 36l121 138z" />
    <glyph glyph-name="Ccircumflex" unicode="&#x108;" horiz-adv-x="590" 
d="M529 95l15 -65q-87 -37 -190 -37q-151 0 -228 88.5t-77 240.5q0 162 81.5 261t246.5 99q80 0 158 -22l-13 -71q-82 28 -156 28q-118 0 -176.5 -79t-58.5 -203q0 -133 60 -204t179 -71q84 0 159 35zM509 773l-23 -46l-133 62l-134 -62l-22 45l157 82z" />
    <glyph glyph-name="ccircumflex" unicode="&#x109;" horiz-adv-x="440" 
d="M397 83l14 -62q-67 -28 -152 -28q-215 0 -215 238q0 125 61.5 199t175.5 74q72 0 127 -22l-15 -64q-61 24 -121 24q-70 0 -109.5 -54.5t-39.5 -143.5q0 -187 151 -187q68 0 123 26zM395 612l-34 -37l-99 86l-100 -86l-33 36l134 129z" />
    <glyph glyph-name="Cdotaccent" unicode="&#x10a;" horiz-adv-x="590" 
d="M529 95l15 -65q-87 -37 -190 -37q-151 0 -228 88.5t-77 240.5q0 162 81.5 261t246.5 99q80 0 158 -22l-13 -71q-82 28 -156 28q-118 0 -176.5 -79t-58.5 -203q0 -133 60 -204t179 -71q84 0 159 35zM405 782q0 -21 -15 -36t-35 -15q-21 0 -36 14.5t-15 36.5q0 21 15 36
t36 15t35.5 -14.5t14.5 -36.5z" />
    <glyph glyph-name="cdotaccent" unicode="&#x10b;" horiz-adv-x="440" 
d="M397 83l14 -62q-67 -28 -152 -28q-215 0 -215 238q0 125 61.5 199t175.5 74q72 0 127 -22l-15 -64q-61 24 -121 24q-70 0 -109.5 -54.5t-39.5 -143.5q0 -187 151 -187q68 0 123 26zM311 656q0 -21 -15 -35.5t-35 -14.5q-21 0 -36 14.5t-15 35.5t15 36t36 15t35.5 -14.5
t14.5 -36.5z" />
    <glyph glyph-name="Ccaron" unicode="&#x10c;" horiz-adv-x="590" 
d="M529 95l15 -65q-87 -37 -190 -37q-151 0 -228 88.5t-77 240.5q0 162 81.5 261t246.5 99q80 0 158 -22l-13 -71q-82 28 -156 28q-118 0 -176.5 -79t-58.5 -203q0 -133 60 -204t179 -71q84 0 159 35zM507 810l-157 -83l-155 82l23 45l133 -62l134 62z" />
    <glyph glyph-name="ccaron" unicode="&#x10d;" horiz-adv-x="440" 
d="M397 83l14 -62q-67 -28 -152 -28q-215 0 -215 238q0 125 61.5 199t175.5 74q72 0 127 -22l-15 -64q-61 24 -121 24q-70 0 -109.5 -54.5t-39.5 -143.5q0 -187 151 -187q68 0 123 26zM398 704l-134 -129l-132 127l34 38l99 -86l100 86z" />
    <glyph glyph-name="Dcaron" unicode="&#x10e;" horiz-adv-x="683" 
d="M91 0v675q24 0 91 1.5t104 1.5q168 0 257.5 -82.5t89.5 -251.5t-103 -258t-275 -89q-37 0 -90 1.5t-74 1.5zM168 613v-546q47 -7 97 -7q133 0 210.5 70t77.5 209q0 277 -275 277q-29 0 -110 -3zM458 810l-157 -83l-155 82l23 45l133 -62l134 62z" />
    <glyph glyph-name="dcaron" unicode="&#x10f;" horiz-adv-x="581" 
d="M467 0h-74q0 69 9 108l-2 1q-21 -54 -66.5 -86t-104.5 -32q-90 0 -136.5 62t-46.5 173q0 131 68.5 204t185.5 73q35 0 92 -5v232h75v-730zM392 257v175q-50 12 -97 12q-170 0 -170 -212q0 -179 119 -179q69 0 108.5 64.5t39.5 139.5zM643 737l-70 -168l-51 16l57 171z
" />
    <glyph glyph-name="Dcroat" unicode="&#x110;" horiz-adv-x="691" 
d="M3 318v59h97v298q24 0 90.5 1.5t103.5 1.5q169 0 258.5 -82.5t89.5 -251.5q0 -168 -103 -257.5t-276 -89.5q-36 0 -89.5 1.5t-73.5 1.5v318h-97zM328 318h-153v-251q49 -7 98 -7q133 0 210.5 70t77.5 209q0 277 -275 277q-27 0 -111 -3v-236h153v-59z" />
    <glyph glyph-name="dcroat" unicode="&#x111;" horiz-adv-x="558" 
d="M542 594h-75v-594h-74q0 69 9 108l-2 1q-21 -54 -66.5 -86t-104.5 -32q-90 0 -136.5 62t-46.5 173q0 131 68.5 204t185.5 73q35 0 92 -5v96h-120v53h120v83h75v-83h75v-53zM392 257v175q-50 12 -97 12q-170 0 -170 -212q0 -179 119 -179q69 0 108.5 64.5t39.5 139.5z" />
    <glyph glyph-name="Emacron" unicode="&#x112;" horiz-adv-x="514" 
d="M442 0h-351v675h351v-62h-274v-234h252v-62h-252v-253h274v-64zM395 751h-269v54h269v-54z" />
    <glyph glyph-name="emacron" unicode="&#x113;" horiz-adv-x="505" 
d="M430 80l11 -59q-88 -30 -167 -30q-230 0 -230 255q0 114 59 187t160 73q97 0 145 -57t48 -146l-2 -53h-332q-1 -101 39 -149t123 -48q71 0 146 27zM124 305h255q1 68 -31 105.5t-90 37.5q-53 0 -89.5 -37.5t-44.5 -105.5zM378 623h-245v57h245v-57z" />
    <glyph glyph-name="Ebreve" unicode="&#x114;" horiz-adv-x="514" 
d="M442 0h-351v675h351v-62h-274v-234h252v-62h-252v-253h274v-64zM338 849h51q0 -51 -34.5 -83.5t-91.5 -32.5q-59 0 -91 32.5t-32 83.5h50q0 -27 21 -45t53 -18q33 0 53.5 18t20.5 45z" />
    <glyph glyph-name="ebreve" unicode="&#x115;" horiz-adv-x="505" 
d="M430 80l11 -59q-88 -30 -167 -30q-230 0 -230 255q0 114 59 187t160 73q97 0 145 -57t48 -146l-2 -53h-332q-1 -101 39 -149t123 -48q71 0 146 27zM124 305h255q1 68 -31 105.5t-90 37.5q-53 0 -89.5 -37.5t-44.5 -105.5zM323 717h53q0 -54 -30.5 -90.5t-90.5 -36.5
t-89.5 36.5t-29.5 90.5h52q0 -30 18 -50t50 -20q31 0 49 18.5t18 51.5z" />
    <glyph glyph-name="Edotaccent" unicode="&#x116;" horiz-adv-x="514" 
d="M442 0h-351v675h351v-62h-274v-234h252v-62h-252v-253h274v-64zM313 782q0 -21 -15 -36t-35 -15q-21 0 -36 14.5t-15 36.5q0 21 15 36t36 15t35.5 -14.5t14.5 -36.5z" />
    <glyph glyph-name="edotaccent" unicode="&#x117;" horiz-adv-x="505" 
d="M430 80l11 -59q-88 -30 -167 -30q-230 0 -230 255q0 114 59 187t160 73q97 0 145 -57t48 -146l-2 -53h-332q-1 -101 39 -149t123 -48q71 0 146 27zM124 305h255q1 68 -31 105.5t-90 37.5q-53 0 -89.5 -37.5t-44.5 -105.5zM310 658q0 -21 -15 -35.5t-35 -14.5
q-21 0 -36 14.5t-15 35.5t15 36t36 15q20 0 35 -14.5t15 -36.5z" />
    <glyph glyph-name="Eogonek" unicode="&#x118;" horiz-adv-x="514" 
d="M442 -148l25 -43q-47 -42 -106 -42q-47 0 -73.5 23.5t-26.5 63.5q0 42 26 82.5t63 63.5h-259v675h351v-62h-274v-234h252v-62h-252v-253h274v-60q-44 -18 -76 -58.5t-32 -77.5q0 -42 41 -42q30 0 67 26z" />
    <glyph glyph-name="eogonek" unicode="&#x119;" horiz-adv-x="505" 
d="M430 80l11 -58q-54 -17 -98.5 -62.5t-44.5 -91.5q0 -42 42 -42q31 0 66 26l25 -43q-47 -42 -105 -42q-48 0 -74.5 23.5t-26.5 63.5q0 78 80 140q-20 -2 -38 -2q-106 0 -164.5 62t-58.5 192q0 114 59 187t160 73q97 0 145 -57t48 -146l-2 -53h-332q-1 -101 39 -149
t123 -48q71 0 146 27zM124 305h255q1 68 -31 105.5t-90 37.5q-53 0 -89.5 -37.5t-44.5 -105.5z" />
    <glyph glyph-name="Ecaron" unicode="&#x11a;" horiz-adv-x="514" 
d="M442 0h-351v675h351v-62h-274v-234h252v-62h-252v-253h274v-64zM414 810l-157 -83l-155 82l23 45l133 -62l134 62z" />
    <glyph glyph-name="ecaron" unicode="&#x11b;" horiz-adv-x="505" 
d="M430 80l11 -59q-88 -30 -167 -30q-230 0 -230 255q0 114 59 187t160 73q97 0 145 -57t48 -146l-2 -53h-332q-1 -101 39 -149t123 -48q71 0 146 27zM124 305h255q1 68 -31 105.5t-90 37.5q-53 0 -89.5 -37.5t-44.5 -105.5zM392 704l-134 -129l-132 127l34 38l99 -86
l100 86z" />
    <glyph glyph-name="Gcircumflex" unicode="&#x11c;" horiz-adv-x="685" 
d="M599 340v-311q-103 -38 -220 -38q-156 0 -244.5 88t-88.5 244q0 161 92.5 261t265.5 100q90 0 185 -29l-17 -70q-87 34 -177 34q-69 0 -122 -23t-84 -63.5t-46.5 -90.5t-15.5 -107q0 -133 70 -205.5t194 -72.5q69 0 131 20v263h77zM536 773l-23 -46l-133 62l-134 -62
l-22 45l157 82z" />
    <glyph glyph-name="gcircumflex" unicode="&#x11d;" horiz-adv-x="531" 
d="M495 438h-81q35 -43 35 -101q0 -80 -52.5 -132t-146.5 -52q-32 0 -59 6q-32 -20 -32 -45q0 -37 80 -40l83 -3q90 -3 135 -41t45 -104q0 -82 -69.5 -132.5t-184.5 -50.5q-98 0 -153.5 38.5t-55.5 108.5q0 82 87 139q-44 23 -44 70t53 83q-73 47 -73 140q0 80 52.5 132
t146.5 52q35 0 67 -9h167v-59zM216 9q-10 0 -26 2q-73 -46 -73 -108q0 -49 38.5 -75t104.5 -26q80 0 123 31.5t43 82.5q0 86 -124 90zM375 329q0 53 -32 86t-88 33q-55 0 -87 -33t-32 -86t32 -86t87 -33q56 0 88 33t32 86zM391 612l-34 -37l-99 86l-100 -86l-33 36l134 129z
" />
    <glyph glyph-name="Gbreve" unicode="&#x11e;" horiz-adv-x="685" 
d="M599 340v-311q-103 -38 -220 -38q-156 0 -244.5 88t-88.5 244q0 161 92.5 261t265.5 100q90 0 185 -29l-17 -70q-87 34 -177 34q-69 0 -122 -23t-84 -63.5t-46.5 -90.5t-15.5 -107q0 -133 70 -205.5t194 -72.5q69 0 131 20v263h77zM458 849h51q0 -51 -34.5 -83.5
t-91.5 -32.5q-59 0 -91 32.5t-32 83.5h50q0 -27 21 -45t53 -18q33 0 53.5 18t20.5 45z" />
    <glyph glyph-name="gbreve" unicode="&#x11f;" horiz-adv-x="531" 
d="M495 438h-81q35 -43 35 -101q0 -80 -52.5 -132t-146.5 -52q-32 0 -59 6q-32 -20 -32 -45q0 -37 80 -40l83 -3q90 -3 135 -41t45 -104q0 -82 -69.5 -132.5t-184.5 -50.5q-98 0 -153.5 38.5t-55.5 108.5q0 82 87 139q-44 23 -44 70t53 83q-73 47 -73 140q0 80 52.5 132
t146.5 52q35 0 67 -9h167v-59zM216 9q-10 0 -26 2q-73 -46 -73 -108q0 -49 38.5 -75t104.5 -26q80 0 123 31.5t43 82.5q0 86 -124 90zM375 329q0 53 -32 86t-88 33q-55 0 -87 -33t-32 -86t32 -86t87 -33q56 0 88 33t32 86zM331 717h53q0 -54 -30.5 -90.5t-90.5 -36.5
t-89.5 36.5t-29.5 90.5h52q0 -30 18 -50t50 -20q31 0 49 18.5t18 51.5z" />
    <glyph glyph-name="Gdotaccent" unicode="&#x120;" horiz-adv-x="685" 
d="M599 340v-311q-103 -38 -220 -38q-156 0 -244.5 88t-88.5 244q0 161 92.5 261t265.5 100q90 0 185 -29l-17 -70q-87 34 -177 34q-69 0 -122 -23t-84 -63.5t-46.5 -90.5t-15.5 -107q0 -133 70 -205.5t194 -72.5q69 0 131 20v263h77zM428 784q0 -21 -15 -36t-35 -15
q-21 0 -36 14.5t-15 36.5q0 21 15 36t36 15q20 0 35 -14.5t15 -36.5z" />
    <glyph glyph-name="gdotaccent" unicode="&#x121;" horiz-adv-x="531" 
d="M495 438h-81q35 -43 35 -101q0 -80 -52.5 -132t-146.5 -52q-32 0 -59 6q-32 -20 -32 -45q0 -37 80 -40l83 -3q90 -3 135 -41t45 -104q0 -82 -69.5 -132.5t-184.5 -50.5q-98 0 -153.5 38.5t-55.5 108.5q0 82 87 139q-44 23 -44 70t53 83q-73 47 -73 140q0 80 52.5 132
t146.5 52q35 0 67 -9h167v-59zM216 9q-10 0 -26 2q-73 -46 -73 -108q0 -49 38.5 -75t104.5 -26q80 0 123 31.5t43 82.5q0 86 -124 90zM375 329q0 53 -32 86t-88 33q-55 0 -87 -33t-32 -86t32 -86t87 -33q56 0 88 33t32 86zM307 658q0 -21 -15 -35.5t-35 -14.5
q-21 0 -36 14.5t-15 35.5t15 36t36 15t35.5 -14.5t14.5 -36.5z" />
    <glyph glyph-name="Gcommaaccent" unicode="&#x122;" horiz-adv-x="685" 
d="M599 340v-311q-103 -38 -220 -38q-156 0 -244.5 88t-88.5 244q0 161 92.5 261t265.5 100q90 0 185 -29l-17 -70q-87 34 -177 34q-69 0 -122 -23t-84 -63.5t-46.5 -90.5t-15.5 -107q0 -133 70 -205.5t194 -72.5q69 0 131 20v263h77zM316 -239l-24 28q45 37 45 73
q0 12 -7 24t-7 22q0 17 12 29.5t31 12.5q21 0 34.5 -15.5t13.5 -38.5q0 -68 -98 -135z" />
    <glyph glyph-name="gcommaaccent" unicode="&#x123;" horiz-adv-x="531" 
d="M495 438h-81q35 -43 35 -101q0 -80 -52.5 -132t-146.5 -52q-32 0 -59 6q-32 -20 -32 -45q0 -37 80 -40l83 -3q90 -3 135 -41t45 -104q0 -82 -69.5 -132.5t-184.5 -50.5q-98 0 -153.5 38.5t-55.5 108.5q0 82 87 139q-44 23 -44 70t53 83q-73 47 -73 140q0 80 52.5 132
t146.5 52q35 0 67 -9h167v-59zM216 9q-10 0 -26 2q-73 -46 -73 -108q0 -49 38.5 -75t104.5 -26q80 0 123 31.5t43 82.5q0 86 -124 90zM375 329q0 53 -32 86t-88 33q-55 0 -87 -33t-32 -86t32 -86t87 -33q56 0 88 33t32 86zM309 757l23 -29q-45 -37 -45 -72q0 -12 7 -24
t7 -23q0 -18 -12.5 -30t-30.5 -12q-19 0 -33 15t-14 40q0 70 98 135z" />
    <glyph glyph-name="Hcircumflex" unicode="&#x124;" horiz-adv-x="702" 
d="M611 0h-76v318h-367v-318h-77v675h77v-293h367v293h76v-675zM508 773l-23 -46l-133 62l-134 -62l-22 45l157 82z" />
    <glyph glyph-name="hcircumflex" unicode="&#x125;" horiz-adv-x="577" 
d="M486 0h-75v321q0 62 -20.5 92.5t-72.5 30.5q-66 0 -109 -58.5t-43 -147.5v-238h-75v730h75v-244q0 -66 -8 -99l2 -1q22 56 68 88t109 32q149 0 149 -160v-346zM443 805l-23 -46l-133 62l-134 -62l-22 45l157 82z" />
    <glyph glyph-name="Hbar" unicode="&#x126;" horiz-adv-x="722" 
d="M621 560h80v-62h-80v-498h-76v314h-367v-314h-77v498h-80v62h80v115h77v-115h367v115h76v-115zM545 498h-367v-123h367v123z" />
    <glyph glyph-name="hbar" unicode="&#x127;" horiz-adv-x="579" 
d="M488 0h-75v321q0 61 -21 91.5t-73 30.5q-66 0 -108.5 -58.5t-42.5 -147.5v-237h-75v588h-93v59h93v83h75v-83h141v-59h-141v-106q0 -60 -9 -96l2 -1q22 56 68 88t109 32q150 0 150 -160v-345z" />
    <glyph glyph-name="Itilde" unicode="&#x128;" horiz-adv-x="259" 
d="M168 0h-77v675h77v-675zM262 837l40 -29q-40 -70 -107 -70q-36 0 -75 27t-59 27q-36 0 -64 -46l-40 29q39 70 107 70q36 0 75 -27t59 -27q35 0 64 46z" />
    <glyph glyph-name="itilde" unicode="&#x129;" horiz-adv-x="257" 
d="M166 0h-75v497h75v-497zM232 702l38 -29q-32 -69 -92 -69q-26 0 -59 23.5t-44 23.5q-30 0 -48 -42l-38 28q30 71 92 71q26 0 59.5 -24t44.5 -24q27 0 47 42z" />
    <glyph glyph-name="Imacron" unicode="&#x12a;" horiz-adv-x="259" 
d="M168 0h-77v675h77v-675zM264 751h-269v54h269v-54z" />
    <glyph glyph-name="imacron" unicode="&#x12b;" horiz-adv-x="257" 
d="M166 0h-75v497h75v-497zM243 623h-229v57h229v-57z" />
    <glyph glyph-name="Ibreve" unicode="&#x12c;" horiz-adv-x="259" 
d="M168 0h-77v675h77v-675zM203 849h51q0 -51 -34.5 -83.5t-91.5 -32.5q-59 0 -91 32.5t-32 83.5h50q0 -27 21 -45t53 -18q33 0 53.5 18t20.5 45z" />
    <glyph glyph-name="ibreve" unicode="&#x12d;" horiz-adv-x="257" 
d="M166 0h-75v497h75v-497zM188 717h54q0 -61 -30 -94t-84 -33t-82.5 33t-28.5 94h52q0 -29 16 -49.5t44 -20.5t43.5 19t15.5 51z" />
    <glyph glyph-name="Iogonek" unicode="&#x12e;" horiz-adv-x="259" 
d="M200 -148l25 -43q-47 -42 -105 -42q-48 0 -74.5 23.5t-26.5 63.5q0 70 72 148v673h77v-675q-76 -68 -76 -132q0 -42 42 -42q29 0 66 26z" />
    <glyph glyph-name="iogonek" unicode="&#x12f;" horiz-adv-x="257" 
d="M181 657q0 -21 -15.5 -36t-36.5 -15q-22 0 -37 14.5t-15 36.5q0 21 15 36t37 15q21 0 36.5 -15t15.5 -36zM166 497v-497q-74 -69 -74 -132q0 -42 41 -42q30 0 67 26l25 -43q-47 -42 -106 -42q-47 0 -73.5 23.5t-26.5 63.5q0 70 72 148v495h75z" />
    <glyph glyph-name="Idotaccent" unicode="&#x130;" horiz-adv-x="259" 
d="M168 0h-77v675h77v-675zM180 782q0 -21 -15 -36t-35 -15q-21 0 -36 14.5t-15 36.5q0 21 15 36t36 15q20 0 35 -14.5t15 -36.5z" />
    <glyph glyph-name="dotlessi" unicode="&#x131;" horiz-adv-x="257" 
d="M166 0h-75v497h75v-497z" />
    <glyph glyph-name="IJ" unicode="&#x132;" horiz-adv-x="604" 
d="M168 0h-77v675h77v-675zM513 675v-503q0 -179 -173 -179q-40 0 -80 8v69q33 -12 81 -12q47 0 71.5 26t24.5 93v498h76z" />
    <glyph glyph-name="ij" unicode="&#x133;" horiz-adv-x="521" 
d="M181 657q0 -21 -15.5 -36t-36.5 -15q-22 0 -37 14.5t-15 36.5q0 21 15 36t37 15q21 0 36.5 -15t15.5 -36zM166 0h-75v497h75v-497zM445 657q0 -21 -15 -36t-37 -15q-21 0 -36 14.5t-15 36.5q0 21 15 36t36 15q22 0 37 -14.5t15 -36.5zM430 497v-560q0 -101 -36 -147
t-120 -46q-18 0 -36.5 2t-27.5 4l-10 2l7 66q32 -11 72 -11q43 0 60 26.5t17 98.5v565h74z" />
    <glyph glyph-name="Jcircumflex" unicode="&#x134;" horiz-adv-x="345" 
d="M254 675v-503q0 -179 -173 -179q-40 0 -80 8v69q33 -12 81 -12q47 0 71.5 26t24.5 93v498h76zM369 773l-23 -46l-133 62l-134 -62l-22 45l157 82z" />
    <glyph glyph-name="jcircumflex" unicode="&#x135;" horiz-adv-x="265" 
d="M173 497v-560q0 -101 -36 -147t-120 -46q-18 0 -36.5 2t-28.5 4l-9 2l7 66q32 -11 72 -11q43 0 60 26.5t17 98.5v565h74zM257 611l-35 -36l-86 86l-87 -86l-33 35l121 129z" />
    <glyph glyph-name="Kcommaaccent" unicode="&#x136;" horiz-adv-x="579" 
d="M561 0h-106l-287 339v-339h-77v675h77v-323l288 323h93l-299 -325zM247 -239l-24 28q45 37 45 73q0 12 -7 24t-7 22q0 17 12 29.5t31 12.5q21 0 34.5 -15.5t13.5 -38.5q0 -68 -98 -135z" />
    <glyph glyph-name="kcommaaccent" unicode="&#x137;" horiz-adv-x="482" 
d="M459 0h-97l-196 261v-261h-75v730h75v-456l187 223h87l-195 -224zM200 -239l-24 28q45 37 45 73q0 12 -7 24t-7 22q0 17 12 29.5t31 12.5q21 0 34.5 -15.5t13.5 -38.5q0 -68 -98 -135z" />
    <glyph glyph-name="kgreenlandic" unicode="&#x138;" horiz-adv-x="482" 
d="M455 0h-97l-192 254v-254h-75v497h75v-229l192 229h87l-200 -230z" />
    <glyph glyph-name="Lacute" unicode="&#x139;" horiz-adv-x="425" 
d="M418 0h-327v675h77v-611h250v-64zM340 786l-180 -57l-16 44l172 74z" />
    <glyph glyph-name="lacute" unicode="&#x13a;" horiz-adv-x="257" 
d="M166 0h-75v730h75v-730zM281 846l-180 -57l-16 44l172 74z" />
    <glyph glyph-name="Lcommaaccent" unicode="&#x13b;" horiz-adv-x="425" 
d="M418 0h-327v675h77v-611h250v-64zM207 -239l-24 28q45 37 45 73q0 12 -7 24t-7 22q0 17 12 29.5t31 12.5q21 0 34.5 -15.5t13.5 -38.5q0 -68 -98 -135z" />
    <glyph glyph-name="lcommaaccent" unicode="&#x13c;" horiz-adv-x="257" 
d="M166 0h-75v730h75v-730zM80 -239l-24 28q45 37 45 73q0 12 -7 24t-7 22q0 17 12 29.5t31 12.5q21 0 34.5 -15.5t13.5 -38.5q0 -68 -98 -135z" />
    <glyph glyph-name="Lcaron" unicode="&#x13d;" horiz-adv-x="427" 
d="M418 0h-327v675h77v-611h250v-64zM404 753l-116 -139l-44 29l104 146z" />
    <glyph glyph-name="lcaron" unicode="&#x13e;" horiz-adv-x="279" 
d="M166 0h-75v730h75v-730zM342 737l-70 -168l-51 16l57 171z" />
    <glyph glyph-name="Ldot" unicode="&#x13f;" horiz-adv-x="546" 
d="M418 0h-327v675h77v-611h250v-64zM480 347q0 -24 -16.5 -40.5t-40.5 -16.5t-40.5 16.5t-16.5 40.5t16.5 40.5t40.5 16.5t40.5 -16.5t16.5 -40.5z" />
    <glyph glyph-name="ldot" unicode="&#x140;" horiz-adv-x="370" 
d="M166 0h-75v730h75v-730zM370 297q0 -24 -16.5 -40.5t-40.5 -16.5t-40.5 16.5t-16.5 40.5t16.5 40.5t40.5 16.5t40.5 -16.5t16.5 -40.5z" />
    <glyph glyph-name="Lslash" unicode="&#x141;" horiz-adv-x="434" 
d="M427 0h-327v362l-83 -38l-18 57l101 46v248h76v-212l116 53l18 -57l-134 -61v-334h251v-64z" />
    <glyph glyph-name="lslash" unicode="&#x142;" horiz-adv-x="288" 
d="M278 473l-94 -54v-419h-75v378l-67 -39l-20 53l87 50v288h75v-246l73 42z" />
    <glyph glyph-name="Nacute" unicode="&#x143;" horiz-adv-x="694" 
d="M603 0h-85l-285 459q-45 74 -74 134q7 -180 7 -401v-192h-75v675h102l281 -450q34 -56 61 -114q-7 157 -7 391v173h75v-675zM510 786l-180 -57l-16 44l172 74z" />
    <glyph glyph-name="nacute" unicode="&#x144;" horiz-adv-x="577" 
d="M486 0h-75v321q0 62 -20.5 92.5t-72.5 30.5q-66 0 -109 -58.5t-43 -147.5v-238h-75v497h74q0 -63 -8 -111l2 -1q22 56 68 88.5t110 32.5q149 0 149 -160v-346zM428 701l-132 -128l-38 36l121 138z" />
    <glyph glyph-name="Ncommaaccent" unicode="&#x145;" horiz-adv-x="694" 
d="M603 0h-85l-285 459q-45 74 -74 134q7 -180 7 -401v-192h-75v675h102l281 -450q34 -56 61 -114q-7 157 -7 391v173h75v-675zM299 -239l-24 28q45 37 45 73q0 12 -7 24t-7 22q0 17 12 29.5t31 12.5q21 0 34.5 -15.5t13.5 -38.5q0 -68 -98 -135z" />
    <glyph glyph-name="ncommaaccent" unicode="&#x146;" horiz-adv-x="577" 
d="M486 0h-75v321q0 62 -20.5 92.5t-72.5 30.5q-66 0 -109 -58.5t-43 -147.5v-238h-75v497h74q0 -63 -8 -111l2 -1q22 56 68 88.5t110 32.5q149 0 149 -160v-346zM243 -239l-24 28q45 37 45 73q0 12 -7 24t-7 22q0 17 12 29.5t31 12.5q21 0 34.5 -15.5t13.5 -38.5
q0 -68 -98 -135z" />
    <glyph glyph-name="Ncaron" unicode="&#x147;" horiz-adv-x="694" 
d="M603 0h-85l-285 459q-45 74 -74 134q7 -180 7 -401v-192h-75v675h102l281 -450q34 -56 61 -114q-7 157 -7 391v173h75v-675zM511 810l-157 -83l-155 82l23 45l133 -62l134 62z" />
    <glyph glyph-name="ncaron" unicode="&#x148;" horiz-adv-x="577" 
d="M486 0h-75v321q0 62 -20.5 92.5t-72.5 30.5q-66 0 -109 -58.5t-43 -147.5v-238h-75v497h74q0 -63 -8 -111l2 -1q22 56 68 88.5t110 32.5q149 0 149 -160v-346zM426 704l-134 -129l-132 127l34 38l99 -86l100 86z" />
    <glyph glyph-name="napostrophe" unicode="&#x149;" horiz-adv-x="653" 
d="M561 0h-75v321q0 62 -20.5 92.5t-72.5 30.5q-66 0 -109 -58.5t-43 -147.5v-238h-75v497h74q0 -63 -8 -111l2 -1q22 56 68 88.5t110 32.5q149 0 149 -160v-346zM52 506l-31 28q79 85 43 135q-17 23 -5 47.5t40 24.5q32 0 46 -31t-8 -88t-85 -116z" />
    <glyph glyph-name="Eng" unicode="&#x14a;" horiz-adv-x="694" 
d="M603 675v-668q0 -132 -46 -188t-142 -76l-16 59q67 14 98 53.5t31 136.5l-294 463q-47 74 -75 132q7 -108 7 -397v-190h-75v675h95l286 -449q37 -56 63 -110q-7 158 -7 386v173h75z" />
    <glyph glyph-name="eng" unicode="&#x14b;" horiz-adv-x="577" 
d="M303 -200l-16 58q56 14 82 40q27 27 37 79t10 198v20q0 146 -24 197.5t-83 51.5q-60 0 -101.5 -56.5t-41.5 -134.5v-253h-75v497h74q0 -64 -8 -110h1q21 54 66 86.5t103 32.5q89 0 126.5 -64.5t37.5 -222.5v-16q0 -171 -15 -239t-53 -106q-39 -37 -120 -58z" />
    <glyph glyph-name="Omacron" unicode="&#x14c;" horiz-adv-x="708" 
d="M662 346q0 -166 -90.5 -260.5t-226.5 -94.5q-143 0 -221 91t-78 247q0 166 90.5 260.5t226.5 94.5q143 0 221 -91t78 -247zM582 333q0 131 -58.5 208t-169.5 77q-99 0 -163.5 -72.5t-64.5 -202.5q0 -131 59 -208.5t169 -77.5q99 0 163.5 73t64.5 203zM490 751h-269v54
h269v-54z" />
    <glyph glyph-name="omacron" unicode="&#x14d;" horiz-adv-x="542" 
d="M499 254q0 -114 -62 -188.5t-174 -74.5q-103 0 -161.5 63.5t-58.5 188.5q0 114 62.5 188.5t174.5 74.5q102 0 160.5 -63.5t58.5 -188.5zM422 249q0 92 -40 143.5t-110 51.5t-110.5 -50.5t-40.5 -145.5q0 -92 39.5 -143t109.5 -51q68 0 110 48.5t42 146.5zM397 623h-245
v57h245v-57z" />
    <glyph glyph-name="Obreve" unicode="&#x14e;" horiz-adv-x="708" 
d="M662 346q0 -166 -90.5 -260.5t-226.5 -94.5q-143 0 -221 91t-78 247q0 166 90.5 260.5t226.5 94.5q143 0 221 -91t78 -247zM582 333q0 131 -58.5 208t-169.5 77q-99 0 -163.5 -72.5t-64.5 -202.5q0 -131 59 -208.5t169 -77.5q99 0 163.5 73t64.5 203zM428 849h51
q0 -51 -34.5 -83.5t-91.5 -32.5q-59 0 -91 32.5t-32 83.5h50q0 -27 21 -45t53 -18q33 0 53.5 18t20.5 45z" />
    <glyph glyph-name="obreve" unicode="&#x14f;" horiz-adv-x="542" 
d="M499 254q0 -114 -62 -188.5t-174 -74.5q-103 0 -161.5 63.5t-58.5 188.5q0 114 62.5 188.5t174.5 74.5q102 0 160.5 -63.5t58.5 -188.5zM422 249q0 92 -40 143.5t-110 51.5t-110.5 -50.5t-40.5 -145.5q0 -92 39.5 -143t109.5 -51q68 0 110 48.5t42 146.5zM338 717h53
q0 -54 -30.5 -90.5t-90.5 -36.5t-89.5 36.5t-29.5 90.5h52q0 -30 18 -50t50 -20q31 0 49 18.5t18 51.5z" />
    <glyph glyph-name="Ohungarumlaut" unicode="&#x150;" horiz-adv-x="708" 
d="M662 346q0 -166 -90.5 -260.5t-226.5 -94.5q-143 0 -221 91t-78 247q0 166 90.5 260.5t226.5 94.5q143 0 221 -91t78 -247zM582 333q0 131 -58.5 208t-169.5 77q-99 0 -163.5 -72.5t-64.5 -202.5q0 -131 59 -208.5t169 -77.5q99 0 163.5 73t64.5 203zM581 838l-135 -110
l-37 36l126 120zM395 841l-118 -113l-38 36l108 122z" />
    <glyph glyph-name="ohungarumlaut" unicode="&#x151;" horiz-adv-x="542" 
d="M499 254q0 -114 -62 -188.5t-174 -74.5q-103 0 -161.5 63.5t-58.5 188.5q0 114 62.5 188.5t174.5 74.5q102 0 160.5 -63.5t58.5 -188.5zM422 249q0 92 -40 143.5t-110 51.5t-110.5 -50.5t-40.5 -145.5q0 -92 39.5 -143t109.5 -51q68 0 110 48.5t42 146.5zM502 695
l-133 -120l-38 34l123 129zM326 701l-124 -126l-38 34l113 134z" />
    <glyph glyph-name="OE" unicode="&#x152;" horiz-adv-x="875" 
d="M800 0h-335q-56 -9 -120 -9q-143 0 -221 91t-78 247q0 166 90.5 260.5t226.5 94.5q61 0 107 -9h330v-62h-263v-234h251v-62h-251v-253h263v-64zM461 69v535q-48 14 -107 14q-99 0 -163.5 -72.5t-64.5 -202.5q0 -131 59 -208.5t169 -77.5q54 0 107 12z" />
    <glyph glyph-name="oe" unicode="&#x153;" horiz-adv-x="878" 
d="M803 80l11 -59q-87 -30 -167 -30q-146 0 -194 108q-58 -108 -190 -108q-103 0 -161.5 63.5t-58.5 188.5q0 114 62.5 188.5t174.5 74.5q130 0 182 -103q55 103 174 103q98 0 146 -56.5t48 -144.5l-2 -50h-332q-7 -202 161 -202q73 0 146 27zM498 310h254q1 64 -31 101
t-89 37q-53 0 -89 -36.5t-45 -101.5zM422 249q0 92 -40 143.5t-110 51.5t-110.5 -50.5t-40.5 -145.5q0 -92 39.5 -143t109.5 -51q68 0 110 48.5t42 146.5z" />
    <glyph glyph-name="Racute" unicode="&#x154;" horiz-adv-x="564" 
d="M536 0h-96l-218 300h-54v-300h-77v674q87 4 167 4q107 0 169.5 -44t62.5 -135q0 -85 -52.5 -133.5t-134.5 -58.5q30 -34 57 -71zM168 614v-255q41 -1 78 -1q79 0 121.5 34.5t42.5 96.5t-41.5 95t-118.5 33zM404 786l-180 -57l-16 44l172 74z" />
    <glyph glyph-name="racute" unicode="&#x155;" horiz-adv-x="354" 
d="M331 505l-3 -74q-81 14 -121.5 -45.5t-40.5 -186.5v-199h-75v497h74q0 -61 -12 -125l2 -1q17 63 60.5 102.5t115.5 31.5zM344 701l-132 -128l-38 36l121 138z" />
    <glyph glyph-name="Rcommaaccent" unicode="&#x156;" horiz-adv-x="564" 
d="M536 0h-96l-218 300h-54v-300h-77v674q87 4 167 4q107 0 169.5 -44t62.5 -135q0 -85 -52.5 -133.5t-134.5 -58.5q30 -34 57 -71zM168 614v-255q41 -1 78 -1q79 0 121.5 34.5t42.5 96.5t-41.5 95t-118.5 33zM235 -239l-24 28q45 37 45 73q0 12 -7 24t-7 22q0 17 12 29.5
t31 12.5q21 0 34.5 -15.5t13.5 -38.5q0 -68 -98 -135z" />
    <glyph glyph-name="rcommaaccent" unicode="&#x157;" horiz-adv-x="354" 
d="M331 505l-3 -74q-81 14 -121.5 -45.5t-40.5 -186.5v-199h-75v497h74q0 -61 -12 -125l2 -1q17 63 60.5 102.5t115.5 31.5zM87 -239l-24 28q45 37 45 73q0 12 -7 24t-7 22q0 17 12 29.5t31 12.5q21 0 34.5 -15.5t13.5 -38.5q0 -68 -98 -135z" />
    <glyph glyph-name="Rcaron" unicode="&#x158;" horiz-adv-x="564" 
d="M536 0h-96l-218 300h-54v-300h-77v674q87 4 167 4q107 0 169.5 -44t62.5 -135q0 -85 -52.5 -133.5t-134.5 -58.5q30 -34 57 -71zM168 614v-255q41 -1 78 -1q79 0 121.5 34.5t42.5 96.5t-41.5 95t-118.5 33zM415 810l-157 -83l-155 82l23 45l133 -62l134 62z" />
    <glyph glyph-name="rcaron" unicode="&#x159;" horiz-adv-x="354" 
d="M331 505l-3 -74q-81 14 -121.5 -45.5t-40.5 -186.5v-199h-75v497h74q0 -61 -12 -125l2 -1q17 63 60.5 102.5t115.5 31.5zM344 704l-134 -129l-132 127l34 38l99 -86l100 86z" />
    <glyph glyph-name="Sacute" unicode="&#x15a;" horiz-adv-x="504" 
d="M405 671l-9 -69q-59 18 -118 18q-71 0 -108 -29t-37 -81q0 -32 17.5 -56t45.5 -39.5t61.5 -29.5t67.5 -30t62 -36.5t45.5 -54t17.5 -77.5q0 -87 -64 -141.5t-179 -54.5q-79 0 -149 20l11 73q68 -26 143 -26q158 0 158 121q0 33 -17.5 57.5t-45 40t-61 29.5t-67.5 30
t-61.5 36.5t-45 53.5t-17.5 77q0 81 61 131t168 50q61 0 121 -13zM407 786l-180 -57l-16 44l172 74z" />
    <glyph glyph-name="sacute" unicode="&#x15b;" horiz-adv-x="428" 
d="M343 496l-7 -64q-50 15 -100 15q-52 0 -79 -20t-27 -55q0 -32 25 -52t61 -31t72.5 -25t61.5 -45t25 -79q0 -64 -53 -106.5t-147 -42.5q-63 0 -119 14l7 69q56 -21 120 -21q55 0 85 21.5t30 59.5q0 32 -25 52t-61 31t-72 25t-61 44.5t-25 79.5q0 61 50 100.5t140 39.5
q47 0 99 -10zM329 701l-132 -128l-38 36l121 138z" />
    <glyph glyph-name="Scircumflex" unicode="&#x15c;" horiz-adv-x="504" 
d="M405 671l-9 -69q-59 18 -118 18q-71 0 -108 -29t-37 -81q0 -32 17.5 -56t45.5 -39.5t61.5 -29.5t67.5 -30t62 -36.5t45.5 -54t17.5 -77.5q0 -87 -64 -141.5t-179 -54.5q-79 0 -149 20l11 73q68 -26 143 -26q158 0 158 121q0 33 -17.5 57.5t-45 40t-61 29.5t-67.5 30
t-61.5 36.5t-45 53.5t-17.5 77q0 81 61 131t168 50q61 0 121 -13zM416 773l-23 -46l-133 62l-134 -62l-22 45l157 82z" />
    <glyph glyph-name="scircumflex" unicode="&#x15d;" horiz-adv-x="428" 
d="M343 496l-7 -64q-50 15 -100 15q-52 0 -79 -20t-27 -55q0 -32 25 -52t61 -31t72.5 -25t61.5 -45t25 -79q0 -64 -53 -106.5t-147 -42.5q-63 0 -119 14l7 69q56 -21 120 -21q55 0 85 21.5t30 59.5q0 32 -25 52t-61 31t-72 25t-61 44.5t-25 79.5q0 61 50 100.5t140 39.5
q47 0 99 -10zM346 612l-34 -37l-99 86l-100 -86l-33 36l134 129z" />
    <glyph glyph-name="Scedilla" unicode="&#x15e;" horiz-adv-x="504" 
d="M405 671l-9 -69q-59 18 -118 18q-71 0 -108 -29t-37 -81q0 -32 17.5 -56t45.5 -39.5t61.5 -29.5t67.5 -30t62 -36.5t45.5 -54t17.5 -77.5q0 -87 -64 -141.5t-179 -54.5q-79 0 -149 20l11 73q68 -26 143 -26q158 0 158 121q0 33 -17.5 57.5t-45 40t-61 29.5t-67.5 30
t-61.5 36.5t-45 53.5t-17.5 77q0 81 61 131t168 50q61 0 121 -13zM197 -69l67 28q67 -88 -23 -194h-63q28 35 39.5 60.5t7 51.5t-27.5 54z" />
    <glyph glyph-name="Scedilla" unicode="&#xf6c1;" horiz-adv-x="504" 
d="M405 671l-9 -69q-59 18 -118 18q-71 0 -108 -29t-37 -81q0 -32 17.5 -56t45.5 -39.5t61.5 -29.5t67.5 -30t62 -36.5t45.5 -54t17.5 -77.5q0 -87 -64 -141.5t-179 -54.5q-79 0 -149 20l11 73q68 -26 143 -26q158 0 158 121q0 33 -17.5 57.5t-45 40t-61 29.5t-67.5 30
t-61.5 36.5t-45 53.5t-17.5 77q0 81 61 131t168 50q61 0 121 -13zM197 -69l67 28q67 -88 -23 -194h-63q28 35 39.5 60.5t7 51.5t-27.5 54z" />
    <glyph glyph-name="scedilla" unicode="&#x15f;" horiz-adv-x="428" 
d="M343 496l-7 -64q-50 15 -100 15q-52 0 -79 -20t-27 -55q0 -32 25 -52t61 -31t72.5 -25t61.5 -45t25 -79q0 -64 -53 -106.5t-147 -42.5q-63 0 -119 14l7 69q56 -21 120 -21q55 0 85 21.5t30 59.5q0 32 -25 52t-61 31t-72 25t-61 44.5t-25 79.5q0 61 50 100.5t140 39.5
q47 0 99 -10zM163 -69l67 28q67 -88 -23 -194h-63q28 35 39.5 60.5t7 51.5t-27.5 54z" />
    <glyph glyph-name="scedilla" unicode="&#xf6c2;" horiz-adv-x="428" 
d="M343 496l-7 -64q-50 15 -100 15q-52 0 -79 -20t-27 -55q0 -32 25 -52t61 -31t72.5 -25t61.5 -45t25 -79q0 -64 -53 -106.5t-147 -42.5q-63 0 -119 14l7 69q56 -21 120 -21q55 0 85 21.5t30 59.5q0 32 -25 52t-61 31t-72 25t-61 44.5t-25 79.5q0 61 50 100.5t140 39.5
q47 0 99 -10zM163 -69l67 28q67 -88 -23 -194h-63q28 35 39.5 60.5t7 51.5t-27.5 54z" />
    <glyph glyph-name="Scaron" unicode="&#x160;" horiz-adv-x="504" 
d="M405 671l-9 -69q-59 18 -118 18q-71 0 -108 -29t-37 -81q0 -32 17.5 -56t45.5 -39.5t61.5 -29.5t67.5 -30t62 -36.5t45.5 -54t17.5 -77.5q0 -87 -64 -141.5t-179 -54.5q-79 0 -149 20l11 73q68 -26 143 -26q158 0 158 121q0 33 -17.5 57.5t-45 40t-61 29.5t-67.5 30
t-61.5 36.5t-45 53.5t-17.5 77q0 81 61 131t168 50q61 0 121 -13zM409 810l-157 -83l-155 82l23 45l133 -62l134 62z" />
    <glyph glyph-name="scaron" unicode="&#x161;" horiz-adv-x="428" 
d="M343 496l-7 -64q-50 15 -100 15q-52 0 -79 -20t-27 -55q0 -32 25 -52t61 -31t72.5 -25t61.5 -45t25 -79q0 -64 -53 -106.5t-147 -42.5q-63 0 -119 14l7 69q56 -21 120 -21q55 0 85 21.5t30 59.5q0 32 -25 52t-61 31t-72 25t-61 44.5t-25 79.5q0 61 50 100.5t140 39.5
q47 0 99 -10zM348 704l-134 -129l-132 127l34 38l99 -86l100 86z" />
    <glyph glyph-name="uni0162" unicode="&#x162;" horiz-adv-x="519" 
d="M500 611h-203v-611h-76v611h-202v64h481v-64zM221 -69l67 28q67 -88 -23 -194h-63q28 35 39.5 60.5t7 51.5t-27.5 54z" />
    <glyph glyph-name="uni0163" unicode="&#x163;" horiz-adv-x="370" 
d="M330 65l6 -62q-50 -11 -94 -11q-72 0 -100.5 34t-28.5 114v298h-106v59h106v165l75 21v-186h145v-59h-145v-277q0 -61 15 -82.5t58 -21.5q37 0 69 8zM177 -69l67 28q67 -88 -23 -194h-63q28 35 39.5 60.5t7 51.5t-27.5 54z" />
    <glyph glyph-name="Tcaron" unicode="&#x164;" horiz-adv-x="519" 
d="M500 611h-203v-611h-76v611h-202v64h481v-64zM414 810l-157 -83l-155 82l23 45l133 -62l134 62z" />
    <glyph glyph-name="tcaron" unicode="&#x165;" horiz-adv-x="373" 
d="M330 65l6 -62q-50 -11 -94 -11q-72 0 -100.5 34t-28.5 114v298h-106v59h106v165l75 21v-186h145v-59h-145v-277q0 -61 15 -82.5t58 -21.5q37 0 69 8zM371 737l-70 -168l-51 16l57 171z" />
    <glyph glyph-name="Tbar" unicode="&#x166;" horiz-adv-x="519" 
d="M221 379v232h-202v64h481v-64h-203v-232h121v-62h-121v-317h-76v317h-120v62h120z" />
    <glyph glyph-name="tbar" unicode="&#x167;" horiz-adv-x="399" 
d="M338 65l6 -62q-50 -11 -94 -11q-73 0 -101 34t-28 113v91h-100v56h100v154h-106v57h106v165l75 21v-186h145v-57h-145v-154h133v-56h-133v-70q0 -61 15 -82.5t58 -21.5q33 0 69 9z" />
    <glyph glyph-name="Utilde" unicode="&#x168;" horiz-adv-x="697" 
d="M606 675v-419q0 -130 -67.5 -197.5t-198.5 -67.5q-75 0 -126.5 19.5t-77 54.5t-35.5 73t-10 86v451h77v-444q0 -83 38.5 -130t139.5 -47q95 0 140 45t45 151v425h75zM481 837l40 -29q-40 -70 -107 -70q-36 0 -75 27t-59 27q-36 0 -64 -46l-40 29q39 70 107 70
q36 0 75 -27t59 -27q35 0 64 46z" />
    <glyph glyph-name="utilde" unicode="&#x169;" horiz-adv-x="577" 
d="M486 0h-74q0 63 8 111l-2 1q-22 -56 -68 -88.5t-110 -32.5q-149 0 -149 160v346h75v-321q0 -62 20.5 -92.5t72.5 -30.5q66 0 109 58.5t43 147.5v238h75v-497zM417 703l38 -31q-39 -72 -104 -72q-35 0 -72.5 28t-56.5 28q-35 0 -62 -48l-38 31q39 73 104 73q35 0 72.5 -28
t56.5 -28q35 0 62 47z" />
    <glyph glyph-name="Umacron" unicode="&#x16a;" horiz-adv-x="697" 
d="M606 675v-419q0 -130 -67.5 -197.5t-198.5 -67.5q-75 0 -126.5 19.5t-77 54.5t-35.5 73t-10 86v451h77v-444q0 -83 38.5 -130t139.5 -47q95 0 140 45t45 151v425h75zM484 751h-269v54h269v-54z" />
    <glyph glyph-name="umacron" unicode="&#x16b;" horiz-adv-x="577" 
d="M486 0h-74q0 63 8 111l-2 1q-22 -56 -68 -88.5t-110 -32.5q-149 0 -149 160v346h75v-321q0 -62 20.5 -92.5t72.5 -30.5q66 0 109 58.5t43 147.5v238h75v-497zM412 623h-245v57h245v-57z" />
    <glyph glyph-name="Ubreve" unicode="&#x16c;" horiz-adv-x="697" 
d="M606 675v-419q0 -130 -67.5 -197.5t-198.5 -67.5q-75 0 -126.5 19.5t-77 54.5t-35.5 73t-10 86v451h77v-444q0 -83 38.5 -130t139.5 -47q95 0 140 45t45 151v425h75zM423 849h51q0 -51 -34.5 -83.5t-91.5 -32.5q-59 0 -91 32.5t-32 83.5h50q0 -27 21 -45t53 -18
q33 0 53.5 18t20.5 45z" />
    <glyph glyph-name="ubreve" unicode="&#x16d;" horiz-adv-x="577" 
d="M486 0h-74q0 63 8 111l-2 1q-22 -56 -68 -88.5t-110 -32.5q-149 0 -149 160v346h75v-321q0 -62 20.5 -92.5t72.5 -30.5q66 0 109 58.5t43 147.5v238h75v-497zM356 717h53q0 -54 -30.5 -90.5t-90.5 -36.5t-89.5 36.5t-29.5 90.5h52q0 -30 18 -50t50 -20q31 0 49 18.5
t18 51.5z" />
    <glyph glyph-name="Uring" unicode="&#x16e;" horiz-adv-x="697" 
d="M606 675v-419q0 -130 -67.5 -197.5t-198.5 -67.5q-75 0 -126.5 19.5t-77 54.5t-35.5 73t-10 86v451h77v-444q0 -83 38.5 -130t139.5 -47q95 0 140 45t45 151v425h75zM459 800q0 -45 -31.5 -75.5t-83.5 -30.5q-50 0 -78 25.5t-28 75.5q0 45 31.5 75t83.5 30q50 0 78 -25.5
t28 -74.5zM400 797q0 58 -52 58q-22 0 -37 -14.5t-15 -42.5q0 -58 52 -58q22 0 37 14.5t15 42.5z" />
    <glyph glyph-name="uring" unicode="&#x16f;" horiz-adv-x="577" 
d="M486 0h-74q0 63 8 111l-2 1q-22 -56 -68 -88.5t-110 -32.5q-149 0 -149 160v346h75v-321q0 -62 20.5 -92.5t72.5 -30.5q66 0 109 58.5t43 147.5v238h75v-497zM398 659q0 -46 -31 -76.5t-83 -30.5q-50 0 -77.5 26t-27.5 76q0 46 31 76.5t83 30.5q50 0 77.5 -26t27.5 -76z
M341 656q0 59 -52 59q-22 0 -37 -15t-15 -43q0 -59 51 -59q22 0 37.5 15t15.5 43z" />
    <glyph glyph-name="Uhungarumlaut" unicode="&#x170;" horiz-adv-x="697" 
d="M606 675v-419q0 -130 -67.5 -197.5t-198.5 -67.5q-75 0 -126.5 19.5t-77 54.5t-35.5 73t-10 86v451h77v-444q0 -83 38.5 -130t139.5 -47q95 0 140 45t45 151v425h75zM562 838l-135 -110l-37 36l126 120zM376 841l-118 -113l-38 36l108 122z" />
    <glyph glyph-name="uhungarumlaut" unicode="&#x171;" horiz-adv-x="577" 
d="M486 0h-74q0 63 8 111l-2 1q-22 -56 -68 -88.5t-110 -32.5q-149 0 -149 160v346h75v-321q0 -62 20.5 -92.5t72.5 -30.5q66 0 109 58.5t43 147.5v238h75v-497zM513 695l-133 -120l-38 34l123 129zM337 701l-124 -126l-38 34l113 134z" />
    <glyph glyph-name="Uogonek" unicode="&#x172;" horiz-adv-x="697" 
d="M606 675v-419q0 -131 -67 -198q-15 -14 -59.5 -43.5t-67.5 -52.5q-47 -47 -47 -94q0 -42 41 -42q30 0 67 26l25 -43q-47 -42 -106 -42q-47 0 -73.5 23.5t-26.5 63.5q0 79 80 139q-20 -2 -35 -2q-74 0 -124.5 19.5t-76 54.5t-35.5 73t-10 86v451h77v-444q0 -83 38.5 -130
t139.5 -47q95 0 140 45t45 151v425h75z" />
    <glyph glyph-name="uogonek" unicode="&#x173;" horiz-adv-x="577" 
d="M515 -148l26 -43q-48 -42 -106 -42q-48 0 -74.5 23.5t-26.5 63.5q0 81 93 152q-8 66 -6 100h-1q-25 -53 -71 -84t-109 -31q-149 0 -149 160v346h75v-321q0 -62 20.5 -92.5t72.5 -30.5q66 0 109 58.5t43 147.5v238h75v-316q0 -101 15 -181q-94 -68 -94 -132q0 -42 42 -42
q31 0 66 26z" />
    <glyph glyph-name="Wcircumflex" unicode="&#x174;" horiz-adv-x="954" 
d="M916 675l-183 -675h-97l-138 474q-13 51 -22 96h-1q-10 -59 -20 -96l-135 -474h-97l-185 675h82l127 -465q19 -80 29 -136h1q14 78 29 131l134 470h77l140 -478q17 -60 30 -123h1q9 54 22 111l131 490h75zM635 773l-23 -46l-133 62l-134 -62l-22 45l157 82z" />
    <glyph glyph-name="wcircumflex" unicode="&#x175;" horiz-adv-x="792" 
d="M773 497l-162 -497h-87l-109 323q-16 50 -28 96h-1q-6 -27 -35 -127l-91 -292h-88l-153 497h84l86 -301q5 -19 16.5 -61t15.5 -59h1q12 52 33 121l95 300h86l97 -300q25 -77 35 -122h2q3 14 33 121l90 301h80zM529 612l-34 -37l-99 86l-100 -86l-33 36l134 129z" />
    <glyph glyph-name="Ycircumflex" unicode="&#x176;" horiz-adv-x="527" 
d="M523 675l-222 -411v-264h-76v264l-221 411h85l123 -232q28 -55 53 -112h1q25 58 55 114l121 230h81zM419 773l-23 -46l-133 62l-134 -62l-22 45l157 82z" />
    <glyph glyph-name="ycircumflex" unicode="&#x177;" horiz-adv-x="471" 
d="M461 497l-204 -544q-43 -116 -95 -163t-136 -47l-52 6l8 65q29 -7 58 -7q45 0 77 29.5t61 105.5l23 58l-190 497h86l104 -286q22 -61 39 -121h1q13 47 49 152l89 255h82zM368 612l-34 -37l-99 86l-100 -86l-33 36l134 129z" />
    <glyph glyph-name="Ydieresis" unicode="&#x178;" horiz-adv-x="527" 
d="M523 675l-222 -411v-264h-76v264l-221 411h85l123 -232q28 -55 53 -112h1q25 58 55 114l121 230h81zM418 779q0 -19 -14 -33t-33 -14q-20 0 -34 13.5t-14 33.5t14 34t34 14t33.5 -14t13.5 -34zM205 779q0 -19 -13.5 -33t-33.5 -14t-34 13.5t-14 33.5t14 34t34 14
t33.5 -14t13.5 -34z" />
    <glyph glyph-name="Zacute" unicode="&#x179;" horiz-adv-x="540" 
d="M495 0h-449v56l299 465l60 88q-72 -2 -158 -2h-190v68h435v-57l-315 -486q-8 -13 -23.5 -35.5t-19.5 -29.5q22 3 177 3h184v-70zM432 786l-180 -57l-16 44l172 74z" />
    <glyph glyph-name="zacute" unicode="&#x17a;" horiz-adv-x="446" 
d="M393 0h-344v53l253 379q-64 -2 -141 -2h-107v67h334v-52l-251 -378q60 2 144 2h112v-69zM357 701l-132 -128l-38 36l121 138z" />
    <glyph glyph-name="Zdotaccent" unicode="&#x17b;" horiz-adv-x="540" 
d="M495 0h-449v56l299 465l60 88q-72 -2 -158 -2h-190v68h435v-57l-315 -486q-8 -13 -23.5 -35.5t-19.5 -29.5q22 3 177 3h184v-70zM320 782q0 -21 -15 -36t-35 -15q-21 0 -36 14.5t-15 36.5q0 21 15 36t36 15q20 0 35 -14.5t15 -36.5z" />
    <glyph glyph-name="zdotaccent" unicode="&#x17c;" horiz-adv-x="446" 
d="M393 0h-344v53l253 379q-64 -2 -141 -2h-107v67h334v-52l-251 -378q60 2 144 2h112v-69zM269 656q0 -21 -15 -35.5t-35 -14.5q-21 0 -36 14.5t-15 35.5t15 36t36 15t35.5 -14.5t14.5 -36.5z" />
    <glyph glyph-name="Zcaron" unicode="&#x17d;" horiz-adv-x="540" 
d="M495 0h-449v56l299 465l60 88q-72 -2 -158 -2h-190v68h435v-57l-315 -486q-8 -13 -23.5 -35.5t-19.5 -29.5q22 3 177 3h184v-70zM430 810l-157 -83l-155 82l23 45l133 -62l134 62z" />
    <glyph glyph-name="zcaron" unicode="&#x17e;" horiz-adv-x="446" 
d="M393 0h-344v53l253 379q-64 -2 -141 -2h-107v67h334v-52l-251 -378q60 2 144 2h112v-69zM356 704l-134 -129l-132 127l34 38l99 -86l100 86z" />
    <glyph glyph-name="longs" unicode="&#x17f;" horiz-adv-x="259" 
d="M317 731l-8 -62q-18 5 -46 5q-52 0 -75 -34.5t-23 -108.5v-531h-75v527q0 208 177 208q24 0 50 -4z" />
    <glyph glyph-name="uni018F" unicode="&#x18f;" horiz-adv-x="602" 
d="M41 376h432q-8 119 -65 180t-152 61t-177 -38l-16 63q93 40 203 40q135 0 212.5 -87t77.5 -256q0 -162 -73.5 -255t-201.5 -93q-126 0 -185.5 79.5t-59.5 220.5q0 33 5 85zM473 314h-355v-22q0 -233 170 -233q91 0 138 69.5t47 185.5z" />
    <glyph glyph-name="florin" unicode="&#x192;" horiz-adv-x="437" 
d="M389 347h-174l-27 -255q-15 -138 -58 -194.5t-139 -56.5q-37 0 -72 9l13 66q43 -13 73 -13q51 0 73 34.5t33 134.5l28 275h-124v59h130l15 138q21 194 187 194q37 0 71 -6l-10 -63q-35 8 -73 8q-44 0 -68 -30t-31 -94l-15 -147h168v-59z" />
    <glyph glyph-name="Ohorn" unicode="&#x1a0;" horiz-adv-x="745" 
d="M644 707h67q22 -57 13.5 -99.5t-30.5 -67t-57 -37.5q25 -68 25 -157q0 -166 -90.5 -260.5t-226.5 -94.5q-144 0 -221.5 90.5t-77.5 247.5q0 166 90.5 260.5t226.5 94.5q177 0 252 -134q74 35 29 157zM582 333q0 131 -58.5 208t-169.5 77q-99 0 -163.5 -72.5t-64.5 -202.5
q0 -131 59 -208.5t169 -77.5q99 0 163.5 73t64.5 203z" />
    <glyph glyph-name="ohorn" unicode="&#x1a1;" horiz-adv-x="590" 
d="M493 529h65q50 -148 -70 -184q11 -46 11 -91q0 -114 -62 -188.5t-174 -74.5q-103 0 -161.5 63.5t-58.5 188.5q0 114 62.5 188.5t174.5 74.5q140 0 193 -113q61 21 20 136zM422 249q0 92 -40 143.5t-110 51.5t-110.5 -50.5t-40.5 -145.5q0 -92 39.5 -143t109.5 -51
q68 0 110 48.5t42 146.5z" />
    <glyph glyph-name="Uhorn" unicode="&#x1af;" horiz-adv-x="765" 
d="M679 707h66q26 -106 -17.5 -162t-121.5 -57v-232q0 -130 -67.5 -197.5t-198.5 -67.5q-75 0 -126.5 19.5t-77 54.5t-35.5 73t-10 86v451h77v-444q0 -83 38.5 -130t139.5 -47q95 0 140 45t45 151v425h75v-136q111 2 73 168z" />
    <glyph glyph-name="uhorn" unicode="&#x1b0;" horiz-adv-x="634" 
d="M486 0h-74q0 63 8 111l-2 1q-22 -56 -68 -88.5t-110 -32.5q-149 0 -149 160v346h75v-321q0 -62 20.5 -92.5t72.5 -30.5q66 0 109 58.5t43 147.5v238h75v-127q45 2 61.5 38.5t-2.5 120.5h59q27 -96 -10 -149.5t-108 -55.5v-324z" />
    <glyph glyph-name="uni01CD" unicode="&#x1cd;" horiz-adv-x="611" 
d="M598 0h-87l-59 167h-300l-59 -167h-80l248 675h90zM433 229l-100 277q-9 27 -30 93h-1q-23 -74 -29 -91l-101 -279h261zM462 810l-157 -83l-155 82l23 45l133 -62l134 62z" />
    <glyph glyph-name="uni01CE" unicode="&#x1ce;" horiz-adv-x="520" 
d="M430 0h-74q0 76 5 105h-2q-19 -49 -65.5 -81.5t-107.5 -32.5q-60 0 -98 36t-38 96q0 78 79 123.5t224 45.5v30q0 64 -25.5 94t-86.5 30q-71 0 -151 -35l-14 59q89 36 174 36q95 0 136.5 -45t41.5 -129v-183q0 -105 2 -149zM353 222v15q-228 0 -228 -103q0 -36 22.5 -59
t59.5 -23q63 0 104.5 52.5t41.5 117.5zM389 704l-134 -129l-132 127l34 38l99 -86l100 86z" />
    <glyph glyph-name="uni01CF" unicode="&#x1cf;" horiz-adv-x="259" 
d="M168 0h-77v675h77v-675zM286 810l-157 -83l-155 82l23 45l133 -62l134 62z" />
    <glyph glyph-name="uni01D0" unicode="&#x1d0;" horiz-adv-x="257" 
d="M166 0h-75v497h75v-497zM262 704l-134 -129l-132 127l34 38l99 -86l100 86z" />
    <glyph glyph-name="uni01D1" unicode="&#x1d1;" horiz-adv-x="708" 
d="M662 346q0 -166 -90.5 -260.5t-226.5 -94.5q-143 0 -221 91t-78 247q0 166 90.5 260.5t226.5 94.5q143 0 221 -91t78 -247zM582 333q0 131 -58.5 208t-169.5 77q-99 0 -163.5 -72.5t-64.5 -202.5q0 -131 59 -208.5t169 -77.5q99 0 163.5 73t64.5 203zM510 810l-157 -83
l-155 82l23 45l133 -62l134 62z" />
    <glyph glyph-name="uni01D2" unicode="&#x1d2;" horiz-adv-x="542" 
d="M499 254q0 -114 -62 -188.5t-174 -74.5q-103 0 -161.5 63.5t-58.5 188.5q0 114 62.5 188.5t174.5 74.5q102 0 160.5 -63.5t58.5 -188.5zM422 249q0 92 -40 143.5t-110 51.5t-110.5 -50.5t-40.5 -145.5q0 -92 39.5 -143t109.5 -51q68 0 110 48.5t42 146.5zM404 704
l-134 -129l-132 127l34 38l99 -86l100 86z" />
    <glyph glyph-name="uni01D3" unicode="&#x1d3;" horiz-adv-x="697" 
d="M606 675v-419q0 -130 -67.5 -197.5t-198.5 -67.5q-75 0 -126.5 19.5t-77 54.5t-35.5 73t-10 86v451h77v-444q0 -83 38.5 -130t139.5 -47q95 0 140 45t45 151v425h75zM506 810l-157 -83l-155 82l23 45l133 -62l134 62z" />
    <glyph glyph-name="uni01D4" unicode="&#x1d4;" horiz-adv-x="577" 
d="M486 0h-74q0 63 8 111l-2 1q-22 -56 -68 -88.5t-110 -32.5q-149 0 -149 160v346h75v-321q0 -62 20.5 -92.5t72.5 -30.5q66 0 109 58.5t43 147.5v238h75v-497zM421 704l-134 -129l-132 127l34 38l99 -86l100 86z" />
    <glyph glyph-name="uni01D5" unicode="&#x1d5;" horiz-adv-x="697" 
d="M606 675v-419q0 -130 -67.5 -197.5t-198.5 -67.5q-75 0 -126.5 19.5t-77 54.5t-35.5 73t-10 86v451h77v-444q0 -83 38.5 -130t139.5 -47q95 0 140 45t45 151v425h75zM504 774q0 -18 -12.5 -30.5t-31.5 -12.5q-18 0 -30.5 12.5t-12.5 30.5q0 19 12.5 31.5t30.5 12.5
q19 0 31.5 -12.5t12.5 -31.5zM281 774q0 -18 -13 -30.5t-31 -12.5t-31 12.5t-13 30.5q0 19 13 31.5t31 12.5t31 -12.5t13 -31.5zM482 876h-266v51h266v-51z" />
    <glyph glyph-name="uni01D6" unicode="&#x1d6;" horiz-adv-x="577" 
d="M486 0h-74q0 63 8 111l-2 1q-22 -56 -68 -88.5t-110 -32.5q-149 0 -149 160v346h75v-321q0 -62 20.5 -92.5t72.5 -30.5q66 0 109 58.5t43 147.5v238h75v-497zM240 618q0 -20 -13 -33t-33 -13t-33 13t-13 33t13 33t33 13t33 -13t13 -33zM428 618q0 -20 -13 -33t-33 -13
t-33 13t-13 33t13 33t33 13t33 -13t13 -33zM411 721h-246v54h246v-54z" />
    <glyph glyph-name="uni01D7" unicode="&#x1d7;" horiz-adv-x="697" 
d="M606 675v-419q0 -130 -67.5 -197.5t-198.5 -67.5q-75 0 -126.5 19.5t-77 54.5t-35.5 73t-10 86v451h77v-444q0 -83 38.5 -130t139.5 -47q95 0 140 45t45 151v425h75zM503 914l-173 -58l-16 41l165 73zM504 774q0 -18 -12.5 -30.5t-31.5 -12.5q-18 0 -30.5 12.5
t-12.5 30.5q0 19 12.5 31.5t30.5 12.5q19 0 31.5 -12.5t12.5 -31.5zM281 774q0 -18 -13 -30.5t-31 -12.5t-31 12.5t-13 30.5q0 19 13 31.5t31 12.5t31 -12.5t13 -31.5z" />
    <glyph glyph-name="uni01D8" unicode="&#x1d8;" horiz-adv-x="577" 
d="M486 0h-74q0 63 8 111l-2 1q-22 -56 -68 -88.5t-110 -32.5q-149 0 -149 160v346h75v-321q0 -62 20.5 -92.5t72.5 -30.5q66 0 109 58.5t43 147.5v238h75v-497zM240 618q0 -20 -13 -33t-33 -13t-33 13t-13 33t13 33t33 13t33 -13t13 -33zM428 618q0 -20 -13 -33t-33 -13
t-33 13t-13 33t13 33t33 13t33 -13t13 -33zM420 794l-136 -97l-31 40l128 107z" />
    <glyph glyph-name="uni01D9" unicode="&#x1d9;" horiz-adv-x="697" 
d="M606 675v-419q0 -130 -67.5 -197.5t-198.5 -67.5q-75 0 -126.5 19.5t-77 54.5t-35.5 73t-10 86v451h77v-444q0 -83 38.5 -130t139.5 -47q95 0 140 45t45 151v425h75zM197 926l22 44l132 -62l129 62l21 -41l-152 -82zM504 774q0 -18 -12.5 -30.5t-31.5 -12.5
q-18 0 -30.5 12.5t-12.5 30.5q0 19 12.5 31.5t30.5 12.5q19 0 31.5 -12.5t12.5 -31.5zM281 774q0 -18 -13 -30.5t-31 -12.5t-31 12.5t-13 30.5q0 19 13 31.5t31 12.5t31 -12.5t13 -31.5z" />
    <glyph glyph-name="uni01DA" unicode="&#x1da;" horiz-adv-x="577" 
d="M486 0h-74q0 63 8 111l-2 1q-22 -56 -68 -88.5t-110 -32.5q-149 0 -149 160v346h75v-321q0 -62 20.5 -92.5t72.5 -30.5q66 0 109 58.5t43 147.5v238h75v-497zM240 618q0 -20 -13 -33t-33 -13t-33 13t-13 33t13 33t33 13t33 -13t13 -33zM428 618q0 -20 -13 -33t-33 -13
t-33 13t-13 33t13 33t33 13t33 -13t13 -33zM161 810l28 34l100 -74l100 74l26 -33l-128 -112z" />
    <glyph glyph-name="uni01DB" unicode="&#x1db;" horiz-adv-x="697" 
d="M606 675v-419q0 -130 -67.5 -197.5t-198.5 -67.5q-75 0 -126.5 19.5t-77 54.5t-35.5 73t-10 86v451h77v-444q0 -83 38.5 -130t139.5 -47q95 0 140 45t45 151v425h75zM383 897l-16 -41l-172 58l24 56zM504 774q0 -18 -12.5 -30.5t-31.5 -12.5q-18 0 -30.5 12.5t-12.5 30.5
q0 19 12.5 31.5t30.5 12.5q19 0 31.5 -12.5t12.5 -31.5zM281 774q0 -18 -13 -30.5t-31 -12.5t-31 12.5t-13 30.5q0 19 13 31.5t31 12.5t31 -12.5t13 -31.5z" />
    <glyph glyph-name="uni01DC" unicode="&#x1dc;" horiz-adv-x="577" 
d="M486 0h-74q0 63 8 111l-2 1q-22 -56 -68 -88.5t-110 -32.5q-149 0 -149 160v346h75v-321q0 -62 20.5 -92.5t72.5 -30.5q66 0 109 58.5t43 147.5v238h75v-497zM428 618q0 -20 -13 -33t-33 -13t-33 13t-13 33t13 33t33 13t33 -13t13 -33zM240 618q0 -20 -13 -33t-33 -13
t-33 13t-13 33t13 33t33 13t33 -13t13 -33zM323 737l-31 -40l-136 97l39 50z" />
    <glyph glyph-name="Gcaron" unicode="&#x1e6;" horiz-adv-x="685" 
d="M599 340v-311q-103 -38 -220 -38q-156 0 -244.5 88t-88.5 244q0 161 92.5 261t265.5 100q90 0 185 -29l-17 -70q-87 34 -177 34q-69 0 -122 -23t-84 -63.5t-46.5 -90.5t-15.5 -107q0 -133 70 -205.5t194 -72.5q69 0 131 20v263h77zM528 810l-157 -83l-155 82l23 45
l133 -62l134 62z" />
    <glyph glyph-name="gcaron" unicode="&#x1e7;" horiz-adv-x="531" 
d="M495 438h-81q35 -43 35 -101q0 -80 -52.5 -132t-146.5 -52q-32 0 -59 6q-32 -20 -32 -45q0 -37 80 -40l83 -3q90 -3 135 -41t45 -104q0 -82 -69.5 -132.5t-184.5 -50.5q-98 0 -153.5 38.5t-55.5 108.5q0 82 87 139q-44 23 -44 70t53 83q-73 47 -73 140q0 80 52.5 132
t146.5 52q35 0 67 -9h167v-59zM216 9q-10 0 -26 2q-73 -46 -73 -108q0 -49 38.5 -75t104.5 -26q80 0 123 31.5t43 82.5q0 86 -124 90zM375 329q0 53 -32 86t-88 33q-55 0 -87 -33t-32 -86t32 -86t87 -33q56 0 88 33t32 86zM402 704l-134 -129l-132 127l34 38l99 -86l100 86z
" />
    <glyph glyph-name="Aringacute" unicode="&#x1fa;" horiz-adv-x="611" 
d="M598 0h-87l-59 167h-300l-59 -167h-80l248 675h90zM433 229l-100 277q-9 27 -30 93h-1q-23 -74 -29 -91l-101 -279h261zM434 929l-170 -46l-14 38l164 59zM412 786q0 -38 -30 -64t-79 -26q-100 0 -100 85q0 38 30 64t79 26q47 0 73.5 -21.5t26.5 -63.5zM359 783
q0 47 -51 47q-22 0 -37 -11.5t-15 -35.5q0 -46 51 -46q22 0 37 11.5t15 34.5z" />
    <glyph glyph-name="aringacute" unicode="&#x1fb;" horiz-adv-x="520" 
d="M430 0h-74q0 76 5 105h-2q-19 -49 -65.5 -81.5t-107.5 -32.5q-60 0 -98 36t-38 96q0 78 79 123.5t224 45.5v30q0 64 -25.5 94t-86.5 30q-71 0 -151 -35l-14 59q89 36 174 36q95 0 136.5 -45t41.5 -129v-183q0 -105 2 -149zM353 222v15q-228 0 -228 -103q0 -36 22.5 -59
t59.5 -23q63 0 104.5 52.5t41.5 117.5zM390 837l-178 -56l-15 41l169 71zM362 649q0 -45 -30 -74.5t-80 -29.5q-48 0 -75 25t-27 73q0 45 30 74.5t80 29.5q48 0 75 -25t27 -73zM307 646q0 57 -51 57q-21 0 -36 -14.5t-15 -42.5q0 -57 51 -57q21 0 36 14.5t15 42.5z" />
    <glyph glyph-name="AEacute" unicode="&#x1fc;" horiz-adv-x="779" 
d="M707 0h-341v169h-239l-91 -169h-80l368 675h378v-62h-261v-234h243v-62h-243v-253h266v-64zM366 230v383h-6q-30 -66 -69 -137l-135 -246h210zM631 786l-180 -57l-16 44l172 74z" />
    <glyph glyph-name="aeacute" unicode="&#x1fd;" horiz-adv-x="809" 
d="M734 80l11 -59q-88 -30 -167 -30q-160 0 -200 119h-1q-23 -50 -73.5 -84.5t-116.5 -34.5q-61 0 -99 36t-38 96q0 78 79 123.5t224 45.5v30q0 64 -25.5 94t-86.5 30q-71 0 -151 -35l-14 59q89 36 174 36q120 0 154 -84h1q24 37 66 60.5t96 23.5q97 0 145.5 -56.5
t48.5 -144.5l-2 -50h-332q-7 -202 161 -202q72 0 146 27zM429 310h253q1 64 -31 101t-89 37q-52 0 -88 -36.5t-45 -101.5zM353 222v15q-228 0 -228 -103q0 -36 22.5 -59t59.5 -23q63 0 104.5 52.5t41.5 117.5zM550 701l-132 -128l-38 36l121 138z" />
    <glyph glyph-name="Oslashacute" unicode="&#x1fe;" horiz-adv-x="708" 
d="M596 739l-55 -106q121 -87 121 -287q0 -166 -90.5 -260.5t-226.5 -94.5q-70 0 -124 24l-54 -106l-55 27l55 106q-121 87 -121 287q0 166 90.5 260.5t226.5 94.5q70 0 124 -24l54 106zM505 563l-251 -484q46 -23 100 -23q100 0 165 73t65 204q0 153 -79 230zM203 112
l251 484q-43 23 -100 23q-100 0 -165 -73t-65 -203q0 -154 79 -231zM481 826l-180 -57l-16 44l172 74z" />
    <glyph glyph-name="oslashacute" unicode="&#x1ff;" horiz-adv-x="542" 
d="M467 560l-50 -95q82 -64 82 -211q0 -114 -62 -188.5t-174 -74.5q-51 0 -89 16l-49 -94l-50 24l51 95q-83 63 -83 211q0 114 62.5 188.5t174.5 74.5q50 0 88 -16l49 94zM382 399l-177 -334q31 -14 65 -14q72 0 114 51t42 147q0 99 -44 150zM160 98l177 334q-30 14 -64 14
q-72 0 -114 -51t-42 -147q0 -98 43 -150zM385 701l-132 -128l-38 36l121 138z" />
    <glyph glyph-name="Scommaaccent" unicode="&#x218;" horiz-adv-x="504" 
d="M405 671l-9 -69q-59 18 -118 18q-71 0 -108 -29t-37 -81q0 -32 17.5 -56t45.5 -39.5t61.5 -29.5t67.5 -30t62 -36.5t45.5 -54t17.5 -77.5q0 -87 -64 -141.5t-179 -54.5q-79 0 -149 20l11 73q68 -26 143 -26q158 0 158 121q0 33 -17.5 57.5t-45 40t-61 29.5t-67.5 30
t-61.5 36.5t-45 53.5t-17.5 77q0 81 61 131t168 50q61 0 121 -13zM195 -239l-24 28q45 37 45 73q0 12 -7 24t-7 22q0 17 12 29.5t31 12.5q21 0 34.5 -15.5t13.5 -38.5q0 -68 -98 -135z" />
    <glyph glyph-name="scommaaccent" unicode="&#x219;" horiz-adv-x="428" 
d="M343 496l-7 -64q-50 15 -100 15q-52 0 -79 -20t-27 -55q0 -32 25 -52t61 -31t72.5 -25t61.5 -45t25 -79q0 -64 -53 -106.5t-147 -42.5q-63 0 -119 14l7 69q56 -21 120 -21q55 0 85 21.5t30 59.5q0 32 -25 52t-61 31t-72 25t-61 44.5t-25 79.5q0 61 50 100.5t140 39.5
q47 0 99 -10zM163 -239l-24 28q45 37 45 73q0 12 -7 24t-7 22q0 17 12 29.5t31 12.5q21 0 34.5 -15.5t13.5 -38.5q0 -68 -98 -135z" />
    <glyph glyph-name="Tcommaaccent" unicode="&#x21a;" horiz-adv-x="519" 
d="M500 611h-203v-611h-76v611h-202v64h481v-64zM211 -239l-24 28q45 37 45 73q0 12 -7 24t-7 22q0 17 12 29.5t31 12.5q21 0 34.5 -15.5t13.5 -38.5q0 -68 -98 -135z" />
    <glyph glyph-name="tcommaaccent" unicode="&#x21b;" horiz-adv-x="370" 
d="M330 65l6 -62q-50 -11 -94 -11q-72 0 -100.5 34t-28.5 114v298h-106v59h106v165l75 21v-186h145v-59h-145v-277q0 -61 15 -82.5t58 -21.5q37 0 69 8zM165 -239l-24 28q45 37 45 73q0 12 -7 24t-7 22q0 17 12 29.5t31 12.5q21 0 34.5 -15.5t13.5 -38.5q0 -68 -98 -135z
" />
    <glyph glyph-name="dotlessj" unicode="&#x237;" horiz-adv-x="265" 
d="M173 497v-560q0 -101 -36 -147t-120 -46q-18 0 -36.5 2t-28.5 4l-9 2l7 66q32 -11 72 -11q43 0 60 26.5t17 98.5v565h74z" />
    <glyph glyph-name="uni0259" unicode="&#x259;" horiz-adv-x="499" 
d="M47 283h331q-12 164 -165 164q-75 0 -139 -29l-15 57q76 31 165 31q232 0 232 -255q0 -120 -58 -190t-162 -70q-97 0 -144.5 61.5t-47.5 166.5q0 33 3 64zM379 228h-258q-1 -9 -1 -19q0 -80 32.5 -119t91.5 -39q64 0 99 49t36 128z" />
    <glyph glyph-name="bullseye" unicode="&#x298;" horiz-adv-x="442" 
d="M350 291q0 -56 -40 -95.5t-96 -39.5q-57 0 -96 39.5t-39 95.5t40 95t96 39t95.5 -39t39.5 -95zM282 291q0 27 -20 47t-48 20q-27 0 -47 -20t-20 -47q0 -28 20 -47.5t47 -19.5q28 0 48 19.5t20 47.5z" />
    <glyph glyph-name="apostrophe" unicode="&#x2bc;" horiz-adv-x="75" 
d="M52 506l-31 28q79 85 43 135q-17 23 -5 47.5t40 24.5q32 0 46 -31t-8 -88t-85 -116z" />
    <glyph glyph-name="circumflex" unicode="&#x2c6;" horiz-adv-x="446" 
d="M356 612l-34 -37l-99 86l-100 -86l-33 36l134 129z" />
    <glyph glyph-name="caron" unicode="&#x2c7;" horiz-adv-x="446" 
d="M356 704l-134 -129l-132 127l34 38l99 -86l100 86z" />
    <glyph glyph-name="breve" unicode="&#x2d8;" horiz-adv-x="420" 
d="M277 717h53q0 -54 -30.5 -90.5t-90.5 -36.5t-89.5 36.5t-29.5 90.5h52q0 -30 18 -50t50 -20q31 0 49 18.5t18 51.5z" />
    <glyph glyph-name="dotaccent" unicode="&#x2d9;" horiz-adv-x="281" 
d="M191 656q0 -21 -15 -35.5t-35 -14.5q-21 0 -36 14.5t-15 35.5t15 36t36 15t35.5 -14.5t14.5 -36.5z" />
    <glyph glyph-name="ring" unicode="&#x2da;" horiz-adv-x="399" 
d="M309 659q0 -46 -31 -76.5t-83 -30.5q-50 0 -77.5 26t-27.5 76q0 46 31 76.5t83 30.5q50 0 77.5 -26t27.5 -76zM252 656q0 59 -52 59q-22 0 -37 -15t-15 -43q0 -59 51 -59q22 0 37.5 15t15.5 43z" />
    <glyph glyph-name="ogonek" unicode="&#x2db;" horiz-adv-x="386" 
d="M182 6l75 -6q-94 -67 -94 -132q0 -42 41 -42q30 0 67 26l25 -43q-47 -42 -105 -42q-48 0 -74.5 23.5t-26.5 63.5q0 82 92 152z" />
    <glyph glyph-name="tilde" unicode="&#x2dc;" horiz-adv-x="513" 
d="M385 703l38 -31q-39 -72 -104 -72q-35 0 -72.5 28t-56.5 28q-35 0 -62 -48l-38 31q39 73 104 73q35 0 72.5 -28t56.5 -28q35 0 62 47z" />
    <glyph glyph-name="hungarumlaut" unicode="&#x2dd;" horiz-adv-x="517" 
d="M428 695l-133 -120l-38 34l123 129zM252 701l-124 -126l-38 34l113 134z" />
    <glyph glyph-name="gravecomb" unicode="&#x300;" horiz-adv-x="0" 
d="M-253 609l-38 -36l-132 128l49 46z" />
    <glyph glyph-name="acutecomb" unicode="&#x301;" horiz-adv-x="0" 
d="M-150 701l-132 -128l-38 36l121 138z" />
    <glyph glyph-name="tildecomb" unicode="&#x303;" horiz-adv-x="0" 
d="M-160 703l38 -31q-39 -72 -104 -72q-35 0 -72.5 28t-56.5 28q-35 0 -62 -48l-38 31q39 73 104 73q35 0 72.5 -28t56.5 -28q35 0 62 47z" />
    <glyph glyph-name="uni0307" unicode="&#x307;" horiz-adv-x="0" 
d="M-238 656q0 -21 -15 -35.5t-35 -14.5q-21 0 -36 14.5t-15 35.5t15 36t36 15q20 0 35 -14.5t15 -36.5z" />
    <glyph glyph-name="uni0309" unicode="&#x309;" horiz-adv-x="0" 
d="M-296 559l-11 42q10 3 21.5 8.5t24 18t12.5 26.5q0 37 -56 37q-43 0 -75 -16l-13 45q52 21 106 21q47 0 74 -19t27 -55q0 -44 -36.5 -71t-73.5 -37z" />
    <glyph glyph-name="uni0312" unicode="&#x312;" horiz-adv-x="0" 
d="M-238 757l23 -29q-45 -37 -45 -72q0 -12 7 -24t7 -23q0 -18 -12.5 -30t-30.5 -12q-19 0 -33 15t-14 40q0 70 98 135z" />
    <glyph glyph-name="uni0315" unicode="&#x315;" horiz-adv-x="22" 
d="M76 737l-70 -168l-51 16l57 171z" />
    <glyph glyph-name="dotbelowcomb" unicode="&#x323;" horiz-adv-x="0" 
d="M-238 -159q0 -22 -15 -36.5t-36 -14.5t-35.5 15t-14.5 36t14.5 35.5t35.5 14.5t36 -14.5t15 -35.5z" />
    <glyph glyph-name="uni0326" unicode="&#x326;" horiz-adv-x="0" 
d="M-336 -239l-24 28q45 37 45 73q0 12 -7 24t-7 22q0 17 12 29.5t31 12.5q21 0 34.5 -15.5t13.5 -38.5q0 -68 -98 -135z" />
    <glyph glyph-name="uni0327" unicode="&#x327;" horiz-adv-x="0" 
d="M-338 -69l67 28q67 -88 -23 -194h-63q28 35 39.5 60.5t7 51.5t-27.5 54z" />
    <glyph glyph-name="uni037E" unicode="&#x37e;" horiz-adv-x="282" 
d="M211 343q0 -23 -15.5 -39t-38.5 -16t-39 16t-16 39q0 22 16 38t39 16t38.5 -15.5t15.5 -38.5zM108 -147l-33 29q81 89 44 140q-19 24 -6 50.5t43 26.5q34 0 49 -32.5t-8 -92t-89 -121.5z" />
    <glyph glyph-name="Delta" unicode="&#x394;" horiz-adv-x="605" 
d="M576 0h-547v55l227 620h92l228 -620v-55zM486 67l-169 476q-11 35 -17 64h-2q-10 -40 -19 -67l-168 -473h375z" />
    <glyph glyph-name="Omega" unicode="&#x3a9;" horiz-adv-x="722" 
d="M677 0h-236v64q72 58 108 121.5t36 157.5q0 123 -58 199t-166 76q-96 0 -160 -73.5t-64 -196.5q0 -95 32.5 -159t111.5 -125v-64h-235v65h149q-140 100 -140 278q0 157 89.5 249t225.5 92q132 0 214.5 -85.5t82.5 -245.5q0 -177 -145 -288h155v-65z" />
    <glyph glyph-name="mu" unicode="&#x3bc;" horiz-adv-x="588" 
d="M548 56v-61q-26 -2 -33 -2q-102 0 -93 117l-1 1q-22 -55 -66 -87t-105 -32q-66 0 -91 39l9 -280h-77v746h75v-330q0 -114 93 -114q67 0 109.5 58t42.5 149v237h75v-328q0 -71 12 -92t50 -21z" />
    <glyph glyph-name="pi" unicode="&#x3c0;" horiz-adv-x="634" 
d="M592 63l9 -62q-26 -8 -66 -8q-52 0 -80 31t-42 107q-19 98 -19 304h-180q5 -229 -63 -439l-85 8q79 222 76 431h-129v62h586v-62h-130q0 -187 19 -289q10 -51 23 -70.5t35 -19.5t46 7z" />
    <glyph glyph-name="uni1E02" unicode="&#x1e02;" horiz-adv-x="566" 
d="M91 0v675q89 3 175 3q113 0 168 -43.5t55 -120.5q0 -54 -31.5 -96.5t-85.5 -61.5v-1q65 -11 103 -52t38 -106q0 -34 -13 -67t-41 -64t-81.5 -50t-124.5 -19q-29 0 -89.5 1.5t-72.5 1.5zM168 615v-237q20 -1 73 -1q83 0 125.5 32.5t42.5 92.5q0 116 -152 116q-5 0 -89 -3z
M168 318v-254q30 -5 92 -5q86 0 129 36.5t43 95.5q0 64 -46 96t-148 32q-54 0 -70 -1zM318 782q0 -21 -15 -36t-35 -15q-21 0 -36 14.5t-15 36.5q0 21 15 36t36 15q20 0 35 -14.5t15 -36.5z" />
    <glyph glyph-name="uni1E03" unicode="&#x1e03;" horiz-adv-x="558" 
d="M166 730v-252q0 -54 -9 -91l2 -1q21 56 66 88t104 32q88 0 135.5 -60t47.5 -175q0 -131 -69 -204t-187 -73q-40 0 -81 4.5t-63 9.5l-21 5v717h75zM166 240v-173q43 -14 97 -14q170 0 170 212q0 179 -119 179q-69 0 -108.5 -64.5t-39.5 -139.5zM179 851q0 -21 -15 -36
t-35 -15q-21 0 -36 14.5t-15 36.5q0 21 15 36t36 15t35.5 -15t14.5 -36z" />
    <glyph glyph-name="uni1E0A" unicode="&#x1e0a;" horiz-adv-x="683" 
d="M91 0v675q24 0 91 1.5t104 1.5q168 0 257.5 -82.5t89.5 -251.5t-103 -258t-275 -89q-37 0 -90 1.5t-74 1.5zM168 613v-546q47 -7 97 -7q133 0 210.5 70t77.5 209q0 277 -275 277q-29 0 -110 -3zM354 782q0 -21 -15 -36t-35 -15q-21 0 -36 14.5t-15 36.5q0 21 15 36t36 15
q20 0 35 -14.5t15 -36.5z" />
    <glyph glyph-name="uni1E0B" unicode="&#x1e0b;" horiz-adv-x="558" 
d="M467 0h-74q0 69 9 108l-2 1q-21 -54 -66.5 -86t-104.5 -32q-90 0 -136.5 62t-46.5 173q0 131 68.5 204t185.5 73q35 0 92 -5v232h75v-730zM392 257v175q-50 12 -97 12q-170 0 -170 -212q0 -179 119 -179q69 0 108.5 64.5t39.5 139.5zM480 851q0 -21 -15 -36t-35 -15
q-21 0 -36 14.5t-15 36.5q0 21 15 36t36 15q20 0 35 -15t15 -36z" />
    <glyph glyph-name="uni1E1E" unicode="&#x1e1e;" horiz-adv-x="472" 
d="M434 612h-266v-237h248v-61h-248v-314h-77v675h343v-63zM317 782q0 -21 -15 -36t-35 -15q-21 0 -36 14.5t-15 36.5q0 21 15 36t36 15t35.5 -14.5t14.5 -36.5z" />
    <glyph glyph-name="uni1E1F" unicode="&#x1e1f;" horiz-adv-x="348" 
d="M337 497v-59h-147v-438h-75v438h-108v59h108v32q0 104 49.5 155t139.5 51q18 0 38 -2t32 -4l11 -2l-7 -64q-39 11 -78 11q-57 0 -83.5 -34t-26.5 -107v-36h147zM305 851q0 -21 -15 -36t-35 -15q-21 0 -36 14.5t-15 36.5q0 21 15 36t36 15t35.5 -15t14.5 -36z" />
    <glyph glyph-name="uni1E40" unicode="&#x1e40;" horiz-adv-x="893" 
d="M839 0h-79l-58 419q-17 126 -20 186h-2q-12 -48 -38 -126l-169 -479h-70l-159 453q-36 104 -48 152h-1q-4 -71 -17 -191l-48 -414h-77l89 675h105l162 -457q23 -65 33 -114h1q13 65 32 114l161 457h110zM496 782q0 -21 -15 -36t-35 -15q-21 0 -36 14.5t-15 36.5
q0 21 15 36t36 15q20 0 35 -14.5t15 -36.5z" />
    <glyph glyph-name="uni1E41" unicode="&#x1e41;" horiz-adv-x="884" 
d="M793 0h-75v320q0 61 -19.5 92.5t-70.5 31.5q-60 0 -104.5 -57.5t-44.5 -150.5v-236h-74v321q0 59 -19 91t-71 32q-62 0 -105.5 -59t-43.5 -149v-236h-75v497h74q0 -70 -8 -111l2 -1q21 56 67.5 88.5t107.5 32.5q32 0 57.5 -9t40 -22t24 -30t13 -31t4.5 -27q17 45 61 82
t112 37q147 0 147 -162v-344zM492 658q0 -21 -15 -35.5t-35 -14.5q-21 0 -36 14.5t-15 35.5t15 36t36 15q20 0 35 -14.5t15 -36.5z" />
    <glyph glyph-name="uni1E56" unicode="&#x1e56;" horiz-adv-x="549" 
d="M168 0h-77v675q96 3 170 3q125 0 188.5 -58.5t63.5 -148.5q0 -103 -73 -168.5t-194 -65.5l-78 3v-240zM168 614v-309q43 -6 85 -6q88 0 134.5 45t46.5 115q0 72 -46 114.5t-138 42.5zM316 782q0 -21 -15 -36t-35 -15q-21 0 -36 14.5t-15 36.5q0 21 15 36t36 15
q20 0 35 -14.5t15 -36.5z" />
    <glyph glyph-name="uni1E57" unicode="&#x1e57;" horiz-adv-x="558" 
d="M166 -249h-75v746h74q0 -69 -8 -108l2 -1q21 55 66 86.5t104 31.5q88 0 135.5 -60t47.5 -175q0 -132 -67.5 -204.5t-186.5 -72.5q-53 0 -92 7v-250zM166 240v-174q42 -13 97 -13q170 0 170 212q0 179 -119 179q-69 0 -108.5 -64.5t-39.5 -139.5zM358 658q0 -21 -15 -35.5
t-35 -14.5q-21 0 -36 14.5t-15 35.5t15 36t36 15q20 0 35 -14.5t15 -36.5z" />
    <glyph glyph-name="uni1E60" unicode="&#x1e60;" horiz-adv-x="504" 
d="M405 671l-9 -69q-59 18 -118 18q-71 0 -108 -29t-37 -81q0 -32 17.5 -56t45.5 -39.5t61.5 -29.5t67.5 -30t62 -36.5t45.5 -54t17.5 -77.5q0 -87 -64 -141.5t-179 -54.5q-79 0 -149 20l11 73q68 -26 143 -26q158 0 158 121q0 33 -17.5 57.5t-45 40t-61 29.5t-67.5 30
t-61.5 36.5t-45 53.5t-17.5 77q0 81 61 131t168 50q61 0 121 -13zM302 784q0 -21 -15 -36t-35 -15q-21 0 -36 14.5t-15 36.5q0 21 15 36t36 15q20 0 35 -14.5t15 -36.5z" />
    <glyph glyph-name="uni1E61" unicode="&#x1e61;" horiz-adv-x="428" 
d="M343 496l-7 -64q-50 15 -100 15q-52 0 -79 -20t-27 -55q0 -32 25 -52t61 -31t72.5 -25t61.5 -45t25 -79q0 -64 -53 -106.5t-147 -42.5q-63 0 -119 14l7 69q56 -21 120 -21q55 0 85 21.5t30 59.5q0 32 -25 52t-61 31t-72 25t-61 44.5t-25 79.5q0 61 50 100.5t140 39.5
q47 0 99 -10zM264 658q0 -21 -15 -35.5t-35 -14.5q-21 0 -36 14.5t-15 35.5t15 36t36 15q20 0 35 -14.5t15 -36.5z" />
    <glyph glyph-name="uni1E6A" unicode="&#x1e6a;" horiz-adv-x="519" 
d="M500 611h-203v-611h-76v611h-202v64h481v-64zM310 782q0 -21 -15 -36t-35 -15q-21 0 -36 14.5t-15 36.5q0 21 15 36t36 15q20 0 35 -14.5t15 -36.5z" />
    <glyph glyph-name="uni1E6B" unicode="&#x1e6b;" horiz-adv-x="370" 
d="M330 65l6 -62q-50 -11 -94 -11q-72 0 -100.5 34t-28.5 114v298h-106v59h106v165l75 21v-186h145v-59h-145v-277q0 -61 15 -82.5t58 -21.5q37 0 69 8zM200 782q0 -21 -15 -36t-35 -15q-21 0 -36 14.5t-15 36.5q0 21 15 36t36 15q20 0 35 -14.5t15 -36.5z" />
    <glyph glyph-name="Wgrave" unicode="&#x1e80;" horiz-adv-x="954" 
d="M916 675l-183 -675h-97l-138 474q-13 51 -22 96h-1q-10 -59 -20 -96l-135 -474h-97l-185 675h82l127 -465q19 -80 29 -136h1q14 78 29 131l134 470h77l140 -478q17 -60 30 -123h1q9 54 22 111l131 490h75zM534 773l-16 -44l-180 57l24 61z" />
    <glyph glyph-name="wgrave" unicode="&#x1e81;" horiz-adv-x="792" 
d="M773 497l-162 -497h-87l-109 323q-16 50 -28 96h-1q-6 -27 -35 -127l-91 -292h-88l-153 497h84l86 -301q5 -19 16.5 -61t15.5 -59h1q12 52 33 121l95 300h86l97 -300q25 -77 35 -122h2q3 14 33 121l90 301h80zM445 609l-38 -36l-132 128l49 46z" />
    <glyph glyph-name="Wacute" unicode="&#x1e82;" horiz-adv-x="954" 
d="M916 675l-183 -675h-97l-138 474q-13 51 -22 96h-1q-10 -59 -20 -96l-135 -474h-97l-185 675h82l127 -465q19 -80 29 -136h1q14 78 29 131l134 470h77l140 -478q17 -60 30 -123h1q9 54 22 111l131 490h75zM616 786l-180 -57l-16 44l172 74z" />
    <glyph glyph-name="wacute" unicode="&#x1e83;" horiz-adv-x="792" 
d="M773 497l-162 -497h-87l-109 323q-16 50 -28 96h-1q-6 -27 -35 -127l-91 -292h-88l-153 497h84l86 -301q5 -19 16.5 -61t15.5 -59h1q12 52 33 121l95 300h86l97 -300q25 -77 35 -122h2q3 14 33 121l90 301h80zM504 701l-132 -128l-38 36l121 138z" />
    <glyph glyph-name="Wdieresis" unicode="&#x1e84;" horiz-adv-x="954" 
d="M916 675l-183 -675h-97l-138 474q-13 51 -22 96h-1q-10 -59 -20 -96l-135 -474h-97l-185 675h82l127 -465q19 -80 29 -136h1q14 78 29 131l134 470h77l140 -478q17 -60 30 -123h1q9 54 22 111l131 490h75zM632 779q0 -19 -14 -33t-33 -14q-20 0 -34 13.5t-14 33.5t14 34
t34 14t33.5 -14t13.5 -34zM419 779q0 -19 -13.5 -33t-33.5 -14t-34 13.5t-14 33.5t14 34t34 14t33.5 -14t13.5 -34z" />
    <glyph glyph-name="wdieresis" unicode="&#x1e85;" horiz-adv-x="792" 
d="M773 497l-162 -497h-87l-109 323q-16 50 -28 96h-1q-6 -27 -35 -127l-91 -292h-88l-153 497h84l86 -301q5 -19 16.5 -61t15.5 -59h1q12 52 33 121l95 300h86l97 -300q25 -77 35 -122h2q3 14 33 121l90 301h80zM534 657q0 -20 -13.5 -34t-33.5 -14t-34 14t-14 34t14 33.5
t34 13.5q19 0 33 -14t14 -33zM346 657q0 -20 -13.5 -34t-33.5 -14t-34 14t-14 34t14 33.5t34 13.5q19 0 33 -14t14 -33z" />
    <glyph glyph-name="uni1E9E" unicode="&#x1e9e;" horiz-adv-x="1007" 
d="M405 671l-9 -69q-59 18 -118 18q-71 0 -108 -29t-37 -81q0 -32 17.5 -56t45.5 -39.5t61.5 -29.5t67.5 -30t62 -36.5t45.5 -54t17.5 -77.5q0 -87 -64 -141.5t-179 -54.5q-79 0 -149 20l11 73q68 -26 143 -26q158 0 158 121q0 33 -17.5 57.5t-45 40t-61 29.5t-67.5 30
t-61.5 36.5t-45 53.5t-17.5 77q0 81 61 131t168 50q61 0 121 -13zM909 671l-9 -69q-59 18 -118 18q-71 0 -108 -29t-37 -81q0 -32 17.5 -56t45.5 -39.5t62 -29.5t67.5 -30t61.5 -36.5t45.5 -54t17.5 -77.5q0 -87 -64 -141.5t-179 -54.5q-79 0 -149 20l11 73q68 -26 143 -26
q158 0 158 121q0 33 -17.5 57.5t-45 40t-61.5 29.5t-67.5 30t-61 36.5t-45 53.5t-17.5 77q0 81 61 131t168 50q61 0 121 -13z" />
    <glyph glyph-name="uni1EA0" unicode="&#x1ea0;" horiz-adv-x="611" 
d="M598 0h-87l-59 167h-300l-59 -167h-80l248 675h90zM433 229l-100 277q-9 27 -30 93h-1q-23 -74 -29 -91l-101 -279h261zM352 -159q0 -22 -15 -36.5t-36 -14.5t-35.5 15t-14.5 36t14.5 35.5t35.5 14.5t36 -14.5t15 -35.5z" />
    <glyph glyph-name="uni1EA1" unicode="&#x1ea1;" horiz-adv-x="520" 
d="M430 0h-74q0 76 5 105h-2q-19 -49 -65.5 -81.5t-107.5 -32.5q-60 0 -98 36t-38 96q0 78 79 123.5t224 45.5v30q0 64 -25.5 94t-86.5 30q-71 0 -151 -35l-14 59q89 36 174 36q95 0 136.5 -45t41.5 -129v-183q0 -105 2 -149zM353 222v15q-228 0 -228 -103q0 -36 22.5 -59
t59.5 -23q63 0 104.5 52.5t41.5 117.5zM301 -159q0 -22 -15 -36.5t-36 -14.5t-35.5 15t-14.5 36t14.5 35.5t35.5 14.5t36 -14.5t15 -35.5z" />
    <glyph glyph-name="uni1EA2" unicode="&#x1ea2;" horiz-adv-x="611" 
d="M598 0h-87l-59 167h-300l-59 -167h-80l248 675h90zM433 229l-100 277q-9 27 -30 93h-1q-23 -74 -29 -91l-101 -279h261zM299 727l-11 42q10 3 21.5 8.5t24 18t12.5 26.5q0 37 -56 37q-36 0 -75 -16l-14 44q50 22 107 22q47 0 74 -19t27 -55q0 -44 -36.5 -71t-73.5 -37z
" />
    <glyph glyph-name="uni1EA3" unicode="&#x1ea3;" horiz-adv-x="520" 
d="M430 0h-74q0 76 5 105h-2q-19 -49 -65.5 -81.5t-107.5 -32.5q-60 0 -98 36t-38 96q0 78 79 123.5t224 45.5v30q0 64 -25.5 94t-86.5 30q-71 0 -151 -35l-14 59q89 36 174 36q95 0 136.5 -45t41.5 -129v-183q0 -105 2 -149zM353 222v15q-228 0 -228 -103q0 -36 22.5 -59
t59.5 -23q63 0 104.5 52.5t41.5 117.5zM252 559l-11 42q10 3 21.5 8.5t24 18t12.5 26.5q0 37 -56 37q-43 0 -75 -16l-13 45q53 21 106 21q47 0 74 -19t27 -55q0 -44 -36.5 -71t-73.5 -37z" />
    <glyph glyph-name="uni1EA4" unicode="&#x1ea4;" horiz-adv-x="611" 
d="M598 0h-87l-59 167h-300l-59 -167h-80l248 675h90zM433 229l-100 277q-9 27 -30 93h-1q-23 -74 -29 -91l-101 -279h261zM396 924l-171 -58l-16 40l163 74zM458 770l-24 -45l-134 62l-128 -61l-21 41l152 82z" />
    <glyph glyph-name="uni1EA5" unicode="&#x1ea5;" horiz-adv-x="520" 
d="M430 0h-74q0 76 5 105h-2q-19 -49 -65.5 -81.5t-107.5 -32.5q-60 0 -98 36t-38 96q0 78 79 123.5t224 45.5v30q0 64 -25.5 94t-86.5 30q-71 0 -151 -35l-14 59q89 36 174 36q95 0 136.5 -45t41.5 -129v-183q0 -105 2 -149zM353 222v15q-228 0 -228 -103q0 -36 22.5 -59
t59.5 -23q63 0 104.5 52.5t41.5 117.5zM381 587l-30 -33l-97 72l-96 -72l-28 32l126 108zM350 783l-172 -58l-17 40l164 74z" />
    <glyph glyph-name="uni1EA6" unicode="&#x1ea6;" horiz-adv-x="611" 
d="M598 0h-87l-59 167h-300l-59 -167h-80l248 675h90zM433 229l-100 277q-9 27 -30 93h-1q-23 -74 -29 -91l-101 -279h261zM458 770l-24 -45l-134 62l-128 -61l-21 41l152 82zM386 908l-15 -40l-171 56l23 56z" />
    <glyph glyph-name="uni1EA7" unicode="&#x1ea7;" horiz-adv-x="520" 
d="M430 0h-74q0 76 5 105h-2q-19 -49 -65.5 -81.5t-107.5 -32.5q-60 0 -98 36t-38 96q0 78 79 123.5t224 45.5v30q0 64 -25.5 94t-86.5 30q-71 0 -151 -35l-14 59q89 36 174 36q95 0 136.5 -45t41.5 -129v-183q0 -105 2 -149zM353 222v15q-228 0 -228 -103q0 -36 22.5 -59
t59.5 -23q63 0 104.5 52.5t41.5 117.5zM381 587l-30 -33l-97 72l-96 -72l-28 32l126 108zM317 725l-173 58l26 56l164 -74z" />
    <glyph glyph-name="uni1EA8" unicode="&#x1ea8;" horiz-adv-x="611" 
d="M598 0h-87l-59 167h-300l-59 -167h-80l248 675h90zM433 229l-100 277q-9 27 -30 93h-1q-23 -74 -29 -91l-101 -279h261zM368 827l-44 23q14 5 28 18t14 28q0 37 -59 37q-38 0 -74 -16l-11 42q42 21 103 21q46 0 73.5 -19t27.5 -53q0 -30 -19 -51.5t-39 -29.5zM458 754
l-24 -45l-134 62l-128 -62l-21 42l152 81z" />
    <glyph glyph-name="uni1EA9" unicode="&#x1ea9;" horiz-adv-x="520" 
d="M430 0h-74q0 76 5 105h-2q-19 -49 -65.5 -81.5t-107.5 -32.5q-60 0 -98 36t-38 96q0 78 79 123.5t224 45.5v30q0 64 -25.5 94t-86.5 30q-71 0 -151 -35l-14 59q89 36 174 36q95 0 136.5 -45t41.5 -129v-183q0 -105 2 -149zM353 222v15q-228 0 -228 -103q0 -36 22.5 -59
t59.5 -23q63 0 104.5 52.5t41.5 117.5zM381 587l-30 -33l-97 72l-96 -72l-28 32l126 108zM321 693l-36 30q23 15 23 37q0 36 -55 36q-23 0 -47 -6.5t-32 -11.5l-12 43q47 22 107 22q46 0 73 -19t27 -53q0 -46 -48 -78z" />
    <glyph glyph-name="uni1EAA" unicode="&#x1eaa;" horiz-adv-x="611" 
d="M598 0h-87l-59 167h-300l-59 -167h-80l248 675h90zM433 229l-100 277q-9 27 -30 93h-1q-23 -74 -29 -91l-101 -279h261zM458 770l-24 -45l-134 62l-128 -61l-21 41l152 82zM417 972l40 -24q-13 -31 -39 -50.5t-53 -19.5q-29 0 -57 26t-43 26q-25 0 -48 -44l-40 24
q14 31 39.5 50.5t51.5 19.5q30 0 58 -26t43 -26q26 0 48 44z" />
    <glyph glyph-name="uni1EAB" unicode="&#x1eab;" horiz-adv-x="520" 
d="M430 0h-74q0 76 5 105h-2q-19 -49 -65.5 -81.5t-107.5 -32.5q-60 0 -98 36t-38 96q0 78 79 123.5t224 45.5v30q0 64 -25.5 94t-86.5 30q-71 0 -151 -35l-14 59q89 36 174 36q95 0 136.5 -45t41.5 -129v-183q0 -105 2 -149zM353 222v15q-228 0 -228 -103q0 -36 22.5 -59
t59.5 -23q63 0 104.5 52.5t41.5 117.5zM381 587l-30 -33l-96 72l-97 -72l-28 32l126 108zM363 825l40 -25q-14 -31 -39.5 -50t-52.5 -19q-29 0 -57 26t-43 26q-26 0 -48 -44l-40 24q14 31 39.5 50t51.5 19q29 0 57.5 -25.5t43.5 -25.5q27 0 48 44z" />
    <glyph glyph-name="uni1EAC" unicode="&#x1eac;" horiz-adv-x="611" 
d="M598 0h-87l-59 167h-300l-59 -167h-80l248 675h90zM433 229l-100 277q-9 27 -30 93h-1q-23 -74 -29 -91l-101 -279h261zM352 -159q0 -22 -15 -36.5t-36 -14.5t-35.5 15t-14.5 36t14.5 35.5t35.5 14.5t36 -14.5t15 -35.5zM461 773l-23 -46l-133 62l-134 -62l-22 45l157 82
z" />
    <glyph glyph-name="uni1EAD" unicode="&#x1ead;" horiz-adv-x="520" 
d="M430 0h-74q0 76 5 105h-2q-19 -49 -65.5 -81.5t-107.5 -32.5q-60 0 -98 36t-38 96q0 78 79 123.5t224 45.5v30q0 64 -25.5 94t-86.5 30q-71 0 -151 -35l-14 59q89 36 174 36q95 0 136.5 -45t41.5 -129v-183q0 -105 2 -149zM353 222v15q-228 0 -228 -103q0 -36 22.5 -59
t59.5 -23q63 0 104.5 52.5t41.5 117.5zM301 -159q0 -22 -15 -36.5t-36 -14.5t-35.5 15t-14.5 36t14.5 35.5t35.5 14.5t36 -14.5t15 -35.5zM389 612l-34 -37l-99 86l-100 -86l-33 36l134 129z" />
    <glyph glyph-name="uni1EAE" unicode="&#x1eae;" horiz-adv-x="611" 
d="M598 0h-87l-59 167h-300l-59 -167h-80l248 675h90zM433 229l-100 277q-9 27 -30 93h-1q-23 -74 -29 -91l-101 -279h261zM375 838h51q0 -49 -33.5 -79.5t-91.5 -30.5q-59 0 -90 31t-31 79h50q0 -25 20.5 -43t51.5 -18q33 0 53 17.5t20 43.5zM426 924l-171 -58l-16 40
l163 74z" />
    <glyph glyph-name="uni1EAF" unicode="&#x1eaf;" horiz-adv-x="520" 
d="M430 0h-74q0 76 5 105h-2q-19 -49 -65.5 -81.5t-107.5 -32.5q-60 0 -98 36t-38 96q0 78 79 123.5t224 45.5v30q0 64 -25.5 94t-86.5 30q-71 0 -151 -35l-14 59q89 36 174 36q95 0 136.5 -45t41.5 -129v-183q0 -105 2 -149zM353 222v15q-228 0 -228 -103q0 -36 22.5 -59
t59.5 -23q63 0 104.5 52.5t41.5 117.5zM325 675h51q0 -50 -30.5 -84t-88.5 -34t-87.5 34t-29.5 84h51q0 -29 17.5 -48t49.5 -19q31 0 49 18t18 49zM376 783l-172 -58l-17 40l164 74z" />
    <glyph glyph-name="uni1EB0" unicode="&#x1eb0;" horiz-adv-x="611" 
d="M598 0h-87l-59 167h-300l-59 -167h-80l248 675h90zM433 229l-100 277q-9 27 -30 93h-1q-23 -74 -29 -91l-101 -279h261zM375 838h51q0 -49 -33.5 -79.5t-91.5 -30.5q-59 0 -90 31t-31 79h50q0 -25 20.5 -43t51.5 -18q33 0 53 17.5t20 43.5zM366 906l-15 -39l-171 58
l24 55z" />
    <glyph glyph-name="uni1EB1" unicode="&#x1eb1;" horiz-adv-x="520" 
d="M430 0h-74q0 76 5 105h-2q-19 -49 -65.5 -81.5t-107.5 -32.5q-60 0 -98 36t-38 96q0 78 79 123.5t224 45.5v30q0 64 -25.5 94t-86.5 30q-71 0 -151 -35l-14 59q89 36 174 36q95 0 136.5 -45t41.5 -129v-183q0 -105 2 -149zM353 222v15q-228 0 -228 -103q0 -36 22.5 -59
t59.5 -23q63 0 104.5 52.5t41.5 117.5zM325 675h51q0 -50 -30.5 -84t-88.5 -34t-87.5 34t-29.5 84h51q0 -29 17.5 -48t49.5 -19q31 0 49 18t18 49zM312 725l-172 58l25 56l164 -74z" />
    <glyph glyph-name="uni1EB2" unicode="&#x1eb2;" horiz-adv-x="611" 
d="M598 0h-87l-59 167h-300l-59 -167h-80l248 675h90zM433 229l-100 277q-9 27 -30 93h-1q-23 -74 -29 -91l-101 -279h261zM375 819h51q0 -47 -33.5 -76t-91.5 -29q-59 0 -90 29.5t-31 75.5h50q0 -24 20.5 -41t51.5 -17q33 0 53 17t20 41zM294 825l-10 33q59 20 59 47
q0 33 -50 33q-43 0 -67 -14l-11 37q41 19 94 19q42 0 65.5 -16.5t23.5 -46.5q0 -26 -21.5 -48t-42.5 -31t-40 -13z" />
    <glyph glyph-name="uni1EB3" unicode="&#x1eb3;" horiz-adv-x="520" 
d="M430 0h-74q0 76 5 105h-2q-19 -49 -65.5 -81.5t-107.5 -32.5q-60 0 -98 36t-38 96q0 78 79 123.5t224 45.5v30q0 64 -25.5 94t-86.5 30q-71 0 -151 -35l-14 59q89 36 174 36q95 0 136.5 -45t41.5 -129v-183q0 -105 2 -149zM353 222v15q-228 0 -228 -103q0 -36 22.5 -59
t59.5 -23q63 0 104.5 52.5t41.5 117.5zM325 668h53q0 -51 -31 -85.5t-91 -34.5q-59 0 -88.5 34.5t-29.5 85.5h52q0 -29 17.5 -48.5t49.5 -19.5q31 0 49.5 18t18.5 50zM261 691l-9 37q15 4 33 17t18 32q0 32 -50 32q-31 0 -68 -15l-10 40q44 19 93 19q43 0 67 -17t24 -49
q0 -39 -33.5 -64t-64.5 -32z" />
    <glyph glyph-name="uni1EB4" unicode="&#x1eb4;" horiz-adv-x="611" 
d="M598 0h-87l-59 167h-300l-59 -167h-80l248 675h90zM433 229l-100 277q-9 27 -30 93h-1q-23 -74 -29 -91l-101 -279h261zM409 972l40 -24q-14 -31 -40 -50.5t-52 -19.5q-29 0 -57 26t-43 26q-26 0 -48 -44l-40 24q14 31 39.5 50.5t51.5 19.5q29 0 57.5 -26t43.5 -26
q26 0 48 44zM379 838h51q0 -49 -33.5 -79.5t-90.5 -30.5q-59 0 -90.5 31t-31.5 79h51q0 -25 20 -43t52 -18q33 0 52.5 17.5t19.5 43.5z" />
    <glyph glyph-name="uni1EB5" unicode="&#x1eb5;" horiz-adv-x="520" 
d="M430 0h-74q0 76 5 105h-2q-19 -49 -65.5 -81.5t-107.5 -32.5q-60 0 -98 36t-38 96q0 78 79 123.5t224 45.5v30q0 64 -25.5 94t-86.5 30q-71 0 -151 -35l-14 59q89 36 174 36q95 0 136.5 -45t41.5 -129v-183q0 -105 2 -149zM353 222v15q-228 0 -228 -103q0 -36 22.5 -59
t59.5 -23q63 0 104.5 52.5t41.5 117.5zM359 826l40 -24q-14 -31 -40 -50.5t-52 -19.5q-29 0 -57 26t-43 26q-27 0 -48 -44l-40 25q14 31 39.5 50t51.5 19q29 0 57.5 -26t43.5 -26q26 0 48 44zM324 675h52q0 -50 -30.5 -84t-89.5 -34q-58 0 -87 34t-29 84h50
q0 -28 17.5 -47.5t49.5 -19.5q31 0 49 18t18 49z" />
    <glyph glyph-name="uni1EB6" unicode="&#x1eb6;" horiz-adv-x="611" 
d="M598 0h-87l-59 167h-300l-59 -167h-80l248 675h90zM433 229l-100 277q-9 27 -30 93h-1q-23 -74 -29 -91l-101 -279h261zM352 -159q0 -22 -15 -36.5t-36 -14.5t-35.5 15t-14.5 36t14.5 35.5t35.5 14.5t36 -14.5t15 -35.5zM377 849h51q0 -51 -34.5 -83.5t-91.5 -32.5
q-59 0 -91 32.5t-32 83.5h50q0 -27 21 -45t53 -18q33 0 53.5 18t20.5 45z" />
    <glyph glyph-name="uni1EB7" unicode="&#x1eb7;" horiz-adv-x="520" 
d="M430 0h-74q0 76 5 105h-2q-19 -49 -65.5 -81.5t-107.5 -32.5q-60 0 -98 36t-38 96q0 78 79 123.5t224 45.5v30q0 64 -25.5 94t-86.5 30q-71 0 -151 -35l-14 59q89 36 174 36q95 0 136.5 -45t41.5 -129v-183q0 -105 2 -149zM353 222v15q-228 0 -228 -103q0 -36 22.5 -59
t59.5 -23q63 0 104.5 52.5t41.5 117.5zM301 -159q0 -22 -15 -36.5t-36 -14.5t-35.5 15t-14.5 36t14.5 35.5t35.5 14.5t36 -14.5t15 -35.5zM325 717h53q0 -54 -30.5 -90.5t-90.5 -36.5t-89.5 36.5t-29.5 90.5h52q0 -30 18 -50t50 -20q31 0 49 18.5t18 51.5z" />
    <glyph glyph-name="uni1EB8" unicode="&#x1eb8;" horiz-adv-x="514" 
d="M442 0h-351v675h351v-62h-274v-234h252v-62h-252v-253h274v-64zM323 -159q0 -22 -15 -36.5t-36 -14.5t-35.5 15t-14.5 36t14.5 35.5t35.5 14.5t36 -14.5t15 -35.5z" />
    <glyph glyph-name="uni1EB9" unicode="&#x1eb9;" horiz-adv-x="505" 
d="M430 80l11 -59q-88 -30 -167 -30q-230 0 -230 255q0 114 59 187t160 73q97 0 145 -57t48 -146l-2 -53h-332q-1 -101 39 -149t123 -48q71 0 146 27zM124 305h255q1 68 -31 105.5t-90 37.5q-53 0 -89.5 -37.5t-44.5 -105.5zM314 -161q0 -22 -15 -36.5t-36 -14.5t-35.5 15
t-14.5 36t14.5 35.5t35.5 14.5t36 -14.5t15 -35.5z" />
    <glyph glyph-name="uni1EBA" unicode="&#x1eba;" horiz-adv-x="514" 
d="M442 0h-351v675h351v-62h-274v-234h252v-62h-252v-253h274v-64zM259 727l-11 42q10 3 21.5 8.5t24 18t12.5 26.5q0 37 -56 37q-36 0 -75 -16l-14 44q49 22 107 22q47 0 74 -19t27 -55q0 -44 -36.5 -71t-73.5 -37z" />
    <glyph glyph-name="uni1EBB" unicode="&#x1ebb;" horiz-adv-x="505" 
d="M430 80l11 -59q-88 -30 -167 -30q-230 0 -230 255q0 114 59 187t160 73q97 0 145 -57t48 -146l-2 -53h-332q-1 -101 39 -149t123 -48q71 0 146 27zM124 305h255q1 68 -31 105.5t-90 37.5q-53 0 -89.5 -37.5t-44.5 -105.5zM264 559l-11 42q10 3 21.5 8.5t24 18t12.5 26.5
q0 37 -56 37q-43 0 -75 -16l-13 45q52 21 106 21q47 0 74 -19t27 -55q0 -44 -36.5 -71t-73.5 -37z" />
    <glyph glyph-name="uni1EBC" unicode="&#x1ebc;" horiz-adv-x="514" 
d="M442 0h-351v675h351v-62h-274v-234h252v-62h-252v-253h274v-64zM402 837l40 -29q-40 -70 -107 -70q-36 0 -75 27t-59 27q-36 0 -64 -46l-40 29q39 70 107 70q36 0 75 -27t59 -27q35 0 64 46z" />
    <glyph glyph-name="uni1EBD" unicode="&#x1ebd;" horiz-adv-x="505" 
d="M430 80l11 -59q-88 -30 -167 -30q-230 0 -230 255q0 114 59 187t160 73q97 0 145 -57t48 -146l-2 -53h-332q-1 -101 39 -149t123 -48q71 0 146 27zM124 305h255q1 68 -31 105.5t-90 37.5q-53 0 -89.5 -37.5t-44.5 -105.5zM393 703l38 -31q-39 -72 -104 -72
q-35 0 -72.5 28t-56.5 28q-35 0 -62 -48l-38 31q39 73 104 73q35 0 72.5 -28t56.5 -28q35 0 62 47z" />
    <glyph glyph-name="uni1EBE" unicode="&#x1ebe;" horiz-adv-x="514" 
d="M442 0h-351v675h351v-62h-274v-234h252v-62h-252v-253h274v-64zM354 924l-171 -58l-16 40l163 74zM416 770l-24 -45l-134 62l-128 -61l-21 41l152 82z" />
    <glyph glyph-name="uni1EBF" unicode="&#x1ebf;" horiz-adv-x="505" 
d="M430 80l11 -59q-88 -30 -167 -30q-230 0 -230 255q0 114 59 187t160 73q97 0 145 -57t48 -146l-2 -53h-332q-1 -101 39 -149t123 -48q71 0 146 27zM124 305h255q1 68 -31 105.5t-90 37.5q-53 0 -89.5 -37.5t-44.5 -105.5zM386 587l-30 -33l-97 72l-96 -72l-28 32l126 108
zM355 783l-172 -58l-17 40l164 74z" />
    <glyph glyph-name="uni1EC0" unicode="&#x1ec0;" horiz-adv-x="514" 
d="M442 0h-351v675h351v-62h-274v-234h252v-62h-252v-253h274v-64zM417 770l-24 -45l-134 62l-128 -61l-21 41l152 82zM345 908l-15 -40l-171 56l23 56z" />
    <glyph glyph-name="uni1EC1" unicode="&#x1ec1;" horiz-adv-x="505" 
d="M430 80l11 -59q-88 -30 -167 -30q-230 0 -230 255q0 114 59 187t160 73q97 0 145 -57t48 -146l-2 -53h-332q-1 -101 39 -149t123 -48q71 0 146 27zM124 305h255q1 68 -31 105.5t-90 37.5q-53 0 -89.5 -37.5t-44.5 -105.5zM386 587l-30 -33l-97 72l-96 -72l-28 32l126 108
zM322 725l-173 58l26 56l164 -74z" />
    <glyph glyph-name="uni1EC2" unicode="&#x1ec2;" horiz-adv-x="514" 
d="M442 0h-351v675h351v-62h-274v-234h252v-62h-252v-253h274v-64zM327 827l-44 23q14 5 28 18t14 28q0 37 -59 37q-38 0 -74 -16l-11 42q42 21 103 21q46 0 73.5 -19t27.5 -53q0 -30 -19 -51.5t-39 -29.5zM417 754l-24 -45l-134 62l-128 -62l-21 42l152 81z" />
    <glyph glyph-name="uni1EC3" unicode="&#x1ec3;" horiz-adv-x="505" 
d="M430 80l11 -59q-88 -30 -167 -30q-230 0 -230 255q0 114 59 187t160 73q97 0 145 -57t48 -146l-2 -53h-332q-1 -101 39 -149t123 -48q71 0 146 27zM124 305h255q1 68 -31 105.5t-90 37.5q-53 0 -89.5 -37.5t-44.5 -105.5zM386 587l-30 -33l-97 72l-96 -72l-28 32l126 108
zM326 693l-36 30q23 15 23 37q0 36 -55 36q-23 0 -47 -6.5t-32 -11.5l-12 43q47 22 107 22q46 0 73 -19t27 -53q0 -46 -48 -78z" />
    <glyph glyph-name="uni1EC4" unicode="&#x1ec4;" horiz-adv-x="514" 
d="M442 0h-351v675h351v-62h-274v-234h252v-62h-252v-253h274v-64zM419 770l-24 -45l-134 62l-128 -61l-21 41l152 82zM378 972l40 -24q-13 -31 -39 -50.5t-53 -19.5q-29 0 -57 26t-43 26q-25 0 -48 -44l-40 24q14 31 39.5 50.5t51.5 19.5q29 0 58 -26t43 -26q26 0 48 44z
" />
    <glyph glyph-name="uni1EC5" unicode="&#x1ec5;" horiz-adv-x="505" 
d="M430 80l11 -59q-88 -30 -167 -30q-230 0 -230 255q0 114 59 187t160 73q97 0 145 -57t48 -146l-2 -53h-332q-1 -101 39 -149t123 -48q71 0 146 27zM124 305h255q1 68 -31 105.5t-90 37.5q-53 0 -89.5 -37.5t-44.5 -105.5zM386 587l-30 -33l-96 72l-97 -72l-28 32l126 108
zM368 825l40 -25q-14 -31 -39.5 -50t-52.5 -19q-29 0 -57 26t-43 26q-26 0 -48 -44l-40 24q14 31 39.5 50t51.5 19q29 0 57.5 -25.5t43.5 -25.5q27 0 48 44z" />
    <glyph glyph-name="uni1EC6" unicode="&#x1ec6;" horiz-adv-x="514" 
d="M442 0h-351v675h351v-62h-274v-234h252v-62h-252v-253h274v-64zM322 -159q0 -22 -15 -36.5t-36 -14.5t-35.5 15t-14.5 36t14.5 35.5t35.5 14.5t36 -14.5t15 -35.5zM424 773l-23 -46l-133 62l-134 -62l-22 45l157 82z" />
    <glyph glyph-name="uni1EC7" unicode="&#x1ec7;" horiz-adv-x="505" 
d="M430 80l11 -59q-88 -30 -167 -30q-230 0 -230 255q0 114 59 187t160 73q97 0 145 -57t48 -146l-2 -53h-332q-1 -101 39 -149t123 -48q71 0 146 27zM124 305h255q1 68 -31 105.5t-90 37.5q-53 0 -89.5 -37.5t-44.5 -105.5zM314 -161q0 -22 -15 -36.5t-36 -14.5t-35.5 15
t-14.5 36t14.5 35.5t35.5 14.5t36 -14.5t15 -35.5zM393 612l-34 -37l-99 86l-100 -86l-33 36l134 129z" />
    <glyph glyph-name="uni1EC8" unicode="&#x1ec8;" horiz-adv-x="259" 
d="M168 0h-77v675h77v-675zM119 727l-11 42q10 3 21.5 8.5t24 18t12.5 26.5q0 37 -56 37q-36 0 -75 -16l-14 44q50 22 107 22q47 0 74 -19t27 -55q0 -44 -36.5 -71t-73.5 -37z" />
    <glyph glyph-name="uni1EC9" unicode="&#x1ec9;" horiz-adv-x="257" 
d="M166 0h-75v497h75v-497zM119 559l-11 42q10 3 21.5 8.5t24 18t12.5 26.5q0 37 -56 37q-43 0 -75 -16l-13 45q52 21 106 21q47 0 74 -19t27 -55q0 -44 -36.5 -71t-73.5 -37z" />
    <glyph glyph-name="uni1ECA" unicode="&#x1eca;" horiz-adv-x="259" 
d="M168 0h-77v675h77v-675zM180 -159q0 -22 -15 -36.5t-36 -14.5t-35.5 15t-14.5 36t14.5 35.5t35.5 14.5t36 -14.5t15 -35.5z" />
    <glyph glyph-name="uni1ECB" unicode="&#x1ecb;" horiz-adv-x="257" 
d="M181 657q0 -21 -15.5 -36t-36.5 -15q-22 0 -37 14.5t-15 36.5q0 21 15 36t37 15q21 0 36.5 -15t15.5 -36zM166 0h-75v497h75v-497zM179 -159q0 -22 -15 -36.5t-36 -14.5t-35.5 15t-14.5 36t14.5 35.5t35.5 14.5t36 -14.5t15 -35.5z" />
    <glyph glyph-name="uni1ECC" unicode="&#x1ecc;" horiz-adv-x="708" 
d="M662 346q0 -166 -90.5 -260.5t-226.5 -94.5q-143 0 -221 91t-78 247q0 166 90.5 260.5t226.5 94.5q143 0 221 -91t78 -247zM582 333q0 131 -58.5 208t-169.5 77q-99 0 -163.5 -72.5t-64.5 -202.5q0 -131 59 -208.5t169 -77.5q99 0 163.5 73t64.5 203zM404 -161
q0 -22 -15 -36.5t-36 -14.5t-35.5 15t-14.5 36t14.5 35.5t35.5 14.5t36 -14.5t15 -35.5z" />
    <glyph glyph-name="uni1ECD" unicode="&#x1ecd;" horiz-adv-x="542" 
d="M499 254q0 -114 -62 -188.5t-174 -74.5q-103 0 -161.5 63.5t-58.5 188.5q0 114 62.5 188.5t174.5 74.5q102 0 160.5 -63.5t58.5 -188.5zM422 249q0 92 -40 143.5t-110 51.5t-110.5 -50.5t-40.5 -145.5q0 -92 39.5 -143t109.5 -51q68 0 110 48.5t42 146.5zM322 -161
q0 -22 -15 -36.5t-36 -14.5t-35.5 15t-14.5 36t14.5 35.5t35.5 14.5t36 -14.5t15 -35.5z" />
    <glyph glyph-name="uni1ECE" unicode="&#x1ece;" horiz-adv-x="708" 
d="M662 346q0 -166 -90.5 -260.5t-226.5 -94.5q-143 0 -221 91t-78 247q0 166 90.5 260.5t226.5 94.5q143 0 221 -91t78 -247zM582 333q0 131 -58.5 208t-169.5 77q-99 0 -163.5 -72.5t-64.5 -202.5q0 -131 59 -208.5t169 -77.5q99 0 163.5 73t64.5 203zM369 727l-11 42
q10 3 21.5 8.5t24 18t12.5 26.5q0 37 -56 37q-36 0 -75 -16l-14 44q50 22 107 22q47 0 74 -19t27 -55q0 -44 -36.5 -71t-73.5 -37z" />
    <glyph glyph-name="uni1ECF" unicode="&#x1ecf;" horiz-adv-x="542" 
d="M499 254q0 -114 -62 -188.5t-174 -74.5q-103 0 -161.5 63.5t-58.5 188.5q0 114 62.5 188.5t174.5 74.5q102 0 160.5 -63.5t58.5 -188.5zM422 249q0 92 -40 143.5t-110 51.5t-110.5 -50.5t-40.5 -145.5q0 -92 39.5 -143t109.5 -51q68 0 110 48.5t42 146.5zM274 559l-11 42
q10 3 21.5 8.5t24 18t12.5 26.5q0 37 -56 37q-43 0 -75 -16l-13 45q52 21 106 21q47 0 74 -19t27 -55q0 -44 -36.5 -71t-73.5 -37z" />
    <glyph glyph-name="uni1ED0" unicode="&#x1ed0;" horiz-adv-x="708" 
d="M662 346q0 -166 -90.5 -260.5t-226.5 -94.5q-143 0 -221 91t-78 247q0 166 90.5 260.5t226.5 94.5q143 0 221 -91t78 -247zM582 333q0 131 -58.5 208t-169.5 77q-99 0 -163.5 -72.5t-64.5 -202.5q0 -131 59 -208.5t169 -77.5q99 0 163.5 73t64.5 203zM450 924l-171 -58
l-16 40l163 74zM512 770l-24 -45l-134 62l-128 -61l-21 41l152 82z" />
    <glyph glyph-name="uni1ED1" unicode="&#x1ed1;" horiz-adv-x="542" 
d="M499 254q0 -114 -62 -188.5t-174 -74.5q-103 0 -161.5 63.5t-58.5 188.5q0 114 62.5 188.5t174.5 74.5q102 0 160.5 -63.5t58.5 -188.5zM422 249q0 92 -40 143.5t-110 51.5t-110.5 -50.5t-40.5 -145.5q0 -92 39.5 -143t109.5 -51q68 0 110 48.5t42 146.5zM397 587
l-30 -33l-97 72l-96 -72l-28 32l126 108zM366 783l-172 -58l-17 40l164 74z" />
    <glyph glyph-name="uni1ED2" unicode="&#x1ed2;" horiz-adv-x="708" 
d="M662 346q0 -166 -90.5 -260.5t-226.5 -94.5q-143 0 -221 91t-78 247q0 166 90.5 260.5t226.5 94.5q143 0 221 -91t78 -247zM582 333q0 131 -58.5 208t-169.5 77q-99 0 -163.5 -72.5t-64.5 -202.5q0 -131 59 -208.5t169 -77.5q99 0 163.5 73t64.5 203zM512 770l-24 -45
l-134 62l-128 -61l-21 41l152 82zM440 908l-15 -40l-171 56l23 56z" />
    <glyph glyph-name="uni1ED3" unicode="&#x1ed3;" horiz-adv-x="542" 
d="M499 254q0 -114 -62 -188.5t-174 -74.5q-103 0 -161.5 63.5t-58.5 188.5q0 114 62.5 188.5t174.5 74.5q102 0 160.5 -63.5t58.5 -188.5zM422 249q0 92 -40 143.5t-110 51.5t-110.5 -50.5t-40.5 -145.5q0 -92 39.5 -143t109.5 -51q68 0 110 48.5t42 146.5zM397 587
l-30 -33l-97 72l-96 -72l-28 32l126 108zM333 725l-173 58l26 56l164 -74z" />
    <glyph glyph-name="uni1ED4" unicode="&#x1ed4;" horiz-adv-x="708" 
d="M662 346q0 -166 -90.5 -260.5t-226.5 -94.5q-143 0 -221 91t-78 247q0 166 90.5 260.5t226.5 94.5q143 0 221 -91t78 -247zM582 333q0 131 -58.5 208t-169.5 77q-99 0 -163.5 -72.5t-64.5 -202.5q0 -131 59 -208.5t169 -77.5q99 0 163.5 73t64.5 203zM422 827l-44 23
q14 5 28 18t14 28q0 37 -59 37q-38 0 -74 -16l-11 42q42 21 103 21q46 0 73.5 -19t27.5 -53q0 -30 -19 -51.5t-39 -29.5zM512 754l-24 -45l-134 62l-128 -62l-21 42l152 81z" />
    <glyph glyph-name="uni1ED5" unicode="&#x1ed5;" horiz-adv-x="542" 
d="M499 254q0 -114 -62 -188.5t-174 -74.5q-103 0 -161.5 63.5t-58.5 188.5q0 114 62.5 188.5t174.5 74.5q102 0 160.5 -63.5t58.5 -188.5zM422 249q0 92 -40 143.5t-110 51.5t-110.5 -50.5t-40.5 -145.5q0 -92 39.5 -143t109.5 -51q68 0 110 48.5t42 146.5zM397 587
l-30 -33l-97 72l-96 -72l-28 32l126 108zM337 693l-36 30q23 15 23 37q0 36 -55 36q-23 0 -47 -6.5t-32 -11.5l-12 43q47 22 107 22q46 0 73 -19t27 -53q0 -46 -48 -78z" />
    <glyph glyph-name="uni1ED6" unicode="&#x1ed6;" horiz-adv-x="708" 
d="M662 346q0 -166 -90.5 -260.5t-226.5 -94.5q-143 0 -221 91t-78 247q0 166 90.5 260.5t226.5 94.5q143 0 221 -91t78 -247zM582 333q0 131 -58.5 208t-169.5 77q-99 0 -163.5 -72.5t-64.5 -202.5q0 -131 59 -208.5t169 -77.5q99 0 163.5 73t64.5 203zM512 770l-24 -45
l-134 62l-128 -61l-21 41l152 82zM471 972l40 -24q-13 -31 -39 -50.5t-53 -19.5q-29 0 -57 26t-43 26q-25 0 -48 -44l-40 24q14 31 39.5 50.5t51.5 19.5q30 0 58 -26t43 -26q26 0 48 44z" />
    <glyph glyph-name="uni1ED7" unicode="&#x1ed7;" horiz-adv-x="542" 
d="M499 254q0 -114 -62 -188.5t-174 -74.5q-103 0 -161.5 63.5t-58.5 188.5q0 114 62.5 188.5t174.5 74.5q102 0 160.5 -63.5t58.5 -188.5zM422 249q0 92 -40 143.5t-110 51.5t-110.5 -50.5t-40.5 -145.5q0 -92 39.5 -143t109.5 -51q68 0 110 48.5t42 146.5zM397 587
l-30 -33l-96 72l-97 -72l-28 32l126 108zM379 825l40 -25q-14 -31 -39.5 -50t-52.5 -19q-29 0 -57 26t-43 26q-26 0 -48 -44l-40 24q14 31 39.5 50t51.5 19q29 0 57.5 -25.5t43.5 -25.5q27 0 48 44z" />
    <glyph glyph-name="uni1ED8" unicode="&#x1ed8;" horiz-adv-x="708" 
d="M662 346q0 -166 -90.5 -260.5t-226.5 -94.5q-143 0 -221 91t-78 247q0 166 90.5 260.5t226.5 94.5q143 0 221 -91t78 -247zM582 333q0 131 -58.5 208t-169.5 77q-99 0 -163.5 -72.5t-64.5 -202.5q0 -131 59 -208.5t169 -77.5q99 0 163.5 73t64.5 203zM404 -161
q0 -22 -15 -36.5t-36 -14.5t-35.5 15t-14.5 36t14.5 35.5t35.5 14.5t36 -14.5t15 -35.5zM515 773l-23 -46l-133 62l-134 -62l-22 45l157 82z" />
    <glyph glyph-name="uni1ED9" unicode="&#x1ed9;" horiz-adv-x="542" 
d="M499 254q0 -114 -62 -188.5t-174 -74.5q-103 0 -161.5 63.5t-58.5 188.5q0 114 62.5 188.5t174.5 74.5q102 0 160.5 -63.5t58.5 -188.5zM422 249q0 92 -40 143.5t-110 51.5t-110.5 -50.5t-40.5 -145.5q0 -92 39.5 -143t109.5 -51q68 0 110 48.5t42 146.5zM322 -161
q0 -22 -15 -36.5t-36 -14.5t-35.5 15t-14.5 36t14.5 35.5t35.5 14.5t36 -14.5t15 -35.5zM404 612l-34 -37l-99 86l-100 -86l-33 36l134 129z" />
    <glyph glyph-name="uni1EDA" unicode="&#x1eda;" horiz-adv-x="745" 
d="M644 707h67q22 -57 13.5 -99.5t-30.5 -67t-57 -37.5q25 -68 25 -157q0 -166 -90.5 -260.5t-226.5 -94.5q-144 0 -221.5 90.5t-77.5 247.5q0 166 90.5 260.5t226.5 94.5q177 0 252 -134q74 35 29 157zM582 333q0 131 -58.5 208t-169.5 77q-99 0 -163.5 -72.5t-64.5 -202.5
q0 -131 59 -208.5t169 -77.5q99 0 163.5 73t64.5 203zM505 786l-180 -57l-16 44l172 74z" />
    <glyph glyph-name="uni1EDB" unicode="&#x1edb;" horiz-adv-x="590" 
d="M493 529h65q50 -148 -70 -184q11 -46 11 -91q0 -114 -62 -188.5t-174 -74.5q-103 0 -161.5 63.5t-58.5 188.5q0 114 62.5 188.5t174.5 74.5q140 0 193 -113q61 21 20 136zM422 249q0 92 -40 143.5t-110 51.5t-110.5 -50.5t-40.5 -145.5q0 -92 39.5 -143t109.5 -51
q68 0 110 48.5t42 146.5zM400 701l-132 -128l-38 36l121 138z" />
    <glyph glyph-name="uni1EDC" unicode="&#x1edc;" horiz-adv-x="745" 
d="M644 707h67q22 -57 13.5 -99.5t-30.5 -67t-57 -37.5q25 -68 25 -157q0 -166 -90.5 -260.5t-226.5 -94.5q-144 0 -221.5 90.5t-77.5 247.5q0 166 90.5 260.5t226.5 94.5q177 0 252 -134q74 35 29 157zM582 333q0 131 -58.5 208t-169.5 77q-99 0 -163.5 -72.5t-64.5 -202.5
q0 -131 59 -208.5t169 -77.5q99 0 163.5 73t64.5 203zM405 773l-16 -44l-180 57l24 61z" />
    <glyph glyph-name="uni1EDD" unicode="&#x1edd;" horiz-adv-x="590" 
d="M493 529h65q50 -148 -70 -184q11 -46 11 -91q0 -114 -62 -188.5t-174 -74.5q-103 0 -161.5 63.5t-58.5 188.5q0 114 62.5 188.5t174.5 74.5q140 0 193 -113q61 21 20 136zM422 249q0 92 -40 143.5t-110 51.5t-110.5 -50.5t-40.5 -145.5q0 -92 39.5 -143t109.5 -51
q68 0 110 48.5t42 146.5zM321 609l-38 -36l-132 128l49 46z" />
    <glyph glyph-name="uni1EDE" unicode="&#x1ede;" horiz-adv-x="745" 
d="M644 707h67q22 -57 13.5 -99.5t-30.5 -67t-57 -37.5q25 -68 25 -157q0 -166 -90.5 -260.5t-226.5 -94.5q-144 0 -221.5 90.5t-77.5 247.5q0 166 90.5 260.5t226.5 94.5q177 0 252 -134q74 35 29 157zM582 333q0 131 -58.5 208t-169.5 77q-99 0 -163.5 -72.5t-64.5 -202.5
q0 -131 59 -208.5t169 -77.5q99 0 163.5 73t64.5 203zM369 727l-11 42q10 3 21.5 8.5t24 18t12.5 26.5q0 37 -56 37q-36 0 -75 -16l-14 44q50 22 107 22q47 0 74 -19t27 -55q0 -44 -36.5 -71t-73.5 -37z" />
    <glyph glyph-name="uni1EDF" unicode="&#x1edf;" horiz-adv-x="590" 
d="M493 529h65q50 -148 -70 -184q11 -46 11 -91q0 -114 -62 -188.5t-174 -74.5q-103 0 -161.5 63.5t-58.5 188.5q0 114 62.5 188.5t174.5 74.5q140 0 193 -113q61 21 20 136zM422 249q0 92 -40 143.5t-110 51.5t-110.5 -50.5t-40.5 -145.5q0 -92 39.5 -143t109.5 -51
q68 0 110 48.5t42 146.5zM274 559l-11 42q10 3 21.5 8.5t24 18t12.5 26.5q0 37 -56 37q-43 0 -75 -16l-13 45q52 21 106 21q47 0 74 -19t27 -55q0 -44 -36.5 -71t-73.5 -37z" />
    <glyph glyph-name="uni1EE0" unicode="&#x1ee0;" horiz-adv-x="745" 
d="M644 707h67q22 -57 13.5 -99.5t-30.5 -67t-57 -37.5q25 -68 25 -157q0 -166 -90.5 -260.5t-226.5 -94.5q-144 0 -221.5 90.5t-77.5 247.5q0 166 90.5 260.5t226.5 94.5q177 0 252 -134q74 35 29 157zM582 333q0 131 -58.5 208t-169.5 77q-99 0 -163.5 -72.5t-64.5 -202.5
q0 -131 59 -208.5t169 -77.5q99 0 163.5 73t64.5 203zM486 837l40 -29q-40 -70 -107 -70q-36 0 -75 27t-59 27q-36 0 -64 -46l-40 29q39 70 107 70q36 0 75 -27t59 -27q35 0 64 46z" />
    <glyph glyph-name="uni1EE1" unicode="&#x1ee1;" horiz-adv-x="590" 
d="M493 529h65q50 -148 -70 -184q11 -46 11 -91q0 -114 -62 -188.5t-174 -74.5q-103 0 -161.5 63.5t-58.5 188.5q0 114 62.5 188.5t174.5 74.5q140 0 193 -113q61 21 20 136zM422 249q0 92 -40 143.5t-110 51.5t-110.5 -50.5t-40.5 -145.5q0 -92 39.5 -143t109.5 -51
q68 0 110 48.5t42 146.5zM404 703l38 -31q-39 -72 -104 -72q-35 0 -72.5 28t-56.5 28q-35 0 -62 -48l-38 31q39 73 104 73q35 0 72.5 -28t56.5 -28q35 0 62 47z" />
    <glyph glyph-name="uni1EE2" unicode="&#x1ee2;" horiz-adv-x="745" 
d="M644 707h67q22 -57 13.5 -99.5t-30.5 -67t-57 -37.5q25 -68 25 -157q0 -166 -90.5 -260.5t-226.5 -94.5q-144 0 -221.5 90.5t-77.5 247.5q0 166 90.5 260.5t226.5 94.5q177 0 252 -134q74 35 29 157zM582 333q0 131 -58.5 208t-169.5 77q-99 0 -163.5 -72.5t-64.5 -202.5
q0 -131 59 -208.5t169 -77.5q99 0 163.5 73t64.5 203zM404 -161q0 -22 -15 -36.5t-36 -14.5t-35.5 15t-14.5 36t14.5 35.5t35.5 14.5t36 -14.5t15 -35.5z" />
    <glyph glyph-name="uni1EE3" unicode="&#x1ee3;" horiz-adv-x="590" 
d="M493 529h65q50 -148 -70 -184q11 -46 11 -91q0 -114 -62 -188.5t-174 -74.5q-103 0 -161.5 63.5t-58.5 188.5q0 114 62.5 188.5t174.5 74.5q140 0 193 -113q61 21 20 136zM422 249q0 92 -40 143.5t-110 51.5t-110.5 -50.5t-40.5 -145.5q0 -92 39.5 -143t109.5 -51
q68 0 110 48.5t42 146.5zM322 -161q0 -22 -15 -36.5t-36 -14.5t-35.5 15t-14.5 36t14.5 35.5t35.5 14.5t36 -14.5t15 -35.5z" />
    <glyph glyph-name="uni1EE4" unicode="&#x1ee4;" horiz-adv-x="697" 
d="M606 675v-419q0 -130 -67.5 -197.5t-198.5 -67.5q-75 0 -126.5 19.5t-77 54.5t-35.5 73t-10 86v451h77v-444q0 -83 38.5 -130t139.5 -47q95 0 140 45t45 151v425h75zM399 -161q0 -22 -15 -36.5t-36 -14.5t-35.5 15t-14.5 36t14.5 35.5t35.5 14.5t36 -14.5t15 -35.5z" />
    <glyph glyph-name="uni1EE5" unicode="&#x1ee5;" horiz-adv-x="577" 
d="M486 0h-74q0 63 8 111l-2 1q-22 -56 -68 -88.5t-110 -32.5q-149 0 -149 160v346h75v-321q0 -62 20.5 -92.5t72.5 -30.5q66 0 109 58.5t43 147.5v238h75v-497zM348 -159q0 -22 -15 -36.5t-36 -14.5t-35.5 15t-14.5 36t14.5 35.5t35.5 14.5t36 -14.5t15 -35.5z" />
    <glyph glyph-name="uni1EE6" unicode="&#x1ee6;" horiz-adv-x="697" 
d="M606 675v-419q0 -130 -67.5 -197.5t-198.5 -67.5q-75 0 -126.5 19.5t-77 54.5t-35.5 73t-10 86v451h77v-444q0 -83 38.5 -130t139.5 -47q95 0 140 45t45 151v425h75zM353 727l-11 42q10 3 21.5 8.5t24 18t12.5 26.5q0 37 -56 37q-36 0 -75 -16l-14 44q50 22 107 22
q47 0 74 -19t27 -55q0 -44 -36.5 -71t-73.5 -37z" />
    <glyph glyph-name="uni1EE7" unicode="&#x1ee7;" horiz-adv-x="577" 
d="M486 0h-74q0 63 8 111l-2 1q-22 -56 -68 -88.5t-110 -32.5q-149 0 -149 160v346h75v-321q0 -62 20.5 -92.5t72.5 -30.5q66 0 109 58.5t43 147.5v238h75v-497zM293 559l-11 42q10 3 21.5 8.5t24 18t12.5 26.5q0 37 -56 37q-43 0 -75 -16l-13 45q52 21 106 21q47 0 74 -19
t27 -55q0 -44 -36.5 -71t-73.5 -37z" />
    <glyph glyph-name="uni1EE8" unicode="&#x1ee8;" horiz-adv-x="765" 
d="M679 707h66q26 -106 -17.5 -162t-121.5 -57v-232q0 -130 -67.5 -197.5t-198.5 -67.5q-75 0 -126.5 19.5t-77 54.5t-35.5 73t-10 86v451h77v-444q0 -83 38.5 -130t139.5 -47q95 0 140 45t45 151v425h75v-136q111 2 73 168zM514 786l-180 -57l-16 44l172 74z" />
    <glyph glyph-name="uni1EE9" unicode="&#x1ee9;" horiz-adv-x="634" 
d="M486 0h-74q0 63 8 111l-2 1q-22 -56 -68 -88.5t-110 -32.5q-149 0 -149 160v346h75v-321q0 -62 20.5 -92.5t72.5 -30.5q66 0 109 58.5t43 147.5v238h75v-127q45 2 61.5 38.5t-2.5 120.5h59q27 -96 -10 -149.5t-108 -55.5v-324zM421 701l-132 -128l-38 36l121 138z" />
    <glyph glyph-name="uni1EEA" unicode="&#x1eea;" horiz-adv-x="765" 
d="M679 707h66q26 -106 -17.5 -162t-121.5 -57v-232q0 -130 -67.5 -197.5t-198.5 -67.5q-75 0 -126.5 19.5t-77 54.5t-35.5 73t-10 86v451h77v-444q0 -83 38.5 -130t139.5 -47q95 0 140 45t45 151v425h75v-136q111 2 73 168zM392 773l-16 -44l-180 57l24 61z" />
    <glyph glyph-name="uni1EEB" unicode="&#x1eeb;" horiz-adv-x="634" 
d="M486 0h-74q0 63 8 111l-2 1q-22 -56 -68 -88.5t-110 -32.5q-149 0 -149 160v346h75v-321q0 -62 20.5 -92.5t72.5 -30.5q66 0 109 58.5t43 147.5v238h75v-127q45 2 61.5 38.5t-2.5 120.5h59q27 -96 -10 -149.5t-108 -55.5v-324zM328 609l-38 -36l-132 128l49 46z" />
    <glyph glyph-name="uni1EEC" unicode="&#x1eec;" horiz-adv-x="765" 
d="M679 707h66q26 -106 -17.5 -162t-121.5 -57v-232q0 -130 -67.5 -197.5t-198.5 -67.5q-75 0 -126.5 19.5t-77 54.5t-35.5 73t-10 86v451h77v-444q0 -83 38.5 -130t139.5 -47q95 0 140 45t45 151v425h75v-136q111 2 73 168zM353 727l-11 42q10 3 21.5 8.5t24 18t12.5 26.5
q0 37 -56 37q-36 0 -75 -16l-14 44q50 22 107 22q47 0 74 -19t27 -55q0 -44 -36.5 -71t-73.5 -37z" />
    <glyph glyph-name="uni1EED" unicode="&#x1eed;" horiz-adv-x="634" 
d="M486 0h-74q0 63 8 111l-2 1q-22 -56 -68 -88.5t-110 -32.5q-149 0 -149 160v346h75v-321q0 -62 20.5 -92.5t72.5 -30.5q66 0 109 58.5t43 147.5v238h75v-127q45 2 61.5 38.5t-2.5 120.5h59q27 -96 -10 -149.5t-108 -55.5v-324zM293 559l-11 42q10 3 21.5 8.5t24 18
t12.5 26.5q0 37 -56 37q-43 0 -75 -16l-13 45q52 21 106 21q47 0 74 -19t27 -55q0 -44 -36.5 -71t-73.5 -37z" />
    <glyph glyph-name="uni1EEE" unicode="&#x1eee;" horiz-adv-x="765" 
d="M679 707h66q26 -106 -17.5 -162t-121.5 -57v-232q0 -130 -67.5 -197.5t-198.5 -67.5q-75 0 -126.5 19.5t-77 54.5t-35.5 73t-10 86v451h77v-444q0 -83 38.5 -130t139.5 -47q95 0 140 45t45 151v425h75v-136q111 2 73 168zM481 837l40 -29q-40 -70 -107 -70q-36 0 -75 27
t-59 27q-36 0 -64 -46l-40 29q39 70 107 70q36 0 75 -27t59 -27q35 0 64 46z" />
    <glyph glyph-name="uni1EEF" unicode="&#x1eef;" horiz-adv-x="634" 
d="M486 0h-74q0 63 8 111l-2 1q-22 -56 -68 -88.5t-110 -32.5q-149 0 -149 160v346h75v-321q0 -62 20.5 -92.5t72.5 -30.5q66 0 109 58.5t43 147.5v238h75v-127q45 2 61.5 38.5t-2.5 120.5h59q27 -96 -10 -149.5t-108 -55.5v-324zM417 703l38 -31q-39 -72 -104 -72
q-35 0 -72.5 28t-56.5 28q-35 0 -62 -48l-38 31q39 73 104 73q35 0 72.5 -28t56.5 -28q35 0 62 47z" />
    <glyph glyph-name="uni1EF0" unicode="&#x1ef0;" horiz-adv-x="765" 
d="M679 707h66q26 -106 -17.5 -162t-121.5 -57v-232q0 -130 -67.5 -197.5t-198.5 -67.5q-75 0 -126.5 19.5t-77 54.5t-35.5 73t-10 86v451h77v-444q0 -83 38.5 -130t139.5 -47q95 0 140 45t45 151v425h75v-136q111 2 73 168zM399 -161q0 -22 -15 -36.5t-36 -14.5t-35.5 15
t-14.5 36t14.5 35.5t35.5 14.5t36 -14.5t15 -35.5z" />
    <glyph glyph-name="uni1EF1" unicode="&#x1ef1;" horiz-adv-x="634" 
d="M486 0h-74q0 63 8 111l-2 1q-22 -56 -68 -88.5t-110 -32.5q-149 0 -149 160v346h75v-321q0 -62 20.5 -92.5t72.5 -30.5q66 0 109 58.5t43 147.5v238h75v-127q45 2 61.5 38.5t-2.5 120.5h59q27 -96 -10 -149.5t-108 -55.5v-324zM348 -159q0 -22 -15 -36.5t-36 -14.5
t-35.5 15t-14.5 36t14.5 35.5t35.5 14.5t36 -14.5t15 -35.5z" />
    <glyph glyph-name="Ygrave" unicode="&#x1ef2;" horiz-adv-x="527" 
d="M523 675l-222 -411v-264h-76v264l-221 411h85l123 -232q28 -55 53 -112h1q25 58 55 114l121 230h81zM271 773l-16 -44l-180 57l24 61z" />
    <glyph glyph-name="ygrave" unicode="&#x1ef3;" horiz-adv-x="471" 
d="M461 497l-204 -544q-43 -116 -95 -163t-136 -47l-52 6l8 65q29 -7 58 -7q45 0 77 29.5t61 105.5l23 58l-190 497h86l104 -286q22 -61 39 -121h1q13 47 49 152l89 255h82zM257 609l-38 -36l-132 128l49 46z" />
    <glyph glyph-name="uni1EF4" unicode="&#x1ef4;" horiz-adv-x="527" 
d="M523 675l-222 -411v-264h-76v264l-221 411h85l123 -232q28 -55 53 -112h1q25 58 55 114l121 230h81zM314 -159q0 -22 -15 -36.5t-36 -14.5t-35.5 15t-14.5 36t14.5 35.5t35.5 14.5t36 -14.5t15 -35.5z" />
    <glyph glyph-name="uni1EF5" unicode="&#x1ef5;" horiz-adv-x="471" 
d="M461 497l-187 -496q-44 -115 -98 -164t-138 -49q-30 0 -53 6l8 67q30 -8 58 -8q47 0 82 31t64 105l4 11l-190 497h86l104 -285q20 -58 38 -118h1q12 43 50 151l89 252h82zM312 -268q0 -22 -15 -36.5t-36 -14.5t-35.5 15t-14.5 36t14.5 35.5t35.5 14.5t36 -14.5t15 -35.5z
" />
    <glyph glyph-name="uni1EF6" unicode="&#x1ef6;" horiz-adv-x="527" 
d="M523 675l-222 -411v-264h-76v264l-221 411h85l123 -232q28 -55 53 -112h1q25 58 55 114l121 230h81zM268 727l-11 42q10 3 21.5 8.5t24 18t12.5 26.5q0 37 -56 37q-36 0 -75 -16l-14 44q49 22 107 22q47 0 74 -19t27 -55q0 -44 -36.5 -71t-73.5 -37z" />
    <glyph glyph-name="uni1EF7" unicode="&#x1ef7;" horiz-adv-x="471" 
d="M461 497l-204 -544q-43 -116 -95 -163t-136 -47l-52 6l8 65q29 -7 58 -7q45 0 77 29.5t61 105.5l23 58l-190 497h86l104 -286q22 -61 39 -121h1q13 47 49 152l89 255h82zM234 559l-11 42q10 3 21.5 8.5t24 18t12.5 26.5q0 37 -56 37q-43 0 -75 -16l-13 45q52 21 106 21
q47 0 74 -19t27 -55q0 -44 -36.5 -71t-73.5 -37z" />
    <glyph glyph-name="uni1EF8" unicode="&#x1ef8;" horiz-adv-x="527" 
d="M523 675l-222 -411v-264h-76v264l-221 411h85l123 -232q28 -55 53 -112h1q25 58 55 114l121 230h81zM403 837l40 -29q-40 -70 -107 -70q-36 0 -75 27t-59 27q-36 0 -64 -46l-40 29q39 70 107 70q36 0 75 -27t59 -27q35 0 64 46z" />
    <glyph glyph-name="uni1EF9" unicode="&#x1ef9;" horiz-adv-x="471" 
d="M461 497l-204 -544q-43 -116 -95 -163t-136 -47l-52 6l8 65q29 -7 58 -7q45 0 77 29.5t61 105.5l23 58l-190 497h86l104 -286q22 -61 39 -121h1q13 47 49 152l89 255h82zM365 703l38 -31q-39 -72 -104 -72q-35 0 -72.5 28t-56.5 28q-35 0 -62 -48l-38 31q39 73 104 73
q35 0 72.5 -28t56.5 -28q35 0 62 47z" />
    <glyph glyph-name="figuredash" unicode="&#x2012;" 
d="M502 265h-454v66h454v-66z" />
    <glyph glyph-name="endash" unicode="&#x2013;" 
d="M550 265h-550v66h550v-66z" />
    <glyph glyph-name="emdash" unicode="&#x2014;" horiz-adv-x="1000" 
d="M879 265h-758v66h758v-66z" />
    <glyph glyph-name="uni2015" unicode="&#x2015;" horiz-adv-x="1000" 
d="M879 265h-758v66h758v-66z" />
    <glyph glyph-name="underscoredbl" unicode="&#x2017;" 
d="M550 -127h-550v51h550v-51zM550 -251h-550v51h550v-51z" />
    <glyph glyph-name="quoteleft" unicode="&#x2018;" horiz-adv-x="234" 
d="M159 747l33 -29q-83 -90 -44 -140q18 -24 5.5 -50.5t-42.5 -26.5q-34 0 -49 32.5t8 92t89 121.5z" />
    <glyph glyph-name="quoteright" unicode="&#x2019;" horiz-adv-x="234" 
d="M74 495l-33 29q81 89 44 140q-19 24 -6 50.5t43 26.5q34 0 49 -32.5t-8 -92t-89 -121.5z" />
    <glyph glyph-name="quotesinglbase" unicode="&#x201a;" horiz-adv-x="234" 
d="M74 -147l-33 29q81 89 44 140q-19 24 -6 50.5t43 26.5q34 0 49 -32.5t-8 -92t-89 -121.5z" />
    <glyph glyph-name="quotereversed" unicode="&#x201b;" horiz-adv-x="234" 
d="M194 524l-34 -29q-102 96 -102 179q0 31 15.5 49t40.5 18q20 0 33 -14t13 -33q0 -14 -10.5 -31t-10.5 -34q0 -46 55 -105z" />
    <glyph glyph-name="quotedblleft" unicode="&#x201c;" horiz-adv-x="413" 
d="M337 747l33 -29q-82 -89 -43 -140q18 -24 5.5 -50.5t-42.5 -26.5q-35 0 -50 32.5t8 92t89 121.5zM159 747l33 -29q-83 -90 -44 -140q18 -24 5.5 -50.5t-42.5 -26.5q-34 0 -49 32.5t8 92t89 121.5z" />
    <glyph glyph-name="quotedblright" unicode="&#x201d;" horiz-adv-x="413" 
d="M252 495l-33 29q83 89 44 140q-18 24 -5.5 50.5t42.5 26.5q34 0 49 -32.5t-8 -92t-89 -121.5zM74 495l-33 29q81 89 44 140q-19 24 -6 50.5t43 26.5q34 0 49 -32.5t-8 -92t-89 -121.5z" />
    <glyph glyph-name="quotedblbase" unicode="&#x201e;" horiz-adv-x="413" 
d="M252 -147l-33 29q83 89 44 140q-18 24 -5.5 50.5t42.5 26.5q34 0 49 -32.5t-8 -92t-89 -121.5zM74 -147l-33 29q81 89 44 140q-19 24 -6 50.5t43 26.5q34 0 49 -32.5t-8 -92t-89 -121.5z" />
    <glyph glyph-name="dagger" unicode="&#x2020;" horiz-adv-x="445" 
d="M394 566h-142l15 -101l-17 -249h-55l-17 249l15 101h-142v59h142l-15 137h89l-15 -137h142v-59z" />
    <glyph glyph-name="daggerdbl" unicode="&#x2021;" horiz-adv-x="445" 
d="M394 299h-142l15 -133h-89l15 133h-142v58h142l-15 107l15 107h-142v58h142l-15 133h89l-15 -133h142v-58h-142l15 -107l-15 -107h142v-58z" />
    <glyph glyph-name="bullet" unicode="&#x2022;" horiz-adv-x="419" 
d="M320 297q0 -46 -32.5 -78t-77.5 -32q-46 0 -78 32t-32 78t32 78t78 32q45 0 77.5 -32t32.5 -78z" />
    <glyph glyph-name="onedotlead" unicode="&#x2024;" horiz-adv-x="500" 
d="M303 45q0 -22 -15.5 -37.5t-37.5 -15.5t-37.5 15.5t-15.5 37.5q0 23 15.5 38t37.5 15t37.5 -15t15.5 -38z" />
    <glyph glyph-name="twodotlead" unicode="&#x2025;" horiz-adv-x="500" 
d="M428 45q0 -22 -15.5 -37.5t-37.5 -15.5t-37.5 15.5t-15.5 37.5q0 23 15 38t38 15t38 -15t15 -38zM178 45q0 -22 -15.5 -37.5t-37.5 -15.5t-37.5 15.5t-15.5 37.5q0 23 15 38t38 15t38 -15t15 -38z" />
    <glyph glyph-name="ellipsis" unicode="&#x2026;" horiz-adv-x="642" 
d="M576 45q0 -22 -15.5 -37.5t-37.5 -15.5t-38 15.5t-16 37.5t15.5 37.5t38.5 15.5q22 0 37.5 -15.5t15.5 -37.5zM368 45q0 -22 -15.5 -37.5t-37.5 -15.5t-37.5 15.5t-15.5 37.5t15.5 37.5t37.5 15.5q23 0 38 -15t15 -38zM161 45q0 -22 -16 -37.5t-38 -15.5t-37.5 15.5
t-15.5 37.5t15.5 37.5t37.5 15.5q23 0 38.5 -15.5t15.5 -37.5z" />
    <glyph glyph-name="perthousand" unicode="&#x2030;" horiz-adv-x="1015" 
d="M317 540q0 -73 -39.5 -115.5t-98.5 -42.5q-61 0 -95 35t-34 109q0 72 39.5 114.5t98.5 42.5q60 0 94.5 -34.5t34.5 -108.5zM255 533q0 98 -70 98q-34 0 -53 -27t-19 -72q0 -98 70 -98q34 0 53 27t19 72zM634 653l-531 -668l-47 36l530 669zM640 150q0 -73 -39.5 -116
t-98.5 -43q-61 0 -95 35t-34 109q0 72 39.5 114.5t98.5 42.5q129 0 129 -142zM578 143q0 97 -70 97q-33 0 -52.5 -26.5t-19.5 -71.5q0 -99 70 -99q34 0 53 27t19 73zM955 150q0 -73 -39.5 -116t-98.5 -43q-60 0 -94.5 35.5t-34.5 108.5q0 72 40 114.5t99 42.5t93.5 -34
t34.5 -108zM893 143q0 97 -70 97q-33 0 -52.5 -26.5t-19.5 -71.5q0 -99 70 -99q34 0 53 27t19 73z" />
    <glyph glyph-name="minute" unicode="&#x2032;" horiz-adv-x="190" 
d="M170 698l-55 -220h-53l28 220h80z" />
    <glyph glyph-name="second" unicode="&#x2033;" horiz-adv-x="345" 
d="M325 698l-55 -220h-53l28 220h80zM170 698l-55 -220h-53l28 220h80z" />
    <glyph glyph-name="guilsinglleft" unicode="&#x2039;" horiz-adv-x="313" 
d="M234 154l-55 -33l-120 172l121 176l54 -32l-100 -143z" />
    <glyph glyph-name="guilsinglright" unicode="&#x203a;" horiz-adv-x="313" 
d="M255 296l-122 -175l-54 32l100 142l-99 141l56 33z" />
    <glyph glyph-name="exclamdbl" unicode="&#x203c;" horiz-adv-x="576" 
d="M214 701l-14 -541h-62l-14 541h90zM222 44q0 -22 -15.5 -37t-37.5 -15t-37.5 15t-15.5 37t15 37.5t38 15.5t38 -15.5t15 -37.5zM472 701l-14 -541h-62l-14 541h90zM480 44q0 -22 -15.5 -37t-37.5 -15t-37.5 15t-15.5 37t15 37.5t38 15.5t38 -15.5t15 -37.5z" />
    <glyph glyph-name="uni203D" unicode="&#x203d;" horiz-adv-x="506" 
d="M262 703l-1 -59q101 -9 147 -51t46 -103q0 -39 -20.5 -71.5t-50.5 -56.5t-59.5 -49.5t-50.5 -64.5t-22 -88h-62l-10 423q-53 -2 -132 -17l-3 63q75 14 134 15l-1 59h85zM219 97q23 0 38.5 -15.5t15.5 -37.5t-15.5 -37t-38.5 -15q-22 0 -37.5 15t-15.5 37t15 37.5t38 15.5
zM260 582l-6 -257q18 24 51.5 53t51.5 52.5t18 54.5q0 83 -115 97z" />
    <glyph glyph-name="uni203E" unicode="&#x203e;" 
d="M550 798h-550v59h550v-59z" />
    <glyph glyph-name="fraction" unicode="&#x2044;" horiz-adv-x="210" 
d="M459 767l-634 -904l-51 35l635 904z" />
    <glyph glyph-name="fraction" unicode="&#x2215;" horiz-adv-x="210" 
d="M459 767l-634 -904l-51 35l635 904z" />
    <glyph glyph-name="zero.superior" unicode="&#x2070;" horiz-adv-x="430" 
d="M384 576q0 -97 -44 -157t-130 -60q-164 0 -164 210q0 97 44.5 157t129.5 60q84 0 124 -56.5t40 -153.5zM312 571q0 161 -97 161t-97 -157q0 -162 97 -162t97 158z" />
    <glyph glyph-name="four.superior" unicode="&#x2074;" horiz-adv-x="380" 
d="M355 461h-68v-94h-67v94h-194l-5 47l168 271h98v-261h68v-57zM220 518v210l-131 -212q35 2 131 2z" />
    <glyph glyph-name="five.superior" unicode="&#x2075;" horiz-adv-x="338" 
d="M51 369l6 55q33 -12 74 -12t66.5 23t25.5 56q0 76 -106 76q-19 0 -51 -4v216h208v-58h-144v-103q7 1 17 1q69 0 109 -31.5t40 -85.5q0 -66 -46.5 -104.5t-121.5 -38.5q-42 0 -77 10z" />
    <glyph glyph-name="six.superior" unicode="&#x2076;" horiz-adv-x="397" 
d="M319 782l-6 -53q-32 5 -56 5q-60 0 -93 -33q-17 -17 -26.5 -40t-14.5 -48.5t-6 -28.5q13 20 40.5 32t58.5 12q62 0 100 -33.5t38 -91.5q0 -66 -44.5 -105t-112.5 -39q-147 0 -147 178q0 113 53 181t159 68q36 0 57 -4zM285 495q0 41 -22.5 61.5t-57.5 20.5
q-37 0 -61 -20.5t-24 -55.5q0 -40 22.5 -65t60.5 -25q37 0 59.5 23t22.5 61z" />
    <glyph glyph-name="seven.superior" unicode="&#x2077;" horiz-adv-x="321" 
d="M290 779v-55q-89 -186 -125 -357h-77q25 97 63 198t68 155q-15 -1 -191 -1v60h262z" />
    <glyph glyph-name="eight.superior" unicode="&#x2078;" horiz-adv-x="384" 
d="M339 475q0 -53 -40.5 -85t-112.5 -32q-68 0 -105 28t-37 78q0 59 87 110q-79 41 -79 102q0 50 39 80.5t106 30.5q64 0 99 -27t35 -73q0 -55 -79 -103q45 -24 66 -49t21 -60zM264 682q0 55 -72 55q-34 0 -53 -14.5t-19 -37.5q0 -44 75 -78q69 38 69 75zM272 466
q0 25 -20.5 45t-64.5 39q-75 -41 -75 -81q0 -61 80 -61q37 0 58.5 16t21.5 42z" />
    <glyph glyph-name="nine.superior" unicode="&#x2079;" horiz-adv-x="397" 
d="M64 366l6 54q34 -8 70 -8q109 0 131 117q2 6 4.5 17t4.5 17q-30 -45 -98 -45q-63 0 -100 33t-37 92q0 66 43 104.5t113 38.5q146 0 146 -182q0 -112 -53 -178.5t-159 -66.5q-38 0 -71 7zM277 647q0 40 -21.5 63.5t-60.5 23.5q-37 0 -59 -22t-22 -59q0 -39 20.5 -61.5
t59.5 -22.5q37 0 60 21t23 57z" />
    <glyph glyph-name="uni207A" unicode="&#x207a;" horiz-adv-x="400" 
d="M353 538h-123v-121h-60v121h-123v52h123v120h60v-120h123v-52z" />
    <glyph glyph-name="uni207B" unicode="&#x207b;" horiz-adv-x="400" 
d="M353 538h-306v52h306v-52z" />
    <glyph glyph-name="uni207C" unicode="&#x207c;" horiz-adv-x="400" 
d="M353 461h-306v51h306v-51zM353 616h-306v51h306v-51z" />
    <glyph glyph-name="parenleft.superior" unicode="&#x207d;" horiz-adv-x="303" 
d="M244 236l-63 -16q-94 163 -94 340q0 181 94 345l62 -16q-86 -151 -86 -325q0 -172 87 -328z" />
    <glyph glyph-name="parenright.superior" unicode="&#x207e;" horiz-adv-x="303" 
d="M121 220l-62 16q86 152 86 325q0 175 -87 328l64 16q94 -165 94 -340q0 -182 -95 -345z" />
    <glyph glyph-name="nsuperior" unicode="&#x207f;" horiz-adv-x="424" 
d="M355 367h-68v213q0 37 -13 55t-45 18q-41 0 -67 -35.5t-26 -91.5v-159h-67v331h65q0 -44 -5 -67q37 75 122 75q104 0 104 -107v-232z" />
    <glyph glyph-name="zero.inferior" unicode="&#x2080;" horiz-adv-x="430" 
d="M384 106q0 -97 -44 -157t-130 -60q-164 0 -164 210q0 97 44.5 157t129.5 60q84 0 124 -56.5t40 -153.5zM312 101q0 161 -97 161t-97 -157q0 -162 97 -162t97 158z" />
    <glyph glyph-name="one.inferior" unicode="&#x2081;" horiz-adv-x="268" 
d="M192 -103h-71v346l-92 -35l-12 59l117 42h58v-412z" />
    <glyph glyph-name="two.inferior" unicode="&#x2082;" horiz-adv-x="351" 
d="M312 -103h-271v52l101 101q78 78 78 134q0 35 -19 55.5t-57 20.5q-45 0 -87 -24l-12 53q54 27 115 27q63 0 98.5 -32.5t35.5 -87.5q0 -80 -85 -165l-77 -76q47 2 180 2v-60z" />
    <glyph glyph-name="three.inferior" unicode="&#x2083;" horiz-adv-x="341" 
d="M39 -102l8 57q36 -12 79 -12q44 0 68.5 19.5t24.5 52.5q0 38 -38.5 56.5t-113.5 9.5v52q69 0 103.5 17t34.5 57q0 27 -18.5 41.5t-51.5 14.5q-44 0 -81 -17l-9 52q51 18 104 18q59 0 93 -26t34 -75q0 -73 -70 -97q40 -7 63 -34.5t23 -62.5q0 -59 -48 -95.5t-123 -36.5
q-37 0 -82 9z" />
    <glyph glyph-name="four.inferior" unicode="&#x2084;" horiz-adv-x="380" 
d="M355 -9h-68v-94h-67v94h-194l-5 47l168 271h98v-261h68v-57zM220 48v210l-131 -212q35 2 131 2z" />
    <glyph glyph-name="five.inferior" unicode="&#x2085;" horiz-adv-x="338" 
d="M51 -101l6 55q33 -12 74 -12t66.5 23t25.5 56q0 76 -106 76q-19 0 -51 -4v216h208v-58h-144v-103q7 1 17 1q69 0 109 -31.5t40 -85.5q0 -66 -46.5 -104.5t-121.5 -38.5q-42 0 -77 10z" />
    <glyph glyph-name="six.inferior" unicode="&#x2086;" horiz-adv-x="397" 
d="M319 312l-6 -53q-33 5 -56 5q-60 0 -93 -33q-17 -17 -26.5 -40t-14.5 -48.5t-6 -28.5q13 20 40.5 32t58.5 12q62 0 100 -33.5t38 -91.5q0 -66 -44.5 -105t-112.5 -39q-147 0 -147 178q0 113 53 181t159 68q36 0 57 -4zM285 25q0 41 -22.5 61.5t-57.5 20.5
q-37 0 -61 -20.5t-24 -55.5q0 -40 22.5 -65t60.5 -25q37 0 59.5 23t22.5 61z" />
    <glyph glyph-name="seven.inferior" unicode="&#x2087;" horiz-adv-x="321" 
d="M290 309v-55q-89 -186 -125 -357h-77q25 97 63 198t68 155q-15 -1 -191 -1v60h262z" />
    <glyph glyph-name="eight.inferior" unicode="&#x2088;" horiz-adv-x="384" 
d="M339 5q0 -53 -40.5 -85t-112.5 -32q-68 0 -105 28t-37 78q0 59 87 110q-79 41 -79 102q0 50 39 80.5t106 30.5q64 0 99 -27t35 -73q0 -55 -79 -103q45 -24 66 -49t21 -60zM264 212q0 55 -72 55q-34 0 -53 -14.5t-19 -37.5q0 -44 75 -78q69 38 69 75zM272 -4
q0 25 -20.5 45t-64.5 39q-75 -41 -75 -81q0 -61 80 -61q37 0 58.5 16t21.5 42z" />
    <glyph glyph-name="nine.inferior" unicode="&#x2089;" horiz-adv-x="397" 
d="M64 -104l6 54q34 -8 70 -8q109 0 131 117q2 6 4.5 17t4.5 17q-30 -45 -98 -45q-63 0 -100 33t-37 92q0 66 43 104.5t113 38.5q146 0 146 -182q0 -112 -53 -178.5t-159 -66.5q-38 0 -71 7zM277 177q0 40 -21.5 63.5t-60.5 23.5q-37 0 -59 -22t-22 -59q0 -39 20.5 -61.5
t59.5 -22.5q37 0 60 21t23 57z" />
    <glyph glyph-name="uni208A" unicode="&#x208a;" horiz-adv-x="400" 
d="M353 68h-123v-121h-60v121h-123v52h123v120h60v-120h123v-52z" />
    <glyph glyph-name="uni208B" unicode="&#x208b;" horiz-adv-x="400" 
d="M353 68h-306v52h306v-52z" />
    <glyph glyph-name="uni208C" unicode="&#x208c;" horiz-adv-x="400" 
d="M353 -9h-306v51h306v-51zM353 146h-306v51h306v-51z" />
    <glyph glyph-name="parenleft.inferior" unicode="&#x208d;" horiz-adv-x="303" 
d="M244 -234l-63 -16q-94 163 -94 340q0 181 94 345l62 -16q-86 -151 -86 -325q0 -172 87 -328z" />
    <glyph glyph-name="parenright.inferior" unicode="&#x208e;" horiz-adv-x="303" 
d="M121 -250l-62 16q86 152 86 325q0 175 -87 328l64 16q94 -165 94 -340q0 -182 -95 -345z" />
    <glyph glyph-name="colonmonetary" unicode="&#x20a1;" horiz-adv-x="607" 
d="M552 95l6 -67q-79 -31 -161 -34l-17 -145h-53l16 144q-36 0 -67 7l-17 -151h-53l18 166q-174 65 -174 310q0 135 61 228t186 119l13 120h54l-13 -112q41 2 68 0l12 112h54l-13 -117q26 -3 78 -15l-7 -70q-31 11 -77 20l-64 -551q83 3 150 36zM345 617l-62 -547
q34 -11 65 -12l65 558q-52 2 -68 1zM232 94l59 511q-82 -23 -121.5 -96t-39.5 -176q0 -177 102 -239z" />
    <glyph glyph-name="cruzeiro" unicode="&#x20a2;" horiz-adv-x="587" 
d="M388 -151h-52v149q-32 -7 -80 -7v-142h-52v143q-81 5 -136 19l5 75q54 -16 131 -25v269q-71 22 -110.5 61t-39.5 109q0 58 36.5 103t113.5 66v123h52v-113q38 5 80 5v108h52v-109q57 -3 110 -14l-5 -70q-42 13 -105 18v-255q151 -43 151 -168q0 -66 -39 -114t-112 -71
v-160zM204 414v190q-75 -28 -75 -95q0 -64 75 -95zM256 615v-215q45 -15 80 -25v245q-57 0 -80 -5zM256 318v-260q44 0 80 5v230q-9 3 -37 11.5t-43 13.5zM388 278v-202q73 22 73 104q0 62 -73 98z" />
    <glyph glyph-name="franc" unicode="&#x20a3;" 
d="M474 613h-261v-171h207v-58h-207v-87h207v-58h-207v-239h-77v239h-97v58h97v87h-97v58h97v233h338v-62z" />
    <glyph glyph-name="lira" unicode="&#x20a4;" 
d="M477 0h-402v52q51 45 74.5 80.5t23.5 74.5q0 5 -0.5 17t-0.5 18h-115v52h109l-10 79h-99v53h93q-5 40 -5 70q0 186 189 186q62 0 118 -17l-17 -64q-58 20 -108 20q-107 0 -107 -117q0 -34 6 -78h170v-53h-164q1 -5 5 -34.5t5 -44.5h154v-52h-149q0 -5 0.5 -15t0.5 -15
q0 -44 -19 -77.5t-62 -70.5q42 2 83 2h227v-66z" />
    <glyph glyph-name="peseta" unicode="&#x20a7;" horiz-adv-x="1272" 
d="M168 0h-77v675q87 3 162 3q108 0 169 -49t65 -132h106v165l75 21v-186h146v-59h-146v-277q0 -61 15.5 -82.5t59.5 -21.5q51 0 124 25q73 -29 143 -29q55 0 85 21.5t30 59.5q0 33 -25 52.5t-61 30.5t-72 24.5t-61 44.5t-25 80q0 61 50 100.5t140 39.5q49 0 99 -10l-7 -64
q-50 15 -100 15q-51 0 -78 -20t-27 -55q0 -32 25 -52t61 -31t72 -24.5t61 -44.5t25 -80q0 -64 -53 -106.5t-147 -42.5q-79 0 -145 21q-70 -20 -133 -20q-73 0 -102 34t-29 114v298h-111q-14 -81 -79.5 -128.5t-166.5 -47.5l-68 4v-266zM168 613v-281q34 -6 76 -6
q80 0 122 39.5t42 108.5q0 141 -167 141z" />
    <glyph glyph-name="dong" unicode="&#x20ab;" horiz-adv-x="600" 
d="M468 125h-73q0 58 9 100h-2q-22 -49 -63 -78.5t-94 -29.5q-80 0 -122.5 52.5t-42.5 145.5q0 111 62 172t169 61q43 0 84 -4v82h-121v53h121v81h73v-81h75v-53h-75v-501zM395 367v115q-43 10 -87 10q-71 0 -111.5 -42t-40.5 -129q0 -145 107 -145q63 0 97.5 56.5
t34.5 134.5zM535 0h-485v53h485v-53z" />
    <glyph glyph-name="Euro" unicode="&#x20ac;" horiz-adv-x="592" 
d="M540 103l24 -57q-91 -55 -197 -55q-112 0 -179 62t-82 181h-93v52h89v36q0 22 2 60h-91v52h96q20 127 94.5 188.5t184.5 61.5q96 0 167 -41l-25 -59q-65 39 -151 39q-72 0 -123.5 -47t-65.5 -142h234v-52h-239q-2 -30 -2 -48q0 -33 1 -48h240v-52h-235
q11 -87 60.5 -133.5t133.5 -46.5q82 0 157 49z" />
    <glyph glyph-name="uni20B4" unicode="&#x20b4;" 
d="M437 79l13 -57q-73 -31 -159 -31q-84 0 -135 38t-51 107q0 54 40 111h-86v53h125q15 17 46.5 47.5t44.5 44.5h-216v52h259q37 49 37 90q0 42 -26.5 65t-78.5 23q-59 0 -122 -24l-14 58q77 28 149 28q78 0 124.5 -37.5t46.5 -100.5q0 -48 -34 -102h91v-52h-129
q-14 -16 -90 -92h219v-53h-264q-43 -51 -43 -99q0 -45 30 -70t89 -25q67 0 134 26z" />
    <glyph glyph-name="uni2103" unicode="&#x2103;" horiz-adv-x="899" 
d="M311 614q0 -55 -39.5 -89t-91.5 -34q-56 0 -89 32.5t-33 88.5q0 55 38.5 89.5t89.5 34.5q61 0 93 -35t32 -87zM250 613q0 29 -15.5 50.5t-50.5 21.5q-28 0 -46.5 -20t-18.5 -52q0 -33 17.5 -52t46.5 -19t48 20t19 51zM838 95l15 -65q-87 -37 -190 -37q-151 0 -228 88.5
t-77 240.5q0 162 81.5 261t246.5 99q80 0 158 -22l-13 -71q-82 28 -156 28q-118 0 -176.5 -79t-58.5 -203q0 -133 60 -204t179 -71q84 0 159 35z" />
    <glyph glyph-name="uni2105" unicode="&#x2105;" horiz-adv-x="736" 
d="M704 164q0 -78 -42 -124.5t-113 -46.5q-148 0 -148 166q0 78 42 124t113 46q148 0 148 -165zM614 660l-478 -681l-49 36l477 681zM273 414l9 -52q-44 -18 -96 -18q-142 0 -142 157q0 81 41.5 129.5t120.5 48.5q39 0 75 -11l-11 -55q-31 13 -65 13q-46 0 -70 -31t-24 -86
q0 -110 90 -110q39 0 72 15zM638 158q0 119 -86 119q-39 0 -61.5 -29t-22.5 -84q0 -119 85 -119q39 0 62 29.5t23 83.5z" />
    <glyph glyph-name="uni2109" unicode="&#x2109;" horiz-adv-x="769" 
d="M311 614q0 -55 -39.5 -89t-91.5 -34q-56 0 -89 32.5t-33 88.5q0 55 38.5 89.5t89.5 34.5q61 0 93 -35t32 -87zM250 613q0 29 -15.5 50.5t-50.5 21.5q-28 0 -46.5 -20t-18.5 -52q0 -33 17.5 -52t46.5 -19t48 20t19 51zM732 612h-266v-237h248v-61h-248v-314h-77v675h343
v-63z" />
    <glyph glyph-name="uni2113" unicode="&#x2113;" horiz-adv-x="492" 
d="M385 184l66 -13q-17 -93 -59.5 -137t-113.5 -44q-147 0 -147 165v85l-83 -91l-32 53l115 125v226q0 87 42 134.5t113 47.5q61 0 93.5 -32t32.5 -90q0 -61 -45.5 -125t-160.5 -182v-133q0 -66 20 -92.5t60 -26.5q38 0 61.5 30t37.5 100zM206 558v-165q68 75 98.5 120.5
t30.5 83.5q0 78 -57 78q-72 0 -72 -117z" />
    <glyph glyph-name="uni2116" unicode="&#x2116;" horiz-adv-x="987" 
d="M928 520q0 -77 -45 -124.5t-117 -47.5q-147 0 -147 169q0 72 44.5 119t114.5 47q29 0 53 -7.5t47 -24.5t36.5 -50.5t13.5 -80.5zM914 231h-280v58h280v-58zM535 0h-86l-194 386q-63 123 -96 205q6 -152 6 -382v-209h-74v675h104l186 -370q67 -132 85 -174q-6 196 -6 367
v177h75v-675zM858 521q0 45 -19.5 75.5t-63.5 30.5q-36 0 -61 -27.5t-25 -82.5q0 -112 82 -112q40 0 63.5 29t23.5 87z" />
    <glyph glyph-name="uni2117" unicode="&#x2117;" horiz-adv-x="753" 
d="M375 667q139 0 236 -96t97 -235q0 -138 -97.5 -235.5t-235.5 -97.5q-142 0 -238 96t-96 235t97.5 236t236.5 97zM375 612q-113 0 -193 -80.5t-80 -195.5q0 -114 80 -195.5t193 -81.5t192.5 80.5t79.5 194.5t-79.5 196t-192.5 82zM325 156h-61v351q86 2 114 2
q70 0 109.5 -30t39.5 -82q0 -57 -45.5 -93t-113.5 -36q-31 0 -43 2v-114zM325 458v-137q22 -2 45 -2q42 0 67.5 19.5t25.5 52.5q0 68 -96 68q-29 0 -42 -1z" />
    <glyph glyph-name="servicemark" unicode="&#x2120;" horiz-adv-x="702" 
d="M645 394h-60l-23 158l-8 56l-12 -48l-51 -166h-62l-49 168l-12 46l-3 -37l-26 -177h-55l43 281h77l49 -166l11 -48l9 43l53 171h76zM61 397l5 48q31 -12 61 -12q51 0 51 41q0 18 -19 29.5t-41 17.5t-41 24.5t-19 49.5q0 38 28.5 61.5t79.5 23.5q24 0 52 -5l-4 -45
q-22 7 -50 7q-49 0 -49 -36q0 -17 19 -28.5t42.5 -18.5t42.5 -25.5t19 -48.5q0 -40 -30.5 -65t-83.5 -25q-30 0 -63 7z" />
    <glyph glyph-name="trademark" unicode="&#x2122;" horiz-adv-x="702" 
d="M645 394h-60l-23 158l-8 56l-12 -48l-51 -166h-62l-49 168l-12 46l-3 -37l-26 -177h-55l43 281h77l49 -166l11 -48l9 43l53 171h76zM262 628h-75v-234h-60v234h-77v47h212v-47z" />
    <glyph glyph-name="ohm" unicode="&#x2126;" horiz-adv-x="722" 
d="M677 0h-236v64q72 58 108 121.5t36 157.5q0 123 -58 199t-166 76q-96 0 -160 -73.5t-64 -196.5q0 -95 32.5 -159t111.5 -125v-64h-235v65h149q-140 100 -140 278q0 157 89.5 249t225.5 92q132 0 214.5 -85.5t82.5 -245.5q0 -177 -145 -288h155v-65z" />
    <glyph glyph-name="estimated" unicode="&#x212e;" horiz-adv-x="807" 
d="M656 187l43 -26q-50 -83 -130 -126.5t-173 -43.5q-145 0 -243.5 99t-98.5 245q0 145 100 244.5t246 99.5q145 0 243.5 -99t98.5 -245h-538v-177q0 -26 7.5 -41.5t26.5 -29.5q66 -50 160 -50q79 0 146 38.5t112 111.5zM204 380h388v132q0 26 -7.5 41.5t-26.5 29.5
q-66 50 -160 50t-160 -50q-19 -14 -26.5 -29.5t-7.5 -41.5v-132z" />
    <glyph glyph-name="onethird" unicode="&#x2153;" horiz-adv-x="836" 
d="M192 367h-71v346l-92 -35l-12 59l117 42h58v-412zM523 -102l8 57q36 -12 79 -12q44 0 68.5 19.5t24.5 52.5q0 38 -38.5 56.5t-113.5 9.5v52q69 0 103.5 17t34.5 57q0 27 -18.5 41.5t-51.5 14.5q-44 0 -81 -17l-9 52q51 18 104 18q59 0 93 -26t34 -75q0 -73 -70 -97
q40 -7 63 -34.5t23 -62.5q0 -59 -48 -95.5t-123 -36.5q-37 0 -82 9zM726 767l-634 -904l-51 35l635 904z" />
    <glyph glyph-name="twothirds" unicode="&#x2154;" horiz-adv-x="917" 
d="M312 367h-271v52l101 101q78 78 78 134q0 35 -19 55.5t-57 20.5q-45 0 -87 -24l-12 53q54 27 115 27q63 0 98.5 -32.5t35.5 -87.5q0 -80 -85 -165l-77 -76q47 2 180 2v-60zM808 767l-634 -904l-51 35l635 904zM603 -102l8 57q36 -12 79 -12q44 0 68.5 19.5t24.5 52.5
q0 38 -38.5 56.5t-113.5 9.5v52q69 0 103.5 17t34.5 57q0 27 -18.5 41.5t-51.5 14.5q-44 0 -81 -17l-9 52q51 18 104 18q59 0 93 -26t34 -75q0 -73 -70 -97q40 -7 63 -34.5t23 -62.5q0 -59 -48 -95.5t-123 -36.5q-37 0 -82 9z" />
    <glyph glyph-name="onefifth" unicode="&#x2155;" horiz-adv-x="823" 
d="M192 367h-71v346l-92 -35l-12 59l117 42h58v-412zM726 767l-634 -904l-51 35l635 904zM525 -101l6 55q33 -12 74 -12t66.5 23t25.5 56q0 76 -106 76q-19 0 -51 -4v216h208v-58h-144v-103q7 1 17 1q69 0 109 -31.5t40 -85.5q0 -66 -46.5 -104.5t-121.5 -38.5q-42 0 -77 10
z" />
    <glyph glyph-name="twofifths" unicode="&#x2156;" horiz-adv-x="905" 
d="M312 367h-271v52l101 101q78 78 78 134q0 35 -19 55.5t-57 20.5q-45 0 -87 -24l-12 53q54 27 115 27q63 0 98.5 -32.5t35.5 -87.5q0 -80 -85 -165l-77 -76q47 2 180 2v-60zM808 767l-634 -904l-51 35l635 904zM607 -101l6 55q33 -12 74 -12t66.5 23t25.5 56q0 76 -106 76
q-19 0 -51 -4v216h208v-58h-144v-103q7 1 17 1q69 0 109 -31.5t40 -85.5q0 -66 -46.5 -104.5t-121.5 -38.5q-42 0 -77 10z" />
    <glyph glyph-name="threefifths" unicode="&#x2157;" horiz-adv-x="845" 
d="M547 -101l6 55q33 -12 74 -12t66.5 23t25.5 56q0 76 -106 76q-19 0 -51 -4v216h208v-58h-144v-103q7 1 17 1q69 0 109 -31.5t40 -85.5q0 -66 -46.5 -104.5t-121.5 -38.5q-42 0 -77 10zM39 368l8 57q36 -12 79 -12q44 0 68.5 19.5t24.5 52.5q0 38 -38.5 56.5t-113.5 9.5
v52q69 0 103.5 17t34.5 57q0 27 -18.5 41.5t-51.5 14.5q-44 0 -81 -17l-9 52q51 18 104 18q59 0 93 -26t34 -75q0 -73 -70 -97q40 -7 63 -34.5t23 -62.5q0 -59 -48 -95.5t-123 -36.5q-37 0 -82 9zM747 767l-634 -904l-51 35l635 904z" />
    <glyph glyph-name="fourfifths" unicode="&#x2158;" horiz-adv-x="920" 
d="M355 461h-68v-94h-67v94h-194l-5 47l168 271h98v-261h68v-57zM220 518v210l-131 -212q35 2 131 2zM823 767l-634 -904l-51 35l635 904zM622 -101l6 55q33 -12 74 -12t66.5 23t25.5 56q0 76 -106 76q-19 0 -51 -4v216h208v-58h-144v-103q7 1 17 1q69 0 109 -31.5t40 -85.5
q0 -66 -46.5 -104.5t-121.5 -38.5q-42 0 -77 10z" />
    <glyph glyph-name="onesixth" unicode="&#x2159;" horiz-adv-x="860" 
d="M768 312l-6 -53q-33 5 -56 5q-60 0 -93 -33q-17 -17 -26.5 -40t-14.5 -48.5t-6 -28.5q13 20 40.5 32t58.5 12q62 0 100 -33.5t38 -91.5q0 -66 -44.5 -105t-112.5 -39q-147 0 -147 178q0 113 53 181t159 68q36 0 57 -4zM734 25q0 41 -22.5 61.5t-57.5 20.5
q-37 0 -61 -20.5t-24 -55.5q0 -40 22.5 -65t60.5 -25q37 0 59.5 23t22.5 61zM192 367h-71v346l-92 -35l-12 59l117 42h58v-412zM726 767l-634 -904l-51 35l635 904z" />
    <glyph glyph-name="fivesixths" unicode="&#x215a;" horiz-adv-x="911" 
d="M51 369l6 55q33 -12 74 -12t66.5 23t25.5 56q0 76 -106 76q-19 0 -51 -4v216h208v-58h-144v-103q7 1 17 1q69 0 109 -31.5t40 -85.5q0 -66 -46.5 -104.5t-121.5 -38.5q-42 0 -77 10zM819 312l-6 -53q-32 5 -56 5q-60 0 -93 -33q-17 -17 -26.5 -40t-14.5 -48.5t-6 -28.5
q13 20 40.5 32t58.5 12q62 0 100 -33.5t38 -91.5q0 -66 -44.5 -105t-112.5 -39q-147 0 -147 178q0 113 53 181t159 68q36 0 57 -4zM785 25q0 41 -22.5 61.5t-57.5 20.5q-37 0 -61 -20.5t-24 -55.5q0 -40 22.5 -65t60.5 -25q37 0 59.5 23t22.5 61zM777 767l-634 -904l-51 35
l635 904z" />
    <glyph glyph-name="oneeighth" unicode="&#x215b;" horiz-adv-x="857" 
d="M192 367h-71v346l-92 -35l-12 59l117 42h58v-412zM726 767l-634 -904l-51 35l635 904zM796 5q0 -53 -40.5 -85t-112.5 -32q-68 0 -105 28t-37 78q0 59 87 110q-79 41 -79 102q0 50 39 80.5t106 30.5q64 0 99 -27t35 -73q0 -55 -79 -103q45 -24 66 -49t21 -60zM721 212
q0 55 -72 55q-34 0 -53 -14.5t-19 -37.5q0 -44 75 -78q69 38 69 75zM729 -4q0 25 -20.5 45t-64.5 39q-75 -41 -75 -81q0 -61 80 -61q37 0 58.5 16t21.5 42z" />
    <glyph glyph-name="threeeighths" unicode="&#x215c;" horiz-adv-x="878" 
d="M39 368l8 57q36 -12 79 -12q44 0 68.5 19.5t24.5 52.5q0 38 -38.5 56.5t-113.5 9.5v52q69 0 103.5 17t34.5 57q0 27 -18.5 41.5t-51.5 14.5q-44 0 -81 -17l-9 52q51 18 104 18q59 0 93 -26t34 -75q0 -73 -70 -97q40 -7 63 -34.5t23 -62.5q0 -59 -48 -95.5t-123 -36.5
q-37 0 -82 9zM747 767l-634 -904l-51 35l635 904zM818 5q0 -53 -40.5 -85t-112.5 -32q-68 0 -105 28t-37 78q0 59 87 110q-79 41 -79 102q0 50 39 80.5t106 30.5q64 0 99 -27t35 -73q0 -55 -79 -103q45 -24 66 -49t21 -60zM743 212q0 55 -72 55q-34 0 -53 -14.5t-19 -37.5
q0 -44 75 -78q69 38 69 75zM751 -4q0 25 -20.5 45t-64.5 39q-75 -41 -75 -81q0 -61 80 -61q37 0 58.5 16t21.5 42z" />
    <glyph glyph-name="fiveeighths" unicode="&#x215d;" horiz-adv-x="908" 
d="M51 369l6 55q33 -12 74 -12t66.5 23t25.5 56q0 76 -106 76q-19 0 -51 -4v216h208v-58h-144v-103q7 1 17 1q69 0 109 -31.5t40 -85.5q0 -66 -46.5 -104.5t-121.5 -38.5q-42 0 -77 10zM777 767l-634 -904l-51 35l635 904zM848 5q0 -53 -40.5 -85t-112.5 -32q-68 0 -105 28
t-37 78q0 59 87 110q-79 41 -79 102q0 50 39 80.5t106 30.5q64 0 99 -27t35 -73q0 -55 -79 -103q45 -24 66 -49t21 -60zM773 212q0 55 -72 55q-34 0 -53 -14.5t-19 -37.5q0 -44 75 -78q69 38 69 75zM781 -4q0 25 -20.5 45t-64.5 39q-75 -41 -75 -81q0 -61 80 -61
q37 0 58.5 16t21.5 42z" />
    <glyph glyph-name="seveneighths" unicode="&#x215e;" horiz-adv-x="846" 
d="M785 5q0 -53 -40.5 -85t-112.5 -32q-68 0 -105 28t-37 78q0 59 87 110q-79 41 -79 102q0 50 39 80.5t106 30.5q64 0 99 -27t35 -73q0 -55 -79 -103q45 -24 66 -49t21 -60zM710 212q0 55 -72 55q-34 0 -53 -14.5t-19 -37.5q0 -44 75 -78q69 38 69 75zM718 -4
q0 25 -20.5 45t-64.5 39q-75 -41 -75 -81q0 -61 80 -61q37 0 58.5 16t21.5 42zM290 779v-55q-89 -186 -125 -357h-77q25 97 63 198t68 155q-15 -1 -191 -1v60h262zM715 767l-634 -904l-51 35l635 904z" />
    <glyph glyph-name="onefraction" unicode="&#x215f;" horiz-adv-x="468" 
d="M192 367h-71v346l-92 -35l-12 59l117 42h58v-412zM726 767l-634 -904l-51 35l635 904z" />
    <glyph glyph-name="arrowleft" unicode="&#x2190;" horiz-adv-x="1000" 
d="M1000 265h-834l324 -315l-49 -48l-396 396l396 396l49 -48l-324 -315h834v-66z" />
    <glyph glyph-name="arrowup" unicode="&#x2191;" horiz-adv-x="1000" 
d="M896 389l-48 -49l-315 324v-834h-66v834l-315 -324l-48 49l396 396z" />
    <glyph glyph-name="arrowright" unicode="&#x2192;" horiz-adv-x="1000" 
d="M955 298l-396 -396l-49 48l324 315h-834v66h834l-324 315l49 48z" />
    <glyph glyph-name="arrowdown" unicode="&#x2193;" horiz-adv-x="1000" 
d="M896 207l-396 -396l-396 396l48 49l315 -324v834h66v-834l315 324z" />
    <glyph glyph-name="arrowboth" unicode="&#x2194;" horiz-adv-x="1350" 
d="M1305 311l-296 -296l-49 49l224 215h-1018l224 -215l-49 -49l-296 296l296 296l49 -48l-224 -215h1018l-224 215l49 48z" />
    <glyph glyph-name="arrowupdn" unicode="&#x2195;" horiz-adv-x="762" 
d="M677 38l-296 -296l-296 296l48 49l215 -224v870l-215 -224l-48 49l296 296l296 -296l-48 -49l-215 224v-870l215 224z" />
    <glyph glyph-name="arrownorthwest" unicode="&#x2196;" horiz-adv-x="807" 
d="M780 23l-46 -47l-590 591l6 -452h-69v560h561v-69l-452 6z" />
    <glyph glyph-name="arrownortheast" unicode="&#x2197;" horiz-adv-x="807" 
d="M725 115h-69l7 452l-590 -591l-46 47l590 589l-452 -6v69h560v-560z" />
    <glyph glyph-name="arrowsoutheast" unicode="&#x2198;" horiz-adv-x="807" 
d="M725 -78h-560v69l452 -6l-590 589l46 47l590 -591l-7 452h69v-560z" />
    <glyph glyph-name="arrowsouthwest" unicode="&#x2199;" horiz-adv-x="807" 
d="M780 574l-590 -589l452 6v-69h-561v560h69l-6 -452l590 591z" />
    <glyph glyph-name="uni219E" unicode="&#x219e;" horiz-adv-x="1000" 
d="M930 266h-562l140 -132l-48 -49l-181 181h-119l140 -132l-49 -49l-213 213l213 213l49 -49l-140 -132h119l181 181l48 -49l-140 -132h562v-64z" />
    <glyph glyph-name="uni219F" unicode="&#x219f;" horiz-adv-x="595" 
d="M265 -113v562l-132 -140l-48 48l180 181v119l-132 -140l-48 49l213 213l212 -213l-48 -49l-132 140v-119l180 -181l-48 -48l-132 140v-562h-65z" />
    <glyph glyph-name="uni21A0" unicode="&#x21a0;" horiz-adv-x="1000" 
d="M749 85l-49 49l140 132h-119l-181 -181l-48 49l140 132h-562v64h562l-140 132l48 49l181 -181h119l-140 132l49 49l213 -213z" />
    <glyph glyph-name="uni21A1" unicode="&#x21a1;" horiz-adv-x="595" 
d="M330 749v-562l132 140l48 -48l-180 -181v-119l132 140l48 -49l-212 -213l-213 213l48 49l132 -140v119l-180 181l48 48l132 -140v562h65z" />
    <glyph glyph-name="uni21A2" unicode="&#x21a2;" horiz-adv-x="1000" 
d="M767 298l169 -164l-48 -49l-181 181h-547l140 -132l-49 -49l-213 213l213 213l49 -49l-140 -132h547l181 181l48 -49z" />
    <glyph glyph-name="uni21A3" unicode="&#x21a3;" horiz-adv-x="1000" 
d="M233 298l-169 164l48 49l181 -181h547l-140 132l49 49l213 -213l-213 -213l-49 49l140 132h-547l-181 -181l-48 49z" />
    <glyph glyph-name="uni21A4" unicode="&#x21a4;" horiz-adv-x="1000" 
d="M930 506v-416h-69v176h-701l140 -132l-49 -49l-213 213l213 213l49 -49l-140 -132h701v176h69z" />
    <glyph glyph-name="uni21A5" unicode="&#x21a5;" horiz-adv-x="580" 
d="M498 -113h-416v69h176v701l-132 -140l-49 49l213 213l213 -213l-49 -49l-132 140v-701h176v-69z" />
    <glyph glyph-name="uni21A6" unicode="&#x21a6;" horiz-adv-x="1000" 
d="M70 90v416h69v-176h701l-140 132l49 49l213 -213l-213 -213l-49 49l140 132h-701v-176h-69z" />
    <glyph glyph-name="uni21A7" unicode="&#x21a7;" horiz-adv-x="580" 
d="M82 749h416v-69h-176v-701l132 140l49 -49l-213 -213l-213 213l49 49l132 -140v701h-176v69z" />
    <glyph glyph-name="arrowupdnbse" unicode="&#x21a8;" horiz-adv-x="762" 
d="M657 129l-276 -276l-276 276l48 49l195 -204v768l-195 -203l-48 48l276 276l276 -276l-48 -48l-195 204v-769l195 204zM656 -241h-550v59h550v-59z" />
    <glyph glyph-name="uni21A9" unicode="&#x21a9;" horiz-adv-x="1166" 
d="M309 -84l-271 271l271 272l49 -49l-198 -190q191 -7 410 -7q160 0 259 29t137 75.5t38 113.5q0 87 -70.5 129t-220.5 42l-153 -7v64q86 8 164 8q181 0 270.5 -61t89.5 -171q0 -287 -523 -287q-92 0 -192 2t-155 4l-54 1l198 -190z" />
    <glyph glyph-name="uni21AA" unicode="&#x21aa;" horiz-adv-x="1166" 
d="M1109 187l-271 -271l-49 49l198 190q-174 -7 -403 -7q-521 0 -521 273q0 116 93 181t282 65l149 -7v-66q-83 8 -165 8q-278 0 -278 -173q0 -49 22 -86t72.5 -67.5t141.5 -46.5t219 -16q92 0 189 1.5t148 3.5l51 2l-198 190l49 49z" />
    <glyph glyph-name="arrowdblleft" unicode="&#x21d0;" horiz-adv-x="1000" 
d="M930 162h-662l137 -133l-49 -49l-318 318l318 318l49 -49l-137 -133h662v-66h-727l-71 -70l71 -70h727v-66z" />
    <glyph glyph-name="arrowdblup" unicode="&#x21d1;" horiz-adv-x="806" 
d="M267 -147v662l-134 -137l-48 49l318 318l318 -318l-49 -49l-133 137v-662h-66v727l-70 71l-71 -71v-727h-65z" />
    <glyph glyph-name="arrowdblright" unicode="&#x21d2;" horiz-adv-x="1000" 
d="M962 298l-318 -318l-49 49l137 133h-662v66h727l71 70l-71 70h-727v66h662l-137 133l49 49z" />
    <glyph glyph-name="arrowdbldown" unicode="&#x21d3;" horiz-adv-x="806" 
d="M539 743v-662l133 137l49 -49l-318 -318l-318 318l48 49l134 -137v662h65v-727l71 -71l70 71v727h66z" />
    <glyph glyph-name="arrowdblboth" unicode="&#x21d4;" horiz-adv-x="1400" 
d="M1268 298l-71 70h-994l-71 -70l71 -70h994zM1362 298l-318 -318l-49 49l137 133h-864l137 -133l-49 -49l-318 318l318 318l49 -49l-137 -133h864l-137 133l49 49z" />
    <glyph glyph-name="uni21D5" unicode="&#x21d5;" horiz-adv-x="806" 
d="M403 -226l70 71v970l-70 71l-71 -71v-970zM403 -320l-318 318l48 48l134 -137v842l-134 -137l-48 48l318 318l318 -318l-49 -48l-133 137v-842l133 137l49 -48z" />
    <glyph glyph-name="uni21D6" unicode="&#x21d6;" horiz-adv-x="876" 
d="M623 -79l-469 469l3 -191h-69v449h449v-69l-191 3l469 -469l-47 -45l-514 513l-100 1l1 -100l513 -514z" />
    <glyph glyph-name="uni21D7" unicode="&#x21d7;" horiz-adv-x="876" 
d="M61 113l469 469l-191 -3v69h449v-449h-69l3 191l-469 -469l-45 47l513 514l1 100l-100 -1l-514 -513z" />
    <glyph glyph-name="uni21D8" unicode="&#x21d8;" horiz-adv-x="876" 
d="M253 676l469 -469l-3 191h69v-449h-449v69l191 -3l-469 469l47 45l514 -513l100 -1l-1 100l-513 514z" />
    <glyph glyph-name="uni21D9" unicode="&#x21d9;" horiz-adv-x="876" 
d="M815 484l-469 -469l191 3v-69h-449v449h69l-3 -191l469 469l45 -47l-513 -514l-1 -100l100 1l514 513z" />
    <glyph glyph-name="uni21DD" unicode="&#x21dd;" horiz-adv-x="1000" 
d="M70 265v66h54l62 69l98 -111l98 111l98 -111l98 111l98 -111l36 42h128l-139 132l48 48l213 -213l-213 -213l-48 48l139 132h-101l-63 -69l-98 111l-98 -111l-98 111l-98 -111l-98 111l-35 -42h-81z" />
    <glyph glyph-name="uni21E6" unicode="&#x21e6;" horiz-adv-x="1000" 
d="M930 126h-507v-147h-65l-320 319l320 319h65v-147h507v-344zM865 405h-507v120l-227 -227l227 -227v120h507v214z" />
    <glyph glyph-name="uni21E7" unicode="&#x21e7;" horiz-adv-x="819" 
d="M237 -147v507h-147v65l319 320l320 -320v-65h-147v-507h-345zM516 -82v507h121l-228 228l-227 -228h120v-507h214z" />
    <glyph glyph-name="uni21E8" unicode="&#x21e8;" horiz-adv-x="1000" 
d="M70 470h507v147h65l320 -319l-320 -319h-65v147h-507v344zM135 191h507v-120l227 227l-227 227v-120h-507v-214z" />
    <glyph glyph-name="uni21E9" unicode="&#x21e9;" horiz-adv-x="819" 
d="M582 743v-507h147v-65l-320 -320l-319 320v65h147v507h345zM302 678v-507h-120l227 -228l228 228h-121v507h-214z" />
    <glyph glyph-name="uni21F3" unicode="&#x21f3;" horiz-adv-x="819" 
d="M582 416v-236h147v-65l-320 -319l-319 319v65h147v236h-147v65l319 319l320 -319v-65h-147zM516 115v366h121l-228 227l-227 -227h120v-366h-120l227 -227l228 227h-121z" />
    <glyph glyph-name="partialdiff" unicode="&#x2202;" horiz-adv-x="638" 
d="M255 673l7 62q138 -2 218.5 -87.5t80.5 -235.5q0 -206 -88 -323q-33 -44 -83.5 -70.5t-109.5 -26.5q-97 0 -148.5 55t-51.5 151q0 102 66 169.5t170 67.5q61 0 104 -28.5t62 -77.5q1 35 1 91q-4 125 -66.5 190t-161.5 63zM451 238q0 59 -37 96.5t-104 37.5
q-68 0 -111.5 -48t-43.5 -119q0 -73 37 -111t98 -38q69 0 115 52.5t46 129.5z" />
    <glyph glyph-name="emptyset" unicode="&#x2205;" horiz-adv-x="925" 
d="M831 655l-87 -87l6 -6q78 -99 78 -224q0 -151 -106 -256.5t-256 -105.5q-125 0 -225 79l-5 5l-87 -87l-48 48l87 87l-6 6q-78 99 -78 224q0 151 105.5 256.5t256.5 105.5q127 0 225 -79l5 -5l87 87zM241 161l402 402l-1 2q-78 62 -176 62q-121 0 -205 -84t-84 -205
q0 -99 62 -175zM691 515l-402 -402l2 -2q76 -62 175 -62q121 0 205 84t84 205q0 99 -62 175z" />
    <glyph glyph-name="increment" unicode="&#x2206;" horiz-adv-x="612" 
d="M598 0h-585l248 675h89zM488 67l-168 473q-13 36 -17 61h-2q-6 -26 -19 -64l-167 -470h373z" />
    <glyph glyph-name="product" unicode="&#x220f;" horiz-adv-x="784" 
d="M737 665h-109v-914h-73v914h-326v-914h-73v914h-109v65h690v-65z" />
    <glyph glyph-name="summation" unicode="&#x2211;" horiz-adv-x="610" 
d="M551 -249h-515v58l316 440l-297 423v58h482v-65h-387l291 -413l-314 -433h424v-68z" />
    <glyph glyph-name="minus" unicode="&#x2212;" 
d="M507 265h-464v65h464v-65z" />
    <glyph glyph-name="uni2219" unicode="&#x2219;" horiz-adv-x="220" 
d="M167 297q0 -24 -16.5 -40.5t-40.5 -16.5t-40.5 16.5t-16.5 40.5t16.5 40.5t40.5 16.5t40.5 -16.5t16.5 -40.5z" />
    <glyph glyph-name="radical" unicode="&#x221a;" horiz-adv-x="605" 
d="M569 758l-235 -758h-86l-154 439h-93v58h153l101 -301q26 -80 37 -120h2q2 9 12.5 49.5t16.5 61.5l165 571h81z" />
    <glyph glyph-name="uni221B" unicode="&#x221b;" horiz-adv-x="605" 
d="M569 758l-235 -758h-86l-154 439h-93v58h153l101 -301q26 -80 37 -120h2q2 9 12.5 49.5t16.5 61.5l165 571h81zM158 552l8 50q30 -10 68 -10q37 0 54.5 15t17.5 38q0 28 -32 42.5t-97 6.5v44q124 0 124 56q0 40 -59 40q-38 0 -71 -14l-8 46q42 15 94 15t80.5 -21
t28.5 -59q0 -58 -66 -77q35 -6 54.5 -27t19.5 -50q0 -45 -38 -73.5t-101 -28.5q-39 0 -77 7z" />
    <glyph glyph-name="uni221C" unicode="&#x221c;" horiz-adv-x="605" 
d="M569 758l-235 -758h-86l-154 439h-93v58h153l101 -301q26 -80 37 -120h2q2 9 12.5 49.5t16.5 61.5l165 571h81zM353 619h-53v-68h-63v68h-158l-3 42l131 214h93v-205h53v-51zM237 670v157h-1l-97 -158q27 1 98 1z" />
    <glyph glyph-name="infinity" unicode="&#x221e;" horiz-adv-x="971" 
d="M909 303q0 -70 -48 -117.5t-129 -47.5q-57 0 -116.5 30t-132.5 86q-74 -55 -132.5 -85.5t-116.5 -30.5q-83 0 -127.5 44.5t-44.5 112.5q0 70 48.5 117.5t127.5 47.5q58 0 117.5 -30.5t133.5 -86.5q73 55 132 86t116 31q82 0 127 -45t45 -112zM833 298q0 43 -27 69.5
t-75 26.5q-61 0 -186 -94q44 -33 69.5 -50t59.5 -32t62 -15q45 0 71 27.5t26 67.5zM427 297q-44 32 -69.5 49.5t-60 32.5t-61.5 15q-45 0 -71 -27t-26 -67q0 -43 26.5 -70t74.5 -27q37 0 80.5 24t106.5 70z" />
    <glyph glyph-name="orthogonal" unicode="&#x221f;" horiz-adv-x="730" 
d="M696 0h-584v675h65v-611h519v-64z" />
    </font>
</defs>
</svg>
