<?xml version="1.0" standalone="no"?>
<!DOCTYPE svg PUBLIC "-//W3C//DTD SVG 1.1//EN" "http://www.w3.org/Graphics/SVG/1.1/DTD/svg11.dtd" >
<svg xmlns="http://www.w3.org/2000/svg" xmlns:xlink="http://www.w3.org/1999/xlink" version="1.1">
<metadata>
Created by FontForge 20170731 at Tue Nov 22 05:06:16 2011
 By Aleksey,,,
Copyright 1994-2011 Luc(as) de Groot, published by LucasFonts, www.lucasfonts.com  All rights reserved.
</metadata>
<defs>
<font id="TheSansC4s-Black" horiz-adv-x="550" >
  <font-face 
    font-family="TheSans C4s Black"
    font-weight="550"
    font-stretch="normal"
    units-per-em="1000"
    panose-1="2 11 9 2 5 3 2 2 2 3"
    ascent="740"
    descent="-260"
    x-height="497"
    cap-height="675"
    bbox="-477 -320 2970 980"
    underline-thickness="148"
    underline-position="-464"
    unicode-range="U+000D-FB05"
  />
<missing-glyph 
d="M300 150h-150v250h50v-200h100v-50zM500 50h-450v450h450v-450zM350 350h-100v50h150v-250h-50v100h-100v50h100v50zM100 100h350v350h-350v-350z" />
    <glyph glyph-name="f_b" unicode="fb" horiz-adv-x="886" 
d="M328 357h-73v-357h-182v357h-63v140h63v28q0 216 266 216q45 0 99 -4.5t86 -8.5l32 -4v-168q0 -56 -7 -103h1q37 56 129 56q89 0 135.5 -62t46.5 -170q0 -125 -73.5 -207.5t-208.5 -82.5q-50 0 -101 7t-78 14l-26 7v574q-24 4 -51 4q-68 0 -68 -64v-32h73v-140zM556 242
v-103q15 -6 35 -6q78 0 78 125q0 53 -12 76t-37 23q-27 0 -45.5 -30t-18.5 -85z" />
    <glyph glyph-name="f_f" unicode="ff" horiz-adv-x="662" 
d="M556 0h-182v357h-119v-357h-182v357h-63v140h63v22q0 213 257 213q67 0 137 -16q49 25 125 25l72 -6l-11 -150q-25 8 -50 8q-24 0 -35.5 -12.5t-11.5 -42.5v-41h85v-140h-85v-357zM374 497v26q0 29 3 53q-26 7 -55 7q-67 0 -67 -60v-26h119z" />
    <glyph glyph-name="f_f_b" unicode="ffb" horiz-adv-x="1187" 
d="M629 357h-73v-357h-182v357h-119v-357h-182v357h-63v140h63v22q0 212 257 212q75 0 151 -18q64 28 159 28q45 0 99 -4.5t86 -8.5l32 -4v-168q0 -56 -7 -103h1q37 56 129 56q89 0 135.5 -62t46.5 -170q0 -125 -73.5 -207.5t-208.5 -82.5q-50 0 -101 7t-77 14l-27 7v574
q-24 4 -51 4q-68 0 -68 -64v-32h73v-140zM374 497v28q0 21 4 51q-28 7 -56 7q-67 0 -67 -60v-26h119zM857 242v-103q15 -6 35 -6q78 0 78 125q0 53 -12 76t-37 23q-27 0 -45.5 -30t-18.5 -85z" />
    <glyph glyph-name="f_f_f" unicode="fff" horiz-adv-x="963" 
d="M857 0h-182v357h-119v-357h-182v357h-119v-357h-182v357h-63v140h63v19q0 213 257 213q67 0 137 -16q49 25 125 25l72 -6l-11 -150q-25 8 -50 8q-24 0 -35.5 -12.5t-11.5 -42.5v-38h119v26q0 113 54 165.5t164 52.5l72 -6l-11 -150q-25 8 -50 8q-24 0 -35.5 -12.5
t-11.5 -42.5v-41h85v-140h-85v-357zM374 497v23q0 29 3 53q-26 7 -55 7q-67 0 -67 -60v-23h119z" />
    <glyph glyph-name="f_f_h" unicode="ffh" horiz-adv-x="1192" 
d="M1145 0h-182v314q0 41 -28 41q-30 0 -54 -36t-24 -78v-241h-182v589q-24 4 -51 4q-68 0 -68 -64v-32h73v-140h-73v-357h-182v357h-119v-357h-182v357h-63v140h63v22q0 212 257 212q75 0 151 -18q64 28 159 28q45 0 99 -4.5t86 -8.5l32 -4v-176q0 -61 -9 -103h1
q50 64 149 64q77 0 112 -43.5t35 -113.5v-352zM374 497v28q0 21 4 51q-28 7 -56 7q-67 0 -67 -60v-26h119z" />
    <glyph glyph-name="f_f_i" unicode="ffi" horiz-adv-x="900" 
d="M857 0h-182v357h-119v-357h-182v357h-119v-357h-182v357h-63v140h63v22q0 213 257 213q84 0 158 -21q64 32 169 32q77 0 169 -19l-31 -151q-81 19 -147 19q-92 0 -92 -77v-18h301v-497zM374 497v8q0 35 7 70q-30 8 -59 8q-67 0 -67 -60v-26h119z" />
    <glyph glyph-name="f_f_igrave" unicode="ff&#xec;" horiz-adv-x="904" 
d="M857 0h-182v357h-119v-357h-182v357h-119v-357h-182v357h-63v140h63v21q0 113 53.5 165.5t162.5 52.5l66 -5l-11 -149q-20 6 -44 6q-23 0 -34 -12.5t-11 -42.5v-36h119v26q0 218 194 218l57 -5l-11 -149q-14 6 -27 6q-31 0 -31 -55v-41h301v-497zM867 597l-104 -57
l-127 179l126 68z" />
    <glyph glyph-name="f_f_iacute" unicode="ff&#xed;" horiz-adv-x="904" 
d="M857 0h-182v357h-119v-357h-182v357h-119v-357h-182v357h-63v140h63v21q0 113 53.5 165.5t162.5 52.5l66 -5l-11 -149q-20 6 -44 6q-23 0 -34 -12.5t-11 -42.5v-36h119v26q0 113 53.5 165.5t162.5 52.5l66 -5l-11 -149q-20 6 -44 6q-23 0 -34 -12.5t-11 -42.5v-41h301
v-497zM912 706l-148 -164l-96 68l127 177z" />
    <glyph glyph-name="f_f_icircumflex" unicode="ff&#xee;" horiz-adv-x="904" 
d="M857 0h-182v357h-119v-357h-182v357h-119v-357h-182v357h-63v140h63v21q0 113 53.5 165.5t162.5 52.5l66 -5l-11 -149q-20 6 -44 6q-23 0 -34 -12.5t-11 -42.5v-36h119v26q0 218 194 218l57 -5l-11 -149q-14 6 -27 6q-31 0 -31 -55v-41h301v-497zM927 627l-61 -83l-93 77
l-95 -77l-59 81l155 143z" />
    <glyph glyph-name="f_f_itilde" unicode="ff&#x129;" horiz-adv-x="904" 
d="M952 655l-83 62q-15 -37 -39 -37q-10 0 -33 20t-52 20q-35 0 -67 -28.5t-52 -78.5l83 -62q15 37 39 37q10 0 33 -20t52 -20q35 0 67 28.5t52 78.5zM857 0h-182v357h-119v-357h-182v357h-119v-357h-182v357h-63v140h63v26q0 213 204 213l61 -5l-9 -149q-16 6 -34 6
q-40 0 -40 -49v-42h119v26q0 218 194 218l57 -5l-11 -149q-14 6 -27 6q-31 0 -31 -55v-41h301v-497z" />
    <glyph glyph-name="f_f_idieresis" unicode="ff&#xef;" horiz-adv-x="934" 
d="M994 640q0 -38 -27 -64.5t-64 -26.5t-64 26.5t-27 64.5t27 64.5t64 26.5t64 -26.5t27 -64.5zM802 640q0 -38 -27 -64.5t-64 -26.5t-64 26.5t-27 64.5t27 64.5t64 26.5t64 -26.5t27 -64.5zM887 0h-182v357h-149v-357h-182v357h-119v-357h-182v357h-63v140h63v26
q0 213 204 213l61 -5l-9 -149q-16 6 -34 6q-40 0 -40 -49v-42h119v26q0 218 196 218l45 -3l-11 -147q-11 3 -23 3q-25 0 -25 -56v-41h331v-497z" />
    <glyph glyph-name="f_f_imacron" unicode="ff&#x12b;" horiz-adv-x="904" 
d="M904 575h-265v130h265v-130zM857 0h-182v357h-119v-357h-182v357h-119v-357h-182v357h-63v140h63v26q0 213 204 213l61 -5l-9 -149q-16 6 -34 6q-40 0 -40 -49v-42h119v26q0 218 196 218l45 -3l-11 -147q-11 3 -23 3q-25 0 -25 -56v-41h301v-497z" />
    <glyph glyph-name="f_f_ibreve" unicode="ff&#x12d;" horiz-adv-x="904" 
d="M857 0h-182v357h-119v-357h-182v357h-119v-357h-182v357h-63v140h63v21q0 113 53.5 165.5t162.5 52.5l66 -5l-11 -149q-20 6 -44 6q-23 0 -34 -12.5t-11 -42.5v-36h119v26q0 218 194 218l57 -5l-11 -149q-14 6 -27 6q-31 0 -31 -55v-41h301v-497zM811 724h114
q0 -86 -38 -133t-109 -47q-72 0 -108 47t-36 133h113q0 -23 8.5 -38t23.5 -15q32 0 32 53z" />
    <glyph glyph-name="f_f_iogonek" unicode="ff&#x12f;" horiz-adv-x="904" 
d="M374 497v8q0 35 7 70q-30 8 -59 8q-67 0 -67 -60v-26h119zM875 -87l46 -96q-65 -58 -157 -58q-67 0 -108 30.5t-41 86.5q0 66 60 124v357h-119v-357h-182v357h-119v-357h-182v357h-63v140h63v22q0 213 257 213q84 0 158 -21q64 32 169 32q77 0 169 -19l-31 -151
q-81 19 -147 19q-92 0 -92 -77v-18h301v-497q-75 -40 -75 -84q0 -25 29 -25t64 22z" />
    <glyph glyph-name="f_f_dotlessi" unicode="ff&#x131;" horiz-adv-x="904" 
d="M857 0h-182v357h-119v-357h-182v357h-119v-357h-182v357h-63v140h63v21q0 113 53.5 165.5t162.5 52.5l66 -5l-11 -149q-20 6 -44 6q-23 0 -34 -12.5t-11 -42.5v-36h119v26q0 113 53.5 165.5t162.5 52.5l66 -5l-11 -149q-20 6 -44 6q-23 0 -34 -12.5t-11 -42.5v-41h301
v-497z" />
    <glyph glyph-name="f_f_j" unicode="ffj" horiz-adv-x="904" 
d="M857 497v-508q0 -228 -224 -228q-37 0 -74 10l9 153q28 -11 55 -11q52 0 52 55v389h-119v-357h-182v357h-119v-357h-182v357h-63v140h63v22q0 213 257 213q84 0 158 -21q64 32 169 32q77 0 169 -19l-31 -151q-81 19 -147 19q-92 0 -92 -77v-18h301zM374 497v8q0 35 7 70
q-30 8 -59 8q-67 0 -67 -60v-26h119z" />
    <glyph glyph-name="f_f_dotlessj" unicode="ff&#x237;" horiz-adv-x="904" 
d="M857 497v-508q0 -107 -53.5 -167.5t-166.5 -60.5q-16 0 -35.5 2t-31.5 4l-11 2l9 153q30 -9 61 -9q46 0 46 55v389h-119v-357h-182v357h-119v-357h-182v357h-63v140h63v21q0 113 53.5 165.5t162.5 52.5l66 -5l-11 -149q-20 6 -44 6q-23 0 -34 -12.5t-11 -42.5v-36h119v26
q0 218 194 218l57 -5l-11 -149q-14 6 -27 6q-31 0 -31 -55v-41h301z" />
    <glyph glyph-name="f_f_jcircumflex" unicode="ff&#x135;" horiz-adv-x="904" 
d="M857 497v-508q0 -107 -53.5 -167.5t-166.5 -60.5q-16 0 -35.5 2t-31.5 4l-11 2l9 153q30 -9 61 -9q46 0 46 55v389h-119v-357h-182v357h-119v-357h-182v357h-63v140h63v21q0 113 53.5 165.5t162.5 52.5l66 -5l-11 -149q-20 6 -44 6q-23 0 -34 -12.5t-11 -42.5v-36h119v26
q0 218 194 218l57 -5l-11 -149q-14 6 -27 6q-31 0 -31 -55v-41h301zM927 627l-61 -83l-93 77l-95 -77l-59 81l155 143z" />
    <glyph glyph-name="f_f_k" unicode="ffk" horiz-adv-x="1193" 
d="M374 497v28q0 21 4 51q-28 7 -56 7q-67 0 -67 -60v-26h119zM1193 0h-225l-111 230v-230h-182v589q-24 4 -51 4q-68 0 -68 -64v-32h73v-140h-73v-357h-182v357h-119v-357h-182v357h-63v140h63v22q0 212 257 212q75 0 151 -18q64 28 159 28q45 0 99 -4.5t86 -8.5l32 -4
v-418l102 191h224l-151 -228z" />
    <glyph glyph-name="f_f_l" unicode="ffl" horiz-adv-x="900" 
d="M857 0h-182v589q-24 4 -51 4q-68 0 -68 -64v-32h73v-140h-73v-357h-182v357h-119v-357h-182v357h-63v140h63v22q0 212 257 212q75 0 151 -18q64 28 159 28q45 0 99 -4.5t86 -8.5l32 -4v-724zM374 497v28q0 21 4 51q-28 7 -56 7q-67 0 -67 -60v-26h119z" />
    <glyph glyph-name="f_h" unicode="fh" horiz-adv-x="887" 
d="M844 0h-182v314q0 41 -28 41q-30 0 -54 -36t-24 -78v-241h-182v589q-24 4 -51 4q-68 0 -68 -64v-32h73v-140h-73v-357h-182v357h-63v140h63v28q0 216 266 216q45 0 99 -4.5t86 -8.5l32 -4v-176q0 -61 -9 -103h1q50 64 149 64q77 0 112 -43.5t35 -113.5v-352z" />
    <glyph glyph-name="f_i" unicode="fi" horiz-adv-x="603" 
d="M556 0h-182v357h-119v-357h-182v357h-63v140h63v8q0 238 283 238q77 0 169 -19l-31 -151q-81 19 -147 19q-92 0 -92 -77v-18h301v-497z" />
    <glyph glyph-name="f_i.TRK" unicode="fi" horiz-adv-x="603" 
d="M574 635q0 -41 -30.5 -70.5t-73.5 -29.5t-74 29.5t-31 70.5q0 42 30.5 71.5t74.5 29.5q43 0 73.5 -29.5t30.5 -71.5zM556 0h-182v357h-119v-357h-182v357h-63v140h63v26q0 112 53 165t158 53l65 -5l-11 -149q-20 6 -43 6q-40 0 -40 -55v-41h301v-497z" />
    <glyph glyph-name="f_igrave" unicode="f&#xec;" horiz-adv-x="603" 
d="M556 0h-182v357h-119v-357h-182v357h-63v140h63v26q0 218 194 218l57 -5l-11 -149q-14 6 -27 6q-31 0 -31 -55v-41h301v-497zM566 597l-104 -57l-127 179l126 68z" />
    <glyph glyph-name="f_iacute" unicode="f&#xed;" horiz-adv-x="603" 
d="M556 0h-182v357h-119v-357h-182v357h-63v140h63v26q0 113 53.5 165.5t162.5 52.5l66 -5l-11 -149q-20 6 -44 6q-23 0 -34 -12.5t-11 -42.5v-41h301v-497zM611 706l-148 -164l-96 68l127 177z" />
    <glyph glyph-name="f_icircumflex" unicode="f&#xee;" horiz-adv-x="603" 
d="M556 0h-182v357h-119v-357h-182v357h-63v140h63v26q0 218 194 218l57 -5l-11 -149q-14 6 -27 6q-31 0 -31 -55v-41h301v-497zM626 627l-61 -83l-93 77l-95 -77l-59 81l155 143z" />
    <glyph glyph-name="f_itilde" unicode="f&#x129;" horiz-adv-x="603" 
d="M556 0h-182v357h-119v-357h-182v357h-63v140h63v26q0 218 194 218l57 -5l-11 -149q-14 6 -27 6q-31 0 -31 -56v-40h301v-497zM325 613l83 -62q15 37 39 37q10 0 33 -20t52 -20q35 0 67 28.5t52 78.5l-83 62q-15 -37 -39 -37q-10 0 -33 20t-52 20q-35 0 -67 -28.5
t-52 -78.5z" />
    <glyph glyph-name="f_idieresis" unicode="f&#xef;" horiz-adv-x="633" 
d="M586 0h-182v357h-149v-357h-182v357h-63v140h63v26q0 218 196 218l45 -3l-11 -147q-11 3 -23 3q-25 0 -25 -56v-41h331v-497zM693 640q0 -38 -26.5 -64.5t-64.5 -26.5t-64.5 26.5t-26.5 64.5t26.5 64.5t64.5 26.5t64.5 -26.5t26.5 -64.5zM501 640q0 -38 -26.5 -64.5
t-64.5 -26.5t-64.5 26.5t-26.5 64.5t26.5 64.5t64.5 26.5t64.5 -26.5t26.5 -64.5z" />
    <glyph glyph-name="f_imacron" unicode="f&#x12b;" horiz-adv-x="603" 
d="M603 575h-265v130h265v-130zM556 0h-182v357h-119v-357h-182v357h-63v140h63v26q0 218 196 218l45 -3l-11 -147q-11 3 -23 3q-25 0 -25 -56v-41h301v-497z" />
    <glyph glyph-name="f_ibreve" unicode="f&#x12d;" horiz-adv-x="603" 
d="M556 0h-182v357h-119v-357h-182v357h-63v140h63v26q0 218 194 218l57 -5l-11 -149q-14 6 -27 6q-31 0 -31 -55v-41h301v-497zM510 724h114q0 -86 -38 -133t-109 -47q-72 0 -108 47t-36 133h113q0 -23 8.5 -38t23.5 -15q32 0 32 53z" />
    <glyph glyph-name="f_iogonek" unicode="f&#x12f;" horiz-adv-x="603" 
d="M574 -87l46 -96q-65 -58 -157 -58q-67 0 -108 30.5t-41 86.5q0 66 60 124v357h-119v-357h-182v357h-63v140h63v8q0 238 283 238q77 0 169 -19l-31 -151q-81 19 -147 19q-92 0 -92 -77v-18h301v-497q-75 -40 -75 -84q0 -25 29 -25t64 22z" />
    <glyph glyph-name="f_dotlessi" unicode="f&#x131;" horiz-adv-x="603" 
d="M556 0h-182v357h-119v-357h-182v357h-63v140h63v26q0 113 53.5 165.5t162.5 52.5l66 -5l-11 -149q-20 6 -44 6q-23 0 -34 -12.5t-11 -42.5v-41h301v-497z" />
    <glyph glyph-name="f_ij" unicode="f&#x133;" horiz-adv-x="891" 
d="M574 635q0 -41 -30.5 -70.5t-73.5 -29.5t-74 29.5t-31 70.5q0 42 30.5 71.5t74.5 29.5q43 0 73.5 -29.5t30.5 -71.5zM857 635q0 -41 -30.5 -70.5t-73.5 -29.5t-74 29.5t-31 70.5q0 42 30.5 71.5t74.5 29.5q43 0 73.5 -29.5t30.5 -71.5zM844 497v-481q0 -130 -77 -193.5
t-215 -63.5q-76 0 -157 19l14 164q74 -30 158 -30q99 0 99 79v5q0 39 11 73h-1q-54 -76 -155 -76q-77 0 -112 42.5t-35 112.5v209h-119v-357h-182v357h-63v140h63v26q0 112 53 165t158 53l65 -5l-11 -149q-20 6 -43 6q-40 0 -40 -55v-41h301v-311q0 -41 28 -41q30 0 54 35.5
t24 77.5v239h182z" />
    <glyph glyph-name="f_j" unicode="fj" horiz-adv-x="599" 
d="M556 497v-508q0 -228 -224 -228q-37 0 -74 10l9 153q28 -11 55 -11q52 0 52 55v389h-119v-357h-182v357h-63v140h63v8q0 238 283 238q77 0 169 -19l-31 -151q-81 19 -147 19q-92 0 -92 -77v-18h301z" />
    <glyph glyph-name="f_dotlessj" unicode="f&#x237;" horiz-adv-x="603" 
d="M556 497v-508q0 -228 -224 -228q-37 0 -74 10l9 153q28 -11 55 -11q52 0 52 55v389h-119v-357h-182v357h-63v140h63v26q0 113 53.5 165.5t162.5 52.5l66 -5l-11 -149q-20 6 -44 6q-23 0 -34 -12.5t-11 -42.5v-41h301z" />
    <glyph glyph-name="f_jcircumflex" unicode="f&#x135;" horiz-adv-x="603" 
d="M556 497v-508q0 -228 -224 -228q-37 0 -74 10l9 153q28 -11 55 -11q52 0 52 55v389h-119v-357h-182v357h-63v140h63v26q0 218 194 218l57 -5l-11 -149q-14 6 -27 6q-31 0 -31 -55v-41h301zM626 627l-61 -83l-93 77l-95 -77l-59 81l155 143z" />
    <glyph glyph-name="f_k" unicode="fk" horiz-adv-x="892" 
d="M892 0h-225l-111 230v-230h-182v589q-24 4 -51 4q-68 0 -68 -64v-32h73v-140h-73v-357h-182v357h-63v140h63v28q0 216 266 216q45 0 99 -4.5t86 -8.5l32 -4v-418l102 191h224l-151 -228z" />
    <glyph glyph-name="f_l" unicode="fl" horiz-adv-x="603" 
d="M556 0h-182v589q-24 4 -51 4q-68 0 -68 -64v-32h73v-140h-73v-357h-182v357h-63v140h63v28q0 216 266 216q45 0 99 -4.5t86 -8.5l32 -4v-724z" />
    <glyph glyph-name="f_lacute" unicode="f&#x13a;" horiz-adv-x="603" 
d="M556 0h-182v589q-24 4 -51 4q-68 0 -68 -64v-32h73v-140h-73v-357h-182v357h-63v140h63v28q0 216 266 216q45 0 99 -4.5t86 -8.5l32 -4v-724zM655 812l-253 -49l-26 96l244 76z" />
    <glyph glyph-name="f_lcaron" unicode="f&#x13e;" horiz-adv-x="687" 
d="M556 0h-182v589q-24 4 -51 4q-68 0 -68 -64v-32h73v-140h-73v-357h-182v357h-63v140h63v28q0 216 266 216q45 0 99 -4.5t86 -8.5l32 -4v-724zM756 772l-69 -236l-115 21l43 240z" />
    <glyph glyph-name="f_lcommaaccent" unicode="f&#x13c;" horiz-adv-x="603" 
d="M556 0h-182v589q-24 4 -51 4q-68 0 -68 -64v-32h73v-140h-73v-357h-182v357h-63v140h63v28q0 216 266 216q45 0 99 -4.5t86 -8.5l32 -4v-724zM361 -245l-18 65q32 7 43.5 14t11.5 21q0 5 -1.5 15t-1.5 16q0 29 20 49.5t56 20.5q34 0 54 -21.5t20 -56.5q0 -50 -46.5 -86.5
t-137.5 -36.5z" />
    <glyph glyph-name=".notdef" 
d="M300 150h-150v250h50v-200h100v-50zM500 50h-450v450h450v-450zM350 350h-100v50h150v-250h-50v100h-100v50h100v50zM100 100h350v350h-350v-350z" />
    <glyph glyph-name=".null" horiz-adv-x="0" 
 />
    <glyph glyph-name=".null" horiz-adv-x="0" 
 />
    <glyph glyph-name="nonmarkingreturn" horiz-adv-x="333" 
 />
    <glyph glyph-name="CR" unicode="&#xd;" horiz-adv-x="500" 
 />
    <glyph glyph-name="space" unicode=" " horiz-adv-x="218" 
 />
    <glyph glyph-name="exclam" unicode="!" horiz-adv-x="324" 
d="M276 715l-25 -499h-160l-28 499h213zM272 86q0 -42 -30 -71t-74 -29t-74 29t-30 71t30 71t74 29t74 -29t30 -71z" />
    <glyph glyph-name="quotedbl" unicode="&#x22;" horiz-adv-x="461" 
d="M429 707l-20 -290h-137l-20 290h177zM209 707l-20 -290h-137l-20 290h177z" />
    <glyph glyph-name="numbersign" unicode="#" horiz-adv-x="591" 
d="M571 385h-76l-10 -94h63v-129h-76l-17 -162h-144l17 162h-101l-17 -162h-144l17 162h-62v129h75l10 94h-62v129h75l17 161h144l-17 -161h101l17 161h144l-17 -161h63v-129zM351 385h-101l-10 -94h101z" />
    <glyph glyph-name="dollar" unicode="$" horiz-adv-x="500" 
d="M305 -84h-127v100q-49 2 -116 11l12 161q60 -19 122 -19q77 0 77 41q0 18 -18 30.5t-45 20t-58.5 22t-58.5 33t-45 55t-18 87.5q0 68 41.5 120t110.5 71v93h127v-83q52 -2 98 -12l-13 -152q-56 16 -108 16q-65 0 -65 -37q0 -17 25.5 -30t61.5 -25.5t72 -31.5t61.5 -60.5
t25.5 -100.5q0 -69 -44 -123.5t-118 -76.5v-110z" />
    <glyph glyph-name="percent" unicode="%" horiz-adv-x="775" 
d="M745 157q0 -76 -50 -123.5t-117 -47.5q-73 0 -116 43.5t-43 117.5t49 120.5t117 46.5q70 0 115 -39.5t45 -117.5zM695 617l-507 -642l-112 82l507 642zM356 533q0 -76 -50 -123.5t-117 -47.5q-73 0 -116 43.5t-43 117.5t49 120.5t117 46.5q70 0 115 -39.5t45 -117.5z
M615 151q0 32 -8 43t-23 11q-14 0 -24 -14t-10 -41q0 -55 32 -55q13 0 23 14.5t10 41.5zM226 527q0 32 -8 43t-23 11q-14 0 -24 -14t-10 -41q0 -55 32 -55q13 0 23 14.5t10 41.5z" />
    <glyph glyph-name="ampersand" unicode="&#x26;" horiz-adv-x="800" 
d="M773 112l-113 -144q-70 48 -133 94q-113 -76 -253 -76q-122 0 -180.5 59t-58.5 145q0 107 108 194q-73 90 -73 172q0 79 61 132t168 53q98 0 151.5 -43.5t53.5 -120.5q0 -100 -112 -190q50 -42 126 -96q47 83 47 183h180q0 -159 -88 -283q43 -30 116 -79zM324 567
q0 17 -9.5 28t-26.5 11q-16 0 -27 -11.5t-11 -28.5q0 -38 33 -76q41 39 41 77zM302 142q45 0 87 21q-67 50 -136 111q-28 -31 -28 -63q0 -27 20.5 -48t56.5 -21z" />
    <glyph glyph-name="quotesingle" unicode="'" horiz-adv-x="241" 
d="M209 707l-20 -290h-137l-20 290h177z" />
    <glyph glyph-name="parenleft" unicode="(" horiz-adv-x="310" 
d="M317 -162l-141 -61q-150 235 -150 509q0 275 151 509l136 -59q-107 -200 -107 -446q0 -247 111 -452z" />
    <glyph glyph-name="parenright" unicode=")" horiz-adv-x="310" 
d="M131 -223l-136 59q108 199 108 446q0 245 -109 452l141 61q148 -237 148 -509q0 -276 -152 -509z" />
    <glyph glyph-name="asterisk" unicode="*" horiz-adv-x="400" 
d="M380 526l-63 -108l-77 71l23 -103h-126l23 103l-78 -70l-62 107l100 32l-100 32l63 108l77 -71l-23 103h125l-22 -103l77 71l63 -108l-100 -32z" />
    <glyph glyph-name="plus" unicode="+" 
d="M515 222h-153v-166h-174v166h-153v152h153v164h174v-164h153v-152z" />
    <glyph glyph-name="comma" unicode="," horiz-adv-x="300" 
d="M103 -200l-73 65q55 59 63 95.5t-25 72.5q-19 21 -22.5 50t6.5 55t36 44t62 18q63 0 94 -59q38 -74 -8 -176q-39 -87 -133 -165z" />
    <glyph glyph-name="hyphen" unicode="-" horiz-adv-x="340" 
d="M300 191h-260v145h260v-145z" />
    <glyph glyph-name="period" unicode="." horiz-adv-x="300" 
d="M260 96q0 -45 -32.5 -77.5t-77.5 -32.5t-77.5 32.5t-32.5 77.5t32.5 77.5t77.5 32.5t77.5 -32.5t32.5 -77.5z" />
    <glyph glyph-name="slash" unicode="/" horiz-adv-x="500" 
d="M503 757l-350 -918h-184l351 918h183z" />
    <glyph glyph-name="zero" unicode="0" horiz-adv-x="594" 
d="M576 346q0 -169 -84 -262.5t-204 -93.5q-270 0 -270 338q0 169 84 262.5t204 93.5q270 0 270 -338zM381 337q0 105 -19 149.5t-62 44.5q-87 0 -87 -194q0 -105 19 -149.5t62 -44.5q87 0 87 194z" />
    <glyph glyph-name="one" unicode="1" horiz-adv-x="370" 
d="M322 0h-189v483l-99 -39l-26 174l172 57h142v-675z" />
    <glyph glyph-name="two" unicode="2" horiz-adv-x="495" 
d="M465 0h-431v156l66 69q147 153 147 229q0 28 -17.5 45t-49.5 17q-61 0 -114 -35l-28 166q84 40 194 40q108 0 164 -56t56 -143q0 -136 -152 -295l-18 -19l1 -1q84 5 182 5v-178z" />
    <glyph glyph-name="three" unicode="3" horiz-adv-x="450" 
d="M20 3l17 156q41 -14 101 -14q44 0 69.5 17.5t25.5 46.5q0 61 -98 61q-44 0 -80 -6v145q61 -2 100 10t51 27t12 32q0 53 -70 53q-51 0 -102 -24l-15 149q76 31 170 31q98 0 154 -46.5t56 -122.5q0 -51 -27.5 -88.5t-72.5 -53.5l-2 -3q58 -15 89.5 -57.5t31.5 -95.5
q0 -106 -81 -169t-211 -63q-70 0 -118 15z" />
    <glyph glyph-name="four" unicode="4" horiz-adv-x="569" 
d="M554 134h-85v-134h-179v134h-259l-14 147l208 394h244v-374h85v-167zM294 297v214h-1l-107 -215q22 1 108 1z" />
    <glyph glyph-name="five" unicode="5" horiz-adv-x="464" 
d="M24 1l16 163q56 -18 116 -18q44 0 68 20.5t24 50.5q0 72 -116 72q-21 0 -43 -1.5t-33 -3.5l-12 -2v393h361v-173l-190 2v-72q103 0 165 -51.5t62 -142.5q0 -103 -78 -177t-213 -74q-55 0 -127 14z" />
    <glyph glyph-name="six" unicode="6" horiz-adv-x="580" 
d="M495 679v-163q-48 12 -101 12q-52 0 -95 -22.5t-64 -70.5q-2 -4 -4.5 -12t-3.5 -11h1q53 29 121 29q98 0 154 -55.5t56 -146.5q0 -117 -76.5 -185t-200.5 -68q-112 0 -181 75t-69 224q0 185 100.5 292t258.5 107q71 0 104 -5zM366 215q0 74 -68 74q-31 0 -49.5 -19
t-18.5 -47q0 -79 65 -79q35 0 53 20t18 51z" />
    <glyph glyph-name="seven" unicode="7" horiz-adv-x="464" 
d="M447 675v-157q-98 -225 -151 -518h-202q22 123 65 266t82 233q-141 -3 -224 -3v179h430z" />
    <glyph glyph-name="eight" unicode="8" horiz-adv-x="566" 
d="M544 197q0 -103 -79.5 -157.5t-194.5 -54.5q-114 0 -181 51t-67 140q0 97 101 160q-41 22 -65 60.5t-24 84.5q0 96 74 153t187 57q104 0 169.5 -50t65.5 -126q0 -90 -93 -157q107 -61 107 -161zM344 500q0 18 -15 31t-47 13q-31 0 -47 -13t-16 -34q0 -35 70 -68
q55 33 55 71zM355 188q0 39 -85 76q-58 -36 -58 -72q0 -26 19.5 -41.5t52.5 -15.5q32 0 51.5 15.5t19.5 37.5z" />
    <glyph glyph-name="nine" unicode="9" horiz-adv-x="580" 
d="M77 -3v162q46 -15 113 -15q94 0 132 61q7 12 16 48h-1q-33 -31 -109 -31q-94 0 -149 57t-55 156q0 111 75 182t191 71q121 0 190.5 -74t69.5 -222q0 -89 -20.5 -160.5t-63.5 -127t-116 -85.5t-172 -30q-57 0 -101 8zM346 448q0 82 -64 82q-32 0 -50 -20.5t-18 -52.5
q0 -73 66 -73q28 0 47 21.5t19 42.5z" />
    <glyph glyph-name="colon" unicode=":" horiz-adv-x="315" 
d="M275 365q0 -45 -32.5 -77.5t-77.5 -32.5t-77.5 32.5t-32.5 77.5t32.5 77.5t77.5 32.5t77.5 -32.5t32.5 -77.5zM275 96q0 -45 -32.5 -77.5t-77.5 -32.5t-77.5 32.5t-32.5 77.5t32.5 77.5t77.5 32.5t77.5 -32.5t32.5 -77.5z" />
    <glyph glyph-name="semicolon" unicode=";" horiz-adv-x="315" 
d="M275 365q0 -45 -32.5 -77.5t-77.5 -32.5t-77.5 32.5t-32.5 77.5t32.5 77.5t77.5 32.5t77.5 -32.5t32.5 -77.5zM118 -200l-73 65q55 59 63 95.5t-25 72.5q-19 21 -22.5 50t6.5 55t36 44t62 18q63 0 94 -59q38 -74 -8 -176q-39 -87 -133 -165z" />
    <glyph glyph-name="less" unicode="&#x3c;" 
d="M494 110l-120 -123l-323 311l321 310l121 -121l-207 -188z" />
    <glyph glyph-name="equal" unicode="=" 
d="M500 334h-450v145h450v-145zM500 114h-450v145h450v-145z" />
    <glyph glyph-name="greater" unicode="&#x3e;" 
d="M499 297l-321 -310l-121 121l207 188l-208 189l120 123z" />
    <glyph glyph-name="question" unicode="?" horiz-adv-x="459" 
d="M281 216h-178q-24 61 -7 106t47 68t59.5 49t29.5 49q0 37 -47 54.5t-142 19.5l22 165q188 -3 277 -66t89 -154q0 -47 -19 -83t-44.5 -58t-50 -42.5t-35.5 -47t-1 -60.5zM299 86q0 -42 -30 -71t-74 -29t-74 29t-30 71t30 71t74 29t74 -29t30 -71z" />
    <glyph glyph-name="at" unicode="@" horiz-adv-x="1024" 
d="M741 -21l21 -134q-130 -47 -264 -47q-218 0 -329 106t-111 294q0 149 66 268t181.5 185t258.5 66q193 0 299.5 -98t106.5 -257q0 -155 -76.5 -245.5t-205.5 -90.5q-55 0 -89 24t-38 66h-2q-60 -90 -155 -90q-59 0 -97.5 46t-38.5 135q0 133 74.5 218t211.5 85
q43 0 85.5 -8t64.5 -16l21 -8l-36 -202q-7 -35 -7 -57t7.5 -33.5t24.5 -11.5q41 0 68.5 46t27.5 134q0 93 -62 158t-190 65q-144 0 -243 -100.5t-99 -264.5q0 -134 72 -203.5t232 -69.5q103 0 221 40zM535 328l7 37q-13 5 -27 5q-34 0 -56.5 -45t-22.5 -95q0 -30 4 -41.5
t15 -11.5q22 0 43.5 36.5t36.5 114.5z" />
    <glyph glyph-name="A" unicode="A" horiz-adv-x="641" 
d="M651 0h-203l-33 120h-207l-33 -120h-184l202 675h251zM376 266l-39 143q-14 48 -24 108h-2q-8 -49 -24 -108l-39 -143h128z" />
    <glyph glyph-name="B" unicode="B" horiz-adv-x="597" 
d="M48 0v674q125 6 240 6q265 0 265 -180q0 -43 -20.5 -80t-58.5 -57v-1q46 -17 73.5 -56t27.5 -88q0 -95 -77 -157.5t-213 -62.5q-11 0 -91 1t-146 1zM234 531v-118q11 -1 42 -1q80 0 80 62q0 59 -77 59q-19 0 -45 -2zM234 274v-126q24 -2 53 -2q86 0 86 66q0 28 -22 45.5
t-67 17.5q-39 0 -50 -1z" />
    <glyph glyph-name="C" unicode="C" horiz-adv-x="541" 
d="M482 182l25 -166q-69 -25 -160 -25q-76 0 -134.5 20.5t-93 52t-56 75.5t-29 85t-7.5 86q0 171 92 270.5t256 99.5q71 0 130 -18l-23 -170q-48 19 -107 19q-67 0 -105 -44.5t-38 -125.5q0 -180 150 -180q58 0 100 21z" />
    <glyph glyph-name="D" unicode="D" horiz-adv-x="651" 
d="M48 1v672q106 6 243 6q335 0 335 -325q0 -171 -98.5 -265t-265.5 -94q-112 0 -214 6zM234 520v-361q12 -3 43 -3q66 0 107 46.5t41 136.5t-29 136.5t-115 46.5q-33 0 -47 -2z" />
    <glyph glyph-name="E" unicode="E" horiz-adv-x="506" 
d="M463 0h-415v675h415v-158h-229v-95h208v-152h-208v-109h229v-161z" />
    <glyph glyph-name="F" unicode="F" horiz-adv-x="470" 
d="M445 515h-211v-113h197v-153h-197v-249h-186v675h397v-160z" />
    <glyph glyph-name="G" unicode="G" horiz-adv-x="664" 
d="M617 368v-333q-105 -47 -243 -47q-172 0 -260 86t-88 236q0 175 103 275.5t289 100.5q107 0 198 -28l-36 -170q-77 30 -169 30t-137.5 -50t-45.5 -136q0 -82 41 -128t124 -46q21 0 38 5v205h186z" />
    <glyph glyph-name="H" unicode="H" horiz-adv-x="670" 
d="M622 0h-186v266h-202v-266h-186v675h186v-246h202v246h186v-675z" />
    <glyph glyph-name="I" unicode="I" horiz-adv-x="282" 
d="M234 0h-186v675h186v-675z" />
    <glyph glyph-name="J" unicode="J" horiz-adv-x="350" 
d="M304 675v-463q0 -96 -49 -159.5t-160 -63.5q-53 0 -95 8v156q24 -8 57 -8q61 0 61 66v464h186z" />
    <glyph glyph-name="K" unicode="K" horiz-adv-x="615" 
d="M616 0h-239l-143 308v-308h-186v675h186v-289l146 289h223l-192 -323z" />
    <glyph glyph-name="L" unicode="L" horiz-adv-x="432" 
d="M420 0h-372v675h186v-512h186v-163z" />
    <glyph glyph-name="M" unicode="M" horiz-adv-x="900" 
d="M891 0h-189l-22 241q-13 136 -12 256h-3q-26 -138 -61 -253l-74 -244h-174l-74 244q-47 159 -62 253h-3q2 -111 -11 -256l-21 -241h-176l72 675h260l73 -239q23 -78 37 -162h2q17 106 34 162l73 239h259z" />
    <glyph glyph-name="N" unicode="N" horiz-adv-x="686" 
d="M638 0h-237l-137 297q-33 73 -46 126q7 -75 7 -235v-188h-177v675h244l126 -272q32 -68 50 -134q-7 64 -7 240v166h177v-675z" />
    <glyph glyph-name="O" unicode="O" horiz-adv-x="718" 
d="M693 355q0 -172 -100 -270.5t-246 -98.5q-159 0 -240.5 84.5t-81.5 249.5q0 172 100 270.5t246 98.5q159 0 240.5 -84.5t81.5 -249.5zM493 337q0 182 -134 182q-64 0 -99 -46.5t-35 -134.5q0 -181 134 -181q64 0 99 46t35 134z" />
    <glyph glyph-name="P" unicode="P" horiz-adv-x="558" 
d="M234 0h-186v675q102 5 219 5q136 0 208.5 -57.5t72.5 -169.5q0 -111 -74.5 -184.5t-212.5 -73.5l-27 1v-196zM234 526v-175q16 -3 35 -3q41 0 64 23.5t23 65.5q0 90 -94 90z" />
    <glyph glyph-name="Q" unicode="Q" horiz-adv-x="718" 
d="M706 89v-155q-78 -13 -132.5 0t-101.5 32.5t-94 19.5h-31q-159 0 -240.5 84.5t-81.5 249.5q0 172 100 270.5t246 98.5q159 0 240.5 -84.5t81.5 -249.5q0 -96 -31.5 -167t-80.5 -97q18 2 52.5 -3t72.5 1zM494 337q0 182 -135 182q-64 0 -99.5 -46.5t-35.5 -134.5
q0 -181 135 -181q64 0 99.5 46.5t35.5 133.5z" />
    <glyph glyph-name="R" unicode="R" horiz-adv-x="586" 
d="M594 0h-224l-120 243h-16v-243h-186v675q100 5 231 5q133 0 200.5 -50.5t67.5 -160.5q0 -136 -115 -189q27 -40 46 -74zM234 525v-144q15 -1 31 -1q39 0 62.5 19t23.5 56q0 72 -82 72z" />
    <glyph glyph-name="S" unicode="S" horiz-adv-x="502" 
d="M430 675l-16 -161q-57 20 -119 20q-74 0 -74 -45q0 -19 19.5 -34.5t49 -25.5t63.5 -27t63.5 -38t49 -60.5t19.5 -91.5q0 -101 -74 -163t-205 -62q-92 0 -165 17l16 177q76 -32 157 -32q70 0 70 44q0 21 -19 37.5t-48 26t-62.5 26.5t-62.5 37t-48 59t-19 92q0 99 74.5 158
t206.5 59q66 0 124 -13z" />
    <glyph glyph-name="T" unicode="T" horiz-adv-x="502" 
d="M490 515h-146v-515h-186v515h-146v160h478v-160z" />
    <glyph glyph-name="U" unicode="U" horiz-adv-x="664" 
d="M616 675v-407q0 -143 -77 -212.5t-217 -69.5q-151 0 -212.5 69t-61.5 189v431h186v-422q0 -57 22 -84t77 -27q56 0 77.5 26t21.5 90v417h184z" />
    <glyph glyph-name="V" unicode="V" horiz-adv-x="644" 
d="M652 675l-202 -675h-251l-207 675h204l97 -355q21 -78 35 -152h2q17 95 33 152l100 355h189z" />
    <glyph glyph-name="W" unicode="W" horiz-adv-x="961" 
d="M951 675l-152 -675h-229l-66 261q-12 51 -22 151h-3q-10 -100 -22 -151l-66 -261h-229l-152 675h198l51 -269q22 -116 29 -201h3q14 112 36 201l68 269h186l68 -269q30 -115 40 -201h3q14 120 30 210l46 260h183z" />
    <glyph glyph-name="X" unicode="X" horiz-adv-x="671" 
d="M671 0h-235l-107 204l-107 -204h-222l206 342l-194 333h215l106 -200l103 200h212l-191 -336z" />
    <glyph glyph-name="Y" unicode="Y" horiz-adv-x="597" 
d="M604 675l-214 -442v-233h-186v232l-211 443h202l63 -146q24 -55 40 -103h2q12 37 49 118l58 131h197z" />
    <glyph glyph-name="Z" unicode="Z" horiz-adv-x="534" 
d="M491 0h-448v147l186 324q16 26 26 38q-11 -1 -85 -1h-121v167h437v-154l-196 -322q-17 -25 -19 -28q10 1 113 1h107v-172z" />
    <glyph glyph-name="bracketleft" unicode="[" horiz-adv-x="336" 
d="M303 -213h-253v998h253v-147h-81v-703h81v-148z" />
    <glyph glyph-name="backslash" unicode="\" horiz-adv-x="534" 
d="M534 -161h-184l-350 918h183z" />
    <glyph glyph-name="bracketright" unicode="]" horiz-adv-x="336" 
d="M286 -213h-253v148h81v703h-81v147h253v-998z" />
    <glyph glyph-name="asciicircum" unicode="^" 
d="M508 392l-128 -64l-112 221l-107 -221l-119 62l161 285h136z" />
    <glyph glyph-name="underscore" unicode="_" 
d="M550 -242h-550v148h550v-148z" />
    <glyph glyph-name="grave" unicode="`" horiz-adv-x="350" 
d="M310 630l-76 -87l-194 129l92 107z" />
    <glyph glyph-name="a" unicode="a" horiz-adv-x="529" 
d="M484 0h-170q0 40 4 63h-1q-18 -35 -57 -55t-87 -20q-71 0 -109.5 43.5t-38.5 109.5q0 177 271 177v11q0 24 -15 33.5t-50 9.5q-69 0 -151 -30l-26 135q102 33 198 33q128 0 178 -42.5t50 -133.5v-228q0 -69 4 -106zM296 190v15q-56 0 -76.5 -10.5t-20.5 -35.5
q0 -14 9.5 -24t26.5 -10q26 0 43.5 19.5t17.5 45.5z" />
    <glyph glyph-name="b" unicode="b" horiz-adv-x="559" 
d="M229 730v-174q0 -56 -7 -103h1q37 56 129 56q89 0 135.5 -62t46.5 -170q0 -125 -73.5 -207.5t-208.5 -82.5q-50 0 -101 7t-77 14l-27 7v715h182zM229 242v-103q15 -6 35 -6q78 0 78 125q0 53 -12 76t-37 23q-27 0 -45.5 -30t-18.5 -85z" />
    <glyph glyph-name="c" unicode="c" horiz-adv-x="409" 
d="M364 161l20 -154q-51 -19 -126 -19q-234 0 -234 245q0 119 68 197.5t202 78.5q48 0 90 -13l-25 -158q-34 14 -64 14q-80 0 -80 -107q0 -48 21 -73t59 -25q40 0 69 14z" />
    <glyph glyph-name="d" unicode="d" horiz-adv-x="559" 
d="M512 0h-165q0 34 3 56h-2q-46 -69 -143 -69q-87 0 -133.5 62.5t-46.5 169.5q0 124 72.5 207t199.5 83q15 0 33 -2v223h182v-730zM330 258v102q-15 4 -35 4q-78 0 -78 -125q0 -100 49 -100q27 0 45.5 31t18.5 88z" />
    <glyph glyph-name="e" unicode="e" horiz-adv-x="524" 
d="M462 152l16 -133q-89 -31 -190 -31q-264 0 -264 254q0 116 68.5 191.5t184.5 75.5q110 0 164.5 -60t54.5 -161l-6 -97h-282q5 -64 100 -64q74 0 154 25zM207 309h112q3 68 -51 68q-26 0 -42.5 -18.5t-18.5 -49.5z" />
    <glyph glyph-name="f" unicode="f" horiz-adv-x="361" 
d="M340 497v-140h-85v-357h-182v357h-63v140h63v26q0 113 54 165.5t164 52.5l72 -6l-11 -150q-25 8 -50 8q-24 0 -35.5 -12.5t-11.5 -42.5v-41h85z" />
    <glyph glyph-name="g" unicode="g" horiz-adv-x="548" 
d="M526 354h-46q1 -4 1 -12q0 -88 -57.5 -138t-171.5 -50h-6q-8 -8 -8 -18t11.5 -14.5t50.5 -5.5l56 -2q172 -6 172 -151q0 -86 -77.5 -147t-206.5 -61q-107 0 -167 36t-60 108q0 68 71 109l1 1q-44 26 -44 78q0 68 63 98q-75 42 -75 135q0 86 58 138t171 52q52 0 98 -13
h166v-143zM238 -21q-2 0 -7 0.5t-8 0.5v-1q-23 -19 -23 -44q0 -21 18.5 -34t53.5 -13q39 0 58.5 14.5t19.5 36.5q0 37 -45 38zM310 329q0 23 -13.5 37t-39.5 14q-25 0 -39 -13.5t-14 -37.5q0 -23 13.5 -37t39.5 -14q25 0 39 13.5t14 37.5z" />
    <glyph glyph-name="h" unicode="h" horiz-adv-x="564" 
d="M517 0h-182v314q0 41 -28 41q-30 0 -54 -36t-24 -78v-241h-182v730h182v-182q0 -61 -9 -103h1q50 64 149 64q77 0 112 -43.5t35 -113.5v-352z" />
    <glyph glyph-name="i" unicode="i" horiz-adv-x="276" 
d="M247 640q0 -43 -32 -74t-77 -31t-77 31t-32 74t32 74t77 31t77 -31t32 -74zM229 0h-182v497h182v-497z" />
    <glyph glyph-name="j" unicode="j" horiz-adv-x="277" 
d="M247 640q0 -43 -32 -74t-77 -31t-77 31t-32 74t32 74t77 31t77 -31t32 -74zM230 497v-508q0 -107 -53.5 -167.5t-166.5 -60.5q-16 0 -35.5 2t-30.5 4l-12 2l9 153q30 -9 61 -9q46 0 46 55v529h182z" />
    <glyph glyph-name="k" unicode="k" horiz-adv-x="565" 
d="M565 0h-225l-111 230v-230h-182v730h182v-424l102 191h215l-145 -219z" />
    <glyph glyph-name="l" unicode="l" horiz-adv-x="276" 
d="M229 0h-182v730h182v-730z" />
    <glyph glyph-name="m" unicode="m" horiz-adv-x="848" 
d="M801 0h-182v308q0 47 -28 47q-27 0 -52 -34.5t-25 -80.5v-240h-180v308q0 47 -28 47q-27 0 -52 -34.5t-25 -80.5v-240h-182v497h169q0 -35 -5 -67h1q50 79 153 79q105 0 135 -79q21 37 61 58t89 21q151 0 151 -170v-339z" />
    <glyph glyph-name="n" unicode="n" horiz-adv-x="564" 
d="M517 0h-182v314q0 41 -28 41q-30 0 -54 -35.5t-24 -77.5v-242h-182v497h168q0 -39 -5 -66h1q55 78 159 78q77 0 112 -43.5t35 -113.5v-352z" />
    <glyph glyph-name="o" unicode="o" horiz-adv-x="564" 
d="M541 265q0 -122 -72.5 -199.5t-197.5 -77.5q-117 0 -182.5 60t-65.5 184q0 122 72.5 199.5t197.5 77.5q117 0 182.5 -60t65.5 -184zM352 248q0 105 -69 105q-34 0 -52.5 -26.5t-18.5 -77.5q0 -104 69 -104q71 0 71 103z" />
    <glyph glyph-name="p" unicode="p" horiz-adv-x="559" 
d="M229 -233h-182v730h165q0 -34 -2 -56h2q43 68 142 68q87 0 133.5 -62t46.5 -169q0 -132 -67 -209.5t-203 -77.5q-22 0 -35 3v-227zM229 239v-102q20 -4 35 -4q78 0 78 125q0 100 -49 100q-27 0 -45.5 -31t-18.5 -88z" />
    <glyph glyph-name="q" unicode="q" horiz-adv-x="559" 
d="M512 -233h-182v177q0 59 7 108h-2q-38 -65 -125 -65q-91 0 -138 59t-47 172q0 126 73.5 208.5t210.5 82.5q104 0 203 -17v-725zM330 262v99q-24 3 -35 3q-78 0 -78 -125q0 -100 48 -100q27 0 46 31.5t19 91.5z" />
    <glyph glyph-name="r" unicode="r" horiz-adv-x="356" 
d="M351 510l-9 -180q-56 15 -84.5 -14t-28.5 -108v-208h-182v497h168q0 -29 -5 -74h1q48 90 140 87z" />
    <glyph glyph-name="s" unicode="s" horiz-adv-x="405" 
d="M341 502l-6 -139q-41 12 -83 12q-37 0 -37 -20q0 -10 12.5 -19t30.5 -16t40 -19t40 -27.5t30.5 -44t12.5 -65.5q0 -78 -59.5 -127t-172.5 -49q-61 0 -110 12l7 146q52 -20 106 -20q38 0 38 21q0 16 -25.5 29t-56 25t-56 47.5t-25.5 89.5q0 75 57.5 123.5t170.5 48.5
q43 0 86 -8z" />
    <glyph glyph-name="t" unicode="t" horiz-adv-x="380" 
d="M343 145l10 -141q-64 -16 -118 -16q-93 0 -127.5 35.5t-34.5 135.5v198h-63v140h63v140l182 49v-189h93v-140h-93v-171q0 -26 9 -36.5t30 -10.5q25 0 49 6z" />
    <glyph glyph-name="u" unicode="u" horiz-adv-x="562" 
d="M516 0h-168q0 38 5 66h-1q-55 -78 -159 -78q-77 0 -112 43.5t-35 113.5v352h182v-314q0 -41 28 -41q30 0 54 35.5t24 77.5v242h182v-497z" />
    <glyph glyph-name="v" unicode="v" horiz-adv-x="535" 
d="M535 497l-156 -497h-223l-156 497h193l42 -148q24 -84 37 -156h2q17 90 33 156l37 148h191z" />
    <glyph glyph-name="w" unicode="w" horiz-adv-x="800" 
d="M798 497l-145 -497h-200l-31 126q-19 81 -28 136h-1q-9 -55 -28 -136l-31 -126h-188l-144 497h198l26 -109q26 -112 35 -166h2q10 76 33 166l27 109h170l27 -109q24 -95 36 -166h2q9 66 32 166l26 109h182z" />
    <glyph glyph-name="x" unicode="x" horiz-adv-x="542" 
d="M545 0h-225l-54 133l-54 -133h-215l155 253l-144 244h214l58 -131l57 131h199l-132 -245z" />
    <glyph glyph-name="y" unicode="y" horiz-adv-x="534" 
d="M537 497l-175 -505q-45 -130 -115.5 -181.5t-168.5 -51.5l-78 7l18 153q30 -9 64 -9q65 0 84 61l9 29l-175 497h203l29 -101q28 -102 42 -166h2q26 117 40 167l27 100h194z" />
    <glyph glyph-name="z" unicode="z" horiz-adv-x="455" 
d="M413 0h-371v130l144 205q-14 -2 -70 -2h-68v164h362v-131l-138 -200q12 1 80 1h61v-167z" />
    <glyph glyph-name="braceleft" unicode="{" horiz-adv-x="392" 
d="M361 -213h-26q-116 0 -167.5 60.5t-51.5 202.5v77q0 63 -24 87.5t-68 26.5v134q45 2 68.5 24t23.5 84v42q0 141 51.5 200.5t167.5 59.5h26v-147q-46 0 -60.5 -20t-14.5 -93v-42q0 -161 -91 -174v-2q91 -13 91 -180v-76q0 -74 14.5 -95t60.5 -21v-148z" />
    <glyph glyph-name="bar" unicode="|" horiz-adv-x="292" 
d="M215 -233h-145v1000h145v-1000z" />
    <glyph glyph-name="braceright" unicode="}" horiz-adv-x="392" 
d="M31 -213v148q46 0 60.5 21t14.5 95v76q0 167 91 180v2q-91 13 -91 174v42q0 73 -14.5 93t-60.5 20v147h26q116 0 167.5 -59.5t51.5 -200.5v-42q0 -62 23.5 -84t68.5 -24v-134q-44 -2 -68 -26.5t-24 -87.5v-77q0 -142 -51.5 -202.5t-167.5 -60.5h-26z" />
    <glyph glyph-name="asciitilde" unicode="~" 
d="M390 598h135v-30q0 -82 -47 -130.5t-128 -48.5q-40 0 -69.5 15t-42 33t-25.5 33t-25 15q-15 0 -21.5 -15.5t-6.5 -53.5h-135v30q0 82 47 130.5t128 48.5q40 0 69.5 -15t42 -33t25.5 -33t25 -15q15 0 21.5 15.5t6.5 53.5z" />
    <glyph glyph-name="uni00A0" unicode="&#xa0;" horiz-adv-x="218" 
 />
    <glyph glyph-name="exclamdown" unicode="&#xa1;" horiz-adv-x="324" 
d="M260 411q0 -42 -30 -71t-74 -29t-74 29t-30 71t30 71t74 29t74 -29t30 -71zM261 -218h-213l25 499h160z" />
    <glyph glyph-name="cent" unicode="&#xa2;" horiz-adv-x="451" 
d="M338 -22h-134v120q-84 14 -126.5 77t-42.5 156q0 94 44.5 162t124.5 89v108h134v-98q38 -4 66 -12l-17 -151q-32 16 -73 16t-65.5 -27t-24.5 -76q0 -92 86 -92q41 0 81 17l13 -157q-31 -10 -66 -13v-119z" />
    <glyph glyph-name="sterling" unicode="&#xa3;" horiz-adv-x="484" 
d="M465 0h-424v126q72 41 72 108q0 25 -2 37h-82v139h67q-9 66 -9 81q0 99 58.5 149t165.5 50q73 0 121 -15l-30 -148q-34 13 -71 13q-59 0 -59 -56q0 -13 7 -74h111v-139h-95v-21q0 -26 -13 -54t-32 -45q32 7 115 7h100v-158z" />
    <glyph glyph-name="currency" unicode="&#xa4;" 
d="M534 131l-144 -102l-71 96q-28 -5 -55 -5q-12 0 -36 2l-65 -91l-145 100l62 79q-26 44 -26 113q0 68 31 118l-66 87l143 99l67 -91q32 5 58 5q15 0 41 -2l63 90l143 -103l-60 -78q22 -46 22 -110t-32 -117zM340 334q0 41 -15.5 59t-48.5 18q-26 0 -46 -20.5t-20 -60.5
q0 -37 16.5 -58.5t46.5 -21.5q67 0 67 84z" />
    <glyph glyph-name="yen" unicode="&#xa5;" horiz-adv-x="615" 
d="M539 71h-141v-71h-184v71h-141v113h141v41h-141v111h98l-171 339h201l63 -128q24 -50 42 -103h2q15 49 52 118l59 113h196l-173 -339h97v-111h-141v-41h141v-113z" />
    <glyph glyph-name="brokenbar" unicode="&#xa6;" horiz-adv-x="292" 
d="M215 399h-145v368h145v-368zM215 -233h-145v378h145v-378z" />
    <glyph glyph-name="section" unicode="&#xa7;" horiz-adv-x="544" 
d="M493 264q0 -45 -21.5 -85t-53.5 -64q36 -41 36 -105q0 -74 -66.5 -127.5t-211.5 -53.5q-44 0 -89 9l10 152q36 -11 79 -11q41 0 60.5 11t19.5 27q0 19 -22 37.5t-53.5 38.5t-63.5 46t-54 69t-22 98q0 46 20.5 86t53.5 63q-35 41 -35 103q0 80 60.5 131.5t193.5 51.5
q53 0 91 -7l-8 -151q-31 10 -73 10q-67 0 -67 -33q0 -14 16 -30.5t40 -31.5t52 -37.5t52 -48t40 -64.5t16 -84zM332 240q0 15 -4 26t-15.5 23.5t-21.5 21t-33 26.5t-39 32q-16 -16 -16 -40q0 -28 20 -51t93 -77q16 14 16 39z" />
    <glyph glyph-name="dieresis" unicode="&#xa8;" horiz-adv-x="479" 
d="M439 640q0 -38 -26.5 -64.5t-64.5 -26.5t-64.5 26.5t-26.5 64.5t26.5 64.5t64.5 26.5t64.5 -26.5t26.5 -64.5zM222 640q0 -38 -27 -64.5t-64 -26.5t-64 26.5t-27 64.5t27 64.5t64 26.5t64 -26.5t27 -64.5z" />
    <glyph glyph-name="copyright" unicode="&#xa9;" horiz-adv-x="770" 
d="M736 332q0 -146 -103 -248.5t-248 -102.5t-248 102.5t-103 248.5t103 248.5t248 102.5t248 -102.5t103 -248.5zM603 332q0 90 -64 154t-154 64t-154 -64t-64 -154t64 -154t154 -64t154 64t64 154zM460 292l27 -113q-47 -24 -106 -24q-71 0 -117.5 47t-46.5 128
q0 79 46 130t131 51q51 0 87 -18l-22 -115q-15 17 -50 17q-47 0 -47 -64q0 -53 41 -53q33 0 57 14z" />
    <glyph glyph-name="ordfeminine" unicode="&#xaa;" horiz-adv-x="425" 
d="M372 299h-130q0 29 3 43h-1q-13 -25 -40.5 -40t-60.5 -15q-58 0 -87 31t-29 81q0 51 31.5 84t75 45t97.5 11v11q0 27 -49 27q-59 0 -116 -25l-14 112q70 24 153 24q165 0 165 -130v-177zM384 124h-345v140h345v-140zM231 442v11q-38 0 -56 -7t-18 -28q0 -10 7.5 -17
t19.5 -7q20 0 33.5 14.5t13.5 33.5z" />
    <glyph glyph-name="guillemotleft" unicode="&#xab;" horiz-adv-x="570" 
d="M535 146l-145 -62l-112 207l115 209l139 -61l-82 -148zM274 136l-150 -60l-100 215l103 217l144 -59l-75 -158z" />
    <glyph glyph-name="logicalnot" unicode="&#xac;" 
d="M500 84h-163v138h-302v152h465v-290z" />
    <glyph glyph-name="uni00AD" unicode="&#xad;" horiz-adv-x="340" 
d="M300 191h-260v145h260v-145z" />
    <glyph glyph-name="registered" unicode="&#xae;" horiz-adv-x="566" 
d="M537 533q0 -104 -74 -176t-180 -72t-180 72t-74 176t74 176t180 72t180 -72t74 -176zM434 533q0 62 -44.5 106.5t-106.5 44.5t-106.5 -44.5t-44.5 -106.5t44.5 -106.5t106.5 -44.5t106.5 44.5t44.5 106.5zM384 426h-90l-16 70h-11v-70h-77v215h112q81 0 81 -65
q0 -41 -31 -59q6 -6 11 -22zM267 584v-35h7q22 0 22 18q0 17 -21 17h-8z" />
    <glyph glyph-name="macron" unicode="&#xaf;" horiz-adv-x="375" 
d="M335 575h-295v130h295v-130z" />
    <glyph glyph-name="macron" unicode="&#x2c9;" horiz-adv-x="375" 
d="M335 575h-295v130h295v-130z" />
    <glyph glyph-name="degree" unicode="&#xb0;" horiz-adv-x="405" 
d="M370 593q0 -77 -52 -119t-126 -42q-77 0 -121.5 42t-44.5 116q0 72 53.5 115t121.5 43q87 0 128 -43t41 -112zM240 594q0 18 -11 31t-28 13q-20 0 -32.5 -13t-12.5 -34q0 -22 11.5 -34.5t31.5 -12.5t30.5 14t10.5 36z" />
    <glyph glyph-name="plusminus" unicode="&#xb1;" 
d="M515 362h-153v-164h-174v164h-153v150h153v163h174v-163h153v-150zM509 0h-468v152h468v-152z" />
    <glyph glyph-name="twosuperior" unicode="&#xb2;" horiz-adv-x="394" 
d="M362 350h-333v121l42 43q7 8 26 26.5t29 29t22.5 25.5t18.5 28t6 24q0 28 -41 28q-35 0 -81 -16l-19 126q63 22 147 22q176 0 176 -125q0 -38 -12.5 -71t-25.5 -51t-43 -53l-22 -26q31 2 110 2v-133z" />
    <glyph glyph-name="threesuperior" unicode="&#xb3;" horiz-adv-x="389" 
d="M17 354l17 104q27 -9 82 -9q69 0 69 38q0 22 -36.5 33t-99.5 2v101q60 0 93.5 13t33.5 35q0 30 -48 30q-54 0 -91 -17l-14 102q60 21 147 21q172 0 172 -113q0 -67 -53 -97q66 -26 66 -102q0 -72 -57.5 -113t-160.5 -41q-64 0 -120 13z" />
    <glyph glyph-name="acute" unicode="&#xb4;" horiz-adv-x="350" 
d="M310 674l-194 -131l-76 86l178 150z" />
    <glyph glyph-name="mu1" unicode="&#xb5;" horiz-adv-x="577" 
d="M565 139v-142q-40 -9 -70 -9q-68 0 -96 20.5t-37 53.5h-1q-35 -69 -113 -69q-20 0 -36 8l21 -234h-186v730h182v-314q0 -41 28 -41q34 0 56 32t22 85v238h182v-307q0 -31 9 -41t39 -10z" />
    <glyph glyph-name="paragraph" unicode="&#xb6;" horiz-adv-x="622" 
d="M585 527h-57v-623h-214v148h65v623h206v-148zM298 675v-469q-131 0 -195.5 66t-64.5 168q0 111 72 173t188 62z" />
    <glyph glyph-name="periodcentered" unicode="&#xb7;" horiz-adv-x="320" 
d="M270 298q0 -45 -32.5 -77.5t-77.5 -32.5t-77.5 32.5t-32.5 77.5t32.5 77.5t77.5 32.5t77.5 -32.5t32.5 -77.5z" />
    <glyph glyph-name="cedilla" unicode="&#xb8;" horiz-adv-x="261" 
d="M42 -77l146 38q38 -59 32 -107.5t-50 -86.5h-130q34 37 35.5 72t-33.5 84z" />
    <glyph glyph-name="onesuperior" unicode="&#xb9;" horiz-adv-x="325" 
d="M279 350h-175v299l-73 -23l-25 130l121 42h152v-448z" />
    <glyph glyph-name="ordmasculine" unicode="&#xba;" horiz-adv-x="435" 
d="M410 501q0 -94 -54 -153.5t-147 -59.5q-87 0 -135.5 46.5t-48.5 141.5q0 94 54 153.5t147 59.5q87 0 135.5 -46.5t48.5 -141.5zM396 124h-357v140h357v-140zM271 489q0 78 -53 78q-54 0 -54 -79q0 -78 53 -78q54 0 54 79z" />
    <glyph glyph-name="guillemotright" unicode="&#xbb;" horiz-adv-x="570" 
d="M546 293l-103 -217l-144 59l75 158l-78 155l150 60zM292 293l-115 -209l-139 61l82 148l-85 145l145 62z" />
    <glyph glyph-name="onequarter" unicode="&#xbc;" horiz-adv-x="891" 
d="M279 350h-175v299l-73 -23l-25 130l121 42h152v-448zM794 741l-669 -905l-108 75l670 906zM870 -36h-56v-84h-151v84h-199l-10 113l125 251h235v-239h56v-125zM661 87v150l-68 -150h68z" />
    <glyph glyph-name="onehalf" unicode="&#xbd;" horiz-adv-x="880" 
d="M279 350h-175v299l-73 -23l-25 130l121 42h152v-448zM794 741l-669 -905l-108 75l670 906zM848 -120h-333v121l42 43q7 8 26 26.5t29 29t22.5 25.5t18.5 28t6 24q0 28 -41 28q-35 0 -81 -16l-19 126q63 22 147 22q176 0 176 -125q0 -38 -12.5 -71t-25.5 -51t-43 -53
l-22 -26q31 2 110 2v-133z" />
    <glyph glyph-name="threequarters" unicode="&#xbe;" horiz-adv-x="906" 
d="M809 741l-669 -905l-108 75l670 906zM17 354l17 104q27 -9 82 -9q69 0 69 38q0 22 -36.5 33t-99.5 2v101q60 0 93.5 13t33.5 35q0 30 -48 30q-54 0 -91 -17l-14 102q60 21 147 21q172 0 172 -113q0 -67 -53 -97q66 -26 66 -102q0 -72 -57.5 -113t-160.5 -41
q-64 0 -120 13zM885 -36h-56v-84h-151v84h-199l-10 113l125 251h235v-239h56v-125zM676 87v150l-68 -150h68z" />
    <glyph glyph-name="questiondown" unicode="&#xbf;" horiz-adv-x="459" 
d="M368 411q0 -42 -30 -71t-74 -29t-74 29t-30 71t30 71t74 29t74 -29t30 -71zM416 -65l-22 -165q-188 3 -277 66t-89 154q0 47 19 83t44.5 58t50 42.5t35.5 47t1 60.5h178q24 -61 7 -106t-47 -68t-59.5 -49t-29.5 -49q0 -37 47 -54.5t142 -19.5z" />
    <glyph glyph-name="Agrave" unicode="&#xc0;" horiz-adv-x="641" 
d="M651 0h-203l-33 120h-207l-33 -120h-184l202 675h251zM376 266l-39 143q-14 48 -24 108h-2q-8 -49 -24 -108l-39 -143h128zM425 799l-26 -96l-253 49l35 123z" />
    <glyph glyph-name="Aacute" unicode="&#xc1;" horiz-adv-x="641" 
d="M651 0h-203l-33 120h-207l-33 -120h-184l202 675h251zM376 266l-39 143q-14 48 -24 108h-2q-8 -49 -24 -108l-39 -143h128zM483 752l-253 -49l-26 96l244 76z" />
    <glyph glyph-name="Acircumflex" unicode="&#xc2;" horiz-adv-x="641" 
d="M651 0h-203l-33 120h-207l-33 -120h-184l202 675h251zM376 266l-39 143q-14 48 -24 108h-2q-8 -49 -24 -108l-39 -143h128zM492 792l-38 -89l-138 48l-140 -48l-36 87l179 86z" />
    <glyph glyph-name="Atilde" unicode="&#xc3;" horiz-adv-x="641" 
d="M651 0h-203l-33 120h-207l-33 -120h-184l202 675h251zM376 266l-39 143q-14 48 -24 108h-2q-8 -49 -24 -108l-39 -143h128zM431 870l88 -58q-54 -95 -145 -95q-40 0 -74 20t-47 20q-30 0 -51 -39l-88 58q54 95 145 95q39 0 74 -20t47 -20q30 0 51 39z" />
    <glyph glyph-name="Adieresis" unicode="&#xc4;" horiz-adv-x="641" 
d="M651 0h-203l-33 120h-207l-33 -120h-184l202 675h251zM376 266l-39 143q-14 48 -24 108h-2q-8 -49 -24 -108l-39 -143h128zM515 796q0 -38 -26.5 -64.5t-64.5 -26.5t-64.5 26.5t-26.5 64.5t26.5 64.5t64.5 26.5t64.5 -26.5t26.5 -64.5zM297 796q0 -38 -26.5 -64.5
t-64.5 -26.5t-64.5 26.5t-26.5 64.5t26.5 64.5t64.5 26.5t64.5 -26.5t26.5 -64.5z" />
    <glyph glyph-name="Aring" unicode="&#xc5;" horiz-adv-x="641" 
d="M651 0h-203l-33 120h-207l-33 -120h-184l202 675h251zM376 266l-39 143q-14 48 -24 108h-2q-8 -49 -24 -108l-39 -143h128zM476 838q0 -62 -46 -98t-117 -36q-151 0 -151 122q0 62 46 98t117 36q151 0 151 -122zM361 831q0 26 -9.5 37t-31.5 11q-20 0 -31.5 -12.5
t-11.5 -33.5q0 -26 9.5 -37t31.5 -11q20 0 31.5 12.5t11.5 33.5z" />
    <glyph glyph-name="AE" unicode="&#xc6;" horiz-adv-x="821" 
d="M778 0h-402v129h-168l-52 -129h-188l299 675h511v-158h-221v-95h200v-152h-200v-109h221v-161zM376 273v246h-11q-28 -77 -57 -147l-41 -99h109z" />
    <glyph glyph-name="Ccedilla" unicode="&#xc7;" horiz-adv-x="541" 
d="M482 182l25 -166q-69 -25 -160 -25q-76 0 -134.5 20.5t-93 52t-56 75.5t-29 85t-7.5 86q0 171 92 270.5t256 99.5q71 0 130 -18l-23 -170q-48 19 -107 19q-67 0 -105 -44.5t-38 -125.5q0 -180 150 -180q58 0 100 21zM223 -77l146 38q38 -59 32 -107.5t-50 -86.5h-130
q34 37 35.5 72t-33.5 84z" />
    <glyph glyph-name="Egrave" unicode="&#xc8;" horiz-adv-x="506" 
d="M463 0h-415v675h415v-158h-229v-95h208v-152h-208v-109h229v-161zM361 799l-26 -96l-253 49l35 123z" />
    <glyph glyph-name="Eacute" unicode="&#xc9;" horiz-adv-x="506" 
d="M463 0h-415v675h415v-158h-229v-95h208v-152h-208v-109h229v-161zM421 752l-253 -49l-26 96l244 76z" />
    <glyph glyph-name="Ecircumflex" unicode="&#xca;" horiz-adv-x="506" 
d="M463 0h-415v675h415v-158h-229v-95h208v-152h-208v-109h229v-161zM431 792l-38 -89l-138 48l-140 -48l-36 87l179 86z" />
    <glyph glyph-name="Edieresis" unicode="&#xcb;" horiz-adv-x="506" 
d="M463 0h-415v675h415v-158h-229v-95h208v-152h-208v-109h229v-161zM454 796q0 -38 -27 -64.5t-64 -26.5t-64 26.5t-27 64.5t27 64.5t64 26.5t64 -26.5t27 -64.5zM236 796q0 -38 -27 -64.5t-64 -26.5t-64 26.5t-27 64.5t27 64.5t64 26.5t64 -26.5t27 -64.5z" />
    <glyph glyph-name="Igrave" unicode="&#xcc;" horiz-adv-x="282" 
d="M234 0h-186v675h186v-675zM251 799l-26 -96l-253 49l35 123z" />
    <glyph glyph-name="Iacute" unicode="&#xcd;" horiz-adv-x="282" 
d="M234 0h-186v675h186v-675zM310 752l-253 -49l-26 96l244 76z" />
    <glyph glyph-name="Icircumflex" unicode="&#xce;" horiz-adv-x="282" 
d="M234 0h-186v675h186v-675zM317 792l-38 -89l-138 48l-140 -48l-36 87l179 86z" />
    <glyph glyph-name="Idieresis" unicode="&#xcf;" horiz-adv-x="282" 
d="M234 0h-186v675h186v-675zM336 796q0 -38 -27 -64.5t-64 -26.5t-64 26.5t-27 64.5t27 64.5t64 26.5t64 -26.5t27 -64.5zM128 796q0 -38 -27 -64.5t-64 -26.5t-64 26.5t-27 64.5t27 64.5t64 26.5t64 -26.5t27 -64.5z" />
    <glyph glyph-name="Eth" unicode="&#xd0;" horiz-adv-x="661" 
d="M6 273v140h52v260q106 6 243 6q335 0 335 -325q0 -167 -96 -262.5t-268 -96.5q-112 0 -214 6v272h-52zM332 273h-91v-114q13 -3 44 -3q67 0 108.5 46t41.5 137t-29.5 137t-116.5 46q-33 0 -48 -2v-107h91v-140z" />
    <glyph glyph-name="Ntilde" unicode="&#xd1;" horiz-adv-x="686" 
d="M638 0h-237l-137 297q-33 73 -46 126q7 -75 7 -235v-188h-177v675h244l126 -272q32 -68 50 -134q-7 64 -7 240v166h177v-675zM460 870l88 -58q-54 -95 -145 -95q-39 0 -74 20t-47 20q-30 0 -51 -39l-88 58q54 95 145 95q40 0 74 -20t47 -20q30 0 51 39z" />
    <glyph glyph-name="Ograve" unicode="&#xd2;" horiz-adv-x="718" 
d="M693 355q0 -172 -100 -270.5t-246 -98.5q-159 0 -240.5 84.5t-81.5 249.5q0 172 100 270.5t246 98.5q159 0 240.5 -84.5t81.5 -249.5zM493 337q0 182 -134 182q-64 0 -99 -46.5t-35 -134.5q0 -181 134 -181q64 0 99 46t35 134zM473 799l-26 -96l-253 49l35 123z" />
    <glyph glyph-name="Oacute" unicode="&#xd3;" horiz-adv-x="718" 
d="M693 355q0 -172 -100 -270.5t-246 -98.5q-159 0 -240.5 84.5t-81.5 249.5q0 172 100 270.5t246 98.5q159 0 240.5 -84.5t81.5 -249.5zM493 337q0 182 -134 182q-64 0 -99 -46.5t-35 -134.5q0 -181 134 -181q64 0 99 46t35 134zM533 752l-253 -49l-26 96l244 76z" />
    <glyph glyph-name="Ocircumflex" unicode="&#xd4;" horiz-adv-x="718" 
d="M693 355q0 -172 -100 -270.5t-246 -98.5q-159 0 -240.5 84.5t-81.5 249.5q0 172 100 270.5t246 98.5q159 0 240.5 -84.5t81.5 -249.5zM493 337q0 182 -134 182q-64 0 -99 -46.5t-35 -134.5q0 -181 134 -181q64 0 99 46t35 134zM545 792l-38 -89l-138 48l-140 -48l-36 87
l179 86z" />
    <glyph glyph-name="Otilde" unicode="&#xd5;" horiz-adv-x="718" 
d="M693 355q0 -172 -100 -270.5t-246 -98.5q-159 0 -240.5 84.5t-81.5 249.5q0 172 100 270.5t246 98.5q159 0 240.5 -84.5t81.5 -249.5zM493 337q0 182 -134 182q-64 0 -99 -46.5t-35 -134.5q0 -181 134 -181q64 0 99 46t35 134zM476 870l88 -58q-54 -95 -145 -95
q-39 0 -74 20t-47 20q-30 0 -51 -39l-88 58q54 95 145 95q40 0 74 -20t47 -20q30 0 51 39z" />
    <glyph glyph-name="Odieresis" unicode="&#xd6;" horiz-adv-x="718" 
d="M693 355q0 -172 -100 -270.5t-246 -98.5q-159 0 -240.5 84.5t-81.5 249.5q0 172 100 270.5t246 98.5q159 0 240.5 -84.5t81.5 -249.5zM493 337q0 182 -134 182q-64 0 -99 -46.5t-35 -134.5q0 -181 134 -181q64 0 99 46t35 134zM562 796q0 -38 -27 -64.5t-64 -26.5
t-64 26.5t-27 64.5t27 64.5t64 26.5t64 -26.5t27 -64.5zM344 796q0 -38 -27 -64.5t-64 -26.5t-64 26.5t-27 64.5t27 64.5t64 26.5t64 -26.5t27 -64.5z" />
    <glyph glyph-name="multiply" unicode="&#xd7;" 
d="M515 169l-112 -112l-135 135l-134 -135l-99 99l134 135l-134 134l112 112l134 -134l135 134l99 -99l-135 -134z" />
    <glyph glyph-name="Oslash" unicode="&#xd8;" horiz-adv-x="718" 
d="M637 720l-49 -94q105 -83 105 -271q0 -172 -100 -270.5t-246 -98.5q-47 0 -89 8l-51 -97l-126 58l49 94q-105 83 -105 271q0 172 100 270.5t246 98.5q47 0 89 -8l51 97zM496 454l-158 -303q2 0 10 -0.5t11 -0.5q68 0 106 48t38 139q0 26 -3.5 53.5t-5 37t1.5 26.5z
M222 221l158 304q-6 1 -21 1q-68 0 -106 -48.5t-38 -139.5q0 -26 3.5 -53.5t5 -37t-1.5 -26.5z" />
    <glyph glyph-name="Ugrave" unicode="&#xd9;" horiz-adv-x="664" 
d="M616 675v-407q0 -143 -77 -212.5t-217 -69.5q-151 0 -212.5 69t-61.5 189v431h186v-422q0 -57 22 -84t77 -27q56 0 77.5 26t21.5 90v417h184zM411 799l-26 -96l-253 49l35 123z" />
    <glyph glyph-name="Uacute" unicode="&#xda;" horiz-adv-x="664" 
d="M616 675v-407q0 -143 -77 -212.5t-217 -69.5q-151 0 -212.5 69t-61.5 189v431h186v-422q0 -57 22 -84t77 -27q56 0 77.5 26t21.5 90v417h184zM554 752l-253 -49l-26 96l244 76z" />
    <glyph glyph-name="Ucircumflex" unicode="&#xdb;" horiz-adv-x="664" 
d="M616 675v-407q0 -143 -77 -212.5t-217 -69.5q-151 0 -212.5 69t-61.5 189v431h186v-422q0 -57 22 -84t77 -27q56 0 77.5 26t21.5 90v417h184zM510 792l-38 -89l-138 48l-140 -48l-36 87l179 86z" />
    <glyph glyph-name="Udieresis" unicode="&#xdc;" horiz-adv-x="664" 
d="M616 675v-407q0 -143 -77 -212.5t-217 -69.5q-151 0 -212.5 69t-61.5 189v431h186v-422q0 -57 22 -84t77 -27q56 0 77.5 26t21.5 90v417h184zM532 796q0 -38 -27 -64.5t-64 -26.5t-64 26.5t-27 64.5t27 64.5t64 26.5t64 -26.5t27 -64.5zM314 796q0 -38 -27 -64.5
t-64 -26.5t-64 26.5t-27 64.5t27 64.5t64 26.5t64 -26.5t27 -64.5z" />
    <glyph glyph-name="Yacute" unicode="&#xdd;" horiz-adv-x="597" 
d="M604 675l-214 -442v-233h-186v232l-211 443h202l63 -146q24 -55 40 -103h2q12 37 49 118l58 131h197zM509 752l-253 -49l-26 96l244 76z" />
    <glyph glyph-name="Thorn" unicode="&#xde;" horiz-adv-x="558" 
d="M234 0h-186v675h186v-81h33q136 0 208.5 -57.5t72.5 -169.5q0 -111 -74.5 -184.5t-212.5 -73.5l-27 1v-110zM234 440v-175q16 -3 35 -3q41 0 64 23.5t23 65.5q0 90 -94 90z" />
    <glyph glyph-name="germandbls" unicode="&#xdf;" horiz-adv-x="629" 
d="M276 5l8 144q43 -25 91 -25q46 0 46 28q0 16 -15.5 29.5t-37.5 26.5t-44.5 30.5t-38 48.5t-15.5 73q0 38 13 69t28 47.5t28 39t13 46.5q0 37 -47 37q-35 0 -55.5 -27.5t-20.5 -78.5v-493h-182v486q0 128 74 190.5t188 62.5q105 0 170 -43.5t65 -123.5q0 -41 -14 -71
t-30 -44t-30 -33t-14 -40q0 -16 16 -30.5t39 -28.5t45.5 -32.5t38.5 -50.5t16 -74q0 -84 -61.5 -133t-156.5 -49q-74 0 -117 19z" />
    <glyph glyph-name="agrave" unicode="&#xe0;" horiz-adv-x="529" 
d="M484 0h-170q0 40 4 63h-1q-18 -35 -57 -55t-87 -20q-71 0 -109.5 43.5t-38.5 109.5q0 177 271 177v11q0 24 -15 33.5t-50 9.5q-69 0 -151 -30l-26 135q102 33 198 33q128 0 178 -42.5t50 -133.5v-228q0 -69 4 -106zM296 190v15q-56 0 -76.5 -10.5t-20.5 -35.5
q0 -14 9.5 -24t26.5 -10q26 0 43.5 19.5t17.5 45.5zM375 630l-76 -87l-194 129l92 107z" />
    <glyph glyph-name="aacute" unicode="&#xe1;" horiz-adv-x="529" 
d="M484 0h-170q0 40 4 63h-1q-18 -35 -57 -55t-87 -20q-71 0 -109.5 43.5t-38.5 109.5q0 177 271 177v11q0 24 -15 33.5t-50 9.5q-69 0 -151 -30l-26 135q102 33 198 33q128 0 178 -42.5t50 -133.5v-228q0 -69 4 -106zM296 190v15q-56 0 -76.5 -10.5t-20.5 -35.5
q0 -14 9.5 -24t26.5 -10q26 0 43.5 19.5t17.5 45.5zM438 674l-194 -131l-76 86l178 150z" />
    <glyph glyph-name="acircumflex" unicode="&#xe2;" horiz-adv-x="529" 
d="M484 0h-170q0 40 4 63h-1q-18 -35 -57 -55t-87 -20q-71 0 -109.5 43.5t-38.5 109.5q0 177 271 177v11q0 24 -15 33.5t-50 9.5q-69 0 -151 -30l-26 135q102 33 198 33q128 0 178 -42.5t50 -133.5v-228q0 -69 4 -106zM296 190v15q-56 0 -76.5 -10.5t-20.5 -35.5
q0 -14 9.5 -24t26.5 -10q26 0 43.5 19.5t17.5 45.5zM449 627l-66 -83l-108 77l-110 -77l-64 81l176 143z" />
    <glyph glyph-name="atilde" unicode="&#xe3;" horiz-adv-x="529" 
d="M484 0h-170q0 40 4 63h-1q-18 -35 -57 -55t-87 -20q-71 0 -109.5 43.5t-38.5 109.5q0 177 271 177v11q0 24 -15 33.5t-50 9.5q-69 0 -151 -30l-26 135q102 33 198 33q128 0 178 -42.5t50 -133.5v-228q0 -69 4 -106zM296 190v15q-56 0 -76.5 -10.5t-20.5 -35.5
q0 -14 9.5 -24t26.5 -10q26 0 43.5 19.5t17.5 45.5zM386 724l84 -64q-51 -106 -139 -106q-38 0 -71.5 22.5t-45.5 22.5q-28 0 -49 -43l-84 64q51 106 139 106q38 0 71.5 -22.5t45.5 -22.5q16 0 27 10t22 33z" />
    <glyph glyph-name="adieresis" unicode="&#xe4;" horiz-adv-x="529" 
d="M484 0h-170q0 40 4 63h-1q-18 -35 -57 -55t-87 -20q-71 0 -109.5 43.5t-38.5 109.5q0 177 271 177v11q0 24 -15 33.5t-50 9.5q-69 0 -151 -30l-26 135q102 33 198 33q128 0 178 -42.5t50 -133.5v-228q0 -69 4 -106zM296 190v15q-56 0 -76.5 -10.5t-20.5 -35.5
q0 -14 9.5 -24t26.5 -10q26 0 43.5 19.5t17.5 45.5zM474 640q0 -38 -27 -64.5t-64 -26.5t-64 26.5t-27 64.5t27 64.5t64 26.5t64 -26.5t27 -64.5zM257 640q0 -38 -26.5 -64.5t-64.5 -26.5t-64.5 26.5t-26.5 64.5t26.5 64.5t64.5 26.5t64.5 -26.5t26.5 -64.5z" />
    <glyph glyph-name="aring" unicode="&#xe5;" horiz-adv-x="529" 
d="M484 0h-170q0 40 4 63h-1q-18 -35 -57 -55t-87 -20q-71 0 -109.5 43.5t-38.5 109.5q0 177 271 177v11q0 24 -15 33.5t-50 9.5q-69 0 -151 -30l-26 135q102 33 198 33q128 0 178 -42.5t50 -133.5v-228q0 -69 4 -106zM296 190v15q-56 0 -76.5 -10.5t-20.5 -35.5
q0 -14 9.5 -24t26.5 -10q26 0 43.5 19.5t17.5 45.5zM428 683q0 -65 -45.5 -104.5t-113.5 -39.5q-147 0 -147 130q0 65 45.5 104.5t113.5 39.5q147 0 147 -130zM317 675q0 29 -9.5 40.5t-31.5 11.5q-20 0 -31.5 -13.5t-11.5 -36.5q0 -29 9.5 -40.5t31.5 -11.5q20 0 31.5 13.5
t11.5 36.5z" />
    <glyph glyph-name="ae" unicode="&#xe6;" horiz-adv-x="791" 
d="M729 152l16 -133q-89 -31 -190 -31q-157 0 -204 84h-1q-51 -84 -170 -84q-76 0 -115.5 43.5t-39.5 109.5q0 177 271 177v11q0 24 -15 33.5t-50 9.5q-69 0 -151 -30l-26 135q102 33 198 33q106 0 156 -39h1q48 38 135 38q110 0 164.5 -60t54.5 -161l-6 -97h-282
q5 -64 100 -64q74 0 154 25zM474 309h112q3 68 -51 68q-26 0 -42.5 -18.5t-18.5 -49.5zM296 190v15q-56 0 -76.5 -10.5t-20.5 -35.5q0 -14 9.5 -24t26.5 -10q26 0 43.5 19.5t17.5 45.5z" />
    <glyph glyph-name="ccedilla" unicode="&#xe7;" horiz-adv-x="409" 
d="M364 161l20 -154q-51 -19 -126 -19q-234 0 -234 245q0 119 68 197.5t202 78.5q48 0 90 -13l-25 -158q-34 14 -64 14q-80 0 -80 -107q0 -48 21 -73t59 -25q40 0 69 14zM137 -77l146 38q38 -59 32 -107.5t-50 -86.5h-130q34 37 35.5 72t-33.5 84z" />
    <glyph glyph-name="egrave" unicode="&#xe8;" horiz-adv-x="524" 
d="M462 152l16 -133q-89 -31 -190 -31q-264 0 -264 254q0 116 68.5 191.5t184.5 75.5q110 0 164.5 -60t54.5 -161l-6 -97h-282q5 -64 100 -64q74 0 154 25zM207 309h112q3 68 -51 68q-26 0 -42.5 -18.5t-18.5 -49.5zM376 630l-76 -87l-194 129l92 107z" />
    <glyph glyph-name="eacute" unicode="&#xe9;" horiz-adv-x="524" 
d="M462 152l16 -133q-89 -31 -190 -31q-264 0 -264 254q0 116 68.5 191.5t184.5 75.5q110 0 164.5 -60t54.5 -161l-6 -97h-282q5 -64 100 -64q74 0 154 25zM207 309h112q3 68 -51 68q-26 0 -42.5 -18.5t-18.5 -49.5zM439 674l-194 -131l-76 86l178 150z" />
    <glyph glyph-name="ecircumflex" unicode="&#xea;" horiz-adv-x="524" 
d="M462 152l16 -133q-89 -31 -190 -31q-264 0 -264 254q0 116 68.5 191.5t184.5 75.5q110 0 164.5 -60t54.5 -161l-6 -97h-282q5 -64 100 -64q74 0 154 25zM207 309h112q3 68 -51 68q-26 0 -42.5 -18.5t-18.5 -49.5zM447 627l-66 -83l-108 77l-110 -77l-64 81l176 143z" />
    <glyph glyph-name="edieresis" unicode="&#xeb;" horiz-adv-x="524" 
d="M462 152l16 -133q-89 -31 -190 -31q-264 0 -264 254q0 116 68.5 191.5t184.5 75.5q110 0 164.5 -60t54.5 -161l-6 -97h-282q5 -64 100 -64q74 0 154 25zM207 309h112q3 68 -51 68q-26 0 -42.5 -18.5t-18.5 -49.5zM472 640q0 -38 -27 -64.5t-64 -26.5t-64 26.5t-27 64.5
t27 64.5t64 26.5t64 -26.5t27 -64.5zM255 640q0 -38 -26.5 -64.5t-64.5 -26.5t-64.5 26.5t-26.5 64.5t26.5 64.5t64.5 26.5t64.5 -26.5t26.5 -64.5z" />
    <glyph glyph-name="igrave" unicode="&#xec;" horiz-adv-x="276" 
d="M229 0h-182v497h182v-497zM229 597l-104 -57l-127 179l126 68z" />
    <glyph glyph-name="iacute" unicode="&#xed;" horiz-adv-x="276" 
d="M229 0h-182v497h182v-497zM284 706l-148 -164l-96 68l127 177z" />
    <glyph glyph-name="icircumflex" unicode="&#xee;" horiz-adv-x="276" 
d="M229 0h-182v497h182v-497zM292 627l-61 -83l-93 77l-95 -77l-59 81l155 143z" />
    <glyph glyph-name="idieresis" unicode="&#xef;" horiz-adv-x="276" 
d="M229 0h-182v497h182v-497zM329 640q0 -38 -26.5 -64.5t-64.5 -26.5t-64.5 26.5t-26.5 64.5t26.5 64.5t64.5 26.5t64.5 -26.5t26.5 -64.5zM129 640q0 -38 -26.5 -64.5t-64.5 -26.5t-64.5 26.5t-26.5 64.5t26.5 64.5t64.5 26.5t64.5 -26.5t26.5 -64.5z" />
    <glyph glyph-name="eth" unicode="&#xf0;" horiz-adv-x="567" 
d="M489 662l-72 -30q122 -152 122 -346q0 -143 -75 -220.5t-189 -77.5t-182.5 61.5t-68.5 184.5q0 126 72 198.5t176 72.5q27 0 42 -9l-17 25q-14 22 -37 45l-79 -34l-71 79l68 29q-30 23 -68 45l176 74q35 -26 59 -49l73 31zM349 260q0 93 -68 93q-30 0 -49 -26.5
t-19 -77.5t19 -77t52 -26q65 0 65 114z" />
    <glyph glyph-name="ntilde" unicode="&#xf1;" horiz-adv-x="564" 
d="M517 0h-182v314q0 41 -28 41q-30 0 -54 -35.5t-24 -77.5v-242h-182v497h168q0 -39 -5 -66h1q55 78 159 78q77 0 112 -43.5t35 -113.5v-352zM394 724l84 -64q-51 -106 -139 -106q-38 0 -71.5 22.5t-45.5 22.5q-28 0 -49 -43l-84 64q51 106 139 106q38 0 71.5 -22.5
t45.5 -22.5q16 0 27 10t22 33z" />
    <glyph glyph-name="ograve" unicode="&#xf2;" horiz-adv-x="564" 
d="M541 265q0 -122 -72.5 -199.5t-197.5 -77.5q-117 0 -182.5 60t-65.5 184q0 122 72.5 199.5t197.5 77.5q117 0 182.5 -60t65.5 -184zM352 248q0 105 -69 105q-34 0 -52.5 -26.5t-18.5 -77.5q0 -104 69 -104q71 0 71 103zM386 630l-76 -87l-194 129l92 107z" />
    <glyph glyph-name="oacute" unicode="&#xf3;" horiz-adv-x="564" 
d="M541 265q0 -122 -72.5 -199.5t-197.5 -77.5q-117 0 -182.5 60t-65.5 184q0 122 72.5 199.5t197.5 77.5q117 0 182.5 -60t65.5 -184zM352 248q0 105 -69 105q-34 0 -52.5 -26.5t-18.5 -77.5q0 -104 69 -104q71 0 71 103zM448 674l-194 -131l-76 86l178 150z" />
    <glyph glyph-name="ocircumflex" unicode="&#xf4;" horiz-adv-x="564" 
d="M541 265q0 -122 -72.5 -199.5t-197.5 -77.5q-117 0 -182.5 60t-65.5 184q0 122 72.5 199.5t197.5 77.5q117 0 182.5 -60t65.5 -184zM352 248q0 105 -69 105q-34 0 -52.5 -26.5t-18.5 -77.5q0 -104 69 -104q71 0 71 103zM467 627l-66 -83l-108 77l-110 -77l-64 81l176 143
z" />
    <glyph glyph-name="otilde" unicode="&#xf5;" horiz-adv-x="564" 
d="M541 265q0 -122 -72.5 -199.5t-197.5 -77.5q-117 0 -182.5 60t-65.5 184q0 122 72.5 199.5t197.5 77.5q117 0 182.5 -60t65.5 -184zM352 248q0 105 -69 105q-34 0 -52.5 -26.5t-18.5 -77.5q0 -104 69 -104q71 0 71 103zM404 724l84 -64q-51 -106 -139 -106
q-38 0 -71.5 22.5t-45.5 22.5q-28 0 -49 -43l-84 64q51 106 139 106q38 0 71.5 -22.5t45.5 -22.5q16 0 27 10t22 33z" />
    <glyph glyph-name="odieresis" unicode="&#xf6;" horiz-adv-x="564" 
d="M541 265q0 -122 -72.5 -199.5t-197.5 -77.5q-117 0 -182.5 60t-65.5 184q0 122 72.5 199.5t197.5 77.5q117 0 182.5 -60t65.5 -184zM352 248q0 105 -69 105q-34 0 -52.5 -26.5t-18.5 -77.5q0 -104 69 -104q71 0 71 103zM492 640q0 -38 -27 -64.5t-64 -26.5t-64 26.5
t-27 64.5t27 64.5t64 26.5t64 -26.5t27 -64.5zM275 640q0 -38 -26.5 -64.5t-64.5 -26.5t-64.5 26.5t-26.5 64.5t26.5 64.5t64.5 26.5t64.5 -26.5t26.5 -64.5z" />
    <glyph glyph-name="divide" unicode="&#xf7;" 
d="M379 498q0 -43 -30.5 -73.5t-73.5 -30.5t-73.5 30.5t-30.5 73.5t30.5 73.5t73.5 30.5t73.5 -30.5t30.5 -73.5zM515 222h-480v152h480v-152zM379 98q0 -43 -30.5 -73.5t-73.5 -30.5t-73.5 30.5t-30.5 73.5t30.5 73.5t73.5 30.5t73.5 -30.5t30.5 -73.5z" />
    <glyph glyph-name="oslash" unicode="&#xf8;" horiz-adv-x="564" 
d="M503 558l-49 -92q87 -61 87 -201q0 -122 -72.5 -199.5t-197.5 -77.5q-37 0 -67 6l-50 -94l-93 39l49 92q-87 61 -87 201q0 122 72.5 199.5t197.5 77.5q37 0 67 -6l50 94zM373 313l-98 -185q3 3 4 3q90 0 90 118q0 56 4 64zM191 184l98 185q-3 -3 -4 -3q-90 0 -90 -118
q0 -56 -4 -64z" />
    <glyph glyph-name="ugrave" unicode="&#xf9;" horiz-adv-x="562" 
d="M516 0h-168q0 38 5 66h-1q-55 -78 -159 -78q-77 0 -112 43.5t-35 113.5v352h182v-314q0 -41 28 -41q30 0 54 35.5t24 77.5v242h182v-497zM376 630l-76 -87l-194 129l92 107z" />
    <glyph glyph-name="uacute" unicode="&#xfa;" horiz-adv-x="562" 
d="M516 0h-168q0 38 5 66h-1q-55 -78 -159 -78q-77 0 -112 43.5t-35 113.5v352h182v-314q0 -41 28 -41q30 0 54 35.5t24 77.5v242h182v-497zM459 674l-194 -131l-76 86l178 150z" />
    <glyph glyph-name="ucircumflex" unicode="&#xfb;" horiz-adv-x="562" 
d="M516 0h-168q0 38 5 66h-1q-55 -78 -159 -78q-77 0 -112 43.5t-35 113.5v352h182v-314q0 -41 28 -41q30 0 54 35.5t24 77.5v242h182v-497zM455 627l-66 -83l-108 77l-110 -77l-64 81l176 143z" />
    <glyph glyph-name="udieresis" unicode="&#xfc;" horiz-adv-x="562" 
d="M516 0h-168q0 38 5 66h-1q-55 -78 -159 -78q-77 0 -112 43.5t-35 113.5v352h182v-314q0 -41 28 -41q30 0 54 35.5t24 77.5v242h182v-497zM481 640q0 -38 -26.5 -64.5t-64.5 -26.5t-64.5 26.5t-26.5 64.5t26.5 64.5t64.5 26.5t64.5 -26.5t26.5 -64.5zM264 640
q0 -38 -27 -64.5t-64 -26.5t-64 26.5t-27 64.5t27 64.5t64 26.5t64 -26.5t27 -64.5z" />
    <glyph glyph-name="yacute" unicode="&#xfd;" horiz-adv-x="534" 
d="M537 497l-175 -505q-45 -130 -115.5 -181.5t-168.5 -51.5l-78 7l18 153q30 -9 64 -9q65 0 84 61l9 29l-175 497h203l29 -101q28 -102 42 -166h2q26 117 40 167l27 100h194zM458 674l-194 -131l-76 86l178 150z" />
    <glyph glyph-name="thorn" unicode="&#xfe;" horiz-adv-x="559" 
d="M229 -233h-182v963h182v-182q0 -56 -4 -90h2q42 51 127 51q87 0 133.5 -62t46.5 -169q0 -132 -67 -209.5t-203 -77.5q-22 0 -35 3v-227zM229 239v-102q20 -4 35 -4q78 0 78 125q0 100 -49 100q-27 0 -45.5 -31t-18.5 -88z" />
    <glyph glyph-name="ydieresis" unicode="&#xff;" horiz-adv-x="534" 
d="M537 497l-175 -505q-45 -130 -115.5 -181.5t-168.5 -51.5l-78 7l18 153q30 -9 64 -9q65 0 84 61l9 29l-175 497h203l29 -101q28 -102 42 -166h2q26 117 40 167l27 100h194zM472 640q0 -38 -27 -64.5t-64 -26.5t-64 26.5t-27 64.5t27 64.5t64 26.5t64 -26.5t27 -64.5z
M255 640q0 -38 -26.5 -64.5t-64.5 -26.5t-64.5 26.5t-26.5 64.5t26.5 64.5t64.5 26.5t64.5 -26.5t26.5 -64.5z" />
    <glyph glyph-name="Amacron" unicode="&#x100;" horiz-adv-x="641" 
d="M651 0h-203l-33 120h-207l-33 -120h-184l202 675h251zM376 266l-39 143q-14 48 -24 108h-2q-8 -49 -24 -108l-39 -143h128zM471 731h-318v109h318v-109z" />
    <glyph glyph-name="amacron" unicode="&#x101;" horiz-adv-x="529" 
d="M484 0h-170q0 40 4 63h-1q-18 -35 -57 -55t-87 -20q-71 0 -109.5 43.5t-38.5 109.5q0 177 271 177v11q0 24 -15 33.5t-50 9.5q-69 0 -151 -30l-26 135q102 33 198 33q128 0 178 -42.5t50 -133.5v-228q0 -69 4 -106zM296 190v15q-56 0 -76.5 -10.5t-20.5 -35.5
q0 -14 9.5 -24t26.5 -10q26 0 43.5 19.5t17.5 45.5zM422 575h-295v130h295v-130z" />
    <glyph glyph-name="Abreve" unicode="&#x102;" horiz-adv-x="641" 
d="M651 0h-203l-33 120h-207l-33 -120h-184l202 675h251zM376 266l-39 143q-14 48 -24 108h-2q-8 -49 -24 -108l-39 -143h128zM373 869h103q0 -67 -41.5 -112t-119.5 -45q-75 0 -117 45.5t-42 111.5h102q0 -22 16.5 -36.5t41.5 -14.5q26 0 41.5 14.5t15.5 36.5z" />
    <glyph glyph-name="abreve" unicode="&#x103;" horiz-adv-x="529" 
d="M484 0h-170q0 40 4 63h-1q-18 -35 -57 -55t-87 -20q-71 0 -109.5 43.5t-38.5 109.5q0 177 271 177v11q0 24 -15 33.5t-50 9.5q-69 0 -151 -30l-26 135q102 33 198 33q128 0 178 -42.5t50 -133.5v-228q0 -69 4 -106zM296 190v15q-56 0 -76.5 -10.5t-20.5 -35.5
q0 -14 9.5 -24t26.5 -10q26 0 43.5 19.5t17.5 45.5zM315 724h114q0 -78 -38.5 -129t-116.5 -51t-115 51.5t-37 128.5h113q0 -53 40 -53t40 53z" />
    <glyph glyph-name="Aogonek" unicode="&#x104;" horiz-adv-x="641" 
d="M646 -87l46 -96q-65 -58 -157 -58q-67 0 -108 30.5t-41 86.5q0 69 62 124l-33 120h-207l-33 -120h-184l202 675h251l207 -675q-52 -14 -75 -36.5t-23 -47.5t29 -25t64 22zM376 266l-39 143q-14 48 -24 108h-2q-8 -49 -24 -108l-39 -143h128z" />
    <glyph glyph-name="aogonek" unicode="&#x105;" horiz-adv-x="529" 
d="M501 -87l46 -96q-65 -58 -157 -58q-67 0 -108 30.5t-41 86.5q0 73 77 137q-3 23 -3 46h-1q-19 -34 -56.5 -52.5t-84.5 -18.5q-71 0 -109.5 43.5t-38.5 109.5q0 177 271 177v11q0 24 -15 33.5t-50 9.5q-69 0 -151 -30l-26 135q102 33 198 33q128 0 178 -42.5t50 -133.5
v-188q0 -96 7 -146q-79 -37 -79 -84q0 -25 29 -25t64 22zM296 190v15q-56 0 -76.5 -10.5t-20.5 -35.5q0 -14 9.5 -24t26.5 -10q26 0 43.5 19.5t17.5 45.5z" />
    <glyph glyph-name="Cacute" unicode="&#x106;" horiz-adv-x="541" 
d="M482 182l25 -166q-69 -25 -160 -25q-76 0 -134.5 20.5t-93 52t-56 75.5t-29 85t-7.5 86q0 171 92 270.5t256 99.5q71 0 130 -18l-23 -170q-48 19 -107 19q-67 0 -105 -44.5t-38 -125.5q0 -180 150 -180q58 0 100 21zM502 752l-253 -49l-26 96l244 76z" />
    <glyph glyph-name="cacute" unicode="&#x107;" horiz-adv-x="409" 
d="M364 161l20 -154q-51 -19 -126 -19q-234 0 -234 245q0 119 68 197.5t202 78.5q48 0 90 -13l-25 -158q-34 14 -64 14q-80 0 -80 -107q0 -48 21 -73t59 -25q40 0 69 14zM398 674l-194 -131l-76 86l178 150z" />
    <glyph glyph-name="Ccircumflex" unicode="&#x108;" horiz-adv-x="541" 
d="M482 182l25 -166q-69 -25 -160 -25q-76 0 -134.5 20.5t-93 52t-56 75.5t-29 85t-7.5 86q0 171 92 270.5t256 99.5q71 0 130 -18l-23 -170q-48 19 -107 19q-67 0 -105 -44.5t-38 -125.5q0 -180 150 -180q58 0 100 21zM505 792l-38 -89l-138 48l-140 -48l-36 87l179 86z
" />
    <glyph glyph-name="ccircumflex" unicode="&#x109;" horiz-adv-x="409" 
d="M364 161l20 -154q-51 -19 -126 -19q-234 0 -234 245q0 119 68 197.5t202 78.5q48 0 90 -13l-25 -158q-34 14 -64 14q-80 0 -80 -107q0 -48 21 -73t59 -25q40 0 69 14zM411 627l-66 -83l-108 77l-110 -77l-64 81l176 143z" />
    <glyph glyph-name="Cdotaccent" unicode="&#x10a;" horiz-adv-x="541" 
d="M482 182l25 -166q-69 -25 -160 -25q-76 0 -134.5 20.5t-93 52t-56 75.5t-29 85t-7.5 86q0 171 92 270.5t256 99.5q71 0 130 -18l-23 -170q-48 19 -107 19q-67 0 -105 -44.5t-38 -125.5q0 -180 150 -180q58 0 100 21zM441 806q0 -43 -30 -73t-73 -30t-73 30t-30 73t30 73
t73 30t73 -30t30 -73z" />
    <glyph glyph-name="cdotaccent" unicode="&#x10b;" horiz-adv-x="409" 
d="M364 161l20 -154q-51 -19 -126 -19q-234 0 -234 245q0 119 68 197.5t202 78.5q48 0 90 -13l-25 -158q-34 14 -64 14q-80 0 -80 -107q0 -48 21 -73t59 -25q40 0 69 14zM358 638q0 -43 -30 -73t-73 -30t-73 30t-30 73t30 73t73 30t73 -30t30 -73z" />
    <glyph glyph-name="Ccaron" unicode="&#x10c;" horiz-adv-x="541" 
d="M482 182l25 -166q-69 -25 -160 -25q-76 0 -134.5 20.5t-93 52t-56 75.5t-29 85t-7.5 86q0 171 92 270.5t256 99.5q71 0 130 -18l-23 -170q-48 19 -107 19q-67 0 -105 -44.5t-38 -125.5q0 -180 150 -180q58 0 100 21zM506 789l-179 -86l-173 84l38 89l138 -48l140 48z" />
    <glyph glyph-name="ccaron" unicode="&#x10d;" horiz-adv-x="409" 
d="M364 161l20 -154q-51 -19 -126 -19q-234 0 -234 245q0 119 68 197.5t202 78.5q48 0 90 -13l-25 -158q-34 14 -64 14q-80 0 -80 -107q0 -48 21 -73t59 -25q40 0 69 14zM418 687l-176 -143l-172 141l66 83l108 -77l110 77z" />
    <glyph glyph-name="Dcaron" unicode="&#x10e;" horiz-adv-x="651" 
d="M48 1v672q106 6 243 6q335 0 335 -325q0 -171 -98.5 -265t-265.5 -94q-112 0 -214 6zM234 520v-361q12 -3 43 -3q66 0 107 46.5t41 136.5t-29 136.5t-115 46.5q-33 0 -47 -2zM460 789l-179 -86l-173 84l38 89l138 -48l140 48z" />
    <glyph glyph-name="dcaron" unicode="&#x10f;" horiz-adv-x="643" 
d="M512 0h-165q0 34 3 56h-2q-46 -69 -143 -69q-87 0 -133.5 62.5t-46.5 169.5q0 124 72.5 207t199.5 83q15 0 33 -2v223h182v-730zM330 258v102q-15 4 -35 4q-78 0 -78 -125q0 -100 49 -100q27 0 45.5 31t18.5 88zM712 772l-69 -236l-115 21l43 240z" />
    <glyph glyph-name="Dcroat" unicode="&#x110;" horiz-adv-x="661" 
d="M6 273v140h52v260q106 6 243 6q335 0 335 -325q0 -167 -96 -262.5t-268 -96.5q-112 0 -214 6v272h-52zM332 273h-91v-114q13 -3 44 -3q67 0 108.5 46t41.5 137t-29.5 137t-116.5 46q-33 0 -48 -2v-107h91v-140z" />
    <glyph glyph-name="dcroat" unicode="&#x111;" horiz-adv-x="559" 
d="M559 570h-47v-570h-165q0 34 3 56h-2q-46 -69 -143 -69q-87 0 -133.5 62.5t-46.5 169.5q0 124 72.5 207t199.5 83q15 0 33 -2v63h-89v109h89v51h182v-51h47v-109zM330 258v102q-15 4 -35 4q-78 0 -78 -125q0 -100 49 -100q27 0 45.5 31t18.5 88z" />
    <glyph glyph-name="Emacron" unicode="&#x112;" horiz-adv-x="506" 
d="M463 0h-415v675h415v-158h-229v-95h208v-152h-208v-109h229v-161zM411 731h-318v109h318v-109z" />
    <glyph glyph-name="emacron" unicode="&#x113;" horiz-adv-x="524" 
d="M462 152l16 -133q-89 -31 -190 -31q-264 0 -264 254q0 116 68.5 191.5t184.5 75.5q110 0 164.5 -60t54.5 -161l-6 -97h-282q5 -64 100 -64q74 0 154 25zM207 309h112q3 68 -51 68q-26 0 -42.5 -18.5t-18.5 -49.5zM418 575h-295v130h295v-130z" />
    <glyph glyph-name="Ebreve" unicode="&#x114;" horiz-adv-x="506" 
d="M463 0h-415v675h415v-158h-229v-95h208v-152h-208v-109h229v-161zM314 869h103q0 -67 -41.5 -112t-119.5 -45q-75 0 -117 45.5t-42 111.5h102q0 -22 16.5 -36.5t41.5 -14.5q26 0 41.5 14.5t15.5 36.5z" />
    <glyph glyph-name="ebreve" unicode="&#x115;" horiz-adv-x="524" 
d="M462 152l16 -133q-89 -31 -190 -31q-264 0 -264 254q0 116 68.5 191.5t184.5 75.5q110 0 164.5 -60t54.5 -161l-6 -97h-282q5 -64 100 -64q74 0 154 25zM207 309h112q3 68 -51 68q-26 0 -42.5 -18.5t-18.5 -49.5zM305 724h114q0 -78 -38.5 -129t-116.5 -51t-115 51.5
t-37 128.5h113q0 -53 40 -53t40 53z" />
    <glyph glyph-name="Edotaccent" unicode="&#x116;" horiz-adv-x="506" 
d="M463 0h-415v675h415v-158h-229v-95h208v-152h-208v-109h229v-161zM357 806q0 -43 -30 -73t-73 -30t-73 30t-30 73t30 73t73 30t73 -30t30 -73z" />
    <glyph glyph-name="edotaccent" unicode="&#x117;" horiz-adv-x="524" 
d="M462 152l16 -133q-89 -31 -190 -31q-264 0 -264 254q0 116 68.5 191.5t184.5 75.5q110 0 164.5 -60t54.5 -161l-6 -97h-282q5 -64 100 -64q74 0 154 25zM207 309h112q3 68 -51 68q-26 0 -42.5 -18.5t-18.5 -49.5zM376 648q0 -43 -30 -73t-73 -30t-73 30t-30 73t30 73
t73 30t73 -30t30 -73z" />
    <glyph glyph-name="Eogonek" unicode="&#x118;" horiz-adv-x="506" 
d="M450 -87l46 -96q-65 -58 -158 -58q-67 0 -107.5 30.5t-40.5 86.5q0 78 69 124h-211v675h415v-158h-229v-95h208v-152h-208v-109h229v-159q-55 -11 -80.5 -36.5t-25.5 -49.5q0 -25 29 -25t64 22z" />
    <glyph glyph-name="eogonek" unicode="&#x119;" horiz-adv-x="524" 
d="M462 152l16 -132q-100 -47 -100 -104q0 -25 29 -25t64 22l46 -96q-65 -58 -157 -58q-67 0 -108 30.5t-41 86.5q0 69 58 119q-9 -3 -19 -3q-29 0 -56.5 5.5t-59.5 22t-55.5 43t-39 73t-15.5 106.5q0 116 68.5 191.5t184.5 75.5q110 0 164.5 -60t54.5 -161l-6 -97h-282
q5 -64 100 -64q74 0 154 25zM207 309h112q3 68 -51 68q-26 0 -42.5 -18.5t-18.5 -49.5z" />
    <glyph glyph-name="Ecaron" unicode="&#x11a;" horiz-adv-x="506" 
d="M463 0h-415v675h415v-158h-229v-95h208v-152h-208v-109h229v-161zM431 789l-179 -86l-173 84l38 89l138 -48l140 48z" />
    <glyph glyph-name="ecaron" unicode="&#x11b;" horiz-adv-x="524" 
d="M462 152l16 -133q-89 -31 -190 -31q-264 0 -264 254q0 116 68.5 191.5t184.5 75.5q110 0 164.5 -60t54.5 -161l-6 -97h-282q5 -64 100 -64q74 0 154 25zM207 309h112q3 68 -51 68q-26 0 -42.5 -18.5t-18.5 -49.5zM446 687l-176 -143l-172 141l66 83l108 -77l110 77z" />
    <glyph glyph-name="Gcircumflex" unicode="&#x11c;" horiz-adv-x="664" 
d="M617 368v-333q-105 -47 -243 -47q-172 0 -260 86t-88 236q0 175 103 275.5t289 100.5q107 0 198 -28l-36 -170q-77 30 -169 30t-137.5 -50t-45.5 -136q0 -82 41 -128t124 -46q21 0 38 5v205h186zM558 792l-38 -89l-138 48l-140 -48l-36 87l179 86z" />
    <glyph glyph-name="gcircumflex" unicode="&#x11d;" horiz-adv-x="548" 
d="M526 354h-46q1 -4 1 -12q0 -88 -57.5 -138t-171.5 -50h-6q-8 -8 -8 -18t11.5 -14.5t50.5 -5.5l56 -2q172 -6 172 -151q0 -86 -77.5 -147t-206.5 -61q-107 0 -167 36t-60 108q0 68 71 109l1 1q-44 26 -44 78q0 68 63 98q-75 42 -75 135q0 86 58 138t171 52q52 0 98 -13
h166v-143zM238 -21q-2 0 -7 0.5t-8 0.5v-1q-23 -19 -23 -44q0 -21 18.5 -34t53.5 -13q39 0 58.5 14.5t19.5 36.5q0 37 -45 38zM310 329q0 23 -13.5 37t-39.5 14q-25 0 -39 -13.5t-14 -37.5q0 -23 13.5 -37t39.5 -14q25 0 39 13.5t14 37.5zM437 627l-66 -83l-108 77l-110 -77
l-64 81l176 143z" />
    <glyph glyph-name="Gbreve" unicode="&#x11e;" horiz-adv-x="664" 
d="M617 368v-333q-105 -47 -243 -47q-172 0 -260 86t-88 236q0 175 103 275.5t289 100.5q107 0 198 -28l-36 -170q-77 30 -169 30t-137.5 -50t-45.5 -136q0 -82 41 -128t124 -46q21 0 38 5v205h186zM453 869h103q0 -67 -41.5 -112t-119.5 -45q-75 0 -117 45.5t-42 111.5h102
q0 -22 16.5 -36.5t41.5 -14.5q26 0 41.5 14.5t15.5 36.5z" />
    <glyph glyph-name="gbreve" unicode="&#x11f;" horiz-adv-x="548" 
d="M526 354h-46q1 -4 1 -12q0 -88 -57.5 -138t-171.5 -50h-6q-8 -8 -8 -18t11.5 -14.5t50.5 -5.5l56 -2q172 -6 172 -151q0 -86 -77.5 -147t-206.5 -61q-107 0 -167 36t-60 108q0 68 71 109l1 1q-44 26 -44 78q0 68 63 98q-75 42 -75 135q0 86 58 138t171 52q52 0 98 -13
h166v-143zM238 -21q-2 0 -7 0.5t-8 0.5v-1q-23 -19 -23 -44q0 -21 18.5 -34t53.5 -13q39 0 58.5 14.5t19.5 36.5q0 37 -45 38zM310 329q0 23 -13.5 37t-39.5 14q-25 0 -39 -13.5t-14 -37.5q0 -23 13.5 -37t39.5 -14q25 0 39 13.5t14 37.5zM311 724h114q0 -78 -38.5 -129
t-116.5 -51t-115 51.5t-37 128.5h113q0 -53 40 -53t40 53z" />
    <glyph glyph-name="Gdotaccent" unicode="&#x120;" horiz-adv-x="664" 
d="M617 368v-333q-105 -47 -243 -47q-172 0 -260 86t-88 236q0 175 103 275.5t289 100.5q107 0 198 -28l-36 -170q-77 30 -169 30t-137.5 -50t-45.5 -136q0 -82 41 -128t124 -46q21 0 38 5v205h186zM491 816q0 -43 -30 -73t-73 -30t-73 30t-30 73t30 73t73 30t73 -30t30 -73
z" />
    <glyph glyph-name="gdotaccent" unicode="&#x121;" horiz-adv-x="548" 
d="M526 354h-46q1 -4 1 -12q0 -88 -57.5 -138t-171.5 -50h-6q-8 -8 -8 -18t11.5 -14.5t50.5 -5.5l56 -2q172 -6 172 -151q0 -86 -77.5 -147t-206.5 -61q-107 0 -167 36t-60 108q0 68 71 109l1 1q-44 26 -44 78q0 68 63 98q-75 42 -75 135q0 86 58 138t171 52q52 0 98 -13
h166v-143zM238 -21q-2 0 -7 0.5t-8 0.5v-1q-23 -19 -23 -44q0 -21 18.5 -34t53.5 -13q39 0 58.5 14.5t19.5 36.5q0 37 -45 38zM310 329q0 23 -13.5 37t-39.5 14q-25 0 -39 -13.5t-14 -37.5q0 -23 13.5 -37t39.5 -14q25 0 39 13.5t14 37.5zM364 648q0 -43 -30 -73t-73 -30
t-73 30t-30 73t30 73t73 30t73 -30t30 -73z" />
    <glyph glyph-name="Gcommaaccent" unicode="&#x122;" horiz-adv-x="664" 
d="M617 368v-333q-105 -47 -243 -47q-172 0 -260 86t-88 236q0 175 103 275.5t289 100.5q107 0 198 -28l-36 -170q-77 30 -169 30t-137.5 -50t-45.5 -136q0 -82 41 -128t124 -46q21 0 38 5v205h186zM291 -245l-18 65q32 7 43.5 14t11.5 21q0 5 -1.5 15t-1.5 16q0 29 20 49.5
t56 20.5q34 0 54 -21.5t20 -56.5q0 -50 -46.5 -86.5t-137.5 -36.5z" />
    <glyph glyph-name="gcommaaccent" unicode="&#x123;" horiz-adv-x="548" 
d="M526 354h-46q1 -4 1 -12q0 -88 -57.5 -138t-171.5 -50h-6q-8 -8 -8 -18t11.5 -14.5t50.5 -5.5l56 -2q172 -6 172 -151q0 -86 -77.5 -147t-206.5 -61q-107 0 -167 36t-60 108q0 68 71 109l1 1q-44 26 -44 78q0 68 63 98q-75 42 -75 135q0 86 58 138t171 52q52 0 98 -13
h166v-143zM238 -21q-2 0 -7 0.5t-8 0.5v-1q-23 -19 -23 -44q0 -21 18.5 -34t53.5 -13q39 0 58.5 14.5t19.5 36.5q0 37 -45 38zM310 329q0 23 -13.5 37t-39.5 14q-25 0 -39 -13.5t-14 -37.5q0 -23 13.5 -37t39.5 -14q25 0 39 13.5t14 37.5zM355 756l18 -65q-55 -11 -55 -34
q0 -6 1.5 -15.5t1.5 -16.5q0 -32 -21.5 -51t-54.5 -19q-34 0 -54 23.5t-20 55.5q0 47 45 84.5t139 37.5z" />
    <glyph glyph-name="Hcircumflex" unicode="&#x124;" horiz-adv-x="670" 
d="M622 0h-186v266h-202v-266h-186v675h186v-246h202v246h186v-675zM512 792l-38 -89l-138 48l-140 -48l-36 87l179 86z" />
    <glyph glyph-name="hcircumflex" unicode="&#x125;" horiz-adv-x="564" 
d="M517 0h-182v314q0 41 -28 41q-30 0 -54 -36t-24 -78v-241h-182v730h182v-182q0 -61 -9 -103h1q50 64 149 64q77 0 112 -43.5t35 -113.5v-352zM450 832l-38 -89l-138 48l-140 -48l-36 87l179 86z" />
    <glyph glyph-name="Hbar" unicode="&#x126;" horiz-adv-x="690" 
d="M632 617h50v-152h-50v-465h-186v239h-202v-239h-186v465h-50v152h50v58h186v-58h202v58h186v-58zM446 465h-202v-74h202v74z" />
    <glyph glyph-name="hbar" unicode="&#x127;" horiz-adv-x="575" 
d="M527 0h-182v309q0 41 -28 41q-30 0 -54 -36t-24 -78v-236h-182v535h-57v140h57v55h182v-55h96v-140h-96v-9q0 -43 -9 -86h1q50 64 149 64q77 0 112 -43.5t35 -113.5v-347z" />
    <glyph glyph-name="Itilde" unicode="&#x128;" horiz-adv-x="282" 
d="M234 0h-186v675h186v-675zM256 870l88 -58q-54 -95 -145 -95q-39 0 -74 20t-47 20q-30 0 -51 -39l-88 58q54 95 145 95q40 0 74 -20t47 -20q30 0 51 39z" />
    <glyph glyph-name="itilde" unicode="&#x129;" horiz-adv-x="276" 
d="M229 0h-182v497h182v-497zM236 722l81 -61q-39 -108 -132 -108q-30 0 -61 23t-38 23q-26 0 -44 -42l-81 61q13 47 47.5 78t83.5 31q31 0 62 -23t37 -23q22 0 45 41z" />
    <glyph glyph-name="Imacron" unicode="&#x12a;" horiz-adv-x="282" 
d="M234 0h-186v675h186v-675zM300 731h-318v109h318v-109z" />
    <glyph glyph-name="imacron" unicode="&#x12b;" horiz-adv-x="276" 
d="M229 0h-182v497h182v-497zM280 575h-283v130h283v-130z" />
    <glyph glyph-name="Ibreve" unicode="&#x12c;" horiz-adv-x="282" 
d="M234 0h-186v675h186v-675zM197 869h103q0 -67 -41.5 -112t-119.5 -45q-75 0 -117 45.5t-42 111.5h102q0 -22 16.5 -36.5t41.5 -14.5q26 0 41.5 14.5t15.5 36.5z" />
    <glyph glyph-name="ibreve" unicode="&#x12d;" horiz-adv-x="276" 
d="M229 0h-182v497h182v-497zM171 724h114q0 -86 -38 -133t-109 -47q-72 0 -108 47t-36 133h113q0 -23 8.5 -38t23.5 -15q32 0 32 53z" />
    <glyph glyph-name="Iogonek" unicode="&#x12e;" horiz-adv-x="282" 
d="M250 -87l46 -96q-65 -58 -157 -58q-67 0 -108 30.5t-41 86.5q0 64 58 124v675h186v-675q-77 -40 -77 -84q0 -25 29 -25t64 22z" />
    <glyph glyph-name="iogonek" unicode="&#x12f;" horiz-adv-x="276" 
d="M247 640q0 -43 -32 -74t-77 -31t-77 31t-32 74t32 74t77 31t77 -31t32 -74zM229 497v-497q-75 -40 -75 -84q0 -25 29 -25t64 22l46 -96q-65 -58 -157 -58q-67 0 -108 30.5t-41 86.5q0 66 60 124v497h182z" />
    <glyph glyph-name="Idotaccent" unicode="&#x130;" horiz-adv-x="282" 
d="M234 0h-186v675h186v-675zM245 806q0 -43 -30 -73t-73 -30t-73 30t-30 73t30 73t73 30t73 -30t30 -73z" />
    <glyph glyph-name="dotlessi" unicode="&#x131;" horiz-adv-x="276" 
d="M229 0h-182v497h182v-497z" />
    <glyph glyph-name="IJ" unicode="&#x132;" horiz-adv-x="632" 
d="M234 0h-186v675h186v-675zM586 675v-463q0 -96 -49 -159.5t-160 -63.5q-53 0 -95 8v156q24 -8 57 -8q61 0 61 66v464h186z" />
    <glyph glyph-name="ij" unicode="&#x133;" horiz-adv-x="553" 
d="M247 640q0 -43 -32 -74t-77 -31t-77 31t-32 74t32 74t77 31t77 -31t32 -74zM229 0h-182v497h182v-497zM523 640q0 -43 -32 -74t-77 -31t-77 31t-32 74t32 74t77 31t77 -31t32 -74zM506 497v-508q0 -107 -53.5 -167.5t-166.5 -60.5q-16 0 -35.5 2t-30.5 4l-12 2l9 153
q30 -9 61 -9q46 0 46 55v529h182z" />
    <glyph glyph-name="Jcircumflex" unicode="&#x134;" horiz-adv-x="350" 
d="M304 675v-463q0 -96 -49 -159.5t-160 -63.5q-53 0 -95 8v156q24 -8 57 -8q61 0 61 66v464h186zM388 792l-38 -89l-138 48l-140 -48l-36 87l179 86z" />
    <glyph glyph-name="jcircumflex" unicode="&#x135;" horiz-adv-x="277" 
d="M230 497v-508q0 -107 -53.5 -167.5t-166.5 -60.5q-16 0 -35.5 2t-30.5 4l-12 2l9 153q30 -9 61 -9q46 0 46 55v529h182zM294 627l-61 -83l-93 77l-95 -77l-59 81l155 143z" />
    <glyph glyph-name="Kcommaaccent" unicode="&#x136;" horiz-adv-x="615" 
d="M616 0h-239l-143 308v-308h-186v675h186v-289l146 289h223l-192 -323zM196 -245l-18 65q32 7 43.5 14t11.5 21q0 5 -1.5 15t-1.5 16q0 29 20 49.5t56 20.5q34 0 54 -21.5t20 -56.5q0 -50 -46.5 -86.5t-137.5 -36.5z" />
    <glyph glyph-name="kcommaaccent" unicode="&#x137;" horiz-adv-x="565" 
d="M565 0h-225l-111 230v-230h-182v730h182v-424l102 191h215l-145 -219zM178 -245l-18 65q32 7 43.5 14t11.5 21q0 5 -1.5 15t-1.5 16q0 29 20 49.5t56 20.5q34 0 54 -21.5t20 -56.5q0 -50 -46.5 -86.5t-137.5 -36.5z" />
    <glyph glyph-name="kgreenlandic" unicode="&#x138;" horiz-adv-x="564" 
d="M558 0h-221l-108 221v-221h-182v497h182v-200l108 200h214l-149 -223z" />
    <glyph glyph-name="Lacute" unicode="&#x139;" horiz-adv-x="432" 
d="M420 0h-372v675h186v-512h186v-163zM340 752l-253 -49l-26 96l244 76z" />
    <glyph glyph-name="lacute" unicode="&#x13a;" horiz-adv-x="276" 
d="M229 0h-182v730h182v-730zM326 812l-253 -49l-26 96l244 76z" />
    <glyph glyph-name="Lcommaaccent" unicode="&#x13b;" horiz-adv-x="432" 
d="M420 0h-372v675h186v-512h186v-163zM136 -245l-18 65q32 7 43.5 14t11.5 21q0 5 -1.5 15t-1.5 16q0 29 20 49.5t56 20.5q34 0 54 -21.5t20 -56.5q0 -50 -46.5 -86.5t-137.5 -36.5z" />
    <glyph glyph-name="lcommaaccent" unicode="&#x13c;" horiz-adv-x="276" 
d="M229 0h-182v730h182v-730zM34 -245l-18 65q32 7 43.5 14t11.5 21q0 5 -1.5 15t-1.5 16q0 29 20 49.5t56 20.5q34 0 54 -21.5t20 -56.5q0 -50 -46.5 -86.5t-137.5 -36.5z" />
    <glyph glyph-name="Lcaron" unicode="&#x13d;" horiz-adv-x="442" 
d="M420 0h-372v675h186v-512h186v-163zM487 773l-126 -211l-106 50l103 221z" />
    <glyph glyph-name="lcaron" unicode="&#x13e;" horiz-adv-x="360" 
d="M229 0h-182v730h182v-730zM429 772l-69 -236l-115 21l43 240z" />
    <glyph glyph-name="Ldot" unicode="&#x13f;" horiz-adv-x="592" 
d="M420 0h-372v675h186v-512h186v-163zM562 348q0 -45 -32.5 -77.5t-77.5 -32.5t-77.5 32.5t-32.5 77.5t32.5 77.5t77.5 32.5t77.5 -32.5t32.5 -77.5z" />
    <glyph glyph-name="ldot" unicode="&#x140;" horiz-adv-x="494" 
d="M229 0h-182v730h182v-730zM495 298q0 -45 -32.5 -77.5t-77.5 -32.5t-77.5 32.5t-32.5 77.5t32.5 77.5t77.5 32.5t77.5 -32.5t32.5 -77.5z" />
    <glyph glyph-name="Lslash" unicode="&#x141;" horiz-adv-x="442" 
d="M430 0h-372v266l-48 -23l-30 145l78 37v250h186v-163l79 36l30 -145l-109 -50v-190h186v-163z" />
    <glyph glyph-name="lslash" unicode="&#x142;" horiz-adv-x="312" 
d="M312 399l-65 -33v-366h-182v272l-35 -18l-30 138l65 33v305h182v-211l35 18z" />
    <glyph glyph-name="Nacute" unicode="&#x143;" horiz-adv-x="686" 
d="M638 0h-237l-137 297q-33 73 -46 126q7 -75 7 -235v-188h-177v675h244l126 -272q32 -68 50 -134q-7 64 -7 240v166h177v-675zM554 752l-253 -49l-26 96l244 76z" />
    <glyph glyph-name="nacute" unicode="&#x144;" horiz-adv-x="564" 
d="M517 0h-182v314q0 41 -28 41q-30 0 -54 -35.5t-24 -77.5v-242h-182v497h168q0 -39 -5 -66h1q55 78 159 78q77 0 112 -43.5t35 -113.5v-352zM478 674l-194 -131l-76 86l178 150z" />
    <glyph glyph-name="Ncommaaccent" unicode="&#x145;" horiz-adv-x="686" 
d="M638 0h-237l-137 297q-33 73 -46 126q7 -75 7 -235v-188h-177v675h244l126 -272q32 -68 50 -134q-7 64 -7 240v166h177v-675zM238 -245l-18 65q32 7 43.5 14t11.5 21q0 5 -1.5 15t-1.5 16q0 29 20 49.5t56 20.5q34 0 54 -21.5t20 -56.5q0 -50 -46.5 -86.5t-137.5 -36.5z
" />
    <glyph glyph-name="ncommaaccent" unicode="&#x146;" horiz-adv-x="564" 
d="M517 0h-182v314q0 41 -28 41q-30 0 -54 -35.5t-24 -77.5v-242h-182v497h168q0 -39 -5 -66h1q55 78 159 78q77 0 112 -43.5t35 -113.5v-352zM176 -245l-18 65q32 7 43.5 14t11.5 21q0 5 -1.5 15t-1.5 16q0 29 20 49.5t56 20.5q34 0 54 -21.5t20 -56.5q0 -50 -46.5 -86.5
t-137.5 -36.5z" />
    <glyph glyph-name="Ncaron" unicode="&#x147;" horiz-adv-x="686" 
d="M638 0h-237l-137 297q-33 73 -46 126q7 -75 7 -235v-188h-177v675h244l126 -272q32 -68 50 -134q-7 64 -7 240v166h177v-675zM518 789l-179 -86l-173 84l38 89l138 -48l140 48z" />
    <glyph glyph-name="ncaron" unicode="&#x148;" horiz-adv-x="564" 
d="M517 0h-182v314q0 41 -28 41q-30 0 -54 -35.5t-24 -77.5v-242h-182v497h168q0 -39 -5 -66h1q55 78 159 78q77 0 112 -43.5t35 -113.5v-352zM447 687l-176 -143l-172 141l66 83l108 -77l110 77z" />
    <glyph glyph-name="napostrophe" unicode="&#x149;" horiz-adv-x="710" 
d="M663 0h-182v314q0 41 -28 41q-30 0 -54 -35.5t-24 -77.5v-242h-182v497h168q0 -39 -5 -66h1q55 78 159 78q77 0 112 -43.5t35 -113.5v-352zM72 420l-61 54q46 49 52.5 79.5t-20.5 60.5q-19 26 -20 57t24 56.5t64 25.5q55 0 80 -53q32 -69 -17 -160q-34 -63 -102 -120z
" />
    <glyph glyph-name="Eng" unicode="&#x14a;" horiz-adv-x="686" 
d="M638 675v-685q0 -104 -53.5 -161.5t-171.5 -73.5l-41 148q41 4 62.5 20.5t21.5 40.5l-185 312q-31 53 -53 113q7 -70 7 -214v-175h-177v675h203l160 -265q42 -69 57 -112q-7 64 -7 211v166h177z" />
    <glyph glyph-name="eng" unicode="&#x14b;" horiz-adv-x="564" 
d="M304 -238l-44 144q33 10 48 25q19 19 25.5 55t6.5 147v21q0 91 -4.5 135t-12 55t-23.5 11q-25 0 -48 -34t-23 -76v-245h-182v497h168q0 -38 -5 -65h1q25 36 64.5 56.5t83.5 20.5q92 0 127.5 -67.5t35.5 -249.5v-28q0 -149 -17 -219t-59 -112q-46 -46 -142 -71z" />
    <glyph glyph-name="Omacron" unicode="&#x14c;" horiz-adv-x="718" 
d="M693 355q0 -172 -100 -270.5t-246 -98.5q-159 0 -240.5 84.5t-81.5 249.5q0 172 100 270.5t246 98.5q159 0 240.5 -84.5t81.5 -249.5zM493 337q0 182 -134 182q-64 0 -99 -46.5t-35 -134.5q0 -181 134 -181q64 0 99 46t35 134zM521 731h-318v109h318v-109z" />
    <glyph glyph-name="omacron" unicode="&#x14d;" horiz-adv-x="564" 
d="M541 265q0 -122 -72.5 -199.5t-197.5 -77.5q-117 0 -182.5 60t-65.5 184q0 122 72.5 199.5t197.5 77.5q117 0 182.5 -60t65.5 -184zM352 248q0 105 -69 105q-34 0 -52.5 -26.5t-18.5 -77.5q0 -104 69 -104q71 0 71 103zM440 575h-295v130h295v-130z" />
    <glyph glyph-name="Obreve" unicode="&#x14e;" horiz-adv-x="718" 
d="M693 355q0 -172 -100 -270.5t-246 -98.5q-159 0 -240.5 84.5t-81.5 249.5q0 172 100 270.5t246 98.5q159 0 240.5 -84.5t81.5 -249.5zM493 337q0 182 -134 182q-64 0 -99 -46.5t-35 -134.5q0 -181 134 -181q64 0 99 46t35 134zM418 869h103q0 -67 -41.5 -112t-119.5 -45
q-75 0 -117 45.5t-42 111.5h102q0 -22 16.5 -36.5t41.5 -14.5q26 0 41.5 14.5t15.5 36.5z" />
    <glyph glyph-name="obreve" unicode="&#x14f;" horiz-adv-x="564" 
d="M541 265q0 -122 -72.5 -199.5t-197.5 -77.5q-117 0 -182.5 60t-65.5 184q0 122 72.5 199.5t197.5 77.5q117 0 182.5 -60t65.5 -184zM352 248q0 105 -69 105q-34 0 -52.5 -26.5t-18.5 -77.5q0 -104 69 -104q71 0 71 103zM323 724h114q0 -78 -38.5 -129t-116.5 -51
t-115 51.5t-37 128.5h113q0 -53 40 -53t40 53z" />
    <glyph glyph-name="Ohungarumlaut" unicode="&#x150;" horiz-adv-x="718" 
d="M693 355q0 -172 -100 -270.5t-246 -98.5q-159 0 -240.5 84.5t-81.5 249.5q0 172 100 270.5t246 98.5q159 0 240.5 -84.5t81.5 -249.5zM493 337q0 182 -134 182q-64 0 -99 -46.5t-35 -134.5q0 -181 134 -181q64 0 99 46t35 134zM663 842l-179 -144l-76 70l164 164z
M433 861l-163 -163l-81 69l145 177z" />
    <glyph glyph-name="ohungarumlaut" unicode="&#x151;" horiz-adv-x="564" 
d="M541 265q0 -122 -72.5 -199.5t-197.5 -77.5q-117 0 -182.5 60t-65.5 184q0 122 72.5 199.5t197.5 77.5q117 0 182.5 -60t65.5 -184zM352 248q0 105 -69 105q-34 0 -52.5 -26.5t-18.5 -77.5q0 -104 69 -104q71 0 71 103zM591 688l-179 -144l-76 70l164 164zM361 707
l-163 -163l-81 69l145 177z" />
    <glyph glyph-name="OE" unicode="&#x152;" horiz-adv-x="868" 
d="M831 0h-369q-53 -14 -115 -14q-159 0 -240.5 84.5t-81.5 249.5q0 172 100 270.5t246 98.5q60 0 121 -14h339v-158h-209v-95h198v-152h-198v-109h209v-161zM436 168v340q-33 11 -77 11q-64 0 -99.5 -46.5t-35.5 -134.5q0 -181 135 -181q35 0 77 11z" />
    <glyph glyph-name="oe" unicode="&#x153;" horiz-adv-x="841" 
d="M779 152l16 -133q-89 -31 -190 -31q-121 0 -176 51q-22 -24 -66.5 -37.5t-91.5 -13.5q-117 0 -182.5 60t-65.5 184q0 122 72.5 199.5t197.5 77.5q99 0 157 -45q55 45 144 45q110 0 164.5 -60t54.5 -161l-6 -97h-282q5 -64 100 -64q74 0 154 25zM524 309h112q3 68 -51 68
q-26 0 -42.5 -18.5t-18.5 -49.5zM352 248q0 105 -69 105q-34 0 -52.5 -26.5t-18.5 -77.5q0 -104 69 -104q71 0 71 103z" />
    <glyph glyph-name="Racute" unicode="&#x154;" horiz-adv-x="586" 
d="M594 0h-224l-120 243h-16v-243h-186v675q100 5 231 5q133 0 200.5 -50.5t67.5 -160.5q0 -136 -115 -189q27 -40 46 -74zM234 525v-144q15 -1 31 -1q39 0 62.5 19t23.5 56q0 72 -82 72zM469 752l-253 -49l-26 96l244 76z" />
    <glyph glyph-name="racute" unicode="&#x155;" horiz-adv-x="356" 
d="M351 510l-9 -180q-56 15 -84.5 -14t-28.5 -108v-208h-182v497h168q0 -29 -5 -74h1q48 90 140 87zM374 674l-194 -131l-76 86l178 150z" />
    <glyph glyph-name="Rcommaaccent" unicode="&#x156;" horiz-adv-x="586" 
d="M594 0h-224l-120 243h-16v-243h-186v675q100 5 231 5q133 0 200.5 -50.5t67.5 -160.5q0 -136 -115 -189q27 -40 46 -74zM234 525v-144q15 -1 31 -1q39 0 62.5 19t23.5 56q0 72 -82 72zM186 -245l-18 65q32 7 43.5 14t11.5 21q0 5 -1.5 15t-1.5 16q0 29 20 49.5t56 20.5
q34 0 54 -21.5t20 -56.5q0 -50 -46.5 -86.5t-137.5 -36.5z" />
    <glyph glyph-name="rcommaaccent" unicode="&#x157;" horiz-adv-x="356" 
d="M351 510l-9 -180q-56 15 -84.5 -14t-28.5 -108v-208h-182v497h168q0 -29 -5 -74h1q48 90 140 87zM46 -245l-18 65q32 7 43.5 14t11.5 21q0 5 -1.5 15t-1.5 16q0 29 20 49.5t56 20.5q34 0 54 -21.5t20 -56.5q0 -50 -46.5 -86.5t-137.5 -36.5z" />
    <glyph glyph-name="Rcaron" unicode="&#x158;" horiz-adv-x="586" 
d="M594 0h-224l-120 243h-16v-243h-186v675q100 5 231 5q133 0 200.5 -50.5t67.5 -160.5q0 -136 -115 -189q27 -40 46 -74zM234 525v-144q15 -1 31 -1q39 0 62.5 19t23.5 56q0 72 -82 72zM452 789l-179 -86l-173 84l38 89l138 -48l140 48z" />
    <glyph glyph-name="rcaron" unicode="&#x159;" horiz-adv-x="356" 
d="M351 510l-9 -180q-56 15 -84.5 -14t-28.5 -108v-208h-182v497h168q0 -29 -5 -74h1q48 90 140 87zM372 687l-176 -143l-172 141l66 83l108 -77l110 77z" />
    <glyph glyph-name="Sacute" unicode="&#x15a;" horiz-adv-x="502" 
d="M430 675l-16 -161q-57 20 -119 20q-74 0 -74 -45q0 -19 19.5 -34.5t49 -25.5t63.5 -27t63.5 -38t49 -60.5t19.5 -91.5q0 -101 -74 -163t-205 -62q-92 0 -165 17l16 177q76 -32 157 -32q70 0 70 44q0 21 -19 37.5t-48 26t-62.5 26.5t-62.5 37t-48 59t-19 92q0 99 74.5 158
t206.5 59q66 0 124 -13zM446 752l-253 -49l-26 96l244 76z" />
    <glyph glyph-name="sacute" unicode="&#x15b;" horiz-adv-x="405" 
d="M341 502l-6 -139q-41 12 -83 12q-37 0 -37 -20q0 -10 12.5 -19t30.5 -16t40 -19t40 -27.5t30.5 -44t12.5 -65.5q0 -78 -59.5 -127t-172.5 -49q-61 0 -110 12l7 146q52 -20 106 -20q38 0 38 21q0 16 -25.5 29t-56 25t-56 47.5t-25.5 89.5q0 75 57.5 123.5t170.5 48.5
q43 0 86 -8zM367 674l-194 -131l-76 86l178 150z" />
    <glyph glyph-name="Scircumflex" unicode="&#x15c;" horiz-adv-x="502" 
d="M430 675l-16 -161q-57 20 -119 20q-74 0 -74 -45q0 -19 19.5 -34.5t49 -25.5t63.5 -27t63.5 -38t49 -60.5t19.5 -91.5q0 -101 -74 -163t-205 -62q-92 0 -165 17l16 177q76 -32 157 -32q70 0 70 44q0 21 -19 37.5t-48 26t-62.5 26.5t-62.5 37t-48 59t-19 92q0 99 74.5 158
t206.5 59q66 0 124 -13zM440 792l-38 -89l-138 48l-140 -48l-36 87l179 86z" />
    <glyph glyph-name="scircumflex" unicode="&#x15d;" horiz-adv-x="405" 
d="M341 502l-6 -139q-41 12 -83 12q-37 0 -37 -20q0 -10 12.5 -19t30.5 -16t40 -19t40 -27.5t30.5 -44t12.5 -65.5q0 -78 -59.5 -127t-172.5 -49q-61 0 -110 12l7 146q52 -20 106 -20q38 0 38 21q0 16 -25.5 29t-56 25t-56 47.5t-25.5 89.5q0 75 57.5 123.5t170.5 48.5
q43 0 86 -8zM370 627l-66 -83l-108 77l-110 -77l-64 81l176 143z" />
    <glyph glyph-name="Scedilla" unicode="&#x15e;" horiz-adv-x="502" 
d="M430 675l-16 -161q-57 20 -119 20q-74 0 -74 -45q0 -19 19.5 -34.5t49 -25.5t63.5 -27t63.5 -38t49 -60.5t19.5 -91.5q0 -101 -74 -163t-205 -62q-92 0 -165 17l16 177q76 -32 157 -32q70 0 70 44q0 21 -19 37.5t-48 26t-62.5 26.5t-62.5 37t-48 59t-19 92q0 99 74.5 158
t206.5 59q66 0 124 -13zM162 -77l146 38q38 -59 32 -107.5t-50 -86.5h-130q34 37 35.5 72t-33.5 84z" />
    <glyph glyph-name="Scedilla" unicode="&#xf6c1;" horiz-adv-x="502" 
d="M430 675l-16 -161q-57 20 -119 20q-74 0 -74 -45q0 -19 19.5 -34.5t49 -25.5t63.5 -27t63.5 -38t49 -60.5t19.5 -91.5q0 -101 -74 -163t-205 -62q-92 0 -165 17l16 177q76 -32 157 -32q70 0 70 44q0 21 -19 37.5t-48 26t-62.5 26.5t-62.5 37t-48 59t-19 92q0 99 74.5 158
t206.5 59q66 0 124 -13zM162 -77l146 38q38 -59 32 -107.5t-50 -86.5h-130q34 37 35.5 72t-33.5 84z" />
    <glyph glyph-name="scedilla" unicode="&#x15f;" horiz-adv-x="405" 
d="M341 502l-6 -139q-41 12 -83 12q-37 0 -37 -20q0 -10 12.5 -19t30.5 -16t40 -19t40 -27.5t30.5 -44t12.5 -65.5q0 -78 -59.5 -127t-172.5 -49q-61 0 -110 12l7 146q52 -20 106 -20q38 0 38 21q0 16 -25.5 29t-56 25t-56 47.5t-25.5 89.5q0 75 57.5 123.5t170.5 48.5
q43 0 86 -8zM125 -77l146 38q38 -59 32 -107.5t-50 -86.5h-130q34 37 35.5 72t-33.5 84z" />
    <glyph glyph-name="scedilla" unicode="&#xf6c2;" horiz-adv-x="405" 
d="M341 502l-6 -139q-41 12 -83 12q-37 0 -37 -20q0 -10 12.5 -19t30.5 -16t40 -19t40 -27.5t30.5 -44t12.5 -65.5q0 -78 -59.5 -127t-172.5 -49q-61 0 -110 12l7 146q52 -20 106 -20q38 0 38 21q0 16 -25.5 29t-56 25t-56 47.5t-25.5 89.5q0 75 57.5 123.5t170.5 48.5
q43 0 86 -8zM125 -77l146 38q38 -59 32 -107.5t-50 -86.5h-130q34 37 35.5 72t-33.5 84z" />
    <glyph glyph-name="Scaron" unicode="&#x160;" horiz-adv-x="502" 
d="M430 675l-16 -161q-57 20 -119 20q-74 0 -74 -45q0 -19 19.5 -34.5t49 -25.5t63.5 -27t63.5 -38t49 -60.5t19.5 -91.5q0 -101 -74 -163t-205 -62q-92 0 -165 17l16 177q76 -32 157 -32q70 0 70 44q0 21 -19 37.5t-48 26t-62.5 26.5t-62.5 37t-48 59t-19 92q0 99 74.5 158
t206.5 59q66 0 124 -13zM432 789l-179 -86l-173 84l38 89l138 -48l140 48z" />
    <glyph glyph-name="scaron" unicode="&#x161;" horiz-adv-x="405" 
d="M341 502l-6 -139q-41 12 -83 12q-37 0 -37 -20q0 -10 12.5 -19t30.5 -16t40 -19t40 -27.5t30.5 -44t12.5 -65.5q0 -78 -59.5 -127t-172.5 -49q-61 0 -110 12l7 146q52 -20 106 -20q38 0 38 21q0 16 -25.5 29t-56 25t-56 47.5t-25.5 89.5q0 75 57.5 123.5t170.5 48.5
q43 0 86 -8zM380 687l-176 -143l-172 141l66 83l108 -77l110 77z" />
    <glyph glyph-name="uni0162" unicode="&#x162;" horiz-adv-x="502" 
d="M490 515h-146v-515h-186v515h-146v160h478v-160zM166 -77l146 38q38 -59 32 -107.5t-50 -86.5h-130q34 37 35.5 72t-33.5 84z" />
    <glyph glyph-name="uni0163" unicode="&#x163;" horiz-adv-x="380" 
d="M343 145l10 -141q-64 -16 -118 -16q-93 0 -127.5 35.5t-34.5 135.5v198h-63v140h63v140l182 49v-189h93v-140h-93v-171q0 -26 9 -36.5t30 -10.5q25 0 49 6zM127 -77l146 38q38 -59 32 -107.5t-50 -86.5h-130q34 37 35.5 72t-33.5 84z" />
    <glyph glyph-name="Tcaron" unicode="&#x164;" horiz-adv-x="502" 
d="M490 515h-146v-515h-186v515h-146v160h478v-160zM427 789l-179 -86l-173 84l38 89l138 -48l140 48z" />
    <glyph glyph-name="tcaron" unicode="&#x165;" horiz-adv-x="386" 
d="M343 145l10 -141q-64 -16 -118 -16q-93 0 -127.5 35.5t-34.5 135.5v198h-63v140h63v140l182 49v-189h93v-140h-93v-171q0 -26 9 -36.5t30 -10.5q25 0 49 6zM455 772l-69 -236l-115 21l43 240z" />
    <glyph glyph-name="Tbar" unicode="&#x166;" horiz-adv-x="502" 
d="M158 422v93h-146v160h478v-160h-146v-93h88v-152h-88v-270h-186v270h-88v152h88z" />
    <glyph glyph-name="tbar" unicode="&#x167;" horiz-adv-x="401" 
d="M350 142l10 -138q-64 -16 -118 -16q-93 0 -127.5 35t-34.5 133v30h-54v130h54v48h-63v133h63v140l182 49v-189h93v-133h-93v-48h83v-130h-83v-7q0 -43 39 -43q25 0 49 6z" />
    <glyph glyph-name="Utilde" unicode="&#x168;" horiz-adv-x="664" 
d="M616 675v-407q0 -143 -77 -212.5t-217 -69.5q-151 0 -212.5 69t-61.5 189v431h186v-422q0 -57 22 -84t77 -27q56 0 77.5 26t21.5 90v417h184zM447 870l88 -58q-54 -95 -145 -95q-40 0 -74 20t-47 20q-30 0 -51 -39l-88 58q54 95 145 95q39 0 74 -20t47 -20q30 0 51 39z
" />
    <glyph glyph-name="utilde" unicode="&#x169;" horiz-adv-x="562" 
d="M516 0h-168q0 38 5 66h-1q-55 -78 -159 -78q-77 0 -112 43.5t-35 113.5v352h182v-314q0 -41 28 -41q30 0 54 35.5t24 77.5v242h182v-497zM392 724l84 -64q-51 -106 -139 -106q-38 0 -71.5 22.5t-45.5 22.5q-28 0 -49 -43l-84 64q51 106 139 106q38 0 71.5 -22.5
t45.5 -22.5q16 0 27 10t22 33z" />
    <glyph glyph-name="Umacron" unicode="&#x16a;" horiz-adv-x="664" 
d="M616 675v-407q0 -143 -77 -212.5t-217 -69.5q-151 0 -212.5 69t-61.5 189v431h186v-422q0 -57 22 -84t77 -27q56 0 77.5 26t21.5 90v417h184zM493 731h-318v109h318v-109z" />
    <glyph glyph-name="umacron" unicode="&#x16b;" horiz-adv-x="562" 
d="M516 0h-168q0 38 5 66h-1q-55 -78 -159 -78q-77 0 -112 43.5t-35 113.5v352h182v-314q0 -41 28 -41q30 0 54 35.5t24 77.5v242h182v-497zM429 575h-295v130h295v-130z" />
    <glyph glyph-name="Ubreve" unicode="&#x16c;" horiz-adv-x="664" 
d="M616 675v-407q0 -143 -77 -212.5t-217 -69.5q-151 0 -212.5 69t-61.5 189v431h186v-422q0 -57 22 -84t77 -27q56 0 77.5 26t21.5 90v417h184zM390 869h103q0 -67 -41.5 -112t-119.5 -45q-75 0 -117 45.5t-42 111.5h102q0 -22 16.5 -36.5t41.5 -14.5q26 0 41.5 14.5
t15.5 36.5z" />
    <glyph glyph-name="ubreve" unicode="&#x16d;" horiz-adv-x="562" 
d="M516 0h-168q0 38 5 66h-1q-55 -78 -159 -78q-77 0 -112 43.5t-35 113.5v352h182v-314q0 -41 28 -41q30 0 54 35.5t24 77.5v242h182v-497zM320 724h114q0 -78 -38.5 -129t-116.5 -51t-115 51.5t-37 128.5h113q0 -53 40 -53t40 53z" />
    <glyph glyph-name="Uring" unicode="&#x16e;" horiz-adv-x="664" 
d="M616 675v-407q0 -143 -77 -212.5t-217 -69.5q-151 0 -212.5 69t-61.5 189v431h186v-422q0 -57 22 -84t77 -27q56 0 77.5 26t21.5 90v417h184zM491 828q0 -62 -46 -98t-117 -36q-151 0 -151 122q0 62 46 98t117 36q151 0 151 -122zM376 821q0 26 -9.5 37t-31.5 11
q-20 0 -31.5 -12.5t-11.5 -33.5q0 -26 9.5 -37t31.5 -11q20 0 31.5 12.5t11.5 33.5z" />
    <glyph glyph-name="uring" unicode="&#x16f;" horiz-adv-x="562" 
d="M516 0h-168q0 38 5 66h-1q-55 -78 -159 -78q-77 0 -112 43.5t-35 113.5v352h182v-314q0 -41 28 -41q30 0 54 35.5t24 77.5v242h182v-497zM432 676q0 -65 -45.5 -104.5t-113.5 -39.5q-147 0 -147 130q0 65 45.5 104.5t113.5 39.5q147 0 147 -130zM321 668q0 29 -9.5 40.5
t-31.5 11.5q-20 0 -31.5 -13.5t-11.5 -36.5q0 -29 9.5 -40.5t31.5 -11.5q20 0 31.5 13.5t11.5 36.5z" />
    <glyph glyph-name="Uhungarumlaut" unicode="&#x170;" horiz-adv-x="664" 
d="M616 675v-407q0 -143 -77 -212.5t-217 -69.5q-151 0 -212.5 69t-61.5 189v431h186v-422q0 -57 22 -84t77 -27q56 0 77.5 26t21.5 90v417h184zM625 842l-179 -144l-76 70l164 164zM395 861l-163 -163l-81 69l145 177z" />
    <glyph glyph-name="uhungarumlaut" unicode="&#x171;" horiz-adv-x="562" 
d="M516 0h-168q0 38 5 66h-1q-55 -78 -159 -78q-77 0 -112 43.5t-35 113.5v352h182v-314q0 -41 28 -41q30 0 54 35.5t24 77.5v242h182v-497zM579 688l-179 -144l-76 70l164 164zM349 707l-163 -163l-81 69l145 177z" />
    <glyph glyph-name="Uogonek" unicode="&#x172;" horiz-adv-x="664" 
d="M616 675v-407q0 -136 -75 -211q-13 -13 -46.5 -42.5t-50.5 -45.5q-27 -27 -27 -53q0 -25 29 -25t64 22l46 -96q-65 -58 -157 -58q-67 0 -108 30.5t-41 86.5q0 70 61 112h-6q-257 0 -257 256v431h186v-422q0 -57 22 -84t77 -27q56 0 77.5 26t21.5 90v417h184z" />
    <glyph glyph-name="uogonek" unicode="&#x173;" horiz-adv-x="562" 
d="M537 -87l46 -96q-65 -58 -157 -58q-67 0 -108 30.5t-41 86.5q0 73 77 137q-3 24 -3 50h-1q-55 -75 -157 -75q-77 0 -112 43.5t-35 113.5v352h182v-314q0 -41 28 -41q30 0 54 35.5t24 77.5v242h182v-351q0 -96 7 -146q-79 -37 -79 -84q0 -25 29 -25t64 22z" />
    <glyph glyph-name="Wcircumflex" unicode="&#x174;" horiz-adv-x="961" 
d="M951 675l-152 -675h-229l-66 261q-12 51 -22 151h-3q-10 -100 -22 -151l-66 -261h-229l-152 675h198l51 -269q22 -116 29 -201h3q14 112 36 201l68 269h186l68 -269q30 -115 40 -201h3q14 120 30 210l46 260h183zM662 792l-38 -89l-138 48l-140 -48l-36 87l179 86z" />
    <glyph glyph-name="wcircumflex" unicode="&#x175;" horiz-adv-x="800" 
d="M798 497l-145 -497h-200l-31 126q-19 81 -28 136h-1q-9 -55 -28 -136l-31 -126h-188l-144 497h198l26 -109q26 -112 35 -166h2q10 76 33 166l27 109h170l27 -109q24 -95 36 -166h2q9 66 32 166l26 109h182zM573 627l-66 -83l-108 77l-110 -77l-64 81l176 143z" />
    <glyph glyph-name="Ycircumflex" unicode="&#x176;" horiz-adv-x="597" 
d="M604 675l-214 -442v-233h-186v232l-211 443h202l63 -146q24 -55 40 -103h2q12 37 49 118l58 131h197zM474 792l-38 -89l-138 48l-140 -48l-36 87l179 86z" />
    <glyph glyph-name="ycircumflex" unicode="&#x177;" horiz-adv-x="534" 
d="M537 497l-175 -505q-45 -130 -115.5 -181.5t-168.5 -51.5l-78 7l18 153q30 -9 64 -9q65 0 84 61l9 29l-175 497h203l29 -101q28 -102 42 -166h2q26 117 40 167l27 100h194zM445 627l-66 -83l-108 77l-110 -77l-64 81l176 143z" />
    <glyph glyph-name="Ydieresis" unicode="&#x178;" horiz-adv-x="597" 
d="M604 675l-214 -442v-233h-186v232l-211 443h202l63 -146q24 -55 40 -103h2q12 37 49 118l58 131h197zM502 796q0 -38 -27 -64.5t-64 -26.5t-64 26.5t-27 64.5t27 64.5t64 26.5t64 -26.5t27 -64.5zM284 796q0 -38 -27 -64.5t-64 -26.5t-64 26.5t-27 64.5t27 64.5t64 26.5
t64 -26.5t27 -64.5z" />
    <glyph glyph-name="Zacute" unicode="&#x179;" horiz-adv-x="534" 
d="M491 0h-448v147l186 324q16 26 26 38q-11 -1 -85 -1h-121v167h437v-154l-196 -322q-17 -25 -19 -28q10 1 113 1h107v-172zM442 752l-253 -49l-26 96l244 76z" />
    <glyph glyph-name="zacute" unicode="&#x17a;" horiz-adv-x="455" 
d="M413 0h-371v130l144 205q-14 -2 -70 -2h-68v164h362v-131l-138 -200q12 1 80 1h61v-167zM401 674l-194 -131l-76 86l178 150z" />
    <glyph glyph-name="Zdotaccent" unicode="&#x17b;" horiz-adv-x="534" 
d="M491 0h-448v147l186 324q16 26 26 38q-11 -1 -85 -1h-121v167h437v-154l-196 -322q-17 -25 -19 -28q10 1 113 1h107v-172zM374 806q0 -43 -30 -73t-73 -30t-73 30t-30 73t30 73t73 30t73 -30t30 -73z" />
    <glyph glyph-name="zdotaccent" unicode="&#x17c;" horiz-adv-x="455" 
d="M413 0h-371v130l144 205q-14 -2 -70 -2h-68v164h362v-131l-138 -200q12 1 80 1h61v-167zM331 638q0 -43 -30 -73t-73 -30t-73 30t-30 73t30 73t73 30t73 -30t30 -73z" />
    <glyph glyph-name="Zcaron" unicode="&#x17d;" horiz-adv-x="534" 
d="M491 0h-448v147l186 324q16 26 26 38q-11 -1 -85 -1h-121v167h437v-154l-196 -322q-17 -25 -19 -28q10 1 113 1h107v-172zM444 789l-179 -86l-173 84l38 89l138 -48l140 48z" />
    <glyph glyph-name="zcaron" unicode="&#x17e;" horiz-adv-x="455" 
d="M413 0h-371v130l144 205q-14 -2 -70 -2h-68v164h362v-131l-138 -200q12 1 80 1h61v-167zM403 687l-176 -143l-172 141l66 83l108 -77l110 77z" />
    <glyph glyph-name="longs" unicode="&#x17f;" horiz-adv-x="274" 
d="M320 738l-14 -148q-14 3 -29 3q-27 0 -39.5 -16t-12.5 -53v-524h-182v514q0 227 216 227q29 0 61 -3z" />
    <glyph glyph-name="uni018F" unicode="&#x18f;" horiz-adv-x="609" 
d="M31 414h351q-19 105 -124 105q-101 0 -181 -36l-35 158q106 47 231 47q144 0 229.5 -83t85.5 -257q0 -171 -83 -266t-229 -95q-126 0 -192.5 77t-66.5 211q0 69 14 139zM382 259h-163v-3q0 -51 20.5 -75.5t53.5 -24.5q36 0 61 28.5t28 74.5z" />
    <glyph glyph-name="florin" unicode="&#x192;" horiz-adv-x="471" 
d="M424 299h-132l-17 -181q-15 -160 -75.5 -224.5t-176.5 -64.5q-42 0 -75 10l25 156q36 -13 55 -13q29 0 43 22.5t19 77.5l20 217h-97v140h110l6 58q13 129 70.5 187.5t168.5 58.5q37 0 73 -9l-19 -149q-22 8 -51 8q-27 0 -42 -18.5t-19 -68.5l-6 -67h120v-140z" />
    <glyph glyph-name="Ohorn" unicode="&#x1a0;" horiz-adv-x="813" 
d="M642 713h147q30 -101 -2.5 -161.5t-105.5 -85.5q12 -52 12 -111q0 -172 -100 -270.5t-246 -98.5q-159 0 -240.5 84.5t-81.5 249.5q0 172 100 270.5t246 98.5q187 0 266 -117q47 28 5 141zM494 337q0 182 -135 182q-64 0 -99.5 -46.5t-35.5 -134.5q0 -181 135 -181
q64 0 99.5 46.5t35.5 133.5z" />
    <glyph glyph-name="ohorn" unicode="&#x1a1;" horiz-adv-x="691" 
d="M526 535h140q33 -112 -6.5 -175.5t-119.5 -76.5q1 -8 1 -18q0 -122 -72.5 -199.5t-197.5 -77.5q-117 0 -182.5 60t-65.5 184q0 122 72.5 199.5t197.5 77.5q170 0 225 -121q52 23 8 147zM352 248q0 105 -69 105q-34 0 -52.5 -26.5t-18.5 -77.5q0 -104 69 -104q71 0 71 103
z" />
    <glyph glyph-name="Uhorn" unicode="&#x1af;" horiz-adv-x="829" 
d="M663 713h147q13 -71 3 -122t-41.5 -84.5t-70.5 -50.5t-85 -19v-169q0 -143 -77 -212.5t-217 -69.5q-151 0 -212.5 69t-61.5 189v431h186v-422q0 -57 22 -84t77 -27q56 0 77.5 26t21.5 90v417h184v-124q40 0 54.5 36.5t-7.5 125.5z" />
    <glyph glyph-name="uhorn" unicode="&#x1b0;" horiz-adv-x="715" 
d="M516 0h-168q0 38 5 66h-1q-55 -78 -159 -78q-77 0 -112 43.5t-35 113.5v352h182v-314q0 -41 28 -41q30 0 54 35.5t24 77.5v242h182v-135q40 5 50 49t-14 124h140q26 -91 2 -151.5t-69.5 -90t-108.5 -35.5v-258z" />
    <glyph glyph-name="uni01CD" unicode="&#x1cd;" horiz-adv-x="641" 
d="M651 0h-203l-33 120h-207l-33 -120h-184l202 675h251zM376 266l-39 143q-14 48 -24 108h-2q-8 -49 -24 -108l-39 -143h128zM496 789l-179 -86l-173 84l38 89l138 -48l140 48z" />
    <glyph glyph-name="uni01CE" unicode="&#x1ce;" horiz-adv-x="529" 
d="M484 0h-170q0 40 4 63h-1q-18 -35 -57 -55t-87 -20q-71 0 -109.5 43.5t-38.5 109.5q0 177 271 177v11q0 24 -15 33.5t-50 9.5q-69 0 -151 -30l-26 135q102 33 198 33q128 0 178 -42.5t50 -133.5v-228q0 -69 4 -106zM296 190v15q-56 0 -76.5 -10.5t-20.5 -35.5
q0 -14 9.5 -24t26.5 -10q26 0 43.5 19.5t17.5 45.5zM438 687l-176 -143l-172 141l66 83l108 -77l110 77z" />
    <glyph glyph-name="uni01CF" unicode="&#x1cf;" horiz-adv-x="282" 
d="M234 0h-186v675h186v-675zM317 789l-179 -86l-173 84l38 89l138 -48l140 48z" />
    <glyph glyph-name="uni01D0" unicode="&#x1d0;" horiz-adv-x="276" 
d="M229 0h-182v497h182v-497zM312 687l-176 -143l-172 141l66 83l108 -77l110 77z" />
    <glyph glyph-name="uni01D1" unicode="&#x1d1;" horiz-adv-x="718" 
d="M693 355q0 -172 -100 -270.5t-246 -98.5q-159 0 -240.5 84.5t-81.5 249.5q0 172 100 270.5t246 98.5q159 0 240.5 -84.5t81.5 -249.5zM493 337q0 182 -134 182q-64 0 -99 -46.5t-35 -134.5q0 -181 134 -181q64 0 99 46t35 134zM530 789l-179 -86l-173 84l38 89l138 -48
l140 48z" />
    <glyph glyph-name="uni01D2" unicode="&#x1d2;" horiz-adv-x="564" 
d="M541 265q0 -122 -72.5 -199.5t-197.5 -77.5q-117 0 -182.5 60t-65.5 184q0 122 72.5 199.5t197.5 77.5q117 0 182.5 -60t65.5 -184zM352 248q0 105 -69 105q-34 0 -52.5 -26.5t-18.5 -77.5q0 -104 69 -104q71 0 71 103zM456 687l-176 -143l-172 141l66 83l108 -77l110 77
z" />
    <glyph glyph-name="uni01D3" unicode="&#x1d3;" horiz-adv-x="664" 
d="M616 675v-407q0 -143 -77 -212.5t-217 -69.5q-151 0 -212.5 69t-61.5 189v431h186v-422q0 -57 22 -84t77 -27q56 0 77.5 26t21.5 90v417h184zM508 789l-179 -86l-173 84l38 89l138 -48l140 48z" />
    <glyph glyph-name="uni01D4" unicode="&#x1d4;" horiz-adv-x="562" 
d="M516 0h-168q0 38 5 66h-1q-55 -78 -159 -78q-77 0 -112 43.5t-35 113.5v352h182v-314q0 -41 28 -41q30 0 54 35.5t24 77.5v242h182v-497zM455 687l-176 -143l-172 141l66 83l108 -77l110 77z" />
    <glyph glyph-name="uni01D5" unicode="&#x1d5;" horiz-adv-x="664" 
d="M616 675v-407q0 -143 -77 -212.5t-217 -69.5q-151 0 -212.5 69t-61.5 189v431h186v-422q0 -57 22 -84t77 -27q56 0 77.5 26t21.5 90v417h184zM514 772q0 -31 -21 -51.5t-51 -20.5t-51 20.5t-21 51.5t21 51.5t51 20.5t51 -20.5t21 -51.5zM294 772q0 -31 -21 -51.5
t-51 -20.5t-51 20.5t-21 51.5t21 51.5t51 20.5t51 -20.5t21 -51.5zM484 875h-304v96h304v-96z" />
    <glyph glyph-name="uni01D6" unicode="&#x1d6;" horiz-adv-x="562" 
d="M516 0h-168q0 38 5 66h-1q-55 -78 -159 -78q-77 0 -112 43.5t-35 113.5v352h182v-314q0 -41 28 -41q30 0 54 35.5t24 77.5v242h182v-497zM251 617q0 -33 -23.5 -56.5t-56.5 -23.5t-56.5 23.5t-23.5 56.5t23.5 56.5t56.5 23.5t56.5 -23.5t23.5 -56.5zM471 617
q0 -33 -23.5 -56.5t-56.5 -23.5t-56.5 23.5t-23.5 56.5t23.5 56.5t56.5 23.5t56.5 -23.5t23.5 -56.5zM435 736h-308v112h308v-112z" />
    <glyph glyph-name="uni01D7" unicode="&#x1d7;" horiz-adv-x="664" 
d="M616 675v-407q0 -143 -77 -212.5t-217 -69.5q-151 0 -212.5 69t-61.5 189v431h186v-422q0 -57 22 -84t77 -27q56 0 77.5 26t21.5 90v417h184zM506 885l-209 -55l-26 74l200 76zM514 772q0 -31 -21 -51.5t-51 -20.5t-51 20.5t-21 51.5t21 51.5t51 20.5t51 -20.5t21 -51.5z
M294 772q0 -31 -21 -51.5t-51 -20.5t-51 20.5t-21 51.5t21 51.5t51 20.5t51 -20.5t21 -51.5z" />
    <glyph glyph-name="uni01D8" unicode="&#x1d8;" horiz-adv-x="562" 
d="M516 0h-168q0 38 5 66h-1q-55 -78 -159 -78q-77 0 -112 43.5t-35 113.5v352h182v-314q0 -41 28 -41q30 0 54 35.5t24 77.5v242h182v-497zM251 617q0 -33 -23.5 -56.5t-56.5 -23.5t-56.5 23.5t-23.5 56.5t23.5 56.5t56.5 23.5t56.5 -23.5t23.5 -56.5zM471 617
q0 -33 -23.5 -56.5t-56.5 -23.5t-56.5 23.5t-23.5 56.5t23.5 56.5t56.5 23.5t56.5 -23.5t23.5 -56.5zM462 774l-200 -88l-51 88l188 108z" />
    <glyph glyph-name="uni01D9" unicode="&#x1d9;" horiz-adv-x="664" 
d="M616 675v-407q0 -143 -77 -212.5t-217 -69.5q-151 0 -212.5 69t-61.5 189v431h186v-422q0 -57 22 -84t77 -27q56 0 77.5 26t21.5 90v417h184zM169 904l31 76l135 -41l131 41l29 -73l-163 -75zM514 772q0 -31 -21 -51.5t-51 -20.5t-51 20.5t-21 51.5t21 51.5t51 20.5
t51 -20.5t21 -51.5zM294 772q0 -31 -21 -51.5t-51 -20.5t-51 20.5t-21 51.5t21 51.5t51 20.5t51 -20.5t21 -51.5z" />
    <glyph glyph-name="uni01DA" unicode="&#x1da;" horiz-adv-x="562" 
d="M516 0h-168q0 38 5 66h-1q-55 -78 -159 -78q-77 0 -112 43.5t-35 113.5v352h182v-314q0 -41 28 -41q30 0 54 35.5t24 77.5v242h182v-497zM251 617q0 -33 -23.5 -56.5t-56.5 -23.5t-56.5 23.5t-23.5 56.5t23.5 56.5t56.5 23.5t56.5 -23.5t23.5 -56.5zM471 617
q0 -33 -23.5 -56.5t-56.5 -23.5t-56.5 23.5t-23.5 56.5t23.5 56.5t56.5 23.5t56.5 -23.5t23.5 -56.5zM114 811l51 71l117 -62l117 62l49 -69l-168 -124z" />
    <glyph glyph-name="uni01DB" unicode="&#x1db;" horiz-adv-x="664" 
d="M616 675v-407q0 -143 -77 -212.5t-217 -69.5q-151 0 -212.5 69t-61.5 189v431h186v-422q0 -57 22 -84t77 -27q56 0 77.5 26t21.5 90v417h184zM393 906l-26 -76l-209 54l36 96zM514 772q0 -31 -21 -51.5t-51 -20.5t-51 20.5t-21 51.5t21 51.5t51 20.5t51 -20.5t21 -51.5z
M294 772q0 -31 -21 -51.5t-51 -20.5t-51 20.5t-21 51.5t21 51.5t51 20.5t51 -20.5t21 -51.5z" />
    <glyph glyph-name="uni01DC" unicode="&#x1dc;" horiz-adv-x="562" 
d="M516 0h-168q0 38 5 66h-1q-55 -78 -159 -78q-77 0 -112 43.5t-35 113.5v352h182v-314q0 -41 28 -41q30 0 54 35.5t24 77.5v242h182v-497zM471 617q0 -33 -23.5 -56.5t-56.5 -23.5t-56.5 23.5t-23.5 56.5t23.5 56.5t56.5 23.5t56.5 -23.5t23.5 -56.5zM251 617
q0 -33 -23.5 -56.5t-56.5 -23.5t-56.5 23.5t-23.5 56.5t23.5 56.5t56.5 23.5t56.5 -23.5t23.5 -56.5zM352 774l-53 -88l-199 88l65 108z" />
    <glyph glyph-name="Gcaron" unicode="&#x1e6;" horiz-adv-x="664" 
d="M617 368v-333q-105 -47 -243 -47q-172 0 -260 86t-88 236q0 175 103 275.5t289 100.5q107 0 198 -28l-36 -170q-77 30 -169 30t-137.5 -50t-45.5 -136q0 -82 41 -128t124 -46q21 0 38 5v205h186zM553 789l-179 -86l-173 84l38 89l138 -48l140 48z" />
    <glyph glyph-name="gcaron" unicode="&#x1e7;" horiz-adv-x="548" 
d="M526 354h-46q1 -4 1 -12q0 -88 -57.5 -138t-171.5 -50h-6q-8 -8 -8 -18t11.5 -14.5t50.5 -5.5l56 -2q172 -6 172 -151q0 -86 -77.5 -147t-206.5 -61q-107 0 -167 36t-60 108q0 68 71 109l1 1q-44 26 -44 78q0 68 63 98q-75 42 -75 135q0 86 58 138t171 52q52 0 98 -13
h166v-143zM238 -21q-2 0 -7 0.5t-8 0.5v-1q-23 -19 -23 -44q0 -21 18.5 -34t53.5 -13q39 0 58.5 14.5t19.5 36.5q0 37 -45 38zM310 329q0 23 -13.5 37t-39.5 14q-25 0 -39 -13.5t-14 -37.5q0 -23 13.5 -37t39.5 -14q25 0 39 13.5t14 37.5zM450 687l-176 -143l-172 141l66 83
l108 -77l110 77z" />
    <glyph glyph-name="Aringacute" unicode="&#x1fa;" horiz-adv-x="641" 
d="M651 0h-203l-33 120h-207l-33 -120h-184l202 675h251zM376 266l-39 143q-14 48 -24 108h-2q-8 -49 -24 -108l-39 -143h128zM457 902l-203 -31l-19 61l195 48zM429 780q0 -42 -33 -66.5t-84 -24.5q-108 0 -108 82q0 42 33 66.5t84 24.5q108 0 108 -82zM347 775
q0 33 -30 33q-31 0 -31 -32q0 -18 6.5 -25t22.5 -7q32 0 32 31z" />
    <glyph glyph-name="aringacute" unicode="&#x1fb;" horiz-adv-x="529" 
d="M484 0h-170q0 40 4 63h-1q-18 -35 -57 -55t-87 -20q-71 0 -109.5 43.5t-38.5 109.5q0 177 271 177v11q0 24 -15 33.5t-50 9.5q-69 0 -151 -30l-26 135q102 33 198 33q128 0 178 -42.5t50 -133.5v-228q0 -69 4 -106zM296 190v15q-56 0 -76.5 -10.5t-20.5 -35.5
q0 -14 9.5 -24t26.5 -10q26 0 43.5 19.5t17.5 45.5zM423 815l-238 -41l-23 77l229 63zM390 652q0 -54 -39 -86.5t-98 -32.5q-127 0 -127 107q0 54 39 86.5t98 32.5q127 0 127 -107zM294 645q0 24 -8.5 33.5t-26.5 9.5q-17 0 -27 -11t-10 -30q0 -24 8.5 -33.5t26.5 -9.5
q17 0 27 11t10 30z" />
    <glyph glyph-name="AEacute" unicode="&#x1fc;" horiz-adv-x="821" 
d="M778 0h-402v129h-168l-52 -129h-188l299 675h511v-158h-221v-95h200v-152h-200v-109h221v-161zM376 273v246h-11q-28 -77 -57 -147l-41 -99h109zM706 752l-253 -49l-26 96l244 76z" />
    <glyph glyph-name="aeacute" unicode="&#x1fd;" horiz-adv-x="791" 
d="M729 152l16 -133q-89 -31 -190 -31q-157 0 -204 84h-1q-51 -84 -170 -84q-76 0 -115.5 43.5t-39.5 109.5q0 177 271 177v11q0 24 -15 33.5t-50 9.5q-69 0 -151 -30l-26 135q102 33 198 33q106 0 156 -39h1q48 38 135 38q110 0 164.5 -60t54.5 -161l-6 -97h-282
q5 -64 100 -64q74 0 154 25zM474 309h112q3 68 -51 68q-26 0 -42.5 -18.5t-18.5 -49.5zM296 190v15q-56 0 -76.5 -10.5t-20.5 -35.5q0 -14 9.5 -24t26.5 -10q26 0 43.5 19.5t17.5 45.5zM611 674l-194 -131l-76 86l178 150z" />
    <glyph glyph-name="Oslashacute" unicode="&#x1fe;" horiz-adv-x="718" 
d="M637 720l-49 -94q105 -83 105 -271q0 -172 -100 -270.5t-246 -98.5q-47 0 -89 8l-51 -97l-126 58l49 94q-105 83 -105 271q0 172 100 270.5t246 98.5q47 0 89 -8l51 97zM496 454l-158 -303q2 0 10 -0.5t11 -0.5q68 0 106 48t38 139q0 26 -3.5 53.5t-5 37t1.5 26.5z
M222 221l158 304q-6 1 -21 1q-68 0 -106 -48.5t-38 -139.5q0 -26 3.5 -53.5t5 -37t-1.5 -26.5zM475 792l-253 -49l-26 96l244 76z" />
    <glyph glyph-name="oslashacute" unicode="&#x1ff;" horiz-adv-x="564" 
d="M503 558l-49 -92q87 -61 87 -201q0 -122 -72.5 -199.5t-197.5 -77.5q-37 0 -67 6l-50 -94l-93 39l49 92q-87 61 -87 201q0 122 72.5 199.5t197.5 77.5q37 0 67 -6l50 94zM373 313l-98 -185q3 3 4 3q90 0 90 118q0 56 4 64zM191 184l98 185q-3 -3 -4 -3q-90 0 -90 -118
q0 -56 -4 -64zM457 674l-194 -131l-76 86l178 150z" />
    <glyph glyph-name="Scommaaccent" unicode="&#x218;" horiz-adv-x="502" 
d="M430 675l-16 -161q-57 20 -119 20q-74 0 -74 -45q0 -19 19.5 -34.5t49 -25.5t63.5 -27t63.5 -38t49 -60.5t19.5 -91.5q0 -101 -74 -163t-205 -62q-92 0 -165 17l16 177q76 -32 157 -32q70 0 70 44q0 21 -19 37.5t-48 26t-62.5 26.5t-62.5 37t-48 59t-19 92q0 99 74.5 158
t206.5 59q66 0 124 -13zM149 -245l-18 65q32 7 43.5 14t11.5 21q0 5 -1.5 15t-1.5 16q0 29 20 49.5t56 20.5q34 0 54 -21.5t20 -56.5q0 -50 -46.5 -86.5t-137.5 -36.5z" />
    <glyph glyph-name="scommaaccent" unicode="&#x219;" horiz-adv-x="405" 
d="M341 502l-6 -139q-41 12 -83 12q-37 0 -37 -20q0 -10 12.5 -19t30.5 -16t40 -19t40 -27.5t30.5 -44t12.5 -65.5q0 -78 -59.5 -127t-172.5 -49q-61 0 -110 12l7 146q52 -20 106 -20q38 0 38 21q0 16 -25.5 29t-56 25t-56 47.5t-25.5 89.5q0 75 57.5 123.5t170.5 48.5
q43 0 86 -8zM109 -245l-18 65q32 7 43.5 14t11.5 21q0 5 -1.5 15t-1.5 16q0 29 20 49.5t56 20.5q34 0 54 -21.5t20 -56.5q0 -50 -46.5 -86.5t-137.5 -36.5z" />
    <glyph glyph-name="Tcommaaccent" unicode="&#x21a;" horiz-adv-x="502" 
d="M490 515h-146v-515h-186v515h-146v160h478v-160zM150 -245l-18 65q32 7 43.5 14t11.5 21q0 5 -1.5 15t-1.5 16q0 29 20 49.5t56 20.5q34 0 54 -21.5t20 -56.5q0 -50 -46.5 -86.5t-137.5 -36.5z" />
    <glyph glyph-name="tcommaaccent" unicode="&#x21b;" horiz-adv-x="380" 
d="M343 145l10 -141q-64 -16 -118 -16q-93 0 -127.5 35.5t-34.5 135.5v198h-63v140h63v140l182 49v-189h93v-140h-93v-171q0 -26 9 -36.5t30 -10.5q25 0 49 6zM121 -245l-18 65q32 7 43.5 14t11.5 21q0 5 -1.5 15t-1.5 16q0 29 20 49.5t56 20.5q34 0 54 -21.5t20 -56.5
q0 -50 -46.5 -86.5t-137.5 -36.5z" />
    <glyph glyph-name="dotlessj" unicode="&#x237;" horiz-adv-x="277" 
d="M230 497v-508q0 -107 -53.5 -167.5t-166.5 -60.5q-16 0 -35.5 2t-30.5 4l-12 2l9 153q30 -9 61 -9q46 0 46 55v529h182z" />
    <glyph glyph-name="uni0259" unicode="&#x259;" horiz-adv-x="519" 
d="M30 307h282q-2 28 -29.5 46.5t-77.5 18.5q-72 0 -136 -27l-27 130q88 35 192 35q262 0 262 -254q0 -119 -65 -193.5t-183 -74.5q-111 0 -167.5 66t-56.5 175q0 37 6 78zM313 191h-112v-7q0 -62 51 -62q26 0 42.5 19t18.5 50z" />
    <glyph glyph-name="bullseye" unicode="&#x298;" horiz-adv-x="492" 
d="M472 299q0 -94 -66 -160t-160 -66t-160 66t-66 160t66 160t160 66t160 -66t66 -160zM284 299q0 16 -11 27t-27 11t-27 -11t-11 -27t11 -27t27 -11t27 11t11 27z" />
    <glyph glyph-name="apostrophe" unicode="&#x2bc;" horiz-adv-x="146" 
d="M72 420l-61 54q46 49 52.5 79.5t-20.5 60.5q-19 26 -20 57t24 56.5t64 25.5q55 0 80 -53q32 -69 -17 -160q-34 -63 -102 -120z" />
    <glyph glyph-name="circumflex" unicode="&#x2c6;" horiz-adv-x="428" 
d="M388 627l-66 -83l-108 77l-110 -77l-64 81l176 143z" />
    <glyph glyph-name="caron" unicode="&#x2c7;" horiz-adv-x="428" 
d="M388 687l-176 -143l-172 141l66 83l108 -77l110 77z" />
    <glyph glyph-name="breve" unicode="&#x2d8;" horiz-adv-x="387" 
d="M233 724h114q0 -78 -38.5 -129t-116.5 -51t-115 51.5t-37 128.5h113q0 -53 40 -53t40 53z" />
    <glyph glyph-name="dotaccent" unicode="&#x2d9;" horiz-adv-x="286" 
d="M246 638q0 -43 -30 -73t-73 -30t-73 30t-30 73t30 73t73 30t73 -30t30 -73z" />
    <glyph glyph-name="ring" unicode="&#x2da;" horiz-adv-x="386" 
d="M346 676q0 -65 -45.5 -104.5t-113.5 -39.5q-147 0 -147 130q0 65 45.5 104.5t113.5 39.5q147 0 147 -130zM235 668q0 29 -9.5 40.5t-31.5 11.5q-20 0 -31.5 -13.5t-11.5 -36.5q0 -29 9.5 -40.5t31.5 -11.5q20 0 31.5 13.5t11.5 36.5z" />
    <glyph glyph-name="ogonek" unicode="&#x2db;" horiz-adv-x="386" 
d="M115 12l171 -12q-79 -37 -79 -84q0 -25 29 -25t64 22l46 -96q-65 -58 -157 -58q-67 0 -108 30.5t-41 86.5q0 71 75 136z" />
    <glyph glyph-name="tilde" unicode="&#x2dc;" horiz-adv-x="469" 
d="M345 724l84 -64q-51 -106 -139 -106q-38 0 -71.5 22.5t-45.5 22.5q-16 0 -27 -10t-22 -33l-84 64q51 106 139 106q38 0 71.5 -22.5t45.5 -22.5q28 0 49 43z" />
    <glyph glyph-name="hungarumlaut" unicode="&#x2dd;" horiz-adv-x="554" 
d="M514 688l-179 -144l-76 70l164 164zM284 707l-163 -163l-81 69l145 177z" />
    <glyph glyph-name="gravecomb" unicode="&#x300;" horiz-adv-x="0" 
d="M-191 630l-76 -87l-194 129l92 107z" />
    <glyph glyph-name="acutecomb" unicode="&#x301;" horiz-adv-x="0" 
d="M-85 674l-194 -131l-76 86l178 150z" />
    <glyph glyph-name="tildecomb" unicode="&#x303;" horiz-adv-x="0" 
d="M-172 724l84 -64q-51 -106 -139 -106q-38 0 -71.5 22.5t-45.5 22.5q-28 0 -49 -43l-84 64q51 106 139 106q38 0 71.5 -22.5t45.5 -22.5q16 0 27 10t22 33z" />
    <glyph glyph-name="uni0307" unicode="&#x307;" horiz-adv-x="0" 
d="M-179 638q0 -43 -30 -73t-73 -30t-73 30t-30 73t30 73t73 30t73 -30t30 -73z" />
    <glyph glyph-name="uni0309" unicode="&#x309;" horiz-adv-x="0" 
d="M-296 541l-21 78q36 10 36 31q0 20 -34 20q-42 0 -76 -17l-24 90q67 29 141 29q125 0 125 -94q0 -30 -16 -56t-42 -42t-47.5 -25t-41.5 -14z" />
    <glyph glyph-name="uni0312" unicode="&#x312;" horiz-adv-x="0" 
d="M-177 756l18 -65q-55 -11 -55 -34q0 -6 1.5 -15.5t1.5 -16.5q0 -32 -21.5 -51t-54.5 -19q-34 0 -54 23.5t-20 55.5q0 47 45 84.5t139 37.5z" />
    <glyph glyph-name="uni0315" unicode="&#x315;" horiz-adv-x="105" 
d="M156 772l-69 -236l-115 21l43 240z" />
    <glyph glyph-name="dotbelowcomb" unicode="&#x323;" horiz-adv-x="0" 
d="M-179 -141q0 -43 -30 -73t-73 -30t-73 30t-30 73t30 73t73 30t73 -30t30 -73z" />
    <glyph glyph-name="uni0326" unicode="&#x326;" horiz-adv-x="0" 
d="M-390 -245l-18 65q32 7 43.5 14t11.5 21q0 5 -1.5 15t-1.5 16q0 29 20 49.5t56 20.5q34 0 54 -21.5t20 -56.5q0 -50 -46.5 -86.5t-137.5 -36.5z" />
    <glyph glyph-name="uni0327" unicode="&#x327;" horiz-adv-x="0" 
d="M-380 -77l146 38q38 -59 32 -107.5t-50 -86.5h-130q34 37 35.5 72t-33.5 84z" />
    <glyph glyph-name="uni037E" unicode="&#x37e;" horiz-adv-x="315" 
d="M275 365q0 -45 -32.5 -77.5t-77.5 -32.5t-77.5 32.5t-32.5 77.5t32.5 77.5t77.5 32.5t77.5 -32.5t32.5 -77.5zM118 -200l-73 65q55 59 63 95.5t-25 72.5q-19 21 -22.5 50t6.5 55t36 44t62 18q63 0 94 -59q38 -74 -8 -176q-39 -87 -133 -165z" />
    <glyph glyph-name="Delta" unicode="&#x394;" horiz-adv-x="624" 
d="M600 0h-576v143l169 532h229l178 -532v-143zM393 168l-56 186q-23 78 -35 140h-2q-13 -68 -35 -143l-53 -183h181z" />
    <glyph glyph-name="Omega" unicode="&#x3a9;" horiz-adv-x="704" 
d="M675 0h-292v143q48 33 68.5 83.5t20.5 127.5q0 166 -123 166q-56 0 -88 -43.5t-32 -120.5q0 -82 20 -128.5t71 -83.5v-144h-291v146h94q-92 61 -92 218q0 140 91.5 232.5t241.5 92.5q136 0 221 -75.5t85 -232.5q0 -162 -95 -235h100v-146z" />
    <glyph glyph-name="mu" unicode="&#x3bc;" horiz-adv-x="577" 
d="M565 139v-142q-40 -9 -70 -9q-68 0 -96 20.5t-37 53.5h-1q-35 -69 -113 -69q-20 0 -36 8l21 -234h-186v730h182v-314q0 -41 28 -41q34 0 56 32t22 85v238h182v-307q0 -31 9 -41t39 -10z" />
    <glyph glyph-name="pi" unicode="&#x3c0;" horiz-adv-x="626" 
d="M585 141l13 -144q-36 -9 -78 -9q-79 0 -116.5 29t-51.5 103q-14 73 -14 227h-74q0 -223 -47 -369l-190 44q63 186 63 325h-80v150h591v-150h-79q0 -118 10 -169q6 -38 36 -38q9 0 17 1z" />
    <glyph glyph-name="uni1E02" unicode="&#x1e02;" horiz-adv-x="597" 
d="M48 0v674q125 6 240 6q265 0 265 -180q0 -43 -20.5 -80t-58.5 -57v-1q46 -17 73.5 -56t27.5 -88q0 -95 -77 -157.5t-213 -62.5q-11 0 -91 1t-146 1zM234 531v-118q11 -1 42 -1q80 0 80 62q0 59 -77 59q-19 0 -45 -2zM234 274v-126q24 -2 53 -2q86 0 86 66q0 28 -22 45.5
t-67 17.5q-39 0 -50 -1zM385 806q0 -43 -30 -73t-73 -30t-73 30t-30 73t30 73t73 30t73 -30t30 -73z" />
    <glyph glyph-name="uni1E03" unicode="&#x1e03;" horiz-adv-x="559" 
d="M229 730v-174q0 -56 -7 -103h1q37 56 129 56q89 0 135.5 -62t46.5 -170q0 -125 -73.5 -207.5t-208.5 -82.5q-50 0 -101 7t-77 14l-27 7v715h182zM229 242v-103q15 -6 35 -6q78 0 78 125q0 53 -12 76t-37 23q-27 0 -45.5 -30t-18.5 -85zM241 871q0 -43 -30 -73t-73 -30
t-73 30t-30 73t30 73t73 30t73 -30t30 -73z" />
    <glyph glyph-name="uni1E0A" unicode="&#x1e0a;" horiz-adv-x="651" 
d="M48 1v672q106 6 243 6q335 0 335 -325q0 -171 -98.5 -265t-265.5 -94q-112 0 -214 6zM234 520v-361q12 -3 43 -3q66 0 107 46.5t41 136.5t-29 136.5t-115 46.5q-33 0 -47 -2zM388 806q0 -43 -30 -73t-73 -30t-73 30t-30 73t30 73t73 30t73 -30t30 -73z" />
    <glyph glyph-name="uni1E0B" unicode="&#x1e0b;" horiz-adv-x="559" 
d="M512 0h-165q0 34 3 56h-2q-46 -69 -143 -69q-87 0 -133.5 62.5t-46.5 169.5q0 124 72.5 207t199.5 83q15 0 33 -2v223h182v-730zM330 258v102q-15 4 -35 4q-78 0 -78 -125q0 -100 49 -100q27 0 45.5 31t18.5 88zM524 871q0 -43 -30 -73t-73 -30t-73 30t-30 73t30 73
t73 30t73 -30t30 -73z" />
    <glyph glyph-name="uni1E1E" unicode="&#x1e1e;" horiz-adv-x="470" 
d="M445 515h-211v-113h197v-153h-197v-249h-186v675h397v-160zM337 806q0 -43 -30 -73t-73 -30t-73 30t-30 73t30 73t73 30t73 -30t30 -73z" />
    <glyph glyph-name="uni1E1F" unicode="&#x1e1f;" horiz-adv-x="361" 
d="M340 497v-140h-85v-357h-182v357h-63v140h63v26q0 113 54 165.5t164 52.5l72 -6l-11 -150q-25 8 -50 8q-24 0 -35.5 -12.5t-11.5 -42.5v-41h85zM333 871q0 -43 -30 -73t-73 -30t-73 30t-30 73t30 73t73 30t73 -30t30 -73z" />
    <glyph glyph-name="uni1E40" unicode="&#x1e40;" horiz-adv-x="900" 
d="M891 0h-189l-22 241q-13 136 -12 256h-3q-26 -138 -61 -253l-74 -244h-174l-74 244q-47 159 -62 253h-3q2 -111 -11 -256l-21 -241h-176l72 675h260l73 -239q23 -78 37 -162h2q17 106 34 162l73 239h259zM555 806q0 -43 -30 -73t-73 -30t-73 30t-30 73t30 73t73 30
t73 -30t30 -73z" />
    <glyph glyph-name="uni1E41" unicode="&#x1e41;" horiz-adv-x="848" 
d="M801 0h-182v308q0 47 -28 47q-27 0 -52 -34.5t-25 -80.5v-240h-180v308q0 47 -28 47q-27 0 -52 -34.5t-25 -80.5v-240h-182v497h169q0 -35 -5 -67h1q50 79 153 79q105 0 135 -79q21 37 61 58t89 21q151 0 151 -170v-339zM527 648q0 -43 -30 -73t-73 -30t-73 30t-30 73
t30 73t73 30t73 -30t30 -73z" />
    <glyph glyph-name="uni1E56" unicode="&#x1e56;" horiz-adv-x="558" 
d="M234 0h-186v675q102 5 219 5q136 0 208.5 -57.5t72.5 -169.5q0 -111 -74.5 -184.5t-212.5 -73.5l-27 1v-196zM234 526v-175q16 -3 35 -3q41 0 64 23.5t23 65.5q0 90 -94 90zM380 806q0 -43 -30 -73t-73 -30t-73 30t-30 73t30 73t73 30t73 -30t30 -73z" />
    <glyph glyph-name="uni1E57" unicode="&#x1e57;" horiz-adv-x="559" 
d="M229 -233h-182v730h165q0 -34 -2 -56h2q43 68 142 68q87 0 133.5 -62t46.5 -169q0 -132 -67 -209.5t-203 -77.5q-22 0 -35 3v-227zM229 239v-102q20 -4 35 -4q78 0 78 125q0 100 -49 100q-27 0 -45.5 -31t-18.5 -88zM399 648q0 -43 -30 -73t-73 -30t-73 30t-30 73t30 73
t73 30t73 -30t30 -73z" />
    <glyph glyph-name="uni1E60" unicode="&#x1e60;" horiz-adv-x="502" 
d="M430 675l-16 -161q-57 20 -119 20q-74 0 -74 -45q0 -19 19.5 -34.5t49 -25.5t63.5 -27t63.5 -38t49 -60.5t19.5 -91.5q0 -101 -74 -163t-205 -62q-92 0 -165 17l16 177q76 -32 157 -32q70 0 70 44q0 21 -19 37.5t-48 26t-62.5 26.5t-62.5 37t-48 59t-19 92q0 99 74.5 158
t206.5 59q66 0 124 -13zM354 816q0 -43 -30 -73t-73 -30t-73 30t-30 73t30 73t73 30t73 -30t30 -73z" />
    <glyph glyph-name="uni1E61" unicode="&#x1e61;" horiz-adv-x="405" 
d="M341 502l-6 -139q-41 12 -83 12q-37 0 -37 -20q0 -10 12.5 -19t30.5 -16t40 -19t40 -27.5t30.5 -44t12.5 -65.5q0 -78 -59.5 -127t-172.5 -49q-61 0 -110 12l7 146q52 -20 106 -20q38 0 38 21q0 16 -25.5 29t-56 25t-56 47.5t-25.5 89.5q0 75 57.5 123.5t170.5 48.5
q43 0 86 -8zM305 648q0 -43 -30 -73t-73 -30t-73 30t-30 73t30 73t73 30t73 -30t30 -73z" />
    <glyph glyph-name="uni1E6A" unicode="&#x1e6a;" horiz-adv-x="502" 
d="M490 515h-146v-515h-186v515h-146v160h478v-160zM354 806q0 -43 -30 -73t-73 -30t-73 30t-30 73t30 73t73 30t73 -30t30 -73z" />
    <glyph glyph-name="uni1E6B" unicode="&#x1e6b;" horiz-adv-x="380" 
d="M343 145l10 -141q-64 -16 -118 -16q-93 0 -127.5 35.5t-34.5 135.5v198h-63v140h63v140l182 49v-189h93v-140h-93v-171q0 -26 9 -36.5t30 -10.5q25 0 49 6zM267 806q0 -43 -30 -73t-73 -30t-73 30t-30 73t30 73t73 30t73 -30t30 -73z" />
    <glyph glyph-name="Wgrave" unicode="&#x1e80;" horiz-adv-x="961" 
d="M951 675l-152 -675h-229l-66 261q-12 51 -22 151h-3q-10 -100 -22 -151l-66 -261h-229l-152 675h198l51 -269q22 -116 29 -201h3q14 112 36 201l68 269h186l68 -269q30 -115 40 -201h3q14 120 30 210l46 260h183zM605 799l-26 -96l-253 49l35 123z" />
    <glyph glyph-name="wgrave" unicode="&#x1e81;" horiz-adv-x="800" 
d="M798 497l-145 -497h-200l-31 126q-19 81 -28 136h-1q-9 -55 -28 -136l-31 -126h-188l-144 497h198l26 -109q26 -112 35 -166h2q10 76 33 166l27 109h170l27 -109q24 -95 36 -166h2q9 66 32 166l26 109h182zM509 630l-76 -87l-194 129l92 107z" />
    <glyph glyph-name="Wacute" unicode="&#x1e82;" horiz-adv-x="961" 
d="M951 675l-152 -675h-229l-66 261q-12 51 -22 151h-3q-10 -100 -22 -151l-66 -261h-229l-152 675h198l51 -269q22 -116 29 -201h3q14 112 36 201l68 269h186l68 -269q30 -115 40 -201h3q14 120 30 210l46 260h183zM654 752l-253 -49l-26 96l244 76z" />
    <glyph glyph-name="wacute" unicode="&#x1e83;" horiz-adv-x="800" 
d="M798 497l-145 -497h-200l-31 126q-19 81 -28 136h-1q-9 -55 -28 -136l-31 -126h-188l-144 497h198l26 -109q26 -112 35 -166h2q10 76 33 166l27 109h170l27 -109q24 -95 36 -166h2q9 66 32 166l26 109h182zM581 674l-194 -131l-76 86l178 150z" />
    <glyph glyph-name="Wdieresis" unicode="&#x1e84;" horiz-adv-x="961" 
d="M951 675l-152 -675h-229l-66 261q-12 51 -22 151h-3q-10 -100 -22 -151l-66 -261h-229l-152 675h198l51 -269q22 -116 29 -201h3q14 112 36 201l68 269h186l68 -269q30 -115 40 -201h3q14 120 30 210l46 260h183zM691 796q0 -38 -26.5 -64.5t-64.5 -26.5t-64.5 26.5
t-26.5 64.5t26.5 64.5t64.5 26.5t64.5 -26.5t26.5 -64.5zM473 796q0 -38 -26.5 -64.5t-64.5 -26.5t-64.5 26.5t-26.5 64.5t26.5 64.5t64.5 26.5t64.5 -26.5t26.5 -64.5z" />
    <glyph glyph-name="wdieresis" unicode="&#x1e85;" horiz-adv-x="800" 
d="M798 497l-145 -497h-200l-31 126q-19 81 -28 136h-1q-9 -55 -28 -136l-31 -126h-188l-144 497h198l26 -109q26 -112 35 -166h2q10 76 33 166l27 109h170l27 -109q24 -95 36 -166h2q9 66 32 166l26 109h182zM607 640q0 -38 -26.5 -64.5t-64.5 -26.5t-64.5 26.5t-26.5 64.5
t26.5 64.5t64.5 26.5t64.5 -26.5t26.5 -64.5zM390 640q0 -38 -27 -64.5t-64 -26.5t-64 26.5t-27 64.5t27 64.5t64 26.5t64 -26.5t27 -64.5z" />
    <glyph glyph-name="uni1E9E" unicode="&#x1e9e;" horiz-adv-x="1004" 
d="M430 675l-16 -161q-57 20 -119 20q-74 0 -74 -45q0 -19 19.5 -34.5t49 -25.5t63.5 -27t63.5 -38t49 -60.5t19.5 -91.5q0 -101 -74 -163t-205 -62q-92 0 -165 17l16 177q76 -32 157 -32q70 0 70 44q0 21 -19 37.5t-48 26t-62.5 26.5t-62.5 37t-48 59t-19 92q0 99 74.5 158
t206.5 59q66 0 124 -13zM932 675l-16 -161q-57 20 -119 20q-74 0 -74 -45q0 -19 19.5 -34.5t49 -25.5t63.5 -27t63.5 -38t49 -60.5t19.5 -91.5q0 -101 -74 -163t-205 -62q-92 0 -165 17l16 177q76 -32 157 -32q70 0 70 44q0 21 -19 37.5t-48 26t-62.5 26.5t-62.5 37t-48 59
t-19 92q0 99 74.5 158t206.5 59q66 0 124 -13z" />
    <glyph glyph-name="uni1EA0" unicode="&#x1ea0;" horiz-adv-x="641" 
d="M651 0h-203l-33 120h-207l-33 -120h-184l202 675h251zM376 266l-39 143q-14 48 -24 108h-2q-8 -49 -24 -108l-39 -143h128zM412 -141q0 -43 -30 -73t-73 -30t-73 30t-30 73t30 73t73 30t73 -30t30 -73z" />
    <glyph glyph-name="uni1EA1" unicode="&#x1ea1;" horiz-adv-x="529" 
d="M484 0h-170q0 40 4 63h-1q-18 -35 -57 -55t-87 -20q-71 0 -109.5 43.5t-38.5 109.5q0 177 271 177v11q0 24 -15 33.5t-50 9.5q-69 0 -151 -30l-26 135q102 33 198 33q128 0 178 -42.5t50 -133.5v-228q0 -69 4 -106zM296 190v15q-56 0 -76.5 -10.5t-20.5 -35.5
q0 -14 9.5 -24t26.5 -10q26 0 43.5 19.5t17.5 45.5zM376 -141q0 -43 -30 -73t-73 -30t-73 30t-30 73t30 73t73 30t73 -30t30 -73z" />
    <glyph glyph-name="uni1EA2" unicode="&#x1ea2;" horiz-adv-x="641" 
d="M651 0h-203l-33 120h-207l-33 -120h-184l202 675h251zM376 266l-39 143q-14 48 -24 108h-2q-8 -49 -24 -108l-39 -143h128zM319 710l-22 78q36 10 36 31q0 20 -34 20q-37 0 -75 -17l-26 90q64 29 142 29q125 0 125 -94q0 -30 -16 -56t-41.5 -42t-47 -25t-41.5 -14z" />
    <glyph glyph-name="uni1EA3" unicode="&#x1ea3;" horiz-adv-x="529" 
d="M484 0h-170q0 40 4 63h-1q-18 -35 -57 -55t-87 -20q-71 0 -109.5 43.5t-38.5 109.5q0 177 271 177v11q0 24 -15 33.5t-50 9.5q-69 0 -151 -30l-26 135q102 33 198 33q128 0 178 -42.5t50 -133.5v-228q0 -69 4 -106zM296 190v15q-56 0 -76.5 -10.5t-20.5 -35.5
q0 -14 9.5 -24t26.5 -10q26 0 43.5 19.5t17.5 45.5zM257 541l-21 78q36 10 36 31q0 20 -34 20q-42 0 -76 -17l-24 90q67 29 141 29q125 0 125 -94q0 -30 -16 -56t-42 -42t-47.5 -25t-41.5 -14z" />
    <glyph glyph-name="uni1EA4" unicode="&#x1ea4;" horiz-adv-x="641" 
d="M651 0h-203l-33 120h-207l-33 -120h-184l202 675h251zM376 266l-39 143q-14 48 -24 108h-2q-8 -49 -24 -108l-39 -143h128zM431 885l-202 -51l-25 68l192 78zM479 771l-32 -78l-135 41l-130 -40l-29 74l163 75z" />
    <glyph glyph-name="uni1EA5" unicode="&#x1ea5;" horiz-adv-x="529" 
d="M484 0h-170q0 40 4 63h-1q-18 -35 -57 -55t-87 -20q-71 0 -109.5 43.5t-38.5 109.5q0 177 271 177v11q0 24 -15 33.5t-50 9.5q-69 0 -151 -30l-26 135q102 33 198 33q128 0 178 -42.5t50 -133.5v-228q0 -69 4 -106zM296 190v15q-56 0 -76.5 -10.5t-20.5 -35.5
q0 -14 9.5 -24t26.5 -10q26 0 43.5 19.5t17.5 45.5zM431 600l-45 -70l-112 51l-112 -51l-45 70l157 94zM383 755l-210 -55l-29 71l197 77z" />
    <glyph glyph-name="uni1EA6" unicode="&#x1ea6;" horiz-adv-x="641" 
d="M651 0h-203l-33 120h-207l-33 -120h-184l202 675h251zM376 266l-39 143q-14 48 -24 108h-2q-8 -49 -24 -108l-39 -143h128zM479 771l-32 -78l-135 41l-130 -40l-29 74l163 75zM424 910l-20 -68l-204 45l30 93z" />
    <glyph glyph-name="uni1EA7" unicode="&#x1ea7;" horiz-adv-x="529" 
d="M484 0h-170q0 40 4 63h-1q-18 -35 -57 -55t-87 -20q-71 0 -109.5 43.5t-38.5 109.5q0 177 271 177v11q0 24 -15 33.5t-50 9.5q-69 0 -151 -30l-26 135q102 33 198 33q128 0 178 -42.5t50 -133.5v-228q0 -69 4 -106zM296 190v15q-56 0 -76.5 -10.5t-20.5 -35.5
q0 -14 9.5 -24t26.5 -10q26 0 43.5 19.5t17.5 45.5zM431 600l-45 -70l-112 51l-112 -51l-45 70l157 94zM354 700l-210 55l42 93l197 -77z" />
    <glyph glyph-name="uni1EA8" unicode="&#x1ea8;" horiz-adv-x="641" 
d="M651 0h-203l-33 120h-207l-33 -120h-184l202 675h251zM376 266l-39 143q-14 48 -24 108h-2q-8 -49 -24 -108l-39 -143h128zM412 821l-75 32q25 9 25 23q0 20 -36 20q-32 0 -63 -14l-19 73q52 25 122 25q109 0 109 -80q0 -46 -63 -79zM479 771l-32 -78l-135 41l-130 -40
l-29 74l163 75z" />
    <glyph glyph-name="uni1EA9" unicode="&#x1ea9;" horiz-adv-x="529" 
d="M484 0h-170q0 40 4 63h-1q-18 -35 -57 -55t-87 -20q-71 0 -109.5 43.5t-38.5 109.5q0 177 271 177v11q0 24 -15 33.5t-50 9.5q-69 0 -151 -30l-26 135q102 33 198 33q128 0 178 -42.5t50 -133.5v-228q0 -69 4 -106zM296 190v15q-56 0 -76.5 -10.5t-20.5 -35.5
q0 -14 9.5 -24t26.5 -10q26 0 43.5 19.5t17.5 45.5zM431 600l-45 -70l-112 51l-112 -51l-45 70l157 94zM370 669l-72 42q24 13 24 29q0 19 -38 19q-36 0 -68 -18l-21 77q57 27 124 27q54 0 84.5 -21t30.5 -58q0 -34 -19.5 -59t-44.5 -38z" />
    <glyph glyph-name="uni1EAA" unicode="&#x1eaa;" horiz-adv-x="641" 
d="M651 0h-203l-33 120h-207l-33 -120h-184l202 675h251zM376 266l-39 143q-14 48 -24 108h-2q-8 -49 -24 -108l-39 -143h128zM479 771l-32 -78l-135 41l-130 -40l-29 74l163 75zM411 977l75 -46q-41 -77 -111 -77q-30 0 -52.5 16t-32.5 16q-23 0 -39 -29l-75 46
q41 77 111 77q30 0 52.5 -16t32.5 -16q23 0 39 29z" />
    <glyph glyph-name="uni1EAB" unicode="&#x1eab;" horiz-adv-x="529" 
d="M484 0h-170q0 40 4 63h-1q-18 -35 -57 -55t-87 -20q-71 0 -109.5 43.5t-38.5 109.5q0 177 271 177v11q0 24 -15 33.5t-50 9.5q-69 0 -151 -30l-26 135q102 33 198 33q128 0 178 -42.5t50 -133.5v-228q0 -69 4 -106zM296 190v15q-56 0 -76.5 -10.5t-20.5 -35.5
q0 -14 9.5 -24t26.5 -10q26 0 43.5 19.5t17.5 45.5zM431 600l-45 -70l-112 51l-112 -51l-45 70l157 94zM364 827l75 -46q-41 -77 -111 -77q-30 0 -52.5 16t-32.5 16q-23 0 -39 -29l-75 46q41 77 111 77q30 0 52.5 -16t32.5 -16q23 0 39 29z" />
    <glyph glyph-name="uni1EAC" unicode="&#x1eac;" horiz-adv-x="641" 
d="M651 0h-203l-33 120h-207l-33 -120h-184l202 675h251zM376 266l-39 143q-14 48 -24 108h-2q-8 -49 -24 -108l-39 -143h128zM412 -141q0 -43 -30 -73t-73 -30t-73 30t-30 73t30 73t73 30t73 -30t30 -73zM492 792l-38 -89l-138 48l-140 -48l-36 87l179 86z" />
    <glyph glyph-name="uni1EAD" unicode="&#x1ead;" horiz-adv-x="529" 
d="M484 0h-170q0 40 4 63h-1q-18 -35 -57 -55t-87 -20q-71 0 -109.5 43.5t-38.5 109.5q0 177 271 177v11q0 24 -15 33.5t-50 9.5q-69 0 -151 -30l-26 135q102 33 198 33q128 0 178 -42.5t50 -133.5v-228q0 -69 4 -106zM296 190v15q-56 0 -76.5 -10.5t-20.5 -35.5
q0 -14 9.5 -24t26.5 -10q26 0 43.5 19.5t17.5 45.5zM376 -141q0 -43 -30 -73t-73 -30t-73 30t-30 73t30 73t73 30t73 -30t30 -73zM449 627l-66 -83l-108 77l-110 -77l-64 81l176 143z" />
    <glyph glyph-name="uni1EAE" unicode="&#x1eae;" horiz-adv-x="641" 
d="M651 0h-203l-33 120h-207l-33 -120h-184l202 675h251zM376 266l-39 143q-14 48 -24 108h-2q-8 -49 -24 -108l-39 -143h128zM363 819h102q0 -54 -36.5 -87.5t-114.5 -33.5q-76 0 -112.5 33.5t-36.5 87.5h101q0 -16 13 -29t36 -13t35.5 12.5t12.5 29.5zM465 885l-202 -51
l-25 68l192 78z" />
    <glyph glyph-name="uni1EAF" unicode="&#x1eaf;" horiz-adv-x="529" 
d="M484 0h-170q0 40 4 63h-1q-18 -35 -57 -55t-87 -20q-71 0 -109.5 43.5t-38.5 109.5q0 177 271 177v11q0 24 -15 33.5t-50 9.5q-69 0 -151 -30l-26 135q102 33 198 33q128 0 178 -42.5t50 -133.5v-228q0 -69 4 -106zM296 190v15q-56 0 -76.5 -10.5t-20.5 -35.5
q0 -14 9.5 -24t26.5 -10q26 0 43.5 19.5t17.5 45.5zM312 675h105q0 -56 -35.5 -92.5t-107.5 -36.5t-106 36.5t-34 92.5h104q0 -37 37 -37t37 37zM417 755l-210 -55l-29 71l197 77z" />
    <glyph glyph-name="uni1EB0" unicode="&#x1eb0;" horiz-adv-x="641" 
d="M651 0h-203l-33 120h-207l-33 -120h-184l202 675h251zM376 266l-39 143q-14 48 -24 108h-2q-8 -49 -24 -108l-39 -143h128zM363 819h102q0 -54 -36.5 -87.5t-114.5 -33.5q-76 0 -112.5 33.5t-36.5 87.5h101q0 -16 13 -29t36 -13t35.5 12.5t12.5 29.5zM389 903l-21 -67
l-203 52l33 92z" />
    <glyph glyph-name="uni1EB1" unicode="&#x1eb1;" horiz-adv-x="529" 
d="M484 0h-170q0 40 4 63h-1q-18 -35 -57 -55t-87 -20q-71 0 -109.5 43.5t-38.5 109.5q0 177 271 177v11q0 24 -15 33.5t-50 9.5q-69 0 -151 -30l-26 135q102 33 198 33q128 0 178 -42.5t50 -133.5v-228q0 -69 4 -106zM296 190v15q-56 0 -76.5 -10.5t-20.5 -35.5
q0 -14 9.5 -24t26.5 -10q26 0 43.5 19.5t17.5 45.5zM312 675h105q0 -56 -35.5 -92.5t-107.5 -36.5t-106 36.5t-34 92.5h104q0 -37 37 -37t37 37zM344 700l-210 55l42 93l197 -77z" />
    <glyph glyph-name="uni1EB2" unicode="&#x1eb2;" horiz-adv-x="641" 
d="M651 0h-203l-33 120h-207l-33 -120h-184l202 675h251zM376 266l-39 143q-14 48 -24 108h-2q-8 -49 -24 -108l-39 -143h128zM364 815h102q0 -54 -36.5 -87.5t-114.5 -33.5q-76 0 -112.5 33.5t-36.5 87.5h101q0 -16 13 -29t36 -13t35.5 12.5t12.5 29.5zM303 813l-15 54
q10 3 19 10t9 16q0 16 -32 16q-28 0 -60 -12l-18 62q47 21 116 21q100 0 100 -65q0 -22 -13 -40.5t-33.5 -31t-38.5 -19.5t-34 -11z" />
    <glyph glyph-name="uni1EB3" unicode="&#x1eb3;" horiz-adv-x="529" 
d="M484 0h-170q0 40 4 63h-1q-18 -35 -57 -55t-87 -20q-71 0 -109.5 43.5t-38.5 109.5q0 177 271 177v11q0 24 -15 33.5t-50 9.5q-69 0 -151 -30l-26 135q102 33 198 33q128 0 178 -42.5t50 -133.5v-228q0 -69 4 -106zM296 190v15q-56 0 -76.5 -10.5t-20.5 -35.5
q0 -14 9.5 -24t26.5 -10q26 0 43.5 19.5t17.5 45.5zM315 678h112q0 -60 -38 -99t-115 -39t-113.5 39t-36.5 99h111q0 -41 40 -41t40 41zM264 685l-16 65q32 7 32 25q0 16 -29 16q-36 0 -62 -13l-19 73q48 23 116 23q51 0 79 -19.5t28 -56.5q0 -26 -14.5 -47t-37.5 -34
t-41 -20.5t-36 -11.5z" />
    <glyph glyph-name="uni1EB4" unicode="&#x1eb4;" horiz-adv-x="641" 
d="M651 0h-203l-33 120h-207l-33 -120h-184l202 675h251zM376 266l-39 143q-14 48 -24 108h-2q-8 -49 -24 -108l-39 -143h128zM396 977l75 -46q-41 -77 -111 -77q-30 0 -52.5 16t-32.5 16q-23 0 -39 -29l-75 46q41 77 111 77q30 0 52.5 -16t32.5 -16q23 0 39 29zM363 819
h102q0 -54 -36.5 -87.5t-114.5 -33.5q-76 0 -112.5 33.5t-36.5 87.5h101q0 -16 13 -29t36 -13t35.5 12.5t12.5 29.5z" />
    <glyph glyph-name="uni1EB5" unicode="&#x1eb5;" horiz-adv-x="529" 
d="M484 0h-170q0 40 4 63h-1q-18 -35 -57 -55t-87 -20q-71 0 -109.5 43.5t-38.5 109.5q0 177 271 177v11q0 24 -15 33.5t-50 9.5q-69 0 -151 -30l-26 135q102 33 198 33q128 0 178 -42.5t50 -133.5v-228q0 -69 4 -106zM296 190v15q-56 0 -76.5 -10.5t-20.5 -35.5
q0 -14 9.5 -24t26.5 -10q26 0 43.5 19.5t17.5 45.5zM355 837l75 -46q-41 -77 -111 -77q-30 0 -52.5 16t-32.5 16q-23 0 -39 -29l-75 46q41 77 111 77q30 0 52.5 -16t32.5 -16q23 0 39 29zM312 675h105q0 -56 -35.5 -92.5t-107.5 -36.5t-106 36.5t-34 92.5h104q0 -37 37 -37
t37 37z" />
    <glyph glyph-name="uni1EB6" unicode="&#x1eb6;" horiz-adv-x="641" 
d="M651 0h-203l-33 120h-207l-33 -120h-184l202 675h251zM376 266l-39 143q-14 48 -24 108h-2q-8 -49 -24 -108l-39 -143h128zM412 -141q0 -43 -30 -73t-73 -30t-73 30t-30 73t30 73t73 30t73 -30t30 -73zM373 869h103q0 -67 -41.5 -112t-119.5 -45q-75 0 -117 45.5
t-42 111.5h102q0 -22 16.5 -36.5t41.5 -14.5q26 0 41.5 14.5t15.5 36.5z" />
    <glyph glyph-name="uni1EB7" unicode="&#x1eb7;" horiz-adv-x="529" 
d="M484 0h-170q0 40 4 63h-1q-18 -35 -57 -55t-87 -20q-71 0 -109.5 43.5t-38.5 109.5q0 177 271 177v11q0 24 -15 33.5t-50 9.5q-69 0 -151 -30l-26 135q102 33 198 33q128 0 178 -42.5t50 -133.5v-228q0 -69 4 -106zM296 190v15q-56 0 -76.5 -10.5t-20.5 -35.5
q0 -14 9.5 -24t26.5 -10q26 0 43.5 19.5t17.5 45.5zM376 -141q0 -43 -30 -73t-73 -30t-73 30t-30 73t30 73t73 30t73 -30t30 -73zM315 724h114q0 -78 -38.5 -129t-116.5 -51t-115 51.5t-37 128.5h113q0 -53 40 -53t40 53z" />
    <glyph glyph-name="uni1EB8" unicode="&#x1eb8;" horiz-adv-x="506" 
d="M463 0h-415v675h415v-158h-229v-95h208v-152h-208v-109h229v-161zM360 -141q0 -43 -30 -73t-73 -30t-73 30t-30 73t30 73t73 30t73 -30t30 -73z" />
    <glyph glyph-name="uni1EB9" unicode="&#x1eb9;" horiz-adv-x="524" 
d="M462 152l16 -133q-89 -31 -190 -31q-264 0 -264 254q0 116 68.5 191.5t184.5 75.5q110 0 164.5 -60t54.5 -161l-6 -97h-282q5 -64 100 -64q74 0 154 25zM207 309h112q3 68 -51 68q-26 0 -42.5 -18.5t-18.5 -49.5zM379 -151q0 -43 -30 -73t-73 -30t-73 30t-30 73t30 73
t73 30t73 -30t30 -73z" />
    <glyph glyph-name="uni1EBA" unicode="&#x1eba;" horiz-adv-x="506" 
d="M463 0h-415v675h415v-158h-229v-95h208v-152h-208v-109h229v-161zM242 710l-22 78q36 10 36 31q0 20 -34 20q-37 0 -75 -17l-26 90q64 29 142 29q125 0 125 -94q0 -30 -16 -56t-41.5 -42t-47 -25t-41.5 -14z" />
    <glyph glyph-name="uni1EBB" unicode="&#x1ebb;" horiz-adv-x="524" 
d="M462 152l16 -133q-89 -31 -190 -31q-264 0 -264 254q0 116 68.5 191.5t184.5 75.5q110 0 164.5 -60t54.5 -161l-6 -97h-282q5 -64 100 -64q74 0 154 25zM207 309h112q3 68 -51 68q-26 0 -42.5 -18.5t-18.5 -49.5zM277 541l-21 78q36 10 36 31q0 20 -34 20q-42 0 -76 -17
l-24 90q67 29 141 29q125 0 125 -94q0 -30 -16 -56t-42 -42t-47.5 -25t-41.5 -14z" />
    <glyph glyph-name="uni1EBC" unicode="&#x1ebc;" horiz-adv-x="506" 
d="M463 0h-415v675h415v-158h-229v-95h208v-152h-208v-109h229v-161zM371 870l88 -58q-54 -95 -145 -95q-40 0 -74.5 20t-46.5 20q-30 0 -51 -39l-88 58q54 95 145 95q40 0 74.5 -20t46.5 -20q30 0 51 39z" />
    <glyph glyph-name="uni1EBD" unicode="&#x1ebd;" horiz-adv-x="524" 
d="M462 152l16 -133q-89 -31 -190 -31q-264 0 -264 254q0 116 68.5 191.5t184.5 75.5q110 0 164.5 -60t54.5 -161l-6 -97h-282q5 -64 100 -64q74 0 154 25zM207 309h112q3 68 -51 68q-26 0 -42.5 -18.5t-18.5 -49.5zM372 724l84 -64q-51 -106 -139 -106q-38 0 -71.5 22.5
t-45.5 22.5q-28 0 -49 -43l-84 64q51 106 139 106q38 0 71.5 -22.5t45.5 -22.5q16 0 27 10t22 33z" />
    <glyph glyph-name="uni1EBE" unicode="&#x1ebe;" horiz-adv-x="506" 
d="M463 0h-415v675h415v-158h-229v-95h208v-152h-208v-109h229v-161zM370 885l-202 -51l-25 68l192 78zM418 771l-32 -78l-135 41l-130 -40l-29 74l163 75z" />
    <glyph glyph-name="uni1EBF" unicode="&#x1ebf;" horiz-adv-x="524" 
d="M462 152l16 -133q-89 -31 -190 -31q-264 0 -264 254q0 116 68.5 191.5t184.5 75.5q110 0 164.5 -60t54.5 -161l-6 -97h-282q5 -64 100 -64q74 0 154 25zM207 309h112q3 68 -51 68q-26 0 -42.5 -18.5t-18.5 -49.5zM430 600l-45 -70l-112 51l-112 -51l-45 70l157 94z
M382 755l-210 -55l-29 71l197 77z" />
    <glyph glyph-name="uni1EC0" unicode="&#x1ec0;" horiz-adv-x="506" 
d="M463 0h-415v675h415v-158h-229v-95h208v-152h-208v-109h229v-161zM416 771l-32 -78l-135 41l-130 -40l-29 74l163 75zM361 910l-20 -68l-204 45l30 93z" />
    <glyph glyph-name="uni1EC1" unicode="&#x1ec1;" horiz-adv-x="524" 
d="M462 152l16 -133q-89 -31 -190 -31q-264 0 -264 254q0 116 68.5 191.5t184.5 75.5q110 0 164.5 -60t54.5 -161l-6 -97h-282q5 -64 100 -64q74 0 154 25zM207 309h112q3 68 -51 68q-26 0 -42.5 -18.5t-18.5 -49.5zM430 600l-45 -70l-112 51l-112 -51l-45 70l157 94z
M353 700l-210 55l42 93l197 -77z" />
    <glyph glyph-name="uni1EC2" unicode="&#x1ec2;" horiz-adv-x="506" 
d="M463 0h-415v675h415v-158h-229v-95h208v-152h-208v-109h229v-161zM351 821l-75 32q25 9 25 23q0 20 -36 20q-31 0 -63 -14l-19 73q52 25 122 25q109 0 109 -80q0 -46 -63 -79zM418 771l-32 -78l-135 41l-130 -40l-29 74l163 75z" />
    <glyph glyph-name="uni1EC3" unicode="&#x1ec3;" horiz-adv-x="524" 
d="M462 152l16 -133q-89 -31 -190 -31q-264 0 -264 254q0 116 68.5 191.5t184.5 75.5q110 0 164.5 -60t54.5 -161l-6 -97h-282q5 -64 100 -64q74 0 154 25zM207 309h112q3 68 -51 68q-26 0 -42.5 -18.5t-18.5 -49.5zM430 600l-45 -70l-112 51l-112 -51l-45 70l157 94z
M369 669l-72 42q24 13 24 29q0 19 -38 19q-36 0 -68 -18l-21 77q57 27 124 27q54 0 84.5 -21t30.5 -58q0 -34 -19.5 -59t-44.5 -38z" />
    <glyph glyph-name="uni1EC4" unicode="&#x1ec4;" horiz-adv-x="506" 
d="M463 0h-415v675h415v-158h-229v-95h208v-152h-208v-109h229v-161zM417 771l-32 -78l-135 41l-130 -40l-29 74l163 75zM349 977l75 -46q-41 -77 -111 -77q-30 0 -52.5 16t-32.5 16q-23 0 -39 -29l-75 46q41 77 111 77q30 0 52.5 -16t32.5 -16q23 0 39 29z" />
    <glyph glyph-name="uni1EC5" unicode="&#x1ec5;" horiz-adv-x="524" 
d="M462 152l16 -133q-89 -31 -190 -31q-264 0 -264 254q0 116 68.5 191.5t184.5 75.5q110 0 164.5 -60t54.5 -161l-6 -97h-282q5 -64 100 -64q74 0 154 25zM207 309h112q3 68 -51 68q-26 0 -42.5 -18.5t-18.5 -49.5zM430 600l-45 -70l-112 51l-112 -51l-45 70l157 94z
M363 827l75 -46q-41 -77 -111 -77q-30 0 -52.5 16t-32.5 16q-23 0 -39 -29l-75 46q41 77 111 77q30 0 52.5 -16t32.5 -16q23 0 39 29z" />
    <glyph glyph-name="uni1EC6" unicode="&#x1ec6;" horiz-adv-x="506" 
d="M463 0h-415v675h415v-158h-229v-95h208v-152h-208v-109h229v-161zM356 -141q0 -43 -30 -73t-73 -30t-73 30t-30 73t30 73t73 30t73 -30t30 -73zM431 792l-38 -89l-138 48l-140 -48l-36 87l179 86z" />
    <glyph glyph-name="uni1EC7" unicode="&#x1ec7;" horiz-adv-x="524" 
d="M462 152l16 -133q-89 -31 -190 -31q-264 0 -264 254q0 116 68.5 191.5t184.5 75.5q110 0 164.5 -60t54.5 -161l-6 -97h-282q5 -64 100 -64q74 0 154 25zM207 309h112q3 68 -51 68q-26 0 -42.5 -18.5t-18.5 -49.5zM379 -151q0 -43 -30 -73t-73 -30t-73 30t-30 73t30 73
t73 30t73 -30t30 -73zM447 627l-66 -83l-108 77l-110 -77l-64 81l176 143z" />
    <glyph glyph-name="uni1EC8" unicode="&#x1ec8;" horiz-adv-x="282" 
d="M234 0h-186v675h186v-675zM135 710l-22 78q36 10 36 31q0 20 -34 20q-37 0 -75 -17l-26 90q64 29 142 29q125 0 125 -94q0 -30 -16 -56t-41.5 -42t-47 -25t-41.5 -14z" />
    <glyph glyph-name="uni1EC9" unicode="&#x1ec9;" horiz-adv-x="276" 
d="M229 0h-182v497h182v-497zM123 541l-21 78q36 10 36 31q0 20 -34 20q-42 0 -76 -17l-24 90q67 29 141 29q125 0 125 -94q0 -30 -16 -56t-42 -42t-47.5 -25t-41.5 -14z" />
    <glyph glyph-name="uni1ECA" unicode="&#x1eca;" horiz-adv-x="282" 
d="M234 0h-186v675h186v-675zM244 -141q0 -43 -30 -73t-73 -30t-73 30t-30 73t30 73t73 30t73 -30t30 -73z" />
    <glyph glyph-name="uni1ECB" unicode="&#x1ecb;" horiz-adv-x="276" 
d="M247 640q0 -43 -32 -74t-77 -31t-77 31t-32 74t32 74t77 31t77 -31t32 -74zM229 0h-182v497h182v-497zM241 -141q0 -43 -30 -73t-73 -30t-73 30t-30 73t30 73t73 30t73 -30t30 -73z" />
    <glyph glyph-name="uni1ECC" unicode="&#x1ecc;" horiz-adv-x="718" 
d="M693 355q0 -172 -100 -270.5t-246 -98.5q-159 0 -240.5 84.5t-81.5 249.5q0 172 100 270.5t246 98.5q159 0 240.5 -84.5t81.5 -249.5zM493 337q0 182 -134 182q-64 0 -99 -46.5t-35 -134.5q0 -181 134 -181q64 0 99 46t35 134zM461 -151q0 -43 -30 -73t-73 -30t-73 30
t-30 73t30 73t73 30t73 -30t30 -73z" />
    <glyph glyph-name="uni1ECD" unicode="&#x1ecd;" horiz-adv-x="564" 
d="M541 265q0 -122 -72.5 -199.5t-197.5 -77.5q-117 0 -182.5 60t-65.5 184q0 122 72.5 199.5t197.5 77.5q117 0 182.5 -60t65.5 -184zM352 248q0 105 -69 105q-34 0 -52.5 -26.5t-18.5 -77.5q0 -104 69 -104q71 0 71 103zM385 -151q0 -43 -30 -73t-73 -30t-73 30t-30 73
t30 73t73 30t73 -30t30 -73z" />
    <glyph glyph-name="uni1ECE" unicode="&#x1ece;" horiz-adv-x="718" 
d="M693 355q0 -172 -100 -270.5t-246 -98.5q-159 0 -240.5 84.5t-81.5 249.5q0 172 100 270.5t246 98.5q159 0 240.5 -84.5t81.5 -249.5zM493 337q0 182 -134 182q-64 0 -99 -46.5t-35 -134.5q0 -181 134 -181q64 0 99 46t35 134zM364 710l-22 78q36 10 36 31q0 20 -34 20
q-37 0 -75 -17l-26 90q64 29 142 29q125 0 125 -94q0 -30 -16 -56t-41.5 -42t-47 -25t-41.5 -14z" />
    <glyph glyph-name="uni1ECF" unicode="&#x1ecf;" horiz-adv-x="564" 
d="M541 265q0 -122 -72.5 -199.5t-197.5 -77.5q-117 0 -182.5 60t-65.5 184q0 122 72.5 199.5t197.5 77.5q117 0 182.5 -60t65.5 -184zM352 248q0 105 -69 105q-34 0 -52.5 -26.5t-18.5 -77.5q0 -104 69 -104q71 0 71 103zM291 541l-21 78q36 10 36 31q0 20 -34 20
q-42 0 -76 -17l-24 90q67 29 141 29q125 0 125 -94q0 -30 -16 -56t-42 -42t-47.5 -25t-41.5 -14z" />
    <glyph glyph-name="uni1ED0" unicode="&#x1ed0;" horiz-adv-x="718" 
d="M693 355q0 -172 -100 -270.5t-246 -98.5q-159 0 -240.5 84.5t-81.5 249.5q0 172 100 270.5t246 98.5q159 0 240.5 -84.5t81.5 -249.5zM493 337q0 182 -134 182q-64 0 -99 -46.5t-35 -134.5q0 -181 134 -181q64 0 99 46t35 134zM480 885l-202 -51l-25 68l192 78zM528 771
l-32 -78l-135 41l-130 -40l-29 74l163 75z" />
    <glyph glyph-name="uni1ED1" unicode="&#x1ed1;" horiz-adv-x="564" 
d="M541 265q0 -122 -72.5 -199.5t-197.5 -77.5q-117 0 -182.5 60t-65.5 184q0 122 72.5 199.5t197.5 77.5q117 0 182.5 -60t65.5 -184zM352 248q0 105 -69 105q-34 0 -52.5 -26.5t-18.5 -77.5q0 -104 69 -104q71 0 71 103zM450 600l-45 -70l-112 51l-112 -51l-45 70l157 94z
M402 755l-210 -55l-29 71l197 77z" />
    <glyph glyph-name="uni1ED2" unicode="&#x1ed2;" horiz-adv-x="718" 
d="M693 355q0 -172 -100 -270.5t-246 -98.5q-159 0 -240.5 84.5t-81.5 249.5q0 172 100 270.5t246 98.5q159 0 240.5 -84.5t81.5 -249.5zM493 337q0 182 -134 182q-64 0 -99 -46.5t-35 -134.5q0 -181 134 -181q64 0 99 46t35 134zM528 771l-32 -78l-135 41l-130 -40l-29 74
l163 75zM473 910l-20 -68l-204 45l30 93z" />
    <glyph glyph-name="uni1ED3" unicode="&#x1ed3;" horiz-adv-x="564" 
d="M541 265q0 -122 -72.5 -199.5t-197.5 -77.5q-117 0 -182.5 60t-65.5 184q0 122 72.5 199.5t197.5 77.5q117 0 182.5 -60t65.5 -184zM352 248q0 105 -69 105q-34 0 -52.5 -26.5t-18.5 -77.5q0 -104 69 -104q71 0 71 103zM450 600l-45 -70l-112 51l-112 -51l-45 70l157 94z
M373 700l-210 55l42 93l197 -77z" />
    <glyph glyph-name="uni1ED4" unicode="&#x1ed4;" horiz-adv-x="718" 
d="M693 355q0 -172 -100 -270.5t-246 -98.5q-159 0 -240.5 84.5t-81.5 249.5q0 172 100 270.5t246 98.5q159 0 240.5 -84.5t81.5 -249.5zM493 337q0 182 -134 182q-64 0 -99 -46.5t-35 -134.5q0 -181 134 -181q64 0 99 46t35 134zM460 821l-75 32q25 9 25 23q0 20 -36 20
q-31 0 -63 -14l-19 73q52 25 122 25q109 0 109 -80q0 -46 -63 -79zM527 771l-32 -78l-135 41l-130 -40l-29 74l163 75z" />
    <glyph glyph-name="uni1ED5" unicode="&#x1ed5;" horiz-adv-x="564" 
d="M541 265q0 -122 -72.5 -199.5t-197.5 -77.5q-117 0 -182.5 60t-65.5 184q0 122 72.5 199.5t197.5 77.5q117 0 182.5 -60t65.5 -184zM352 248q0 105 -69 105q-34 0 -52.5 -26.5t-18.5 -77.5q0 -104 69 -104q71 0 71 103zM449 600l-45 -70l-112 51l-112 -51l-45 70l157 94z
M388 669l-72 42q24 13 24 29q0 19 -38 19q-36 0 -68 -18l-21 77q57 27 124 27q54 0 84.5 -21t30.5 -58q0 -34 -19.5 -59t-44.5 -38z" />
    <glyph glyph-name="uni1ED6" unicode="&#x1ed6;" horiz-adv-x="718" 
d="M693 355q0 -172 -100 -270.5t-246 -98.5q-159 0 -240.5 84.5t-81.5 249.5q0 172 100 270.5t246 98.5q159 0 240.5 -84.5t81.5 -249.5zM493 337q0 182 -134 182q-64 0 -99 -46.5t-35 -134.5q0 -181 134 -181q64 0 99 46t35 134zM528 771l-32 -78l-135 41l-130 -40l-29 74
l163 75zM460 977l75 -46q-41 -77 -111 -77q-30 0 -52.5 16t-32.5 16q-23 0 -39 -29l-75 46q41 77 111 77q30 0 52.5 -16t32.5 -16q23 0 39 29z" />
    <glyph glyph-name="uni1ED7" unicode="&#x1ed7;" horiz-adv-x="564" 
d="M541 265q0 -122 -72.5 -199.5t-197.5 -77.5q-117 0 -182.5 60t-65.5 184q0 122 72.5 199.5t197.5 77.5q117 0 182.5 -60t65.5 -184zM352 248q0 105 -69 105q-34 0 -52.5 -26.5t-18.5 -77.5q0 -104 69 -104q71 0 71 103zM450 600l-45 -70l-112 51l-112 -51l-45 70l157 94z
M383 827l75 -46q-41 -77 -111 -77q-30 0 -52.5 16t-32.5 16q-23 0 -39 -29l-75 46q41 77 111 77q30 0 52.5 -16t32.5 -16q23 0 39 29z" />
    <glyph glyph-name="uni1ED8" unicode="&#x1ed8;" horiz-adv-x="718" 
d="M693 355q0 -172 -100 -270.5t-246 -98.5q-159 0 -240.5 84.5t-81.5 249.5q0 172 100 270.5t246 98.5q159 0 240.5 -84.5t81.5 -249.5zM493 337q0 182 -134 182q-64 0 -99 -46.5t-35 -134.5q0 -181 134 -181q64 0 99 46t35 134zM461 -151q0 -43 -30 -73t-73 -30t-73 30
t-30 73t30 73t73 30t73 -30t30 -73zM541 792l-38 -89l-138 48l-140 -48l-36 87l179 86z" />
    <glyph glyph-name="uni1ED9" unicode="&#x1ed9;" horiz-adv-x="564" 
d="M541 265q0 -122 -72.5 -199.5t-197.5 -77.5q-117 0 -182.5 60t-65.5 184q0 122 72.5 199.5t197.5 77.5q117 0 182.5 -60t65.5 -184zM352 248q0 105 -69 105q-34 0 -52.5 -26.5t-18.5 -77.5q0 -104 69 -104q71 0 71 103zM385 -151q0 -43 -30 -73t-73 -30t-73 30t-30 73
t30 73t73 30t73 -30t30 -73zM467 627l-66 -83l-108 77l-110 -77l-64 81l176 143z" />
    <glyph glyph-name="uni1EDA" unicode="&#x1eda;" horiz-adv-x="813" 
d="M642 713h147q30 -101 -2.5 -161.5t-105.5 -85.5q12 -52 12 -111q0 -172 -100 -270.5t-246 -98.5q-159 0 -240.5 84.5t-81.5 249.5q0 172 100 270.5t246 98.5q187 0 266 -117q47 28 5 141zM494 337q0 182 -135 182q-64 0 -99.5 -46.5t-35.5 -134.5q0 -181 135 -181
q64 0 99.5 46.5t35.5 133.5zM537 752l-253 -49l-26 96l244 76z" />
    <glyph glyph-name="uni1EDB" unicode="&#x1edb;" horiz-adv-x="691" 
d="M526 535h140q33 -112 -6.5 -175.5t-119.5 -76.5q1 -8 1 -18q0 -122 -72.5 -199.5t-197.5 -77.5q-117 0 -182.5 60t-65.5 184q0 122 72.5 199.5t197.5 77.5q170 0 225 -121q52 23 8 147zM352 248q0 105 -69 105q-34 0 -52.5 -26.5t-18.5 -77.5q0 -104 69 -104q71 0 71 103
zM448 674l-194 -131l-76 86l178 150z" />
    <glyph glyph-name="uni1EDC" unicode="&#x1edc;" horiz-adv-x="813" 
d="M642 713h147q30 -101 -2.5 -161.5t-105.5 -85.5q12 -52 12 -111q0 -172 -100 -270.5t-246 -98.5q-159 0 -240.5 84.5t-81.5 249.5q0 172 100 270.5t246 98.5q187 0 266 -117q47 28 5 141zM494 337q0 182 -135 182q-64 0 -99.5 -46.5t-35.5 -134.5q0 -181 135 -181
q64 0 99.5 46.5t35.5 133.5zM473 799l-26 -96l-253 49l35 123z" />
    <glyph glyph-name="uni1EDD" unicode="&#x1edd;" horiz-adv-x="691" 
d="M526 535h140q33 -112 -6.5 -175.5t-119.5 -76.5q1 -8 1 -18q0 -122 -72.5 -199.5t-197.5 -77.5q-117 0 -182.5 60t-65.5 184q0 122 72.5 199.5t197.5 77.5q170 0 225 -121q52 23 8 147zM352 248q0 105 -69 105q-34 0 -52.5 -26.5t-18.5 -77.5q0 -104 69 -104q71 0 71 103
zM386 630l-76 -87l-194 129l92 107z" />
    <glyph glyph-name="uni1EDE" unicode="&#x1ede;" horiz-adv-x="813" 
d="M642 713h147q30 -101 -2.5 -161.5t-105.5 -85.5q12 -52 12 -111q0 -172 -100 -270.5t-246 -98.5q-159 0 -240.5 84.5t-81.5 249.5q0 172 100 270.5t246 98.5q187 0 266 -117q47 28 5 141zM494 337q0 182 -135 182q-64 0 -99.5 -46.5t-35.5 -134.5q0 -181 135 -181
q64 0 99.5 46.5t35.5 133.5zM364 710l-22 78q36 10 36 31q0 20 -34 20q-37 0 -75 -17l-26 90q64 29 142 29q125 0 125 -94q0 -30 -16 -56t-41.5 -42t-47 -25t-41.5 -14z" />
    <glyph glyph-name="uni1EDF" unicode="&#x1edf;" horiz-adv-x="691" 
d="M526 535h140q33 -112 -6.5 -175.5t-119.5 -76.5q1 -8 1 -18q0 -122 -72.5 -199.5t-197.5 -77.5q-117 0 -182.5 60t-65.5 184q0 122 72.5 199.5t197.5 77.5q170 0 225 -121q52 23 8 147zM352 248q0 105 -69 105q-34 0 -52.5 -26.5t-18.5 -77.5q0 -104 69 -104q71 0 71 103
zM291 541l-21 78q36 10 36 31q0 20 -34 20q-42 0 -76 -17l-24 90q67 29 141 29q125 0 125 -94q0 -30 -16 -56t-42 -42t-47.5 -25t-41.5 -14z" />
    <glyph glyph-name="uni1EE0" unicode="&#x1ee0;" horiz-adv-x="813" 
d="M642 713h147q30 -101 -2.5 -161.5t-105.5 -85.5q12 -52 12 -111q0 -172 -100 -270.5t-246 -98.5q-159 0 -240.5 84.5t-81.5 249.5q0 172 100 270.5t246 98.5q187 0 266 -117q47 28 5 141zM494 337q0 182 -135 182q-64 0 -99.5 -46.5t-35.5 -134.5q0 -181 135 -181
q64 0 99.5 46.5t35.5 133.5zM476 870l88 -58q-54 -95 -145 -95q-39 0 -74 20t-47 20q-30 0 -51 -39l-88 58q54 95 145 95q40 0 74 -20t47 -20q30 0 51 39z" />
    <glyph glyph-name="uni1EE1" unicode="&#x1ee1;" horiz-adv-x="691" 
d="M526 535h140q33 -112 -6.5 -175.5t-119.5 -76.5q1 -8 1 -18q0 -122 -72.5 -199.5t-197.5 -77.5q-117 0 -182.5 60t-65.5 184q0 122 72.5 199.5t197.5 77.5q170 0 225 -121q52 23 8 147zM352 248q0 105 -69 105q-34 0 -52.5 -26.5t-18.5 -77.5q0 -104 69 -104q71 0 71 103
zM404 724l84 -64q-51 -106 -139 -106q-38 0 -71.5 22.5t-45.5 22.5q-28 0 -49 -43l-84 64q51 106 139 106q38 0 71.5 -22.5t45.5 -22.5q16 0 27 10t22 33z" />
    <glyph glyph-name="uni1EE2" unicode="&#x1ee2;" horiz-adv-x="813" 
d="M642 713h147q30 -101 -2.5 -161.5t-105.5 -85.5q12 -52 12 -111q0 -172 -100 -270.5t-246 -98.5q-159 0 -240.5 84.5t-81.5 249.5q0 172 100 270.5t246 98.5q187 0 266 -117q47 28 5 141zM494 337q0 182 -135 182q-64 0 -99.5 -46.5t-35.5 -134.5q0 -181 135 -181
q64 0 99.5 46.5t35.5 133.5zM460 -151q0 -43 -30 -73t-73 -30t-73 30t-30 73t30 73t73 30t73 -30t30 -73z" />
    <glyph glyph-name="uni1EE3" unicode="&#x1ee3;" horiz-adv-x="691" 
d="M526 535h140q33 -112 -6.5 -175.5t-119.5 -76.5q1 -8 1 -18q0 -122 -72.5 -199.5t-197.5 -77.5q-117 0 -182.5 60t-65.5 184q0 122 72.5 199.5t197.5 77.5q170 0 225 -121q52 23 8 147zM352 248q0 105 -69 105q-34 0 -52.5 -26.5t-18.5 -77.5q0 -104 69 -104q71 0 71 103
zM385 -151q0 -43 -30 -73t-73 -30t-73 30t-30 73t30 73t73 30t73 -30t30 -73z" />
    <glyph glyph-name="uni1EE4" unicode="&#x1ee4;" horiz-adv-x="664" 
d="M616 675v-407q0 -143 -77 -212.5t-217 -69.5q-151 0 -212.5 69t-61.5 189v431h186v-422q0 -57 22 -84t77 -27q56 0 77.5 26t21.5 90v417h184zM435 -151q0 -43 -30 -73t-73 -30t-73 30t-30 73t30 73t73 30t73 -30t30 -73z" />
    <glyph glyph-name="uni1EE5" unicode="&#x1ee5;" horiz-adv-x="562" 
d="M516 0h-168q0 38 5 66h-1q-55 -78 -159 -78q-77 0 -112 43.5t-35 113.5v352h182v-314q0 -41 28 -41q30 0 54 35.5t24 77.5v242h182v-497zM400 -141q0 -43 -30 -73t-73 -30t-73 30t-30 73t30 73t73 30t73 -30t30 -73z" />
    <glyph glyph-name="uni1EE6" unicode="&#x1ee6;" horiz-adv-x="664" 
d="M616 675v-407q0 -143 -77 -212.5t-217 -69.5q-151 0 -212.5 69t-61.5 189v431h186v-422q0 -57 22 -84t77 -27q56 0 77.5 26t21.5 90v417h184zM340 710l-22 78q36 10 36 31q0 20 -34 20q-37 0 -75 -17l-26 90q64 29 142 29q125 0 125 -94q0 -30 -16 -56t-41.5 -42t-47 -25
t-41.5 -14z" />
    <glyph glyph-name="uni1EE7" unicode="&#x1ee7;" horiz-adv-x="562" 
d="M516 0h-168q0 38 5 66h-1q-55 -78 -159 -78q-77 0 -112 43.5t-35 113.5v352h182v-314q0 -41 28 -41q30 0 54 35.5t24 77.5v242h182v-497zM271 541l-21 78q36 10 36 31q0 20 -34 20q-42 0 -76 -17l-24 90q67 29 141 29q125 0 125 -94q0 -30 -16 -56t-42 -42t-47.5 -25
t-41.5 -14z" />
    <glyph glyph-name="uni1EE8" unicode="&#x1ee8;" horiz-adv-x="829" 
d="M663 713h147q13 -71 3 -122t-41.5 -84.5t-70.5 -50.5t-85 -19v-169q0 -143 -77 -212.5t-217 -69.5q-151 0 -212.5 69t-61.5 189v431h186v-422q0 -57 22 -84t77 -27q56 0 77.5 26t21.5 90v417h184v-124q40 0 54.5 36.5t-7.5 125.5zM554 752l-253 -49l-26 96l244 76z" />
    <glyph glyph-name="uni1EE9" unicode="&#x1ee9;" horiz-adv-x="715" 
d="M516 0h-168q0 38 5 66h-1q-55 -78 -159 -78q-77 0 -112 43.5t-35 113.5v352h182v-314q0 -41 28 -41q30 0 54 35.5t24 77.5v242h182v-135q40 5 50 49t-14 124h140q26 -91 2 -151.5t-69.5 -90t-108.5 -35.5v-258zM459 674l-194 -131l-76 86l178 150z" />
    <glyph glyph-name="uni1EEA" unicode="&#x1eea;" horiz-adv-x="829" 
d="M663 713h147q13 -71 3 -122t-41.5 -84.5t-70.5 -50.5t-85 -19v-169q0 -143 -77 -212.5t-217 -69.5q-151 0 -212.5 69t-61.5 189v431h186v-422q0 -57 22 -84t77 -27q56 0 77.5 26t21.5 90v417h184v-124q40 0 54.5 36.5t-7.5 125.5zM411 799l-26 -96l-253 49l35 123z" />
    <glyph glyph-name="uni1EEB" unicode="&#x1eeb;" horiz-adv-x="715" 
d="M516 0h-168q0 38 5 66h-1q-55 -78 -159 -78q-77 0 -112 43.5t-35 113.5v352h182v-314q0 -41 28 -41q30 0 54 35.5t24 77.5v242h182v-135q40 5 50 49t-14 124h140q26 -91 2 -151.5t-69.5 -90t-108.5 -35.5v-258zM376 630l-76 -87l-194 129l92 107z" />
    <glyph glyph-name="uni1EEC" unicode="&#x1eec;" horiz-adv-x="829" 
d="M663 713h147q13 -71 3 -122t-41.5 -84.5t-70.5 -50.5t-85 -19v-169q0 -143 -77 -212.5t-217 -69.5q-151 0 -212.5 69t-61.5 189v431h186v-422q0 -57 22 -84t77 -27q56 0 77.5 26t21.5 90v417h184v-124q40 0 54.5 36.5t-7.5 125.5zM340 710l-22 78q36 10 36 31
q0 20 -34 20q-37 0 -75 -17l-26 90q64 29 142 29q125 0 125 -94q0 -30 -16 -56t-41.5 -42t-47 -25t-41.5 -14z" />
    <glyph glyph-name="uni1EED" unicode="&#x1eed;" horiz-adv-x="715" 
d="M516 0h-168q0 38 5 66h-1q-55 -78 -159 -78q-77 0 -112 43.5t-35 113.5v352h182v-314q0 -41 28 -41q30 0 54 35.5t24 77.5v242h182v-135q40 5 50 49t-14 124h140q26 -91 2 -151.5t-69.5 -90t-108.5 -35.5v-258zM271 541l-21 78q36 10 36 31q0 20 -34 20q-42 0 -76 -17
l-24 90q67 29 141 29q125 0 125 -94q0 -30 -16 -56t-42 -42t-47.5 -25t-41.5 -14z" />
    <glyph glyph-name="uni1EEE" unicode="&#x1eee;" horiz-adv-x="829" 
d="M663 713h147q13 -71 3 -122t-41.5 -84.5t-70.5 -50.5t-85 -19v-169q0 -143 -77 -212.5t-217 -69.5q-151 0 -212.5 69t-61.5 189v431h186v-422q0 -57 22 -84t77 -27q56 0 77.5 26t21.5 90v417h184v-124q40 0 54.5 36.5t-7.5 125.5zM447 870l88 -58q-54 -95 -145 -95
q-40 0 -74 20t-47 20q-30 0 -51 -39l-88 58q54 95 145 95q39 0 74 -20t47 -20q30 0 51 39z" />
    <glyph glyph-name="uni1EEF" unicode="&#x1eef;" horiz-adv-x="715" 
d="M516 0h-168q0 38 5 66h-1q-55 -78 -159 -78q-77 0 -112 43.5t-35 113.5v352h182v-314q0 -41 28 -41q30 0 54 35.5t24 77.5v242h182v-135q40 5 50 49t-14 124h140q26 -91 2 -151.5t-69.5 -90t-108.5 -35.5v-258zM392 724l84 -64q-51 -106 -139 -106q-38 0 -71.5 22.5
t-45.5 22.5q-28 0 -49 -43l-84 64q51 106 139 106q38 0 71.5 -22.5t45.5 -22.5q16 0 27 10t22 33z" />
    <glyph glyph-name="uni1EF0" unicode="&#x1ef0;" horiz-adv-x="829" 
d="M663 713h147q13 -71 3 -122t-41.5 -84.5t-70.5 -50.5t-85 -19v-169q0 -143 -77 -212.5t-217 -69.5q-151 0 -212.5 69t-61.5 189v431h186v-422q0 -57 22 -84t77 -27q56 0 77.5 26t21.5 90v417h184v-124q40 0 54.5 36.5t-7.5 125.5zM435 -151q0 -43 -30 -73t-73 -30t-73 30
t-30 73t30 73t73 30t73 -30t30 -73z" />
    <glyph glyph-name="uni1EF1" unicode="&#x1ef1;" horiz-adv-x="715" 
d="M516 0h-168q0 38 5 66h-1q-55 -78 -159 -78q-77 0 -112 43.5t-35 113.5v352h182v-314q0 -41 28 -41q30 0 54 35.5t24 77.5v242h182v-135q40 5 50 49t-14 124h140q26 -91 2 -151.5t-69.5 -90t-108.5 -35.5v-258zM400 -141q0 -43 -30 -73t-73 -30t-73 30t-30 73t30 73
t73 30t73 -30t30 -73z" />
    <glyph glyph-name="Ygrave" unicode="&#x1ef2;" horiz-adv-x="597" 
d="M604 675l-214 -442v-233h-186v232l-211 443h202l63 -146q24 -55 40 -103h2q12 37 49 118l58 131h197zM329 799l-26 -96l-253 49l35 123z" />
    <glyph glyph-name="ygrave" unicode="&#x1ef3;" horiz-adv-x="534" 
d="M537 497l-175 -505q-45 -130 -115.5 -181.5t-168.5 -51.5l-78 7l18 153q30 -9 64 -9q65 0 84 61l9 29l-175 497h203l29 -101q28 -102 42 -166h2q26 117 40 167l27 100h194zM329 630l-76 -87l-194 129l92 107z" />
    <glyph glyph-name="uni1EF4" unicode="&#x1ef4;" horiz-adv-x="597" 
d="M604 675l-214 -442v-233h-186v232l-211 443h202l63 -146q24 -55 40 -103h2q12 37 49 118l58 131h197zM401 -141q0 -43 -30 -73t-73 -30t-73 30t-30 73t30 73t73 30t73 -30t30 -73z" />
    <glyph glyph-name="uni1EF5" unicode="&#x1ef5;" horiz-adv-x="534" 
d="M539 497l-174 -465q-50 -133 -110.5 -188.5t-156.5 -55.5q-40 0 -86 8l21 154q35 -11 69 -11q31 0 47 14t26 44l1 3l-176 497h200l29 -91q22 -70 40 -156h2q21 95 45 164l28 83h195zM500 -213q0 -43 -30 -73t-73 -30t-73 30t-30 73t30 73t73 30t73 -30t30 -73z" />
    <glyph glyph-name="uni1EF6" unicode="&#x1ef6;" horiz-adv-x="597" 
d="M604 675l-214 -442v-233h-186v232l-211 443h202l63 -146q24 -55 40 -103h2q12 37 49 118l58 131h197zM303 710l-22 78q36 10 36 31q0 20 -34 20q-37 0 -75 -17l-26 90q64 29 142 29q125 0 125 -94q0 -30 -16 -56t-41.5 -42t-47 -25t-41.5 -14z" />
    <glyph glyph-name="uni1EF7" unicode="&#x1ef7;" horiz-adv-x="534" 
d="M537 497l-175 -505q-45 -130 -115.5 -181.5t-168.5 -51.5l-78 7l18 153q30 -9 64 -9q65 0 84 61l9 29l-175 497h203l29 -101q28 -102 42 -166h2q26 117 40 167l27 100h194zM274 541l-21 78q36 10 36 31q0 20 -34 20q-42 0 -76 -17l-24 90q67 29 141 29q125 0 125 -94
q0 -30 -16 -56t-42 -42t-47.5 -25t-41.5 -14z" />
    <glyph glyph-name="uni1EF8" unicode="&#x1ef8;" horiz-adv-x="597" 
d="M604 675l-214 -442v-233h-186v232l-211 443h202l63 -146q24 -55 40 -103h2q12 37 49 118l58 131h197zM413 870l88 -58q-54 -95 -145 -95q-40 0 -74 20t-47 20q-30 0 -51 -39l-88 58q54 95 145 95q39 0 74 -20t47 -20q30 0 51 39z" />
    <glyph glyph-name="uni1EF9" unicode="&#x1ef9;" horiz-adv-x="534" 
d="M537 497l-175 -505q-45 -130 -115.5 -181.5t-168.5 -51.5l-78 7l18 153q30 -9 64 -9q65 0 84 61l9 29l-175 497h203l29 -101q28 -102 42 -166h2q26 117 40 167l27 100h194zM377 724l84 -64q-51 -106 -139 -106q-38 0 -71.5 22.5t-45.5 22.5q-16 0 -27 -10t-22 -33l-84 64
q51 106 139 106q38 0 71.5 -22.5t45.5 -22.5q28 0 49 43z" />
    <glyph glyph-name="figuredash" unicode="&#x2012;" 
d="M510 218h-470v160h470v-160z" />
    <glyph glyph-name="endash" unicode="&#x2013;" 
d="M550 218h-550v160h550v-160z" />
    <glyph glyph-name="emdash" unicode="&#x2014;" horiz-adv-x="1000" 
d="M900 218h-800v160h800v-160z" />
    <glyph glyph-name="uni2015" unicode="&#x2015;" horiz-adv-x="1000" 
d="M900 218h-800v160h800v-160z" />
    <glyph glyph-name="underscoredbl" unicode="&#x2017;" 
d="M550 -101h-550v101h550v-101zM550 -245h-550v101h550v-101z" />
    <glyph glyph-name="quoteleft" unicode="&#x2018;" horiz-adv-x="300" 
d="M197 764l73 -65q-55 -59 -63 -95.5t25 -72.5q19 -21 22.5 -50t-6.5 -55t-36 -44t-62 -18q-63 0 -94 59q-38 74 8 176q40 87 133 165z" />
    <glyph glyph-name="quoteright" unicode="&#x2019;" horiz-adv-x="300" 
d="M103 353l-73 65q55 59 63 95.5t-25 72.5q-19 21 -22.5 50t6.5 55t36 44t62 18q63 0 94 -59q38 -74 -8 -176q-39 -87 -133 -165z" />
    <glyph glyph-name="quotesinglbase" unicode="&#x201a;" horiz-adv-x="300" 
d="M103 -200l-73 65q55 59 63 95.5t-25 72.5q-19 21 -22.5 50t6.5 55t36 44t62 18q63 0 94 -59q38 -74 -8 -176q-39 -87 -133 -165z" />
    <glyph glyph-name="quotereversed" unicode="&#x201b;" horiz-adv-x="300" 
d="M270 418l-73 -65q-81 67 -119 137t-38 131q0 59 31.5 95.5t82.5 36.5q47 0 74.5 -30.5t27.5 -72.5q0 -34 -25.5 -66.5t-25.5 -55.5q0 -41 65 -110z" />
    <glyph glyph-name="quotedblleft" unicode="&#x201c;" horiz-adv-x="560" 
d="M457 764l73 -65q-55 -59 -63 -95.5t25 -72.5q19 -21 22.5 -50t-6.5 -55t-36 -44t-62 -18q-63 0 -94 59q-38 74 8 176q40 87 133 165zM197 764l73 -65q-55 -59 -63 -95.5t25 -72.5q19 -21 22.5 -50t-6.5 -55t-36 -44t-62 -18q-63 0 -94 59q-38 74 8 176q40 87 133 165z
" />
    <glyph glyph-name="quotedblright" unicode="&#x201d;" horiz-adv-x="560" 
d="M363 353l-73 65q55 59 63 95.5t-25 72.5q-19 21 -22.5 50t6.5 55t36 44t62 18q63 0 94 -59q38 -74 -8 -176q-39 -87 -133 -165zM103 353l-73 65q55 59 63 95.5t-25 72.5q-19 21 -22.5 50t6.5 55t36 44t62 18q63 0 94 -59q38 -74 -8 -176q-39 -87 -133 -165z" />
    <glyph glyph-name="quotedblbase" unicode="&#x201e;" horiz-adv-x="560" 
d="M363 -200l-73 65q55 59 63 95.5t-25 72.5q-19 21 -22.5 50t6.5 55t36 44t62 18q63 0 94 -59q38 -74 -8 -176q-39 -87 -133 -165zM103 -200l-73 65q55 59 63 95.5t-25 72.5q-19 21 -22.5 50t6.5 55t36 44t62 18q63 0 94 -59q38 -74 -8 -176q-39 -87 -133 -165z" />
    <glyph glyph-name="dagger" unicode="&#x2020;" horiz-adv-x="470" 
d="M438 499h-127l28 -74l-30 -261h-147l-31 261l28 74h-127v140h127l-28 135h208l-28 -135h127v-140z" />
    <glyph glyph-name="daggerdbl" unicode="&#x2021;" horiz-adv-x="470" 
d="M438 274h-125l28 -110h-212l28 110h-125v140h125l-26 55l26 55h-125v140h125l-26 110h208l-26 -110h125v-140h-125l26 -55l-26 -55h125v-140z" />
    <glyph glyph-name="bullet" unicode="&#x2022;" horiz-adv-x="426" 
d="M401 297q0 -77 -55.5 -132.5t-132.5 -55.5q-78 0 -133 55.5t-55 132.5t55 132.5t133 55.5q77 0 132.5 -55.5t55.5 -132.5z" />
    <glyph glyph-name="onedotlead" unicode="&#x2024;" horiz-adv-x="500" 
d="M354 90q0 -43 -30.5 -73.5t-73.5 -30.5t-73.5 30.5t-30.5 73.5t30.5 73.5t73.5 30.5t73.5 -30.5t30.5 -73.5z" />
    <glyph glyph-name="twodotlead" unicode="&#x2025;" horiz-adv-x="500" 
d="M479 90q0 -43 -30.5 -73.5t-73.5 -30.5t-73.5 30.5t-30.5 73.5t30.5 73.5t73.5 30.5t73.5 -30.5t30.5 -73.5zM229 90q0 -43 -30.5 -73.5t-73.5 -30.5t-73.5 30.5t-30.5 73.5t30.5 73.5t73.5 30.5t73.5 -30.5t30.5 -73.5z" />
    <glyph glyph-name="ellipsis" unicode="&#x2026;" horiz-adv-x="808" 
d="M768 90q0 -43 -30.5 -73.5t-73.5 -30.5t-73.5 30.5t-30.5 73.5t30.5 73.5t73.5 30.5t73.5 -30.5t30.5 -73.5zM508 90q0 -43 -30.5 -73.5t-73.5 -30.5t-73.5 30.5t-30.5 73.5t30.5 73.5t73.5 30.5t73.5 -30.5t30.5 -73.5zM248 90q0 -43 -30.5 -73.5t-73.5 -30.5
t-73.5 30.5t-30.5 73.5t30.5 73.5t73.5 30.5t73.5 -30.5t30.5 -73.5z" />
    <glyph glyph-name="perthousand" unicode="&#x2030;" horiz-adv-x="1090" 
d="M342 532q0 -76 -47.5 -123.5t-112.5 -47.5q-70 0 -111 43.5t-41 117.5t47 120.5t112 46.5q67 0 110 -39.5t43 -117.5zM218 526q0 54 -30 54q-13 0 -23 -14t-10 -41q0 -55 31 -55q13 0 22.5 14.5t9.5 41.5zM677 616l-507 -641l-106 82l507 641zM715 157
q0 -76 -47.5 -123.5t-112.5 -47.5q-70 0 -111 43.5t-41 117.5t47 120.5t112 46.5q67 0 110 -39.5t43 -117.5zM591 151q0 54 -30 54q-13 0 -23 -14t-10 -41q0 -55 31 -55q13 0 22.5 14.5t9.5 41.5zM1056 157q0 -76 -47.5 -123.5t-112.5 -47.5q-70 0 -111 43.5t-41 117.5
t47 120.5t112 46.5q67 0 110 -39.5t43 -117.5zM932 151q0 54 -30 54q-13 0 -23 -14t-10 -41q0 -55 31 -55q13 0 22.5 14.5t9.5 41.5z" />
    <glyph glyph-name="minute" unicode="&#x2032;" horiz-adv-x="249" 
d="M259 707l-74 -290h-135l36 290h173z" />
    <glyph glyph-name="second" unicode="&#x2033;" horiz-adv-x="465" 
d="M475 707l-75 -290h-134l35 290h174zM259 707l-74 -290h-135l36 290h173z" />
    <glyph glyph-name="guilsinglleft" unicode="&#x2039;" horiz-adv-x="311" 
d="M276 141l-148 -62l-106 212l109 214l142 -61l-79 -153z" />
    <glyph glyph-name="guilsinglright" unicode="&#x203a;" horiz-adv-x="311" 
d="M289 293l-109 -214l-142 61l79 153l-82 150l148 62z" />
    <glyph glyph-name="exclamdbl" unicode="&#x203c;" horiz-adv-x="631" 
d="M276 715l-25 -499h-160l-28 499h213zM272 86q0 -42 -30 -71t-74 -29t-74 29t-30 71t30 71t74 29t74 -29t30 -71zM576 715l-25 -499h-160l-28 499h213zM572 86q0 -42 -30 -71t-74 -29t-74 29t-30 71t30 71t74 29t74 -29t30 -71z" />
    <glyph glyph-name="uni203D" unicode="&#x203d;" horiz-adv-x="562" 
d="M304 727l-1 -37q121 -9 182 -55.5t61 -125.5q0 -52 -26.5 -89t-64.5 -57.5t-76 -38.5t-64.5 -44.5t-26.5 -63.5h-159l-11 311q-31 -2 -88 -10l-9 155q42 7 91 12l-1 43h193zM206 186q44 0 74 -29t30 -71t-30 -71t-74 -29t-74 29t-30 71t30 71t74 29zM298 533l-2 -83
q56 24 56 47q0 30 -54 36z" />
    <glyph glyph-name="uni203E" unicode="&#x203e;" 
d="M550 744h-550v148h550v-148z" />
    <glyph glyph-name="fraction" unicode="&#x2044;" horiz-adv-x="191" 
d="M489 741l-669 -905l-108 75l670 906z" />
    <glyph glyph-name="fraction" unicode="&#x2215;" horiz-adv-x="191" 
d="M489 741l-669 -905l-108 75l670 906z" />
    <glyph glyph-name="zero.superior" unicode="&#x2070;" horiz-adv-x="500" 
d="M475 578q0 -117 -61 -177t-171 -60q-109 0 -163.5 55.5t-54.5 173.5q0 116 62.5 176.5t169.5 60.5q102 0 160 -59t58 -170zM302 570q0 62 -11.5 90t-40.5 28t-40.5 -25t-11.5 -85q0 -62 11.5 -90t40.5 -28t40.5 25t11.5 85z" />
    <glyph glyph-name="four.superior" unicode="&#x2074;" horiz-adv-x="452" 
d="M431 434h-56v-84h-151v84h-199l-10 113l125 251h235v-239h56v-125zM222 557v150l-68 -150h68z" />
    <glyph glyph-name="five.superior" unicode="&#x2075;" horiz-adv-x="380" 
d="M26 353l11 104q33 -10 85 -10q25 0 40.5 10t15.5 29q0 44 -64 44q-40 0 -75 -5v273h292v-116h-135v-48h5q75 -1 113.5 -35t38.5 -96q0 -80 -57 -121t-158 -41q-62 0 -112 12z" />
    <glyph glyph-name="six.superior" unicode="&#x2076;" horiz-adv-x="446" 
d="M384 797l-14 -105q-42 11 -91 11q-46 0 -70 -24t-26 -48q30 11 76 11q78 0 121 -33t43 -97q0 -82 -59.5 -126.5t-145.5 -44.5q-95 0 -144 48.5t-49 153.5q0 125 63.5 194.5t198.5 69.5q54 0 97 -10zM268 493q0 51 -44 51q-43 0 -43 -49q0 -52 43 -52q44 0 44 50z" />
    <glyph glyph-name="seven.superior" unicode="&#x2077;" horiz-adv-x="369" 
d="M347 798v-108q-86 -171 -120 -340h-179q30 143 124 319q-16 -2 -150 -2v131h325z" />
    <glyph glyph-name="eight.superior" unicode="&#x2078;" horiz-adv-x="442" 
d="M420 488q0 -66 -54 -106.5t-153 -40.5q-191 0 -191 123q0 63 55 101q-47 35 -47 98t52.5 103.5t146.5 40.5q83 0 133 -29t50 -91q0 -58 -47 -95q55 -34 55 -104zM261 677q0 37 -40 37q-18 0 -29 -9.5t-11 -25.5q0 -12 14 -25t34 -19q13 7 22.5 19.5t9.5 22.5zM266 472
q0 13 -14.5 26.5t-38.5 20.5q-15 -7 -26 -21t-11 -24q0 -39 45 -39q20 0 32.5 9.5t12.5 27.5z" />
    <glyph glyph-name="nine.superior" unicode="&#x2079;" horiz-adv-x="436" 
d="M48 352l14 108q49 -15 95 -15q57 0 76 27q10 14 15 35t5 22q-27 -21 -71 -21q-80 0 -119.5 30.5t-39.5 97.5q0 84 54.5 127.5t145.5 43.5q99 0 143.5 -51.5t44.5 -160.5q0 -122 -65.5 -188t-196.5 -66q-50 0 -101 11zM255 653q0 28 -8 40t-30 12q-39 0 -39 -50
q0 -25 8.5 -37t30.5 -12q38 0 38 47z" />
    <glyph glyph-name="uni207A" unicode="&#x207a;" horiz-adv-x="400" 
d="M368 509h-106v-103h-124v103h-106v108h106v103h124v-103h106v-108z" />
    <glyph glyph-name="uni207B" unicode="&#x207b;" horiz-adv-x="400" 
d="M368 509h-336v108h336v-108z" />
    <glyph glyph-name="uni207C" unicode="&#x207c;" horiz-adv-x="400" 
d="M368 419h-336v108h336v-108zM368 599h-336v108h336v-108z" />
    <glyph glyph-name="parenleft.superior" unicode="&#x207d;" horiz-adv-x="315" 
d="M284 253l-149 -32q-93 154 -93 341q0 183 96 343l146 -32q-75 -137 -75 -308q0 -173 75 -312z" />
    <glyph glyph-name="parenright.superior" unicode="&#x207e;" horiz-adv-x="315" 
d="M177 221l-146 32q75 137 75 308q0 173 -75 312l149 32q93 -154 93 -341q0 -183 -96 -343z" />
    <glyph glyph-name="nsuperior" unicode="&#x207f;" horiz-adv-x="463" 
d="M426 350h-151v222q0 36 -29 36q-25 0 -42 -23.5t-17 -60.5v-174h-151v360h140q0 -13 -2 -49q42 58 129 58q64 0 93.5 -32t29.5 -86v-251z" />
    <glyph glyph-name="zero.inferior" unicode="&#x2080;" horiz-adv-x="500" 
d="M475 108q0 -117 -61 -177t-171 -60q-109 0 -163.5 55.5t-54.5 173.5q0 116 62.5 176.5t169.5 60.5q102 0 160 -59t58 -170zM302 100q0 62 -11.5 90t-40.5 28t-40.5 -25t-11.5 -85q0 -62 11.5 -90t40.5 -28t40.5 25t11.5 85z" />
    <glyph glyph-name="one.inferior" unicode="&#x2081;" horiz-adv-x="325" 
d="M279 -120h-175v299l-73 -23l-25 130l121 42h152v-448z" />
    <glyph glyph-name="two.inferior" unicode="&#x2082;" horiz-adv-x="394" 
d="M362 -120h-333v121l42 43q7 8 26 26.5t29 29t22.5 25.5t18.5 28t6 24q0 28 -41 28q-35 0 -81 -16l-19 126q63 22 147 22q176 0 176 -125q0 -38 -12.5 -71t-25.5 -51t-43 -53l-22 -26q31 2 110 2v-133z" />
    <glyph glyph-name="three.inferior" unicode="&#x2083;" horiz-adv-x="389" 
d="M17 -116l17 104q27 -9 82 -9q69 0 69 38q0 22 -36.5 33t-99.5 2v101q60 0 93.5 13t33.5 35q0 30 -48 30q-54 0 -91 -17l-14 102q60 21 147 21q172 0 172 -113q0 -67 -53 -97q66 -26 66 -102q0 -72 -57.5 -113t-160.5 -41q-64 0 -120 13z" />
    <glyph glyph-name="four.inferior" unicode="&#x2084;" horiz-adv-x="452" 
d="M431 -36h-56v-84h-151v84h-199l-10 113l125 251h235v-239h56v-125zM222 87v150l-68 -150h68z" />
    <glyph glyph-name="five.inferior" unicode="&#x2085;" horiz-adv-x="380" 
d="M26 -117l11 104q33 -10 85 -10q25 0 40.5 10t15.5 29q0 44 -64 44q-40 0 -75 -5v273h292v-116h-135v-48h5q75 -1 113.5 -35t38.5 -96q0 -80 -57 -121t-158 -41q-62 0 -112 12z" />
    <glyph glyph-name="six.inferior" unicode="&#x2086;" horiz-adv-x="446" 
d="M384 327l-14 -105q-42 11 -91 11q-46 0 -70 -24t-26 -48q30 11 76 11q78 0 121 -33t43 -97q0 -82 -59.5 -126.5t-145.5 -44.5q-95 0 -144 48.5t-49 153.5q0 125 63.5 194.5t198.5 69.5q54 0 97 -10zM268 23q0 51 -44 51q-43 0 -43 -49q0 -52 43 -52q44 0 44 50z" />
    <glyph glyph-name="seven.inferior" unicode="&#x2087;" horiz-adv-x="369" 
d="M347 328v-108q-86 -171 -120 -340h-179q30 143 124 319q-16 -2 -150 -2v131h325z" />
    <glyph glyph-name="eight.inferior" unicode="&#x2088;" horiz-adv-x="442" 
d="M420 18q0 -66 -54 -106.5t-153 -40.5q-191 0 -191 123q0 63 55 101q-47 35 -47 98t52.5 103.5t146.5 40.5q83 0 133 -29t50 -91q0 -58 -47 -95q55 -34 55 -104zM261 207q0 37 -40 37q-18 0 -29 -9.5t-11 -25.5q0 -12 14 -25t34 -19q13 7 22.5 19.5t9.5 22.5zM266 2
q0 13 -14.5 26.5t-38.5 20.5q-15 -7 -26 -21t-11 -24q0 -39 45 -39q20 0 32.5 9.5t12.5 27.5z" />
    <glyph glyph-name="nine.inferior" unicode="&#x2089;" horiz-adv-x="436" 
d="M48 -118l14 108q49 -15 95 -15q57 0 76 27q10 14 15 35t5 22q-27 -21 -71 -21q-80 0 -119.5 30.5t-39.5 97.5q0 84 54.5 127.5t145.5 43.5q99 0 143.5 -51.5t44.5 -160.5q0 -122 -65.5 -188t-196.5 -66q-50 0 -101 11zM255 183q0 28 -8 40t-30 12q-39 0 -39 -50
q0 -25 8.5 -37t30.5 -12q38 0 38 47z" />
    <glyph glyph-name="uni208A" unicode="&#x208a;" horiz-adv-x="400" 
d="M368 39h-106v-103h-124v103h-106v108h106v103h124v-103h106v-108z" />
    <glyph glyph-name="uni208B" unicode="&#x208b;" horiz-adv-x="400" 
d="M368 39h-336v108h336v-108z" />
    <glyph glyph-name="uni208C" unicode="&#x208c;" horiz-adv-x="400" 
d="M368 -51h-336v108h336v-108zM368 129h-336v108h336v-108z" />
    <glyph glyph-name="parenleft.inferior" unicode="&#x208d;" horiz-adv-x="315" 
d="M284 -217l-149 -32q-93 154 -93 341q0 183 96 343l146 -32q-75 -137 -75 -308q0 -173 75 -312z" />
    <glyph glyph-name="parenright.inferior" unicode="&#x208e;" horiz-adv-x="315" 
d="M177 -249l-146 32q75 137 75 308q0 173 -75 312l149 32q93 -154 93 -341q0 -183 -96 -343z" />
    <glyph glyph-name="colonmonetary" unicode="&#x20a1;" horiz-adv-x="644" 
d="M596 175l10 -161q-46 -11 -93 -17l-8 -148h-96l7 142q-31 0 -46 1l-7 -143h-96l8 157q-117 29 -178 110.5t-61 210.5q0 123 70 213.5t203 124.5l6 127h96l-6 -113q15 1 46 1l6 112h96l-6 -119q38 -6 57 -11l-9 -161q-31 10 -56 14l-18 -360q44 7 75 20zM397 521l-18 -366
q23 -5 45 -5l19 374q-25 0 -46 -3zM285 195l15 294q-72 -48 -72 -157q0 -91 57 -137z" />
    <glyph glyph-name="cruzeiro" unicode="&#x20a2;" horiz-adv-x="744" 
d="M503 -151h-106v139q-19 -3 -45 -3v-136h-106v139q-106 9 -180 28l13 173q69 -25 167 -37v91q-113 7 -171 53.5t-58 147.5q0 88 60 146t169 83v119h106v-104l45 2v102h106v-104q88 -5 156 -21l-12 -166q-48 17 -144 28v-89q118 -8 173 -56.5t55 -136.5q0 -89 -59 -151.5
t-169 -90.5v-156zM352 243v-97q17 0 45 2v97q-30 -2 -45 -2zM352 533v-94q3 0 19 0.5t26 0.5v94q-31 0 -45 -1zM246 441v77q-41 -14 -41 -44q0 -26 41 -33zM503 242v-77q37 14 37 42q0 25 -37 35z" />
    <glyph glyph-name="franc" unicode="&#x20a3;" 
d="M503 520h-199v-60h162v-132h-162v-61h162v-132h-162v-135h-186v135h-85v132h85v61h-85v132h85v215h385v-155z" />
    <glyph glyph-name="lira" unicode="&#x20a4;" 
d="M504 0h-443v123q54 37 54 78v8h-75v107h69l-4 50h-65v107h58v7q0 207 262 207q56 0 129 -15l-37 -152q-53 17 -99 17q-32 0 -51 -13.5t-19 -37.5v-13h140v-107h-133l4 -50h129v-107h-124v-6q0 -24 -26 -50q42 2 63 2h168v-155z" />
    <glyph glyph-name="peseta" unicode="&#x20a7;" horiz-adv-x="1281" 
d="M234 0h-186v675q100 5 217 5q252 0 276 -183h50v140l182 49v-189h93v-140h-93v-171q0 -26 9.5 -36.5t32.5 -10.5q35 0 79 16q68 -29 126 -29q36 0 36 21q0 14 -16.5 24t-40.5 20t-47.5 25t-40 46t-16.5 76q0 75 57.5 123.5t170.5 48.5q43 0 86 -8l-6 -139q-41 12 -83 12
q-35 0 -35 -20q0 -15 25.5 -28.5t56.5 -26t56.5 -48t25.5 -88.5q0 -78 -59.5 -127t-172.5 -49q-75 0 -127 21q-74 -21 -137 -21q-93 0 -127.5 35.5t-34.5 135.5v198h-64q-28 -73 -96 -115.5t-172 -42.5l-25 1v-200zM234 527v-171q14 -3 33 -3q41 0 63 22.5t22 65.5
q0 87 -92 87z" />
    <glyph glyph-name="dong" unicode="&#x20ab;" horiz-adv-x="600" 
d="M508 158h-157q0 31 3 51h-2q-46 -61 -140 -61q-81 0 -124.5 50t-43.5 136q0 99 68.5 165t189.5 66q14 0 32 -2v41h-89v109h89v43h174v-43h47v-109h-47v-446zM334 380v54q-16 3 -35 3q-78 0 -78 -87q0 -68 49 -68q29 0 46.5 26t17.5 72zM557 0h-517v109h517v-109z" />
    <glyph glyph-name="Euro" unicode="&#x20ac;" horiz-adv-x="592" 
d="M521 172l46 -138q-31 -20 -81 -34t-100 -14q-274 0 -313 220h-62v102h54v2q0 20 2 54h-56v102h69q30 106 110.5 164.5t204.5 58.5q93 0 163 -32l-37 -148q-52 27 -120 27q-47 0 -73.5 -17.5t-41.5 -52.5h152v-102h-171v-23q0 -23 1 -33h170v-102h-156q13 -34 41 -51.5
t83 -17.5q21 0 55 10t60 25z" />
    <glyph glyph-name="uni20B4" unicode="&#x20b4;" 
d="M462 155l25 -141q-89 -28 -181 -28q-117 0 -173 47.5t-56 119.5q0 25 8 52h-54v108h113q26 34 40 50h-153v108h235q10 20 10 33q0 35 -58 35q-48 0 -102 -14l-25 139q74 23 165 23q111 0 163.5 -45t52.5 -114q0 -27 -10 -57h57v-108h-117q-5 -7 -40 -50h157v-108h-237
q-7 -14 -7 -28q0 -40 69 -40q53 0 118 18z" />
    <glyph glyph-name="uni2103" unicode="&#x2103;" horiz-adv-x="884" 
d="M370 593q0 -77 -52 -119t-126 -42q-77 0 -121.5 42t-44.5 116q0 72 53.5 115t121.5 43q87 0 128 -43t41 -112zM240 594q0 18 -11 31t-28 13q-20 0 -32.5 -13t-12.5 -34q0 -22 11.5 -34.5t31.5 -12.5t30.5 14t10.5 36zM825 182l25 -166q-69 -25 -160 -25
q-76 0 -134.5 20.5t-93 52t-56 75.5t-29 85t-7.5 86q0 171 92 270.5t256 99.5q72 0 130 -18l-23 -170q-48 19 -107 19q-67 0 -105 -44.5t-38 -125.5q0 -180 150 -180q58 0 100 21z" />
    <glyph glyph-name="uni2105" unicode="&#x2105;" horiz-adv-x="767" 
d="M740 170q0 -82 -51.5 -131t-126.5 -49q-79 0 -123 45t-44 123q0 79 50.5 127.5t124.5 48.5q77 0 123.5 -40.5t46.5 -123.5zM677 618l-529 -643l-112 82l529 643zM246 465l14 -111q-33 -13 -83 -13q-154 0 -154 162q0 78 45 130t133 52q30 0 59 -9l-17 -115q-19 8 -33 8
q-42 0 -42 -58q0 -54 42 -54q20 0 36 8zM597 163q0 32 -7 43.5t-21 11.5q-29 0 -29 -56t27 -56q12 0 21 14.5t9 42.5z" />
    <glyph glyph-name="uni2109" unicode="&#x2109;" horiz-adv-x="835" 
d="M370 593q0 -77 -52 -119t-126 -42q-77 0 -121.5 42t-44.5 116q0 72 53.5 115t121.5 43q87 0 128 -43t41 -112zM240 594q0 18 -11 31t-28 13q-20 0 -32.5 -13t-12.5 -34q0 -22 11.5 -34.5t31.5 -12.5t30.5 14t10.5 36zM810 515h-211v-113h197v-153h-197v-249h-186v675h397
v-160z" />
    <glyph glyph-name="uni2113" unicode="&#x2113;" horiz-adv-x="537" 
d="M356 274l171 -28q-15 -131 -78.5 -194.5t-166.5 -63.5q-107 0 -158 40.5t-51 129.5v8l-29 -19l-45 164l74 49v151q0 117 55 173.5t174 56.5q207 0 207 -164q0 -77 -51 -138t-203 -165v-74q0 -54 38 -54q27 0 40 25t23 103zM255 536v-67q66 45 66 86q0 38 -31 38
q-35 0 -35 -57z" />
    <glyph glyph-name="uni2116" unicode="&#x2116;" horiz-adv-x="1087" 
d="M1050 503q0 -87 -56.5 -139.5t-140.5 -52.5q-78 0 -127.5 44.5t-49.5 139.5q0 90 56 142t139 52q179 0 179 -186zM1035 156h-345v132h345v-132zM616 0h-219l-125 267q-31 68 -55 146q5 -50 5 -127v-286h-174v675h237l133 -289q14 -29 29 -88q-5 70 -5 189v188h174v-675z
M913 499q0 39 -11.5 56.5t-38.5 17.5q-22 0 -37 -18t-15 -56q0 -73 50 -73q52 0 52 73z" />
    <glyph glyph-name="uni2117" unicode="&#x2117;" horiz-adv-x="770" 
d="M385 683q145 0 248 -102.5t103 -248.5t-103 -248.5t-248 -102.5t-248 102.5t-103 248.5t103 248.5t248 102.5zM385 561q-92 0 -158.5 -67.5t-66.5 -161.5t66.5 -161.5t158.5 -67.5t158.5 67.5t66.5 161.5t-66.5 161.5t-158.5 67.5zM372 154h-124v355q20 0 66 1t71 1
q90 0 138 -36t48 -105q0 -65 -47 -109.5t-133 -44.5q-9 0 -19 1v-63zM372 410v-93q5 -1 10 -1q25 0 42.5 13t17.5 35q0 20 -14 33.5t-43 13.5q-8 0 -13 -1z" />
    <glyph glyph-name="servicemark" unicode="&#x2120;" horiz-adv-x="675" 
d="M663 394h-131l-12 83l-3 38l-6 -38l-14 -83h-108l-16 86l-5 35l-2 -35l-10 -86h-118l47 281h141l18 -78l6 -34l5 34l15 78h143zM16 397l5 84q31 -12 65 -12q22 0 22 13q0 8 -15 13.5t-33.5 10.5t-33.5 24.5t-15 51.5q0 46 38 73.5t110 27.5q19 0 61 -4l-4 -82
q-27 8 -57 8q-22 0 -22 -13q0 -7 25 -14.5t50 -27t25 -55.5q0 -50 -38.5 -78.5t-113.5 -28.5q-34 0 -69 9z" />
    <glyph glyph-name="trademark" unicode="&#x2122;" horiz-adv-x="675" 
d="M663 394h-131l-12 83l-3 38l-6 -38l-14 -83h-108l-16 86l-5 35l-2 -35l-10 -86h-118l47 281h141l18 -78l6 -34l5 34l15 78h143zM244 566h-55v-172h-123v172h-59v109h237v-109z" />
    <glyph glyph-name="ohm" unicode="&#x2126;" horiz-adv-x="704" 
d="M675 0h-292v143q48 33 68.5 83.5t20.5 127.5q0 166 -123 166q-56 0 -88 -43.5t-32 -120.5q0 -82 20 -128.5t71 -83.5v-144h-291v146h94q-92 61 -92 218q0 140 91.5 232.5t241.5 92.5q136 0 221 -75.5t85 -232.5q0 -162 -95 -235h100v-146z" />
    <glyph glyph-name="estimated" unicode="&#x212e;" horiz-adv-x="807" 
d="M656 187l43 -26q-50 -83 -130 -126.5t-173 -43.5q-145 0 -243.5 99t-98.5 245q0 145 100 244.5t246 99.5q145 0 243.5 -99t98.5 -245h-538v-177q0 -26 7.5 -41.5t26.5 -29.5q66 -50 160 -50q79 0 146 38.5t112 111.5zM204 380h388v132q0 26 -7.5 41.5t-26.5 29.5
q-66 50 -160 50t-160 -50q-19 -14 -26.5 -29.5t-7.5 -41.5v-132z" />
    <glyph glyph-name="onethird" unicode="&#x2153;" horiz-adv-x="888" 
d="M279 350h-175v299l-73 -23l-25 130l121 42h152v-448zM516 -116l17 104q27 -9 82 -9q69 0 69 38q0 22 -36.5 33t-99.5 2v101q60 0 93.5 13t33.5 35q0 30 -48 30q-54 0 -91 -17l-14 102q60 21 147 21q172 0 172 -113q0 -67 -53 -97q66 -26 66 -102q0 -72 -57.5 -113
t-160.5 -41q-64 0 -120 13zM794 741l-669 -905l-108 75l670 906z" />
    <glyph glyph-name="twothirds" unicode="&#x2154;" horiz-adv-x="944" 
d="M362 350h-333v121l42 43q7 8 26 26.5t29 29t22.5 25.5t18.5 28t6 24q0 28 -41 28q-35 0 -81 -16l-19 126q63 22 147 22q176 0 176 -125q0 -38 -12.5 -71t-25.5 -51t-43 -53l-22 -26q31 2 110 2v-133zM860 741l-669 -905l-108 75l670 906zM572 -116l17 104q27 -9 82 -9
q69 0 69 38q0 22 -36.5 33t-99.5 2v101q60 0 93.5 13t33.5 35q0 30 -48 30q-54 0 -91 -17l-14 102q60 21 147 21q172 0 172 -113q0 -67 -53 -97q66 -26 66 -102q0 -72 -57.5 -113t-160.5 -41q-64 0 -120 13z" />
    <glyph glyph-name="onefifth" unicode="&#x2155;" horiz-adv-x="874" 
d="M279 350h-175v299l-73 -23l-25 130l121 42h152v-448zM794 741l-669 -905l-108 75l670 906zM520 -117l11 104q33 -10 85 -10q25 0 40.5 10t15.5 29q0 44 -64 44q-40 0 -75 -5v273h292v-116h-135v-48h5q75 -1 113.5 -35t38.5 -96q0 -80 -57 -121t-158 -41q-62 0 -112 12z
" />
    <glyph glyph-name="twofifths" unicode="&#x2156;" horiz-adv-x="940" 
d="M362 350h-333v121l42 43q7 8 26 26.5t29 29t22.5 25.5t18.5 28t6 24q0 28 -41 28q-35 0 -81 -16l-19 126q63 22 147 22q176 0 176 -125q0 -38 -12.5 -71t-25.5 -51t-43 -53l-22 -26q31 2 110 2v-133zM860 741l-669 -905l-108 75l670 906zM586 -117l11 104q33 -10 85 -10
q25 0 40.5 10t15.5 29q0 44 -64 44q-40 0 -75 -5v273h292v-116h-135v-48h5q75 -1 113.5 -35t38.5 -96q0 -80 -57 -121t-158 -41q-62 0 -112 12z" />
    <glyph glyph-name="threefifths" unicode="&#x2157;" horiz-adv-x="889" 
d="M535 -117l11 104q33 -10 85 -10q25 0 40.5 10t15.5 29q0 44 -64 44q-40 0 -75 -5v273h292v-116h-135v-48h5q75 -1 113.5 -35t38.5 -96q0 -80 -57 -121t-158 -41q-62 0 -112 12zM17 354l17 104q27 -9 82 -9q69 0 69 38q0 22 -36.5 33t-99.5 2v101q60 0 93.5 13t33.5 35
q0 30 -48 30q-54 0 -91 -17l-14 102q60 21 147 21q172 0 172 -113q0 -67 -53 -97q66 -26 66 -102q0 -72 -57.5 -113t-160.5 -41q-64 0 -120 13zM809 741l-669 -905l-108 75l670 906z" />
    <glyph glyph-name="fourfifths" unicode="&#x2158;" horiz-adv-x="986" 
d="M431 434h-56v-84h-151v84h-199l-10 113l125 251h235v-239h56v-125zM222 557v150l-68 -150h68zM906 741l-669 -905l-108 75l670 906zM632 -117l11 104q33 -10 85 -10q25 0 40.5 10t15.5 29q0 44 -64 44q-40 0 -75 -5v273h292v-116h-135v-48h5q75 -1 113.5 -35t38.5 -96
q0 -80 -57 -121t-158 -41q-62 0 -112 12z" />
    <glyph glyph-name="onesixth" unicode="&#x2159;" horiz-adv-x="883" 
d="M821 327l-14 -105q-42 11 -91 11q-46 0 -70 -24t-26 -48q30 11 76 11q78 0 121 -33t43 -97q0 -82 -59.5 -126.5t-145.5 -44.5q-95 0 -144 48.5t-49 153.5q0 125 63.5 194.5t198.5 69.5q54 0 97 -10zM705 23q0 51 -44 51q-43 0 -43 -49q0 -52 43 -52q44 0 44 50zM279 350
h-175v299l-73 -23l-25 130l121 42h152v-448zM794 741l-669 -905l-108 75l670 906z" />
    <glyph glyph-name="fivesixths" unicode="&#x215a;" horiz-adv-x="893" 
d="M26 353l11 104q33 -10 85 -10q25 0 40.5 10t15.5 29q0 44 -64 44q-40 0 -75 -5v273h292v-116h-135v-48h5q75 -1 113.5 -35t38.5 -96q0 -80 -57 -121t-158 -41q-62 0 -112 12zM831 327l-14 -105q-42 11 -91 11q-46 0 -70 -24t-26 -48q30 11 76 11q78 0 121 -33t43 -97
q0 -82 -59.5 -126.5t-145.5 -44.5q-95 0 -144 48.5t-49 153.5q0 125 63.5 194.5t198.5 69.5q54 0 97 -10zM715 23q0 51 -44 51q-43 0 -43 -49q0 -52 43 -52q44 0 44 50zM804 741l-669 -905l-108 75l670 906z" />
    <glyph glyph-name="oneeighth" unicode="&#x215b;" horiz-adv-x="915" 
d="M279 350h-175v299l-73 -23l-25 130l121 42h152v-448zM794 741l-669 -905l-108 75l670 906zM877 18q0 -66 -54 -106.5t-153 -40.5q-191 0 -191 123q0 63 55 101q-47 35 -47 98t52.5 103.5t146.5 40.5q83 0 133 -29t50 -91q0 -58 -47 -95q55 -34 55 -104zM718 207
q0 37 -40 37q-18 0 -29 -9.5t-11 -25.5q0 -12 14 -25t34 -19q13 7 22.5 19.5t9.5 22.5zM723 2q0 13 -14.5 26.5t-38.5 20.5q-15 -7 -26 -21t-11 -24q0 -39 45 -39q20 0 32.5 9.5t12.5 27.5z" />
    <glyph glyph-name="threeeighths" unicode="&#x215c;" horiz-adv-x="930" 
d="M17 354l17 104q27 -9 82 -9q69 0 69 38q0 22 -36.5 33t-99.5 2v101q60 0 93.5 13t33.5 35q0 30 -48 30q-54 0 -91 -17l-14 102q60 21 147 21q172 0 172 -113q0 -67 -53 -97q66 -26 66 -102q0 -72 -57.5 -113t-160.5 -41q-64 0 -120 13zM809 741l-669 -905l-108 75
l670 906zM892 18q0 -66 -54 -106.5t-153 -40.5q-191 0 -191 123q0 63 55 101q-47 35 -47 98t52.5 103.5t146.5 40.5q83 0 133 -29t50 -91q0 -58 -47 -95q55 -34 55 -104zM733 207q0 37 -40 37q-18 0 -29 -9.5t-11 -25.5q0 -12 14 -25t34 -19q13 7 22.5 19.5t9.5 22.5zM738 2
q0 13 -14.5 26.5t-38.5 20.5q-15 -7 -26 -21t-11 -24q0 -39 45 -39q20 0 32.5 9.5t12.5 27.5z" />
    <glyph glyph-name="fiveeighths" unicode="&#x215d;" horiz-adv-x="925" 
d="M26 353l11 104q33 -10 85 -10q25 0 40.5 10t15.5 29q0 44 -64 44q-40 0 -75 -5v273h292v-116h-135v-48h5q75 -1 113.5 -35t38.5 -96q0 -80 -57 -121t-158 -41q-62 0 -112 12zM804 741l-669 -905l-108 75l670 906zM887 18q0 -66 -54 -106.5t-153 -40.5q-191 0 -191 123
q0 63 55 101q-47 35 -47 98t52.5 103.5t146.5 40.5q83 0 133 -29t50 -91q0 -58 -47 -95q55 -34 55 -104zM728 207q0 37 -40 37q-18 0 -29 -9.5t-11 -25.5q0 -12 14 -25t34 -19q13 7 22.5 19.5t9.5 22.5zM733 2q0 13 -14.5 26.5t-38.5 20.5q-15 -7 -26 -21t-11 -24
q0 -39 45 -39q20 0 32.5 9.5t12.5 27.5z" />
    <glyph glyph-name="seveneighths" unicode="&#x215e;" horiz-adv-x="900" 
d="M862 18q0 -66 -54 -106.5t-153 -40.5q-191 0 -191 123q0 63 55 101q-47 35 -47 98t52.5 103.5t146.5 40.5q83 0 133 -29t50 -91q0 -58 -47 -95q55 -34 55 -104zM703 207q0 37 -40 37q-18 0 -29 -9.5t-11 -25.5q0 -12 14 -25t34 -19q13 7 22.5 19.5t9.5 22.5zM708 2
q0 13 -14.5 26.5t-38.5 20.5q-15 -7 -26 -21t-11 -24q0 -39 45 -39q20 0 32.5 9.5t12.5 27.5zM347 798v-108q-86 -171 -120 -340h-179q30 143 124 319q-16 -2 -150 -2v131h325zM779 741l-669 -905l-108 75l670 906z" />
    <glyph glyph-name="onefraction" unicode="&#x215f;" horiz-adv-x="559" 
d="M279 350h-175v299l-73 -23l-25 130l121 42h152v-448zM794 741l-669 -905l-108 75l670 906z" />
    <glyph glyph-name="arrowleft" unicode="&#x2190;" horiz-adv-x="1000" 
d="M1000 218h-664l245 -226l-115 -115l-421 421l421 421l115 -115l-244 -226h663v-160z" />
    <glyph glyph-name="arrowup" unicode="&#x2191;" horiz-adv-x="1000" 
d="M921 372l-115 -115l-226 245v-664h-160v663l-226 -244l-115 115l421 421z" />
    <glyph glyph-name="arrowright" unicode="&#x2192;" horiz-adv-x="1000" 
d="M955 298l-421 -421l-115 115l245 226h-664v160h663l-244 226l115 115z" />
    <glyph glyph-name="arrowdown" unicode="&#x2193;" horiz-adv-x="1000" 
d="M921 224l-421 -421l-421 421l115 115l226 -244v663h160v-664l226 245z" />
    <glyph glyph-name="arrowboth" unicode="&#x2194;" horiz-adv-x="1350" 
d="M1305 328l-321 -321l-115 115l145 126h-678l145 -126l-115 -115l-321 321l321 321l115 -115l-144 -126h676l-144 126l115 115z" />
    <glyph glyph-name="arrowupdn" unicode="&#x2195;" horiz-adv-x="762" 
d="M702 59l-321 -321l-321 321l115 115l126 -144v536l-126 -144l-115 115l321 321l321 -321l-115 -115l-126 145v-538l126 145z" />
    <glyph glyph-name="arrownorthwest" unicode="&#x2196;" horiz-adv-x="840" 
d="M830 56l-113 -113l-469 469l13 -333h-163v596h596v-163l-333 14z" />
    <glyph glyph-name="arrownortheast" unicode="&#x2197;" horiz-adv-x="840" 
d="M742 79h-163l14 333l-470 -469l-113 113l469 469l-333 -13v163h596v-596z" />
    <glyph glyph-name="arrowsoutheast" unicode="&#x2198;" horiz-adv-x="840" 
d="M742 -78h-596v163l333 -13l-469 469l113 113l470 -469l-14 333h163v-596z" />
    <glyph glyph-name="arrowsouthwest" unicode="&#x2199;" horiz-adv-x="840" 
d="M830 541l-469 -470l333 14v-163h-596v596h163l-13 -333l469 469z" />
    <glyph glyph-name="uni219E" unicode="&#x219e;" horiz-adv-x="1000" 
d="M930 220h-304l90 -78l-115 -115l-193 193h-82l90 -78l-115 -115l-271 271l271 271l115 -115l-90 -78h82l193 193l115 -115l-90 -78h304v-156z" />
    <glyph glyph-name="uni219F" unicode="&#x219f;" horiz-adv-x="620" 
d="M232 -113v304l-78 -90l-115 115l193 193v82l-78 -90l-115 115l271 271l271 -271l-115 -115l-78 90v-82l193 -193l-115 -115l-78 90v-304h-156z" />
    <glyph glyph-name="uni21A0" unicode="&#x21a0;" horiz-adv-x="1000" 
d="M699 27l-115 115l90 78h-82l-193 -193l-115 115l90 78h-304v156h304l-90 78l115 115l193 -193h82l-90 78l115 115l271 -271z" />
    <glyph glyph-name="uni21A1" unicode="&#x21a1;" horiz-adv-x="620" 
d="M388 749v-304l78 90l115 -115l-193 -193v-82l78 90l115 -115l-271 -271l-271 271l115 115l78 -90v82l-193 193l115 115l78 -90v304h156z" />
    <glyph glyph-name="uni21A2" unicode="&#x21a2;" horiz-adv-x="1000" 
d="M785 298l161 -156l-115 -115l-193 193h-312l90 -78l-115 -115l-271 271l271 271l115 -115l-90 -78h312l193 193l115 -115z" />
    <glyph glyph-name="uni21A3" unicode="&#x21a3;" horiz-adv-x="1000" 
d="M215 298l-161 156l115 115l193 -193h312l-90 78l115 115l271 -271l-271 -271l-115 115l90 78h-312l-193 -193l-115 115z" />
    <glyph glyph-name="uni21A4" unicode="&#x21a4;" horiz-adv-x="1000" 
d="M930 548v-500h-173v172h-431l90 -78l-115 -115l-271 271l271 271l115 -115l-90 -78h431v172h173z" />
    <glyph glyph-name="uni21A5" unicode="&#x21a5;" horiz-adv-x="580" 
d="M540 -113h-500v173h172v431l-78 -90l-115 115l271 271l271 -271l-115 -115l-78 90v-431h172v-173z" />
    <glyph glyph-name="uni21A6" unicode="&#x21a6;" horiz-adv-x="1000" 
d="M70 48v500h173v-172h431l-90 78l115 115l271 -271l-271 -271l-115 115l90 78h-431v-172h-173z" />
    <glyph glyph-name="uni21A7" unicode="&#x21a7;" horiz-adv-x="580" 
d="M40 749h500v-173h-172v-431l78 90l115 -115l-271 -271l-271 271l115 115l78 -90v431h-172v173z" />
    <glyph glyph-name="arrowupdnbse" unicode="&#x21a8;" horiz-adv-x="762" 
d="M682 225l-301 -301l-301 301l115 115l106 -124v376l-106 -124l-115 115l301 301l301 -301l-115 -115l-106 125v-378l106 125zM656 -233h-550v148h550v-148z" />
    <glyph glyph-name="uni21A9" unicode="&#x21a9;" horiz-adv-x="1219" 
d="M351 -136l-321 321l321 321l115 -115l-138 -126q149 -7 268 -7q202 0 287 42t85 122q0 128 -233 128l-145 -6v158q94 8 169 8q91 0 163.5 -16t118.5 -42t76.5 -62.5t43 -75t12.5 -81.5q0 -335 -577 -335q-69 0 -136 2t-100 4l-32 1l138 -126z" />
    <glyph glyph-name="uni21AA" unicode="&#x21aa;" horiz-adv-x="1219" 
d="M1183 185l-321 -321l-115 115l138 126q-113 -7 -282 -7q-153 0 -263 21t-175 61.5t-95 95t-30 126.5q0 65 24 119t74 97.5t137.5 67.5t204.5 24l143 -6v-161q-87 7 -172 7q-206 0 -206 -128q0 -52 34.5 -87t122 -56t229.5 -21l254 7l-138 126l115 115z" />
    <glyph glyph-name="arrowdblleft" unicode="&#x21d0;" horiz-adv-x="1000" 
d="M930 100h-472l88 -88l-115 -115l-401 401l401 401l115 -115l-88 -88h472v-160h-629l-37 -38l37 -38h629v-160z" />
    <glyph glyph-name="arrowdblup" unicode="&#x21d1;" horiz-adv-x="922" 
d="M263 -146v472l-88 -88l-115 115l401 401l401 -401l-115 -115l-88 88v-472h-160v629l-38 37l-38 -37v-629h-160z" />
    <glyph glyph-name="arrowdblright" unicode="&#x21d2;" horiz-adv-x="1000" 
d="M970 298l-401 -401l-115 115l88 88h-472v160h629l37 38l-37 38h-629v160h472l-88 88l115 115z" />
    <glyph glyph-name="arrowdbldown" unicode="&#x21d3;" horiz-adv-x="922" 
d="M659 742v-472l88 88l115 -115l-401 -401l-401 401l115 115l88 -88v472h160v-629l38 -37l38 37v629h160z" />
    <glyph glyph-name="arrowdblboth" unicode="&#x21d4;" horiz-adv-x="1400" 
d="M1136 298l-37 38h-798l-37 -38l37 -38h798zM1370 298l-401 -401l-115 115l88 88h-484l88 -88l-115 -115l-401 401l401 401l115 -115l-88 -88h484l-88 88l115 115z" />
    <glyph glyph-name="uni21D5" unicode="&#x21d5;" horiz-adv-x="922" 
d="M461 -86l38 37v758l-38 37l-38 -37v-758zM461 -320l-401 401l115 115l88 -88v444l-88 -88l-115 115l401 401l401 -401l-115 -115l-88 88v-444l88 88l115 -115z" />
    <glyph glyph-name="uni21D6" unicode="&#x21d6;" horiz-adv-x="876" 
d="M567 -111l-334 334v-125h-162v567h567v-162h-125l334 -334l-113 -113l-445 444h-53v-53l444 -445z" />
    <glyph glyph-name="uni21D7" unicode="&#x21d7;" horiz-adv-x="876" 
d="M29 169l334 334h-125v162h567v-567h-162v125l-334 -334l-113 113l444 445v53h-53l-445 -444z" />
    <glyph glyph-name="uni21D8" unicode="&#x21d8;" horiz-adv-x="876" 
d="M309 708l334 -334v125h162v-567h-567v162h125l-334 334l113 113l445 -444h53v53l-444 445z" />
    <glyph glyph-name="uni21D9" unicode="&#x21d9;" horiz-adv-x="876" 
d="M847 428l-334 -334h125v-162h-567v567h162v-125l334 334l113 -113l-444 -445v-53h53l445 444z" />
    <glyph glyph-name="uni21DD" unicode="&#x21dd;" horiz-adv-x="1000" 
d="M70 218v160h4l70 54l88 -68l88 68l88 -68l88 68l88 -68l18 14h70l-84 80l111 111l271 -271l-271 -271l-111 111l84 80h-18l-70 -54l-88 68l-88 -68l-88 68l-88 -68l-88 68l-18 -14h-56z" />
    <glyph glyph-name="uni21E6" unicode="&#x21e6;" horiz-adv-x="1000" 
d="M930 80h-374v-148h-160l-366 366l366 366h160v-148h374v-436zM770 356h-374v82l-140 -140l140 -140v82h374v116z" />
    <glyph glyph-name="uni21E7" unicode="&#x21e7;" horiz-adv-x="902" 
d="M233 -146v374h-148v160l366 366l366 -366v-160h-148v-374h-436zM509 14v374h82l-140 140l-140 -140h82v-374h116z" />
    <glyph glyph-name="uni21E8" unicode="&#x21e8;" horiz-adv-x="1000" 
d="M70 516h374v148h160l366 -366l-366 -366h-160v148h-374v436zM230 240h374v-82l140 140l-140 140v-82h-374v-116z" />
    <glyph glyph-name="uni21E9" unicode="&#x21e9;" horiz-adv-x="902" 
d="M669 742v-374h148v-160l-366 -366l-366 366v160h148v374h436zM393 582v-374h-82l140 -140l140 140h-82v374h-116z" />
    <glyph glyph-name="uni21F3" unicode="&#x21f3;" horiz-adv-x="902" 
d="M669 360v-124h148v-160l-366 -366l-366 366v160h148v124h-148v160l366 366l366 -366v-160h-148zM509 76v444h82l-140 140l-140 -140h82v-444h-82l140 -140l140 140h-82z" />
    <glyph glyph-name="partialdiff" unicode="&#x2202;" horiz-adv-x="630" 
d="M204 585l29 154q157 0 254 -97t97 -257q0 -210 -118 -318q-82 -74 -201 -74q-106 0 -164 59t-58 158q0 112 71 183.5t189 71.5q59 0 93 -21q-8 29 -14 42q-21 45 -68.5 72t-109.5 27zM375 238q0 73 -75 73q-35 0 -57 -23.5t-22 -62.5q0 -34 18 -53.5t53 -19.5t59 23.5
t24 62.5z" />
    <glyph glyph-name="emptyset" unicode="&#x2205;" horiz-adv-x="892" 
d="M833 597l-60 -60l1 -1q58 -89 58 -198q0 -157 -105 -261.5t-261 -104.5q-109 0 -198 58l-1 1l-60 -60l-108 108l60 60l-1 1q-58 89 -58 198q0 157 104 261.5t262 104.5q109 0 198 -58l1 -1l60 60zM634 398l-228 -228l1 -1q32 -10 59 -10q80 0 129.5 49.5t49.5 129.5
q0 33 -10 59zM298 278l228 228q-31 11 -60 11q-80 0 -129.5 -49.5t-49.5 -129.5q0 -33 10 -59z" />
    <glyph glyph-name="increment" unicode="&#x2206;" horiz-adv-x="644" 
d="M653 0h-664l220 675h213zM397 168l-54 170q-29 94 -33 122h-2q-13 -61 -35 -132l-49 -160h173z" />
    <glyph glyph-name="product" unicode="&#x220f;" horiz-adv-x="784" 
d="M748 577h-83v-810h-168v810h-208v-810h-169v810h-85v153h713v-153z" />
    <glyph glyph-name="summation" unicode="&#x2211;" horiz-adv-x="604" 
d="M565 -233h-529v143l264 349l-248 327v144h497v-153h-274l235 -312l-261 -340h316v-158z" />
    <glyph glyph-name="minus" unicode="&#x2212;" 
d="M515 218h-480v160h480v-160z" />
    <glyph glyph-name="uni2219" unicode="&#x2219;" horiz-adv-x="320" 
d="M270 298q0 -45 -32.5 -77.5t-77.5 -32.5t-77.5 32.5t-32.5 77.5t32.5 77.5t77.5 32.5t77.5 -32.5t32.5 -77.5z" />
    <glyph glyph-name="radical" unicode="&#x221a;" horiz-adv-x="628" 
d="M642 758l-228 -758h-214l-115 362h-80v135h233l59 -214q12 -43 15 -72h1q4 40 12 71l116 476h201z" />
    <glyph glyph-name="uni221B" unicode="&#x221b;" horiz-adv-x="628" 
d="M642 758l-228 -758h-214l-115 362h-80v135h233l59 -214q12 -43 15 -72h1q4 40 12 71l116 476h201zM92 548l12 91q35 -8 65 -8q48 0 48 21q0 33 -105 19v78q102 0 102 30q0 16 -35 16t-71 -14l-15 87q59 19 132 19q72 0 105.5 -25t33.5 -64q0 -51 -53 -74q64 -17 64 -72
q0 -48 -45.5 -80.5t-140.5 -32.5q-43 0 -97 9z" />
    <glyph glyph-name="uni221C" unicode="&#x221c;" horiz-adv-x="628" 
d="M642 758l-228 -758h-214l-115 362h-80v135h233l59 -214q12 -43 15 -72h1q4 40 12 71l116 476h201zM365 591h-40v-40h-139v40h-169l-7 90l102 194h213v-179h40v-105zM187 696v93h-3l-49 -95q32 2 52 2z" />
    <glyph glyph-name="infinity" unicode="&#x221e;" horiz-adv-x="998" 
d="M973 306q0 -93 -62 -154t-175 -61q-107 0 -243 98q-136 -98 -252 -98q-104 0 -160 57t-56 145q0 95 64 154.5t164 59.5q114 0 249 -101q134 101 249 101q101 0 161.5 -56t60.5 -145zM802 302q0 20 -15 33.5t-39 13.5q-42 0 -110 -48q70 -51 107 -51q28 0 42.5 15t14.5 37
zM356 296q-70 53 -103 53q-28 0 -42.5 -14.5t-14.5 -36.5q0 -21 15 -34.5t39 -13.5q42 0 106 46z" />
    <glyph glyph-name="orthogonal" unicode="&#x221f;" horiz-adv-x="730" 
d="M706 0h-636v675h161v-518h475v-157z" />
    <glyph glyph-name="intersection" unicode="&#x2229;" horiz-adv-x="706" 
d="M658 0h-170v382q0 67 -39 109t-96 42t-96 -41t-39 -104v-388h-170v377q0 130 90.5 221t217.5 91q133 0 217.5 -89.5t84.5 -215.5v-384z" />
    <glyph glyph-name="integral" unicode="&#x222b;" horiz-adv-x="353" 
d="M316 973v-156q-22 6 -40 6q-22 0 -31.5 -16.5t-9.5 -62.5q0 -77 13.5 -385.5t13.5 -398.5q0 -144 -45.5 -211.5t-139.5 -67.5q-27 0 -62 7v156q17 -5 36 -5q24 0 34.5 18t10.5 70q0 78 -13.5 380t-13.5 396q0 277 193 277q24 0 54 -7z" />
    <glyph glyph-name="congruent" unicode="&#x2245;" 
d="M500 220h-450v143h450v-143zM500 0h-450v143h450v-143zM458 609l58 -114q-69 -72 -149 -72q-35 0 -95 27t-93 27q-49 0 -98 -40l-55 113q33 32 76 52t80 20q46 0 106 -27t79 -27q46 0 91 41z" />
    <glyph glyph-name="approxequal" unicode="&#x2248;" 
d="M463 498l60 -119q-72 -75 -155 -75q-37 0 -93 28t-90 28q-51 0 -102 -42l-57 118q35 33 79 54t84 21q47 0 103.5 -28t75.5 -28q48 0 95 43zM466 264l58 -119q-33 -32 -77.5 -51.5t-80.5 -19.5q-45 0 -100.5 28t-80.5 28q-47 0 -99 -43l-60 119q79 75 152 75
q46 0 100.5 -28t92.5 -28q56 0 95 39z" />
    <glyph glyph-name="notequal" unicode="&#x2260;" 
d="M500 114h-213l-37 -95h-165l37 95h-72v145h129l29 75h-158v145h215l36 92h164l-36 -92h71v-145h-128l-29 -75h157v-145z" />
    <glyph glyph-name="equivalence" unicode="&#x2261;" 
d="M500 220h-450v145h450v-145zM500 0h-450v145h450v-145zM500 440h-450v145h450v-145z" />
    <glyph glyph-name="lessequal" unicode="&#x2264;" 
d="M464 295l-120 -123l-293 269l292 269l121 -121l-178 -147zM475 0h-400v152h400v-152z" />
    <glyph glyph-name="greaterequal" unicode="&#x2265;" 
d="M499 441l-292 -269l-121 121l178 147l-178 147l120 123zM475 0h-400v152h400v-152z" />
    <glyph glyph-name="uni2297" unicode="&#x2297;" horiz-adv-x="871" 
d="M70 336q0 154 109 261.5t262 107.5q152 0 256.5 -104t104.5 -259q0 -154 -109 -261.5t-261 -107.5t-257 104.5t-105 258.5zM348 533l88 -87l86 86q-40 18 -89 18q-45 0 -85 -17zM630 424l-86 -86l87 -87q17 40 17 87q0 43 -18 86zM436 230l-85 -85q41 -18 88 -18
q44 0 84 17zM225 338q0 -46 18 -85l85 85l-86 86q-17 -42 -17 -86z" />
    <glyph glyph-name="uni22A0" unicode="&#x22a0;" horiz-adv-x="871" 
d="M771 0h-671v675h671v-675zM436 240l-103 -103h206zM334 538l102 -102l102 102h-204zM338 338l-92 92v-184zM534 338l91 -91v182z" />
    <glyph glyph-name="dotmath" unicode="&#x22c5;" horiz-adv-x="320" 
d="M270 298q0 -45 -32.5 -77.5t-77.5 -32.5t-77.5 32.5t-32.5 77.5t32.5 77.5t77.5 32.5t77.5 -32.5t32.5 -77.5z" />
    <glyph glyph-name="star" unicode="&#x22c6;" horiz-adv-x="872" 
d="M279 521l157 217l157 -217l255 -82l-158 -217v-267l-254 82l-254 -82v267l-158 217z" />
    <glyph glyph-name="uni22EE" unicode="&#x22ee;" horiz-adv-x="300" 
d="M260 633q0 -45 -32.5 -77.5t-77.5 -32.5t-77.5 32.5t-32.5 77.5t32.5 77.5t77.5 32.5t77.5 -32.5t32.5 -77.5zM260 364q0 -45 -32.5 -77.5t-77.5 -32.5t-77.5 32.5t-32.5 77.5t32.5 77.5t77.5 32.5t77.5 -32.5t32.5 -77.5zM260 95q0 -45 -32.5 -77.5t-77.5 -32.5
t-77.5 32.5t-32.5 77.5t32.5 77.5t77.5 32.5t77.5 -32.5t32.5 -77.5z" />
    <glyph glyph-name="uni2300" unicode="&#x2300;" horiz-adv-x="892" 
d="M903 667l-130 -130l1 -1q58 -89 58 -198q0 -157 -105 -261.5t-261 -104.5q-109 0 -198 58l-1 1l-130 -130l-108 108l130 130l-1 1q-58 89 -58 198q0 157 104 261.5t262 104.5q109 0 198 -58l1 -1l130 130zM634 398l-228 -228l1 -1q32 -10 59 -10q80 0 129.5 49.5
t49.5 129.5q0 33 -10 59zM298 278l228 228q-31 11 -60 11q-80 0 -129.5 -49.5t-49.5 -129.5q0 -33 10 -59z" />
    <glyph glyph-name="house" unicode="&#x2302;" horiz-adv-x="1000" 
d="M1000 375l-113 -112l-51 51v-314h-672v316l-53 -53l-111 112l500 500zM676 158v316l-177 177l-175 -175v-318h352z" />
    <glyph glyph-name="revlogicalnot" unicode="&#x2310;" 
d="M515 222h-302v-138h-163v290h465v-152z" />
    <glyph glyph-name="integraltp" unicode="&#x2320;" horiz-adv-x="360" 
d="M257 -233h-166v697q0 143 53 210t146 67q24 0 54 -7v-153q-22 6 -40 6q-47 0 -47 -82v-738z" />
    <glyph glyph-name="integralbt" unicode="&#x2321;" horiz-adv-x="360" 
d="M257 875v-841q0 -143 -53 -210t-146 -67q-24 0 -54 7v153q22 -6 40 -6q47 0 47 82v882h166z" />
    <glyph glyph-name="uni2349" unicode="&#x2349;" horiz-adv-x="892" 
d="M942 -31l-108 -108l-171 171l-1 -1q-85 -59 -196 -59q-153 0 -259.5 106t-106.5 260q0 111 59 196l1 1l-172 171l108 108l172 -171l1 1q86 60 197 60q155 0 260.5 -106.5t105.5 -259.5q0 -111 -60 -197l-1 -1zM406 506l228 -228l1 1q10 26 10 59q0 74 -52.5 126.5
t-126.5 52.5q-27 0 -59 -10zM526 170l-228 228l-1 -1q-10 -26 -10 -59q0 -74 52.5 -126.5t126.5 -52.5q27 0 59 10z" />
    <glyph glyph-name="uni23AF" unicode="&#x23af;" horiz-adv-x="960" 
d="M970 218h-980v160h980v-160z" />
    <glyph glyph-name="arrowvertex" unicode="&#x23d0;" horiz-adv-x="1000" 
d="M580 -320h-160v1300h160v-1300z" />
    <glyph glyph-name="block" unicode="&#x2588;" horiz-adv-x="1000" 
d="M1000 -165h-1000v1000h1000v-1000z" />
    <glyph glyph-name="uni25A0" unicode="&#x25a0;" horiz-adv-x="700" 
d="M14 675h672v-675h-672v675z" />
    <glyph glyph-name="uni25A1" unicode="&#x25a1;" horiz-adv-x="871" 
d="M771 0h-671v675h671v-675zM595 170v335h-319v-335h319z" />
    </font>
</defs>
</svg>
