<?xml version="1.0" standalone="no"?>
<!DOCTYPE svg PUBLIC "-//W3C//DTD SVG 1.1//EN" "http://www.w3.org/Graphics/SVG/1.1/DTD/svg11.dtd" >
<svg xmlns="http://www.w3.org/2000/svg" xmlns:xlink="http://www.w3.org/1999/xlink" version="1.1">
<metadata>
Created by FontForge 20170731 at Tue Nov 22 05:06:06 2011
 By Aleksey,,,
Copyright 1994-2011 Luc(as) de Groot, published by LucasFonts, www.lucasfonts.com  All rights reserved.
</metadata>
<defs>
<font id="TheSansC4s-Light" horiz-adv-x="550" >
  <font-face 
    font-family="TheSans C4s Light"
    font-weight="300"
    font-stretch="normal"
    units-per-em="1000"
    panose-1="2 11 3 2 5 3 2 2 2 3"
    ascent="740"
    descent="-260"
    x-height="497"
    cap-height="675"
    bbox="-453 -320 2818 980"
    underline-thickness="50"
    underline-position="-327"
    unicode-range="U+000D-FB05"
  />
<missing-glyph 
d="M300 150h-150v250h50v-200h100v-50zM500 50h-450v450h450v-450zM350 350h-100v50h150v-250h-50v100h-100v50h100v50zM100 100h350v350h-350v-350z" />
    <glyph glyph-name="f_b" unicode="fb" horiz-adv-x="890" 
d="M335 447h-152v-447h-63v447h-114v50h114v37q0 102 52.5 151.5t160.5 49.5q33 0 72 -3.5t62 -6.5l23 -3v-253q0 -50 -8 -90l2 -1q21 60 67.5 93.5t106.5 33.5q88 0 136 -59.5t48 -174.5q0 -133 -68.5 -205t-185.5 -72q-38 0 -78 4.5t-61 9.5l-21 4v664q-53 8 -106 8
q-72 0 -105.5 -33.5t-33.5 -112.5v-41h152v-50zM490 240v-181q47 -15 105 -15q85 0 132.5 54t47.5 167q0 189 -127 189q-50 0 -87.5 -36t-54 -83t-16.5 -95z" />
    <glyph glyph-name="f_f" unicode="ff" horiz-adv-x="649" 
d="M486 0h-63v447h-240v-447h-63v447h-114v50h114v26q0 40 9.5 74t31.5 64t63.5 47.5t99.5 17.5q75 0 162 -29q49 38 123 38q18 0 38 -2.5t31 -4.5l12 -2l-7 -54q-40 11 -81 11q-60 0 -88 -36.5t-28 -114.5v-35h153v-50h-153v-447zM423 497v32q0 74 26 121q-67 25 -133 25
q-133 0 -133 -142v-36h240z" />
    <glyph glyph-name="f_f_b" unicode="ffb" horiz-adv-x="1193" 
d="M638 447h-152v-447h-63v447h-240v-447h-63v447h-114v50h114v26q0 40 9.5 74t31.5 64t63.5 47t99.5 17q81 0 164 -30q52 40 147 40q33 0 72.5 -3.5t62.5 -6.5l23 -3v-253q0 -53 -9 -90l2 -1q22 60 68.5 93.5t106.5 33.5q88 0 135.5 -59.5t47.5 -174.5q0 -133 -68 -205
t-185 -72q-38 0 -78.5 4.5t-61.5 9.5l-21 4v664q-52 8 -105 8q-72 0 -105.5 -33.5t-33.5 -112.5v-41h152v-50zM423 497v37q0 71 26 116q-67 25 -133 25q-133 0 -133 -142v-36h240zM793 240v-181q47 -15 105 -15q85 0 132.5 54t47.5 167q0 189 -127 189q-50 0 -87.5 -36
t-54 -83t-16.5 -95z" />
    <glyph glyph-name="f_f_f" unicode="fff" horiz-adv-x="957" 
d="M793 0h-63v447h-244v-447h-63v447h-240v-447h-63v447h-114v50h114v21q0 40 9.5 74t31.5 64.5t63.5 48t99.5 17.5q72 0 162 -30q49 38 123 38q18 0 38 -2t31 -4l12 -3l-7 -54q-40 12 -81 12q-60 0 -88 -36.5t-28 -114.5v-31h244v32q0 103 49 154.5t137 51.5
q18 0 38.5 -2.5t31.5 -4.5l11 -2l-6 -54q-41 11 -81 11q-61 0 -89 -36.5t-28 -114.5v-35h154v-50h-154v-447zM423 497v28q0 73 26 120q-67 25 -133 25q-133 0 -133 -142v-31h240z" />
    <glyph glyph-name="f_f_h" unicode="ffh" horiz-adv-x="1213" 
d="M1117 0h-63v322q0 66 -22.5 99t-78.5 33q-70 0 -115 -61t-45 -156v-237h-63v676q-52 8 -105 8q-72 0 -105.5 -33.5t-33.5 -112.5v-41h152v-50h-152v-447h-63v447h-240v-447h-63v447h-114v50h114v26q0 40 9.5 74t31.5 64t63.5 47t99.5 17q81 0 164 -30q52 40 147 40
q33 0 72.5 -3.5t62.5 -6.5l23 -3v-243q0 -66 -8 -99l2 -1q22 59 69 92.5t112 33.5q149 0 149 -159v-346zM423 497v37q0 71 26 116q-67 25 -133 25q-133 0 -133 -142v-36h240z" />
    <glyph glyph-name="f_f_i" unicode="ffi" horiz-adv-x="889" 
d="M793 0h-63v447h-244v-447h-63v447h-240v-447h-63v447h-114v50h114v26q0 40 9.5 74t31.5 64t63.5 47.5t99.5 17.5q81 0 170 -33q55 42 142 42q72 0 139 -18l-13 -54q-63 20 -132 20q-144 0 -144 -150v-36h307v-497zM423 497v25q0 76 31 126q-70 27 -138 27
q-133 0 -133 -142v-36h240z" />
    <glyph glyph-name="f_f_igrave" unicode="ff&#xec;" horiz-adv-x="894" 
d="M798 0h-63v447h-245v-447h-62v447h-245v-447h-63v447h-114v50h114v32q0 97 46.5 146.5t129.5 49.5l59 -4l-5 -53q-29 6 -60 6q-107 0 -107 -142v-35h245v61q0 84 36 130.5t103 46.5l50 -5l-7 -53q-23 6 -48 6q-72 0 -72 -121v-65h308v-497zM798 592l-41 -22l-91 153
l52 27z" />
    <glyph glyph-name="f_f_iacute" unicode="ff&#xed;" horiz-adv-x="894" 
d="M798 0h-63v447h-245v-447h-62v447h-245v-447h-63v447h-114v50h114v32q0 97 46.5 146.5t129.5 49.5l59 -4l-5 -53q-29 6 -60 6q-107 0 -107 -142v-35h245v42q0 96 46.5 146t129.5 50l58 -5l-5 -53q-28 6 -60 6q-107 0 -107 -141v-45h308v-497zM872 714l-108 -139l-39 26
l98 144z" />
    <glyph glyph-name="f_f_icircumflex" unicode="ff&#xee;" horiz-adv-x="894" 
d="M798 0h-63v447h-245v-447h-62v447h-245v-447h-63v447h-114v50h114v32q0 97 46.5 146.5t129.5 49.5l59 -4l-5 -53q-29 6 -60 6q-107 0 -107 -142v-35h245v61q0 84 36 130.5t103 46.5l50 -5l-7 -53q-23 6 -48 6q-72 0 -72 -121v-65h308v-497zM885 609l-32 -31l-85 87
l-86 -87l-31 30l118 128z" />
    <glyph glyph-name="f_f_itilde" unicode="ff&#x129;" horiz-adv-x="894" 
d="M898 661l-35 26q-21 -48 -48 -48q-15 0 -43 28.5t-57 28.5q-24 0 -47.5 -19t-36.5 -52l34 -25q21 47 48 47q15 0 43 -28.5t57 -28.5q24 0 47.5 19.5t37.5 51.5zM798 0h-63v447h-245v-447h-62v447h-245v-447h-63v447h-114v50h114v32q0 97 43.5 146.5t119.5 49.5l58 -4
l-6 -54q-28 7 -58 7q-94 0 -94 -141v-36h245v61q0 84 36 130.5t103 46.5l50 -5l-7 -53q-23 6 -48 6q-72 0 -72 -121v-65h308v-497z" />
    <glyph glyph-name="f_f_idieresis" unicode="ff&#xef;" horiz-adv-x="896" 
d="M890 658q0 -18 -12.5 -30.5t-30.5 -12.5t-30.5 12.5t-12.5 30.5q0 19 12.5 31t30.5 12t30.5 -12t12.5 -31zM736 658q0 -18 -12.5 -30.5t-30.5 -12.5q-19 0 -31 12.5t-12 30.5q0 19 12 31t31 12q18 0 30.5 -12t12.5 -31zM800 0h-63v447h-247v-447h-62v447h-245v-447h-63
v447h-114v50h114v32q0 97 43.5 146.5t119.5 49.5l58 -4l-6 -54q-28 7 -58 7q-94 0 -94 -141v-36h245v61q0 84 36 130.5t103 46.5l49 -4l-6 -54q-23 7 -48 7q-72 0 -72 -122v-65h310v-497z" />
    <glyph glyph-name="f_f_imacron" unicode="ff&#x12b;" horiz-adv-x="894" 
d="M881 629h-219v48h219v-48zM798 0h-63v447h-245v-447h-62v447h-245v-447h-63v447h-114v50h114v32q0 97 43.5 146.5t119.5 49.5l58 -4l-6 -54q-28 7 -58 7q-94 0 -94 -141v-36h245v61q0 84 36 130.5t103 46.5l49 -4l-6 -54q-23 7 -48 7q-72 0 -72 -122v-65h308v-497z" />
    <glyph glyph-name="f_f_ibreve" unicode="ff&#x12d;" horiz-adv-x="894" 
d="M798 0h-63v447h-245v-447h-62v447h-245v-447h-63v447h-114v50h114v32q0 97 46.5 146.5t129.5 49.5l59 -4l-5 -53q-29 6 -60 6q-107 0 -107 -142v-35h245v61q0 84 36 130.5t103 46.5l50 -5l-7 -53q-23 6 -48 6q-72 0 -72 -121v-65h308v-497zM832 716h46q0 -58 -29 -89.5
t-81 -31.5t-79.5 31.5t-27.5 89.5h46q0 -30 16.5 -51t45.5 -21t46 19.5t17 52.5z" />
    <glyph glyph-name="f_f_iogonek" unicode="ff&#x12f;" horiz-adv-x="889" 
d="M423 497v25q0 76 31 126q-70 27 -138 27q-133 0 -133 -142v-36h240zM829 -154l23 -38q-45 -40 -100 -40q-45 0 -70 22.5t-25 60.5q0 70 73 152v444h-244v-447h-63v447h-240v-447h-63v447h-114v50h114v26q0 40 9.5 74t31.5 64t63.5 47.5t99.5 17.5q81 0 170 -33
q55 42 142 42q72 0 139 -18l-13 -54q-63 20 -132 20q-144 0 -144 -150v-36h307v-497q-74 -73 -74 -138q0 -43 43 -43q31 0 67 27z" />
    <glyph glyph-name="f_f_dotlessi" unicode="ff&#x131;" horiz-adv-x="894" 
d="M798 0h-63v447h-245v-447h-62v447h-245v-447h-63v447h-114v50h114v32q0 97 46.5 146.5t129.5 49.5l59 -4l-5 -53q-29 6 -60 6q-107 0 -107 -142v-35h245v42q0 96 46.5 146t129.5 50l58 -5l-5 -53q-28 6 -60 6q-107 0 -107 -141v-45h308v-497z" />
    <glyph glyph-name="f_f_j" unicode="ffj" horiz-adv-x="889" 
d="M793 497v-565q0 -102 -34 -146t-122 -44q-39 0 -67 9l7 57q33 -12 65 -12q53 0 70.5 26.5t17.5 105.5v519h-244v-447h-63v447h-240v-447h-63v447h-114v50h114v26q0 40 9.5 74t31.5 64t63.5 47.5t99.5 17.5q81 0 170 -33q55 42 142 42q72 0 139 -18l-13 -54
q-63 20 -132 20q-144 0 -144 -150v-36h307zM423 497v25q0 76 31 126q-70 27 -138 27q-133 0 -133 -142v-36h240z" />
    <glyph glyph-name="f_f_dotlessj" unicode="ff&#x237;" horiz-adv-x="894" 
d="M798 497v-565q0 -100 -34.5 -145t-114.5 -45q-19 0 -37.5 2t-27.5 4l-9 2l7 57q32 -11 73 -11q46 0 63 27.5t17 104.5v519h-245v-447h-62v447h-245v-447h-63v447h-114v50h114v32q0 97 46.5 146.5t129.5 49.5l59 -4l-5 -53q-29 6 -60 6q-107 0 -107 -142v-35h245v61
q0 84 36 130.5t103 46.5l50 -5l-7 -53q-23 6 -48 6q-72 0 -72 -121v-65h308z" />
    <glyph glyph-name="f_f_jcircumflex" unicode="ff&#x135;" horiz-adv-x="894" 
d="M798 497v-565q0 -100 -34.5 -145t-114.5 -45q-19 0 -37.5 2t-27.5 4l-9 2l7 57q32 -11 73 -11q46 0 63 27.5t17 104.5v519h-245v-447h-62v447h-245v-447h-63v447h-114v50h114v32q0 97 46.5 146.5t129.5 49.5l59 -4l-5 -53q-29 6 -60 6q-107 0 -107 -142v-35h245v61
q0 84 36 130.5t103 46.5l50 -5l-7 -53q-23 6 -48 6q-72 0 -72 -121v-65h308zM885 609l-32 -31l-85 87l-86 -87l-31 30l118 128z" />
    <glyph glyph-name="f_f_k" unicode="ffk" horiz-adv-x="1107" 
d="M423 497v37q0 71 26 116q-67 25 -133 25q-133 0 -133 -142v-36h240zM1082 0h-84l-205 264v-264h-63v676q-52 8 -105 8q-72 0 -105.5 -33.5t-33.5 -112.5v-41h152v-50h-152v-447h-63v447h-240v-447h-63v447h-114v50h114v26q0 40 9.5 74t31.5 64t63.5 47t99.5 17
q81 0 164 -30q52 40 147 40q33 0 72.5 -3.5t62.5 -6.5l23 -3v-451l196 226h77l-203 -226z" />
    <glyph glyph-name="f_f_l" unicode="ffl" horiz-adv-x="889" 
d="M793 0h-63v676q-52 8 -105 8q-72 0 -105.5 -33.5t-33.5 -112.5v-41h152v-50h-152v-447h-63v447h-240v-447h-63v447h-114v50h114v26q0 40 9.5 74t31.5 64t63.5 47t99.5 17q81 0 164 -30q52 40 147 40q33 0 72.5 -3.5t62.5 -6.5l23 -3v-722zM423 497v37q0 71 26 116
q-67 25 -133 25q-133 0 -133 -142v-36h240z" />
    <glyph glyph-name="f_h" unicode="fh" horiz-adv-x="910" 
d="M814 0h-62v322q0 66 -22.5 99t-78.5 33q-71 0 -116 -61t-45 -156v-237h-62v676q-53 8 -106 8q-72 0 -105.5 -33.5t-33.5 -112.5v-41h152v-50h-152v-447h-63v447h-114v50h114v37q0 102 52.5 151.5t160.5 49.5q33 0 72 -3.5t62 -6.5l23 -3v-243q0 -66 -8 -99l2 -1
q22 59 69 92.5t112 33.5q149 0 149 -159v-346z" />
    <glyph glyph-name="f_i" unicode="fi" horiz-adv-x="586" 
d="M490 0h-62v447h-245v-447h-63v447h-114v50h114v25q0 101 54 157t159 56q72 0 139 -18l-13 -54q-63 20 -132 20q-144 0 -144 -150v-36h307v-497z" />
    <glyph glyph-name="f_i.TRK" unicode="fi" horiz-adv-x="586" 
d="M505 658q0 -18 -13 -31.5t-32 -13.5t-32 13t-13 32t13 32t32 13t32 -13t13 -32zM490 0h-62v447h-245v-447h-63v447h-114v50h114v42q0 96 46.5 146t129.5 50l59 -5l-6 -53q-28 6 -60 6q-106 0 -106 -141v-45h307v-497z" />
    <glyph glyph-name="f_igrave" unicode="f&#xec;" horiz-adv-x="586" 
d="M490 0h-62v447h-245v-447h-63v447h-114v50h114v61q0 84 36.5 130.5t103.5 46.5l49 -5l-6 -53q-23 6 -48 6q-72 0 -72 -121v-65h307v-497zM491 592l-41 -22l-91 153l52 27z" />
    <glyph glyph-name="f_iacute" unicode="f&#xed;" horiz-adv-x="586" 
d="M490 0h-62v447h-245v-447h-63v447h-114v50h114v42q0 96 46.5 146t129.5 50l59 -5l-5 -53q-29 6 -60 6q-107 0 -107 -141v-45h307v-497zM564 714l-108 -139l-39 26l98 144z" />
    <glyph glyph-name="f_icircumflex" unicode="f&#xee;" horiz-adv-x="586" 
d="M490 0h-62v447h-245v-447h-63v447h-114v50h114v61q0 84 36.5 130.5t103.5 46.5l49 -5l-6 -53q-23 6 -48 6q-72 0 -72 -121v-65h307v-497zM578 609l-32 -31l-85 87l-86 -87l-31 30l118 128z" />
    <glyph glyph-name="f_itilde" unicode="f&#x129;" horiz-adv-x="586" 
d="M490 0h-62v447h-245v-447h-63v447h-114v50h114v61q0 84 36.5 130.5t103.5 46.5l49 -5l-6 -53q-23 6 -48 6q-72 0 -72 -121v-65h307v-497zM323 625l34 -25q22 47 48 47q11 0 23 -9t20.5 -19.5t23.5 -19.5t33 -9q24 0 47.5 19.5t37.5 51.5l-34 26q-22 -48 -48 -48
q-11 0 -23 9t-20.5 19.5t-23.5 19.5t-33 9q-24 0 -47.5 -19t-37.5 -52z" />
    <glyph glyph-name="f_idieresis" unicode="f&#xef;" horiz-adv-x="589" 
d="M493 0h-63v447h-247v-447h-63v447h-114v50h114v61q0 85 36 131t104 46l48 -4l-6 -54q-23 7 -48 7q-71 0 -71 -122v-65h310v-497zM582 658q0 -18 -12.5 -30.5t-30.5 -12.5t-30.5 12.5t-12.5 30.5q0 19 12.5 31t30.5 12t30.5 -12t12.5 -31zM428 658q0 -18 -12.5 -30.5
t-30.5 -12.5t-30.5 12.5t-12.5 30.5q0 19 12.5 31t30.5 12t30.5 -12t12.5 -31z" />
    <glyph glyph-name="f_imacron" unicode="f&#x12b;" horiz-adv-x="586" 
d="M573 629h-218v48h218v-48zM490 0h-62v447h-245v-447h-63v447h-114v50h114v61q0 85 36 131t104 46l48 -4l-6 -54q-23 7 -48 7q-71 0 -71 -122v-65h307v-497z" />
    <glyph glyph-name="f_ibreve" unicode="f&#x12d;" horiz-adv-x="586" 
d="M490 0h-62v447h-245v-447h-63v447h-114v50h114v61q0 84 36.5 130.5t103.5 46.5l49 -5l-6 -53q-23 6 -48 6q-72 0 -72 -121v-65h307v-497zM524 716h46q0 -58 -29 -89.5t-81 -31.5t-79.5 31.5t-27.5 89.5h46q0 -30 16.5 -51t45.5 -21t46 19.5t17 52.5z" />
    <glyph glyph-name="f_iogonek" unicode="f&#x12f;" horiz-adv-x="586" 
d="M526 -154l23 -38q-45 -40 -100 -40q-45 0 -70 22.5t-25 60.5q0 70 74 152v444h-245v-447h-63v447h-114v50h114v25q0 101 54 157t159 56q72 0 139 -18l-13 -54q-63 20 -132 20q-144 0 -144 -150v-36h307v-497q-74 -73 -74 -138q0 -43 43 -43q31 0 67 27z" />
    <glyph glyph-name="f_dotlessi" unicode="f&#x131;" horiz-adv-x="586" 
d="M490 0h-62v447h-245v-447h-63v447h-114v50h114v42q0 96 46.5 146t129.5 50l59 -5l-5 -53q-29 6 -60 6q-107 0 -107 -141v-45h307v-497z" />
    <glyph glyph-name="f_ij" unicode="f&#x133;" horiz-adv-x="910" 
d="M505 658q0 -18 -13 -31.5t-32 -13.5t-32 13t-13 32t13 32t32 13t32 -13t13 -32zM827 658q0 -18 -13.5 -31.5t-31.5 -13.5q-19 0 -32 13t-13 32t13 32t32 13q18 0 31.5 -13t13.5 -32zM814 497v-533q0 -112 -62.5 -167.5t-166.5 -55.5q-76 0 -142 17l10 63q66 -23 141 -23
q80 0 119 41t39 130v48q0 63 7 99l-2 1q-22 -58 -68.5 -91.5t-111.5 -33.5q-149 0 -149 160v295h-245v-447h-63v447h-114v50h114v42q0 96 46.5 146t129.5 50l59 -5l-6 -53q-28 6 -60 6q-106 0 -106 -141v-45h307v-322q0 -66 22.5 -99t78.5 -33q71 0 116 61.5t45 155.5v237
h62z" />
    <glyph glyph-name="f_j" unicode="fj" horiz-adv-x="586" 
d="M490 497v-565q0 -102 -34 -146t-122 -44q-38 0 -67 9l7 57q33 -12 66 -12q52 0 70 27t18 105v519h-245v-447h-63v447h-114v50h114v25q0 101 54 157t159 56q72 0 139 -18l-13 -54q-63 20 -132 20q-144 0 -144 -150v-36h307z" />
    <glyph glyph-name="f_dotlessj" unicode="f&#x237;" horiz-adv-x="586" 
d="M490 497v-565q0 -102 -34 -146t-122 -44q-38 0 -67 9l7 57q33 -12 66 -12q52 0 70 27t18 105v519h-245v-447h-63v447h-114v50h114v42q0 96 46.5 146t129.5 50l59 -5l-5 -53q-29 6 -60 6q-107 0 -107 -141v-45h307z" />
    <glyph glyph-name="f_jcircumflex" unicode="f&#x135;" horiz-adv-x="586" 
d="M490 497v-565q0 -102 -34 -146t-122 -44q-38 0 -67 9l7 57q33 -12 66 -12q52 0 70 27t18 105v519h-245v-447h-63v447h-114v50h114v61q0 84 36.5 130.5t103.5 46.5l49 -5l-6 -53q-23 6 -48 6q-72 0 -72 -121v-65h307zM578 609l-32 -31l-85 87l-86 -87l-31 30l118 128z" />
    <glyph glyph-name="f_k" unicode="fk" horiz-adv-x="804" 
d="M779 0h-83l-206 264v-264h-62v676q-53 8 -106 8q-72 0 -105.5 -33.5t-33.5 -112.5v-41h152v-50h-152v-447h-63v447h-114v50h114v37q0 102 52.5 151.5t160.5 49.5q33 0 72 -3.5t62 -6.5l23 -3v-451l197 226h76l-203 -226z" />
    <glyph glyph-name="f_l" unicode="fl" horiz-adv-x="586" 
d="M490 0h-62v676q-53 8 -106 8q-72 0 -105.5 -33.5t-33.5 -112.5v-41h152v-50h-152v-447h-63v447h-114v50h114v37q0 102 52.5 151.5t160.5 49.5q33 0 72 -3.5t62 -6.5l23 -3v-722z" />
    <glyph glyph-name="f_lacute" unicode="f&#x13a;" horiz-adv-x="586" 
d="M490 0h-62v676q-53 8 -106 8q-72 0 -105.5 -33.5t-33.5 -112.5v-41h152v-50h-152v-447h-63v447h-114v50h114v37q0 102 52.5 151.5t160.5 49.5q33 0 72 -3.5t62 -6.5l23 -3v-722zM605 850l-172 -58l-15 38l164 74z" />
    <glyph glyph-name="f_lcaron" unicode="f&#x13e;" horiz-adv-x="602" 
d="M490 0h-62v676q-53 8 -106 8q-72 0 -105.5 -33.5t-33.5 -112.5v-41h152v-50h-152v-447h-63v447h-114v50h114v37q0 102 52.5 151.5t160.5 49.5q33 0 72 -3.5t62 -6.5l23 -3v-722zM663 733l-70 -160l-44 15l58 164z" />
    <glyph glyph-name="f_lcommaaccent" unicode="f&#x13c;" horiz-adv-x="586" 
d="M490 0h-62v676q-53 8 -106 8q-72 0 -105.5 -33.5t-33.5 -112.5v-41h152v-50h-152v-447h-63v447h-114v50h114v37q0 102 52.5 151.5t160.5 49.5q33 0 72 -3.5t62 -6.5l23 -3v-722zM416 -239l-24 25q43 40 43 76q0 13 -7.5 25.5t-7.5 22.5q0 16 11 28t29 12q19 0 31.5 -15
t12.5 -37q0 -62 -88 -137z" />
    <glyph glyph-name=".notdef" 
d="M300 150h-150v250h50v-200h100v-50zM500 50h-450v450h450v-450zM350 350h-100v50h150v-250h-50v100h-100v50h100v50zM100 100h350v350h-350v-350z" />
    <glyph glyph-name=".null" horiz-adv-x="0" 
 />
    <glyph glyph-name=".null" horiz-adv-x="0" 
 />
    <glyph glyph-name="nonmarkingreturn" horiz-adv-x="333" 
 />
    <glyph glyph-name="CR" unicode="&#xd;" horiz-adv-x="500" 
 />
    <glyph glyph-name="space" unicode=" " horiz-adv-x="218" 
 />
    <glyph glyph-name="exclam" unicode="!" horiz-adv-x="318" 
d="M207 699l-12 -545h-51l-13 545h76zM217 40q0 -20 -14 -34t-34 -14t-34 14t-14 34t14 33.5t34 13.5t34 -13.5t14 -33.5z" />
    <glyph glyph-name="quotedbl" unicode="&#x22;" horiz-adv-x="338" 
d="M280 697l-12 -213h-46l-12 213h70zM129 697l-13 -213h-46l-12 213h71z" />
    <glyph glyph-name="numbersign" unicode="#" horiz-adv-x="573" 
d="M536 441h-102l-22 -200h100v-43h-105l-20 -198h-52l21 198h-169l-20 -198h-52l21 198h-100v43h104l22 200h-101v43h105l21 191h51l-20 -191h168l21 191h52l-21 -191h98v-43zM382 441h-168l-22 -200h168z" />
    <glyph glyph-name="dollar" unicode="$" horiz-adv-x="486" 
d="M256 -111h-49v133q-70 1 -127 16l4 62q56 -23 133 -23q65 0 104.5 28t39.5 87q0 42 -30.5 69.5t-73.5 44.5t-86.5 36t-74 55.5t-30.5 91.5q0 64 44.5 108.5t118.5 52.5v109h50v-106q56 -1 107 -12l-4 -59q-59 18 -114 18q-73 0 -106.5 -29.5t-33.5 -72.5q0 -40 30.5 -68
t74 -45t87.5 -36.5t74.5 -56t30.5 -89.5q0 -69 -44.5 -117.5t-124.5 -60.5v-136z" />
    <glyph glyph-name="percent" unicode="%" horiz-adv-x="743" 
d="M694 151q0 -71 -38.5 -115t-106.5 -44q-135 0 -135 150q0 69 39 113.5t106 44.5q135 0 135 -149zM639 663l-494 -682l-43 29l494 683zM328 535q0 -71 -39 -115.5t-106 -44.5q-135 0 -135 151q0 69 39 113.5t106 44.5q135 0 135 -149zM637 145q0 109 -84 109
q-37 0 -59 -29t-22 -76q0 -56 20 -83.5t65 -27.5q35 0 57.5 30t22.5 77zM271 528q0 55 -20 82t-64 27q-37 0 -59 -29t-22 -76q0 -111 85 -111q36 0 58 30t22 77z" />
    <glyph glyph-name="ampersand" unicode="&#x26;" horiz-adv-x="794" 
d="M728 34l-39 -50q-86 64 -144 111q-111 -103 -266 -103q-103 0 -160 51.5t-57 138.5q0 66 37 116.5t106 103.5q-93 111 -93 190q0 60 43 101.5t119 41.5q69 0 108 -36t39 -92q0 -54 -31 -100.5t-104 -102.5q86 -92 258 -228q79 106 71 264h64q6 -176 -92 -299
q72 -56 141 -107zM358 598q0 38 -22.5 62t-68.5 24q-41 0 -67 -24.5t-26 -64.5q0 -66 78 -156q106 83 106 159zM291 45q120 0 211 84q-164 130 -264 236q-59 -47 -85.5 -87.5t-26.5 -87.5q0 -66 44 -105.5t121 -39.5z" />
    <glyph glyph-name="quotesingle" unicode="'" horiz-adv-x="187" 
d="M129 697l-13 -213h-46l-12 213h71z" />
    <glyph glyph-name="parenleft" unicode="(" horiz-adv-x="301" 
d="M274 -180l-46 -25q-84 134 -114.5 250.5t-30.5 237.5q0 261 146 494l43 -23q-128 -216 -128 -465q0 -259 130 -469z" />
    <glyph glyph-name="parenright" unicode=")" horiz-adv-x="301" 
d="M79 -205l-43 24q128 216 128 465q0 258 -129 469l46 24q84 -133 114 -250t30 -237q0 -262 -146 -495z" />
    <glyph glyph-name="asterisk" unicode="*" horiz-adv-x="366" 
d="M315 538l-25 -44l-94 64l8 -114h-50l8 114l-95 -64l-24 43l104 50l-104 49l25 44l95 -64l-8 114h50l-8 -114l94 64l24 -43l-103 -49z" />
    <glyph glyph-name="plus" unicode="+" 
d="M506 271h-202v-211h-60v211h-200v53h200v210h60v-210h202v-53z" />
    <glyph glyph-name="comma" unicode="," horiz-adv-x="208" 
d="M53 -141l-29 25q29 31 42.5 59.5t12.5 46.5t-10 31q-16 22 -4.5 44.5t36.5 22.5q31 0 44 -29.5t-9 -85t-83 -114.5z" />
    <glyph glyph-name="hyphen" unicode="-" horiz-adv-x="327" 
d="M278 268h-229v52h229v-52z" />
    <glyph glyph-name="period" unicode="." horiz-adv-x="208" 
d="M152 41q0 -20 -14 -34.5t-34 -14.5t-34 14.5t-14 34.5t14 34t34 14t34 -14t14 -34z" />
    <glyph glyph-name="slash" unicode="/" horiz-adv-x="420" 
d="M421 757l-350 -918h-59l350 918h59z" />
    <glyph glyph-name="zero" unicode="0" horiz-adv-x="583" 
d="M526 343q0 -173 -67 -262t-175 -89q-227 0 -227 340q0 173 67 262t175 89q227 0 227 -340zM459 335q0 296 -167 296q-76 0 -122 -70.5t-46 -220.5q0 -295 167 -295q76 0 122 70.5t46 219.5z" />
    <glyph glyph-name="one" unicode="1" horiz-adv-x="347" 
d="M244 0h-66v612l-135 -54l-12 59l159 58h54v-675z" />
    <glyph glyph-name="two" unicode="2" horiz-adv-x="502" 
d="M449 0h-381v51l144 168q82 95 112 155t30 123q0 58 -33.5 95.5t-98.5 37.5q-67 0 -138 -43l-9 57q76 39 162 39t135.5 -49.5t49.5 -127.5q0 -72 -37 -141t-131 -179l-110 -129v-1q79 3 305 3v-59z" />
    <glyph glyph-name="three" unicode="3" horiz-adv-x="500" 
d="M69 3l9 59q39 -14 103 -14q82 0 130.5 41.5t48.5 104.5t-51.5 99t-145.5 36q-28 0 -58 -3v52q228 -6 228 142q0 53 -33 82t-90 29q-63 0 -122 -32l-5 56q68 28 137 28q90 0 135 -43t45 -111q0 -58 -31.5 -101.5t-86.5 -64.5v-2q65 -13 105.5 -56t40.5 -107
q0 -88 -71.5 -146.5t-180.5 -58.5q-65 0 -107 10z" />
    <glyph glyph-name="four" unicode="4" horiz-adv-x="537" 
d="M515 164h-121v-164h-62v164h-311l-4 49l292 462h85v-452h121v-59zM332 222v391h-1l-249 -394q70 3 250 3z" />
    <glyph glyph-name="five" unicode="5" horiz-adv-x="464" 
d="M66 6l7 59q59 -18 120 -18q77 0 121 40.5t44 113.5q0 149 -194 149l-75 -3v328h295v-61h-235v-212q139 7 207 -45t68 -145q0 -99 -66 -159.5t-172 -60.5q-60 0 -120 14z" />
    <glyph glyph-name="six" unicode="6" horiz-adv-x="575" 
d="M459 681v-57q-23 4 -56 4q-108 0 -170.5 -59.5t-83.5 -183.5q-6 -40 -8 -48l1 -1q24 37 70 61.5t105 24.5q92 0 147 -55t55 -146q0 -97 -63 -163t-162 -66q-56 0 -98 21t-64.5 51t-35.5 72.5t-16.5 75t-3.5 68.5q0 204 93.5 303.5t241.5 99.5q30 0 48 -2zM454 210
q0 72 -39.5 115.5t-110.5 43.5q-69 0 -112.5 -44t-43.5 -106q0 -79 41 -127t112 -48q66 0 109.5 46t43.5 120z" />
    <glyph glyph-name="seven" unicode="7" horiz-adv-x="452" 
d="M420 675v-55q-63 -133 -122 -304t-92 -316h-72q40 159 102 332t114 283q-27 -2 -323 -2v62h393z" />
    <glyph glyph-name="eight" unicode="8" horiz-adv-x="547" 
d="M478 167q0 -81 -60.5 -128.5t-153.5 -47.5q-96 0 -147.5 45.5t-51.5 117.5q0 59 39 102.5t109 88.5q-70 39 -103.5 80t-33.5 94q0 75 55.5 120.5t148.5 45.5q85 0 134.5 -42.5t49.5 -110.5q0 -55 -36.5 -95t-104.5 -84q75 -41 115 -84.5t40 -101.5zM398 526
q0 47 -32.5 77t-92.5 30q-61 0 -96.5 -29t-35.5 -77q0 -43 32 -76t99 -70q69 43 97.5 75t28.5 70zM410 157q0 28 -11 51t-35.5 43.5t-44 33.5t-55.5 33q-64 -40 -97.5 -75t-33.5 -82q0 -53 37.5 -84.5t102.5 -31.5q59 0 98 29.5t39 82.5z" />
    <glyph glyph-name="nine" unicode="9" horiz-adv-x="583" 
d="M97 -3v61q43 -10 85 -10q106 0 167 58.5t82 180.5q6 40 9 50l-1 1q-24 -37 -70 -61.5t-104 -24.5q-92 0 -147 55t-55 146q0 97 63 163.5t162 66.5q57 0 99 -21.5t64 -51t35 -72.5t16.5 -75t3.5 -68q0 -205 -92 -304t-241 -99q-41 0 -76 5zM434 455q0 80 -41 128t-112 48
q-66 0 -109.5 -46t-43.5 -121q0 -71 39.5 -114.5t110.5 -43.5q69 0 112.5 44t43.5 105z" />
    <glyph glyph-name="colon" unicode=":" horiz-adv-x="278" 
d="M204 340q0 -20 -14 -34t-34 -14t-34 14t-14 34t14 34t34 14t34 -14t14 -34zM204 41q0 -20 -14 -34.5t-34 -14.5t-34 14.5t-14 34.5t14 34t34 14t34 -14t14 -34z" />
    <glyph glyph-name="semicolon" unicode=";" horiz-adv-x="278" 
d="M204 340q0 -20 -14 -34t-34 -14t-34 14t-14 34t14 34t34 14t34 -14t14 -34zM107 -141l-29 25q29 31 42 59.5t12.5 46.5t-9.5 31q-16 22 -5 44.5t37 22.5q31 0 44 -29.5t-9 -85t-83 -114.5z" />
    <glyph glyph-name="less" unicode="&#x3c;" 
d="M432 72l-40 -43l-314 275l314 275l40 -39l-273 -235z" />
    <glyph glyph-name="equal" unicode="=" 
d="M493 349h-436v53h436v-53zM493 192h-436v54h436v-54z" />
    <glyph glyph-name="greater" unicode="&#x3e;" 
d="M472 304l-314 -275l-40 39l273 235l-273 233l40 43z" />
    <glyph glyph-name="question" unicode="?" horiz-adv-x="441" 
d="M221 154h-62q-17 64 -9.5 103t32.5 73.5t51.5 57.5t47.5 56t21 68q0 53 -57.5 92t-148.5 43l8 58q119 -5 193.5 -58.5t74.5 -127.5q0 -38 -15.5 -70t-37 -52.5t-45 -45.5t-40.5 -49t-22.5 -62.5t9.5 -85.5zM238 40q0 -20 -14 -34t-34 -14t-33.5 14t-13.5 34t13.5 33.5
t33.5 13.5t34 -13.5t14 -33.5z" />
    <glyph glyph-name="at" unicode="@" horiz-adv-x="1024" 
d="M673 -77l8 -50q-92 -26 -191 -26q-186 0 -294 106t-108 284q0 103 37.5 193t100.5 152t147.5 97.5t176.5 35.5q94 0 168.5 -29t120 -78t69 -110.5t23.5 -130.5q0 -133 -65 -213t-161 -80q-66 0 -95 39t-22 92h-2q-18 -52 -59.5 -91.5t-97.5 -39.5q-53 0 -83.5 38.5
t-30.5 105.5q0 121 62 203.5t175 82.5q31 0 65 -3t52 -6l18 -3l-43 -227q-13 -67 5.5 -102.5t64.5 -35.5q69 0 113.5 64t44.5 171q0 59 -18.5 111t-56 96t-102 70t-149.5 26q-168 0 -282.5 -119.5t-114.5 -299.5q0 -161 91 -254.5t257 -93.5q85 0 176 25zM601 381l11 63
q-29 7 -72 7q-41 0 -73 -21t-50 -54.5t-27.5 -71t-9.5 -73.5q0 -104 64 -104q47 0 91 67.5t66 186.5z" />
    <glyph glyph-name="A" unicode="A" horiz-adv-x="608" 
d="M592 0h-74l-61 173h-311l-62 -173h-68l253 675h72zM439 224l-107 293l-30 91h-1q-15 -47 -30 -89l-107 -295h275z" />
    <glyph glyph-name="B" unicode="B" horiz-adv-x="563" 
d="M96 0v675q84 3 168 3q111 0 164.5 -43.5t53.5 -118.5q0 -56 -32.5 -99t-89.5 -61v-1q68 -11 107 -52t39 -108q0 -33 -12.5 -65t-39.5 -63.5t-80 -50.5t-125 -19q-22 0 -47.5 0.5t-57 1.5t-48.5 1zM160 624v-250q22 -1 77 -1q87 0 132.5 34t45.5 98q0 122 -160 122
q-2 0 -95 -3zM160 323v-268q40 -6 97 -6q91 0 136.5 39t45.5 101q0 68 -49 101.5t-157 33.5q-55 0 -73 -1z" />
    <glyph glyph-name="C" unicode="C" horiz-adv-x="595" 
d="M535 85l13 -53q-90 -39 -194 -39q-148 0 -225 87.5t-77 243.5q0 161 80 259.5t245 98.5q85 0 161 -23l-12 -59q-79 28 -161 28q-124 0 -184.5 -82.5t-60.5 -210.5q0 -138 62.5 -212.5t186.5 -74.5q83 0 166 37z" />
    <glyph glyph-name="D" unicode="D" horiz-adv-x="686" 
d="M96 0v675q24 0 89 1.5t100 1.5q169 0 259 -83.5t90 -251.5q0 -169 -104 -257.5t-276 -88.5q-33 0 -84.5 2t-73.5 1zM160 623v-566q52 -7 103 -7q141 0 222.5 72t81.5 217q0 287 -290 287q-30 0 -117 -3z" />
    <glyph glyph-name="E" unicode="E" horiz-adv-x="515" 
d="M440 0h-344v675h344v-52h-280v-249h257v-51h-257v-270h280v-53z" />
    <glyph glyph-name="F" unicode="F" horiz-adv-x="472" 
d="M433 623h-273v-251h254v-51h-254v-321h-64v675h337v-52z" />
    <glyph glyph-name="G" unicode="G" horiz-adv-x="687" 
d="M597 337v-308q-101 -37 -217 -37q-155 0 -243.5 88t-88.5 245q0 159 91.5 258.5t262.5 99.5q91 0 184 -29l-15 -58q-84 34 -178 34q-72 0 -126.5 -24.5t-86.5 -66.5t-48 -93t-16 -110q0 -139 73 -214.5t201 -75.5q74 0 143 22v269h64z" />
    <glyph glyph-name="H" unicode="H" horiz-adv-x="706" 
d="M610 0h-64v324h-386v-324h-64v675h64v-298h386v298h64v-675z" />
    <glyph glyph-name="I" unicode="I" horiz-adv-x="256" 
d="M160 0h-64v675h64v-675z" />
    <glyph glyph-name="J" unicode="J" horiz-adv-x="344" 
d="M249 675v-507q0 -174 -170 -174q-40 0 -78 8v59q37 -13 84 -13q48 0 73.5 27t25.5 98v502h65z" />
    <glyph glyph-name="K" unicode="K" horiz-adv-x="575" 
d="M555 0h-91l-304 342v-342h-64v675h64v-327l304 327h79l-311 -326z" />
    <glyph glyph-name="L" unicode="L" horiz-adv-x="425" 
d="M418 0h-322v675h64v-622h258v-53z" />
    <glyph glyph-name="M" unicode="M" horiz-adv-x="892" 
d="M834 0h-67l-62 439q-18 123 -21 178h-2q-7 -26 -36 -112l-179 -505h-58l-169 476q-38 108 -47 141h-1q-3 -60 -17 -184l-51 -433h-66l91 675h88l171 -481q21 -52 33 -108h1q13 59 31 108l172 481h93z" />
    <glyph glyph-name="N" unicode="N" horiz-adv-x="695" 
d="M599 0h-68l-301 477q-52 84 -78 135q7 -142 7 -419v-193h-63v675h86l298 -470q23 -35 63 -111q-7 166 -7 407v174h63v-675z" />
    <glyph glyph-name="O" unicode="O" horiz-adv-x="707" 
d="M659 345q0 -165 -90 -259t-224 -94q-141 0 -219 91.5t-78 246.5q0 165 90 259t224 94q141 0 219 -91.5t78 -246.5zM592 332q0 135 -61.5 216t-177.5 81q-103 0 -170.5 -75.5t-67.5 -209.5q0 -136 61.5 -217t176.5 -81q103 0 171 75.5t68 210.5z" />
    <glyph glyph-name="P" unicode="P" horiz-adv-x="548" 
d="M160 0h-64v675q95 3 165 3q124 0 186 -58.5t62 -146.5q0 -102 -73 -167t-192 -65l-84 4v-245zM160 624v-324q47 -6 91 -6q93 0 142.5 47.5t49.5 120.5q0 75 -48.5 119.5t-146.5 44.5z" />
    <glyph glyph-name="Q" unicode="Q" horiz-adv-x="707" 
d="M707 -10v-57q-71 -8 -123 6.5t-103.5 33.5t-111.5 19h-24q-141 0 -219 91.5t-78 246.5q0 165 90 259t224 94q141 0 219 -91.5t78 -246.5q0 -115 -47 -200.5t-130 -118.5q22 0 89.5 -21.5t135.5 -14.5zM592 332q0 135 -61.5 216t-177.5 81q-103 0 -170.5 -75.5
t-67.5 -209.5q0 -136 61.5 -217t176.5 -81q103 0 171 75.5t68 210.5z" />
    <glyph glyph-name="R" unicode="R" horiz-adv-x="562" 
d="M529 0h-81l-229 306h-59v-306h-64v674q85 4 160 4q104 0 165.5 -43.5t61.5 -132.5q0 -87 -55 -135.5t-139 -56.5q30 -33 58 -71zM160 624v-268q45 -1 84 -1q84 0 128.5 36.5t44.5 101.5q0 66 -43.5 100t-125.5 34z" />
    <glyph glyph-name="S" unicode="S" horiz-adv-x="504" 
d="M402 670l-8 -58q-59 18 -117 18q-75 0 -114.5 -31t-39.5 -87q0 -45 33.5 -76t80.5 -49.5t94.5 -40t81 -62t33.5 -100.5q0 -85 -62.5 -138.5t-176.5 -53.5q-81 0 -148 19l11 62q73 -26 142 -26q77 0 122.5 32t45.5 98q0 40 -24 68.5t-59.5 44.5t-77.5 35t-77.5 38
t-59.5 56t-24 87q0 79 59.5 128t163.5 49q63 0 121 -13z" />
    <glyph glyph-name="T" unicode="T" horiz-adv-x="520" 
d="M501 622h-209v-622h-64v622h-209v53h482v-53z" />
    <glyph glyph-name="U" unicode="U" horiz-adv-x="701" 
d="M605 675v-420q0 -129 -66 -196t-197 -67q-60 0 -105 13.5t-71.5 34.5t-42.5 52.5t-21.5 62t-5.5 67.5v453h64v-446q0 -41 8 -72t28 -57.5t58 -41t94 -14.5q100 0 147 47t47 158v426h63z" />
    <glyph glyph-name="V" unicode="V" horiz-adv-x="610" 
d="M592 675l-253 -675h-72l-251 675h74l167 -463q20 -55 48 -146h1q23 78 51 151l167 458h68z" />
    <glyph glyph-name="W" unicode="W" horiz-adv-x="954" 
d="M912 675l-187 -675h-81l-146 497q-15 47 -22 90h-2q-10 -55 -20 -90l-142 -497h-83l-188 675h69l135 -487q19 -74 29 -129h1q14 75 29 124l141 492h65l148 -501q17 -56 28 -115h1q14 69 22 100l140 516h63z" />
    <glyph glyph-name="X" unicode="X" horiz-adv-x="578" 
d="M556 0h-80l-191 301l-189 -301h-74l226 349l-212 326h75l175 -275l173 275h73l-209 -320z" />
    <glyph glyph-name="Y" unicode="Y" horiz-adv-x="519" 
d="M514 675l-223 -408v-267h-64v267l-222 408h72l130 -242q28 -51 54 -112h1q34 73 56 113l128 241h68z" />
    <glyph glyph-name="Z" unicode="Z" horiz-adv-x="540" 
d="M496 0h-449v45l311 481q32 50 64 94q-78 -2 -166 -2h-198v57h434v-46l-328 -505q-20 -33 -45 -68q24 2 184 2h193v-58z" />
    <glyph glyph-name="bracketleft" unicode="[" horiz-adv-x="318" 
d="M278 -195h-182v962h182v-47h-123v-866h123v-49z" />
    <glyph glyph-name="backslash" unicode="\" horiz-adv-x="415" 
d="M423 -161h-58l-350 918h58z" />
    <glyph glyph-name="bracketright" unicode="]" horiz-adv-x="318" 
d="M221 -195h-182v49h124v866h-124v47h182v-962z" />
    <glyph glyph-name="asciicircum" unicode="^" 
d="M465 373l-49 -26l-154 278l-146 -278l-45 25l166 303h54z" />
    <glyph glyph-name="underscore" unicode="_" 
d="M550 -251h-550v49h550v-49z" />
    <glyph glyph-name="grave" unicode="`" horiz-adv-x="350" 
d="M255 607l-35 -31l-125 128l44 39z" />
    <glyph glyph-name="a" unicode="a" horiz-adv-x="519" 
d="M424 0h-64q0 74 6 109l-2 1q-19 -51 -66 -84.5t-110 -33.5q-59 0 -97 35t-38 94q0 76 79.5 122t226.5 46v33q0 68 -26 100t-91 32q-70 0 -151 -35l-12 51q89 35 170 35q92 0 132.5 -44.5t40.5 -128.5v-178q0 -64 2 -154zM359 226v15q-130 0 -186 -31t-56 -79
q0 -38 24 -62.5t63 -24.5q67 0 111 56t44 126z" />
    <glyph glyph-name="b" unicode="b" horiz-adv-x="558" 
d="M159 730v-261q0 -53 -9 -90l2 -1q21 60 67.5 93.5t106.5 33.5q89 0 136.5 -59.5t47.5 -174.5q0 -133 -68.5 -205t-184.5 -72q-39 0 -79 4.5t-61 9.5l-21 4v718h63zM159 240v-181q46 -15 104 -15q85 0 133 54t48 167q0 189 -128 189q-50 0 -87.5 -36t-53.5 -83t-16 -95z
" />
    <glyph glyph-name="c" unicode="c" horiz-adv-x="443" 
d="M401 74l13 -51q-67 -29 -155 -29q-213 0 -213 237q0 126 60.5 199t172.5 73q77 0 132 -23l-14 -53q-65 25 -128 25q-73 0 -114.5 -57.5t-41.5 -150.5q0 -91 35 -144t124 -53q69 0 129 27z" />
    <glyph glyph-name="d" unicode="d" horiz-adv-x="558" 
d="M462 0h-64q0 67 9 114l-2 1q-21 -57 -67 -90t-106 -33q-91 0 -137.5 61.5t-46.5 172.5q0 133 68.5 205t184.5 72q44 0 98 -6v233h63v-730zM399 257v183q-52 13 -104 13q-85 0 -132.5 -54t-47.5 -167q0 -189 127 -189q50 0 87.5 36t53.5 83t16 95z" />
    <glyph glyph-name="e" unicode="e" horiz-adv-x="503" 
d="M426 72l10 -50q-85 -30 -164 -30q-226 0 -226 255q0 114 58 186t157 72q96 0 143.5 -56.5t47.5 -143.5l-2 -48h-338q-2 -109 40 -160.5t129 -51.5q71 0 145 27zM115 304h270q1 72 -33 111.5t-95 39.5q-57 0 -95 -39t-47 -112z" />
    <glyph glyph-name="f" unicode="f" horiz-adv-x="346" 
d="M336 497v-50h-153v-447h-63v447h-114v50h114v32q0 103 48.5 154.5t137.5 51.5q18 0 38 -2.5t32 -4.5l11 -2l-6 -54q-41 11 -82 11q-60 0 -88 -36.5t-28 -114.5v-35h153z" />
    <glyph glyph-name="g" unicode="g" horiz-adv-x="530" 
d="M492 447h-88q41 -46 41 -111q0 -80 -51.5 -131.5t-144.5 -51.5q-32 0 -62 8q-37 -22 -37 -49q0 -40 82 -43l86 -3q91 -3 136 -41t45 -104q0 -81 -68.5 -130.5t-181.5 -49.5q-97 0 -152 39t-55 109q0 84 88 142q-44 23 -44 70t52 81q-73 47 -73 140q0 79 52 131t144 52
q32 0 64 -8h167v-50zM214 12q-11 0 -29 2q-77 -47 -77 -115q0 -52 40.5 -79.5t110.5 -27.5q84 0 129.5 33.5t45.5 87.5q0 92 -133 96zM382 329q0 56 -34 91.5t-93 35.5t-93 -35.5t-34 -91.5t34 -91.5t93 -35.5t93 35.5t34 91.5z" />
    <glyph glyph-name="h" unicode="h" horiz-adv-x="579" 
d="M483 0h-63v322q0 66 -22.5 99t-78.5 33q-70 0 -115 -61t-45 -156v-237h-63v730h63v-251q0 -66 -8 -99l2 -1q22 59 69 92.5t111 33.5q150 0 150 -159v-346z" />
    <glyph glyph-name="i" unicode="i" horiz-adv-x="255" 
d="M173 658q0 -18 -13 -31.5t-32 -13.5t-32 13t-13 32t13 32t32 13t32 -13t13 -32zM159 0h-63v497h63v-497z" />
    <glyph glyph-name="j" unicode="j" horiz-adv-x="263" 
d="M181 658q0 -18 -13 -31.5t-32 -13.5t-32 13t-13 32t13 32t32 13t32 -13t13 -32zM167 497v-565q0 -100 -34.5 -145t-114.5 -45q-18 0 -36.5 2t-27.5 4l-10 2l7 57q32 -11 73 -11q46 0 63 27.5t17 104.5v569h63z" />
    <glyph glyph-name="k" unicode="k" horiz-adv-x="473" 
d="M448 0h-84l-205 264v-264h-63v730h63v-459l196 226h74l-202 -225z" />
    <glyph glyph-name="l" unicode="l" horiz-adv-x="255" 
d="M159 0h-63v730h63v-730z" />
    <glyph glyph-name="m" unicode="m" horiz-adv-x="888" 
d="M792 0h-63v322q0 65 -21 98.5t-75 33.5q-65 0 -111.5 -60t-46.5 -159v-235h-63v323q0 62 -20 96.5t-76 34.5q-66 0 -111.5 -62t-45.5 -157v-235h-63v497h64q0 -68 -9 -116l2 -1q21 58 68.5 91.5t109.5 33.5q41 0 71 -13.5t43.5 -35t19 -39.5t5.5 -35q17 46 61 84.5
t114 38.5q147 0 147 -160v-345z" />
    <glyph glyph-name="n" unicode="n" horiz-adv-x="579" 
d="M483 0h-63v322q0 66 -22.5 99t-78.5 33q-70 0 -115 -61t-45 -156v-237h-63v497h64q0 -69 -9 -116l2 -1q21 58 68 91.5t112 33.5q150 0 150 -159v-346z" />
    <glyph glyph-name="o" unicode="o" horiz-adv-x="540" 
d="M495 253q0 -114 -61 -187.5t-172 -73.5q-101 0 -159 63.5t-58 188.5q0 114 61 187.5t172 73.5q101 0 159 -63.5t58 -188.5zM430 249q0 97 -42 151t-117 54q-74 0 -117.5 -53t-43.5 -153q0 -97 42 -150.5t117 -53.5q72 0 116.5 51.5t44.5 153.5z" />
    <glyph glyph-name="p" unicode="p" horiz-adv-x="558" 
d="M159 -251h-63v748h64q0 -75 -9 -114l2 -1q21 57 67 90t106 33q89 0 136.5 -59.5t47.5 -174.5q0 -133 -68 -204.5t-184 -71.5q-56 0 -99 6v-252zM159 240v-181q42 -15 104 -15q85 0 133 54t48 167q0 189 -128 189q-50 0 -87.5 -36t-53.5 -83t-16 -95z" />
    <glyph glyph-name="q" unicode="q" horiz-adv-x="558" 
d="M462 -251h-63v282q0 49 7 83l-2 1q-20 -56 -66.5 -89.5t-105.5 -33.5q-88 0 -136 59.5t-48 174.5q0 133 68.5 205t187.5 72q77 0 158 -13v-741zM399 257v184q-51 13 -104 13q-85 0 -132.5 -54.5t-47.5 -167.5q0 -189 127 -189q73 0 115 68.5t42 145.5z" />
    <glyph glyph-name="r" unicode="r" horiz-adv-x="354" 
d="M329 504l-3 -61q-84 13 -125.5 -50t-41.5 -195v-198h-63v497h64q0 -66 -13 -130l2 -1q17 65 61 106.5t119 31.5z" />
    <glyph glyph-name="s" unicode="s" horiz-adv-x="431" 
d="M343 496l-7 -56q-52 15 -102 15q-55 0 -84 -21.5t-29 -59.5q0 -34 26 -55t63.5 -32.5t75 -25t63.5 -44.5t26 -80q0 -62 -52.5 -103.5t-144.5 -41.5q-64 0 -120 14l7 60q56 -21 121 -21q59 0 91.5 23t32.5 64q0 35 -26 56t-63 32t-74.5 25t-63.5 44.5t-26 79.5
q0 59 49 97.5t137 38.5q44 0 100 -9z" />
    <glyph glyph-name="t" unicode="t" horiz-adv-x="369" 
d="M328 56l7 -53q-45 -10 -92 -10q-70 0 -98 33.5t-28 111.5v309h-111v50h111v168l63 17v-185h151v-50h-151v-289q0 -64 16 -87t61 -23q41 0 71 8z" />
    <glyph glyph-name="u" unicode="u" horiz-adv-x="579" 
d="M483 0h-64q0 69 9 116l-2 1q-21 -58 -68 -91.5t-112 -33.5q-150 0 -150 159v346h63v-322q0 -66 22.5 -99t78.5 -33q70 0 115 61t45 156v237h63v-497z" />
    <glyph glyph-name="v" unicode="v" horiz-adv-x="471" 
d="M459 497l-191 -497h-69l-187 497h72l124 -349q18 -52 27 -85h1q11 38 27 82l127 352h69z" />
    <glyph glyph-name="w" unicode="w" horiz-adv-x="791" 
d="M770 497l-163 -497h-76l-117 345q-14 41 -27 91h-1q-9 -36 -37 -125l-97 -311h-77l-155 497h72l92 -322q7 -24 18.5 -63.5t14.5 -51.5h1q14 53 33 116l102 321h77l105 -321q29 -92 35 -117h1q1 3 34 116l97 322h68z" />
    <glyph glyph-name="x" unicode="x" horiz-adv-x="512" 
d="M484 0h-85l-146 208l-146 -208h-80l191 248l-181 249h80l141 -203l145 203h73l-183 -245z" />
    <glyph glyph-name="y" unicode="y" horiz-adv-x="464" 
d="M452 497l-206 -548q-43 -115 -93 -161.5t-132 -46.5l-50 6l7 56q29 -7 57 -7q47 0 80 31t65 112l24 61l-192 497h74l112 -307q18 -51 38 -115h1q15 48 50 150l96 272h69z" />
    <glyph glyph-name="z" unicode="z" horiz-adv-x="445" 
d="M391 0h-342v44l266 399q-68 -2 -149 -2h-112v56h332v-43l-264 -398q64 2 152 2h117v-58z" />
    <glyph glyph-name="braceleft" unicode="{" horiz-adv-x="326" 
d="M294 -195h-16q-74 0 -106 44t-32 132v203q0 57 -23.5 81t-86.5 28v52q65 4 87.5 26.5t22.5 81.5v139q0 175 138 175h16v-47q-54 0 -75 -27.5t-21 -96.5v-138q0 -119 -93 -138v-1q93 -15 93 -139v-203q0 -69 21 -96t75 -27v-49z" />
    <glyph glyph-name="bar" unicode="|" horiz-adv-x="283" 
d="M166 -251h-50v1000h50v-1000z" />
    <glyph glyph-name="braceright" unicode="}" horiz-adv-x="322" 
d="M40 -195v49q54 0 75 27t21 96v203q0 124 93 139v1q-93 13 -93 133v143q0 69 -21 96.5t-75 27.5v47h16q138 0 138 -175v-134q0 -63 22 -86t87 -27v-52q-62 -4 -85.5 -28t-23.5 -81v-203q0 -88 -32 -132t-106 -44h-16z" />
    <glyph glyph-name="asciitilde" unicode="~" 
d="M442 568h47v-5q0 -61 -33 -99t-88 -38q-30 0 -53.5 11.5t-37.5 28.5t-27.5 34t-30.5 28.5t-39 11.5q-34 0 -51.5 -26t-18.5 -68h-47v4q0 61 33 99t88 38q30 0 53.5 -11.5t37.5 -28.5t27.5 -34t30.5 -28.5t39 -11.5q34 0 51.5 26t18.5 69z" />
    <glyph glyph-name="uni00A0" unicode="&#xa0;" horiz-adv-x="218" 
 />
    <glyph glyph-name="exclamdown" unicode="&#xa1;" horiz-adv-x="318" 
d="M197 457q0 -19 -13.5 -33t-33.5 -14t-34 13.5t-14 33.5t14 34t34 14t33.5 -14t13.5 -34zM187 -202h-75l12 545h51z" />
    <glyph glyph-name="cent" unicode="&#xa2;" horiz-adv-x="457" 
d="M297 -26h-51v136q-96 8 -148.5 68t-52.5 168q0 97 54.5 162.5t146.5 76.5v114h51v-112q62 -2 115 -23l-5 -57q-53 28 -123 28q-81 0 -127.5 -50t-46.5 -137q0 -82 41 -133.5t132 -51.5q71 0 127 34l5 -57q-52 -24 -118 -30v-136z" />
    <glyph glyph-name="sterling" unicode="&#xa3;" horiz-adv-x="467" 
d="M435 0h-392v45q62 49 85 94t23 109q0 28 -7 88h-114v49h107q-13 93 -13 125q0 83 47 128t133 45q57 0 99 -14l-11 -55q-45 17 -95 17q-52 0 -81 -29t-29 -82q0 -45 14 -135h162v-49h-156q6 -48 6 -81q0 -71 -19.5 -114t-75.5 -90q45 5 98 5h219v-56z" />
    <glyph glyph-name="currency" unicode="&#xa4;" 
d="M492 103l-44 -34l-83 111q-43 -29 -97 -29q-44 0 -78 16l-73 -98l-45 33l76 93q-43 48 -43 135q0 80 48 128l-80 99l43 33l76 -104q38 22 89 22q54 0 90 -22l79 104l42 -34l-83 -102q36 -41 36 -120q0 -75 -42 -122zM386 334q0 125 -115 125q-46 0 -76.5 -35t-30.5 -92
q0 -132 114 -132q44 0 76 37t32 97z" />
    <glyph glyph-name="yen" unicode="&#xa5;" horiz-adv-x="585" 
d="M496 107h-172v-107h-64v107h-171v47h171v77h-171v47h156l-196 397h71l120 -250q27 -54 53 -125h1q29 74 60 136l119 239h67l-200 -397h156v-47h-172v-77h172v-47z" />
    <glyph glyph-name="brokenbar" unicode="&#xa6;" horiz-adv-x="283" 
d="M166 381h-50v368h50v-368zM166 -251h-50v378h50v-378z" />
    <glyph glyph-name="section" unicode="&#xa7;" horiz-adv-x="513" 
d="M416 226q0 -79 -79 -139q39 -52 39 -104q0 -61 -43 -103.5t-120 -42.5q-39 0 -76 11l6 54q45 -13 75 -13q43 0 68 24.5t25 63.5q0 32 -23.5 67t-57.5 68.5t-67.5 69t-57 79t-23.5 87.5q0 79 79 140q-39 54 -39 104q0 62 41 102.5t117 40.5q38 0 70 -9l-6 -54
q-36 11 -68 11q-43 0 -66 -22.5t-23 -61.5q0 -32 23.5 -67.5t57.5 -69t67.5 -69t57 -79.5t23.5 -88zM354 218q0 30 -17 63t-34.5 53t-56 60t-51.5 55q-51 -34 -51 -92q0 -29 17.5 -62.5t33.5 -52.5t56.5 -61t52.5 -55q50 35 50 92z" />
    <glyph glyph-name="dieresis" unicode="&#xa8;" horiz-adv-x="461" 
d="M366 658q0 -18 -12.5 -30.5t-30.5 -12.5t-30.5 12.5t-12.5 30.5q0 19 12.5 31t30.5 12t30.5 -12t12.5 -31zM181 658q0 -18 -12 -30.5t-31 -12.5q-18 0 -30.5 12.5t-12.5 30.5q0 19 12.5 31t30.5 12q19 0 31 -12t12 -31z" />
    <glyph glyph-name="copyright" unicode="&#xa9;" horiz-adv-x="752" 
d="M705 337q0 -137 -97 -234t-234 -97q-141 0 -236.5 95t-95.5 234q0 137 97 233.5t235 96.5t234.5 -95.5t96.5 -232.5zM652 335q0 115 -81.5 198t-196.5 83q-116 0 -197 -81.5t-81 -197.5t81.5 -199t196.5 -83t196.5 82t81.5 198zM466 221l5 -47q-43 -15 -96 -15
q-82 0 -119.5 46.5t-37.5 124.5q0 79 42 131.5t131 52.5q39 0 77 -12l-4 -49q-37 16 -78 16q-110 0 -110 -135q0 -128 106 -128q45 0 84 15z" />
    <glyph glyph-name="ordfeminine" unicode="&#xaa;" horiz-adv-x="378" 
d="M306 356h-59q0 34 5 56h-1q-14 -29 -41 -45.5t-61 -16.5q-46 0 -70 22.5t-24 59.5q0 52 49 83t145 30v21q0 69 -72 69q-50 0 -100 -25l-4 50q54 22 113 22q64 0 91 -30.5t27 -77.5v-129zM334 237h-272v50h272v-50zM249 496v9q-75 0 -106 -16t-31 -49q0 -43 47 -43
q43 0 66.5 34.5t23.5 64.5z" />
    <glyph glyph-name="guillemotleft" unicode="&#xab;" horiz-adv-x="492" 
d="M409 154l-47 -28l-125 168l126 171l45 -28l-105 -142zM226 154l-47 -29l-116 169l118 172l45 -28l-97 -143z" />
    <glyph glyph-name="logicalnot" unicode="&#xac;" 
d="M477 109h-54v162h-379v53h433v-215z" />
    <glyph glyph-name="uni00AD" unicode="&#xad;" horiz-adv-x="327" 
d="M278 268h-229v52h229v-52z" />
    <glyph glyph-name="registered" unicode="&#xae;" horiz-adv-x="561" 
d="M491 527q0 -85 -62.5 -147.5t-148.5 -62.5q-89 0 -149.5 61t-60.5 149q0 87 61.5 149t148.5 62q89 0 150 -61t61 -150zM443 526q0 68 -47.5 117.5t-115.5 49.5t-115.5 -48t-47.5 -116t48 -117.5t115 -49.5q68 0 115.5 48t47.5 116zM369 413h-50l-64 102h-3v-102h-40v232
h70q77 0 77 -59q0 -29 -16.5 -46.5t-44.5 -20.5q5 -6 23 -32zM252 613v-71h16q49 0 49 39q0 32 -39 32h-26z" />
    <glyph glyph-name="macron" unicode="&#xaf;" horiz-adv-x="430" 
d="M335 629h-240v48h240v-48z" />
    <glyph glyph-name="macron" unicode="&#x2c9;" horiz-adv-x="430" 
d="M335 629h-240v48h240v-48z" />
    <glyph glyph-name="degree" unicode="&#xb0;" horiz-adv-x="367" 
d="M304 616q0 -52 -37.5 -85t-87.5 -33q-54 0 -86 31.5t-32 84.5q0 54 37 87t86 33q58 0 89 -33.5t31 -84.5zM251 615q0 30 -16 53t-53 23q-29 0 -48.5 -21t-19.5 -54q0 -35 18.5 -55t48.5 -20t50 21t20 53z" />
    <glyph glyph-name="plusminus" unicode="&#xb1;" 
d="M506 328h-201v-206h-60v206h-201v53h201v204h60v-204h201v-53zM505 0h-460v53h460v-53z" />
    <glyph glyph-name="twosuperior" unicode="&#xb2;" horiz-adv-x="346" 
d="M307 368h-265v45l108 107q75 76 75 134q0 38 -20 60t-59 22q-48 0 -89 -25l-10 45q52 28 111 28q61 0 95 -33t34 -87q0 -81 -85 -163l-83 -82q49 2 188 2v-53z" />
    <glyph glyph-name="threesuperior" unicode="&#xb3;" horiz-adv-x="335" 
d="M41 370l8 51q36 -12 78 -12q45 0 70.5 21t25.5 55q0 40 -39 59t-115 10v47q70 0 104.5 17.5t34.5 58.5q0 60 -73 60q-39 0 -80 -18l-7 47q50 18 99 18q56 0 89 -26t33 -74q0 -74 -72 -97q40 -7 64 -34t24 -63q0 -57 -47 -93t-119 -36q-33 0 -78 9z" />
    <glyph glyph-name="acute" unicode="&#xb4;" horiz-adv-x="350" 
d="M255 704l-125 -128l-35 31l116 136z" />
    <glyph glyph-name="mu1" unicode="&#xb5;" horiz-adv-x="589" 
d="M546 47v-52q-12 -1 -29 -1q-100 0 -89 122h-1q-21 -57 -67.5 -90.5t-109.5 -33.5q-70 0 -97 42l8 -285h-65v748h63v-332q0 -122 101 -122q71 0 115.5 61t44.5 156v237h63v-330q0 -76 12.5 -98t50.5 -22z" />
    <glyph glyph-name="paragraph" unicode="&#xb6;" horiz-adv-x="563" 
d="M495 628h-74v-724h-137v47h76v724h135v-47zM286 675v-415q-102 -1 -157 59t-55 151q0 88 59 146.5t153 58.5z" />
    <glyph glyph-name="periodcentered" unicode="&#xb7;" horiz-adv-x="209" 
d="M156 297q0 -22 -15 -36.5t-36 -14.5q-22 0 -36.5 14.5t-14.5 36.5t14.5 36.5t36.5 14.5q21 0 36 -14.5t15 -36.5z" />
    <glyph glyph-name="cedilla" unicode="&#xb8;" horiz-adv-x="300" 
d="M117 -68l57 27q24 -31 28.5 -63.5t-8.5 -64t-42 -67.5h-57q29 37 41 63t8 51.5t-27 53.5z" />
    <glyph glyph-name="onesuperior" unicode="&#xb9;" horiz-adv-x="262" 
d="M182 368h-60v352l-93 -37l-11 52l116 42h48v-409z" />
    <glyph glyph-name="ordmasculine" unicode="&#xba;" horiz-adv-x="415" 
d="M358 519q0 -73 -41 -120.5t-115 -47.5q-68 0 -107 41t-39 122q0 73 41.5 121t115.5 48q68 0 106.5 -41.5t38.5 -122.5zM344 237h-273v50h273v-50zM297 517q0 55 -23.5 85.5t-65.5 30.5t-66 -30t-24 -86t23.5 -86.5t65.5 -30.5q41 0 65.5 30t24.5 87z" />
    <glyph glyph-name="guillemotright" unicode="&#xbb;" horiz-adv-x="492" 
d="M429 297l-119 -172l-45 28l98 143l-97 141l47 29zM254 297l-127 -171l-45 27l106 143l-104 140l46 29z" />
    <glyph glyph-name="onequarter" unicode="&#xbc;" horiz-adv-x="801" 
d="M182 368h-60v352l-93 -37l-11 52l116 42h48v-409zM719 770l-630 -904l-45 30l631 904zM758 -6h-70v-96h-58v96h-193l-5 40l173 273h83v-263h70v-50zM630 44v216l-137 -218q37 2 137 2z" />
    <glyph glyph-name="onehalf" unicode="&#xbd;" horiz-adv-x="833" 
d="M182 368h-60v352l-93 -37l-11 52l116 42h48v-409zM719 770l-630 -904l-45 30l631 904zM779 -102h-265v45l108 107q75 76 75 134q0 38 -20 60t-59 22q-48 0 -89 -25l-10 45q52 28 111 28q61 0 95 -33t34 -87q0 -81 -85 -163l-83 -82q49 2 188 2v-53z" />
    <glyph glyph-name="threequarters" unicode="&#xbe;" horiz-adv-x="823" 
d="M741 770l-630 -904l-45 30l631 904zM41 370l8 51q36 -12 78 -12q45 0 70.5 21t25.5 55q0 40 -39 59t-115 10v47q70 0 104.5 17.5t34.5 58.5q0 60 -73 60q-39 0 -80 -18l-7 47q50 18 99 18q56 0 89 -26t33 -74q0 -74 -72 -97q40 -7 64 -34t24 -63q0 -57 -47 -93t-119 -36
q-33 0 -78 9zM781 -6h-70v-96h-58v96h-193l-5 40l173 273h83v-263h70v-50zM653 44v216l-137 -218q37 2 137 2z" />
    <glyph glyph-name="questiondown" unicode="&#xbf;" horiz-adv-x="441" 
d="M299 457q0 -20 -14 -33.5t-34 -13.5t-34 13.5t-14 33.5t14 34t34 14t34 -14t14 -34zM346 -150l-8 -58q-119 5 -193.5 58.5t-74.5 127.5q0 38 15.5 70t37 52.5t45 45.5t40 49t22 62.5t-9.5 85.5h62q17 -64 9.5 -103t-32.5 -73.5t-51.5 -57.5t-47.5 -56t-21 -68
q0 -53 57.5 -92t149.5 -43z" />
    <glyph glyph-name="Agrave" unicode="&#xc0;" horiz-adv-x="608" 
d="M592 0h-74l-61 173h-311l-62 -173h-68l253 675h72zM439 224l-107 293l-30 91h-1q-15 -47 -30 -89l-107 -295h275zM356 770l-15 -38l-172 58l23 54z" />
    <glyph glyph-name="Aacute" unicode="&#xc1;" horiz-adv-x="608" 
d="M592 0h-74l-61 173h-311l-62 -173h-68l253 675h72zM439 224l-107 293l-30 91h-1q-15 -47 -30 -89l-107 -295h275zM430 790l-172 -58l-15 38l164 74z" />
    <glyph glyph-name="Acircumflex" unicode="&#xc2;" horiz-adv-x="608" 
d="M592 0h-74l-61 173h-311l-62 -173h-68l253 675h72zM439 224l-107 293l-30 91h-1q-15 -47 -30 -89l-107 -295h275zM458 771l-21 -41l-133 63l-133 -63l-21 40l155 82z" />
    <glyph glyph-name="Atilde" unicode="&#xc3;" horiz-adv-x="608" 
d="M592 0h-74l-61 173h-311l-62 -173h-68l253 675h72zM439 224l-107 293l-30 91h-1q-15 -47 -30 -89l-107 -295h275zM441 833l35 -26q-40 -67 -103 -67q-36 0 -75.5 28t-59.5 28q-39 0 -66 -47l-35 26q37 67 103 67q36 0 76 -27.5t60 -27.5q37 0 65 46z" />
    <glyph glyph-name="Adieresis" unicode="&#xc4;" horiz-adv-x="608" 
d="M592 0h-74l-61 173h-311l-62 -173h-68l253 675h72zM439 224l-107 293l-30 91h-1q-15 -47 -30 -89l-107 -295h275zM452 778q0 -19 -12.5 -31t-30.5 -12t-30.5 12t-12.5 31q0 18 12.5 30.5t30.5 12.5t30.5 -12.5t12.5 -30.5zM239 778q0 -19 -12 -31t-31 -12q-18 0 -30.5 12
t-12.5 31q0 18 12.5 30.5t30.5 12.5q19 0 31 -12.5t12 -30.5z" />
    <glyph glyph-name="Aring" unicode="&#xc5;" horiz-adv-x="608" 
d="M592 0h-74l-61 173h-311l-62 -173h-68l253 675h72zM439 224l-107 293l-30 91h-1q-15 -47 -30 -89l-107 -295h275zM413 816q0 -44 -29.5 -73.5t-79.5 -29.5q-48 0 -75 25t-27 73q0 44 30 73.5t80 29.5q47 0 74 -25t27 -73zM361 813q0 28 -14 44t-39 16q-22 0 -37.5 -15
t-15.5 -44q0 -59 53 -59q22 0 37.5 15t15.5 43z" />
    <glyph glyph-name="AE" unicode="&#xc6;" horiz-adv-x="774" 
d="M699 0h-334v173h-247l-95 -173h-69l376 675h363v-52h-264v-249h247v-51h-247v-270h270v-53zM365 225v398h-6q-22 -49 -69 -136l-146 -262h221z" />
    <glyph glyph-name="Ccedilla" unicode="&#xc7;" horiz-adv-x="595" 
d="M535 85l13 -53q-90 -39 -194 -39q-148 0 -225 87.5t-77 243.5q0 161 80 259.5t245 98.5q85 0 161 -23l-12 -59q-79 28 -161 28q-124 0 -184.5 -82.5t-60.5 -210.5q0 -138 62.5 -212.5t186.5 -74.5q83 0 166 37zM298 -68l57 27q24 -31 28.5 -63.5t-8.5 -64t-42 -67.5h-57
q29 37 41 63t8 51.5t-27 53.5z" />
    <glyph glyph-name="Egrave" unicode="&#xc8;" horiz-adv-x="515" 
d="M440 0h-344v675h344v-52h-280v-249h257v-51h-257v-270h280v-53zM317 770l-15 -38l-172 58l23 54z" />
    <glyph glyph-name="Eacute" unicode="&#xc9;" horiz-adv-x="515" 
d="M440 0h-344v675h344v-52h-280v-249h257v-51h-257v-270h280v-53zM390 790l-172 -58l-15 38l164 74z" />
    <glyph glyph-name="Ecircumflex" unicode="&#xca;" horiz-adv-x="515" 
d="M440 0h-344v675h344v-52h-280v-249h257v-51h-257v-270h280v-53zM417 771l-21 -41l-133 63l-133 -63l-21 40l155 82z" />
    <glyph glyph-name="Edieresis" unicode="&#xcb;" horiz-adv-x="515" 
d="M440 0h-344v675h344v-52h-280v-249h257v-51h-257v-270h280v-53zM406 778q0 -19 -12.5 -31t-30.5 -12t-30.5 12t-12.5 31q0 18 12.5 30.5t30.5 12.5t30.5 -12.5t12.5 -30.5zM193 778q0 -19 -12 -31t-31 -12q-18 0 -30.5 12t-12.5 31q0 18 12.5 30.5t30.5 12.5
q19 0 31 -12.5t12 -30.5z" />
    <glyph glyph-name="Igrave" unicode="&#xcc;" horiz-adv-x="256" 
d="M160 0h-64v675h64v-675zM179 770l-15 -38l-172 58l23 54z" />
    <glyph glyph-name="Iacute" unicode="&#xcd;" horiz-adv-x="256" 
d="M160 0h-64v675h64v-675zM266 790l-172 -58l-15 38l164 74z" />
    <glyph glyph-name="Icircumflex" unicode="&#xce;" horiz-adv-x="256" 
d="M160 0h-64v675h64v-675zM282 771l-21 -41l-133 63l-133 -63l-21 40l155 82z" />
    <glyph glyph-name="Idieresis" unicode="&#xcf;" horiz-adv-x="256" 
d="M160 0h-64v675h64v-675zM268 778q0 -19 -12.5 -31t-30.5 -12q-19 0 -31 12t-12 31q0 18 12 30.5t31 12.5q18 0 30.5 -12.5t12.5 -30.5zM74 778q0 -19 -12 -31t-31 -12q-18 0 -30.5 12t-12.5 31q0 18 12.5 30.5t30.5 12.5q19 0 31 -12.5t12 -30.5z" />
    <glyph glyph-name="Eth" unicode="&#xd0;" horiz-adv-x="694" 
d="M2 323v50h102v302q24 0 89.5 1.5t100.5 1.5q169 0 258.5 -83.5t89.5 -251.5t-104 -257t-276 -89q-33 0 -84.5 2t-73.5 1v323h-102zM327 323h-159v-266q53 -7 103 -7q141 0 222.5 72t81.5 217q0 287 -290 287q-30 0 -117 -3v-250h159v-50z" />
    <glyph glyph-name="Ntilde" unicode="&#xd1;" horiz-adv-x="695" 
d="M599 0h-68l-301 477q-52 84 -78 135q7 -142 7 -419v-193h-63v675h86l298 -470q23 -35 63 -111q-7 166 -7 407v174h63v-675zM487 833l35 -26q-40 -67 -103 -67q-36 0 -75.5 28t-59.5 28q-39 0 -66 -47l-35 26q37 67 103 67q36 0 76 -27.5t60 -27.5q37 0 65 46z" />
    <glyph glyph-name="Ograve" unicode="&#xd2;" horiz-adv-x="707" 
d="M659 345q0 -165 -90 -259t-224 -94q-141 0 -219 91.5t-78 246.5q0 165 90 259t224 94q141 0 219 -91.5t78 -246.5zM592 332q0 135 -61.5 216t-177.5 81q-103 0 -170.5 -75.5t-67.5 -209.5q0 -136 61.5 -217t176.5 -81q103 0 171 75.5t68 210.5zM397 770l-15 -38l-172 58
l23 54z" />
    <glyph glyph-name="Oacute" unicode="&#xd3;" horiz-adv-x="707" 
d="M659 345q0 -165 -90 -259t-224 -94q-141 0 -219 91.5t-78 246.5q0 165 90 259t224 94q141 0 219 -91.5t78 -246.5zM592 332q0 135 -61.5 216t-177.5 81q-103 0 -170.5 -75.5t-67.5 -209.5q0 -136 61.5 -217t176.5 -81q103 0 171 75.5t68 210.5zM501 790l-172 -58l-15 38
l164 74z" />
    <glyph glyph-name="Ocircumflex" unicode="&#xd4;" horiz-adv-x="707" 
d="M659 345q0 -165 -90 -259t-224 -94q-141 0 -219 91.5t-78 246.5q0 165 90 259t224 94q141 0 219 -91.5t78 -246.5zM592 332q0 135 -61.5 216t-177.5 81q-103 0 -170.5 -75.5t-67.5 -209.5q0 -136 61.5 -217t176.5 -81q103 0 171 75.5t68 210.5zM513 771l-21 -41l-133 63
l-133 -63l-21 40l155 82z" />
    <glyph glyph-name="Otilde" unicode="&#xd5;" horiz-adv-x="707" 
d="M659 345q0 -165 -90 -259t-224 -94q-141 0 -219 91.5t-78 246.5q0 165 90 259t224 94q141 0 219 -91.5t78 -246.5zM592 332q0 135 -61.5 216t-177.5 81q-103 0 -170.5 -75.5t-67.5 -209.5q0 -136 61.5 -217t176.5 -81q103 0 171 75.5t68 210.5zM487 833l35 -26
q-40 -67 -103 -67q-36 0 -75.5 28t-59.5 28q-39 0 -66 -47l-35 26q37 67 103 67q36 0 76 -27.5t60 -27.5q37 0 65 46z" />
    <glyph glyph-name="Odieresis" unicode="&#xd6;" horiz-adv-x="707" 
d="M659 345q0 -165 -90 -259t-224 -94q-141 0 -219 91.5t-78 246.5q0 165 90 259t224 94q141 0 219 -91.5t78 -246.5zM592 332q0 135 -61.5 216t-177.5 81q-103 0 -170.5 -75.5t-67.5 -209.5q0 -136 61.5 -217t176.5 -81q103 0 171 75.5t68 210.5zM506 778q0 -19 -12.5 -31
t-30.5 -12t-30.5 12t-12.5 31q0 18 12.5 30.5t30.5 12.5t30.5 -12.5t12.5 -30.5zM293 778q0 -19 -12 -31t-31 -12q-18 0 -30.5 12t-12.5 31q0 18 12.5 30.5t30.5 12.5q19 0 31 -12.5t12 -30.5z" />
    <glyph glyph-name="multiply" unicode="&#xd7;" 
d="M489 121l-38 -38l-177 177l-178 -177l-35 35l177 178l-177 177l38 38l177 -177l178 177l35 -35l-177 -178z" />
    <glyph glyph-name="Oslash" unicode="&#xd8;" horiz-adv-x="707" 
d="M592 741l-56 -108q123 -85 123 -288q0 -165 -90 -259t-224 -94q-74 0 -128 25l-54 -106l-48 23l56 108q-123 85 -123 288q0 165 90 259t224 94q72 0 128 -25l54 106zM506 575l-261 -504q47 -25 108 -25q104 0 172 75.5t68 210.5q0 167 -87 243zM201 100l261 504
q-47 25 -109 25q-103 0 -171 -75.5t-68 -209.5q0 -168 87 -244z" />
    <glyph glyph-name="Ugrave" unicode="&#xd9;" horiz-adv-x="701" 
d="M605 675v-420q0 -129 -66 -196t-197 -67q-60 0 -105 13.5t-71.5 34.5t-42.5 52.5t-21.5 62t-5.5 67.5v453h64v-446q0 -41 8 -72t28 -57.5t58 -41t94 -14.5q100 0 147 47t47 158v426h63zM390 770l-15 -38l-172 58l23 54z" />
    <glyph glyph-name="Uacute" unicode="&#xda;" horiz-adv-x="701" 
d="M605 675v-420q0 -129 -66 -196t-197 -67q-60 0 -105 13.5t-71.5 34.5t-42.5 52.5t-21.5 62t-5.5 67.5v453h64v-446q0 -41 8 -72t28 -57.5t58 -41t94 -14.5q100 0 147 47t47 158v426h63zM510 790l-172 -58l-15 38l164 74z" />
    <glyph glyph-name="Ucircumflex" unicode="&#xdb;" horiz-adv-x="701" 
d="M605 675v-420q0 -129 -66 -196t-197 -67q-60 0 -105 13.5t-71.5 34.5t-42.5 52.5t-21.5 62t-5.5 67.5v453h64v-446q0 -41 8 -72t28 -57.5t58 -41t94 -14.5q100 0 147 47t47 158v426h63zM507 771l-21 -41l-133 63l-133 -63l-21 40l155 82z" />
    <glyph glyph-name="Udieresis" unicode="&#xdc;" horiz-adv-x="701" 
d="M605 675v-420q0 -129 -66 -196t-197 -67q-60 0 -105 13.5t-71.5 34.5t-42.5 52.5t-21.5 62t-5.5 67.5v453h64v-446q0 -41 8 -72t28 -57.5t58 -41t94 -14.5q100 0 147 47t47 158v426h63zM499 778q0 -19 -12.5 -31t-30.5 -12t-30.5 12t-12.5 31q0 18 12.5 30.5t30.5 12.5
t30.5 -12.5t12.5 -30.5zM286 778q0 -19 -12 -31t-31 -12q-18 0 -30.5 12t-12.5 31q0 18 12.5 30.5t30.5 12.5q19 0 31 -12.5t12 -30.5z" />
    <glyph glyph-name="Yacute" unicode="&#xdd;" horiz-adv-x="519" 
d="M514 675l-223 -408v-267h-64v267l-222 408h72l130 -242q28 -51 54 -112h1q34 73 56 113l128 241h68zM417 790l-172 -58l-15 38l164 74z" />
    <glyph glyph-name="Thorn" unicode="&#xde;" horiz-adv-x="530" 
d="M160 0h-64v675h64v-103q46 3 101 3q123 0 185.5 -59t62.5 -146q0 -102 -72.5 -167t-192.5 -65l-84 3v-141zM160 518v-322q47 -6 91 -6q93 0 142.5 47.5t49.5 120.5q0 76 -48.5 120t-146.5 44z" />
    <glyph glyph-name="germandbls" unicode="&#xdf;" horiz-adv-x="582" 
d="M247 0l7 60q42 -14 91 -14q62 0 94 25t32 63q0 33 -21.5 57t-52.5 40t-62 34t-52.5 49.5t-21.5 75.5q0 33 15.5 58t37.5 40.5t44 30t37.5 35t15.5 47.5q0 41 -29.5 62t-79.5 21q-71 0 -107 -41.5t-36 -133.5v-509h-63v504q0 121 57.5 175.5t154.5 54.5q80 0 123.5 -35.5
t43.5 -90.5q0 -38 -15.5 -65.5t-37.5 -43t-44 -28.5t-37.5 -31.5t-15.5 -44.5q0 -31 21.5 -54.5t52.5 -39.5t62 -34t52.5 -49t21.5 -74q0 -66 -52.5 -109t-141.5 -43q-54 0 -94 8z" />
    <glyph glyph-name="agrave" unicode="&#xe0;" horiz-adv-x="519" 
d="M424 0h-64q0 74 6 109l-2 1q-19 -51 -66 -84.5t-110 -33.5q-59 0 -97 35t-38 94q0 76 79.5 122t226.5 46v33q0 68 -26 100t-91 32q-70 0 -151 -35l-12 51q89 35 170 35q92 0 132.5 -44.5t40.5 -128.5v-178q0 -64 2 -154zM359 226v15q-130 0 -186 -31t-56 -79
q0 -38 24 -62.5t63 -24.5q67 0 111 56t44 126zM294 607l-35 -31l-125 128l44 39z" />
    <glyph glyph-name="aacute" unicode="&#xe1;" horiz-adv-x="519" 
d="M424 0h-64q0 74 6 109l-2 1q-19 -51 -66 -84.5t-110 -33.5q-59 0 -97 35t-38 94q0 76 79.5 122t226.5 46v33q0 68 -26 100t-91 32q-70 0 -151 -35l-12 51q89 35 170 35q92 0 132.5 -44.5t40.5 -128.5v-178q0 -64 2 -154zM359 226v15q-130 0 -186 -31t-56 -79
q0 -38 24 -62.5t63 -24.5q67 0 111 56t44 126zM375 704l-125 -128l-35 31l116 136z" />
    <glyph glyph-name="acircumflex" unicode="&#xe2;" horiz-adv-x="519" 
d="M424 0h-64q0 74 6 109l-2 1q-19 -51 -66 -84.5t-110 -33.5q-59 0 -97 35t-38 94q0 76 79.5 122t226.5 46v33q0 68 -26 100t-91 32q-70 0 -151 -35l-12 51q89 35 170 35q92 0 132.5 -44.5t40.5 -128.5v-178q0 -64 2 -154zM359 226v15q-130 0 -186 -31t-56 -79
q0 -38 24 -62.5t63 -24.5q67 0 111 56t44 126zM383 610l-31 -32l-98 87l-99 -87l-30 31l130 128z" />
    <glyph glyph-name="atilde" unicode="&#xe3;" horiz-adv-x="519" 
d="M424 0h-64q0 74 6 109l-2 1q-19 -51 -66 -84.5t-110 -33.5q-59 0 -97 35t-38 94q0 76 79.5 122t226.5 46v33q0 68 -26 100t-91 32q-70 0 -151 -35l-12 51q89 35 170 35q92 0 132.5 -44.5t40.5 -128.5v-178q0 -64 2 -154zM359 226v15q-130 0 -186 -31t-56 -79
q0 -38 24 -62.5t63 -24.5q67 0 111 56t44 126zM379 701l34 -27q-38 -69 -101 -69q-34 0 -72.5 28.5t-58.5 28.5q-35 0 -62 -48l-34 27q38 69 101 69q34 0 72 -28.5t58 -28.5q36 0 63 48z" />
    <glyph glyph-name="adieresis" unicode="&#xe4;" horiz-adv-x="519" 
d="M424 0h-64q0 74 6 109l-2 1q-19 -51 -66 -84.5t-110 -33.5q-59 0 -97 35t-38 94q0 76 79.5 122t226.5 46v33q0 68 -26 100t-91 32q-70 0 -151 -35l-12 51q89 35 170 35q92 0 132.5 -44.5t40.5 -128.5v-178q0 -64 2 -154zM359 226v15q-130 0 -186 -31t-56 -79
q0 -38 24 -62.5t63 -24.5q67 0 111 56t44 126zM386 658q0 -18 -12.5 -30.5t-30.5 -12.5t-30.5 12.5t-12.5 30.5q0 19 12.5 31t30.5 12t30.5 -12t12.5 -31zM201 658q0 -18 -12 -30.5t-31 -12.5q-18 0 -30.5 12.5t-12.5 30.5q0 19 12.5 31t30.5 12q19 0 31 -12t12 -31z" />
    <glyph glyph-name="aring" unicode="&#xe5;" horiz-adv-x="519" 
d="M424 0h-64q0 74 6 109l-2 1q-19 -51 -66 -84.5t-110 -33.5q-59 0 -97 35t-38 94q0 76 79.5 122t226.5 46v33q0 68 -26 100t-91 32q-70 0 -151 -35l-12 51q89 35 170 35q92 0 132.5 -44.5t40.5 -128.5v-178q0 -64 2 -154zM359 226v15q-130 0 -186 -31t-56 -79
q0 -38 24 -62.5t63 -24.5q67 0 111 56t44 126zM362 666q0 -44 -29.5 -74t-79.5 -30q-47 0 -74 25t-27 74q0 44 30 73.5t80 29.5q47 0 73.5 -25t26.5 -73zM310 663q0 59 -53 59q-22 0 -37.5 -15t-15.5 -44q0 -28 14 -43.5t39 -15.5q22 0 37.5 15t15.5 44z" />
    <glyph glyph-name="ae" unicode="&#xe6;" horiz-adv-x="811" 
d="M735 72l10 -50q-87 -30 -164 -30q-162 0 -200 122h-1q-22 -50 -73.5 -86t-118.5 -36q-59 0 -97 35t-38 94q0 76 79.5 122t226.5 46v33q0 68 -26 100t-91 32q-70 0 -151 -35l-12 51q89 35 170 35q124 0 154 -88h1q24 39 67.5 63.5t98.5 24.5q95 0 142.5 -56.5t47.5 -142.5
l-1 -44h-338q-7 -217 169 -217q70 0 145 27zM424 310h269q1 67 -33 106t-95 39q-56 0 -93.5 -38t-47.5 -107zM359 226v15q-130 0 -186 -31t-56 -79q0 -38 24 -62.5t63 -24.5q67 0 111 56t44 126z" />
    <glyph glyph-name="ccedilla" unicode="&#xe7;" horiz-adv-x="443" 
d="M401 74l13 -51q-67 -29 -155 -29q-213 0 -213 237q0 126 60.5 199t172.5 73q77 0 132 -23l-14 -53q-65 25 -128 25q-73 0 -114.5 -57.5t-41.5 -150.5q0 -91 35 -144t124 -53q69 0 129 27zM215 -68l57 27q24 -31 28.5 -63.5t-8.5 -64t-42 -67.5h-57q29 37 41 63t8 51.5
t-27 53.5z" />
    <glyph glyph-name="egrave" unicode="&#xe8;" horiz-adv-x="503" 
d="M426 72l10 -50q-85 -30 -164 -30q-226 0 -226 255q0 114 58 186t157 72q96 0 143.5 -56.5t47.5 -143.5l-2 -48h-338q-2 -109 40 -160.5t129 -51.5q71 0 145 27zM115 304h270q1 72 -33 111.5t-95 39.5q-57 0 -95 -39t-47 -112zM296 607l-35 -31l-125 128l44 39z" />
    <glyph glyph-name="eacute" unicode="&#xe9;" horiz-adv-x="503" 
d="M426 72l10 -50q-85 -30 -164 -30q-226 0 -226 255q0 114 58 186t157 72q96 0 143.5 -56.5t47.5 -143.5l-2 -48h-338q-2 -109 40 -160.5t129 -51.5q71 0 145 27zM115 304h270q1 72 -33 111.5t-95 39.5q-57 0 -95 -39t-47 -112zM379 704l-125 -128l-35 31l116 136z" />
    <glyph glyph-name="ecircumflex" unicode="&#xea;" horiz-adv-x="503" 
d="M426 72l10 -50q-85 -30 -164 -30q-226 0 -226 255q0 114 58 186t157 72q96 0 143.5 -56.5t47.5 -143.5l-2 -48h-338q-2 -109 40 -160.5t129 -51.5q71 0 145 27zM115 304h270q1 72 -33 111.5t-95 39.5q-57 0 -95 -39t-47 -112zM388 610l-31 -32l-98 87l-99 -87l-30 31
l130 128z" />
    <glyph glyph-name="edieresis" unicode="&#xeb;" horiz-adv-x="503" 
d="M426 72l10 -50q-85 -30 -164 -30q-226 0 -226 255q0 114 58 186t157 72q96 0 143.5 -56.5t47.5 -143.5l-2 -48h-338q-2 -109 40 -160.5t129 -51.5q71 0 145 27zM115 304h270q1 72 -33 111.5t-95 39.5q-57 0 -95 -39t-47 -112zM394 658q0 -18 -12.5 -30.5t-30.5 -12.5
t-30.5 12.5t-12.5 30.5q0 19 12.5 31t30.5 12t30.5 -12t12.5 -31zM209 658q0 -18 -12 -30.5t-31 -12.5q-18 0 -30.5 12.5t-12.5 30.5q0 19 12.5 31t30.5 12q19 0 31 -12t12 -31z" />
    <glyph glyph-name="igrave" unicode="&#xec;" horiz-adv-x="255" 
d="M159 0h-63v497h63v-497zM158 592l-41 -22l-91 153l52 27z" />
    <glyph glyph-name="iacute" unicode="&#xed;" horiz-adv-x="255" 
d="M159 0h-63v497h63v-497zM242 714l-108 -139l-39 26l98 144z" />
    <glyph glyph-name="icircumflex" unicode="&#xee;" horiz-adv-x="255" 
d="M159 0h-63v497h63v-497zM244 609l-32 -31l-85 87l-86 -87l-31 30l118 128z" />
    <glyph glyph-name="idieresis" unicode="&#xef;" horiz-adv-x="255" 
d="M159 0h-63v497h63v-497zM254 658q0 -18 -12.5 -30.5t-30.5 -12.5t-30.5 12.5t-12.5 30.5q0 19 12.5 31t30.5 12q19 0 31 -12t12 -31zM87 658q0 -18 -12.5 -30.5t-30.5 -12.5q-19 0 -31 12.5t-12 30.5q0 19 12 31t31 12q18 0 30.5 -12t12.5 -31z" />
    <glyph glyph-name="eth" unicode="&#xf0;" horiz-adv-x="540" 
d="M455 677l-104 -46q142 -169 142 -362q0 -136 -63.5 -206.5t-166.5 -70.5q-102 0 -160.5 64.5t-58.5 190.5q0 110 62.5 184t169.5 74q91 0 123 -56q-8 15 -20.5 36t-13.5 23q-26 48 -72 98l-108 -49l-29 37l102 46q-30 29 -85 72l65 28q47 -38 80 -73l108 47zM427 261
q0 90 -40.5 141.5t-116.5 51.5q-67 0 -113.5 -52t-46.5 -150q0 -99 43.5 -153.5t120.5 -54.5q68 0 110.5 53.5t42.5 163.5z" />
    <glyph glyph-name="ntilde" unicode="&#xf1;" horiz-adv-x="579" 
d="M483 0h-63v322q0 66 -22.5 99t-78.5 33q-70 0 -115 -61t-45 -156v-237h-63v497h64q0 -69 -9 -116l2 -1q21 58 68 91.5t112 33.5q150 0 150 -159v-346zM423 701l34 -27q-38 -69 -101 -69q-34 0 -72.5 28.5t-58.5 28.5q-35 0 -62 -48l-34 27q38 69 101 69q34 0 72 -28.5
t58 -28.5q36 0 63 48z" />
    <glyph glyph-name="ograve" unicode="&#xf2;" horiz-adv-x="540" 
d="M495 253q0 -114 -61 -187.5t-172 -73.5q-101 0 -159 63.5t-58 188.5q0 114 61 187.5t172 73.5q101 0 159 -63.5t58 -188.5zM430 249q0 97 -42 151t-117 54q-74 0 -117.5 -53t-43.5 -153q0 -97 42 -150.5t117 -53.5q72 0 116.5 51.5t44.5 153.5zM314 607l-35 -31l-125 128
l44 39z" />
    <glyph glyph-name="oacute" unicode="&#xf3;" horiz-adv-x="540" 
d="M495 253q0 -114 -61 -187.5t-172 -73.5q-101 0 -159 63.5t-58 188.5q0 114 61 187.5t172 73.5q101 0 159 -63.5t58 -188.5zM430 249q0 97 -42 151t-117 54q-74 0 -117.5 -53t-43.5 -153q0 -97 42 -150.5t117 -53.5q72 0 116.5 51.5t44.5 153.5zM395 704l-125 -128l-35 31
l116 136z" />
    <glyph glyph-name="ocircumflex" unicode="&#xf4;" horiz-adv-x="540" 
d="M495 253q0 -114 -61 -187.5t-172 -73.5q-101 0 -159 63.5t-58 188.5q0 114 61 187.5t172 73.5q101 0 159 -63.5t58 -188.5zM430 249q0 97 -42 151t-117 54q-74 0 -117.5 -53t-43.5 -153q0 -97 42 -150.5t117 -53.5q72 0 116.5 51.5t44.5 153.5zM399 610l-31 -32l-98 87
l-99 -87l-30 31l130 128z" />
    <glyph glyph-name="otilde" unicode="&#xf5;" horiz-adv-x="540" 
d="M495 253q0 -114 -61 -187.5t-172 -73.5q-101 0 -159 63.5t-58 188.5q0 114 61 187.5t172 73.5q101 0 159 -63.5t58 -188.5zM430 249q0 97 -42 151t-117 54q-74 0 -117.5 -53t-43.5 -153q0 -97 42 -150.5t117 -53.5q72 0 116.5 51.5t44.5 153.5zM404 701l34 -27
q-38 -69 -101 -69q-34 0 -72.5 28.5t-58.5 28.5q-35 0 -62 -48l-34 27q38 69 101 69q35 0 73 -28.5t57 -28.5q36 0 63 48z" />
    <glyph glyph-name="odieresis" unicode="&#xf6;" horiz-adv-x="540" 
d="M495 253q0 -114 -61 -187.5t-172 -73.5q-101 0 -159 63.5t-58 188.5q0 114 61 187.5t172 73.5q101 0 159 -63.5t58 -188.5zM430 249q0 97 -42 151t-117 54q-74 0 -117.5 -53t-43.5 -153q0 -97 42 -150.5t117 -53.5q72 0 116.5 51.5t44.5 153.5zM404 658
q0 -18 -12.5 -30.5t-30.5 -12.5t-30.5 12.5t-12.5 30.5q0 19 12.5 31t30.5 12t30.5 -12t12.5 -31zM219 658q0 -18 -12 -30.5t-31 -12.5q-18 0 -30.5 12.5t-12.5 30.5q0 19 12.5 31t30.5 12q19 0 31 -12t12 -31z" />
    <glyph glyph-name="divide" unicode="&#xf7;" 
d="M321 498q0 -20 -14 -34t-34 -14t-34 14t-14 34t14 34t34 14t34 -14t14 -34zM506 271h-462v53h462v-53zM321 95q0 -20 -14 -33.5t-34 -13.5t-34 14t-14 33q0 20 14 34t34 14t34 -14t14 -34z" />
    <glyph glyph-name="oslash" unicode="&#xf8;" horiz-adv-x="540" 
d="M463 561l-51 -96q83 -65 83 -212q0 -114 -61 -187.5t-172 -73.5q-54 0 -91 17l-49 -94l-45 21l51 96q-83 65 -83 212q0 114 61 187.5t172 73.5q54 0 91 -17l49 94zM383 409l-186 -351q36 -16 72 -16q75 0 119 53.5t44 153.5q0 106 -49 160zM157 88l186 351q-36 16 -72 16
q-75 0 -119 -53.5t-44 -153.5q0 -106 49 -160z" />
    <glyph glyph-name="ugrave" unicode="&#xf9;" horiz-adv-x="579" 
d="M483 0h-64q0 69 9 116l-2 1q-21 -58 -68 -91.5t-112 -33.5q-150 0 -150 159v346h63v-322q0 -66 22.5 -99t78.5 -33q70 0 115 61t45 156v237h63v-497zM324 607l-35 -31l-125 128l44 39z" />
    <glyph glyph-name="uacute" unicode="&#xfa;" horiz-adv-x="579" 
d="M483 0h-64q0 69 9 116l-2 1q-21 -58 -68 -91.5t-112 -33.5q-150 0 -150 159v346h63v-322q0 -66 22.5 -99t78.5 -33q70 0 115 61t45 156v237h63v-497zM417 704l-125 -128l-35 31l116 136z" />
    <glyph glyph-name="ucircumflex" unicode="&#xfb;" horiz-adv-x="579" 
d="M483 0h-64q0 69 9 116l-2 1q-21 -58 -68 -91.5t-112 -33.5q-150 0 -150 159v346h63v-322q0 -66 22.5 -99t78.5 -33q70 0 115 61t45 156v237h63v-497zM418 610l-31 -32l-98 87l-99 -87l-30 31l130 128z" />
    <glyph glyph-name="udieresis" unicode="&#xfc;" horiz-adv-x="579" 
d="M483 0h-64q0 69 9 116l-2 1q-21 -58 -68 -91.5t-112 -33.5q-150 0 -150 159v346h63v-322q0 -66 22.5 -99t78.5 -33q70 0 115 61t45 156v237h63v-497zM424 658q0 -18 -12.5 -30.5t-30.5 -12.5t-30.5 12.5t-12.5 30.5q0 19 12.5 31t30.5 12t30.5 -12t12.5 -31zM239 658
q0 -18 -12 -30.5t-31 -12.5q-18 0 -30.5 12.5t-12.5 30.5q0 19 12.5 31t30.5 12q19 0 31 -12t12 -31z" />
    <glyph glyph-name="yacute" unicode="&#xfd;" horiz-adv-x="464" 
d="M452 497l-206 -548q-43 -115 -93 -161.5t-132 -46.5l-50 6l7 56q29 -7 57 -7q47 0 80 31t65 112l24 61l-192 497h74l112 -307q18 -51 38 -115h1q15 48 50 150l96 272h69zM363 704l-125 -128l-35 31l116 136z" />
    <glyph glyph-name="thorn" unicode="&#xfe;" horiz-adv-x="558" 
d="M159 -251h-63v981h63v-229q0 -82 -7 -117l2 -1q21 56 67 89t105 33q89 0 136.5 -59.5t47.5 -174.5q0 -133 -68 -204.5t-184 -71.5q-56 0 -99 6v-252zM159 240v-181q42 -15 104 -15q85 0 133 54t48 167q0 189 -128 189q-50 0 -87.5 -36t-53.5 -83t-16 -95z" />
    <glyph glyph-name="ydieresis" unicode="&#xff;" horiz-adv-x="464" 
d="M452 497l-206 -548q-43 -115 -93 -161.5t-132 -46.5l-50 6l7 56q29 -7 57 -7q47 0 80 31t65 112l24 61l-192 497h74l112 -307q18 -51 38 -115h1q15 48 50 150l96 272h69zM369 658q0 -18 -12.5 -30.5t-30.5 -12.5t-30.5 12.5t-12.5 30.5q0 19 12.5 31t30.5 12t30.5 -12
t12.5 -31zM184 658q0 -18 -12 -30.5t-31 -12.5q-18 0 -30.5 12.5t-12.5 30.5q0 19 12.5 31t30.5 12q19 0 31 -12t12 -31z" />
    <glyph glyph-name="Amacron" unicode="&#x100;" horiz-adv-x="608" 
d="M592 0h-74l-61 173h-311l-62 -173h-68l253 675h72zM439 224l-107 293l-30 91h-1q-15 -47 -30 -89l-107 -295h275zM436 753h-264v48h264v-48z" />
    <glyph glyph-name="amacron" unicode="&#x101;" horiz-adv-x="519" 
d="M424 0h-64q0 74 6 109l-2 1q-19 -51 -66 -84.5t-110 -33.5q-59 0 -97 35t-38 94q0 76 79.5 122t226.5 46v33q0 68 -26 100t-91 32q-70 0 -151 -35l-12 51q89 35 170 35q92 0 132.5 -44.5t40.5 -128.5v-178q0 -64 2 -154zM359 226v15q-130 0 -186 -31t-56 -79
q0 -38 24 -62.5t63 -24.5q67 0 111 56t44 126zM373 629h-240v48h240v-48z" />
    <glyph glyph-name="Abreve" unicode="&#x102;" horiz-adv-x="608" 
d="M592 0h-74l-61 173h-311l-62 -173h-68l253 675h72zM439 224l-107 293l-30 91h-1q-15 -47 -30 -89l-107 -295h275zM377 847h46q0 -49 -33 -80.5t-89 -31.5q-57 0 -88.5 31.5t-31.5 80.5h45q0 -27 21.5 -45.5t54.5 -18.5q34 0 54.5 18t20.5 46z" />
    <glyph glyph-name="abreve" unicode="&#x103;" horiz-adv-x="519" 
d="M424 0h-64q0 74 6 109l-2 1q-19 -51 -66 -84.5t-110 -33.5q-59 0 -97 35t-38 94q0 76 79.5 122t226.5 46v33q0 68 -26 100t-91 32q-70 0 -151 -35l-12 51q89 35 170 35q92 0 132.5 -44.5t40.5 -128.5v-178q0 -64 2 -154zM359 226v15q-130 0 -186 -31t-56 -79
q0 -38 24 -62.5t63 -24.5q67 0 111 56t44 126zM326 716h47q0 -52 -30.5 -86.5t-88.5 -34.5q-57 0 -86 34.5t-29 86.5h46q0 -30 18.5 -51t51.5 -21t52 19t19 53z" />
    <glyph glyph-name="Aogonek" unicode="&#x104;" horiz-adv-x="608" 
d="M601 -154l23 -38q-45 -40 -100 -40q-46 0 -71 22.5t-25 60.5q0 82 90 149l-61 173h-311l-62 -173h-68l253 675h72l251 -675q-101 -66 -101 -138q0 -43 43 -43q31 0 67 27zM439 224l-107 293l-30 91h-1q-15 -47 -30 -89l-107 -295h275z" />
    <glyph glyph-name="aogonek" unicode="&#x105;" horiz-adv-x="519" 
d="M452 -154l23 -38q-43 -40 -100 -40q-45 0 -70 22.5t-25 60.5q0 82 94 155q-8 66 -6 101l-2 1q-21 -51 -68 -83.5t-110 -32.5q-59 0 -97 35t-38 94q0 76 79.5 122t226.5 46v33q0 68 -26 100t-91 32q-70 0 -151 -35l-12 51q89 35 170 35q92 0 132.5 -44.5t40.5 -128.5v-147
q0 -106 16 -185q-96 -71 -96 -138q0 -43 43 -43q31 0 67 27zM359 226v15q-130 0 -186 -31t-56 -79q0 -38 24 -62.5t63 -24.5q67 0 111 56t44 126z" />
    <glyph glyph-name="Cacute" unicode="&#x106;" horiz-adv-x="595" 
d="M535 85l13 -53q-90 -39 -194 -39q-148 0 -225 87.5t-77 243.5q0 161 80 259.5t245 98.5q85 0 161 -23l-12 -59q-79 28 -161 28q-124 0 -184.5 -82.5t-60.5 -210.5q0 -138 62.5 -212.5t186.5 -74.5q83 0 166 37zM496 790l-172 -58l-15 38l164 74z" />
    <glyph glyph-name="cacute" unicode="&#x107;" horiz-adv-x="443" 
d="M401 74l13 -51q-67 -29 -155 -29q-213 0 -213 237q0 126 60.5 199t172.5 73q77 0 132 -23l-14 -53q-65 25 -128 25q-73 0 -114.5 -57.5t-41.5 -150.5q0 -91 35 -144t124 -53q69 0 129 27zM381 704l-125 -128l-35 31l116 136z" />
    <glyph glyph-name="Ccircumflex" unicode="&#x108;" horiz-adv-x="595" 
d="M535 85l13 -53q-90 -39 -194 -39q-148 0 -225 87.5t-77 243.5q0 161 80 259.5t245 98.5q85 0 161 -23l-12 -59q-79 28 -161 28q-124 0 -184.5 -82.5t-60.5 -210.5q0 -138 62.5 -212.5t186.5 -74.5q83 0 166 37zM510 771l-21 -41l-133 63l-133 -63l-21 40l155 82z" />
    <glyph glyph-name="ccircumflex" unicode="&#x109;" horiz-adv-x="443" 
d="M401 74l13 -51q-67 -29 -155 -29q-213 0 -213 237q0 126 60.5 199t172.5 73q77 0 132 -23l-14 -53q-65 25 -128 25q-73 0 -114.5 -57.5t-41.5 -150.5q0 -91 35 -144t124 -53q69 0 129 27zM394 610l-31 -32l-98 87l-99 -87l-30 31l130 128z" />
    <glyph glyph-name="Cdotaccent" unicode="&#x10a;" horiz-adv-x="595" 
d="M535 85l13 -53q-90 -39 -194 -39q-148 0 -225 87.5t-77 243.5q0 161 80 259.5t245 98.5q85 0 161 -23l-12 -59q-79 28 -161 28q-124 0 -184.5 -82.5t-60.5 -210.5q0 -138 62.5 -212.5t186.5 -74.5q83 0 166 37zM401 779q0 -18 -13 -31.5t-32 -13.5q-18 0 -31.5 13
t-13.5 32t13.5 32t31.5 13q19 0 32 -13t13 -32z" />
    <glyph glyph-name="cdotaccent" unicode="&#x10b;" horiz-adv-x="443" 
d="M401 74l13 -51q-67 -29 -155 -29q-213 0 -213 237q0 126 60.5 199t172.5 73q77 0 132 -23l-14 -53q-65 25 -128 25q-73 0 -114.5 -57.5t-41.5 -150.5q0 -91 35 -144t124 -53q69 0 129 27zM306 658q0 -18 -13 -31.5t-32 -13.5q-18 0 -31.5 13t-13.5 32t13.5 32t31.5 13
q19 0 32 -13t13 -32z" />
    <glyph glyph-name="Ccaron" unicode="&#x10c;" horiz-adv-x="595" 
d="M535 85l13 -53q-90 -39 -194 -39q-148 0 -225 87.5t-77 243.5q0 161 80 259.5t245 98.5q85 0 161 -23l-12 -59q-79 28 -161 28q-124 0 -184.5 -82.5t-60.5 -210.5q0 -138 62.5 -212.5t186.5 -74.5q83 0 166 37zM507 812l-155 -82l-153 81l22 41l132 -64l134 64z" />
    <glyph glyph-name="ccaron" unicode="&#x10d;" horiz-adv-x="443" 
d="M401 74l13 -51q-67 -29 -155 -29q-213 0 -213 237q0 126 60.5 199t172.5 73q77 0 132 -23l-14 -53q-65 25 -128 25q-73 0 -114.5 -57.5t-41.5 -150.5q0 -91 35 -144t124 -53q69 0 129 27zM397 705l-130 -127l-128 126l31 33l98 -88l99 88z" />
    <glyph glyph-name="Dcaron" unicode="&#x10e;" horiz-adv-x="686" 
d="M96 0v675q24 0 89 1.5t100 1.5q169 0 259 -83.5t90 -251.5q0 -169 -104 -257.5t-276 -88.5q-33 0 -84.5 2t-73.5 1zM160 623v-566q52 -7 103 -7q141 0 222.5 72t81.5 217q0 287 -290 287q-30 0 -117 -3zM458 812l-155 -82l-153 81l22 41l132 -64l134 64z" />
    <glyph glyph-name="dcaron" unicode="&#x10f;" horiz-adv-x="574" 
d="M462 0h-64q0 67 9 114l-2 1q-21 -57 -67 -90t-106 -33q-91 0 -137.5 61.5t-46.5 172.5q0 133 68.5 205t184.5 72q44 0 98 -6v233h63v-730zM399 257v183q-52 13 -104 13q-85 0 -132.5 -54t-47.5 -167q0 -189 127 -189q50 0 87.5 36t53.5 83t16 95zM635 733l-70 -160
l-44 15l58 164z" />
    <glyph glyph-name="Dcroat" unicode="&#x110;" horiz-adv-x="694" 
d="M2 323v50h102v302q24 0 89.5 1.5t100.5 1.5q169 0 258.5 -83.5t89.5 -251.5t-104 -257t-276 -89q-33 0 -84.5 2t-73.5 1v323h-102zM327 323h-159v-266q53 -7 103 -7q141 0 222.5 72t81.5 217q0 287 -290 287q-30 0 -117 -3v-250h159v-50z" />
    <glyph glyph-name="dcroat" unicode="&#x111;" horiz-adv-x="558" 
d="M540 597h-78v-597h-64q0 67 9 114l-2 1q-21 -57 -67 -90t-106 -33q-91 0 -137.5 61.5t-46.5 172.5q0 133 68.5 205t184.5 72q44 0 98 -6v100h-124v47h124v86h63v-86h78v-47zM399 257v183q-52 13 -104 13q-85 0 -132.5 -54t-47.5 -167q0 -189 127 -189q50 0 87.5 36
t53.5 83t16 95z" />
    <glyph glyph-name="Emacron" unicode="&#x112;" horiz-adv-x="515" 
d="M440 0h-344v675h344v-52h-280v-249h257v-51h-257v-270h280v-53zM393 753h-264v48h264v-48z" />
    <glyph glyph-name="emacron" unicode="&#x113;" horiz-adv-x="503" 
d="M426 72l10 -50q-85 -30 -164 -30q-226 0 -226 255q0 114 58 186t157 72q96 0 143.5 -56.5t47.5 -143.5l-2 -48h-338q-2 -109 40 -160.5t129 -51.5q71 0 145 27zM115 304h270q1 72 -33 111.5t-95 39.5q-57 0 -95 -39t-47 -112zM374 629h-240v48h240v-48z" />
    <glyph glyph-name="Ebreve" unicode="&#x114;" horiz-adv-x="515" 
d="M440 0h-344v675h344v-52h-280v-249h257v-51h-257v-270h280v-53zM340 847h46q0 -49 -33 -80.5t-89 -31.5q-57 0 -88.5 31.5t-31.5 80.5h45q0 -27 21.5 -45.5t54.5 -18.5q34 0 54.5 18t20.5 46z" />
    <glyph glyph-name="ebreve" unicode="&#x115;" horiz-adv-x="503" 
d="M426 72l10 -50q-85 -30 -164 -30q-226 0 -226 255q0 114 58 186t157 72q96 0 143.5 -56.5t47.5 -143.5l-2 -48h-338q-2 -109 40 -160.5t129 -51.5q71 0 145 27zM115 304h270q1 72 -33 111.5t-95 39.5q-57 0 -95 -39t-47 -112zM325 716h47q0 -52 -30.5 -86.5t-88.5 -34.5
q-57 0 -86 34.5t-29 86.5h46q0 -30 18.5 -51t51.5 -21t52 19t19 53z" />
    <glyph glyph-name="Edotaccent" unicode="&#x116;" horiz-adv-x="515" 
d="M440 0h-344v675h344v-52h-280v-249h257v-51h-257v-270h280v-53zM308 779q0 -18 -13 -31.5t-32 -13.5q-18 0 -31.5 13t-13.5 32t13.5 32t31.5 13q19 0 32 -13t13 -32z" />
    <glyph glyph-name="edotaccent" unicode="&#x117;" horiz-adv-x="503" 
d="M426 72l10 -50q-85 -30 -164 -30q-226 0 -226 255q0 114 58 186t157 72q96 0 143.5 -56.5t47.5 -143.5l-2 -48h-338q-2 -109 40 -160.5t129 -51.5q71 0 145 27zM115 304h270q1 72 -33 111.5t-95 39.5q-57 0 -95 -39t-47 -112zM303 659q0 -18 -13 -31.5t-32 -13.5
q-18 0 -31.5 13t-13.5 32t13.5 32t31.5 13q19 0 32 -13t13 -32z" />
    <glyph glyph-name="Eogonek" unicode="&#x118;" horiz-adv-x="515" 
d="M441 -154l23 -38q-45 -40 -100 -40q-46 0 -71 22.5t-25 60.5q0 43 27 85t65 64h-264v675h344v-52h-280v-249h257v-51h-257v-270h280v-49q-43 -18 -76 -60.5t-33 -81.5q0 -43 43 -43q31 0 67 27z" />
    <glyph glyph-name="eogonek" unicode="&#x119;" horiz-adv-x="503" 
d="M426 72l10 -49q-54 -17 -100.5 -65t-46.5 -96q0 -43 43 -43q31 0 67 27l23 -38q-45 -40 -100 -40q-45 0 -70 22.5t-25 60.5q0 37 21.5 75t60.5 68q-22 -2 -40 -2q-223 0 -223 255q0 114 58 186t157 72q96 0 143.5 -56.5t47.5 -143.5l-2 -48h-338q-2 -109 40 -160.5
t129 -51.5q71 0 145 27zM115 304h270q1 72 -33 111.5t-95 39.5q-57 0 -95 -39t-47 -112z" />
    <glyph glyph-name="Ecaron" unicode="&#x11a;" horiz-adv-x="515" 
d="M440 0h-344v675h344v-52h-280v-249h257v-51h-257v-270h280v-53zM412 812l-155 -82l-153 81l22 41l132 -64l134 64z" />
    <glyph glyph-name="ecaron" unicode="&#x11b;" horiz-adv-x="503" 
d="M426 72l10 -50q-85 -30 -164 -30q-226 0 -226 255q0 114 58 186t157 72q96 0 143.5 -56.5t47.5 -143.5l-2 -48h-338q-2 -109 40 -160.5t129 -51.5q71 0 145 27zM115 304h270q1 72 -33 111.5t-95 39.5q-57 0 -95 -39t-47 -112zM386 705l-130 -127l-128 126l31 33l98 -88
l99 88z" />
    <glyph glyph-name="Gcircumflex" unicode="&#x11c;" horiz-adv-x="687" 
d="M597 337v-308q-101 -37 -217 -37q-155 0 -243.5 88t-88.5 245q0 159 91.5 258.5t262.5 99.5q91 0 184 -29l-15 -58q-84 34 -178 34q-72 0 -126.5 -24.5t-86.5 -66.5t-48 -93t-16 -110q0 -139 73 -214.5t201 -75.5q74 0 143 22v269h64zM534 771l-21 -41l-133 63l-133 -63
l-21 40l155 82z" />
    <glyph glyph-name="gcircumflex" unicode="&#x11d;" horiz-adv-x="530" 
d="M492 447h-88q41 -46 41 -111q0 -80 -51.5 -131.5t-144.5 -51.5q-32 0 -62 8q-37 -22 -37 -49q0 -40 82 -43l86 -3q91 -3 136 -41t45 -104q0 -81 -68.5 -130.5t-181.5 -49.5q-97 0 -152 39t-55 109q0 84 88 142q-44 23 -44 70t52 81q-73 47 -73 140q0 79 52 131t144 52
q32 0 64 -8h167v-50zM214 12q-11 0 -29 2q-77 -47 -77 -115q0 -52 40.5 -79.5t110.5 -27.5q84 0 129.5 33.5t45.5 87.5q0 92 -133 96zM382 329q0 56 -34 91.5t-93 35.5t-93 -35.5t-34 -91.5t34 -91.5t93 -35.5t93 35.5t34 91.5zM386 610l-31 -32l-98 87l-99 -87l-30 31
l130 128z" />
    <glyph glyph-name="Gbreve" unicode="&#x11e;" horiz-adv-x="687" 
d="M597 337v-308q-101 -37 -217 -37q-155 0 -243.5 88t-88.5 245q0 159 91.5 258.5t262.5 99.5q91 0 184 -29l-15 -58q-84 34 -178 34q-72 0 -126.5 -24.5t-86.5 -66.5t-48 -93t-16 -110q0 -139 73 -214.5t201 -75.5q74 0 143 22v269h64zM458 847h46q0 -49 -33 -80.5
t-89 -31.5q-57 0 -88.5 31.5t-31.5 80.5h45q0 -27 21.5 -45.5t54.5 -18.5q34 0 54.5 18t20.5 46z" />
    <glyph glyph-name="gbreve" unicode="&#x11f;" horiz-adv-x="530" 
d="M492 447h-88q41 -46 41 -111q0 -80 -51.5 -131.5t-144.5 -51.5q-32 0 -62 8q-37 -22 -37 -49q0 -40 82 -43l86 -3q91 -3 136 -41t45 -104q0 -81 -68.5 -130.5t-181.5 -49.5q-97 0 -152 39t-55 109q0 84 88 142q-44 23 -44 70t52 81q-73 47 -73 140q0 79 52 131t144 52
q32 0 64 -8h167v-50zM214 12q-11 0 -29 2q-77 -47 -77 -115q0 -52 40.5 -79.5t110.5 -27.5q84 0 129.5 33.5t45.5 87.5q0 92 -133 96zM382 329q0 56 -34 91.5t-93 35.5t-93 -35.5t-34 -91.5t34 -91.5t93 -35.5t93 35.5t34 91.5zM333 716h47q0 -52 -30.5 -86.5t-88.5 -34.5
q-57 0 -86 34.5t-29 86.5h46q0 -30 18.5 -51t51.5 -21t52 19t19 53z" />
    <glyph glyph-name="Gdotaccent" unicode="&#x120;" horiz-adv-x="687" 
d="M597 337v-308q-101 -37 -217 -37q-155 0 -243.5 88t-88.5 245q0 159 91.5 258.5t262.5 99.5q91 0 184 -29l-15 -58q-84 34 -178 34q-72 0 -126.5 -24.5t-86.5 -66.5t-48 -93t-16 -110q0 -139 73 -214.5t201 -75.5q74 0 143 22v269h64zM421 780q0 -18 -13 -31.5t-32 -13.5
q-18 0 -31.5 13t-13.5 32t13.5 32t31.5 13q19 0 32 -13t13 -32z" />
    <glyph glyph-name="gdotaccent" unicode="&#x121;" horiz-adv-x="530" 
d="M492 447h-88q41 -46 41 -111q0 -80 -51.5 -131.5t-144.5 -51.5q-32 0 -62 8q-37 -22 -37 -49q0 -40 82 -43l86 -3q91 -3 136 -41t45 -104q0 -81 -68.5 -130.5t-181.5 -49.5q-97 0 -152 39t-55 109q0 84 88 142q-44 23 -44 70t52 81q-73 47 -73 140q0 79 52 131t144 52
q32 0 64 -8h167v-50zM214 12q-11 0 -29 2q-77 -47 -77 -115q0 -52 40.5 -79.5t110.5 -27.5q84 0 129.5 33.5t45.5 87.5q0 92 -133 96zM382 329q0 56 -34 91.5t-93 35.5t-93 -35.5t-34 -91.5t34 -91.5t93 -35.5t93 35.5t34 91.5zM301 659q0 -18 -13 -31.5t-32 -13.5
q-18 0 -31.5 13t-13.5 32t13.5 32t31.5 13q19 0 32 -13t13 -32z" />
    <glyph glyph-name="Gcommaaccent" unicode="&#x122;" horiz-adv-x="687" 
d="M597 337v-308q-101 -37 -217 -37q-155 0 -243.5 88t-88.5 245q0 159 91.5 258.5t262.5 99.5q91 0 184 -29l-15 -58q-84 34 -178 34q-72 0 -126.5 -24.5t-86.5 -66.5t-48 -93t-16 -110q0 -139 73 -214.5t201 -75.5q74 0 143 22v269h64zM319 -239l-24 25q43 40 43 76
q0 13 -7.5 25.5t-7.5 22.5q0 16 11 28t29 12q19 0 31.5 -15t12.5 -37q0 -62 -88 -137z" />
    <glyph glyph-name="gcommaaccent" unicode="&#x123;" horiz-adv-x="530" 
d="M492 447h-88q41 -46 41 -111q0 -80 -51.5 -131.5t-144.5 -51.5q-32 0 -62 8q-37 -22 -37 -49q0 -40 82 -43l86 -3q91 -3 136 -41t45 -104q0 -81 -68.5 -130.5t-181.5 -49.5q-97 0 -152 39t-55 109q0 84 88 142q-44 23 -44 70t52 81q-73 47 -73 140q0 79 52 131t144 52
q32 0 64 -8h167v-50zM214 12q-11 0 -29 2q-77 -47 -77 -115q0 -52 40.5 -79.5t110.5 -27.5q84 0 129.5 33.5t45.5 87.5q0 92 -133 96zM382 329q0 56 -34 91.5t-93 35.5t-93 -35.5t-34 -91.5t34 -91.5t93 -35.5t93 35.5t34 91.5zM304 757l24 -24q-44 -41 -44 -77
q0 -12 7.5 -25t7.5 -24q0 -16 -11.5 -27t-27.5 -11q-18 0 -31 14t-13 38q0 63 88 136z" />
    <glyph glyph-name="Hcircumflex" unicode="&#x124;" horiz-adv-x="706" 
d="M610 0h-64v324h-386v-324h-64v675h64v-298h386v298h64v-675zM507 771l-21 -41l-133 63l-133 -63l-21 40l155 82z" />
    <glyph glyph-name="hcircumflex" unicode="&#x125;" horiz-adv-x="579" 
d="M483 0h-63v322q0 66 -22.5 99t-78.5 33q-70 0 -115 -61t-45 -156v-237h-63v730h63v-251q0 -66 -8 -99l2 -1q22 59 69 92.5t111 33.5q150 0 150 -159v-346zM443 802l-21 -41l-133 63l-133 -63l-21 40l155 82z" />
    <glyph glyph-name="Hbar" unicode="&#x126;" horiz-adv-x="726" 
d="M620 553h83v-51h-83v-502h-64v322h-386v-322h-64v502h-83v51h83v122h64v-122h386v122h64v-122zM556 502h-386v-129h386v129z" />
    <glyph glyph-name="hbar" unicode="&#x127;" horiz-adv-x="580" 
d="M484 0h-63v322q0 66 -22.5 98.5t-78.5 32.5q-71 0 -115.5 -61t-44.5 -155v-237h-63v594h-97v50h97v86h63v-86h146v-50h-146v-117q0 -59 -8 -97l1 -1q22 59 69 92.5t112 33.5q150 0 150 -160v-345z" />
    <glyph glyph-name="Itilde" unicode="&#x128;" horiz-adv-x="256" 
d="M160 0h-64v675h64v-675zM263 833l35 -26q-40 -67 -103 -67q-36 0 -75.5 28t-59.5 28q-39 0 -66 -47l-35 26q37 67 103 67q36 0 76 -27.5t60 -27.5q37 0 65 46z" />
    <glyph glyph-name="itilde" unicode="&#x129;" horiz-adv-x="255" 
d="M159 0h-63v497h63v-497zM231 700l33 -26q-31 -65 -87 -65q-25 0 -59 24t-45 24q-30 0 -48 -42l-34 24q31 67 89 67q25 0 59 -24t45 -24q28 0 47 42z" />
    <glyph glyph-name="Imacron" unicode="&#x12a;" horiz-adv-x="256" 
d="M160 0h-64v675h64v-675zM260 753h-264v48h264v-48z" />
    <glyph glyph-name="imacron" unicode="&#x12b;" horiz-adv-x="255" 
d="M159 0h-63v497h63v-497zM239 629h-223v48h223v-48z" />
    <glyph glyph-name="Ibreve" unicode="&#x12c;" horiz-adv-x="256" 
d="M160 0h-64v675h64v-675zM203 847h46q0 -49 -33 -80.5t-89 -31.5q-57 0 -88.5 31.5t-31.5 80.5h45q0 -27 21.5 -45.5t54.5 -18.5q34 0 54.5 18t20.5 46z" />
    <glyph glyph-name="ibreve" unicode="&#x12d;" horiz-adv-x="255" 
d="M159 0h-63v497h63v-497zM191 716h46q0 -58 -29 -89.5t-81 -31.5t-79.5 31.5t-27.5 89.5h46q0 -30 16.5 -51t45.5 -21t46 19.5t17 52.5z" />
    <glyph glyph-name="Iogonek" unicode="&#x12e;" horiz-adv-x="256" 
d="M195 -154l23 -38q-45 -40 -100 -40q-46 0 -71 22.5t-25 60.5q0 70 74 152v672h64v-675q-75 -71 -75 -138q0 -43 43 -43q31 0 67 27z" />
    <glyph glyph-name="iogonek" unicode="&#x12f;" horiz-adv-x="255" 
d="M173 658q0 -18 -13 -31.5t-32 -13.5t-32 13t-13 32t13 32t32 13t32 -13t13 -32zM159 497v-497q-74 -73 -74 -138q0 -43 43 -43q32 0 66 27l23 -38q-43 -40 -99 -40q-46 0 -71 22.5t-25 60.5q0 70 74 152v494h63z" />
    <glyph glyph-name="Idotaccent" unicode="&#x130;" horiz-adv-x="256" 
d="M160 0h-64v675h64v-675zM173 779q0 -18 -13 -31.5t-32 -13.5q-18 0 -31.5 13t-13.5 32t13.5 32t31.5 13q19 0 32 -13t13 -32z" />
    <glyph glyph-name="dotlessi" unicode="&#x131;" horiz-adv-x="255" 
d="M159 0h-63v497h63v-497z" />
    <glyph glyph-name="IJ" unicode="&#x132;" horiz-adv-x="601" 
d="M160 0h-64v675h64v-675zM505 675v-507q0 -174 -170 -174q-40 0 -78 8v59q37 -13 84 -13q48 0 73.5 27t25.5 98v502h65z" />
    <glyph glyph-name="ij" unicode="&#x133;" horiz-adv-x="518" 
d="M173 658q0 -18 -13 -31.5t-32 -13.5t-32 13t-13 32t13 32t32 13t32 -13t13 -32zM159 0h-63v497h63v-497zM436 658q0 -18 -13 -31.5t-32 -13.5t-32 13t-13 32t13 32t32 13t32 -13t13 -32zM422 497v-565q0 -100 -34.5 -145t-114.5 -45q-18 0 -36.5 2t-28.5 4l-9 2l7 57
q32 -11 73 -11q46 0 63 27.5t17 104.5v569h63z" />
    <glyph glyph-name="Jcircumflex" unicode="&#x134;" horiz-adv-x="344" 
d="M249 675v-507q0 -174 -170 -174q-40 0 -78 8v59q37 -13 84 -13q48 0 73.5 27t25.5 98v502h65zM367 771l-21 -41l-133 63l-133 -63l-21 40l155 82z" />
    <glyph glyph-name="jcircumflex" unicode="&#x135;" horiz-adv-x="263" 
d="M167 497v-565q0 -100 -34.5 -145t-114.5 -45q-18 0 -36.5 2t-27.5 4l-10 2l7 57q32 -11 73 -11q46 0 63 27.5t17 104.5v569h63zM253 609l-32 -31l-85 87l-86 -87l-31 30l118 128z" />
    <glyph glyph-name="Kcommaaccent" unicode="&#x136;" horiz-adv-x="575" 
d="M555 0h-91l-304 342v-342h-64v675h64v-327l304 327h79l-311 -326zM252 -239l-24 25q43 40 43 76q0 13 -7.5 25.5t-7.5 22.5q0 16 11 28t29 12q19 0 31.5 -15t12.5 -37q0 -62 -88 -137z" />
    <glyph glyph-name="kcommaaccent" unicode="&#x137;" horiz-adv-x="473" 
d="M448 0h-84l-205 264v-264h-63v730h63v-459l196 226h74l-202 -225zM202 -239l-24 25q43 40 43 76q0 13 -7.5 25.5t-7.5 22.5q0 16 11 28t29 12q19 0 31.5 -15t12.5 -37q0 -62 -88 -137z" />
    <glyph glyph-name="kgreenlandic" unicode="&#x138;" horiz-adv-x="473" 
d="M444 0h-84l-201 258v-258h-63v497h63v-232l201 232h74l-206 -230z" />
    <glyph glyph-name="Lacute" unicode="&#x139;" horiz-adv-x="425" 
d="M418 0h-322v675h64v-622h258v-53zM340 790l-172 -58l-15 38l164 74z" />
    <glyph glyph-name="lacute" unicode="&#x13a;" horiz-adv-x="255" 
d="M159 0h-63v730h63v-730zM275 850l-172 -58l-15 38l164 74z" />
    <glyph glyph-name="Lcommaaccent" unicode="&#x13b;" horiz-adv-x="425" 
d="M418 0h-322v675h64v-622h258v-53zM215 -239l-24 25q43 40 43 76q0 13 -7.5 25.5t-7.5 22.5q0 16 11 28t29 12q19 0 31.5 -15t12.5 -37q0 -62 -88 -137z" />
    <glyph glyph-name="lcommaaccent" unicode="&#x13c;" horiz-adv-x="255" 
d="M159 0h-63v730h63v-730zM85 -239l-24 25q43 40 43 76q0 13 -7.5 25.5t-7.5 22.5q0 16 11 28t29 12q19 0 31.5 -15t12.5 -37q0 -62 -88 -137z" />
    <glyph glyph-name="Lcaron" unicode="&#x13d;" horiz-adv-x="425" 
d="M418 0h-322v675h64v-622h258v-53zM396 751l-116 -132l-37 27l104 138z" />
    <glyph glyph-name="lcaron" unicode="&#x13e;" horiz-adv-x="270" 
d="M159 0h-63v730h63v-730zM332 733l-70 -160l-44 15l58 164z" />
    <glyph glyph-name="Ldot" unicode="&#x13f;" horiz-adv-x="541" 
d="M418 0h-322v675h64v-622h258v-53zM471 347q0 -22 -15 -36.5t-36 -14.5q-22 0 -36.5 14.5t-14.5 36.5t14.5 36.5t36.5 14.5q21 0 36 -14.5t15 -36.5z" />
    <glyph glyph-name="ldot" unicode="&#x140;" horiz-adv-x="356" 
d="M159 0h-63v730h63v-730zM357 297q0 -22 -15 -36.5t-36 -14.5q-22 0 -36.5 14.5t-14.5 36.5t14.5 36.5t36.5 14.5q21 0 36 -14.5t15 -36.5z" />
    <glyph glyph-name="Lslash" unicode="&#x141;" horiz-adv-x="433" 
d="M426 0h-322v373l-87 -40l-16 48l103 47v247h64v-217l121 54l16 -47l-137 -62v-350h258v-53z" />
    <glyph glyph-name="lslash" unicode="&#x142;" horiz-adv-x="285" 
d="M274 481l-97 -56v-425h-63v389l-70 -41l-20 44l90 52v286h63v-250l77 45z" />
    <glyph glyph-name="Nacute" unicode="&#x143;" horiz-adv-x="695" 
d="M599 0h-68l-301 477q-52 84 -78 135q7 -142 7 -419v-193h-63v675h86l298 -470q23 -35 63 -111q-7 166 -7 407v174h63v-675zM505 790l-172 -58l-15 38l164 74z" />
    <glyph glyph-name="nacute" unicode="&#x144;" horiz-adv-x="579" 
d="M483 0h-63v322q0 66 -22.5 99t-78.5 33q-70 0 -115 -61t-45 -156v-237h-63v497h64q0 -69 -9 -116l2 -1q21 58 68 91.5t112 33.5q150 0 150 -159v-346zM423 704l-125 -128l-35 31l116 136z" />
    <glyph glyph-name="Ncommaaccent" unicode="&#x145;" horiz-adv-x="695" 
d="M599 0h-68l-301 477q-52 84 -78 135q7 -142 7 -419v-193h-63v675h86l298 -470q23 -35 63 -111q-7 166 -7 407v174h63v-675zM305 -239l-24 25q43 40 43 76q0 13 -7.5 25.5t-7.5 22.5q0 16 11 28t29 12q19 0 31.5 -15t12.5 -37q0 -62 -88 -137z" />
    <glyph glyph-name="ncommaaccent" unicode="&#x146;" horiz-adv-x="579" 
d="M483 0h-63v322q0 66 -22.5 99t-78.5 33q-70 0 -115 -61t-45 -156v-237h-63v497h64q0 -69 -9 -116l2 -1q21 58 68 91.5t112 33.5q150 0 150 -159v-346zM251 -239l-24 25q43 40 43 76q0 13 -7.5 25.5t-7.5 22.5q0 16 11 28t29 12q19 0 31.5 -15t12.5 -37q0 -62 -88 -137z
" />
    <glyph glyph-name="Ncaron" unicode="&#x147;" horiz-adv-x="695" 
d="M599 0h-68l-301 477q-52 84 -78 135q7 -142 7 -419v-193h-63v675h86l298 -470q23 -35 63 -111q-7 166 -7 407v174h63v-675zM510 812l-155 -82l-153 81l22 41l132 -64l134 64z" />
    <glyph glyph-name="ncaron" unicode="&#x148;" horiz-adv-x="579" 
d="M483 0h-63v322q0 66 -22.5 99t-78.5 33q-70 0 -115 -61t-45 -156v-237h-63v497h64q0 -69 -9 -116l2 -1q21 58 68 91.5t112 33.5q150 0 150 -159v-346zM424 705l-130 -127l-128 126l31 33l98 -88l99 88z" />
    <glyph glyph-name="napostrophe" unicode="&#x149;" horiz-adv-x="646" 
d="M551 0h-63v322q0 66 -22.5 99t-78.5 33q-70 0 -115 -61t-45 -156v-237h-63v497h64q0 -69 -9 -116l2 -1q21 58 68 91.5t112 33.5q150 0 150 -159v-346zM50 516l-28 24q79 87 44 135q-15 21 -4 43t35 22q30 0 42.5 -29t-8.5 -83t-81 -112z" />
    <glyph glyph-name="Eng" unicode="&#x14a;" horiz-adv-x="695" 
d="M599 675v-666q0 -70 -12.5 -119t-38.5 -78.5t-57 -45t-76 -25.5l-13 49q46 11 72.5 28.5t44 61t17.5 115.5l-306 480q-44 69 -78 134q7 -113 7 -417v-192h-63v675h83l300 -469q26 -39 64 -110q-7 166 -7 405v174h63z" />
    <glyph glyph-name="eng" unicode="&#x14b;" horiz-adv-x="579" 
d="M303 -196l-13 48q59 16 85 42q28 28 39 82.5t11 202.5v20q0 101 -12.5 157t-36.5 77t-66 21q-63 0 -107 -59t-44 -141v-254h-63v497h64q0 -72 -9 -115h1q21 56 67 89.5t105 33.5q89 0 126.5 -64t37.5 -219v-15q0 -173 -15 -241t-53 -105q-34 -36 -117 -57z" />
    <glyph glyph-name="Omacron" unicode="&#x14c;" horiz-adv-x="707" 
d="M659 345q0 -165 -90 -259t-224 -94q-141 0 -219 91.5t-78 246.5q0 165 90 259t224 94q141 0 219 -91.5t78 -246.5zM592 332q0 135 -61.5 216t-177.5 81q-103 0 -170.5 -75.5t-67.5 -209.5q0 -136 61.5 -217t176.5 -81q103 0 171 75.5t68 210.5zM486 753h-264v48h264v-48z
" />
    <glyph glyph-name="omacron" unicode="&#x14d;" horiz-adv-x="540" 
d="M495 253q0 -114 -61 -187.5t-172 -73.5q-101 0 -159 63.5t-58 188.5q0 114 61 187.5t172 73.5q101 0 159 -63.5t58 -188.5zM430 249q0 97 -42 151t-117 54q-74 0 -117.5 -53t-43.5 -153q0 -97 42 -150.5t117 -53.5q72 0 116.5 51.5t44.5 153.5zM392 629h-240v48h240v-48z
" />
    <glyph glyph-name="Obreve" unicode="&#x14e;" horiz-adv-x="707" 
d="M659 345q0 -165 -90 -259t-224 -94q-141 0 -219 91.5t-78 246.5q0 165 90 259t224 94q141 0 219 -91.5t78 -246.5zM592 332q0 135 -61.5 216t-177.5 81q-103 0 -170.5 -75.5t-67.5 -209.5q0 -136 61.5 -217t176.5 -81q103 0 171 75.5t68 210.5zM429 847h46
q0 -49 -33 -80.5t-89 -31.5q-57 0 -88.5 31.5t-31.5 80.5h45q0 -27 21.5 -45.5t54.5 -18.5q34 0 54.5 18t20.5 46z" />
    <glyph glyph-name="obreve" unicode="&#x14f;" horiz-adv-x="540" 
d="M495 253q0 -114 -61 -187.5t-172 -73.5q-101 0 -159 63.5t-58 188.5q0 114 61 187.5t172 73.5q101 0 159 -63.5t58 -188.5zM430 249q0 97 -42 151t-117 54q-74 0 -117.5 -53t-43.5 -153q0 -97 42 -150.5t117 -53.5q72 0 116.5 51.5t44.5 153.5zM340 716h47
q0 -52 -30.5 -86.5t-88.5 -34.5q-57 0 -86 34.5t-29 86.5h46q0 -30 18.5 -51t51.5 -21t52 19t19 53z" />
    <glyph glyph-name="Ohungarumlaut" unicode="&#x150;" horiz-adv-x="707" 
d="M659 345q0 -165 -90 -259t-224 -94q-141 0 -219 91.5t-78 246.5q0 165 90 259t224 94q141 0 219 -91.5t78 -246.5zM592 332q0 135 -61.5 216t-177.5 81q-103 0 -170.5 -75.5t-67.5 -209.5q0 -136 61.5 -217t176.5 -81q103 0 171 75.5t68 210.5zM572 837l-130 -106l-33 32
l121 115zM391 839l-114 -108l-33 32l105 116z" />
    <glyph glyph-name="ohungarumlaut" unicode="&#x151;" horiz-adv-x="540" 
d="M495 253q0 -114 -61 -187.5t-172 -73.5q-101 0 -159 63.5t-58 188.5q0 114 61 187.5t172 73.5q101 0 159 -63.5t58 -188.5zM430 249q0 97 -42 151t-117 54q-74 0 -117.5 -53t-43.5 -153q0 -97 42 -150.5t117 -53.5q72 0 116.5 51.5t44.5 153.5zM491 695l-127 -117l-34 30
l118 126zM322 701l-120 -123l-34 30l110 130z" />
    <glyph glyph-name="OE" unicode="&#x152;" horiz-adv-x="875" 
d="M797 0h-331q-61 -8 -121 -8q-141 0 -219 91.5t-78 246.5q0 165 90 259t224 94q56 0 106 -8h329v-52h-269v-249h256v-51h-256v-270h269v-53zM464 58v557q-50 14 -111 14q-103 0 -170.5 -75.5t-67.5 -209.5q0 -136 61.5 -217t176.5 -81q56 0 111 12z" />
    <glyph glyph-name="oe" unicode="&#x153;" horiz-adv-x="883" 
d="M806 72l10 -50q-85 -30 -164 -30q-149 0 -196 113q-59 -113 -194 -113q-101 0 -159 63.5t-58 188.5q0 114 61 187.5t172 73.5q134 0 186 -109q53 109 177 109q96 0 143 -56t47 -143l-1 -44h-337q-9 -217 168 -217q72 0 145 27zM495 310h269q2 68 -32 106.5t-95 38.5
q-56 0 -94 -38t-48 -107zM430 249q0 97 -42 151t-117 54q-74 0 -117.5 -53t-43.5 -153q0 -97 42 -150.5t117 -53.5q72 0 116.5 51.5t44.5 153.5z" />
    <glyph glyph-name="Racute" unicode="&#x154;" horiz-adv-x="562" 
d="M529 0h-81l-229 306h-59v-306h-64v674q85 4 160 4q104 0 165.5 -43.5t61.5 -132.5q0 -87 -55 -135.5t-139 -56.5q30 -33 58 -71zM160 624v-268q45 -1 84 -1q84 0 128.5 36.5t44.5 101.5q0 66 -43.5 100t-125.5 34zM396 790l-172 -58l-15 38l164 74z" />
    <glyph glyph-name="racute" unicode="&#x155;" horiz-adv-x="354" 
d="M329 504l-3 -61q-84 13 -125.5 -50t-41.5 -195v-198h-63v497h64q0 -66 -13 -130l2 -1q17 65 61 106.5t119 31.5zM341 704l-125 -128l-35 31l116 136z" />
    <glyph glyph-name="Rcommaaccent" unicode="&#x156;" horiz-adv-x="562" 
d="M529 0h-81l-229 306h-59v-306h-64v674q85 4 160 4q104 0 165.5 -43.5t61.5 -132.5q0 -87 -55 -135.5t-139 -56.5q30 -33 58 -71zM160 624v-268q45 -1 84 -1q84 0 128.5 36.5t44.5 101.5q0 66 -43.5 100t-125.5 34zM240 -239l-24 25q43 40 43 76q0 13 -7.5 25.5t-7.5 22.5
q0 16 11 28t29 12q19 0 31.5 -15t12.5 -37q0 -62 -88 -137z" />
    <glyph glyph-name="rcommaaccent" unicode="&#x157;" horiz-adv-x="354" 
d="M329 504l-3 -61q-84 13 -125.5 -50t-41.5 -195v-198h-63v497h64q0 -66 -13 -130l2 -1q17 65 61 106.5t119 31.5zM91 -239l-24 25q43 40 43 76q0 13 -7.5 25.5t-7.5 22.5q0 16 11 28t29 12q19 0 31.5 -15t12.5 -37q0 -62 -88 -137z" />
    <glyph glyph-name="Rcaron" unicode="&#x158;" horiz-adv-x="562" 
d="M529 0h-81l-229 306h-59v-306h-64v674q85 4 160 4q104 0 165.5 -43.5t61.5 -132.5q0 -87 -55 -135.5t-139 -56.5q30 -33 58 -71zM160 624v-268q45 -1 84 -1q84 0 128.5 36.5t44.5 101.5q0 66 -43.5 100t-125.5 34zM410 812l-155 -82l-153 81l22 41l132 -64l134 64z" />
    <glyph glyph-name="rcaron" unicode="&#x159;" horiz-adv-x="354" 
d="M329 504l-3 -61q-84 13 -125.5 -50t-41.5 -195v-198h-63v497h64q0 -66 -13 -130l2 -1q17 65 61 106.5t119 31.5zM342 705l-130 -127l-128 126l31 33l98 -88l99 88z" />
    <glyph glyph-name="Sacute" unicode="&#x15a;" horiz-adv-x="504" 
d="M402 670l-8 -58q-59 18 -117 18q-75 0 -114.5 -31t-39.5 -87q0 -45 33.5 -76t80.5 -49.5t94.5 -40t81 -62t33.5 -100.5q0 -85 -62.5 -138.5t-176.5 -53.5q-81 0 -148 19l11 62q73 -26 142 -26q77 0 122.5 32t45.5 98q0 40 -24 68.5t-59.5 44.5t-77.5 35t-77.5 38
t-59.5 56t-24 87q0 79 59.5 128t163.5 49q63 0 121 -13zM403 790l-172 -58l-15 38l164 74z" />
    <glyph glyph-name="sacute" unicode="&#x15b;" horiz-adv-x="431" 
d="M343 496l-7 -56q-52 15 -102 15q-55 0 -84 -21.5t-29 -59.5q0 -34 26 -55t63.5 -32.5t75 -25t63.5 -44.5t26 -80q0 -62 -52.5 -103.5t-144.5 -41.5q-64 0 -120 14l7 60q56 -21 121 -21q59 0 91.5 23t32.5 64q0 35 -26 56t-63 32t-74.5 25t-63.5 44.5t-26 79.5
q0 59 49 97.5t137 38.5q44 0 100 -9zM325 704l-125 -128l-35 31l116 136z" />
    <glyph glyph-name="Scircumflex" unicode="&#x15c;" horiz-adv-x="504" 
d="M402 670l-8 -58q-59 18 -117 18q-75 0 -114.5 -31t-39.5 -87q0 -45 33.5 -76t80.5 -49.5t94.5 -40t81 -62t33.5 -100.5q0 -85 -62.5 -138.5t-176.5 -53.5q-81 0 -148 19l11 62q73 -26 142 -26q77 0 122.5 32t45.5 98q0 40 -24 68.5t-59.5 44.5t-77.5 35t-77.5 38
t-59.5 56t-24 87q0 79 59.5 128t163.5 49q63 0 121 -13zM413 771l-21 -41l-133 63l-133 -63l-21 40l155 82z" />
    <glyph glyph-name="scircumflex" unicode="&#x15d;" horiz-adv-x="431" 
d="M343 496l-7 -56q-52 15 -102 15q-55 0 -84 -21.5t-29 -59.5q0 -34 26 -55t63.5 -32.5t75 -25t63.5 -44.5t26 -80q0 -62 -52.5 -103.5t-144.5 -41.5q-64 0 -120 14l7 60q56 -21 121 -21q59 0 91.5 23t32.5 64q0 35 -26 56t-63 32t-74.5 25t-63.5 44.5t-26 79.5
q0 59 49 97.5t137 38.5q44 0 100 -9zM344 610l-31 -32l-98 87l-99 -87l-30 31l130 128z" />
    <glyph glyph-name="Scedilla" unicode="&#x15e;" horiz-adv-x="504" 
d="M402 670l-8 -58q-59 18 -117 18q-75 0 -114.5 -31t-39.5 -87q0 -45 33.5 -76t80.5 -49.5t94.5 -40t81 -62t33.5 -100.5q0 -85 -62.5 -138.5t-176.5 -53.5q-81 0 -148 19l11 62q73 -26 142 -26q77 0 122.5 32t45.5 98q0 40 -24 68.5t-59.5 44.5t-77.5 35t-77.5 38
t-59.5 56t-24 87q0 79 59.5 128t163.5 49q63 0 121 -13zM202 -68l57 27q24 -31 28.5 -63.5t-8.5 -64t-42 -67.5h-57q29 37 41 63t8 51.5t-27 53.5z" />
    <glyph glyph-name="Scedilla" unicode="&#xf6c1;" horiz-adv-x="504" 
d="M402 670l-8 -58q-59 18 -117 18q-75 0 -114.5 -31t-39.5 -87q0 -45 33.5 -76t80.5 -49.5t94.5 -40t81 -62t33.5 -100.5q0 -85 -62.5 -138.5t-176.5 -53.5q-81 0 -148 19l11 62q73 -26 142 -26q77 0 122.5 32t45.5 98q0 40 -24 68.5t-59.5 44.5t-77.5 35t-77.5 38
t-59.5 56t-24 87q0 79 59.5 128t163.5 49q63 0 121 -13zM202 -68l57 27q24 -31 28.5 -63.5t-8.5 -64t-42 -67.5h-57q29 37 41 63t8 51.5t-27 53.5z" />
    <glyph glyph-name="scedilla" unicode="&#x15f;" horiz-adv-x="431" 
d="M343 496l-7 -56q-52 15 -102 15q-55 0 -84 -21.5t-29 -59.5q0 -34 26 -55t63.5 -32.5t75 -25t63.5 -44.5t26 -80q0 -62 -52.5 -103.5t-144.5 -41.5q-64 0 -120 14l7 60q56 -21 121 -21q59 0 91.5 23t32.5 64q0 35 -26 56t-63 32t-74.5 25t-63.5 44.5t-26 79.5
q0 59 49 97.5t137 38.5q44 0 100 -9zM168 -68l57 27q24 -31 28.5 -63.5t-8.5 -64t-42 -67.5h-57q29 37 41 63t8 51.5t-27 53.5z" />
    <glyph glyph-name="scedilla" unicode="&#xf6c2;" horiz-adv-x="431" 
d="M343 496l-7 -56q-52 15 -102 15q-55 0 -84 -21.5t-29 -59.5q0 -34 26 -55t63.5 -32.5t75 -25t63.5 -44.5t26 -80q0 -62 -52.5 -103.5t-144.5 -41.5q-64 0 -120 14l7 60q56 -21 121 -21q59 0 91.5 23t32.5 64q0 35 -26 56t-63 32t-74.5 25t-63.5 44.5t-26 79.5
q0 59 49 97.5t137 38.5q44 0 100 -9zM168 -68l57 27q24 -31 28.5 -63.5t-8.5 -64t-42 -67.5h-57q29 37 41 63t8 51.5t-27 53.5z" />
    <glyph glyph-name="Scaron" unicode="&#x160;" horiz-adv-x="504" 
d="M402 670l-8 -58q-59 18 -117 18q-75 0 -114.5 -31t-39.5 -87q0 -45 33.5 -76t80.5 -49.5t94.5 -40t81 -62t33.5 -100.5q0 -85 -62.5 -138.5t-176.5 -53.5q-81 0 -148 19l11 62q73 -26 142 -26q77 0 122.5 32t45.5 98q0 40 -24 68.5t-59.5 44.5t-77.5 35t-77.5 38
t-59.5 56t-24 87q0 79 59.5 128t163.5 49q63 0 121 -13zM406 812l-155 -82l-153 81l22 41l132 -64l134 64z" />
    <glyph glyph-name="scaron" unicode="&#x161;" horiz-adv-x="431" 
d="M343 496l-7 -56q-52 15 -102 15q-55 0 -84 -21.5t-29 -59.5q0 -34 26 -55t63.5 -32.5t75 -25t63.5 -44.5t26 -80q0 -62 -52.5 -103.5t-144.5 -41.5q-64 0 -120 14l7 60q56 -21 121 -21q59 0 91.5 23t32.5 64q0 35 -26 56t-63 32t-74.5 25t-63.5 44.5t-26 79.5
q0 59 49 97.5t137 38.5q44 0 100 -9zM345 705l-130 -127l-128 126l31 33l98 -88l99 88z" />
    <glyph glyph-name="uni0162" unicode="&#x162;" horiz-adv-x="520" 
d="M501 622h-209v-622h-64v622h-209v53h482v-53zM227 -68l57 27q24 -31 28.5 -63.5t-8.5 -64t-42 -67.5h-57q29 37 41 63t8 51.5t-27 53.5z" />
    <glyph glyph-name="uni0163" unicode="&#x163;" horiz-adv-x="369" 
d="M328 56l7 -53q-45 -10 -92 -10q-70 0 -98 33.5t-28 111.5v309h-111v50h111v168l63 17v-185h151v-50h-151v-289q0 -64 16 -87t61 -23q41 0 71 8zM183 -68l57 27q24 -31 28.5 -63.5t-8.5 -64t-42 -67.5h-57q29 37 41 63t8 51.5t-27 53.5z" />
    <glyph glyph-name="Tcaron" unicode="&#x164;" horiz-adv-x="520" 
d="M501 622h-209v-622h-64v622h-209v53h482v-53zM412 812l-155 -82l-153 81l22 41l132 -64l134 64z" />
    <glyph glyph-name="tcaron" unicode="&#x165;" horiz-adv-x="371" 
d="M328 56l7 -53q-45 -10 -92 -10q-70 0 -98 33.5t-28 111.5v309h-111v50h111v168l63 17v-185h151v-50h-151v-289q0 -64 16 -87t61 -23q41 0 71 8zM361 733l-70 -160l-44 15l58 164z" />
    <glyph glyph-name="Tbar" unicode="&#x166;" horiz-adv-x="520" 
d="M228 374v248h-209v53h482v-53h-209v-248h124v-51h-124v-323h-64v323h-124v51h124z" />
    <glyph glyph-name="tbar" unicode="&#x167;" horiz-adv-x="398" 
d="M336 56l6 -53q-43 -10 -91 -10q-70 0 -98 33.5t-28 111.5v97h-105v48h105v165h-111v49h111v168l63 17v-185h151v-49h-151v-165h139v-48h-139v-77q0 -65 16 -88t61 -23q35 0 71 9z" />
    <glyph glyph-name="Utilde" unicode="&#x168;" horiz-adv-x="701" 
d="M605 675v-420q0 -129 -66 -196t-197 -67q-60 0 -105 13.5t-71.5 34.5t-42.5 52.5t-21.5 62t-5.5 67.5v453h64v-446q0 -41 8 -72t28 -57.5t58 -41t94 -14.5q100 0 147 47t47 158v426h63zM484 833l35 -26q-40 -67 -103 -67q-36 0 -75.5 28t-59.5 28q-39 0 -66 -47l-35 26
q37 67 103 67q36 0 76 -27.5t60 -27.5q37 0 65 46z" />
    <glyph glyph-name="utilde" unicode="&#x169;" horiz-adv-x="579" 
d="M483 0h-64q0 69 9 116l-2 1q-21 -58 -68 -91.5t-112 -33.5q-150 0 -150 159v346h63v-322q0 -66 22.5 -99t78.5 -33q70 0 115 61t45 156v237h63v-497zM419 701l34 -27q-38 -69 -101 -69q-34 0 -72.5 28.5t-58.5 28.5q-35 0 -62 -48l-34 27q38 69 101 69q34 0 72 -28.5
t58 -28.5q36 0 63 48z" />
    <glyph glyph-name="Umacron" unicode="&#x16a;" horiz-adv-x="701" 
d="M605 675v-420q0 -129 -66 -196t-197 -67q-60 0 -105 13.5t-71.5 34.5t-42.5 52.5t-21.5 62t-5.5 67.5v453h64v-446q0 -41 8 -72t28 -57.5t58 -41t94 -14.5q100 0 147 47t47 158v426h63zM483 753h-264v48h264v-48z" />
    <glyph glyph-name="umacron" unicode="&#x16b;" horiz-adv-x="579" 
d="M483 0h-64q0 69 9 116l-2 1q-21 -58 -68 -91.5t-112 -33.5q-150 0 -150 159v346h63v-322q0 -66 22.5 -99t78.5 -33q70 0 115 61t45 156v237h63v-497zM410 629h-240v48h240v-48z" />
    <glyph glyph-name="Ubreve" unicode="&#x16c;" horiz-adv-x="701" 
d="M605 675v-420q0 -129 -66 -196t-197 -67q-60 0 -105 13.5t-71.5 34.5t-42.5 52.5t-21.5 62t-5.5 67.5v453h64v-446q0 -41 8 -72t28 -57.5t58 -41t94 -14.5q100 0 147 47t47 158v426h63zM426 847h46q0 -49 -33 -80.5t-89 -31.5q-57 0 -88.5 31.5t-31.5 80.5h45
q0 -27 21.5 -45.5t54.5 -18.5q34 0 54.5 18t20.5 46z" />
    <glyph glyph-name="ubreve" unicode="&#x16d;" horiz-adv-x="579" 
d="M483 0h-64q0 69 9 116l-2 1q-21 -58 -68 -91.5t-112 -33.5q-150 0 -150 159v346h63v-322q0 -66 22.5 -99t78.5 -33q70 0 115 61t45 156v237h63v-497zM360 716h47q0 -52 -30.5 -86.5t-88.5 -34.5q-57 0 -86 34.5t-29 86.5h46q0 -30 18.5 -51t51.5 -21t52 19t19 53z" />
    <glyph glyph-name="Uring" unicode="&#x16e;" horiz-adv-x="701" 
d="M605 675v-420q0 -129 -66 -196t-197 -67q-60 0 -105 13.5t-71.5 34.5t-42.5 52.5t-21.5 62t-5.5 67.5v453h64v-446q0 -41 8 -72t28 -57.5t58 -41t94 -14.5q100 0 147 47t47 158v426h63zM455 797q0 -44 -29.5 -73.5t-79.5 -29.5q-48 0 -75 25t-27 73q0 44 30 73.5t80 29.5
q47 0 74 -25t27 -73zM403 794q0 28 -14 44t-39 16q-22 0 -37.5 -15t-15.5 -44q0 -59 53 -59q22 0 37.5 15t15.5 43z" />
    <glyph glyph-name="uring" unicode="&#x16f;" horiz-adv-x="579" 
d="M483 0h-64q0 69 9 116l-2 1q-21 -58 -68 -91.5t-112 -33.5q-150 0 -150 159v346h63v-322q0 -66 22.5 -99t78.5 -33q70 0 115 61t45 156v237h63v-497zM395 658q0 -44 -29.5 -74t-79.5 -30q-48 0 -74.5 25t-26.5 74q0 44 30 73.5t80 29.5q47 0 73.5 -25t26.5 -73zM343 655
q0 59 -53 59q-22 0 -37.5 -15t-15.5 -44q0 -28 14 -43.5t39 -15.5q22 0 37.5 15t15.5 44z" />
    <glyph glyph-name="Uhungarumlaut" unicode="&#x170;" horiz-adv-x="701" 
d="M605 675v-420q0 -129 -66 -196t-197 -67q-60 0 -105 13.5t-71.5 34.5t-42.5 52.5t-21.5 62t-5.5 67.5v453h64v-446q0 -41 8 -72t28 -57.5t58 -41t94 -14.5q100 0 147 47t47 158v426h63zM555 837l-130 -106l-33 32l121 115zM374 839l-114 -108l-33 32l105 116z" />
    <glyph glyph-name="uhungarumlaut" unicode="&#x171;" horiz-adv-x="579" 
d="M483 0h-64q0 69 9 116l-2 1q-21 -58 -68 -91.5t-112 -33.5q-150 0 -150 159v346h63v-322q0 -66 22.5 -99t78.5 -33q70 0 115 61t45 156v237h63v-497zM505 695l-127 -117l-34 30l118 126zM336 701l-120 -123l-34 30l110 130z" />
    <glyph glyph-name="Uogonek" unicode="&#x172;" horiz-adv-x="701" 
d="M605 675v-420q0 -131 -67 -197q-15 -15 -60.5 -44t-68.5 -52q-50 -50 -50 -100q0 -43 43 -43q32 0 66 27l23 -38q-43 -40 -99 -40q-46 0 -71 22.5t-25 60.5q0 79 82 143q-20 -2 -37 -2q-60 0 -105 13.5t-71 34.5t-42 52.5t-21.5 62t-5.5 67.5v453h64v-446q0 -41 8 -72
t28 -57.5t58 -41t94 -14.5q100 0 147 47t47 158v426h63z" />
    <glyph glyph-name="uogonek" unicode="&#x173;" horiz-adv-x="579" 
d="M513 -154l23 -38q-45 -40 -100 -40q-45 0 -70 22.5t-25 60.5q0 82 94 155q-9 58 -6 105h-1q-54 -119 -182 -119q-150 0 -150 159v346h63v-322q0 -66 22.5 -99t78.5 -33q70 0 115 61t45 156v237h63v-312q0 -106 16 -185q-96 -71 -96 -138q0 -43 43 -43q31 0 67 27z" />
    <glyph glyph-name="Wcircumflex" unicode="&#x174;" horiz-adv-x="954" 
d="M912 675l-187 -675h-81l-146 497q-15 47 -22 90h-2q-10 -55 -20 -90l-142 -497h-83l-188 675h69l135 -487q19 -74 29 -129h1q14 75 29 124l141 492h65l148 -501q17 -56 28 -115h1q14 69 22 100l140 516h63zM632 771l-21 -41l-133 63l-133 -63l-21 40l155 82z" />
    <glyph glyph-name="wcircumflex" unicode="&#x175;" horiz-adv-x="791" 
d="M770 497l-163 -497h-76l-117 345q-14 41 -27 91h-1q-9 -36 -37 -125l-97 -311h-77l-155 497h72l92 -322q7 -24 18.5 -63.5t14.5 -51.5h1q14 53 33 116l102 321h77l105 -321q29 -92 35 -117h1q1 3 34 116l97 322h68zM524 610l-31 -32l-98 87l-99 -87l-30 31l130 128z" />
    <glyph glyph-name="Ycircumflex" unicode="&#x176;" horiz-adv-x="519" 
d="M514 675l-223 -408v-267h-64v267l-222 408h72l130 -242q28 -51 54 -112h1q34 73 56 113l128 241h68zM413 771l-21 -41l-133 63l-133 -63l-21 40l155 82z" />
    <glyph glyph-name="ycircumflex" unicode="&#x177;" horiz-adv-x="464" 
d="M452 497l-206 -548q-43 -115 -93 -161.5t-132 -46.5l-50 6l7 56q29 -7 57 -7q47 0 80 31t65 112l24 61l-192 497h74l112 -307q18 -51 38 -115h1q15 48 50 150l96 272h69zM360 610l-31 -32l-98 87l-99 -87l-30 31l130 128z" />
    <glyph glyph-name="Ydieresis" unicode="&#x178;" horiz-adv-x="519" 
d="M514 675l-223 -408v-267h-64v267l-222 408h72l130 -242q28 -51 54 -112h1q34 73 56 113l128 241h68zM410 778q0 -19 -12.5 -31t-30.5 -12t-30.5 12t-12.5 31q0 18 12.5 30.5t30.5 12.5t30.5 -12.5t12.5 -30.5zM197 778q0 -19 -12 -31t-31 -12q-18 0 -30.5 12t-12.5 31
q0 18 12.5 30.5t30.5 12.5q19 0 31 -12.5t12 -30.5z" />
    <glyph glyph-name="Zacute" unicode="&#x179;" horiz-adv-x="540" 
d="M496 0h-449v45l311 481q32 50 64 94q-78 -2 -166 -2h-198v57h434v-46l-328 -505q-20 -33 -45 -68q24 2 184 2h193v-58zM431 790l-172 -58l-15 38l164 74z" />
    <glyph glyph-name="zacute" unicode="&#x17a;" horiz-adv-x="445" 
d="M391 0h-342v44l266 399q-68 -2 -149 -2h-112v56h332v-43l-264 -398q64 2 152 2h117v-58zM352 704l-125 -128l-35 31l116 136z" />
    <glyph glyph-name="Zdotaccent" unicode="&#x17b;" horiz-adv-x="540" 
d="M496 0h-449v45l311 481q32 50 64 94q-78 -2 -166 -2h-198v57h434v-46l-328 -505q-20 -33 -45 -68q24 2 184 2h193v-58zM314 779q0 -18 -13 -31.5t-32 -13.5q-18 0 -31.5 13t-13.5 32t13.5 32t31.5 13q19 0 32 -13t13 -32z" />
    <glyph glyph-name="zdotaccent" unicode="&#x17c;" horiz-adv-x="445" 
d="M391 0h-342v44l266 399q-68 -2 -149 -2h-112v56h332v-43l-264 -398q64 2 152 2h117v-58zM263 658q0 -18 -13 -31.5t-32 -13.5q-18 0 -31.5 13t-13.5 32t13.5 32t31.5 13q19 0 32 -13t13 -32z" />
    <glyph glyph-name="Zcaron" unicode="&#x17d;" horiz-adv-x="540" 
d="M496 0h-449v45l311 481q32 50 64 94q-78 -2 -166 -2h-198v57h434v-46l-328 -505q-20 -33 -45 -68q24 2 184 2h193v-58zM428 812l-155 -82l-153 81l22 41l132 -64l134 64z" />
    <glyph glyph-name="zcaron" unicode="&#x17e;" horiz-adv-x="445" 
d="M391 0h-342v44l266 399q-68 -2 -149 -2h-112v56h332v-43l-264 -398q64 2 152 2h117v-58zM351 705l-130 -127l-128 126l31 33l98 -88l99 88z" />
    <glyph glyph-name="longs" unicode="&#x17f;" horiz-adv-x="257" 
d="M316 731l-6 -53q-20 5 -49 5q-55 0 -78.5 -36.5t-23.5 -115.5v-531h-63v529q0 103 44.5 154.5t127.5 51.5q26 0 48 -4z" />
    <glyph glyph-name="uni018F" unicode="&#x18f;" horiz-adv-x="601" 
d="M42 372h441q-8 127 -68 191.5t-160 64.5q-90 0 -176 -38l-14 52q93 40 201 40q134 0 210.5 -88t76.5 -256q0 -161 -72.5 -253.5t-198.5 -92.5t-185 80t-59 221q0 3 4 79zM484 320h-377v-24q0 -248 180 -248q97 0 146.5 73.5t50.5 198.5z" />
    <glyph glyph-name="florin" unicode="&#x192;" horiz-adv-x="433" 
d="M385 353h-179l-28 -264q-15 -135 -55.5 -191t-134.5 -56q-37 0 -72 9l12 56q43 -13 74 -13q54 0 77 36t34 141l29 282h-127v49h133l15 147q10 89 55 138.5t127 49.5q36 0 70 -6l-9 -53q-35 8 -75 8q-90 0 -103 -127l-16 -157h173v-49z" />
    <glyph glyph-name="Ohorn" unicode="&#x1a0;" horiz-adv-x="737" 
d="M645 707h57q21 -56 13.5 -97.5t-29 -66t-54.5 -36.5q27 -71 27 -162q0 -165 -90 -259t-224 -94q-143 0 -220 91t-77 247q0 165 90 259t224 94q176 0 250 -135q78 35 33 159zM592 332q0 135 -61.5 216t-177.5 81q-103 0 -170.5 -75.5t-67.5 -209.5q0 -136 61.5 -217
t176.5 -81q103 0 171 75.5t68 210.5z" />
    <glyph glyph-name="ohorn" unicode="&#x1a1;" horiz-adv-x="578" 
d="M489 529h57q50 -141 -64 -177q13 -50 13 -99q0 -114 -61 -187.5t-172 -73.5q-101 0 -159 63.5t-58 188.5q0 114 61 187.5t172 73.5q137 0 190 -111q62 21 21 135zM430 249q0 97 -42 151t-117 54q-74 0 -117.5 -53t-43.5 -153q0 -97 42 -150.5t117 -53.5q72 0 116.5 51.5
t44.5 153.5z" />
    <glyph glyph-name="Uhorn" unicode="&#x1af;" horiz-adv-x="758" 
d="M681 707h57q25 -104 -16 -158.5t-117 -55.5v-238q0 -129 -66 -196t-197 -67q-60 0 -105 13.5t-71.5 34.5t-42.5 52.5t-21.5 62t-5.5 67.5v453h64v-446q0 -41 8 -72t28 -57.5t58 -41t94 -14.5q100 0 147 47t47 158v426h63v-137q112 2 76 169z" />
    <glyph glyph-name="uhorn" unicode="&#x1b0;" horiz-adv-x="625" 
d="M483 0h-64q0 69 9 116l-2 1q-21 -58 -68 -91.5t-112 -33.5q-150 0 -150 159v346h63v-322q0 -66 22.5 -99t78.5 -33q70 0 115 61t45 156v237h63v-126q45 2 62.5 37.5t-1.5 120.5h50q27 -93 -8 -144.5t-103 -52.5v-332z" />
    <glyph glyph-name="uni01CD" unicode="&#x1cd;" horiz-adv-x="608" 
d="M592 0h-74l-61 173h-311l-62 -173h-68l253 675h72zM439 224l-107 293l-30 91h-1q-15 -47 -30 -89l-107 -295h275zM458 812l-155 -82l-153 81l22 41l132 -64l134 64z" />
    <glyph glyph-name="uni01CE" unicode="&#x1ce;" horiz-adv-x="519" 
d="M424 0h-64q0 74 6 109l-2 1q-19 -51 -66 -84.5t-110 -33.5q-59 0 -97 35t-38 94q0 76 79.5 122t226.5 46v33q0 68 -26 100t-91 32q-70 0 -151 -35l-12 51q89 35 170 35q92 0 132.5 -44.5t40.5 -128.5v-178q0 -64 2 -154zM359 226v15q-130 0 -186 -31t-56 -79
q0 -38 24 -62.5t63 -24.5q67 0 111 56t44 126zM384 705l-130 -127l-128 126l31 33l98 -88l99 88z" />
    <glyph glyph-name="uni01CF" unicode="&#x1cf;" horiz-adv-x="256" 
d="M160 0h-64v675h64v-675zM283 812l-155 -82l-153 81l22 41l132 -64l134 64z" />
    <glyph glyph-name="uni01D0" unicode="&#x1d0;" horiz-adv-x="255" 
d="M159 0h-63v497h63v-497zM257 705l-130 -127l-128 126l31 33l98 -88l99 88z" />
    <glyph glyph-name="uni01D1" unicode="&#x1d1;" horiz-adv-x="707" 
d="M659 345q0 -165 -90 -259t-224 -94q-141 0 -219 91.5t-78 246.5q0 165 90 259t224 94q141 0 219 -91.5t78 -246.5zM592 332q0 135 -61.5 216t-177.5 81q-103 0 -170.5 -75.5t-67.5 -209.5q0 -136 61.5 -217t176.5 -81q103 0 171 75.5t68 210.5zM508 812l-155 -82l-153 81
l22 41l132 -64l134 64z" />
    <glyph glyph-name="uni01D2" unicode="&#x1d2;" horiz-adv-x="540" 
d="M495 253q0 -114 -61 -187.5t-172 -73.5q-101 0 -159 63.5t-58 188.5q0 114 61 187.5t172 73.5q101 0 159 -63.5t58 -188.5zM430 249q0 97 -42 151t-117 54q-74 0 -117.5 -53t-43.5 -153q0 -97 42 -150.5t117 -53.5q72 0 116.5 51.5t44.5 153.5zM399 705l-130 -127
l-128 126l31 33l98 -88l99 88z" />
    <glyph glyph-name="uni01D3" unicode="&#x1d3;" horiz-adv-x="701" 
d="M605 675v-420q0 -129 -66 -196t-197 -67q-60 0 -105 13.5t-71.5 34.5t-42.5 52.5t-21.5 62t-5.5 67.5v453h64v-446q0 -41 8 -72t28 -57.5t58 -41t94 -14.5q100 0 147 47t47 158v426h63zM505 812l-155 -82l-153 81l22 41l132 -64l134 64z" />
    <glyph glyph-name="uni01D4" unicode="&#x1d4;" horiz-adv-x="579" 
d="M483 0h-64q0 69 9 116l-2 1q-21 -58 -68 -91.5t-112 -33.5q-150 0 -150 159v346h63v-322q0 -66 22.5 -99t78.5 -33q70 0 115 61t45 156v237h63v-497zM418 705l-130 -127l-128 126l31 33l98 -88l99 88z" />
    <glyph glyph-name="uni01D5" unicode="&#x1d5;" horiz-adv-x="701" 
d="M605 675v-420q0 -129 -66 -196t-197 -67q-60 0 -105 13.5t-71.5 34.5t-42.5 52.5t-21.5 62t-5.5 67.5v453h64v-446q0 -41 8 -72t28 -57.5t58 -41t94 -14.5q100 0 147 47t47 158v426h63zM503 775q0 -17 -12 -29t-29 -12t-28.5 12t-11.5 29t12 28.5t28 11.5q17 0 29 -11.5
t12 -28.5zM279 775q0 -17 -11.5 -29t-28.5 -12t-29 12t-12 29t12 28.5t29 11.5t28.5 -11.5t11.5 -28.5zM481 876h-261v46h261v-46z" />
    <glyph glyph-name="uni01D6" unicode="&#x1d6;" horiz-adv-x="579" 
d="M483 0h-64q0 69 9 116l-2 1q-21 -58 -68 -91.5t-112 -33.5q-150 0 -150 159v346h63v-322q0 -66 22.5 -99t78.5 -33q70 0 115 61t45 156v237h63v-497zM239 618q0 -18 -12.5 -30t-29.5 -12q-18 0 -30.5 12t-12.5 30t12.5 30t30.5 12q17 0 29.5 -12t12.5 -30zM424 618
q0 -18 -12.5 -30t-30.5 -12q-17 0 -29.5 12t-12.5 30t12.5 30t29.5 12q18 0 30.5 -12t12.5 -30zM409 719h-240v48h240v-48z" />
    <glyph glyph-name="uni01D7" unicode="&#x1d7;" horiz-adv-x="701" 
d="M605 675v-420q0 -129 -66 -196t-197 -67q-60 0 -105 13.5t-71.5 34.5t-42.5 52.5t-21.5 62t-5.5 67.5v453h64v-446q0 -41 8 -72t28 -57.5t58 -41t94 -14.5q100 0 147 47t47 158v426h63zM502 917l-168 -58l-15 37l160 73zM503 775q0 -17 -12 -29t-29 -12t-28.5 12
t-11.5 29t12 28.5t28 11.5q17 0 29 -11.5t12 -28.5zM279 775q0 -17 -11.5 -29t-28.5 -12t-29 12t-12 29t12 28.5t29 11.5t28.5 -11.5t11.5 -28.5z" />
    <glyph glyph-name="uni01D8" unicode="&#x1d8;" horiz-adv-x="579" 
d="M483 0h-64q0 69 9 116l-2 1q-21 -58 -68 -91.5t-112 -33.5q-150 0 -150 159v346h63v-322q0 -66 22.5 -99t78.5 -33q70 0 115 61t45 156v237h63v-497zM239 618q0 -18 -12.5 -30t-29.5 -12q-18 0 -30.5 12t-12.5 30t12.5 30t30.5 12q17 0 29.5 -12t12.5 -30zM424 618
q0 -18 -12.5 -30t-30.5 -12q-17 0 -29.5 12t-12.5 30t12.5 30t29.5 12q18 0 30.5 -12t12.5 -30zM416 796l-129 -98l-29 34l121 108z" />
    <glyph glyph-name="uni01D9" unicode="&#x1d9;" horiz-adv-x="701" 
d="M605 675v-420q0 -129 -66 -196t-197 -67q-60 0 -105 13.5t-71.5 34.5t-42.5 52.5t-21.5 62t-5.5 67.5v453h64v-446q0 -41 8 -72t28 -57.5t58 -41t94 -14.5q100 0 147 47t47 158v426h63zM200 929l21 40l132 -64l129 64l20 -38l-151 -82zM503 775q0 -17 -12 -29t-29 -12
t-28.5 12t-11.5 29t12 28.5t28 11.5q17 0 29 -11.5t12 -28.5zM279 775q0 -17 -11.5 -29t-28.5 -12t-29 12t-12 29t12 28.5t29 11.5t28.5 -11.5t11.5 -28.5z" />
    <glyph glyph-name="uni01DA" unicode="&#x1da;" horiz-adv-x="579" 
d="M483 0h-64q0 69 9 116l-2 1q-21 -58 -68 -91.5t-112 -33.5q-150 0 -150 159v346h63v-322q0 -66 22.5 -99t78.5 -33q70 0 115 61t45 156v237h63v-497zM239 618q0 -18 -12.5 -30t-29.5 -12q-18 0 -30.5 12t-12.5 30t12.5 30t30.5 12q17 0 29.5 -12t12.5 -30zM424 618
q0 -18 -12.5 -30t-30.5 -12q-17 0 -29.5 12t-12.5 30t12.5 30t29.5 12q18 0 30.5 -12t12.5 -30zM166 810l26 30l98 -75l98 75l24 -29l-124 -111z" />
    <glyph glyph-name="uni01DB" unicode="&#x1db;" horiz-adv-x="701" 
d="M605 675v-420q0 -129 -66 -196t-197 -67q-60 0 -105 13.5t-71.5 34.5t-42.5 52.5t-21.5 62t-5.5 67.5v453h64v-446q0 -41 8 -72t28 -57.5t58 -41t94 -14.5q100 0 147 47t47 158v426h63zM382 896l-15 -37l-168 58l23 52zM503 775q0 -17 -12 -29t-29 -12t-28.5 12t-11.5 29
t12 28.5t28 11.5q17 0 29 -11.5t12 -28.5zM279 775q0 -17 -11.5 -29t-28.5 -12t-29 12t-12 29t12 28.5t29 11.5t28.5 -11.5t11.5 -28.5z" />
    <glyph glyph-name="uni01DC" unicode="&#x1dc;" horiz-adv-x="579" 
d="M483 0h-64q0 69 9 116l-2 1q-21 -58 -68 -91.5t-112 -33.5q-150 0 -150 159v346h63v-322q0 -66 22.5 -99t78.5 -33q70 0 115 61t45 156v237h63v-497zM424 618q0 -18 -12.5 -30t-30.5 -12q-17 0 -29.5 12t-12.5 30t12.5 30t29.5 12q18 0 30.5 -12t12.5 -30zM239 618
q0 -18 -12.5 -30t-29.5 -12q-18 0 -30.5 12t-12.5 30t12.5 30t30.5 12q17 0 29.5 -12t12.5 -30zM320 732l-29 -34l-129 98l37 44z" />
    <glyph glyph-name="Gcaron" unicode="&#x1e6;" horiz-adv-x="687" 
d="M597 337v-308q-101 -37 -217 -37q-155 0 -243.5 88t-88.5 245q0 159 91.5 258.5t262.5 99.5q91 0 184 -29l-15 -58q-84 34 -178 34q-72 0 -126.5 -24.5t-86.5 -66.5t-48 -93t-16 -110q0 -139 73 -214.5t201 -75.5q74 0 143 22v269h64zM525 812l-155 -82l-153 81l22 41
l132 -64l134 64z" />
    <glyph glyph-name="gcaron" unicode="&#x1e7;" horiz-adv-x="530" 
d="M492 447h-88q41 -46 41 -111q0 -80 -51.5 -131.5t-144.5 -51.5q-32 0 -62 8q-37 -22 -37 -49q0 -40 82 -43l86 -3q91 -3 136 -41t45 -104q0 -81 -68.5 -130.5t-181.5 -49.5q-97 0 -152 39t-55 109q0 84 88 142q-44 23 -44 70t52 81q-73 47 -73 140q0 79 52 131t144 52
q32 0 64 -8h167v-50zM214 12q-11 0 -29 2q-77 -47 -77 -115q0 -52 40.5 -79.5t110.5 -27.5q84 0 129.5 33.5t45.5 87.5q0 92 -133 96zM382 329q0 56 -34 91.5t-93 35.5t-93 -35.5t-34 -91.5t34 -91.5t93 -35.5t93 35.5t34 91.5zM397 705l-130 -127l-128 126l31 33l98 -88
l99 88z" />
    <glyph glyph-name="Aringacute" unicode="&#x1fa;" horiz-adv-x="608" 
d="M592 0h-74l-61 173h-311l-62 -173h-68l253 675h72zM439 224l-107 293l-30 91h-1q-15 -47 -30 -89l-107 -295h275zM432 932l-167 -47l-13 35l161 60zM411 786q0 -37 -29.5 -63.5t-78.5 -26.5q-46 0 -73 22t-27 64q0 38 29.5 64t78.5 26q46 0 73 -22t27 -64zM361 784
q0 49 -54 49q-22 0 -38 -12.5t-16 -36.5q0 -23 14.5 -35.5t39.5 -12.5q23 0 38.5 12t15.5 36z" />
    <glyph glyph-name="aringacute" unicode="&#x1fb;" horiz-adv-x="519" 
d="M424 0h-64q0 74 6 109l-2 1q-19 -51 -66 -84.5t-110 -33.5q-59 0 -97 35t-38 94q0 76 79.5 122t226.5 46v33q0 68 -26 100t-91 32q-70 0 -151 -35l-12 51q89 35 170 35q92 0 132.5 -44.5t40.5 -128.5v-178q0 -64 2 -154zM359 226v15q-130 0 -186 -31t-56 -79
q0 -38 24 -62.5t63 -24.5q67 0 111 56t44 126zM386 839l-171 -58l-15 38l163 72zM359 648q0 -43 -29 -72t-78 -29q-47 0 -73.5 24.5t-26.5 72.5q0 43 29.5 72t78.5 29q47 0 73 -24.5t26 -72.5zM308 646q0 28 -13.5 43.5t-38.5 15.5q-22 0 -37.5 -15t-15.5 -44q0 -59 53 -59
q21 0 36.5 15t15.5 44z" />
    <glyph glyph-name="AEacute" unicode="&#x1fc;" horiz-adv-x="774" 
d="M699 0h-334v173h-247l-95 -173h-69l376 675h363v-52h-264v-249h247v-51h-247v-270h270v-53zM365 225v398h-6q-22 -49 -69 -136l-146 -262h221zM622 790l-172 -58l-15 38l164 74z" />
    <glyph glyph-name="aeacute" unicode="&#x1fd;" horiz-adv-x="811" 
d="M735 72l10 -50q-87 -30 -164 -30q-162 0 -200 122h-1q-22 -50 -73.5 -86t-118.5 -36q-59 0 -97 35t-38 94q0 76 79.5 122t226.5 46v33q0 68 -26 100t-91 32q-70 0 -151 -35l-12 51q89 35 170 35q124 0 154 -88h1q24 39 67.5 63.5t98.5 24.5q95 0 142.5 -56.5t47.5 -142.5
l-1 -44h-338q-7 -217 169 -217q70 0 145 27zM424 310h269q1 67 -33 106t-95 39q-56 0 -93.5 -38t-47.5 -107zM359 226v15q-130 0 -186 -31t-56 -79q0 -38 24 -62.5t63 -24.5q67 0 111 56t44 126zM544 704l-125 -128l-35 31l116 136z" />
    <glyph glyph-name="Oslashacute" unicode="&#x1fe;" horiz-adv-x="707" 
d="M592 741l-56 -108q123 -85 123 -288q0 -165 -90 -259t-224 -94q-74 0 -128 25l-54 -106l-48 23l56 108q-123 85 -123 288q0 165 90 259t224 94q72 0 128 -25l54 106zM506 575l-261 -504q47 -25 108 -25q104 0 172 75.5t68 210.5q0 167 -87 243zM201 100l261 504
q-47 25 -109 25q-103 0 -171 -75.5t-68 -209.5q0 -168 87 -244zM481 830l-172 -58l-15 38l164 74z" />
    <glyph glyph-name="oslashacute" unicode="&#x1ff;" horiz-adv-x="540" 
d="M463 561l-51 -96q83 -65 83 -212q0 -114 -61 -187.5t-172 -73.5q-54 0 -91 17l-49 -94l-45 21l51 96q-83 65 -83 212q0 114 61 187.5t172 73.5q54 0 91 -17l49 94zM383 409l-186 -351q36 -16 72 -16q75 0 119 53.5t44 153.5q0 106 -49 160zM157 88l186 351q-36 16 -72 16
q-75 0 -119 -53.5t-44 -153.5q0 -106 49 -160zM377 704l-125 -128l-35 31l116 136z" />
    <glyph glyph-name="Scommaaccent" unicode="&#x218;" horiz-adv-x="504" 
d="M402 670l-8 -58q-59 18 -117 18q-75 0 -114.5 -31t-39.5 -87q0 -45 33.5 -76t80.5 -49.5t94.5 -40t81 -62t33.5 -100.5q0 -85 -62.5 -138.5t-176.5 -53.5q-81 0 -148 19l11 62q73 -26 142 -26q77 0 122.5 32t45.5 98q0 40 -24 68.5t-59.5 44.5t-77.5 35t-77.5 38
t-59.5 56t-24 87q0 79 59.5 128t163.5 49q63 0 121 -13zM200 -239l-24 25q43 40 43 76q0 13 -7.5 25.5t-7.5 22.5q0 16 11 28t29 12q19 0 31.5 -15t12.5 -37q0 -62 -88 -137z" />
    <glyph glyph-name="scommaaccent" unicode="&#x219;" horiz-adv-x="431" 
d="M343 496l-7 -56q-52 15 -102 15q-55 0 -84 -21.5t-29 -59.5q0 -34 26 -55t63.5 -32.5t75 -25t63.5 -44.5t26 -80q0 -62 -52.5 -103.5t-144.5 -41.5q-64 0 -120 14l7 60q56 -21 121 -21q59 0 91.5 23t32.5 64q0 35 -26 56t-63 32t-74.5 25t-63.5 44.5t-26 79.5
q0 59 49 97.5t137 38.5q44 0 100 -9zM169 -239l-24 25q43 40 43 76q0 13 -7.5 25.5t-7.5 22.5q0 16 11 28t29 12q19 0 31.5 -15t12.5 -37q0 -62 -88 -137z" />
    <glyph glyph-name="Tcommaaccent" unicode="&#x21a;" horiz-adv-x="520" 
d="M501 622h-209v-622h-64v622h-209v53h482v-53zM218 -239l-24 25q43 40 43 76q0 13 -7.5 25.5t-7.5 22.5q0 16 11 28t29 12q19 0 31.5 -15t12.5 -37q0 -62 -88 -137z" />
    <glyph glyph-name="tcommaaccent" unicode="&#x21b;" horiz-adv-x="369" 
d="M328 56l7 -53q-45 -10 -92 -10q-70 0 -98 33.5t-28 111.5v309h-111v50h111v168l63 17v-185h151v-50h-151v-289q0 -64 16 -87t61 -23q41 0 71 8zM170 -239l-24 25q43 40 43 76q0 13 -7.5 25.5t-7.5 22.5q0 16 11 28t29 12q19 0 31.5 -15t12.5 -37q0 -62 -88 -137z" />
    <glyph glyph-name="dotlessj" unicode="&#x237;" horiz-adv-x="263" 
d="M167 497v-565q0 -100 -34.5 -145t-114.5 -45q-18 0 -36.5 2t-27.5 4l-10 2l7 57q32 -11 73 -11q46 0 63 27.5t17 104.5v569h63z" />
    <glyph glyph-name="uni0259" unicode="&#x259;" horiz-adv-x="497" 
d="M49 280h336q-12 175 -171 175q-76 0 -139 -29l-14 49q74 30 162 30q229 0 229 -255q0 -119 -57.5 -188.5t-159.5 -69.5q-96 0 -142.5 60.5t-46.5 165.5q0 32 3 62zM386 232h-274q-1 -10 -1 -20q0 -85 34.5 -126.5t97.5 -41.5q68 0 105.5 52t37.5 136z" />
    <glyph glyph-name="bullseye" unicode="&#x298;" horiz-adv-x="437" 
d="M336 290q0 -52 -36.5 -88.5t-89.5 -36.5q-52 0 -88 36t-36 89q0 52 36.5 88t89.5 36q52 0 88 -36t36 -88zM281 290q0 28 -20.5 49t-49.5 21t-49.5 -20.5t-20.5 -49.5t20.5 -50t49.5 -21t49.5 21t20.5 50z" />
    <glyph glyph-name="apostrophe" unicode="&#x2bc;" horiz-adv-x="68" 
d="M50 516l-28 24q79 87 44 135q-15 21 -4 43t35 22q30 0 42.5 -29t-8.5 -83t-81 -112z" />
    <glyph glyph-name="circumflex" unicode="&#x2c6;" horiz-adv-x="448" 
d="M353 610l-31 -32l-98 87l-99 -87l-30 31l130 128z" />
    <glyph glyph-name="caron" unicode="&#x2c7;" horiz-adv-x="448" 
d="M353 705l-130 -127l-128 126l31 33l98 -88l99 88z" />
    <glyph glyph-name="breve" unicode="&#x2d8;" horiz-adv-x="424" 
d="M282 716h47q0 -52 -30.5 -86.5t-88.5 -34.5q-57 0 -86 34.5t-29 86.5h46q0 -30 18.5 -51t51.5 -21t52 19t19 53z" />
    <glyph glyph-name="dotaccent" unicode="&#x2d9;" horiz-adv-x="280" 
d="M185 658q0 -18 -13 -31.5t-32 -13.5q-18 0 -31.5 13t-13.5 32t13.5 32t31.5 13q19 0 32 -13t13 -32z" />
    <glyph glyph-name="ring" unicode="&#x2da;" horiz-adv-x="401" 
d="M305 658q0 -44 -29.5 -74t-79.5 -30q-48 0 -74.5 25t-26.5 74q0 44 30 73.5t80 29.5q47 0 73.5 -25t26.5 -73zM253 655q0 59 -53 59q-22 0 -37.5 -15t-15.5 -44q0 -28 14 -43.5t39 -15.5q22 0 37.5 15t15.5 44z" />
    <glyph glyph-name="ogonek" unicode="&#x2db;" horiz-adv-x="386" 
d="M190 6l64 -6q-96 -71 -96 -138q0 -43 43 -43q31 0 67 27l23 -38q-45 -40 -100 -40q-46 0 -71 22.5t-25 60.5q0 82 95 155z" />
    <glyph glyph-name="tilde" unicode="&#x2dc;" horiz-adv-x="518" 
d="M389 701l34 -27q-38 -69 -101 -69q-34 0 -72.5 28.5t-58.5 28.5q-35 0 -62 -48l-34 27q38 69 101 69q34 0 72 -28.5t58 -28.5q36 0 63 48z" />
    <glyph glyph-name="hungarumlaut" unicode="&#x2dd;" horiz-adv-x="513" 
d="M418 695l-127 -117l-34 30l118 126zM249 701l-120 -123l-34 30l110 130z" />
    <glyph glyph-name="gravecomb" unicode="&#x300;" horiz-adv-x="0" 
d="M-260 607l-35 -31l-125 128l44 39z" />
    <glyph glyph-name="acutecomb" unicode="&#x301;" horiz-adv-x="0" 
d="M-157 704l-125 -128l-35 31l116 136z" />
    <glyph glyph-name="tildecomb" unicode="&#x303;" horiz-adv-x="0" 
d="M-159 701l34 -27q-38 -69 -101 -69q-34 0 -72.5 28.5t-58.5 28.5q-35 0 -62 -48l-34 27q38 69 101 69q34 0 72 -28.5t58 -28.5q36 0 63 48z" />
    <glyph glyph-name="uni0307" unicode="&#x307;" horiz-adv-x="0" 
d="M-245 658q0 -18 -13 -31.5t-32 -13.5q-18 0 -31.5 13t-13.5 32t13.5 32t31.5 13q19 0 32 -13t13 -32z" />
    <glyph glyph-name="uni0309" unicode="&#x309;" horiz-adv-x="0" 
d="M-296 561l-10 38q10 3 22 9t25 19t13 28q0 38 -58 38q-43 0 -75 -16l-11 40q49 21 101 21q46 0 72.5 -19t26.5 -53q0 -30 -22 -54.5t-43 -34.5t-41 -16z" />
    <glyph glyph-name="uni0312" unicode="&#x312;" horiz-adv-x="0" 
d="M-245 757l24 -24q-44 -41 -44 -77q0 -12 7.5 -25t7.5 -24q0 -16 -11.5 -27t-27.5 -11q-18 0 -31 14t-13 38q0 63 88 136z" />
    <glyph glyph-name="uni0315" unicode="&#x315;" horiz-adv-x="13" 
d="M67 733l-70 -160l-44 15l58 164z" />
    <glyph glyph-name="dotbelowcomb" unicode="&#x323;" horiz-adv-x="0" 
d="M-245 -161q0 -19 -13 -32t-31 -13q-19 0 -32 13t-13 32t13 32t32 13q18 0 31 -13.5t13 -31.5z" />
    <glyph glyph-name="uni0326" unicode="&#x326;" horiz-adv-x="0" 
d="M-330 -239l-24 25q43 40 43 76q0 13 -7.5 25.5t-7.5 22.5q0 16 11 28t29 12q19 0 31.5 -15t12.5 -37q0 -62 -88 -137z" />
    <glyph glyph-name="uni0327" unicode="&#x327;" horiz-adv-x="0" 
d="M-333 -68l57 27q24 -31 28.5 -63.5t-8.5 -64t-42 -67.5h-57q29 37 41 63t8 51.5t-27 53.5z" />
    <glyph glyph-name="uni037E" unicode="&#x37e;" horiz-adv-x="278" 
d="M204 340q0 -20 -14 -34t-34 -14t-34 14t-14 34t14 34t34 14t34 -14t14 -34zM107 -141l-29 25q29 31 42 59.5t12.5 46.5t-9.5 31q-16 22 -5 44.5t37 22.5q31 0 44 -29.5t-9 -85t-83 -114.5z" />
    <glyph glyph-name="Delta" unicode="&#x394;" horiz-adv-x="603" 
d="M573 0h-543v45l233 630h77l233 -630v-45zM496 56l-181 508q-6 18 -16 56h-1q-5 -21 -17 -59l-181 -505h396z" />
    <glyph glyph-name="Omega" unicode="&#x3a9;" horiz-adv-x="724" 
d="M677 0h-229v55q75 61 112.5 126t37.5 161q0 127 -61.5 207t-174.5 80q-100 0 -167.5 -77t-67.5 -205q0 -97 34 -162.5t116 -129.5v-55h-230v56h156q-145 105 -145 285q0 159 89 250.5t223 91.5q132 0 214 -86t82 -247q0 -180 -150 -294h161v-56z" />
    <glyph glyph-name="mu" unicode="&#x3bc;" horiz-adv-x="589" 
d="M546 47v-52q-12 -1 -29 -1q-100 0 -89 122h-1q-21 -57 -67.5 -90.5t-109.5 -33.5q-70 0 -97 42l8 -285h-65v748h63v-332q0 -122 101 -122q71 0 115.5 61t44.5 156v237h63v-330q0 -76 12.5 -98t50.5 -22z" />
    <glyph glyph-name="pi" unicode="&#x3c0;" horiz-adv-x="635" 
d="M592 54l10 -52q-27 -8 -65 -8q-50 0 -76.5 31t-41.5 107q-19 101 -19 313h-191q3 -237 -66 -447l-73 4q81 229 77 443h-133v52h584v-52h-135q0 -200 20 -302q10 -54 23.5 -75t36.5 -21q25 0 49 7z" />
    <glyph glyph-name="uni1E02" unicode="&#x1e02;" horiz-adv-x="563" 
d="M96 0v675q84 3 168 3q111 0 164.5 -43.5t53.5 -118.5q0 -56 -32.5 -99t-89.5 -61v-1q68 -11 107 -52t39 -108q0 -33 -12.5 -65t-39.5 -63.5t-80 -50.5t-125 -19q-22 0 -47.5 0.5t-57 1.5t-48.5 1zM160 624v-250q22 -1 77 -1q87 0 132.5 34t45.5 98q0 122 -160 122
q-2 0 -95 -3zM160 323v-268q40 -6 97 -6q91 0 136.5 39t45.5 101q0 68 -49 101.5t-157 33.5q-55 0 -73 -1zM310 779q0 -18 -13 -31.5t-32 -13.5q-18 0 -31.5 13t-13.5 32t13.5 32t31.5 13q19 0 32 -13t13 -32z" />
    <glyph glyph-name="uni1E03" unicode="&#x1e03;" horiz-adv-x="558" 
d="M159 730v-261q0 -53 -9 -90l2 -1q21 60 67.5 93.5t106.5 33.5q89 0 136.5 -59.5t47.5 -174.5q0 -133 -68.5 -205t-184.5 -72q-39 0 -79 4.5t-61 9.5l-21 4v718h63zM159 240v-181q46 -15 104 -15q85 0 133 54t48 167q0 189 -128 189q-50 0 -87.5 -36t-53.5 -83t-16 -95z
M173 849q0 -18 -13 -31.5t-32 -13.5q-18 0 -31.5 13t-13.5 32t13.5 32t31.5 13q19 0 32 -13t13 -32z" />
    <glyph glyph-name="uni1E0A" unicode="&#x1e0a;" horiz-adv-x="686" 
d="M96 0v675q24 0 89 1.5t100 1.5q169 0 259 -83.5t90 -251.5q0 -169 -104 -257.5t-276 -88.5q-33 0 -84.5 2t-73.5 1zM160 623v-566q52 -7 103 -7q141 0 222.5 72t81.5 217q0 287 -290 287q-30 0 -117 -3zM350 779q0 -18 -13 -31.5t-32 -13.5q-18 0 -31.5 13t-13.5 32
t13.5 32t31.5 13q19 0 32 -13t13 -32z" />
    <glyph glyph-name="uni1E0B" unicode="&#x1e0b;" horiz-adv-x="558" 
d="M462 0h-64q0 67 9 114l-2 1q-21 -57 -67 -90t-106 -33q-91 0 -137.5 61.5t-46.5 172.5q0 133 68.5 205t184.5 72q44 0 98 -6v233h63v-730zM399 257v183q-52 13 -104 13q-85 0 -132.5 -54t-47.5 -167q0 -189 127 -189q50 0 87.5 36t53.5 83t16 95zM475 849
q0 -18 -13 -31.5t-32 -13.5q-18 0 -31.5 13t-13.5 32t13.5 32t31.5 13q19 0 32 -13t13 -32z" />
    <glyph glyph-name="uni1E1E" unicode="&#x1e1e;" horiz-adv-x="472" 
d="M433 623h-273v-251h254v-51h-254v-321h-64v675h337v-52zM315 779q0 -18 -13 -31.5t-32 -13.5q-18 0 -31.5 13t-13.5 32t13.5 32t31.5 13q19 0 32 -13t13 -32z" />
    <glyph glyph-name="uni1E1F" unicode="&#x1e1f;" horiz-adv-x="346" 
d="M336 497v-50h-153v-447h-63v447h-114v50h114v32q0 103 48.5 154.5t137.5 51.5q18 0 38 -2.5t32 -4.5l11 -2l-6 -54q-41 11 -82 11q-60 0 -88 -36.5t-28 -114.5v-35h153zM302 849q0 -18 -13 -31.5t-32 -13.5q-18 0 -31.5 13t-13.5 32t13.5 32t31.5 13q19 0 32 -13t13 -32z
" />
    <glyph glyph-name="uni1E40" unicode="&#x1e40;" horiz-adv-x="892" 
d="M834 0h-67l-62 439q-18 123 -21 178h-2q-7 -26 -36 -112l-179 -505h-58l-169 476q-38 108 -47 141h-1q-3 -60 -17 -184l-51 -433h-66l91 675h88l171 -481q21 -52 33 -108h1q13 59 31 108l172 481h93zM489 779q0 -18 -13 -31.5t-32 -13.5q-18 0 -31.5 13t-13.5 32t13.5 32
t31.5 13q19 0 32 -13t13 -32z" />
    <glyph glyph-name="uni1E41" unicode="&#x1e41;" horiz-adv-x="888" 
d="M792 0h-63v322q0 65 -21 98.5t-75 33.5q-65 0 -111.5 -60t-46.5 -159v-235h-63v323q0 62 -20 96.5t-76 34.5q-66 0 -111.5 -62t-45.5 -157v-235h-63v497h64q0 -68 -9 -116l2 -1q21 58 68.5 91.5t109.5 33.5q41 0 71 -13.5t43.5 -35t19 -39.5t5.5 -35q17 46 61 84.5
t114 38.5q147 0 147 -160v-345zM488 659q0 -18 -13 -31.5t-32 -13.5q-18 0 -31.5 13t-13.5 32t13.5 32t31.5 13q19 0 32 -13t13 -32z" />
    <glyph glyph-name="uni1E56" unicode="&#x1e56;" horiz-adv-x="548" 
d="M160 0h-64v675q95 3 165 3q124 0 186 -58.5t62 -146.5q0 -102 -73 -167t-192 -65l-84 4v-245zM160 624v-324q47 -6 91 -6q93 0 142.5 47.5t49.5 120.5q0 75 -48.5 119.5t-146.5 44.5zM309 779q0 -18 -13 -31.5t-32 -13.5q-18 0 -31.5 13t-13.5 32t13.5 32t31.5 13
q19 0 32 -13t13 -32z" />
    <glyph glyph-name="uni1E57" unicode="&#x1e57;" horiz-adv-x="558" 
d="M159 -251h-63v748h64q0 -75 -9 -114l2 -1q21 57 67 90t106 33q89 0 136.5 -59.5t47.5 -174.5q0 -133 -68 -204.5t-184 -71.5q-56 0 -99 6v-252zM159 240v-181q42 -15 104 -15q85 0 133 54t48 167q0 189 -128 189q-50 0 -87.5 -36t-53.5 -83t-16 -95zM354 659
q0 -18 -13 -31.5t-32 -13.5q-18 0 -31.5 13t-13.5 32t13.5 32t31.5 13q19 0 32 -13t13 -32z" />
    <glyph glyph-name="uni1E60" unicode="&#x1e60;" horiz-adv-x="504" 
d="M402 670l-8 -58q-59 18 -117 18q-75 0 -114.5 -31t-39.5 -87q0 -45 33.5 -76t80.5 -49.5t94.5 -40t81 -62t33.5 -100.5q0 -85 -62.5 -138.5t-176.5 -53.5q-81 0 -148 19l11 62q73 -26 142 -26q77 0 122.5 32t45.5 98q0 40 -24 68.5t-59.5 44.5t-77.5 35t-77.5 38
t-59.5 56t-24 87q0 79 59.5 128t163.5 49q63 0 121 -13zM297 780q0 -18 -13 -31.5t-32 -13.5q-18 0 -31.5 13t-13.5 32t13.5 32t31.5 13q19 0 32 -13t13 -32z" />
    <glyph glyph-name="uni1E61" unicode="&#x1e61;" horiz-adv-x="431" 
d="M343 496l-7 -56q-52 15 -102 15q-55 0 -84 -21.5t-29 -59.5q0 -34 26 -55t63.5 -32.5t75 -25t63.5 -44.5t26 -80q0 -62 -52.5 -103.5t-144.5 -41.5q-64 0 -120 14l7 60q56 -21 121 -21q59 0 91.5 23t32.5 64q0 35 -26 56t-63 32t-74.5 25t-63.5 44.5t-26 79.5
q0 59 49 97.5t137 38.5q44 0 100 -9zM260 659q0 -18 -13 -31.5t-32 -13.5q-18 0 -31.5 13t-13.5 32t13.5 32t31.5 13q19 0 32 -13t13 -32z" />
    <glyph glyph-name="uni1E6A" unicode="&#x1e6a;" horiz-adv-x="520" 
d="M501 622h-209v-622h-64v622h-209v53h482v-53zM305 779q0 -18 -13 -31.5t-32 -13.5q-18 0 -31.5 13t-13.5 32t13.5 32t31.5 13q19 0 32 -13t13 -32z" />
    <glyph glyph-name="uni1E6B" unicode="&#x1e6b;" horiz-adv-x="369" 
d="M328 56l7 -53q-45 -10 -92 -10q-70 0 -98 33.5t-28 111.5v309h-111v50h111v168l63 17v-185h151v-50h-151v-289q0 -64 16 -87t61 -23q41 0 71 8zM193 779q0 -18 -13 -31.5t-32 -13.5q-18 0 -31.5 13t-13.5 32t13.5 32t31.5 13q19 0 32 -13t13 -32z" />
    <glyph glyph-name="Wgrave" unicode="&#x1e80;" horiz-adv-x="954" 
d="M912 675l-187 -675h-81l-146 497q-15 47 -22 90h-2q-10 -55 -20 -90l-142 -497h-83l-188 675h69l135 -487q19 -74 29 -129h1q14 75 29 124l141 492h65l148 -501q17 -56 28 -115h1q14 69 22 100l140 516h63zM526 770l-15 -38l-172 58l23 54z" />
    <glyph glyph-name="wgrave" unicode="&#x1e81;" horiz-adv-x="791" 
d="M770 497l-163 -497h-76l-117 345q-14 41 -27 91h-1q-9 -36 -37 -125l-97 -311h-77l-155 497h72l92 -322q7 -24 18.5 -63.5t14.5 -51.5h1q14 53 33 116l102 321h77l105 -321q29 -92 35 -117h1q1 3 34 116l97 322h68zM438 607l-35 -31l-125 128l44 39z" />
    <glyph glyph-name="Wacute" unicode="&#x1e82;" horiz-adv-x="954" 
d="M912 675l-187 -675h-81l-146 497q-15 47 -22 90h-2q-10 -55 -20 -90l-142 -497h-83l-188 675h69l135 -487q19 -74 29 -129h1q14 75 29 124l141 492h65l148 -501q17 -56 28 -115h1q14 69 22 100l140 516h63zM611 790l-172 -58l-15 38l164 74z" />
    <glyph glyph-name="wacute" unicode="&#x1e83;" horiz-adv-x="791" 
d="M770 497l-163 -497h-76l-117 345q-14 41 -27 91h-1q-9 -36 -37 -125l-97 -311h-77l-155 497h72l92 -322q7 -24 18.5 -63.5t14.5 -51.5h1q14 53 33 116l102 321h77l105 -321q29 -92 35 -117h1q1 3 34 116l97 322h68zM496 704l-125 -128l-35 31l116 136z" />
    <glyph glyph-name="Wdieresis" unicode="&#x1e84;" horiz-adv-x="954" 
d="M912 675l-187 -675h-81l-146 497q-15 47 -22 90h-2q-10 -55 -20 -90l-142 -497h-83l-188 675h69l135 -487q19 -74 29 -129h1q14 75 29 124l141 492h65l148 -501q17 -56 28 -115h1q14 69 22 100l140 516h63zM627 778q0 -19 -12.5 -31t-30.5 -12t-30.5 12t-12.5 31
q0 18 12.5 30.5t30.5 12.5t30.5 -12.5t12.5 -30.5zM414 778q0 -19 -12 -31t-31 -12q-18 0 -30.5 12t-12.5 31q0 18 12.5 30.5t30.5 12.5q19 0 31 -12.5t12 -30.5z" />
    <glyph glyph-name="wdieresis" unicode="&#x1e85;" horiz-adv-x="791" 
d="M770 497l-163 -497h-76l-117 345q-14 41 -27 91h-1q-9 -36 -37 -125l-97 -311h-77l-155 497h72l92 -322q7 -24 18.5 -63.5t14.5 -51.5h1q14 53 33 116l102 321h77l105 -321q29 -92 35 -117h1q1 3 34 116l97 322h68zM526 658q0 -18 -12.5 -30.5t-30.5 -12.5t-30.5 12.5
t-12.5 30.5q0 19 12.5 31t30.5 12t30.5 -12t12.5 -31zM341 658q0 -18 -12 -30.5t-31 -12.5q-18 0 -30.5 12.5t-12.5 30.5q0 19 12.5 31t30.5 12q19 0 31 -12t12 -31z" />
    <glyph glyph-name="uni1E9E" unicode="&#x1e9e;" horiz-adv-x="1008" 
d="M402 670l-8 -58q-59 18 -117 18q-75 0 -114.5 -31t-39.5 -87q0 -45 33.5 -76t80.5 -49.5t94.5 -40t81 -62t33.5 -100.5q0 -85 -62.5 -138.5t-176.5 -53.5q-81 0 -148 19l11 62q73 -26 142 -26q77 0 122.5 32t45.5 98q0 40 -24 68.5t-59.5 44.5t-77.5 35t-77.5 38
t-59.5 56t-24 87q0 79 59.5 128t163.5 49q63 0 121 -13zM906 670l-8 -58q-59 18 -117 18q-75 0 -114.5 -31t-39.5 -87q0 -45 33.5 -76t80.5 -49.5t94.5 -40t81 -62t33.5 -100.5q0 -85 -62.5 -138.5t-176.5 -53.5q-81 0 -148 19l11 62q73 -26 142 -26q77 0 122.5 32t45.5 98
q0 40 -24 68.5t-59.5 44.5t-77.5 35t-77.5 38t-59.5 56t-24 87q0 79 59.5 128t163.5 49q63 0 121 -13z" />
    <glyph glyph-name="uni1EA0" unicode="&#x1ea0;" horiz-adv-x="608" 
d="M592 0h-74l-61 173h-311l-62 -173h-68l253 675h72zM439 224l-107 293l-30 91h-1q-15 -47 -30 -89l-107 -295h275zM345 -161q0 -19 -13 -32t-31 -13q-19 0 -32 13t-13 32t13 32t32 13q18 0 31 -13.5t13 -31.5z" />
    <glyph glyph-name="uni1EA1" unicode="&#x1ea1;" horiz-adv-x="519" 
d="M424 0h-64q0 74 6 109l-2 1q-19 -51 -66 -84.5t-110 -33.5q-59 0 -97 35t-38 94q0 76 79.5 122t226.5 46v33q0 68 -26 100t-91 32q-70 0 -151 -35l-12 51q89 35 170 35q92 0 132.5 -44.5t40.5 -128.5v-178q0 -64 2 -154zM359 226v15q-130 0 -186 -31t-56 -79
q0 -38 24 -62.5t63 -24.5q67 0 111 56t44 126zM292 -161q0 -19 -13 -32t-31 -13q-19 0 -32 13t-13 32t13 32t32 13q18 0 31 -13.5t13 -31.5z" />
    <glyph glyph-name="uni1EA2" unicode="&#x1ea2;" horiz-adv-x="608" 
d="M592 0h-74l-61 173h-311l-62 -173h-68l253 675h72zM439 224l-107 293l-30 91h-1q-15 -47 -30 -89l-107 -295h275zM297 729l-10 38q10 3 22 9t25 19t13 28q0 38 -58 38q-34 0 -75 -16l-12 39q48 22 102 22q46 0 72.5 -19t26.5 -53q0 -30 -22 -54.5t-43 -34.5t-41 -16z" />
    <glyph glyph-name="uni1EA3" unicode="&#x1ea3;" horiz-adv-x="519" 
d="M424 0h-64q0 74 6 109l-2 1q-19 -51 -66 -84.5t-110 -33.5q-59 0 -97 35t-38 94q0 76 79.5 122t226.5 46v33q0 68 -26 100t-91 32q-70 0 -151 -35l-12 51q89 35 170 35q92 0 132.5 -44.5t40.5 -128.5v-178q0 -64 2 -154zM359 226v15q-130 0 -186 -31t-56 -79
q0 -38 24 -62.5t63 -24.5q67 0 111 56t44 126zM251 561l-10 38q10 3 22 9t25 19t13 28q0 38 -58 38q-43 0 -75 -16l-11 40q49 21 101 21q46 0 72.5 -19t26.5 -53q0 -30 -22 -54.5t-43 -34.5t-41 -16z" />
    <glyph glyph-name="uni1EA4" unicode="&#x1ea4;" horiz-adv-x="608" 
d="M592 0h-74l-61 173h-311l-62 -173h-68l253 675h72zM439 224l-107 293l-30 91h-1q-15 -47 -30 -89l-107 -295h275zM393 928l-167 -58l-15 37l159 73zM456 770l-23 -41l-134 64l-128 -64l-20 38l151 82z" />
    <glyph glyph-name="uni1EA5" unicode="&#x1ea5;" horiz-adv-x="519" 
d="M424 0h-64q0 74 6 109l-2 1q-19 -51 -66 -84.5t-110 -33.5q-59 0 -97 35t-38 94q0 76 79.5 122t226.5 46v33q0 68 -26 100t-91 32q-70 0 -151 -35l-12 51q89 35 170 35q92 0 132.5 -44.5t40.5 -128.5v-178q0 -64 2 -154zM359 226v15q-130 0 -186 -31t-56 -79
q0 -38 24 -62.5t63 -24.5q67 0 111 56t44 126zM375 585l-28 -28l-95 74l-94 -74l-27 27l123 110zM347 786l-169 -58l-15 37l160 73z" />
    <glyph glyph-name="uni1EA6" unicode="&#x1ea6;" horiz-adv-x="608" 
d="M592 0h-74l-61 173h-311l-62 -173h-68l253 675h72zM439 224l-107 293l-30 91h-1q-15 -47 -30 -89l-107 -295h275zM456 770l-23 -41l-134 64l-128 -64l-20 38l151 82zM383 907l-15 -36l-168 58l23 51z" />
    <glyph glyph-name="uni1EA7" unicode="&#x1ea7;" horiz-adv-x="519" 
d="M424 0h-64q0 74 6 109l-2 1q-19 -51 -66 -84.5t-110 -33.5q-59 0 -97 35t-38 94q0 76 79.5 122t226.5 46v33q0 68 -26 100t-91 32q-70 0 -151 -35l-12 51q89 35 170 35q92 0 132.5 -44.5t40.5 -128.5v-178q0 -64 2 -154zM359 226v15q-130 0 -186 -31t-56 -79
q0 -38 24 -62.5t63 -24.5q67 0 111 56t44 126zM375 585l-28 -28l-95 74l-94 -74l-27 27l123 110zM313 728l-168 58l23 52l160 -73z" />
    <glyph glyph-name="uni1EA8" unicode="&#x1ea8;" horiz-adv-x="608" 
d="M592 0h-74l-61 173h-311l-62 -173h-68l253 675h72zM439 224l-107 293l-30 91h-1q-15 -47 -30 -89l-107 -295h275zM364 827l-41 22q14 6 29 20t15 29q0 19 -17 29t-44 10q-43 0 -75 -16l-11 39q47 20 101 20q46 0 73.5 -18.5t27.5 -52.5q0 -30 -18.5 -51t-39.5 -31z
M456 752l-23 -41l-134 64l-128 -64l-20 38l151 82z" />
    <glyph glyph-name="uni1EA9" unicode="&#x1ea9;" horiz-adv-x="519" 
d="M424 0h-64q0 74 6 109l-2 1q-19 -51 -66 -84.5t-110 -33.5q-59 0 -97 35t-38 94q0 76 79.5 122t226.5 46v33q0 68 -26 100t-91 32q-70 0 -151 -35l-12 51q89 35 170 35q92 0 132.5 -44.5t40.5 -128.5v-178q0 -64 2 -154zM359 226v15q-130 0 -186 -31t-56 -79
q0 -38 24 -62.5t63 -24.5q67 0 111 56t44 126zM375 585l-28 -28l-95 74l-94 -74l-27 27l123 110zM316 696l-32 28q23 20 23 38q0 38 -58 38q-42 0 -80 -17l-10 39q45 21 104 21q46 0 72.5 -19t26.5 -52q0 -45 -46 -76z" />
    <glyph glyph-name="uni1EAA" unicode="&#x1eaa;" horiz-adv-x="608" 
d="M592 0h-74l-61 173h-311l-62 -173h-68l253 675h72zM439 224l-107 293l-30 91h-1q-15 -47 -30 -89l-107 -295h275zM456 770l-23 -41l-134 64l-128 -64l-20 38l151 82zM419 971l36 -22q-13 -30 -38.5 -49t-51.5 -19q-29 0 -57.5 27t-44.5 27q-26 0 -49 -46l-36 22
q13 30 38.5 49.5t50.5 19.5q29 0 58 -27t44 -27q27 0 50 45z" />
    <glyph glyph-name="uni1EAB" unicode="&#x1eab;" horiz-adv-x="519" 
d="M424 0h-64q0 74 6 109l-2 1q-19 -51 -66 -84.5t-110 -33.5q-59 0 -97 35t-38 94q0 76 79.5 122t226.5 46v33q0 68 -26 100t-91 32q-70 0 -151 -35l-12 51q89 35 170 35q92 0 132.5 -44.5t40.5 -128.5v-178q0 -64 2 -154zM359 226v15q-130 0 -186 -31t-56 -79
q0 -38 24 -62.5t63 -24.5q67 0 111 56t44 126zM375 585l-28 -28l-94 74l-95 -74l-26 27l122 110zM363 824l36 -22q-13 -30 -38.5 -49t-51.5 -19q-29 0 -57.5 27t-43.5 27q-27 0 -49 -46l-37 22q13 30 38.5 49.5t50.5 19.5q29 0 58 -27t45 -27q26 0 49 45z" />
    <glyph glyph-name="uni1EAC" unicode="&#x1eac;" horiz-adv-x="608" 
d="M592 0h-74l-61 173h-311l-62 -173h-68l253 675h72zM439 224l-107 293l-30 91h-1q-15 -47 -30 -89l-107 -295h275zM345 -161q0 -19 -13 -32t-31 -13q-19 0 -32 13t-13 32t13 32t32 13q18 0 31 -13.5t13 -31.5zM458 771l-21 -41l-133 63l-133 -63l-21 40l155 82z" />
    <glyph glyph-name="uni1EAD" unicode="&#x1ead;" horiz-adv-x="519" 
d="M424 0h-64q0 74 6 109l-2 1q-19 -51 -66 -84.5t-110 -33.5q-59 0 -97 35t-38 94q0 76 79.5 122t226.5 46v33q0 68 -26 100t-91 32q-70 0 -151 -35l-12 51q89 35 170 35q92 0 132.5 -44.5t40.5 -128.5v-178q0 -64 2 -154zM359 226v15q-130 0 -186 -31t-56 -79
q0 -38 24 -62.5t63 -24.5q67 0 111 56t44 126zM292 -161q0 -19 -13 -32t-31 -13q-19 0 -32 13t-13 32t13 32t32 13q18 0 31 -13.5t13 -31.5zM383 610l-31 -32l-98 87l-99 -87l-30 31l130 128z" />
    <glyph glyph-name="uni1EAE" unicode="&#x1eae;" horiz-adv-x="608" 
d="M592 0h-74l-61 173h-311l-62 -173h-68l253 675h72zM439 224l-107 293l-30 91h-1q-15 -47 -30 -89l-107 -295h275zM376 840h45q0 -48 -33 -78.5t-88 -30.5q-57 0 -88 31t-31 78h45q0 -27 21 -45t54 -18q34 0 54.5 18t20.5 45zM421 928l-167 -58l-15 37l159 73z" />
    <glyph glyph-name="uni1EAF" unicode="&#x1eaf;" horiz-adv-x="519" 
d="M424 0h-64q0 74 6 109l-2 1q-19 -51 -66 -84.5t-110 -33.5q-59 0 -97 35t-38 94q0 76 79.5 122t226.5 46v33q0 68 -26 100t-91 32q-70 0 -151 -35l-12 51q89 35 170 35q92 0 132.5 -44.5t40.5 -128.5v-178q0 -64 2 -154zM359 226v15q-130 0 -186 -31t-56 -79
q0 -38 24 -62.5t63 -24.5q67 0 111 56t44 126zM326 675h46q0 -50 -30 -83.5t-87 -33.5t-86 33.5t-29 83.5h45q0 -29 18.5 -49.5t52.5 -20.5q32 0 51 18.5t19 51.5zM372 786l-169 -58l-15 37l160 73z" />
    <glyph glyph-name="uni1EB0" unicode="&#x1eb0;" horiz-adv-x="608" 
d="M592 0h-74l-61 173h-311l-62 -173h-68l253 675h72zM439 224l-107 293l-30 91h-1q-15 -47 -30 -89l-107 -295h275zM376 840h45q0 -48 -33 -78.5t-88 -30.5q-57 0 -88 31t-31 78h45q0 -27 21 -45t54 -18q34 0 54.5 18t20.5 45zM364 907l-15 -37l-168 59l23 51z" />
    <glyph glyph-name="uni1EB1" unicode="&#x1eb1;" horiz-adv-x="519" 
d="M424 0h-64q0 74 6 109l-2 1q-19 -51 -66 -84.5t-110 -33.5q-59 0 -97 35t-38 94q0 76 79.5 122t226.5 46v33q0 68 -26 100t-91 32q-70 0 -151 -35l-12 51q89 35 170 35q92 0 132.5 -44.5t40.5 -128.5v-178q0 -64 2 -154zM359 226v15q-130 0 -186 -31t-56 -79
q0 -38 24 -62.5t63 -24.5q67 0 111 56t44 126zM326 675h46q0 -50 -30 -83.5t-87 -33.5t-86 33.5t-29 83.5h45q0 -29 18.5 -49.5t52.5 -20.5q32 0 51 18.5t19 51.5zM309 728l-169 58l24 52l160 -73z" />
    <glyph glyph-name="uni1EB2" unicode="&#x1eb2;" horiz-adv-x="608" 
d="M592 0h-74l-61 173h-311l-62 -173h-68l253 675h72zM439 224l-107 293l-30 91h-1q-15 -47 -30 -89l-107 -295h275zM376 820h45q0 -46 -32.5 -75t-88.5 -29q-57 0 -88 29t-31 75h45q0 -25 21 -42.5t54 -17.5q34 0 54.5 17.5t20.5 42.5zM293 826l-9 31q62 21 62 50
q0 34 -52 34q-40 0 -68 -14l-10 35q43 18 92 18q41 0 64.5 -16.5t23.5 -46.5q0 -26 -21.5 -47.5t-42 -30.5t-39.5 -13z" />
    <glyph glyph-name="uni1EB3" unicode="&#x1eb3;" horiz-adv-x="519" 
d="M424 0h-64q0 74 6 109l-2 1q-19 -51 -66 -84.5t-110 -33.5q-59 0 -97 35t-38 94q0 76 79.5 122t226.5 46v33q0 68 -26 100t-91 32q-70 0 -151 -35l-12 51q89 35 170 35q92 0 132.5 -44.5t40.5 -128.5v-178q0 -64 2 -154zM359 226v15q-130 0 -186 -31t-56 -79
q0 -38 24 -62.5t63 -24.5q67 0 111 56t44 126zM326 667h46q0 -50 -30 -84t-88 -34q-57 0 -86 34t-29 84h46q0 -30 18.5 -50.5t51.5 -20.5t52 19t19 52zM261 691l-9 35q16 4 35 17.5t19 33.5q0 34 -53 34q-34 0 -68 -15l-10 36q44 19 91 19q41 0 65 -17t24 -48
q0 -38 -31.5 -62t-62.5 -33z" />
    <glyph glyph-name="uni1EB4" unicode="&#x1eb4;" horiz-adv-x="608" 
d="M592 0h-74l-61 173h-311l-62 -173h-68l253 675h72zM439 224l-107 293l-30 91h-1q-15 -47 -30 -89l-107 -295h275zM410 971l36 -22q-13 -30 -38.5 -49t-51.5 -19q-29 0 -57.5 27t-43.5 27q-27 0 -49 -46l-37 22q13 30 38.5 49.5t50.5 19.5q29 0 58 -27t45 -27q26 0 49 45z
M381 840h45q0 -48 -33 -78.5t-88 -30.5q-57 0 -88 31t-31 78h45q0 -27 21 -45t54 -18q34 0 54.5 18t20.5 45z" />
    <glyph glyph-name="uni1EB5" unicode="&#x1eb5;" horiz-adv-x="519" 
d="M424 0h-64q0 74 6 109l-2 1q-19 -51 -66 -84.5t-110 -33.5q-59 0 -97 35t-38 94q0 76 79.5 122t226.5 46v33q0 68 -26 100t-91 32q-70 0 -151 -35l-12 51q89 35 170 35q92 0 132.5 -44.5t40.5 -128.5v-178q0 -64 2 -154zM359 226v15q-130 0 -186 -31t-56 -79
q0 -38 24 -62.5t63 -24.5q67 0 111 56t44 126zM360 825l36 -22q-13 -30 -38.5 -49.5t-51.5 -19.5q-29 0 -57.5 27t-43.5 27q-27 0 -49 -45l-37 22q13 30 38.5 49.5t50.5 19.5q29 0 58 -27.5t45 -27.5q25 0 49 46zM326 675h46q0 -50 -29.5 -83.5t-87.5 -33.5
q-57 0 -85.5 33.5t-28.5 83.5h45q0 -29 18.5 -49.5t51.5 -20.5q32 0 51 18.5t19 51.5z" />
    <glyph glyph-name="uni1EB6" unicode="&#x1eb6;" horiz-adv-x="608" 
d="M592 0h-74l-61 173h-311l-62 -173h-68l253 675h72zM439 224l-107 293l-30 91h-1q-15 -47 -30 -89l-107 -295h275zM345 -161q0 -19 -13 -32t-31 -13q-19 0 -32 13t-13 32t13 32t32 13q18 0 31 -13.5t13 -31.5zM377 847h46q0 -49 -33 -80.5t-89 -31.5q-57 0 -88.5 31.5
t-31.5 80.5h45q0 -27 21.5 -45.5t54.5 -18.5q34 0 54.5 18t20.5 46z" />
    <glyph glyph-name="uni1EB7" unicode="&#x1eb7;" horiz-adv-x="519" 
d="M424 0h-64q0 74 6 109l-2 1q-19 -51 -66 -84.5t-110 -33.5q-59 0 -97 35t-38 94q0 76 79.5 122t226.5 46v33q0 68 -26 100t-91 32q-70 0 -151 -35l-12 51q89 35 170 35q92 0 132.5 -44.5t40.5 -128.5v-178q0 -64 2 -154zM359 226v15q-130 0 -186 -31t-56 -79
q0 -38 24 -62.5t63 -24.5q67 0 111 56t44 126zM292 -161q0 -19 -13 -32t-31 -13q-19 0 -32 13t-13 32t13 32t32 13q18 0 31 -13.5t13 -31.5zM326 716h47q0 -52 -30.5 -86.5t-88.5 -34.5q-57 0 -86 34.5t-29 86.5h46q0 -30 18.5 -51t51.5 -21t52 19t19 53z" />
    <glyph glyph-name="uni1EB8" unicode="&#x1eb8;" horiz-adv-x="515" 
d="M440 0h-344v675h344v-52h-280v-249h257v-51h-257v-270h280v-53zM318 -161q0 -19 -13 -32t-31 -13q-19 0 -32 13t-13 32t13 32t32 13q18 0 31 -13.5t13 -31.5z" />
    <glyph glyph-name="uni1EB9" unicode="&#x1eb9;" horiz-adv-x="503" 
d="M426 72l10 -50q-85 -30 -164 -30q-226 0 -226 255q0 114 58 186t157 72q96 0 143.5 -56.5t47.5 -143.5l-2 -48h-338q-2 -109 40 -160.5t129 -51.5q71 0 145 27zM115 304h270q1 72 -33 111.5t-95 39.5q-57 0 -95 -39t-47 -112zM307 -162q0 -19 -13 -32t-31 -13
q-19 0 -32 13t-13 32t13 32t32 13q18 0 31 -13.5t13 -31.5z" />
    <glyph glyph-name="uni1EBA" unicode="&#x1eba;" horiz-adv-x="515" 
d="M440 0h-344v675h344v-52h-280v-249h257v-51h-257v-270h280v-53zM261 729l-10 38q10 3 22 9t25 19t13 28q0 38 -58 38q-34 0 -75 -16l-12 39q48 22 102 22q46 0 72.5 -19t26.5 -53q0 -30 -22 -54.5t-43 -34.5t-41 -16z" />
    <glyph glyph-name="uni1EBB" unicode="&#x1ebb;" horiz-adv-x="503" 
d="M426 72l10 -50q-85 -30 -164 -30q-226 0 -226 255q0 114 58 186t157 72q96 0 143.5 -56.5t47.5 -143.5l-2 -48h-338q-2 -109 40 -160.5t129 -51.5q71 0 145 27zM115 304h270q1 72 -33 111.5t-95 39.5q-57 0 -95 -39t-47 -112zM262 561l-10 38q10 3 22 9t25 19t13 28
q0 38 -58 38q-43 0 -75 -16l-11 40q49 21 101 21q46 0 72.5 -19t26.5 -53q0 -30 -22 -54.5t-43 -34.5t-41 -16z" />
    <glyph glyph-name="uni1EBC" unicode="&#x1ebc;" horiz-adv-x="515" 
d="M440 0h-344v675h344v-52h-280v-249h257v-51h-257v-270h280v-53zM405 833l35 -26q-40 -67 -103 -67q-36 0 -75.5 28t-59.5 28q-39 0 -66 -47l-35 26q37 67 103 67q36 0 76 -27.5t60 -27.5q37 0 65 46z" />
    <glyph glyph-name="uni1EBD" unicode="&#x1ebd;" horiz-adv-x="503" 
d="M426 72l10 -50q-85 -30 -164 -30q-226 0 -226 255q0 114 58 186t157 72q96 0 143.5 -56.5t47.5 -143.5l-2 -48h-338q-2 -109 40 -160.5t129 -51.5q71 0 145 27zM115 304h270q1 72 -33 111.5t-95 39.5q-57 0 -95 -39t-47 -112zM395 701l34 -27q-38 -69 -101 -69
q-34 0 -72.5 28.5t-58.5 28.5q-35 0 -62 -48l-34 27q38 69 101 69q34 0 72 -28.5t58 -28.5q36 0 63 48z" />
    <glyph glyph-name="uni1EBE" unicode="&#x1ebe;" horiz-adv-x="515" 
d="M440 0h-344v675h344v-52h-280v-249h257v-51h-257v-270h280v-53zM352 928l-167 -58l-15 37l159 73zM415 770l-23 -41l-134 64l-128 -64l-20 38l151 82z" />
    <glyph glyph-name="uni1EBF" unicode="&#x1ebf;" horiz-adv-x="503" 
d="M426 72l10 -50q-85 -30 -164 -30q-226 0 -226 255q0 114 58 186t157 72q96 0 143.5 -56.5t47.5 -143.5l-2 -48h-338q-2 -109 40 -160.5t129 -51.5q71 0 145 27zM115 304h270q1 72 -33 111.5t-95 39.5q-57 0 -95 -39t-47 -112zM381 585l-28 -28l-95 74l-94 -74l-27 27
l123 110zM353 786l-169 -58l-15 37l160 73z" />
    <glyph glyph-name="uni1EC0" unicode="&#x1ec0;" horiz-adv-x="515" 
d="M440 0h-344v675h344v-52h-280v-249h257v-51h-257v-270h280v-53zM417 770l-23 -41l-134 64l-128 -64l-20 38l151 82zM344 907l-15 -36l-168 58l23 51z" />
    <glyph glyph-name="uni1EC1" unicode="&#x1ec1;" horiz-adv-x="503" 
d="M426 72l10 -50q-85 -30 -164 -30q-226 0 -226 255q0 114 58 186t157 72q96 0 143.5 -56.5t47.5 -143.5l-2 -48h-338q-2 -109 40 -160.5t129 -51.5q71 0 145 27zM115 304h270q1 72 -33 111.5t-95 39.5q-57 0 -95 -39t-47 -112zM381 585l-28 -28l-95 74l-94 -74l-27 27
l123 110zM319 728l-168 58l23 52l160 -73z" />
    <glyph glyph-name="uni1EC2" unicode="&#x1ec2;" horiz-adv-x="515" 
d="M440 0h-344v675h344v-52h-280v-249h257v-51h-257v-270h280v-53zM325 827l-41 22q14 6 29 20t15 29q0 19 -17 29t-44 10q-43 0 -75 -16l-11 39q47 20 101 20q46 0 73.5 -18.5t27.5 -52.5q0 -30 -18.5 -51t-39.5 -31zM417 752l-23 -41l-134 64l-128 -64l-20 38l151 82z" />
    <glyph glyph-name="uni1EC3" unicode="&#x1ec3;" horiz-adv-x="503" 
d="M426 72l10 -50q-85 -30 -164 -30q-226 0 -226 255q0 114 58 186t157 72q96 0 143.5 -56.5t47.5 -143.5l-2 -48h-338q-2 -109 40 -160.5t129 -51.5q71 0 145 27zM115 304h270q1 72 -33 111.5t-95 39.5q-57 0 -95 -39t-47 -112zM381 585l-28 -28l-95 74l-94 -74l-27 27
l123 110zM322 696l-32 28q23 20 23 38q0 38 -58 38q-42 0 -80 -17l-10 39q46 21 104 21q46 0 72.5 -19t26.5 -52q0 -45 -46 -76z" />
    <glyph glyph-name="uni1EC4" unicode="&#x1ec4;" horiz-adv-x="515" 
d="M440 0h-344v675h344v-52h-280v-249h257v-51h-257v-270h280v-53zM419 770l-23 -41l-134 64l-128 -64l-20 38l151 82zM382 971l36 -22q-13 -30 -38.5 -49t-51.5 -19q-29 0 -57.5 27t-44.5 27q-26 0 -49 -46l-36 22q13 30 38.5 49.5t50.5 19.5q29 0 58 -27t44 -27
q27 0 50 45z" />
    <glyph glyph-name="uni1EC5" unicode="&#x1ec5;" horiz-adv-x="503" 
d="M426 72l10 -50q-85 -30 -164 -30q-226 0 -226 255q0 114 58 186t157 72q96 0 143.5 -56.5t47.5 -143.5l-2 -48h-338q-2 -109 40 -160.5t129 -51.5q71 0 145 27zM115 304h270q1 72 -33 111.5t-95 39.5q-57 0 -95 -39t-47 -112zM381 585l-28 -28l-94 74l-95 -74l-26 27
l122 110zM369 824l36 -22q-13 -30 -38.5 -49t-51.5 -19q-29 0 -57.5 27t-43.5 27q-27 0 -49 -46l-37 22q13 30 38.5 49.5t50.5 19.5q29 0 58 -27t45 -27q26 0 49 45z" />
    <glyph glyph-name="uni1EC6" unicode="&#x1ec6;" horiz-adv-x="515" 
d="M440 0h-344v675h344v-52h-280v-249h257v-51h-257v-270h280v-53zM318 -161q0 -19 -13 -32t-31 -13q-19 0 -32 13t-13 32t13 32t32 13q18 0 31 -13.5t13 -31.5zM423 771l-21 -41l-133 63l-133 -63l-21 40l155 82z" />
    <glyph glyph-name="uni1EC7" unicode="&#x1ec7;" horiz-adv-x="503" 
d="M426 72l10 -50q-85 -30 -164 -30q-226 0 -226 255q0 114 58 186t157 72q96 0 143.5 -56.5t47.5 -143.5l-2 -48h-338q-2 -109 40 -160.5t129 -51.5q71 0 145 27zM115 304h270q1 72 -33 111.5t-95 39.5q-57 0 -95 -39t-47 -112zM307 -162q0 -19 -13 -32t-31 -13
q-19 0 -32 13t-13 32t13 32t32 13q18 0 31 -13.5t13 -31.5zM388 610l-31 -32l-98 87l-99 -87l-30 31l130 128z" />
    <glyph glyph-name="uni1EC8" unicode="&#x1ec8;" horiz-adv-x="256" 
d="M160 0h-64v675h64v-675zM117 729l-10 38q10 3 22 9t25 19t13 28q0 38 -58 38q-34 0 -75 -16l-12 39q48 22 102 22q46 0 72.5 -19t26.5 -53q0 -30 -22 -54.5t-43 -34.5t-41 -16z" />
    <glyph glyph-name="uni1EC9" unicode="&#x1ec9;" horiz-adv-x="255" 
d="M159 0h-63v497h63v-497zM118 561l-10 38q10 3 22 9t25 19t13 28q0 38 -58 38q-43 0 -75 -16l-11 40q49 21 101 21q46 0 72.5 -19t26.5 -53q0 -30 -22 -54.5t-43 -34.5t-41 -16z" />
    <glyph glyph-name="uni1ECA" unicode="&#x1eca;" horiz-adv-x="256" 
d="M160 0h-64v675h64v-675zM172 -161q0 -19 -13 -32t-31 -13q-19 0 -32 13t-13 32t13 32t32 13q18 0 31 -13.5t13 -31.5z" />
    <glyph glyph-name="uni1ECB" unicode="&#x1ecb;" horiz-adv-x="255" 
d="M173 658q0 -18 -13 -31.5t-32 -13.5t-32 13t-13 32t13 32t32 13t32 -13t13 -32zM159 0h-63v497h63v-497zM171 -161q0 -19 -13 -32t-31 -13q-19 0 -32 13t-13 32t13 32t32 13q18 0 31 -13.5t13 -31.5z" />
    <glyph glyph-name="uni1ECC" unicode="&#x1ecc;" horiz-adv-x="707" 
d="M659 345q0 -165 -90 -259t-224 -94q-141 0 -219 91.5t-78 246.5q0 165 90 259t224 94q141 0 219 -91.5t78 -246.5zM592 332q0 135 -61.5 216t-177.5 81q-103 0 -170.5 -75.5t-67.5 -209.5q0 -136 61.5 -217t176.5 -81q103 0 171 75.5t68 210.5zM398 -162q0 -19 -13 -32
t-31 -13q-19 0 -32 13t-13 32t13 32t32 13q18 0 31 -13.5t13 -31.5z" />
    <glyph glyph-name="uni1ECD" unicode="&#x1ecd;" horiz-adv-x="540" 
d="M495 253q0 -114 -61 -187.5t-172 -73.5q-101 0 -159 63.5t-58 188.5q0 114 61 187.5t172 73.5q101 0 159 -63.5t58 -188.5zM430 249q0 97 -42 151t-117 54q-74 0 -117.5 -53t-43.5 -153q0 -97 42 -150.5t117 -53.5q72 0 116.5 51.5t44.5 153.5zM314 -162q0 -19 -13 -32
t-31 -13q-19 0 -32 13t-13 32t13 32t32 13q18 0 31 -13.5t13 -31.5z" />
    <glyph glyph-name="uni1ECE" unicode="&#x1ece;" horiz-adv-x="707" 
d="M659 345q0 -165 -90 -259t-224 -94q-141 0 -219 91.5t-78 246.5q0 165 90 259t224 94q141 0 219 -91.5t78 -246.5zM592 332q0 135 -61.5 216t-177.5 81q-103 0 -170.5 -75.5t-67.5 -209.5q0 -136 61.5 -217t176.5 -81q103 0 171 75.5t68 210.5zM369 729l-10 38q10 3 22 9
t25 19t13 28q0 38 -58 38q-34 0 -75 -16l-12 39q48 22 102 22q46 0 72.5 -19t26.5 -53q0 -30 -22 -54.5t-43 -34.5t-41 -16z" />
    <glyph glyph-name="uni1ECF" unicode="&#x1ecf;" horiz-adv-x="540" 
d="M495 253q0 -114 -61 -187.5t-172 -73.5q-101 0 -159 63.5t-58 188.5q0 114 61 187.5t172 73.5q101 0 159 -63.5t58 -188.5zM430 249q0 97 -42 151t-117 54q-74 0 -117.5 -53t-43.5 -153q0 -97 42 -150.5t117 -53.5q72 0 116.5 51.5t44.5 153.5zM273 561l-10 38q10 3 22 9
t25 19t13 28q0 38 -58 38q-43 0 -75 -16l-11 40q49 21 101 21q46 0 72.5 -19t26.5 -53q0 -30 -22 -54.5t-43 -34.5t-41 -16z" />
    <glyph glyph-name="uni1ED0" unicode="&#x1ed0;" horiz-adv-x="707" 
d="M659 345q0 -165 -90 -259t-224 -94q-141 0 -219 91.5t-78 246.5q0 165 90 259t224 94q141 0 219 -91.5t78 -246.5zM592 332q0 135 -61.5 216t-177.5 81q-103 0 -170.5 -75.5t-67.5 -209.5q0 -136 61.5 -217t176.5 -81q103 0 171 75.5t68 210.5zM447 928l-167 -58l-15 37
l159 73zM510 770l-23 -41l-134 64l-128 -64l-20 38l151 82z" />
    <glyph glyph-name="uni1ED1" unicode="&#x1ed1;" horiz-adv-x="540" 
d="M495 253q0 -114 -61 -187.5t-172 -73.5q-101 0 -159 63.5t-58 188.5q0 114 61 187.5t172 73.5q101 0 159 -63.5t58 -188.5zM430 249q0 97 -42 151t-117 54q-74 0 -117.5 -53t-43.5 -153q0 -97 42 -150.5t117 -53.5q72 0 116.5 51.5t44.5 153.5zM391 585l-28 -28l-95 74
l-94 -74l-27 27l123 110zM363 786l-169 -58l-15 37l160 73z" />
    <glyph glyph-name="uni1ED2" unicode="&#x1ed2;" horiz-adv-x="707" 
d="M659 345q0 -165 -90 -259t-224 -94q-141 0 -219 91.5t-78 246.5q0 165 90 259t224 94q141 0 219 -91.5t78 -246.5zM592 332q0 135 -61.5 216t-177.5 81q-103 0 -170.5 -75.5t-67.5 -209.5q0 -136 61.5 -217t176.5 -81q103 0 171 75.5t68 210.5zM510 770l-23 -41l-134 64
l-128 -64l-20 38l151 82zM437 907l-15 -36l-168 58l23 51z" />
    <glyph glyph-name="uni1ED3" unicode="&#x1ed3;" horiz-adv-x="540" 
d="M495 253q0 -114 -61 -187.5t-172 -73.5q-101 0 -159 63.5t-58 188.5q0 114 61 187.5t172 73.5q101 0 159 -63.5t58 -188.5zM430 249q0 97 -42 151t-117 54q-74 0 -117.5 -53t-43.5 -153q0 -97 42 -150.5t117 -53.5q72 0 116.5 51.5t44.5 153.5zM391 585l-28 -28l-95 74
l-94 -74l-27 27l123 110zM329 728l-168 58l23 52l160 -73z" />
    <glyph glyph-name="uni1ED4" unicode="&#x1ed4;" horiz-adv-x="707" 
d="M659 345q0 -165 -90 -259t-224 -94q-141 0 -219 91.5t-78 246.5q0 165 90 259t224 94q141 0 219 -91.5t78 -246.5zM592 332q0 135 -61.5 216t-177.5 81q-103 0 -170.5 -75.5t-67.5 -209.5q0 -136 61.5 -217t176.5 -81q103 0 171 75.5t68 210.5zM418 827l-41 22
q14 6 29 20t15 29q0 19 -17 29t-44 10q-43 0 -75 -16l-11 39q47 20 101 20q46 0 73.5 -18.5t27.5 -52.5q0 -30 -18.5 -51t-39.5 -31zM510 752l-23 -41l-134 64l-128 -64l-20 38l151 82z" />
    <glyph glyph-name="uni1ED5" unicode="&#x1ed5;" horiz-adv-x="540" 
d="M495 253q0 -114 -61 -187.5t-172 -73.5q-101 0 -159 63.5t-58 188.5q0 114 61 187.5t172 73.5q101 0 159 -63.5t58 -188.5zM430 249q0 97 -42 151t-117 54q-74 0 -117.5 -53t-43.5 -153q0 -97 42 -150.5t117 -53.5q72 0 116.5 51.5t44.5 153.5zM391 585l-28 -28l-95 74
l-94 -74l-27 27l123 110zM332 696l-32 28q23 20 23 38q0 38 -58 38q-42 0 -80 -17l-10 39q45 21 104 21q46 0 72.5 -19t26.5 -52q0 -45 -46 -76z" />
    <glyph glyph-name="uni1ED6" unicode="&#x1ed6;" horiz-adv-x="707" 
d="M659 345q0 -165 -90 -259t-224 -94q-141 0 -219 91.5t-78 246.5q0 165 90 259t224 94q141 0 219 -91.5t78 -246.5zM592 332q0 135 -61.5 216t-177.5 81q-103 0 -170.5 -75.5t-67.5 -209.5q0 -136 61.5 -217t176.5 -81q103 0 171 75.5t68 210.5zM510 770l-23 -41l-134 64
l-128 -64l-20 38l151 82zM473 971l36 -22q-13 -30 -38.5 -49t-51.5 -19q-29 0 -57.5 27t-44.5 27q-26 0 -49 -46l-36 22q13 30 38.5 49.5t50.5 19.5q29 0 58 -27t44 -27q27 0 50 45z" />
    <glyph glyph-name="uni1ED7" unicode="&#x1ed7;" horiz-adv-x="540" 
d="M495 253q0 -114 -61 -187.5t-172 -73.5q-101 0 -159 63.5t-58 188.5q0 114 61 187.5t172 73.5q101 0 159 -63.5t58 -188.5zM430 249q0 97 -42 151t-117 54q-74 0 -117.5 -53t-43.5 -153q0 -97 42 -150.5t117 -53.5q72 0 116.5 51.5t44.5 153.5zM391 585l-28 -28l-94 74
l-95 -74l-26 27l122 110zM379 824l36 -22q-13 -30 -38.5 -49t-51.5 -19q-29 0 -57.5 27t-43.5 27q-27 0 -49 -46l-37 22q13 30 38.5 49.5t50.5 19.5q29 0 58 -27t45 -27q26 0 49 45z" />
    <glyph glyph-name="uni1ED8" unicode="&#x1ed8;" horiz-adv-x="707" 
d="M659 345q0 -165 -90 -259t-224 -94q-141 0 -219 91.5t-78 246.5q0 165 90 259t224 94q141 0 219 -91.5t78 -246.5zM592 332q0 135 -61.5 216t-177.5 81q-103 0 -170.5 -75.5t-67.5 -209.5q0 -136 61.5 -217t176.5 -81q103 0 171 75.5t68 210.5zM398 -162q0 -19 -13 -32
t-31 -13q-19 0 -32 13t-13 32t13 32t32 13q18 0 31 -13.5t13 -31.5zM512 771l-21 -41l-133 63l-133 -63l-21 40l155 82z" />
    <glyph glyph-name="uni1ED9" unicode="&#x1ed9;" horiz-adv-x="540" 
d="M495 253q0 -114 -61 -187.5t-172 -73.5q-101 0 -159 63.5t-58 188.5q0 114 61 187.5t172 73.5q101 0 159 -63.5t58 -188.5zM430 249q0 97 -42 151t-117 54q-74 0 -117.5 -53t-43.5 -153q0 -97 42 -150.5t117 -53.5q72 0 116.5 51.5t44.5 153.5zM314 -162q0 -19 -13 -32
t-31 -13q-19 0 -32 13t-13 32t13 32t32 13q18 0 31 -13.5t13 -31.5zM398 610l-31 -32l-98 87l-99 -87l-30 31l130 128z" />
    <glyph glyph-name="uni1EDA" unicode="&#x1eda;" horiz-adv-x="737" 
d="M645 707h57q21 -56 13.5 -97.5t-29 -66t-54.5 -36.5q27 -71 27 -162q0 -165 -90 -259t-224 -94q-143 0 -220 91t-77 247q0 165 90 259t224 94q176 0 250 -135q78 35 33 159zM592 332q0 135 -61.5 216t-177.5 81q-103 0 -170.5 -75.5t-67.5 -209.5q0 -136 61.5 -217
t176.5 -81q103 0 171 75.5t68 210.5zM501 790l-172 -58l-15 38l164 74z" />
    <glyph glyph-name="uni1EDB" unicode="&#x1edb;" horiz-adv-x="578" 
d="M489 529h57q50 -141 -64 -177q13 -50 13 -99q0 -114 -61 -187.5t-172 -73.5q-101 0 -159 63.5t-58 188.5q0 114 61 187.5t172 73.5q137 0 190 -111q62 21 21 135zM430 249q0 97 -42 151t-117 54q-74 0 -117.5 -53t-43.5 -153q0 -97 42 -150.5t117 -53.5q72 0 116.5 51.5
t44.5 153.5zM395 704l-125 -128l-35 31l116 136z" />
    <glyph glyph-name="uni1EDC" unicode="&#x1edc;" horiz-adv-x="737" 
d="M645 707h57q21 -56 13.5 -97.5t-29 -66t-54.5 -36.5q27 -71 27 -162q0 -165 -90 -259t-224 -94q-143 0 -220 91t-77 247q0 165 90 259t224 94q176 0 250 -135q78 35 33 159zM592 332q0 135 -61.5 216t-177.5 81q-103 0 -170.5 -75.5t-67.5 -209.5q0 -136 61.5 -217
t176.5 -81q103 0 171 75.5t68 210.5zM397 770l-15 -38l-172 58l23 54z" />
    <glyph glyph-name="uni1EDD" unicode="&#x1edd;" horiz-adv-x="578" 
d="M489 529h57q50 -141 -64 -177q13 -50 13 -99q0 -114 -61 -187.5t-172 -73.5q-101 0 -159 63.5t-58 188.5q0 114 61 187.5t172 73.5q137 0 190 -111q62 21 21 135zM430 249q0 97 -42 151t-117 54q-74 0 -117.5 -53t-43.5 -153q0 -97 42 -150.5t117 -53.5q72 0 116.5 51.5
t44.5 153.5zM314 607l-35 -31l-125 128l44 39z" />
    <glyph glyph-name="uni1EDE" unicode="&#x1ede;" horiz-adv-x="737" 
d="M645 707h57q21 -56 13.5 -97.5t-29 -66t-54.5 -36.5q27 -71 27 -162q0 -165 -90 -259t-224 -94q-143 0 -220 91t-77 247q0 165 90 259t224 94q176 0 250 -135q78 35 33 159zM592 332q0 135 -61.5 216t-177.5 81q-103 0 -170.5 -75.5t-67.5 -209.5q0 -136 61.5 -217
t176.5 -81q103 0 171 75.5t68 210.5zM369 729l-10 38q10 3 22 9t25 19t13 28q0 38 -58 38q-34 0 -75 -16l-12 39q48 22 102 22q46 0 72.5 -19t26.5 -53q0 -30 -22 -54.5t-43 -34.5t-41 -16z" />
    <glyph glyph-name="uni1EDF" unicode="&#x1edf;" horiz-adv-x="578" 
d="M489 529h57q50 -141 -64 -177q13 -50 13 -99q0 -114 -61 -187.5t-172 -73.5q-101 0 -159 63.5t-58 188.5q0 114 61 187.5t172 73.5q137 0 190 -111q62 21 21 135zM430 249q0 97 -42 151t-117 54q-74 0 -117.5 -53t-43.5 -153q0 -97 42 -150.5t117 -53.5q72 0 116.5 51.5
t44.5 153.5zM273 561l-10 38q10 3 22 9t25 19t13 28q0 38 -58 38q-43 0 -75 -16l-11 40q49 21 101 21q46 0 72.5 -19t26.5 -53q0 -30 -22 -54.5t-43 -34.5t-41 -16z" />
    <glyph glyph-name="uni1EE0" unicode="&#x1ee0;" horiz-adv-x="737" 
d="M645 707h57q21 -56 13.5 -97.5t-29 -66t-54.5 -36.5q27 -71 27 -162q0 -165 -90 -259t-224 -94q-143 0 -220 91t-77 247q0 165 90 259t224 94q176 0 250 -135q78 35 33 159zM592 332q0 135 -61.5 216t-177.5 81q-103 0 -170.5 -75.5t-67.5 -209.5q0 -136 61.5 -217
t176.5 -81q103 0 171 75.5t68 210.5zM487 833l35 -26q-40 -67 -103 -67q-36 0 -75.5 28t-59.5 28q-39 0 -66 -47l-35 26q37 67 103 67q36 0 76 -27.5t60 -27.5q37 0 65 46z" />
    <glyph glyph-name="uni1EE1" unicode="&#x1ee1;" horiz-adv-x="578" 
d="M489 529h57q50 -141 -64 -177q13 -50 13 -99q0 -114 -61 -187.5t-172 -73.5q-101 0 -159 63.5t-58 188.5q0 114 61 187.5t172 73.5q137 0 190 -111q62 21 21 135zM430 249q0 97 -42 151t-117 54q-74 0 -117.5 -53t-43.5 -153q0 -97 42 -150.5t117 -53.5q72 0 116.5 51.5
t44.5 153.5zM404 701l34 -27q-38 -69 -101 -69q-34 0 -72.5 28.5t-58.5 28.5q-35 0 -62 -48l-34 27q38 69 101 69q35 0 73 -28.5t57 -28.5q36 0 63 48z" />
    <glyph glyph-name="uni1EE2" unicode="&#x1ee2;" horiz-adv-x="737" 
d="M645 707h57q21 -56 13.5 -97.5t-29 -66t-54.5 -36.5q27 -71 27 -162q0 -165 -90 -259t-224 -94q-143 0 -220 91t-77 247q0 165 90 259t224 94q176 0 250 -135q78 35 33 159zM592 332q0 135 -61.5 216t-177.5 81q-103 0 -170.5 -75.5t-67.5 -209.5q0 -136 61.5 -217
t176.5 -81q103 0 171 75.5t68 210.5zM398 -162q0 -19 -13 -32t-31 -13q-19 0 -32 13t-13 32t13 32t32 13q18 0 31 -13.5t13 -31.5z" />
    <glyph glyph-name="uni1EE3" unicode="&#x1ee3;" horiz-adv-x="578" 
d="M489 529h57q50 -141 -64 -177q13 -50 13 -99q0 -114 -61 -187.5t-172 -73.5q-101 0 -159 63.5t-58 188.5q0 114 61 187.5t172 73.5q137 0 190 -111q62 21 21 135zM430 249q0 97 -42 151t-117 54q-74 0 -117.5 -53t-43.5 -153q0 -97 42 -150.5t117 -53.5q72 0 116.5 51.5
t44.5 153.5zM314 -162q0 -19 -13 -32t-31 -13q-19 0 -32 13t-13 32t13 32t32 13q18 0 31 -13.5t13 -31.5z" />
    <glyph glyph-name="uni1EE4" unicode="&#x1ee4;" horiz-adv-x="701" 
d="M605 675v-420q0 -129 -66 -196t-197 -67q-60 0 -105 13.5t-71.5 34.5t-42.5 52.5t-21.5 62t-5.5 67.5v453h64v-446q0 -41 8 -72t28 -57.5t58 -41t94 -14.5q100 0 147 47t47 158v426h63zM395 -162q0 -19 -13 -32t-31 -13q-19 0 -32 13t-13 32t13 32t32 13q18 0 31 -13.5
t13 -31.5z" />
    <glyph glyph-name="uni1EE5" unicode="&#x1ee5;" horiz-adv-x="579" 
d="M483 0h-64q0 69 9 116l-2 1q-21 -58 -68 -91.5t-112 -33.5q-150 0 -150 159v346h63v-322q0 -66 22.5 -99t78.5 -33q70 0 115 61t45 156v237h63v-497zM341 -161q0 -19 -13 -32t-31 -13q-19 0 -32 13t-13 32t13 32t32 13q18 0 31 -13.5t13 -31.5z" />
    <glyph glyph-name="uni1EE6" unicode="&#x1ee6;" horiz-adv-x="701" 
d="M605 675v-420q0 -129 -66 -196t-197 -67q-60 0 -105 13.5t-71.5 34.5t-42.5 52.5t-21.5 62t-5.5 67.5v453h64v-446q0 -41 8 -72t28 -57.5t58 -41t94 -14.5q100 0 147 47t47 158v426h63zM355 729l-10 38q10 3 22 9t25 19t13 28q0 38 -58 38q-34 0 -75 -16l-12 39
q48 22 102 22q46 0 72.5 -19t26.5 -53q0 -30 -22 -54.5t-43 -34.5t-41 -16z" />
    <glyph glyph-name="uni1EE7" unicode="&#x1ee7;" horiz-adv-x="579" 
d="M483 0h-64q0 69 9 116l-2 1q-21 -58 -68 -91.5t-112 -33.5q-150 0 -150 159v346h63v-322q0 -66 22.5 -99t78.5 -33q70 0 115 61t45 156v237h63v-497zM296 561l-10 38q10 3 22 9t25 19t13 28q0 38 -58 38q-43 0 -75 -16l-11 40q49 21 101 21q46 0 72.5 -19t26.5 -53
q0 -30 -22 -54.5t-43 -34.5t-41 -16z" />
    <glyph glyph-name="uni1EE8" unicode="&#x1ee8;" horiz-adv-x="758" 
d="M681 707h57q25 -104 -16 -158.5t-117 -55.5v-238q0 -129 -66 -196t-197 -67q-60 0 -105 13.5t-71.5 34.5t-42.5 52.5t-21.5 62t-5.5 67.5v453h64v-446q0 -41 8 -72t28 -57.5t58 -41t94 -14.5q100 0 147 47t47 158v426h63v-137q112 2 76 169zM510 790l-172 -58l-15 38
l164 74z" />
    <glyph glyph-name="uni1EE9" unicode="&#x1ee9;" horiz-adv-x="625" 
d="M483 0h-64q0 69 9 116l-2 1q-21 -58 -68 -91.5t-112 -33.5q-150 0 -150 159v346h63v-322q0 -66 22.5 -99t78.5 -33q70 0 115 61t45 156v237h63v-126q45 2 62.5 37.5t-1.5 120.5h50q27 -93 -8 -144.5t-103 -52.5v-332zM417 704l-125 -128l-35 31l116 136z" />
    <glyph glyph-name="uni1EEA" unicode="&#x1eea;" horiz-adv-x="758" 
d="M681 707h57q25 -104 -16 -158.5t-117 -55.5v-238q0 -129 -66 -196t-197 -67q-60 0 -105 13.5t-71.5 34.5t-42.5 52.5t-21.5 62t-5.5 67.5v453h64v-446q0 -41 8 -72t28 -57.5t58 -41t94 -14.5q100 0 147 47t47 158v426h63v-137q112 2 76 169zM390 770l-15 -38l-172 58
l23 54z" />
    <glyph glyph-name="uni1EEB" unicode="&#x1eeb;" horiz-adv-x="625" 
d="M483 0h-64q0 69 9 116l-2 1q-21 -58 -68 -91.5t-112 -33.5q-150 0 -150 159v346h63v-322q0 -66 22.5 -99t78.5 -33q70 0 115 61t45 156v237h63v-126q45 2 62.5 37.5t-1.5 120.5h50q27 -93 -8 -144.5t-103 -52.5v-332zM324 607l-35 -31l-125 128l44 39z" />
    <glyph glyph-name="uni1EEC" unicode="&#x1eec;" horiz-adv-x="758" 
d="M681 707h57q25 -104 -16 -158.5t-117 -55.5v-238q0 -129 -66 -196t-197 -67q-60 0 -105 13.5t-71.5 34.5t-42.5 52.5t-21.5 62t-5.5 67.5v453h64v-446q0 -41 8 -72t28 -57.5t58 -41t94 -14.5q100 0 147 47t47 158v426h63v-137q112 2 76 169zM355 729l-10 38q10 3 22 9
t25 19t13 28q0 38 -58 38q-34 0 -75 -16l-12 39q48 22 102 22q46 0 72.5 -19t26.5 -53q0 -30 -22 -54.5t-43 -34.5t-41 -16z" />
    <glyph glyph-name="uni1EED" unicode="&#x1eed;" horiz-adv-x="625" 
d="M483 0h-64q0 69 9 116l-2 1q-21 -58 -68 -91.5t-112 -33.5q-150 0 -150 159v346h63v-322q0 -66 22.5 -99t78.5 -33q70 0 115 61t45 156v237h63v-126q45 2 62.5 37.5t-1.5 120.5h50q27 -93 -8 -144.5t-103 -52.5v-332zM296 561l-10 38q10 3 22 9t25 19t13 28q0 38 -58 38
q-43 0 -75 -16l-11 40q49 21 101 21q46 0 72.5 -19t26.5 -53q0 -30 -22 -54.5t-43 -34.5t-41 -16z" />
    <glyph glyph-name="uni1EEE" unicode="&#x1eee;" horiz-adv-x="758" 
d="M681 707h57q25 -104 -16 -158.5t-117 -55.5v-238q0 -129 -66 -196t-197 -67q-60 0 -105 13.5t-71.5 34.5t-42.5 52.5t-21.5 62t-5.5 67.5v453h64v-446q0 -41 8 -72t28 -57.5t58 -41t94 -14.5q100 0 147 47t47 158v426h63v-137q112 2 76 169zM484 833l35 -26
q-40 -67 -103 -67q-36 0 -75.5 28t-59.5 28q-39 0 -66 -47l-35 26q37 67 103 67q36 0 76 -27.5t60 -27.5q37 0 65 46z" />
    <glyph glyph-name="uni1EEF" unicode="&#x1eef;" horiz-adv-x="625" 
d="M483 0h-64q0 69 9 116l-2 1q-21 -58 -68 -91.5t-112 -33.5q-150 0 -150 159v346h63v-322q0 -66 22.5 -99t78.5 -33q70 0 115 61t45 156v237h63v-126q45 2 62.5 37.5t-1.5 120.5h50q27 -93 -8 -144.5t-103 -52.5v-332zM419 701l34 -27q-38 -69 -101 -69q-34 0 -72.5 28.5
t-58.5 28.5q-35 0 -62 -48l-34 27q38 69 101 69q34 0 72 -28.5t58 -28.5q36 0 63 48z" />
    <glyph glyph-name="uni1EF0" unicode="&#x1ef0;" horiz-adv-x="758" 
d="M681 707h57q25 -104 -16 -158.5t-117 -55.5v-238q0 -129 -66 -196t-197 -67q-60 0 -105 13.5t-71.5 34.5t-42.5 52.5t-21.5 62t-5.5 67.5v453h64v-446q0 -41 8 -72t28 -57.5t58 -41t94 -14.5q100 0 147 47t47 158v426h63v-137q112 2 76 169zM395 -162q0 -19 -13 -32
t-31 -13q-19 0 -32 13t-13 32t13 32t32 13q18 0 31 -13.5t13 -31.5z" />
    <glyph glyph-name="uni1EF1" unicode="&#x1ef1;" horiz-adv-x="625" 
d="M483 0h-64q0 69 9 116l-2 1q-21 -58 -68 -91.5t-112 -33.5q-150 0 -150 159v346h63v-322q0 -66 22.5 -99t78.5 -33q70 0 115 61t45 156v237h63v-126q45 2 62.5 37.5t-1.5 120.5h50q27 -93 -8 -144.5t-103 -52.5v-332zM341 -161q0 -19 -13 -32t-31 -13q-19 0 -32 13
t-13 32t13 32t32 13q18 0 31 -13.5t13 -31.5z" />
    <glyph glyph-name="Ygrave" unicode="&#x1ef2;" horiz-adv-x="519" 
d="M514 675l-223 -408v-267h-64v267l-222 408h72l130 -242q28 -51 54 -112h1q34 73 56 113l128 241h68zM264 770l-15 -38l-172 58l23 54z" />
    <glyph glyph-name="ygrave" unicode="&#x1ef3;" horiz-adv-x="464" 
d="M452 497l-206 -548q-43 -115 -93 -161.5t-132 -46.5l-50 6l7 56q29 -7 57 -7q47 0 80 31t65 112l24 61l-192 497h74l112 -307q18 -51 38 -115h1q15 48 50 150l96 272h69zM249 607l-35 -31l-125 128l44 39z" />
    <glyph glyph-name="uni1EF4" unicode="&#x1ef4;" horiz-adv-x="519" 
d="M514 675l-223 -408v-267h-64v267l-222 408h72l130 -242q28 -51 54 -112h1q34 73 56 113l128 241h68zM304 -161q0 -19 -13 -32t-31 -13q-19 0 -32 13t-13 32t13 32t32 13q18 0 31 -13.5t13 -31.5z" />
    <glyph glyph-name="uni1EF5" unicode="&#x1ef5;" horiz-adv-x="464" 
d="M452 497l-189 -499q-42 -112 -95.5 -161t-135.5 -49q-27 0 -50 5l7 58q25 -7 57 -7q48 0 85 32.5t68 111.5l5 12l-192 497h74l112 -306q28 -82 38 -115h1q9 34 50 151l96 270h69zM291 -275q0 -19 -13 -32t-31 -13q-19 0 -32 13t-13 32t13 32t32 13q18 0 31 -13.5
t13 -31.5z" />
    <glyph glyph-name="uni1EF6" unicode="&#x1ef6;" horiz-adv-x="519" 
d="M514 675l-223 -408v-267h-64v267l-222 408h72l130 -242q28 -51 54 -112h1q34 73 56 113l128 241h68zM264 729l-10 38q10 3 22 9t25 19t13 28q0 38 -58 38q-34 0 -75 -16l-12 39q48 22 102 22q46 0 72.5 -19t26.5 -53q0 -30 -22 -54.5t-43 -34.5t-41 -16z" />
    <glyph glyph-name="uni1EF7" unicode="&#x1ef7;" horiz-adv-x="464" 
d="M452 497l-206 -548q-43 -115 -93 -161.5t-132 -46.5l-50 6l7 56q29 -7 57 -7q47 0 80 31t65 112l24 61l-192 497h74l112 -307q18 -51 38 -115h1q15 48 50 150l96 272h69zM230 561l-10 38q10 3 22 9t25 19t13 28q0 38 -58 38q-43 0 -75 -16l-11 40q49 21 101 21
q46 0 72.5 -19t26.5 -53q0 -30 -22 -54.5t-43 -34.5t-41 -16z" />
    <glyph glyph-name="uni1EF8" unicode="&#x1ef8;" horiz-adv-x="519" 
d="M514 675l-223 -408v-267h-64v267l-222 408h72l130 -242q28 -51 54 -112h1q34 73 56 113l128 241h68zM401 833l35 -26q-40 -67 -103 -67q-36 0 -75.5 28t-59.5 28q-39 0 -66 -47l-35 26q37 67 103 67q36 0 76 -27.5t60 -27.5q37 0 65 46z" />
    <glyph glyph-name="uni1EF9" unicode="&#x1ef9;" horiz-adv-x="464" 
d="M452 497l-206 -548q-43 -115 -93 -161.5t-132 -46.5l-50 6l7 56q29 -7 57 -7q47 0 80 31t65 112l24 61l-192 497h74l112 -307q18 -51 38 -115h1q15 48 50 150l96 272h69zM363 701l34 -27q-38 -69 -101 -69q-34 0 -72.5 28.5t-58.5 28.5q-35 0 -62 -48l-34 27
q38 69 101 69q34 0 72 -28.5t58 -28.5q36 0 63 48z" />
    <glyph glyph-name="figuredash" unicode="&#x2012;" 
d="M501 271h-452v54h452v-54z" />
    <glyph glyph-name="endash" unicode="&#x2013;" 
d="M550 271h-550v54h550v-54z" />
    <glyph glyph-name="emdash" unicode="&#x2014;" horiz-adv-x="1000" 
d="M877 271h-754v54h754v-54z" />
    <glyph glyph-name="uni2015" unicode="&#x2015;" horiz-adv-x="1000" 
d="M877 271h-754v54h754v-54z" />
    <glyph glyph-name="underscoredbl" unicode="&#x2017;" 
d="M550 -130h-550v46h550v-46zM550 -251h-550v45h550v-45z" />
    <glyph glyph-name="quoteleft" unicode="&#x2018;" horiz-adv-x="227" 
d="M155 746l28 -26q-29 -31 -42 -59t-12 -46t10 -31q15 -22 4 -45t-36 -23q-31 0 -44 30t8.5 85.5t83.5 114.5z" />
    <glyph glyph-name="quoteright" unicode="&#x2019;" horiz-adv-x="227" 
d="M71 511l-29 25q29 31 42 59.5t12.5 47t-10.5 30.5q-16 22 -4.5 44.5t37.5 22.5q31 0 44 -30t-9 -85.5t-83 -113.5z" />
    <glyph glyph-name="quotesinglbase" unicode="&#x201a;" horiz-adv-x="227" 
d="M71 -141l-29 25q29 31 42 59.5t12.5 47t-10.5 30.5q-16 22 -4.5 44.5t37.5 22.5q31 0 44 -29.5t-9 -85t-83 -114.5z" />
    <glyph glyph-name="quotereversed" unicode="&#x201b;" horiz-adv-x="227" 
d="M185 536l-29 -25q-96 93 -96 169q0 28 13.5 44t36.5 16q17 0 28.5 -12t11.5 -29q0 -12 -9.5 -27t-9.5 -31q0 -47 54 -105z" />
    <glyph glyph-name="quotedblleft" unicode="&#x201c;" horiz-adv-x="397" 
d="M324 746l29 -26q-29 -31 -42 -59t-12.5 -46t9.5 -31q16 -22 5 -45t-37 -23q-31 0 -44 30t9 85.5t83 114.5zM155 746l28 -26q-29 -31 -42 -59t-12 -46t10 -31q15 -22 4 -45t-36 -23q-31 0 -44 30t8.5 85.5t83.5 114.5z" />
    <glyph glyph-name="quotedblright" unicode="&#x201d;" horiz-adv-x="397" 
d="M240 511l-28 25q29 31 42 59.5t12 46.5t-10 31q-15 22 -4 44.5t36 22.5q31 0 44 -30t-8.5 -85t-83.5 -114zM71 511l-29 25q29 31 42 59.5t12.5 47t-10.5 30.5q-16 22 -4.5 44.5t37.5 22.5q31 0 44 -30t-9 -85.5t-83 -113.5z" />
    <glyph glyph-name="quotedblbase" unicode="&#x201e;" horiz-adv-x="397" 
d="M240 -141l-28 25q29 31 42 59.5t12 46.5t-10 31q-15 22 -4 44.5t36 22.5q31 0 44 -29.5t-8.5 -85t-83.5 -114.5zM71 -141l-29 25q29 31 42 59.5t12.5 47t-10.5 30.5q-16 22 -4.5 44.5t37.5 22.5q31 0 44 -29.5t-9 -85t-83 -114.5z" />
    <glyph glyph-name="dagger" unicode="&#x2020;" horiz-adv-x="442" 
d="M389 574h-144l14 -105l-16 -248h-44l-15 248l13 105h-144v49h144l-13 138h75l-14 -138h144v-49z" />
    <glyph glyph-name="daggerdbl" unicode="&#x2021;" horiz-adv-x="442" 
d="M389 302h-143l13 -136h-76l14 136h-144v49h144l-13 112l13 113h-144v49h144l-13 136h75l-13 -136h143v-49h-143l13 -113l-13 -112h143v-49z" />
    <glyph glyph-name="bullet" unicode="&#x2022;" horiz-adv-x="419" 
d="M311 297q0 -42 -30 -71.5t-72 -29.5t-71.5 29.5t-29.5 71.5t29.5 71.5t71.5 29.5t72 -29.5t30 -71.5z" />
    <glyph glyph-name="onedotlead" unicode="&#x2024;" horiz-adv-x="500" 
d="M298 40q0 -20 -14 -34t-34 -14t-34 14t-14 34t14 34t34 14t34 -14t14 -34z" />
    <glyph glyph-name="twodotlead" unicode="&#x2025;" horiz-adv-x="500" 
d="M423 40q0 -20 -14 -34t-34 -14t-34 14t-14 34t14 34t34 14t34 -14t14 -34zM173 40q0 -20 -14 -34t-34 -14t-34 14t-14 34t14 34t34 14t34 -14t14 -34z" />
    <glyph glyph-name="ellipsis" unicode="&#x2026;" horiz-adv-x="623" 
d="M555 40q0 -20 -14 -34t-34 -14q-19 0 -33.5 14t-14.5 34t14 34t34 14t34 -14t14 -34zM353 40q0 -20 -14 -34t-34 -14q-19 0 -33 14t-14 34t13.5 34t33.5 14t34 -14t14 -34zM151 40q0 -20 -14 -34t-34 -14q-19 0 -33 14t-14 34t13.5 34t33.5 14t34 -14t14 -34z" />
    <glyph glyph-name="perthousand" unicode="&#x2030;" horiz-adv-x="1007" 
d="M314 541q0 -73 -39 -115t-97 -42q-126 0 -126 143q0 72 39 114t97 42q126 0 126 -142zM259 534q0 102 -75 102q-36 0 -56 -28t-20 -75q0 -103 74 -103q36 0 56.5 28t20.5 76zM629 657l-534 -671l-40 31l533 672zM632 149q0 -73 -38.5 -115t-97.5 -42q-126 0 -126 142
q0 72 39 114t97 42q126 0 126 -141zM576 142q0 102 -74 102q-36 0 -56 -28t-20 -75q0 -52 17 -77.5t57 -25.5q36 0 56 28t20 76zM944 149q0 -73 -38.5 -115t-97.5 -42q-126 0 -126 142q0 72 39 114t97 42q126 0 126 -141zM889 142q0 102 -75 102q-36 0 -56 -28t-20 -75
q0 -103 74 -103q36 0 56.5 28t20.5 76z" />
    <glyph glyph-name="minute" unicode="&#x2032;" horiz-adv-x="183" 
d="M160 697l-53 -213h-44l28 213h69z" />
    <glyph glyph-name="second" unicode="&#x2033;" horiz-adv-x="332" 
d="M309 697l-53 -213h-44l27 213h70zM160 697l-53 -213h-44l28 213h69z" />
    <glyph glyph-name="guilsinglleft" unicode="&#x2039;" horiz-adv-x="314" 
d="M230 156l-46 -31l-121 169l122 171l45 -29l-102 -141z" />
    <glyph glyph-name="guilsinglright" unicode="&#x203a;" horiz-adv-x="314" 
d="M251 297l-124 -172l-44 30l103 141l-101 139l45 30z" />
    <glyph glyph-name="exclamdbl" unicode="&#x203c;" horiz-adv-x="570" 
d="M207 699l-12 -545h-51l-13 545h76zM217 40q0 -20 -14 -34t-34 -14t-34 14t-14 34t14 33.5t34 13.5t34 -13.5t14 -33.5zM461 699l-12 -545h-51l-13 545h76zM471 40q0 -20 -14 -34t-34 -14t-34 14t-14 34t14 33.5t34 13.5t34 -13.5t14 -33.5z" />
    <glyph glyph-name="uni203D" unicode="&#x203d;" horiz-adv-x="500" 
d="M258 700l-1 -61q98 -9 142.5 -50.5t44.5 -100.5q0 -32 -14.5 -60.5t-36 -47.5t-47 -43t-47.5 -46.5t-37 -58t-15 -78.5h-52l-9 435q-57 -2 -138 -18l-1 53q74 14 138 16l-1 60h74zM221 87q19 0 33 -13.5t14 -33.5t-13.5 -34t-33.5 -14t-34 14t-14 34t14 33.5t34 13.5z
M256 587l-6 -276q19 26 54.5 57.5t54.5 56.5t19 58q0 90 -122 104z" />
    <glyph glyph-name="uni203E" unicode="&#x203e;" 
d="M550 804h-550v49h550v-49z" />
    <glyph glyph-name="fraction" unicode="&#x2044;" horiz-adv-x="212" 
d="M456 770l-630 -904l-45 30l631 904z" />
    <glyph glyph-name="fraction" unicode="&#x2215;" horiz-adv-x="212" 
d="M456 770l-630 -904l-45 30l631 904z" />
    <glyph glyph-name="zero.superior" unicode="&#x2070;" horiz-adv-x="422" 
d="M374 576q0 -95 -42.5 -155t-125.5 -60q-158 0 -158 208q0 94 42.5 154.5t125.5 60.5q158 0 158 -208zM313 571q0 166 -102 166q-54 0 -78 -46.5t-24 -116.5q0 -166 102 -166q37 0 61 24.5t32.5 59t8.5 79.5z" />
    <glyph glyph-name="four.superior" unicode="&#x2074;" horiz-adv-x="372" 
d="M347 464h-70v-96h-58v96h-193l-5 40l173 273h83v-263h70v-50zM219 514v216l-137 -218q37 2 137 2z" />
    <glyph glyph-name="five.superior" unicode="&#x2075;" horiz-adv-x="333" 
d="M54 371l5 49q33 -12 73 -12q43 0 69.5 24t26.5 60q0 79 -110 79q-28 0 -49 -4v210h198v-52h-144v-109q8 1 18 1q68 0 108.5 -31t40.5 -84q0 -64 -45.5 -102.5t-117.5 -38.5q-41 0 -73 10z" />
    <glyph glyph-name="six.superior" unicode="&#x2076;" horiz-adv-x="392" 
d="M312 780l-6 -47q-22 4 -51 4q-62 0 -96 -34q-18 -18 -28 -43t-15 -50.5t-7 -30.5q13 22 41 34.5t61 12.5q61 0 98 -33t37 -91q0 -65 -42 -103t-109 -38q-142 0 -142 176q0 112 51.5 179.5t154.5 67.5q33 0 53 -4zM286 495q0 43 -23.5 64.5t-59.5 21.5q-39 0 -64 -21.5
t-25 -58.5q0 -41 23.5 -67t63.5 -26q38 0 61.5 24t23.5 63z" />
    <glyph glyph-name="seven.superior" unicode="&#x2077;" horiz-adv-x="315" 
d="M283 777v-49q-88 -189 -125 -360h-66q26 99 64 201.5t69 155.5q-17 -1 -197 -1v53h255z" />
    <glyph glyph-name="eight.superior" unicode="&#x2078;" horiz-adv-x="377" 
d="M330 473q0 -51 -39 -82t-108 -31q-66 0 -101 28t-35 76q0 59 90 111q-82 42 -82 103q0 49 37 78t102 29q61 0 94.5 -27t33.5 -71q0 -55 -83 -104q47 -24 69 -49t22 -61zM265 683q0 57 -76 57q-36 0 -56 -15t-20 -40q0 -24 18 -42.5t60 -38.5q74 40 74 79zM272 466
q0 49 -88 87q-79 -42 -79 -85q0 -31 22.5 -47t61.5 -16q38 0 60.5 17t22.5 44z" />
    <glyph glyph-name="nine.superior" unicode="&#x2079;" horiz-adv-x="393" 
d="M66 368l5 48q30 -8 67 -8q115 0 137 128q1 4 3.5 14.5t4.5 16.5q-30 -48 -101 -48q-60 0 -97.5 33t-37.5 91q0 65 42 103t109 38q74 0 108 -48t34 -131q0 -111 -52 -177.5t-155 -66.5q-34 0 -67 7zM279 647q0 41 -23 65.5t-63 24.5q-38 0 -62 -23.5t-24 -61.5
q0 -41 22 -64.5t62 -23.5q39 0 63.5 22.5t24.5 60.5z" />
    <glyph glyph-name="uni207A" unicode="&#x207a;" horiz-adv-x="400" 
d="M351 541h-124v-123h-54v123h-124v46h124v122h54v-122h124v-46z" />
    <glyph glyph-name="uni207B" unicode="&#x207b;" horiz-adv-x="400" 
d="M351 541h-302v46h302v-46z" />
    <glyph glyph-name="uni207C" unicode="&#x207c;" horiz-adv-x="400" 
d="M351 465h-302v45h302v-45zM351 617h-302v46h302v-46z" />
    <glyph glyph-name="parenleft.superior" unicode="&#x207d;" horiz-adv-x="301" 
d="M240 235l-54 -15q-94 164 -94 340q0 182 94 345l53 -14q-87 -153 -87 -327t88 -329z" />
    <glyph glyph-name="parenright.superior" unicode="&#x207e;" horiz-adv-x="301" 
d="M115 220l-53 15q87 152 87 326q0 176 -88 330l54 14q94 -164 94 -340q0 -182 -94 -345z" />
    <glyph glyph-name="nsuperior" unicode="&#x207f;" horiz-adv-x="420" 
d="M347 368h-58v213q0 77 -61 77q-43 0 -70 -36.5t-27 -94.5v-159h-58v329h57q0 -42 -6 -69q37 76 121 76q102 0 102 -106v-230z" />
    <glyph glyph-name="zero.inferior" unicode="&#x2080;" horiz-adv-x="422" 
d="M374 106q0 -95 -42.5 -155t-125.5 -60q-158 0 -158 208q0 94 42.5 154.5t125.5 60.5q158 0 158 -208zM313 101q0 166 -102 166q-54 0 -78 -46.5t-24 -116.5q0 -166 102 -166q37 0 61 24.5t32.5 59t8.5 79.5z" />
    <glyph glyph-name="one.inferior" unicode="&#x2081;" horiz-adv-x="262" 
d="M182 -102h-60v352l-93 -37l-11 52l116 42h48v-409z" />
    <glyph glyph-name="two.inferior" unicode="&#x2082;" horiz-adv-x="346" 
d="M307 -102h-265v45l108 107q75 76 75 134q0 38 -20 60t-59 22q-48 0 -89 -25l-10 45q52 28 111 28q61 0 95 -33t34 -87q0 -81 -85 -163l-83 -82q49 2 188 2v-53z" />
    <glyph glyph-name="three.inferior" unicode="&#x2083;" horiz-adv-x="335" 
d="M41 -100l8 51q36 -12 78 -12q45 0 70.5 21t25.5 55q0 40 -39 59t-115 10v47q70 0 104.5 17.5t34.5 58.5q0 60 -73 60q-39 0 -80 -18l-7 47q49 18 99 18q56 0 89 -26t33 -74q0 -74 -72 -97q40 -7 64 -34t24 -63q0 -57 -47 -93t-119 -36q-33 0 -78 9z" />
    <glyph glyph-name="four.inferior" unicode="&#x2084;" horiz-adv-x="372" 
d="M347 -6h-70v-96h-58v96h-193l-5 40l173 273h83v-263h70v-50zM219 44v216l-137 -218q37 2 137 2z" />
    <glyph glyph-name="five.inferior" unicode="&#x2085;" horiz-adv-x="333" 
d="M54 -99l5 49q33 -12 73 -12q43 0 69.5 24t26.5 60q0 79 -110 79q-28 0 -49 -4v210h198v-52h-144v-109q8 1 18 1q68 0 108.5 -31t40.5 -84q0 -64 -45.5 -102.5t-117.5 -38.5q-41 0 -73 10z" />
    <glyph glyph-name="six.inferior" unicode="&#x2086;" horiz-adv-x="392" 
d="M312 310l-6 -47q-22 4 -51 4q-62 0 -96 -34q-18 -18 -28 -43t-15 -50.5t-7 -30.5q13 22 41 34.5t61 12.5q61 0 98 -33t37 -91q0 -65 -42 -103t-109 -38q-142 0 -142 176q0 112 51.5 179.5t154.5 67.5q33 0 53 -4zM286 25q0 43 -23.5 64.5t-59.5 21.5q-39 0 -64 -21.5
t-25 -58.5q0 -41 23.5 -67t63.5 -26q38 0 61.5 24t23.5 63z" />
    <glyph glyph-name="seven.inferior" unicode="&#x2087;" horiz-adv-x="315" 
d="M283 307v-49q-88 -189 -125 -360h-66q26 99 64 201.5t69 155.5q-17 -1 -197 -1v53h255z" />
    <glyph glyph-name="eight.inferior" unicode="&#x2088;" horiz-adv-x="377" 
d="M330 3q0 -51 -39 -82t-108 -31q-66 0 -101 28t-35 76q0 59 90 111q-82 42 -82 103q0 49 37 78t102 29q61 0 94.5 -27t33.5 -71q0 -55 -83 -104q47 -24 69 -49t22 -61zM265 213q0 57 -76 57q-36 0 -56 -15t-20 -40q0 -24 18 -42.5t60 -38.5q74 40 74 79zM272 -4
q0 49 -88 87q-79 -42 -79 -85q0 -31 22.5 -47t61.5 -16q38 0 60.5 17t22.5 44z" />
    <glyph glyph-name="nine.inferior" unicode="&#x2089;" horiz-adv-x="393" 
d="M66 -102l5 48q30 -8 67 -8q115 0 137 128q1 4 3.5 14.5t4.5 16.5q-30 -48 -101 -48q-60 0 -97.5 33t-37.5 91q0 65 42 103t109 38q74 0 108 -48t34 -131q0 -111 -52 -177.5t-155 -66.5q-34 0 -67 7zM279 177q0 41 -23 65.5t-63 24.5q-38 0 -62 -23.5t-24 -61.5
q0 -41 22 -64.5t62 -23.5q39 0 63.5 22.5t24.5 60.5z" />
    <glyph glyph-name="uni208A" unicode="&#x208a;" horiz-adv-x="400" 
d="M351 71h-124v-123h-54v123h-124v46h124v122h54v-122h124v-46z" />
    <glyph glyph-name="uni208B" unicode="&#x208b;" horiz-adv-x="400" 
d="M351 71h-302v46h302v-46z" />
    <glyph glyph-name="uni208C" unicode="&#x208c;" horiz-adv-x="400" 
d="M351 -5h-302v45h302v-45zM351 147h-302v46h302v-46z" />
    <glyph glyph-name="parenleft.inferior" unicode="&#x208d;" horiz-adv-x="301" 
d="M240 -235l-54 -15q-94 164 -94 340q0 182 94 345l53 -14q-87 -153 -87 -327t88 -329z" />
    <glyph glyph-name="parenright.inferior" unicode="&#x208e;" horiz-adv-x="301" 
d="M115 -250l-53 15q87 151 87 326q0 176 -88 330l54 14q94 -164 94 -340q0 -182 -94 -345z" />
    <glyph glyph-name="colonmonetary" unicode="&#x20a1;" horiz-adv-x="603" 
d="M547 86l5 -56q-81 -34 -168 -37l-17 -144h-49l17 144q-34 0 -69 8l-18 -152h-49l20 167q-167 66 -167 308q0 137 59 230t184 119l14 119h49l-13 -112q42 2 70 0l13 112h49l-13 -117q36 -4 80 -16l-6 -59q-33 11 -80 20l-69 -572q86 3 158 38zM340 627l-68 -566
q33 -12 68 -13l70 578q-54 2 -70 1zM226 82l64 535q-86 -22 -128.5 -99t-42.5 -185q0 -186 107 -251z" />
    <glyph glyph-name="cruzeiro" unicode="&#x20a2;" horiz-adv-x="570" 
d="M376 -151h-46v150q-40 -8 -85 -8v-142h-46v144q-83 6 -130 17l4 65q45 -15 126 -24v289q-66 23 -103.5 61.5t-37.5 104.5q0 54 33.5 97.5t107.5 64.5v124h46v-114q27 4 85 6v108h46v-110q58 -3 104 -12l-4 -60q-43 12 -100 17v-274q142 -47 142 -165q0 -63 -37 -109.5
t-105 -68.5v-161zM245 326v-278q47 0 85 6v245zM245 624v-228q22 -8 85 -28v262q-55 0 -85 -6zM376 282v-216q76 24 76 111q0 66 -76 105zM199 411v202q-78 -29 -78 -100q0 -69 78 -102z" />
    <glyph glyph-name="franc" unicode="&#x20a3;" 
d="M471 623h-269v-183h213v-50h-213v-90h213v-50h-213v-250h-64v250h-99v50h99v90h-99v50h99v235h333v-52z" />
    <glyph glyph-name="lira" unicode="&#x20a4;" 
d="M474 0h-397v45q53 47 78 84t25 78q0 13 -2 39h-120v46h115l-12 82h-103v46h97q-5 45 -5 78q0 94 47.5 138.5t133.5 44.5q63 0 117 -17l-14 -54q-62 20 -110 20q-111 0 -111 -124q0 -30 7 -86h173v-46h-168q11 -77 12 -82h156v-46h-152q2 -22 2 -33q0 -47 -21 -83t-67 -76
q44 2 85 2h234v-56z" />
    <glyph glyph-name="peseta" unicode="&#x20a7;" horiz-adv-x="1271" 
d="M160 0h-64v675q85 3 155 3q106 0 166.5 -49.5t63.5 -131.5h113v168l63 17v-185h152v-50h-152v-289q0 -64 16 -87t62 -23q54 0 129 26q72 -29 145 -29q59 0 91.5 23t32.5 64q0 35 -26 56t-63.5 32t-75 24.5t-63.5 44.5t-26 80q0 59 49.5 97.5t137.5 38.5q44 0 100 -9
l-7 -56q-52 15 -102 15q-56 0 -84.5 -21.5t-28.5 -59.5q0 -35 26 -55.5t63 -32t74.5 -25t63.5 -44.5t26 -80q0 -63 -52 -104t-145 -41q-79 0 -147 21q-68 -20 -132 -20q-71 0 -99 33.5t-28 111.5v309h-117q-13 -82 -78 -130t-166 -48l-73 4v-273zM160 623v-294q37 -6 81 -6
q85 0 129 41.5t44 113.5q0 147 -175 147z" />
    <glyph glyph-name="dong" unicode="&#x20ab;" horiz-adv-x="600" 
d="M464 121h-64q0 63 9 106h-2q-22 -52 -63 -82.5t-95 -30.5q-80 0 -122.5 52.5t-42.5 146.5q0 112 61.5 173t166.5 61q34 0 89 -5v86h-124v47h124v86h63v-86h77v-47h-77v-507zM401 365v123q-46 10 -92 10q-75 0 -117.5 -44t-42.5 -136q0 -154 113 -154q67 0 103 59.5
t36 141.5zM532 0h-481v47h481v-47z" />
    <glyph glyph-name="Euro" unicode="&#x20ac;" horiz-adv-x="592" 
d="M542 95l21 -47q-91 -56 -198 -56q-110 0 -175.5 63t-79.5 182h-96v46h93q-1 13 -1 40q0 23 2 61h-94v46h98q19 130 93 191.5t182 61.5q99 0 167 -42l-23 -49q-65 41 -154 41q-76 0 -130 -50t-68 -153h243v-46h-246q-2 -32 -2 -50q0 -34 1 -51h247v-46h-243
q11 -93 62.5 -142.5t138.5 -49.5q86 0 162 50z" />
    <glyph glyph-name="uni20B4" unicode="&#x20b4;" 
d="M434 71l12 -48q-72 -31 -157 -31q-81 0 -131 36.5t-50 106.5q0 57 43 117h-89v46h126q17 19 51 52t46 45h-223v46h262q40 52 40 96t-28 69t-82 25q-62 0 -125 -25l-12 49q71 28 146 28t121 -36.5t46 -98.5q0 -49 -37 -107h95v-46h-130q-10 -11 -96 -97h226v-46h-267
q-47 -57 -47 -107q0 -47 32 -74t93 -27q69 0 135 27z" />
    <glyph glyph-name="uni2103" unicode="&#x2103;" horiz-adv-x="901" 
d="M304 616q0 -52 -37.5 -85t-87.5 -33q-54 0 -86 31.5t-32 84.5q0 54 37 87t86 33q58 0 89 -33.5t31 -84.5zM251 615q0 30 -16 53t-53 23q-29 0 -48.5 -21t-19.5 -54q0 -35 18.5 -55t48.5 -20t50 21t20 53zM840 85l13 -53q-90 -39 -194 -39q-148 0 -225 87.5t-77 243.5
q0 161 80 259.5t245 98.5q85 0 161 -23l-12 -59q-79 28 -161 28q-124 0 -184.5 -82.5t-60.5 -210.5q0 -138 62.5 -212.5t186.5 -74.5q83 0 166 37z" />
    <glyph glyph-name="uni2105" unicode="&#x2105;" horiz-adv-x="733" 
d="M700 164q0 -78 -41.5 -124t-111.5 -46q-146 0 -146 165q0 77 41.5 123t111.5 46q146 0 146 -164zM607 665l-472 -685l-43 30l472 685zM276 409l9 -46q-44 -18 -98 -18q-141 0 -141 155q0 82 41 130.5t120 48.5q42 0 76 -12l-10 -49q-33 15 -69 15q-48 0 -73.5 -33.5
t-25.5 -91.5q0 -116 95 -116q39 0 76 17zM642 157q0 127 -91 127q-43 0 -67 -31t-24 -88q0 -126 91 -126q42 0 66.5 31t24.5 87z" />
    <glyph glyph-name="uni2109" unicode="&#x2109;" horiz-adv-x="762" 
d="M304 616q0 -52 -37.5 -85t-87.5 -33q-54 0 -86 31.5t-32 84.5q0 54 37 87t86 33q58 0 89 -33.5t31 -84.5zM251 615q0 30 -16 53t-53 23q-29 0 -48.5 -21t-19.5 -54q0 -35 18.5 -55t48.5 -20t50 21t20 53zM723 623h-273v-251h254v-51h-254v-321h-64v675h337v-52z" />
    <glyph glyph-name="uni2113" unicode="&#x2113;" horiz-adv-x="487" 
d="M388 174l54 -11q-17 -88 -57 -130t-108 -42q-139 0 -139 163v94l-89 -99l-32 41l121 133v235q0 83 40 130t106 47q56 0 86.5 -31t30.5 -87q0 -60 -44 -122.5t-156 -184.5v-140q0 -70 21 -98t64 -28q39 0 63.5 30.5t38.5 99.5zM201 561v-177q72 81 104 129.5t32 88.5
q0 82 -61 82q-75 0 -75 -123z" />
    <glyph glyph-name="uni2116" unicode="&#x2116;" horiz-adv-x="976" 
d="M914 522q0 -75 -44 -122t-114 -47q-143 0 -143 166q0 71 43.5 117.5t111.5 46.5q27 0 50.5 -7t46 -23.5t36 -50t13.5 -80.5zM900 239h-272v50h272v-50zM526 0h-71l-202 399q-67 129 -101 212q7 -187 7 -411v-200h-63v675h89l192 -379q65 -126 91 -184q-6 208 -6 387v176
h64v-675zM852 523q0 47 -20 78.5t-67 31.5q-37 0 -63.5 -28.5t-26.5 -85.5q0 -116 86 -116q42 0 66.5 30t24.5 90z" />
    <glyph glyph-name="uni2117" unicode="&#x2117;" horiz-adv-x="752" 
d="M374 665q138 0 234.5 -95.5t96.5 -232.5t-97 -234t-234 -97q-141 0 -236.5 95t-95.5 234q0 137 97 233.5t235 96.5zM374 617q-116 0 -197.5 -82t-81.5 -198t82 -199.5t197 -83.5q116 0 197 82t81 199q0 115 -81.5 198.5t-196.5 83.5zM320 156h-54v351q84 2 111 2
q69 0 107 -29.5t38 -79.5q0 -57 -45 -91.5t-112 -34.5q-33 0 -45 2v-120zM320 464v-142q24 -2 48 -2q44 0 70.5 20t26.5 54q0 71 -100 71q-31 0 -45 -1z" />
    <glyph glyph-name="servicemark" unicode="&#x2120;" horiz-adv-x="705" 
d="M643 394h-52l-25 166l-7 58l-14 -49l-54 -175h-58l-53 177l-12 47l-3 -37l-28 -187h-48l42 281h71l52 -176l12 -50l9 45l57 181h69zM66 397l5 44q31 -12 60 -12q24 0 39.5 11t15.5 33q0 19 -19 31t-42.5 18.5t-42.5 25t-19 49.5q0 37 27.5 59.5t75.5 22.5q25 0 52 -5
l-4 -40q-22 7 -49 7q-52 0 -52 -39q0 -18 19.5 -30.5t43 -19t43 -25.5t19.5 -49q0 -39 -30 -63.5t-80 -24.5q-30 0 -62 7z" />
    <glyph glyph-name="trademark" unicode="&#x2122;" horiz-adv-x="705" 
d="M643 394h-52l-25 166l-7 58l-14 -49l-54 -175h-58l-53 177l-12 47l-3 -37l-28 -187h-48l42 281h71l52 -176l12 -50l9 45l57 181h69zM264 635h-78v-241h-53v241h-78v40h209v-40z" />
    <glyph glyph-name="ohm" unicode="&#x2126;" horiz-adv-x="724" 
d="M677 0h-229v55q75 61 112.5 126t37.5 161q0 127 -61.5 207t-174.5 80q-100 0 -167.5 -77t-67.5 -205q0 -97 34 -162.5t116 -129.5v-55h-230v56h156q-145 105 -145 285q0 159 89 250.5t223 91.5q132 0 214 -86t82 -247q0 -180 -150 -294h161v-56z" />
    <glyph glyph-name="estimated" unicode="&#x212e;" horiz-adv-x="807" 
d="M656 187l43 -26q-50 -83 -130 -126.5t-173 -43.5q-145 0 -243.5 99t-98.5 245q0 145 100 244.5t246 99.5q145 0 243.5 -99t98.5 -245h-538v-177q0 -26 7.5 -41.5t26.5 -29.5q66 -50 160 -50q79 0 146 38.5t112 111.5zM204 380h388v132q0 26 -7.5 41.5t-26.5 29.5
q-66 50 -160 50t-160 -50q-19 -14 -26.5 -29.5t-7.5 -41.5v-132z" />
    <glyph glyph-name="onethird" unicode="&#x2153;" horiz-adv-x="831" 
d="M182 368h-60v352l-93 -37l-11 52l116 42h48v-409zM523 -100l8 51q36 -12 78 -12q45 0 70.5 21t25.5 55q0 40 -39 59t-115 10v47q70 0 104.5 17.5t34.5 58.5q0 60 -73 60q-39 0 -80 -18l-7 47q50 18 99 18q56 0 89 -26t33 -74q0 -74 -72 -97q40 -7 64 -34t24 -63
q0 -57 -47 -93t-119 -36q-33 0 -78 9zM719 770l-630 -904l-45 30l631 904z" />
    <glyph glyph-name="twothirds" unicode="&#x2154;" horiz-adv-x="914" 
d="M307 368h-265v45l108 107q75 76 75 134q0 38 -20 60t-59 22q-48 0 -89 -25l-10 45q52 28 111 28q61 0 95 -33t34 -87q0 -81 -85 -163l-83 -82q49 2 188 2v-53zM802 770l-630 -904l-45 30l631 904zM606 -100l8 51q36 -12 78 -12q45 0 70.5 21t25.5 55q0 40 -39 59t-115 10
v47q70 0 104.5 17.5t34.5 58.5q0 60 -73 60q-39 0 -80 -18l-7 47q49 18 99 18q56 0 89 -26t33 -74q0 -74 -72 -97q40 -7 64 -34t24 -63q0 -57 -47 -93t-119 -36q-33 0 -78 9z" />
    <glyph glyph-name="onefifth" unicode="&#x2155;" horiz-adv-x="818" 
d="M182 368h-60v352l-93 -37l-11 52l116 42h48v-409zM719 770l-630 -904l-45 30l631 904zM526 -99l5 49q33 -12 73 -12q43 0 69.5 24t26.5 60q0 79 -110 79q-28 0 -49 -4v210h198v-52h-144v-109q8 1 18 1q68 0 108.5 -31t40.5 -84q0 -64 -45.5 -102.5t-117.5 -38.5
q-41 0 -73 10z" />
    <glyph glyph-name="twofifths" unicode="&#x2156;" horiz-adv-x="901" 
d="M307 368h-265v45l108 107q75 76 75 134q0 38 -20 60t-59 22q-48 0 -89 -25l-10 45q52 28 111 28q61 0 95 -33t34 -87q0 -81 -85 -163l-83 -82q49 2 188 2v-53zM802 770l-630 -904l-45 30l631 904zM609 -99l5 49q33 -12 73 -12q43 0 69.5 24t26.5 60q0 79 -110 79
q-28 0 -49 -4v210h198v-52h-144v-109q8 1 18 1q68 0 108.5 -31t40.5 -84q0 -64 -45.5 -102.5t-117.5 -38.5q-41 0 -73 10z" />
    <glyph glyph-name="threefifths" unicode="&#x2157;" horiz-adv-x="840" 
d="M548 -99l5 49q33 -12 73 -12q43 0 69.5 24t26.5 60q0 79 -110 79q-28 0 -49 -4v210h198v-52h-144v-109q8 1 18 1q68 0 108.5 -31t40.5 -84q0 -64 -45.5 -102.5t-117.5 -38.5q-41 0 -73 10zM41 370l8 51q36 -12 78 -12q45 0 70.5 21t25.5 55q0 40 -39 59t-115 10v47
q70 0 104.5 17.5t34.5 58.5q0 60 -73 60q-39 0 -80 -18l-7 47q50 18 99 18q56 0 89 -26t33 -74q0 -74 -72 -97q40 -7 64 -34t24 -63q0 -57 -47 -93t-119 -36q-33 0 -78 9zM741 770l-630 -904l-45 30l631 904z" />
    <glyph glyph-name="fourfifths" unicode="&#x2158;" horiz-adv-x="913" 
d="M347 464h-70v-96h-58v96h-193l-5 40l173 273h83v-263h70v-50zM219 514v216l-137 -218q37 2 137 2zM814 770l-630 -904l-45 30l631 904zM621 -99l5 49q33 -12 73 -12q43 0 69.5 24t26.5 60q0 79 -110 79q-28 0 -49 -4v210h198v-52h-144v-109q8 1 18 1q68 0 108.5 -31
t40.5 -84q0 -64 -45.5 -102.5t-117.5 -38.5q-41 0 -73 10z" />
    <glyph glyph-name="onesixth" unicode="&#x2159;" horiz-adv-x="857" 
d="M762 310l-6 -47q-22 4 -51 4q-62 0 -96 -34q-18 -18 -28 -43t-15 -50.5t-7 -30.5q13 22 41 34.5t61 12.5q61 0 98 -33t37 -91q0 -65 -42 -103t-109 -38q-142 0 -142 176q0 112 51.5 179.5t154.5 67.5q33 0 53 -4zM736 25q0 43 -23.5 64.5t-59.5 21.5q-39 0 -64 -21.5
t-25 -58.5q0 -41 23.5 -67t63.5 -26q38 0 61.5 24t23.5 63zM182 368h-60v352l-93 -37l-11 52l116 42h48v-409zM719 770l-630 -904l-45 30l631 904z" />
    <glyph glyph-name="fivesixths" unicode="&#x215a;" horiz-adv-x="913" 
d="M54 371l5 49q33 -12 73 -12q43 0 69.5 24t26.5 60q0 79 -110 79q-28 0 -49 -4v210h198v-52h-144v-109q8 1 18 1q68 0 108.5 -31t40.5 -84q0 -64 -45.5 -102.5t-117.5 -38.5q-41 0 -73 10zM818 310l-6 -47q-22 4 -51 4q-62 0 -96 -34q-18 -18 -28 -43t-15 -50.5t-7 -30.5
q13 22 41 34.5t61 12.5q61 0 98 -33t37 -91q0 -65 -42 -103t-109 -38q-142 0 -142 176q0 112 51.5 179.5t154.5 67.5q33 0 53 -4zM792 25q0 43 -23.5 64.5t-59.5 21.5q-39 0 -64 -21.5t-25 -58.5q0 -41 23.5 -67t63.5 -26q38 0 61.5 24t23.5 63zM775 770l-630 -904l-45 30
l631 904z" />
    <glyph glyph-name="oneeighth" unicode="&#x215b;" horiz-adv-x="850" 
d="M182 368h-60v352l-93 -37l-11 52l116 42h48v-409zM719 770l-630 -904l-45 30l631 904zM787 3q0 -51 -39 -82t-108 -31q-66 0 -101 28t-35 76q0 59 90 111q-82 42 -82 103q0 49 37 78t102 29q61 0 94.5 -27t33.5 -71q0 -55 -83 -104q47 -24 69 -49t22 -61zM722 213
q0 57 -76 57q-36 0 -56 -15t-20 -40q0 -24 18 -42.5t60 -38.5q74 40 74 79zM729 -4q0 49 -88 87q-79 -42 -79 -85q0 -31 22.5 -47t61.5 -16q38 0 60.5 17t22.5 44z" />
    <glyph glyph-name="threeeighths" unicode="&#x215c;" horiz-adv-x="873" 
d="M41 370l8 51q36 -12 78 -12q45 0 70.5 21t25.5 55q0 40 -39 59t-115 10v47q70 0 104.5 17.5t34.5 58.5q0 60 -73 60q-39 0 -80 -18l-7 47q50 18 99 18q56 0 89 -26t33 -74q0 -74 -72 -97q40 -7 64 -34t24 -63q0 -57 -47 -93t-119 -36q-33 0 -78 9zM741 770l-630 -904
l-45 30l631 904zM809 3q0 -51 -39 -82t-108 -31q-66 0 -101 28t-35 76q0 59 90 111q-82 42 -82 103q0 49 37 78t102 29q61 0 94.5 -27t33.5 -71q0 -55 -83 -104q47 -24 69 -49t22 -61zM744 213q0 57 -76 57q-36 0 -56 -15t-20 -40q0 -24 18 -42.5t60 -38.5q74 40 74 79z
M751 -4q0 49 -88 87q-79 -42 -79 -85q0 -31 22.5 -47t61.5 -16q38 0 60.5 17t22.5 44z" />
    <glyph glyph-name="fiveeighths" unicode="&#x215d;" horiz-adv-x="907" 
d="M54 371l5 49q33 -12 73 -12q43 0 69.5 24t26.5 60q0 79 -110 79q-28 0 -49 -4v210h198v-52h-144v-109q8 1 18 1q68 0 108.5 -31t40.5 -84q0 -64 -45.5 -102.5t-117.5 -38.5q-41 0 -73 10zM775 770l-630 -904l-45 30l631 904zM843 3q0 -51 -39 -82t-108 -31q-66 0 -101 28
t-35 76q0 59 90 111q-82 42 -82 103q0 49 37 78t102 29q61 0 94.5 -27t33.5 -71q0 -55 -83 -104q47 -24 69 -49t22 -61zM778 213q0 57 -76 57q-36 0 -56 -15t-20 -40q0 -24 18 -42.5t60 -38.5q74 40 74 79zM785 -4q0 49 -88 87q-79 -42 -79 -85q0 -31 22.5 -47t61.5 -16
q38 0 60.5 17t22.5 44z" />
    <glyph glyph-name="seveneighths" unicode="&#x215e;" horiz-adv-x="840" 
d="M777 3q0 -51 -39 -82t-108 -31q-66 0 -101 28t-35 76q0 59 90 111q-82 42 -82 103q0 49 37 78t102 29q61 0 94.5 -27t33.5 -71q0 -55 -83 -104q47 -24 69 -49t22 -61zM712 213q0 57 -76 57q-36 0 -56 -15t-20 -40q0 -24 18 -42.5t60 -38.5q74 40 74 79zM719 -4
q0 49 -88 87q-79 -42 -79 -85q0 -31 22.5 -47t61.5 -16q38 0 60.5 17t22.5 44zM283 777v-49q-88 -189 -125 -360h-66q26 99 64 201.5t69 155.5q-17 -1 -197 -1v53h255zM708 770l-630 -904l-45 30l631 904z" />
    <glyph glyph-name="onefraction" unicode="&#x215f;" horiz-adv-x="457" 
d="M182 368h-60v352l-93 -37l-11 52l116 42h48v-409zM719 770l-630 -904l-45 30l631 904z" />
    <glyph glyph-name="arrowleft" unicode="&#x2190;" horiz-adv-x="1000" 
d="M1000 271h-853l332 -325l-41 -41l-393 393l393 393l41 -41l-332 -325h853v-54z" />
    <glyph glyph-name="arrowup" unicode="&#x2191;" horiz-adv-x="1000" 
d="M893 390l-41 -41l-325 333v-853h-54v853l-325 -333l-41 41l393 394z" />
    <glyph glyph-name="arrowright" unicode="&#x2192;" horiz-adv-x="1000" 
d="M955 298l-393 -393l-41 41l332 325h-853v54h853l-332 325l41 41z" />
    <glyph glyph-name="arrowdown" unicode="&#x2193;" horiz-adv-x="1000" 
d="M893 206l-393 -394l-393 394l41 41l325 -333v853h54v-853l325 333z" />
    <glyph glyph-name="arrowboth" unicode="&#x2194;" horiz-adv-x="1350" 
d="M1305 310l-293 -294l-41 41l232 225h-1056l232 -225l-41 -41l-293 294l293 293l41 -41l-232 -225h1056l-232 225l41 41z" />
    <glyph glyph-name="arrowupdn" unicode="&#x2195;" horiz-adv-x="762" 
d="M674 36l-293 -293l-293 293l41 41l225 -233v908l-225 -233l-41 41l293 293l293 -293l-41 -41l-225 233v-908l225 233z" />
    <glyph glyph-name="arrownorthwest" unicode="&#x2196;" horiz-adv-x="803" 
d="M775 19l-40 -39l-602 604l5 -465h-58v556h556v-59l-465 6z" />
    <glyph glyph-name="arrownortheast" unicode="&#x2197;" horiz-adv-x="803" 
d="M724 119h-59l6 465l-603 -604l-40 39l604 603l-465 -6v59h557v-556z" />
    <glyph glyph-name="arrowsoutheast" unicode="&#x2198;" horiz-adv-x="803" 
d="M724 -78h-557v59l465 -6l-604 603l40 39l603 -604l-6 465h59v-556z" />
    <glyph glyph-name="arrowsouthwest" unicode="&#x2199;" horiz-adv-x="803" 
d="M775 578l-604 -603l465 6v-59h-556v556h58l-5 -465l602 604z" />
    <glyph glyph-name="uni219E" unicode="&#x219e;" horiz-adv-x="1000" 
d="M930 271h-590l145 -138l-41 -41l-179 179h-124l146 -138l-41 -41l-207 206l207 206l41 -41l-146 -138h124l179 179l41 -41l-145 -138h590v-54z" />
    <glyph glyph-name="uni219F" unicode="&#x219f;" horiz-adv-x="592" 
d="M269 -113v590l-138 -145l-41 41l179 179v124l-138 -146l-41 41l206 207l207 -207l-42 -41l-138 146v-124l180 -179l-42 -41l-138 145v-590h-54z" />
    <glyph glyph-name="uni21A0" unicode="&#x21a0;" horiz-adv-x="1000" 
d="M754 92l-41 41l146 138h-124l-179 -179l-41 41l145 138h-590v54h590l-145 138l41 41l179 -179h124l-146 138l41 41l207 -206z" />
    <glyph glyph-name="uni21A1" unicode="&#x21a1;" horiz-adv-x="592" 
d="M323 749v-590l138 145l42 -41l-180 -179v-124l138 146l42 -41l-207 -207l-206 207l41 41l138 -146v124l-179 179l41 41l138 -145v590h54z" />
    <glyph glyph-name="uni21A2" unicode="&#x21a2;" horiz-adv-x="1000" 
d="M765 298l170 -165l-41 -41l-179 179h-574l146 -138l-41 -41l-207 206l207 206l41 -41l-146 -138h574l179 179l41 -41z" />
    <glyph glyph-name="uni21A3" unicode="&#x21a3;" horiz-adv-x="1000" 
d="M235 298l-170 165l41 41l179 -179h574l-146 138l41 41l207 -206l-207 -206l-41 41l146 138h-574l-179 -179l-41 41z" />
    <glyph glyph-name="uni21A4" unicode="&#x21a4;" horiz-adv-x="1000" 
d="M930 502v-408h-58v177h-731l146 -138l-41 -41l-207 206l207 206l41 -41l-146 -138h731v177h58z" />
    <glyph glyph-name="uni21A5" unicode="&#x21a5;" horiz-adv-x="580" 
d="M494 -113h-408v58h177v731l-138 -146l-41 41l206 207l206 -207l-41 -41l-138 146v-731h177v-58z" />
    <glyph glyph-name="uni21A6" unicode="&#x21a6;" horiz-adv-x="1000" 
d="M70 94v408h58v-177h731l-146 138l41 41l207 -206l-207 -206l-41 41l146 138h-731v-177h-58z" />
    <glyph glyph-name="uni21A7" unicode="&#x21a7;" horiz-adv-x="580" 
d="M86 749h408v-58h-177v-731l138 146l41 -41l-206 -207l-206 207l41 41l138 -146v731h-177v58z" />
    <glyph glyph-name="arrowupdnbse" unicode="&#x21a8;" horiz-adv-x="762" 
d="M654 119l-273 -273l-273 273l41 41l205 -213v812l-205 -213l-41 42l273 273l273 -273l-41 -42l-205 213v-812l205 213zM656 -242h-550v49h550v-49z" />
    <glyph glyph-name="uni21A9" unicode="&#x21a9;" horiz-adv-x="1160" 
d="M305 -78l-266 266l266 265l41 -41l-204 -197q195 -7 425 -7q123 0 211 16.5t137 47.5t71 70t22 90q0 90 -72 132.5t-226 42.5l-153 -7v54q85 8 163 8q177 0 265.5 -58.5t88.5 -167.5q0 -283 -517 -283q-94 0 -197.5 1.5t-160.5 3.5l-57 2l204 -197z" />
    <glyph glyph-name="uni21AA" unicode="&#x21aa;" horiz-adv-x="1160" 
d="M1101 188l-266 -266l-41 41l205 197q-182 -7 -417 -7q-516 0 -516 270q0 114 91.5 176.5t275.5 62.5l150 -7v-56q-83 8 -164 8q-287 0 -287 -178q0 -49 22.5 -87.5t74 -69.5t144 -47.5t223.5 -16.5q97 0 197.5 2t152.5 4l53 1l-205 197l41 41z" />
    <glyph glyph-name="arrowdblleft" unicode="&#x21d0;" horiz-adv-x="1000" 
d="M930 169h-683l142 -139l-41 -41l-309 309l309 309l41 -41l-142 -139h683v-55h-738l-75 -74l75 -74h738v-55z" />
    <glyph glyph-name="arrowdblup" unicode="&#x21d1;" horiz-adv-x="793" 
d="M268 -147v683l-139 -142l-41 41l308 309l309 -309l-41 -41l-139 142v-683h-55v738l-74 75l-74 -75v-738h-54z" />
    <glyph glyph-name="arrowdblright" unicode="&#x21d2;" horiz-adv-x="1000" 
d="M961 298l-309 -309l-41 41l142 139h-683v55h738l75 74l-75 74h-738v55h683l-142 139l41 41z" />
    <glyph glyph-name="arrowdbldown" unicode="&#x21d3;" horiz-adv-x="793" 
d="M525 743v-683l139 142l41 -41l-309 -309l-308 309l41 41l139 -142v683h54v-738l74 -75l74 75v738h55z" />
    <glyph glyph-name="arrowdblboth" unicode="&#x21d4;" horiz-adv-x="1400" 
d="M1283 298l-75 74h-1016l-75 -74l75 -74h1016zM1361 298l-309 -309l-41 41l142 139h-906l142 -139l-41 -41l-309 309l309 309l41 -41l-142 -139h906l-142 139l41 41z" />
    <glyph glyph-name="uni21D5" unicode="&#x21d5;" horiz-adv-x="793" 
d="M396 -242l74 75v994l-74 75l-74 -75v-994zM396 -320l-308 309l41 41l139 -143v886l-139 -143l-41 41l308 309l309 -309l-41 -41l-139 143v-886l139 143l41 -41z" />
    <glyph glyph-name="uni21D6" unicode="&#x21d6;" horiz-adv-x="876" 
d="M629 -75l-484 484l3 -199h-59v437h437v-59l-199 3l484 -484l-39 -38l-522 521l-105 1l1 -105l521 -522z" />
    <glyph glyph-name="uni21D7" unicode="&#x21d7;" horiz-adv-x="876" 
d="M65 107l484 484l-199 -3v59h437v-437h-59l3 199l-484 -484l-38 39l521 522l1 105l-105 -1l-522 -521z" />
    <glyph glyph-name="uni21D8" unicode="&#x21d8;" horiz-adv-x="876" 
d="M247 672l484 -484l-3 199h59v-437h-437v59l199 -3l-484 484l39 38l522 -521l105 -1l-1 105l-521 522z" />
    <glyph glyph-name="uni21D9" unicode="&#x21d9;" horiz-adv-x="876" 
d="M811 490l-484 -484l199 3v-59h-437v437h59l-3 -199l484 484l38 -39l-521 -522l-1 -105l105 1l522 521z" />
    <glyph glyph-name="uni21DD" unicode="&#x21dd;" horiz-adv-x="1000" 
d="M70 271v54h59l62 72l99 -116l99 116l99 -116l99 116l99 -116l38 44h134l-144 139l40 40l207 -206l-207 -206l-40 40l144 139h-110l-62 -72l-99 116l-99 -116l-99 116l-99 -116l-99 116l-37 -44h-84z" />
    <glyph glyph-name="uni21E6" unicode="&#x21e6;" horiz-adv-x="1000" 
d="M930 131h-522v-147h-54l-315 314l315 314h54v-147h522v-334zM875 410h-521v125l-237 -237l237 -237v125h521v224z" />
    <glyph glyph-name="uni21E7" unicode="&#x21e7;" horiz-adv-x="810" 
d="M238 -147v522h-147v55l314 314l314 -314v-55h-147v-522h-334zM517 -92v522h125l-237 236l-237 -236h124v-522h225z" />
    <glyph glyph-name="uni21E8" unicode="&#x21e8;" horiz-adv-x="1000" 
d="M70 465h522v147h54l315 -314l-315 -314h-54v147h-522v334zM125 186h521v-125l237 237l-237 237v-125h-521v-224z" />
    <glyph glyph-name="uni21E9" unicode="&#x21e9;" horiz-adv-x="810" 
d="M572 743v-522h147v-55l-314 -314l-314 314v55h147v522h334zM292 688v-522h-124l237 -236l237 236h-125v522h-225z" />
    <glyph glyph-name="uni21F3" unicode="&#x21f3;" horiz-adv-x="810" 
d="M572 422v-248h147v-55l-314 -314l-314 314v55h147v248h-147v55l314 314l314 -314v-55h-147zM517 119v358h125l-237 237l-237 -237h124v-358h-124l237 -237l237 237h-125z" />
    <glyph glyph-name="partialdiff" unicode="&#x2202;" horiz-adv-x="639" 
d="M260 683l5 51q136 -2 214.5 -86t78.5 -233q0 -207 -85 -324q-32 -45 -82 -72t-109 -27q-96 0 -147 54.5t-51 150.5q0 101 65.5 168t168.5 67q65 0 110 -31.5t64 -83.5q2 72 2 95q-1 134 -65.5 203.5t-168.5 67.5zM459 238q0 62 -39 101.5t-109 39.5q-71 0 -117 -50.5
t-46 -125.5q0 -77 38.5 -117t102.5 -40q73 0 121.5 55.5t48.5 136.5z" />
    <glyph glyph-name="emptyset" unicode="&#x2205;" horiz-adv-x="929" 
d="M831 662l-90 -91l6 -6q80 -101 80 -227q0 -150 -105.5 -255.5t-255.5 -105.5q-128 0 -228 81l-5 5l-91 -90l-41 41l90 91l-6 6q-80 101 -80 227q0 150 105.5 255.5t255.5 105.5q130 0 228 -81l5 -5l91 90zM234 148l422 422l-2 2q-81 67 -188 67q-125 0 -213 -88t-88 -213
q0 -107 67 -188zM698 528l-422 -422l2 -2q81 -67 188 -67q125 0 213 88t88 213q0 107 -67 188z" />
    <glyph glyph-name="increment" unicode="&#x2206;" horiz-adv-x="608" 
d="M592 0h-576l250 675h76zM499 56l-182 506q-11 34 -15 55h-1q-17 -54 -18 -57l-180 -504h396z" />
    <glyph glyph-name="product" unicode="&#x220f;" horiz-adv-x="784" 
d="M736 675h-112v-926h-62v926h-339v-926h-63v926h-112v55h688v-55z" />
    <glyph glyph-name="summation" unicode="&#x2211;" horiz-adv-x="610" 
d="M549 -251h-513v48l322 451l-302 434v48h479v-55h-399l297 -425l-320 -443h436v-58z" />
    <glyph glyph-name="minus" unicode="&#x2212;" 
d="M506 271h-462v53h462v-53z" />
    <glyph glyph-name="uni2219" unicode="&#x2219;" horiz-adv-x="209" 
d="M156 297q0 -22 -15 -36.5t-36 -14.5q-22 0 -36.5 14.5t-14.5 36.5t14.5 36.5t36.5 14.5q21 0 36 -14.5t15 -36.5z" />
    <glyph glyph-name="radical" unicode="&#x221a;" horiz-adv-x="602" 
d="M561 758l-236 -758h-71l-159 448h-95v49h145l105 -311q24 -70 40 -125h2q16 65 31 116l171 581h67z" />
    <glyph glyph-name="uni221B" unicode="&#x221b;" horiz-adv-x="602" 
d="M561 758l-236 -758h-71l-159 448h-95v49h145l105 -311q24 -70 40 -125h2q16 65 31 116l171 581h67zM166 553l7 44q32 -9 69 -9q38 0 56 15.5t18 40.5q0 30 -32.5 45.5t-98.5 7.5v40q126 0 126 59q0 20 -17 31t-45 11q-38 0 -71 -14l-7 41q43 16 90 16q49 0 77.5 -21
t28.5 -58q0 -29 -18.5 -49.5t-49.5 -28.5q35 -5 55 -27t20 -51q0 -44 -37 -72.5t-96 -28.5q-33 0 -75 8z" />
    </font>
</defs>
</svg>
