<svg xmlns="http://www.w3.org/2000/svg" width="26" height="26" viewBox="0 0 26 26">
    <path fill="#FFF" fill-rule="evenodd" d="M25.34 18.205a.66.66 0 0 1 .653.563l.007.097v2.92a4.22 4.22 0 0 1-4.005 4.21l-.21.005h-2.92a.66.66 0 0 1-.097-1.313l.097-.007h2.92a2.898 2.898 0 0 0 2.89-2.725l.005-.17v-2.92a.66.66 0 0 1 .66-.66zm-24.68 0a.66.66 0 0 1 .653.563l.007.097v2.92a2.898 2.898 0 0 0 2.725 2.89l.17.005h2.92a.66.66 0 0 1 .097 1.313L7.135 26h-2.92a4.22 4.22 0 0 1-4.21-4.005L0 21.785v-2.92a.66.66 0 0 1 .66-.66zm16.934.043a.686.686 0 0 1-.038.969A6.695 6.695 0 0 1 13 20.998a6.695 6.695 0 0 1-4.556-1.781.686.686 0 0 1 .93-1.008A5.328 5.328 0 0 0 13 19.627a5.328 5.328 0 0 0 3.625-1.418.686.686 0 0 1 .97.039zm-3.908-9.133c.344 0 .629.254.678.584l.007.102v4.875c0 .918-.71 1.673-1.608 1.746l-.144.006h-.558a.686.686 0 0 1-.102-1.364l.102-.007h.558c.184 0 .338-.131.373-.305l.008-.076V9.8c0-.379.307-.686.686-.686zm4.76 0c.325 0 .594.24.64.552l.008.096v1.955a.647.647 0 0 1-1.288.095l-.007-.095V9.763c0-.358.29-.648.647-.648zm-10.74 0c.358 0 .648.29.648.648v1.955c0 .325-.24.594-.552.64l-.096.007a.647.647 0 0 1-.647-.647V9.763c0-.358.29-.648.647-.648zM7.135 0a.66.66 0 0 1 .097 1.313l-.097.007h-2.92a2.898 2.898 0 0 0-2.89 2.725l-.005.17v2.92a.66.66 0 0 1-1.313.097L0 7.135v-2.92A4.22 4.22 0 0 1 4.005.005L4.215 0h2.92zm14.65 0a4.22 4.22 0 0 1 4.21 4.005l.005.21v2.92a.66.66 0 0 1-1.313.097l-.007-.097v-2.92a2.898 2.898 0 0 0-2.725-2.89l-.17-.005h-2.92a.66.66 0 0 1-.097-1.313L18.865 0h2.92z"/>
</svg>
