<?xml version="1.0" encoding="UTF-8"?>
<svg width="48px" height="48px" viewBox="0 0 48 48" version="1.1" xmlns="http://www.w3.org/2000/svg" xmlns:xlink="http://www.w3.org/1999/xlink">
    <!-- Generator: Sketch 58 (84663) - https://sketch.com -->
    <title>Icons/Illustration/Card-fee-waiver</title>
    <desc>Created with Sketch.</desc>
    <g id="Icons/Illustration/Card-fee-waiver" stroke="none" stroke-width="1" fill="none" fill-rule="evenodd">
        <circle id="Oval" fill-opacity="0.2" fill="#DCE2E5" cx="24" cy="24" r="24"></circle>
        <g id="Card" transform="translate(5.000000, 12.000000)">
            <rect fill="#DCE2E5" x="0" y="0" width="38" height="24" rx="2"></rect>
            <g id="Digits" transform="translate(4.000000, 16.000000)" fill="#6B8592">
                <rect id="Line" x="0" y="0" width="6" height="2" rx="1"></rect>
                <rect id="Line" x="8" y="0" width="6" height="2" rx="1"></rect>
                <rect id="Line" x="16" y="0" width="6" height="2" rx="1"></rect>
                <rect id="Line" x="24" y="0" width="6" height="2" rx="1"></rect>
            </g>
            <rect id="Chip" fill="#F2F5F6" x="4" y="6" width="8" height="5" rx="1"></rect>
        </g>
        <g id="$" transform="translate(28.000000, 28.000000)">
            <circle id="Fill" fill="#6B8592" cx="11" cy="11" r="9"></circle>
            <path d="M11,22 C17.0751322,22 22,17.0751322 22,11 C22,4.92486775 17.0751322,0 11,0 C4.92486775,0 0,4.92486775 0,11 C0,17.0751322 4.92486775,22 11,22 Z M11,20 C6.02943725,20 2,15.9705627 2,11 C2,6.02943725 6.02943725,2 11,2 C15.9705627,2 20,6.02943725 20,11 C20,15.9705627 15.9705627,20 11,20 Z" id="Outline" fill="#FFFFFF" fill-rule="nonzero"></path>
            <path d="M12.0869043,10.5507704 C12.4645075,10.6679576 12.7867723,10.86978 13.0536989,11.1562377 C13.3206254,11.4426955 13.4964062,11.7779809 13.5810413,12.1620947 C13.6656765,12.5462085 13.6428903,12.9335772 13.5126821,13.3242013 C13.3564325,13.7538878 13.089506,14.0956838 12.7119028,14.3495895 C12.3342996,14.6034951 11.9111235,14.7369582 11.4423746,14.7499791 L11.4423746,15.6874769 C11.4423746,15.7786226 11.4130778,15.8534921 11.3544842,15.9120857 C11.2958905,15.9706794 11.221021,15.9999762 11.1298753,15.9999762 L10.5048768,15.9999762 C10.4137311,15.9999762 10.3388616,15.9706794 10.280268,15.9120857 C10.2216744,15.8534921 10.1923776,15.7786226 10.1923776,15.6874769 L10.1923776,14.7499791 C9.56737904,14.7499791 9.00097414,14.5546671 8.49316285,14.164043 C8.42805894,14.0989391 8.38899654,14.0208143 8.37597563,13.9296686 C8.36295473,13.8385229 8.39550684,13.7538878 8.47363165,13.6757629 L9.13769257,13.011702 C9.18977588,12.9726396 9.25162449,12.9465981 9.323239,12.9335772 C9.39485351,12.9205563 9.46321272,12.9400875 9.52831664,12.9921708 C9.72362867,13.122379 9.94498221,13.1874829 10.1923776,13.1874829 L11.5009682,13.1874829 C11.6572178,13.1874829 11.7906809,13.1321446 11.9013579,13.0214676 C12.0120348,12.9107907 12.0673731,12.7708173 12.0673731,12.6015468 C12.0673731,12.4843595 12.0283107,12.3736826 11.9501859,12.2695163 C11.872061,12.16535 11.774405,12.0937355 11.6572178,12.0546731 L9.64550386,11.468737 C9.20279648,11.3385288 8.83170361,11.1041544 8.53222526,10.7656136 C8.23274691,10.4270729 8.05696608,10.0364488 8.00488277,9.59374143 C7.97884126,9.17707586 8.05696608,8.78970679 8.23925721,8.43163483 C8.42154834,8.07356286 8.68196459,7.78710511 9.02050535,7.57226188 C9.35904611,7.35741864 9.73664957,7.24999702 10.1533151,7.24999702 L10.1923776,7.24999702 L10.1923776,6.31249925 C10.1923776,6.22135354 10.2216744,6.14648403 10.280268,6.08789042 C10.3388616,6.02929681 10.4137311,6 10.5048768,6 L11.1298753,6 C11.221021,6 11.2958905,6.02929681 11.3544842,6.08789042 C11.4130778,6.14648403 11.4423746,6.22135354 11.4423746,6.31249925 L11.4423746,7.24999702 C12.0673731,7.24999702 12.6272677,7.44530905 13.1220581,7.83593312 C13.2001829,7.90103703 13.2457556,7.97916185 13.2587765,8.07030756 C13.2717974,8.16145328 13.2392453,8.23957809 13.1611205,8.30468201 L12.4970596,8.98827413 C12.4449762,9.02733653 12.3831276,9.05337804 12.3115131,9.06639894 C12.2398986,9.07941984 12.1715394,9.06639894 12.1064355,9.02733653 C11.9111235,8.88410781 11.6897699,8.81249329 11.4423746,8.81249329 L10.1337839,8.81249329 C9.97753432,8.81249329 9.84407119,8.8678316 9.73339427,8.97850852 C9.62271735,9.08918544 9.56737904,9.22915887 9.56737904,9.3984294 C9.56737904,9.51561662 9.60644145,9.62629354 9.68456626,9.73045986 C9.76269108,9.83462617 9.86034709,9.90624069 9.97753432,9.94530309 L12.0869043,10.5507704 Z" id="" fill="#F2F5F6"></path>
            <rect id="Slash" stroke="#FFFFFF" fill="#D8D8D8" transform="translate(11.000000, 11.000000) rotate(45.000000) translate(-11.000000, -11.000000) " x="10.5" y="1.5" width="1" height="19"></rect>
        </g>
    </g>
</svg>