<?xml version="1.0" encoding="UTF-8"?>
<svg width="72px" height="72px" viewBox="0 0 72 72" version="1.1" xmlns="http://www.w3.org/2000/svg" xmlns:xlink="http://www.w3.org/1999/xlink">
    <!-- Generator: Sketch 55 (78076) - https://sketchapp.com -->
    <title>status-light-locked</title>
    <desc>Created with Sketch.</desc>
    <defs>
        <path d="M36,72 C16.117749,72 0,55.882251 0,36 C0,16.117749 16.117749,0 36,0 C55.882251,0 72,16.117749 72,36 C72,55.882251 55.882251,72 36,72 Z M36,69 C54.2253967,69 69,54.2253967 69,36 C69,17.7746033 54.2253967,3 36,3 C17.7746033,3 3,17.7746033 3,36 C3,54.2253967 17.7746033,69 36,69 Z M44.2499553,34.500025 C44.8749536,34.500025 45.4062028,34.7187748 45.8437015,35.1562735 C46.2812002,35.5937722 46.4999499,36.1250214 46.4999499,36.7500197 L46.4999499,45.7499982 C46.4999499,46.3749965 46.2812002,46.9062457 45.8437015,47.3437444 C45.4062028,47.7812431 44.8749536,47.9999928 44.2499553,47.9999928 L27.7499946,47.9999928 C27.1249964,47.9999928 26.5937472,47.7812431 26.1562484,47.3437444 C25.7187497,46.9062457 25.5,46.3749965 25.5,45.7499982 L25.5,36.7500197 C25.5,36.1250214 25.7187497,35.5937722 26.1562484,35.1562735 C26.5937472,34.7187748 27.1249964,34.500025 27.7499946,34.500025 L28.874992,34.500025 L28.874992,31.1250331 C28.874992,29.8437864 29.1953035,28.6562887 29.8359272,27.5625416 C30.4765509,26.4687944 31.3437363,25.601609 32.4374835,24.9609853 C33.5312306,24.3203616 34.7187283,24.0000501 35.999975,24.0000501 C37.2812217,24.0000501 38.4687193,24.3203616 39.5624665,24.9609853 C40.6562136,25.601609 41.5233991,26.4687944 42.1640228,27.5625416 C42.8046465,28.6562887 43.124958,29.8437864 43.124958,31.1250331 L43.124958,34.500025 L44.2499553,34.500025 Z M37.8749705,42.3750063 L37.8749705,40.1250116 C37.8749705,39.5937631 37.6952837,39.1484517 37.3359093,38.7890773 C36.9765349,38.4297029 36.5312235,38.2500161 35.999975,38.2500161 C35.4687265,38.2500161 35.023415,38.4297029 34.6640407,38.7890773 C34.3046663,39.1484517 34.1249794,39.5937631 34.1249794,40.1250116 L34.1249794,42.3750063 C34.1249794,42.9062548 34.3046663,43.3515662 34.6640407,43.7109406 C35.023415,44.070315 35.4687265,44.2500018 35.999975,44.2500018 C36.5312235,44.2500018 36.9765349,44.070315 37.3359093,43.7109406 C37.6952837,43.3515662 37.8749705,42.9062548 37.8749705,42.3750063 Z M39.3749669,34.500025 L39.3749669,31.1250331 C39.3749669,30.1875353 39.0468427,29.3906622 38.3905943,28.7344138 C37.7343458,28.0781653 36.9374727,27.7500411 35.999975,27.7500411 C35.0624772,27.7500411 34.2656041,28.0781653 33.6093557,28.7344138 C32.9531072,29.3906622 32.624983,30.1875353 32.624983,31.1250331 L32.624983,34.500025 L39.3749669,34.500025 Z" id="path-1"></path>
    </defs>
    <g id="------Icons" stroke="none" stroke-width="1" fill="none" fill-rule="evenodd">
        <g id="Icons---Status-(Light)" transform="translate(-80.000000, -219.000000)">
            <g id="Icon/Status-light/Locked" transform="translate(80.000000, 219.000000)">
                <mask id="mask-2" fill="white">
                    <use xlink:href="#path-1"></use>
                </mask>
                <use id="Locked" fill="#FFFFFF" fill-rule="nonzero" xlink:href="#path-1"></use>
                <g id="Icon/Colour-light" mask="url(#mask-2)" fill="#FFFFFF" fill-rule="evenodd">
                    <rect id="Colour" x="0" y="0" width="72" height="72"></rect>
                </g>
                <polygon id="Path" opacity="0.87" mask="url(#mask-2)" points="0 0 72 0 72 72 0 72"></polygon>
            </g>
        </g>
    </g>
</svg>