<?xml version="1.0" encoding="UTF-8"?>
<svg width="24px" height="24px" viewBox="0 0 24 24" version="1.1" xmlns="http://www.w3.org/2000/svg" xmlns:xlink="http://www.w3.org/1999/xlink">
    <!-- Generator: Sketch 59.1 (86144) - https://sketch.com -->
    <title>Icons/Banner / toast/Alert</title>
    <desc>Created with Sketch.</desc>
    <defs>
        <path d="M11.9999785,3.53128688 C13.5702875,3.53128688 15.0234088,3.92386425 16.3593431,4.70901845 C17.6952775,5.49417265 18.755822,6.55471717 19.5409762,7.89065149 C20.3261304,9.2265858 20.7187078,10.6797072 20.7187078,12.2500161 C20.7187078,13.820325 20.3261304,15.2734464 19.5409762,16.6093807 C18.755822,17.945315 17.6952775,19.0058595 16.3593431,19.7910137 C15.0234088,20.5761679 13.5702875,20.9687453 11.9999785,20.9687453 C10.4296696,20.9687453 8.97654825,20.5761679 7.64061394,19.7910137 C6.30467962,19.0058595 5.2441351,17.945315 4.4589809,16.6093807 C3.6738267,15.2734464 3.28124933,13.820325 3.28124933,12.2500161 C3.28124933,10.6797072 3.6738267,9.2265858 4.4589809,7.89065149 C5.2441351,6.55471717 6.30467962,5.49417265 7.64061394,4.70901845 C8.97654825,3.92386425 10.4296696,3.53128688 11.9999785,3.53128688 Z M11.9999785,19.2812493 C13.2656005,19.2812493 14.4374726,18.9648438 15.5155952,18.3320328 C16.5937178,17.6992219 17.4491843,16.8437553 18.0819953,15.7656327 C18.7148063,14.6875101 19.0312118,13.5156381 19.0312118,12.2500161 C19.0312118,10.9843941 18.7148063,9.81252208 18.0819953,8.73439948 C17.4491843,7.65627687 16.5937178,6.80081034 15.5155952,6.16799934 C14.4374726,5.53518835 13.2656005,5.21878286 11.9999785,5.21878286 C10.7343566,5.21878286 9.56248453,5.53518835 8.48436192,6.16799934 C7.40623932,6.80081034 6.55077278,7.65627687 5.91796179,8.73439948 C5.2851508,9.81252208 4.96874531,10.9843941 4.96874531,12.2500161 C4.96874531,13.5156381 5.2851508,14.6875101 5.91796179,15.7656327 C6.55077278,16.8437553 7.40623932,17.6992219 8.48436192,18.3320328 C9.56248453,18.9648438 10.7343566,19.2812493 11.9999785,19.2812493 Z M13.4765375,15.625008 C13.4765375,16.0234444 13.3300533,16.3691471 13.0370854,16.6621149 C12.7441176,16.9550828 12.3984149,17.101567 11.9999785,17.101567 C11.6015422,17.101567 11.2558395,16.9550828 10.9628716,16.6621149 C10.6699038,16.3691471 10.5234196,16.0234444 10.5234196,15.625008 C10.5234196,15.2265717 10.6699038,14.880869 10.9628716,14.5879011 C11.2558395,14.2949333 11.6015422,14.1484491 11.9999785,14.1484491 C12.3984149,14.1484491 12.7441176,14.2949333 13.0370854,14.5879011 C13.3300533,14.880869 13.4765375,15.2265717 13.4765375,15.625008 Z M10.6288881,8.20705698 C10.6054504,8.06643232 10.6347476,7.95510428 10.7167785,7.8730734 C10.7988094,7.79104253 10.9101374,7.75002682 11.0507621,7.75002682 L12.949195,7.75002682 C13.0898197,7.75002682 13.2011477,7.79104253 13.2831786,7.8730734 C13.3652095,7.95510428 13.3945066,8.06643232 13.371069,8.20705698 L13.160132,12.9882956 C13.1366944,13.0820455 13.0839602,13.169936 13.0019293,13.2519668 C12.9198984,13.3339977 12.832008,13.3750134 12.738258,13.3750134 L11.2616991,13.3750134 C11.1679491,13.3750134 11.0800587,13.3339977 10.9980278,13.2519668 C10.9159969,13.169936 10.8632627,13.0820455 10.8398251,12.9882956 L10.6288881,8.20705698 Z" id="path-1"></path>
    </defs>
    <g id="Icons/Banner-/-toast/Alert" stroke="none" stroke-width="1" fill="none" fill-rule="evenodd">
        <mask id="mask-2" fill="white">
            <use xlink:href="#path-1"></use>
        </mask>
        <use id="Warning" fill="#6B8592" fill-rule="nonzero" xlink:href="#path-1"></use>
        <g id="Colours/Icons/Alert" mask="url(#mask-2)" fill="#F4AF62">
            <rect id="Colour" x="0" y="0" width="24" height="24"></rect>
        </g>
        <polygon id="Path" mask="url(#mask-2)" points="0 0 24 0 24 24 0 24"></polygon>
    </g>
</svg>