<?xml version="1.0" encoding="UTF-8"?>
<svg width="72px" height="72px" viewBox="0 0 72 72" version="1.1" xmlns="http://www.w3.org/2000/svg" xmlns:xlink="http://www.w3.org/1999/xlink">
    <!-- Generator: Sketch 60.1 (88133) - https://sketch.com -->
    <title>Icons/OTP/Hardware token</title>
    <desc>Created with Sketch.</desc>
    <g id="Icons/OTP/Hardware-token" stroke="none" stroke-width="1" fill="none" fill-rule="evenodd">
        <rect id="Rectangle" fill-opacity="0" fill="#FFFFFF" x="0" y="0" width="72" height="72"></rect>
        <path d="M44.7499493,16.0000834 L44.9875596,16.0065553 C45.9269063,16.0583304 46.7331181,16.4207559 47.406193,17.0938308 C48.079268,17.7669058 48.4416934,18.5731175 48.4934685,19.5124642 L48.4999404,19.7500745 L48.4999404,52.249997 L48.4934685,52.4876073 C48.4416934,53.426954 48.079268,54.2331657 47.406193,54.9062407 C46.7331181,55.5793156 45.9269063,55.9417411 44.9875596,55.9935162 L44.7499493,55.9999881 L27.2499911,55.9999881 L27.0123808,55.9935162 C26.0730341,55.9417411 25.2668223,55.5793156 24.5937474,54.9062407 C23.9206724,54.2331657 23.558247,53.426954 23.5064719,52.4876073 L23.5,52.249997 L23.5,19.7500745 L23.5064719,19.5124642 C23.558247,18.5731175 23.9206724,17.7669058 24.5937474,17.0938308 C25.2668223,16.4207559 26.0730341,16.0583304 27.0123808,16.0065553 L27.2499911,16.0000834 L44.7499493,16.0000834 Z M35.9999952,48.5625082 C35.6510377,48.5625082 35.3281218,48.6497476 35.0312475,48.8242263 C34.7343732,48.998705 34.4986967,49.2343816 34.324218,49.5312559 C34.1497393,49.8281302 34.0624999,50.151046 34.0624999,50.5000036 C34.0624999,50.8489611 34.1497393,51.171877 34.324218,51.4687513 C34.4986967,51.7656256 34.7343732,52.0013021 35.0312475,52.1757808 C35.3281218,52.3502595 35.6510377,52.437499 35.9999952,52.437499 C36.3489528,52.437499 36.6718686,52.3502595 36.9687429,52.1757808 C37.2656172,52.0013021 37.5012938,51.7656256 37.6757725,51.4687513 C37.8502512,51.171877 37.9374906,50.8489611 37.9374906,50.5000036 C37.9374906,50.151046 37.8502512,49.8281302 37.6757725,49.5312559 C37.5012938,49.2343816 37.2656172,48.998705 36.9687429,48.8242263 C36.6718686,48.6497476 36.3489528,48.5625082 35.9999952,48.5625082 Z M29.9999952,43.5625082 C29.6510377,43.5625082 29.3281218,43.6497476 29.0312475,43.8242263 C28.7343732,43.998705 28.4986967,44.2343816 28.324218,44.5312559 C28.1497393,44.8281302 28.0624999,45.151046 28.0624999,45.5000036 C28.0624999,45.8489611 28.1497393,46.171877 28.324218,46.4687513 C28.4986967,46.7656256 28.7343732,47.0013021 29.0312475,47.1757808 C29.3281218,47.3502595 29.6510377,47.437499 29.9999952,47.437499 C30.3489528,47.437499 30.6718686,47.3502595 30.9687429,47.1757808 C31.2656172,47.0013021 31.5012938,46.7656256 31.6757725,46.4687513 C31.8502512,46.171877 31.9374906,45.8489611 31.9374906,45.5000036 C31.9374906,45.151046 31.8502512,44.8281302 31.6757725,44.5312559 C31.5012938,44.2343816 31.2656172,43.998705 30.9687429,43.8242263 C30.6718686,43.6497476 30.3489528,43.5625082 29.9999952,43.5625082 Z M35.9999952,43.5625082 C35.6510377,43.5625082 35.3281218,43.6497476 35.0312475,43.8242263 C34.7343732,43.998705 34.4986967,44.2343816 34.324218,44.5312559 C34.1497393,44.8281302 34.0624999,45.151046 34.0624999,45.5000036 C34.0624999,45.8489611 34.1497393,46.171877 34.324218,46.4687513 C34.4986967,46.7656256 34.7343732,47.0013021 35.0312475,47.1757808 C35.3281218,47.3502595 35.6510377,47.437499 35.9999952,47.437499 C36.3489528,47.437499 36.6718686,47.3502595 36.9687429,47.1757808 C37.2656172,47.0013021 37.5012938,46.7656256 37.6757725,46.4687513 C37.8502512,46.171877 37.9374906,45.8489611 37.9374906,45.5000036 C37.9374906,45.151046 37.8502512,44.8281302 37.6757725,44.5312559 C37.5012938,44.2343816 37.2656172,43.998705 36.9687429,43.8242263 C36.6718686,43.6497476 36.3489528,43.5625082 35.9999952,43.5625082 Z M41.9999952,43.5625082 C41.6510377,43.5625082 41.3281218,43.6497476 41.0312475,43.8242263 C40.7343732,43.998705 40.4986967,44.2343816 40.324218,44.5312559 C40.1497393,44.8281302 40.0624999,45.151046 40.0624999,45.5000036 C40.0624999,45.8489611 40.1497393,46.171877 40.324218,46.4687513 C40.4986967,46.7656256 40.7343732,47.0013021 41.0312475,47.1757808 C41.3281218,47.3502595 41.6510377,47.437499 41.9999952,47.437499 C42.3489528,47.437499 42.6718686,47.3502595 42.9687429,47.1757808 C43.2656172,47.0013021 43.5012938,46.7656256 43.6757725,46.4687513 C43.8502512,46.171877 43.9374906,45.8489611 43.9374906,45.5000036 C43.9374906,45.151046 43.8502512,44.8281302 43.6757725,44.5312559 C43.5012938,44.2343816 43.2656172,43.998705 42.9687429,43.8242263 C42.6718686,43.6497476 42.3489528,43.5625082 41.9999952,43.5625082 Z M29.9999952,38.5625082 C29.6510377,38.5625082 29.3281218,38.6497476 29.0312475,38.8242263 C28.7343732,38.998705 28.4986967,39.2343816 28.324218,39.5312559 C28.1497393,39.8281302 28.0624999,40.151046 28.0624999,40.5000036 C28.0624999,40.8489611 28.1497393,41.171877 28.324218,41.4687513 C28.4986967,41.7656256 28.7343732,42.0013021 29.0312475,42.1757808 C29.3281218,42.3502595 29.6510377,42.437499 29.9999952,42.437499 C30.3489528,42.437499 30.6718686,42.3502595 30.9687429,42.1757808 C31.2656172,42.0013021 31.5012938,41.7656256 31.6757725,41.4687513 C31.8502512,41.171877 31.9374906,40.8489611 31.9374906,40.5000036 C31.9374906,40.151046 31.8502512,39.8281302 31.6757725,39.5312559 C31.5012938,39.2343816 31.2656172,38.998705 30.9687429,38.8242263 C30.6718686,38.6497476 30.3489528,38.5625082 29.9999952,38.5625082 Z M35.9999952,38.5625082 C35.6510377,38.5625082 35.3281218,38.6497476 35.0312475,38.8242263 C34.7343732,38.998705 34.4986967,39.2343816 34.324218,39.5312559 C34.1497393,39.8281302 34.0624999,40.151046 34.0624999,40.5000036 C34.0624999,40.8489611 34.1497393,41.171877 34.324218,41.4687513 C34.4986967,41.7656256 34.7343732,42.0013021 35.0312475,42.1757808 C35.3281218,42.3502595 35.6510377,42.437499 35.9999952,42.437499 C36.3489528,42.437499 36.6718686,42.3502595 36.9687429,42.1757808 C37.2656172,42.0013021 37.5012938,41.7656256 37.6757725,41.4687513 C37.8502512,41.171877 37.9374906,40.8489611 37.9374906,40.5000036 C37.9374906,40.151046 37.8502512,39.8281302 37.6757725,39.5312559 C37.5012938,39.2343816 37.2656172,38.998705 36.9687429,38.8242263 C36.6718686,38.6497476 36.3489528,38.5625082 35.9999952,38.5625082 Z M41.9999952,38.5625082 C41.6510377,38.5625082 41.3281218,38.6497476 41.0312475,38.8242263 C40.7343732,38.998705 40.4986967,39.2343816 40.324218,39.5312559 C40.1497393,39.8281302 40.0624999,40.151046 40.0624999,40.5000036 C40.0624999,40.8489611 40.1497393,41.171877 40.324218,41.4687513 C40.4986967,41.7656256 40.7343732,42.0013021 41.0312475,42.1757808 C41.3281218,42.3502595 41.6510377,42.437499 41.9999952,42.437499 C42.3489528,42.437499 42.6718686,42.3502595 42.9687429,42.1757808 C43.2656172,42.0013021 43.5012938,41.7656256 43.6757725,41.4687513 C43.8502512,41.171877 43.9374906,40.8489611 43.9374906,40.5000036 C43.9374906,40.151046 43.8502512,39.8281302 43.6757725,39.5312559 C43.5012938,39.2343816 43.2656172,38.998705 42.9687429,38.8242263 C42.6718686,38.6497476 42.3489528,38.5625082 41.9999952,38.5625082 Z M29.9999952,33.5625082 C29.6510377,33.5625082 29.3281218,33.6497476 29.0312475,33.8242263 C28.7343732,33.998705 28.4986967,34.2343816 28.324218,34.5312559 C28.1497393,34.8281302 28.0624999,35.151046 28.0624999,35.5000036 C28.0624999,35.8489611 28.1497393,36.171877 28.324218,36.4687513 C28.4986967,36.7656256 28.7343732,37.0013021 29.0312475,37.1757808 C29.3281218,37.3502595 29.6510377,37.437499 29.9999952,37.437499 C30.3489528,37.437499 30.6718686,37.3502595 30.9687429,37.1757808 C31.2656172,37.0013021 31.5012938,36.7656256 31.6757725,36.4687513 C31.8502512,36.171877 31.9374906,35.8489611 31.9374906,35.5000036 C31.9374906,35.151046 31.8502512,34.8281302 31.6757725,34.5312559 C31.5012938,34.2343816 31.2656172,33.998705 30.9687429,33.8242263 C30.6718686,33.6497476 30.3489528,33.5625082 29.9999952,33.5625082 Z M35.9999952,33.5625082 C35.6510377,33.5625082 35.3281218,33.6497476 35.0312475,33.8242263 C34.7343732,33.998705 34.4986967,34.2343816 34.324218,34.5312559 C34.1497393,34.8281302 34.0624999,35.151046 34.0624999,35.5000036 C34.0624999,35.8489611 34.1497393,36.171877 34.324218,36.4687513 C34.4986967,36.7656256 34.7343732,37.0013021 35.0312475,37.1757808 C35.3281218,37.3502595 35.6510377,37.437499 35.9999952,37.437499 C36.3489528,37.437499 36.6718686,37.3502595 36.9687429,37.1757808 C37.2656172,37.0013021 37.5012938,36.7656256 37.6757725,36.4687513 C37.8502512,36.171877 37.9374906,35.8489611 37.9374906,35.5000036 C37.9374906,35.151046 37.8502512,34.8281302 37.6757725,34.5312559 C37.5012938,34.2343816 37.2656172,33.998705 36.9687429,33.8242263 C36.6718686,33.6497476 36.3489528,33.5625082 35.9999952,33.5625082 Z M41.9999952,33.5625082 C41.6510377,33.5625082 41.3281218,33.6497476 41.0312475,33.8242263 C40.7343732,33.998705 40.4986967,34.2343816 40.324218,34.5312559 C40.1497393,34.8281302 40.0624999,35.151046 40.0624999,35.5000036 C40.0624999,35.8489611 40.1497393,36.171877 40.324218,36.4687513 C40.4986967,36.7656256 40.7343732,37.0013021 41.0312475,37.1757808 C41.3281218,37.3502595 41.6510377,37.437499 41.9999952,37.437499 C42.3489528,37.437499 42.6718686,37.3502595 42.9687429,37.1757808 C43.2656172,37.0013021 43.5012938,36.7656256 43.6757725,36.4687513 C43.8502512,36.171877 43.9374906,35.8489611 43.9374906,35.5000036 C43.9374906,35.151046 43.8502512,34.8281302 43.6757725,34.5312559 C43.5012938,34.2343816 43.2656172,33.998705 42.9687429,33.8242263 C42.6718686,33.6497476 42.3489528,33.5625082 41.9999952,33.5625082 Z M46,19 L26,19 L26,30 L46,30 L46,19 Z" id="Combined-Shape" fill="#FFFFFF"></path>
    </g>
</svg>