<svg xmlns="http://www.w3.org/2000/svg" xmlns:xlink="http://www.w3.org/1999/xlink" width="42" height="42" viewBox="0 0 42 42">
    <defs>
        <path id="a" d="M0 0h42v42H0z"/>
        <path id="c" d="M0 .626h26.227V32H0z"/>
        <path id="e" d="M.851.02h7.674v10.414H.851z"/>
    </defs>
    <g fill="none" fill-rule="evenodd">
        <g>
            <mask id="b" fill="#fff">
                <use xlink:href="#a"/>
            </mask>
            <path fill="#DCE2E5" fill-opacity=".2" d="M42 21c0 11.598-9.402 21-21 21S0 32.598 0 21 9.402 0 21 0s21 9.402 21 21" mask="url(#b)"/>
        </g>
        <g transform="translate(3 4)">
            <mask id="d" fill="#fff">
                <use xlink:href="#c"/>
            </mask>
            <path fill="#DCE2E5" d="M26.227 31.906c-7.902.03-15.804.05-23.706.094-1.82.01-2.524-.894-2.52-2.647C.027 20.66.03 11.965 0 3.271-.006 1.328.912.616 2.773.63 8.859.671 14.945.68 21.031.626c2.074-.017 2.799.947 2.75 2.911-.072 2.844-.016 5.69-.015 8.536.759.834.696 1.876.704 2.888.022 3.131.125 6.267-.027 9.39-.133 2.731.28 5.25 1.784 7.555" mask="url(#d)" opacity=".5"/>
        </g>
        <path fill="#DCE2E5" d="M29.227 35.814c-1.844-1.028-2.534-2.58-2.494-4.695.094-5.045.032-10.092.033-15.138l9.982.039c-2.141 2.453-2.447 5.38-2.226 8.46.051.712-.131 1.396-.629 1.954-.002 1.649.014 3.297-.011 4.946-.047 3.212-1.392 4.484-4.655 4.434"/>
        <g transform="translate(33 16)">
            <mask id="f" fill="#fff">
                <use xlink:href="#e"/>
            </mask>
            <path fill="#6B8592" d="M.893 10.434C.891 8.694.974 6.95.867 5.216.72 2.828 1.581 1.083 3.748.02c3.3.019 4.66 1.294 4.739 4.445.149 5.928.149 5.927-5.705 5.939-.63 0-1.259.019-1.889.03" mask="url(#f)"/>
        </g>
        <path fill="#6B8592" d="M21.663 18.002H8.11a.491.491 0 0 1-.491-.49v-.049c0-.27.22-.49.49-.49h13.554c.271 0 .491.22.491.49v.048c0 .271-.22.491-.49.491M21.663 13.88H8.11a.491.491 0 0 1-.491-.49v-.048c0-.271.22-.491.49-.491h13.554c.271 0 .491.22.491.49v.049c0 .27-.22.49-.49.49M21.663 22.124H8.11a.491.491 0 0 1-.491-.491v-.048c0-.271.22-.491.49-.491h13.554a.49.49 0 0 1 .491.491v.048c0 .271-.22.491-.49.491M21.663 26.246H8.11a.491.491 0 0 1-.491-.491v-.048c0-.271.22-.491.49-.491h13.554a.49.49 0 0 1 .491.49v.049c0 .27-.22.49-.49.49"/>
    </g>
</svg>
