<svg xmlns="http://www.w3.org/2000/svg" xmlns:xlink="http://www.w3.org/1999/xlink" width="42" height="42" viewBox="0 0 42 42">
    <defs>
        <path id="a" d="M0 0h42v42H0z"/>
    </defs>
    <g fill="none" fill-rule="evenodd">
        <g>
            <mask id="b" fill="#fff">
                <use xlink:href="#a"/>
            </mask>
            <path fill="#DCE2E5" d="M42 21c0 11.598-9.402 21-21 21S0 32.598 0 21 9.402 0 21 0s21 9.402 21 21" mask="url(#b)" opacity=".2"/>
        </g>
        <path fill="#6B8592" d="M29.726 29.352a.564.564 0 0 1-.36-1.002 11.847 11.847 0 0 0 4.339-9.178c0-6.55-5.33-11.876-11.876-11.876-3.86 0-7.493 1.887-9.718 5.047a.566.566 0 1 1-.925-.652 13.033 13.033 0 0 1 10.643-5.526c7.17 0 13.006 5.835 13.006 13.007 0 3.905-1.731 7.569-4.75 10.05a.56.56 0 0 1-.36.13M30 32.006l-7.065-4.068a1.751 1.751 0 0 0-2.111.279l-1.391 1.392a1.486 1.486 0 0 1-1.982.109 40.831 40.831 0 0 1-3.248-2.921 40.657 40.657 0 0 1-2.921-3.248 1.485 1.485 0 0 1 .11-1.981l1.391-1.392a1.75 1.75 0 0 0 .28-2.11L8.994 11a1.75 1.75 0 0 0-2.753-.365l-2.097 2.098c-2.733 2.732.452 10.348 7.113 17.009 6.661 6.66 14.277 9.846 17.01 7.113l2.096-2.097A1.749 1.749 0 0 0 30 32.006"/>
        <path fill="#6B8592" d="M5.651 11.226l5.876 10.206 1.256-1.256c.56-.56.674-1.425.28-2.11L8.993 11a1.75 1.75 0 0 0-2.753-.364l-.59.59zM29.773 35.349l.59-.59A1.75 1.75 0 0 0 30 32.006l-7.066-4.068a1.75 1.75 0 0 0-2.11.279l-1.289 1.289 10.238 5.843zM29.18 29.917a.564.564 0 0 1-.555-.676l.566-2.828a.566.566 0 0 1 1.109.222l-.4 1.996 1.997-.4a.566.566 0 0 1 .22 1.11l-2.826.565a.522.522 0 0 1-.111.011"/>
        <path fill="#DCE2E5" d="M21.828 10.69a.566.566 0 0 1-.566-.566V8.992a.566.566 0 0 1 1.131 0v1.132a.565.565 0 0 1-.565.565M32.008 19.738h-1.132a.566.566 0 0 1 0-1.131h1.132a.566.566 0 0 1 0 1.13M26.634 11.412a.565.565 0 0 1-.488-.849l.282-.489a.565.565 0 1 1 .979.566l-.282.489a.567.567 0 0 1-.491.283M17.021 11.412a.566.566 0 0 1-.49-.283l-.282-.49a.565.565 0 1 1 .979-.565l.283.489a.565.565 0 0 1-.49.849M13.5 14.931a.556.556 0 0 1-.281-.076l-.49-.283a.565.565 0 1 1 .566-.979l.489.282a.566.566 0 0 1-.283 1.056M30.642 24.828a.559.559 0 0 1-.282-.076l-.488-.283a.565.565 0 1 1 .564-.979l.49.282a.566.566 0 0 1-.284 1.056M30.154 14.931a.566.566 0 0 1-.283-1.056l.49-.282a.565.565 0 1 1 .565.979l-.49.283a.556.556 0 0 1-.282.076"/>
        <path fill="#6B8592" d="M21.82 22.227h-4.93v-1.208l1.658-1.677c.474-.495.784-.834.93-1.015.145-.181.246-.336.304-.467a.99.99 0 0 0 .086-.408.533.533 0 0 0-.172-.418c-.114-.103-.275-.154-.483-.154-.214 0-.43.06-.648.184a4.597 4.597 0 0 0-.74.54l-1.009-1.18c.35-.312.644-.535.882-.67.24-.135.498-.238.778-.31a3.81 3.81 0 0 1 .946-.106c.44 0 .833.077 1.177.232.346.155.614.376.804.662.19.287.286.608.286.964a2.6 2.6 0 0 1-.1.739 2.615 2.615 0 0 1-.309.667c-.14.218-.324.448-.555.689-.23.242-.722.7-1.475 1.375v.047h2.57v1.514zM25.053 19.542v-.79c0-.148.005-.35.016-.601.01-.253.019-.385.025-.398h-.051a4.826 4.826 0 0 1-.357.669l-.753 1.12h1.12zm2.56 1.37h-.748v1.315h-1.812v-1.314h-2.71v-1.348l2.826-4.13h1.696v4.107h.748v1.37z"/>
    </g>
</svg>
