<svg xmlns="http://www.w3.org/2000/svg" xmlns:xlink="http://www.w3.org/1999/xlink" width="42" height="42" viewBox="0 0 42 42">
    <defs>
        <path id="a" d="M0 0h42v42H0z"/>
    </defs>
    <g fill="none" fill-rule="evenodd">
        <g>
            <mask id="b" fill="#fff">
                <use xlink:href="#a"/>
            </mask>
            <path fill="#DCE2E5" fill-opacity=".2" d="M42 21c0 11.598-9.401 21-21 21C9.402 42 0 32.598 0 21S9.402 0 21 0c11.599 0 21 9.402 21 21" mask="url(#b)"/>
        </g>
        <path fill="#6B8592" d="M20.352 31.877c7.497 0 11.631-2.118 10.887-9.157-.744-7.04-6.582-13.22-6.582-13.22l1.488-2.06s1.89-2.749 0-4.236c-1.889-1.489-3.549.572-3.549.572s-.699-1.303-2.244-1.303h-.017c-1.545 0-2.244 1.303-2.244 1.303s-1.66-2.06-3.549-.572c-1.888 1.487 0 4.235 0 4.235l1.49 2.06S10.192 15.68 9.448 22.72c-.744 7.04 3.39 9.157 10.886 9.157h.017z"/>
        <path fill="#F2F5F6" d="M24.657 10.21H16.03a.711.711 0 1 1 0-1.422h8.626a.712.712 0 0 1 0 1.423M21.084 20.147h-1.48a1.257 1.257 0 0 1 0-2.513h1.48c.692 0 1.256.563 1.256 1.257a.51.51 0 0 0 1.02 0 2.278 2.278 0 0 0-2.276-2.275h-.23V15.49a.51.51 0 0 0-1.02 0v1.125h-.23a2.278 2.278 0 0 0-2.276 2.275 2.278 2.278 0 0 0 2.276 2.274h1.48a1.258 1.258 0 0 1 0 2.513h-1.48a1.256 1.256 0 0 1-1.256-1.256.51.51 0 0 0-1.02 0 2.279 2.279 0 0 0 2.276 2.275h.23v1.124a.51.51 0 0 0 1.02 0v-1.124h.23a2.278 2.278 0 0 0 2.276-2.275 2.278 2.278 0 0 0-2.276-2.275"/>
        <path fill="#DCE2E5" d="M7.12 26.122a2.021 2.021 0 0 0-1.366 3.511l6.329 8.073 11.099 1.365 9.314-2.499 1.817-6.815-1.786-.652a3.317 3.317 0 0 0-1.554-.877l-1.885-.465c-1.411-.349-2.648-.009-4.09.176-1.381.18-3.154-.067-3.634-.227l-4.176-1.247a1.76 1.76 0 0 0-2.26 2.084 1.76 1.76 0 0 0 1.242 1.28l3.479.95h-6.402l-4.664-4.146a2.017 2.017 0 0 0-1.342-.51H7.12z"/>
        <path fill="#F2F5F6" d="M32.23 39.526l4.551-.066.121-13.65-4.551.066-.113 12.74z"/>
    </g>
</svg>
