<svg xmlns="http://www.w3.org/2000/svg" xmlns:xlink="http://www.w3.org/1999/xlink" width="42" height="42" viewBox="0 0 42 42">
    <defs>
        <path id="a" d="M0 0h42v42H0z"/>
    </defs>
    <g fill="none" fill-rule="evenodd">
        <path fill="#FFF" fill-opacity="0" d="M-3-3h48v48H-3z"/>
        <g>
            <mask id="b" fill="#fff">
                <use xlink:href="#a"/>
            </mask>
            <path fill="#DCE2E5" fill-opacity=".2" d="M42 21c0 11.598-9.402 21-21 21S0 32.598 0 21 9.402 0 21 0s21 9.402 21 21" mask="url(#b)"/>
        </g>
        <path fill="#6B8592" d="M16.962 30.802l-1.989-1.564c-.11-.082-.145-.227-.079-.32.318-.463.932-.62 1.536-.395l1.8 1.02-1.268 1.26zM17.63 31.47l1.567 1.993c.082.109.227.145.322.079l.118-.082c.39-.27.523-.79.334-1.3l-1.078-1.953-1.264 1.263z"/>
        <path fill="#DCE2E5" d="M17.5 24.675a.689.689 0 0 1-.046-.922c.32-.391.72-.828.96-1.068.327-.328.356-.29.706-.504a.131.131 0 0 1 .161.019l.694.694c.043.043.05.109.02.16-.216.35-.177.38-.505.708-.24.24-.677.64-1.068.959a.688.688 0 0 1-.922-.046M23.76 30.935a.689.689 0 0 1-.046-.922c.319-.391.72-.828.959-1.068.328-.328.358-.29.708-.504a.131.131 0 0 1 .16.019l.695.694a.13.13 0 0 1 .018.16c-.215.35-.176.38-.504.708-.24.24-.676.64-1.067.959a.687.687 0 0 1-.922-.046"/>
        <path fill="#6B8592" d="M20.632 27.039l2.454-2.454-7.602-2.388a.429.429 0 0 0-.415.1l-.643.643c-.215.216-.123.61.181.773l6.025 3.326zM21.397 27.803l2.454-2.454 2.388 7.602a.43.43 0 0 1-.102.416l-.641.643c-.216.214-.61.122-.773-.182l-3.326-6.025z"/>
        <path fill="#DCE2E5" d="M26.029 24.318l-4.123 4.123a22.391 22.391 0 0 1-2.197 1.927l-1.962 1.505c-.454.348-.994.39-1.285.1-.29-.29-.247-.83.1-1.284l1.505-1.962a22.254 22.254 0 0 1 1.928-2.197l4.122-4.123a6.854 6.854 0 0 1 1.895-1.355c.59-.278 1.215-.452 1.52-.148.303.304.13.93-.148 1.519a6.854 6.854 0 0 1-1.355 1.895"/>
        <path fill="#F2F5F6" d="M26.37 23.528l-.142.141c-.129.13-1.592-1.332-1.462-1.463l.141-.14a.297.297 0 0 1 .325-.07c.53.233.974.678 1.207 1.207a.297.297 0 0 1-.069.325"/>
        <path fill="#6B8592" d="M16.907 31.724a.197.197 0 0 1-.139-.334l1.712-1.713a.196.196 0 1 1 .278.277l-1.712 1.712a.195.195 0 0 1-.139.058"/>
        <path fill="#F2F5F6" d="M23.403 2.845a4.783 4.783 0 0 1 4.783 4.784 4.783 4.783 0 1 1-9.566 0 4.784 4.784 0 0 1 4.783-4.784"/>
        <path fill="#6B8592" d="M23.403 3.643a3.985 3.985 0 1 1 0 7.97 3.986 3.986 0 1 1 0-7.97"/>
        <path fill="#F2F5F6" d="M23.585 7.378h-.584a.496.496 0 0 1 0-.99h.584c.272 0 .494.222.494.495 0 .111.091.201.201.201a.2.2 0 0 0 .201-.2.897.897 0 0 0-.896-.897h-.092v-.443a.2.2 0 1 0-.4 0v.443H23a.897.897 0 0 0 0 1.792h.584a.496.496 0 0 1 0 .991h-.584a.497.497 0 0 1-.495-.496.2.2 0 0 0-.4 0c0 .495.401.896.895.896h.091v.444a.2.2 0 0 0 .401 0V9.17h.092a.896.896 0 0 0 0-1.792"/>
        <path fill="#DCE2E5" d="M27.463 14.14v-.269h.447c.697 0 1.149-.569 1.149-1.264v-1.264c0-.697-.452-1.265-1.149-1.265H14.042c-.695 0-1.147.568-1.147 1.264v1.265c0 .696.452 1.266 1.147 1.266h.633v.267c0 2.46-4.428 1.155-4.428 5.691v14.04a5.302 5.302 0 0 0 5.303 5.301h10.9a5.302 5.302 0 0 0 5.302-5.301V19.83c.001-4.535-4.289-3.232-4.289-5.691" opacity=".5"/>
        <path fill="#DCE2E5" d="M20.342 10.077h7.568c.697 0 1.149.569 1.149 1.265v1.265c0 .696-.452 1.265-1.15 1.265h-7.588 1.29H14.043c-.695 0-1.147-.569-1.147-1.265v-1.265c0-.696.452-1.265 1.147-1.265H21.633"/>
    </g>
</svg>
