<svg xmlns="http://www.w3.org/2000/svg" viewBox="0 0 42 42"><defs><style>.cls-1,.cls-2{fill:#dce2e5;}.cls-1{opacity:0.2;}.cls-3{fill:#6b8592;}.cls-4{fill:#f2f5f6;}</style></defs><title>Asset 102</title><g id="Layer_2" data-name="Layer 2"><g id="rewards_3" data-name="rewards 3"><g id="Utilities"><circle class="cls-1" cx="21" cy="21" r="21"/></g><rect class="cls-2" x="8.66" y="18.65" width="24.68" height="14.39" rx="1.01"/><path class="cls-2" d="M32.33,13.83c-.11-2.1-3.16-4.63-3.16-4.63s-3.5,4.29-7.62,5l.13.66S32.44,15.92,32.33,13.83Z"/><path class="cls-3" d="M21.46,13.71s4.25-6,7.71-4.51c.75,2.89-7.62,5.2-7.62,5.2Z"/><path class="cls-2" d="M10,13.83c.11-2.1,3.16-4.63,3.16-4.63s3.5,4.29,7.62,5l-.13.66S9.92,15.92,10,13.83Z"/><path class="cls-3" d="M20.9,13.71s-4.25-6-7.71-4.51c-.75,2.89,7.6,5.11,7.6,5.11Z"/><path class="cls-4" d="M24.41,16.44A3.41,3.41,0,1,1,21,13,3.41,3.41,0,0,1,24.41,16.44Z"/><rect class="cls-3" x="8.02" y="14.87" width="25.95" height="5.78" rx="1.01"/><rect class="cls-4" x="18.88" y="14.87" width="4.23" height="18.17"/></g></g></svg>