<svg xmlns="http://www.w3.org/2000/svg" viewBox="0 0 42 42"><defs><style>.cls-1,.cls-3{fill:#dce2e5;}.cls-1{opacity:0.2;}.cls-2{fill:#6b8592;}</style></defs><title>Asset 103</title><g id="Layer_2" data-name="Layer 2"><g id="rewards_2" data-name="rewards 2"><g id="Utilities"><circle class="cls-1" cx="21" cy="21" r="21"/></g><path class="cls-2" d="M35.8,15l-5.2-2.75a5.18,5.18,0,0,0-3.54-.58l-19,3.57a2.46,2.46,0,0,0-2,2.84L8.49,29.71a2.48,2.48,0,0,0,2.91,1.92l19-3.58a5.19,5.19,0,0,0,3.08-1.82l3.64-4.43A4.53,4.53,0,0,0,35.8,15Zm-1,5.43a1.71,1.71,0,1,1,1.36-2A1.71,1.71,0,0,1,34.84,20.39Z"/><path class="cls-3" d="M19.49,22.08,21,21.8a1.27,1.27,0,0,1,.47,2.49L20,24.57a1.26,1.26,0,0,1-1.48-1,.51.51,0,1,0-1,.19,2.3,2.3,0,0,0,2.68,1.83l.23,0,.21,1.11a.51.51,0,0,0,1-.19l-.21-1.12.23,0a2.3,2.3,0,1,0-.86-4.51l-1.46.28a1.27,1.27,0,0,1-.48-2.49l1.47-.28a1.26,1.26,0,0,1,1.48,1,.52.52,0,0,0,.6.41.51.51,0,0,0,.41-.6,2.3,2.3,0,0,0-2.68-1.83l-.23.05-.21-1.12a.51.51,0,0,0-.6-.41.52.52,0,0,0-.41.6l.21,1.12-.23,0a2.3,2.3,0,0,0,.86,4.51Z"/></g></g></svg>