<svg xmlns="http://www.w3.org/2000/svg" width="48" height="48" viewBox="0 0 48 48">
    <g fill="none" fill-rule="evenodd">
        <circle cx="24" cy="24" r="24" fill="#DCE2E5" fill-opacity=".2"/>
        <g transform="translate(5 12)">
            <rect width="38" height="24" fill="#DCE2E5" rx="2"/>
            <g fill="#6B8592" transform="translate(4 16)">
                <rect width="6" height="2" rx="1"/>
                <rect width="6" height="2" x="8" rx="1"/>
                <rect width="6" height="2" x="16" rx="1"/>
                <rect width="6" height="2" x="24" rx="1"/>
            </g>
            <rect width="8" height="5" x="4" y="6" fill="#F2F5F6" rx="1"/>
        </g>
        <g transform="translate(30 30)">
            <circle cx="9" cy="9" r="9" fill="#6B8592"/>
            <path fill="#FFF" fill-rule="nonzero" d="M9 20c6.075 0 11-4.925 11-11S15.075-2 9-2-2 2.925-2 9 2.925 20 9 20zm0-2A9 9 0 1 1 9 0a9 9 0 0 1 0 18z"/>
            <path fill="#F2F5F6" d="M8.953 4c.56 0 1.104.133 1.631.4.527.267.954.622 1.28 1.065.35.482.527.996.527 1.543 0 .43-.092.807-.274 1.133-.156.273-.37.52-.644.742-.17.13-.424.293-.762.488a4.076 4.076 0 0 0-.547.352c-.156.13-.234.267-.234.41v.117c0 .13-.046.24-.137.332a.452.452 0 0 1-.332.137H8.055a.452.452 0 0 1-.332-.137.452.452 0 0 1-.137-.332v-.195c0-.521.17-.964.508-1.328.208-.209.56-.45 1.054-.723l.04-.02c.351-.195.585-.351.703-.468.169-.157.254-.332.254-.528 0-.286-.15-.52-.45-.703a1.586 1.586 0 0 0-.898-.273c-.352 0-.651.084-.899.254-.195.13-.436.364-.722.703a.456.456 0 0 1-.645.097l-.84-.644a.456.456 0 0 1-.097-.645c.416-.586.879-1.022 1.386-1.308C7.54 4.156 8.198 4 8.953 4zm-.195 7.285c.377 0 .696.134.957.4.26.267.39.586.39.958 0 .37-.13.69-.39.957s-.58.4-.957.4c-.378 0-.697-.133-.957-.4a1.322 1.322 0 0 1-.39-.957c0-.372.13-.69.39-.957s.58-.4.957-.4z"/>
        </g>
    </g>
</svg>
