<svg xmlns="http://www.w3.org/2000/svg" width="48" height="48" viewBox="0 0 48 48">
    <g fill="none" fill-rule="evenodd">
        <circle cx="24" cy="24" r="24" fill="#DCE2E5" fill-opacity=".2"/>
        <g transform="translate(4 32)">
            <rect width="40" height="9" fill="#DCE2E5" rx="2"/>
            <rect width="14" height="3" x="4" y="3" fill="#6B8592" rx="1"/>
        </g>
        <g transform="translate(4 20)">
            <rect width="40" height="9" fill="#DCE2E5" rx="2"/>
            <rect width="26" height="3" x="4" y="3" fill="#6B8592" rx="1"/>
        </g>
        <g transform="translate(4 8)">
            <rect width="40" height="9" fill="#DCE2E5" rx="2"/>
            <rect width="32" height="3" x="4" y="3" fill="#6B8592" rx="1"/>
        </g>
        <g transform="translate(28 28)">
            <circle cx="11" cy="11" r="9" fill="#6B8592"/>
            <path fill="#FFF" fill-rule="nonzero" d="M11 22c6.075 0 11-4.925 11-11S17.075 0 11 0 0 4.925 0 11s4.925 11 11 11zm0-2a9 9 0 1 1 0-18 9 9 0 0 1 0 18z"/>
            <path fill="#F2F5F6" d="M12.087 10.55a2.183 2.183 0 0 1 1.494 1.612 2.15 2.15 0 0 1-.068 1.162 2.05 2.05 0 0 1-.801 1.026c-.378.253-.8.387-1.27.4v.937c0 .092-.029.166-.088.225a.304.304 0 0 1-.224.088h-.625a.304.304 0 0 1-.225-.088.304.304 0 0 1-.088-.225v-.937a2.719 2.719 0 0 1-1.699-.586.404.404 0 0 1-.117-.234c-.013-.091.02-.176.098-.254l.664-.664a.433.433 0 0 1 .185-.078.247.247 0 0 1 .205.058c.196.13.417.195.664.195h1.309a.57.57 0 0 0 .45-.918.596.596 0 0 0-.294-.214l-2.011-.586a2.335 2.335 0 0 1-1.114-.703c-.3-.339-.475-.73-.527-1.172A2.211 2.211 0 0 1 9.02 7.572a2.07 2.07 0 0 1 1.132-.322h.04v-.938c0-.09.029-.166.087-.224A.304.304 0 0 1 10.505 6h.625c.091 0 .166.03.224.088a.304.304 0 0 1 .088.224v.938a2.64 2.64 0 0 1 1.68.586.367.367 0 0 1 .137.234c.013.091-.02.17-.098.235l-.664.683a.433.433 0 0 1-.185.078.287.287 0 0 1-.206-.039 1.095 1.095 0 0 0-.664-.215h-1.308a.57.57 0 0 0-.45.918.596.596 0 0 0 .294.215l2.109.606z"/>
        </g>
    </g>
</svg>
