<svg xmlns="http://www.w3.org/2000/svg" width="48" height="48" viewBox="0 0 48 48">
    <g fill="none" fill-rule="evenodd">
        <circle cx="24" cy="24" r="24" fill="#DCE2E5" fill-opacity=".2"/>
        <g transform="translate(4 26)">
            <rect width="40" height="14" fill="#DCE2E5" rx="2"/>
            <rect width="9" height="2" x="4" y="8" fill="#F2F5F6" rx="1"/>
            <rect width="15" height="2" x="4" y="4" fill="#F2F5F6" rx="1"/>
        </g>
        <g transform="translate(4 8)">
            <rect width="40" height="14" fill="#DCE2E5" rx="2"/>
            <rect width="9" height="2" x="4" y="8" fill="#F2F5F6" rx="1"/>
            <rect width="15" height="2" x="4" y="4" fill="#F2F5F6" rx="1"/>
            <path fill="#F2F5F6" d="M34.144 6.727c.52.156.921.472 1.201.947s.355.98.225 1.513a1.952 1.952 0 0 1-.762 1.133 2.16 2.16 0 0 1-1.309.43h-.058v.937c0 .092-.03.166-.088.225a.304.304 0 0 1-.225.088h-.625a.304.304 0 0 1-.224-.088.304.304 0 0 1-.088-.225v-.937h-.059a2.697 2.697 0 0 1-1.68-.566.328.328 0 0 1-.126-.235.348.348 0 0 1 .088-.254l.449-.43a.24.24 0 0 1 .195-.097c.078 0 .15.02.215.059.26.182.547.273.86.273h1.445a.75.75 0 0 0 .605-.283.76.76 0 0 0 .176-.635.663.663 0 0 0-.186-.41.949.949 0 0 0-.42-.254l-2.265-.645a2.027 2.027 0 0 1-1.201-.947 1.962 1.962 0 0 1-.225-1.514c.117-.468.371-.846.762-1.132a2.19 2.19 0 0 1 1.328-.43h.039v-.938c0-.09.03-.166.088-.224A.304.304 0 0 1 32.503 2h.625c.092 0 .166.03.225.088a.304.304 0 0 1 .088.224v.938h.058c.625 0 1.185.189 1.68.566.078.066.12.144.127.235a.288.288 0 0 1-.088.234l-.449.45a.24.24 0 0 1-.195.097.41.41 0 0 1-.215-.059 1.466 1.466 0 0 0-.86-.273h-1.445a.75.75 0 0 0-.605.283.76.76 0 0 0-.176.635.663.663 0 0 0 .185.41c.111.117.251.202.42.254l2.266.645z"/>
        </g>
        <g transform="translate(30 30)">
            <circle cx="9" cy="9" r="9" fill="#6B8592"/>
            <path fill="#FFF" fill-rule="nonzero" d="M9 20c6.075 0 11-4.925 11-11S15.075-2 9-2-2 2.925-2 9 2.925 20 9 20zm0-2A9 9 0 1 1 9 0a9 9 0 0 1 0 18z"/>
            <path fill="#F2F5F6" d="M10.246 8.937l1.953 1.954c.117.117.176.26.176.43 0 .169-.059.318-.176.449l-.43.43a.652.652 0 0 1-.449.175.584.584 0 0 1-.43-.176l-1.953-1.953L6.984 12.2a.584.584 0 0 1-.43.176.652.652 0 0 1-.449-.176l-.43-.43a.652.652 0 0 1-.175-.449c0-.169.059-.312.176-.43l1.953-1.953-1.953-1.953a.584.584 0 0 1-.176-.43c0-.169.059-.318.176-.449l.43-.43a.652.652 0 0 1 .449-.175c.169 0 .312.059.43.176l1.952 1.953 1.954-1.953a.584.584 0 0 1 .43-.176c.169 0 .318.059.449.176l.43.43c.116.13.175.28.175.449 0 .169-.059.312-.176.43l-1.953 1.952z"/>
        </g>
    </g>
</svg>
