<svg xmlns="http://www.w3.org/2000/svg" width="48" height="48" viewBox="0 0 48 48">
    <g fill="none" fill-rule="evenodd">
        <circle cx="24" cy="24" r="24" fill="#DCE2E5" fill-opacity=".2"/>
        <g transform="translate(5 12)">
            <rect width="38" height="24" fill="#DCE2E5" rx="2"/>
            <g fill="#6B8592" transform="translate(4 16)">
                <rect width="6" height="2" rx="1"/>
                <rect width="6" height="2" x="8" rx="1"/>
                <rect width="6" height="2" x="16" rx="1"/>
                <rect width="6" height="2" x="24" rx="1"/>
            </g>
            <rect width="8" height="5" x="4" y="6" fill="#F2F5F6" rx="1"/>
        </g>
        <path fill="#6B8592" d="M39.46 28.852l8.338 14.618a1.8 1.8 0 0 1 .174 1.142 1.69 1.69 0 0 1-.556.984 1.56 1.56 0 0 1-1.077.404H29.66a1.56 1.56 0 0 1-1.077-.404 1.69 1.69 0 0 1-.556-.984 1.8 1.8 0 0 1 .174-1.142l8.339-14.618c.208-.375.504-.627.886-.755a1.749 1.749 0 0 1 1.146 0c.382.128.678.38.886.755z"/>
        <path fill="#FFF" fill-rule="nonzero" d="M49.535 42.479l.056.105c.372.752.496 1.566.349 2.382a3.69 3.69 0 0 1-1.19 2.12 3.56 3.56 0 0 1-2.411.914H29.66a3.56 3.56 0 0 1-2.41-.914 3.69 3.69 0 0 1-1.191-2.12 3.798 3.798 0 0 1 .35-2.382l.055-.105 8.328-14.599a3.56 3.56 0 0 1 1.995-1.679 3.748 3.748 0 0 1 2.424 0c.858.29 1.542.871 1.989 1.668l8.334 14.61zM39.46 28.852a1.563 1.563 0 0 0-.886-.755 1.749 1.749 0 0 0-1.146 0c-.382.128-.678.38-.886.755L28.202 43.47a1.8 1.8 0 0 0-.174 1.142c.07.387.255.715.556.984.301.27.66.404 1.077.404H46.34a1.56 1.56 0 0 0 1.077-.404 1.69 1.69 0 0 0 .556-.984 1.8 1.8 0 0 0-.174-1.142l-8.339-14.618z"/>
        <path fill="#F2F5F6" d="M39.625 41.937c0 .43-.153.798-.459 1.104a1.505 1.505 0 0 1-1.104.459c-.43 0-.797-.153-1.103-.459a1.505 1.505 0 0 1-.459-1.104c0-.43.153-.797.459-1.103a1.505 1.505 0 0 1 1.103-.459c.43 0 .798.153 1.104.459.306.306.459.674.459 1.103zm-2.95-7.949c0-.13.046-.244.137-.342a.437.437 0 0 1 .333-.146h1.835c.13 0 .241.049.332.146a.485.485 0 0 1 .137.342l-.273 5.313a.42.42 0 0 1-.137.322.47.47 0 0 1-.332.127h-1.289a.47.47 0 0 1-.332-.127.42.42 0 0 1-.137-.322l-.273-5.313z"/>
    </g>
</svg>
