<?xml version="1.0" encoding="UTF-8"?>
<svg width="280px" height="36px" viewBox="0 0 280 36" version="1.1" xmlns="http://www.w3.org/2000/svg" xmlns:xlink="http://www.w3.org/1999/xlink">
    <!-- Generator: Sketch 58 (84663) - https://sketch.com -->
    <title>CTAs/Wallet/GPay_Save to phone</title>
    <desc>Created with Sketch.</desc>
    <defs>
        <path d="M4,0 C1.791,0 0,1.791 0,4 L0,4 L0,32 C0,34.209 1.791,36 4,36 L4,36 L276,36 C278.209,36 280,34.209 280,32 L280,32 L280,4 C280,1.791 278.209,0 276,0 L276,0 L4,0 Z" id="path-1"></path>
        <path d="M0.26,0.197 L0.26,11.892 L1.764,11.892 L1.764,7.155 L1.764,7.154 L4.249,7.154 C5.273,7.154 6.135,6.822 6.833,6.158 L6.833,6.158 C7.552,5.495 7.912,4.667 7.912,3.676 L7.912,3.676 C7.912,2.707 7.552,1.885 6.833,1.21 L6.833,1.21 C6.124,0.535 5.263,0.197 4.249,0.197 L4.249,0.197 L0.26,0.197 Z M1.764,1.635 L1.764,1.634 L4.282,1.634 C4.883,1.634 5.379,1.841 5.77,2.255 L5.77,2.255 C6.173,2.658 6.375,3.131 6.375,3.676 L6.375,3.676 C6.375,4.231 6.173,4.711 5.77,5.113 L5.77,5.113 C5.379,5.516 4.883,5.718 4.282,5.718 L4.282,5.718 L1.764,5.718 L1.764,1.635 Z" id="path-3"></path>
        <path d="M1.14,2.195 L2.465,3.029 C2.955,2.32 3.619,1.967 4.46,1.967 L4.46,1.967 C5.015,1.967 5.499,2.148 5.914,2.514 L5.914,2.514 C6.328,2.878 6.535,3.322 6.535,3.844 L6.535,3.844 L6.535,4.188 C5.958,3.861 5.221,3.698 4.328,3.698 L4.328,3.698 C3.282,3.698 2.447,3.943 1.819,4.433 L1.819,4.433 C1.192,4.923 0.88,5.581 0.88,6.409 L0.88,6.409 C0.88,7.194 1.177,7.845 1.771,8.369 L1.771,8.369 C2.364,8.892 3.103,9.152 3.986,9.152 L3.986,9.152 C5.021,9.152 5.849,8.695 6.471,7.781 L6.471,7.781 L6.536,7.781 L6.536,8.892 L7.975,8.892 L7.975,3.959 C7.975,2.925 7.654,2.111 7.011,1.517 L7.011,1.517 C6.367,0.924 5.49,0.627 4.378,0.627 L4.378,0.627 C2.95,0.627 1.871,1.15 1.14,2.195 L1.14,2.195 Z M2.931,7.421 C2.599,7.16 2.432,6.834 2.432,6.441 L2.432,6.441 C2.432,6.006 2.636,5.642 3.045,5.349 L3.045,5.349 C3.454,5.054 3.962,4.907 4.573,4.907 L4.573,4.907 C5.413,4.907 6.066,5.092 6.535,5.463 L6.535,5.463 C6.535,6.094 6.288,6.644 5.792,7.111 L5.792,7.111 C5.296,7.579 4.733,7.814 4.1,7.814 L4.1,7.814 C3.654,7.814 3.264,7.682 2.931,7.421 L2.931,7.421 Z" id="path-5"></path>
        <path d="M0.227,0.768 L0.227,3.356 L3.86,3.356 C3.704,4.199 3.232,4.917 2.517,5.397 L2.517,5.397 L2.517,7.078 L4.685,7.078 C5.955,5.908 6.686,4.179 6.686,2.134 L6.686,2.134 C6.686,1.661 6.647,1.205 6.57,0.768 L6.57,0.768 L0.227,0.768 Z" id="path-7"></path>
        <path d="M0.217,0.267 L0.217,1.998 C1.324,4.194 3.598,5.7 6.227,5.7 L6.227,5.7 C8.042,5.7 9.571,5.105 10.685,4.078 L10.685,4.078 L8.517,2.397 C7.913,2.804 7.135,3.041 6.227,3.041 L6.227,3.041 C4.472,3.041 2.983,1.859 2.451,0.267 L2.451,0.267 L0.217,0.267 Z" id="path-9"></path>
        <path d="M1.217,0.964 C0.759,1.871 0.5,2.895 0.5,3.981 L0.5,3.981 C0.5,5.066 0.759,6.09 1.217,6.998 L1.217,6.998 L3.451,5.267 C3.314,4.861 3.239,4.428 3.239,3.981 L3.239,3.981 C3.239,3.534 3.314,3.101 3.451,2.695 L3.451,2.695 L3.451,0.964 L1.217,0.964 Z" id="path-11"></path>
        <path d="M0.217,3.964 L2.451,5.695 C2.983,4.103 4.472,2.922 6.227,2.922 L6.227,2.922 C7.218,2.922 8.106,3.262 8.807,3.929 L8.807,3.929 L8.807,3.93 L10.727,2.012 C9.562,0.927 8.041,0.261 6.227,0.261 L6.227,0.261 C3.598,0.261 1.324,1.769 0.217,3.964 L0.217,3.964 Z" id="path-13"></path>
    </defs>
    <g id="CTAs/Wallet/GPay_Save-to-phone" stroke="none" stroke-width="1" fill="none" fill-rule="evenodd">
        <g id="Save-to-G-Pay">
            <g id="Group-4">
                <mask id="mask-2" fill="white">
                    <use xlink:href="#path-1"></use>
                </mask>
                <g id="Clip-3"></g>
                <polygon id="Fill-2" fill="#000000" mask="url(#mask-2)" points="-5 41 285 41 285 -5 -5 -5"></polygon>
            </g>
            <polygon id="Fill-5" fill="#3A3F41" points="112.5 26 113.5 26 113.5 10.001 112.5 10.001"></polygon>
            <g id="Group-8" transform="translate(80.000000, 11.000000)">
                <mask id="mask-4" fill="white">
                    <use xlink:href="#path-3"></use>
                </mask>
                <g id="Clip-7"></g>
                <polygon id="Fill-6" fill="#FFFFFF" mask="url(#mask-4)" points="-4.74 16.892 12.912 16.892 12.912 -4.802 -4.74 -4.802"></polygon>
            </g>
            <g id="Group-11" transform="translate(87.000000, 14.000000)">
                <mask id="mask-6" fill="white">
                    <use xlink:href="#path-5"></use>
                </mask>
                <g id="Clip-10"></g>
                <polygon id="Fill-9" fill="#FFFFFF" mask="url(#mask-6)" points="-4.121 14.152 12.975 14.152 12.975 -4.373 -4.121 -4.373"></polygon>
            </g>
            <polygon id="Fill-12" fill="#FFFFFF" points="101.5966 14.8883 99.2746 20.6373 99.2426 20.6373 96.8556 14.8883 95.2206 14.8883 98.5236 22.3843 96.6586 26.4193 98.2116 26.4193 103.2306 14.8883"></polygon>
            <g id="Group-15" transform="translate(69.000000, 15.000000)">
                <mask id="mask-8" fill="white">
                    <use xlink:href="#path-7"></use>
                </mask>
                <g id="Clip-14"></g>
                <polygon id="Fill-13" fill="#3E82F1" mask="url(#mask-8)" points="-4.773 12.079 11.686 12.079 11.686 -4.232 -4.773 -4.232"></polygon>
            </g>
            <g id="Group-18" transform="translate(63.000000, 18.000000)">
                <mask id="mask-10" fill="white">
                    <use xlink:href="#path-9"></use>
                </mask>
                <g id="Clip-17"></g>
                <polygon id="Fill-16" fill="#32A753" mask="url(#mask-10)" points="-4.783 10.7 15.685 10.7 15.685 -4.733 -4.783 -4.733"></polygon>
            </g>
            <g id="Group-21" transform="translate(62.000000, 13.000000)">
                <mask id="mask-12" fill="white">
                    <use xlink:href="#path-11"></use>
                </mask>
                <g id="Clip-20"></g>
                <polygon id="Fill-19" fill="#F8BA00" mask="url(#mask-12)" points="-4.5 11.998 8.451 11.998 8.451 -4.036 -4.5 -4.036"></polygon>
            </g>
            <g id="Group-24" transform="translate(63.000000, 10.000000)">
                <mask id="mask-14" fill="white">
                    <use xlink:href="#path-13"></use>
                </mask>
                <g id="Clip-23"></g>
                <polygon id="Fill-22" fill="#E73E34" mask="url(#mask-14)" points="-4.783 10.696 15.728 10.696 15.728 -4.738 -4.783 -4.738"></polygon>
            </g>
            <g id="Group-31" transform="translate(122.000000, 12.000000)" fill="#FFFFFF">
                <path d="M19.082,11 L20.622,11 L23.59,3.86 L21.91,3.86 L19.894,9.012 L19.838,9.012 L17.864,3.86 L16.142,3.86 L19.082,11 Z M11.634,9.95 C11.232,9.95 10.906,9.845 10.654,9.635 C10.402,9.425 10.276,9.157 10.276,8.83 C10.276,8.466 10.411,8.17 10.682,7.941 C10.953,7.713 11.377,7.598 11.956,7.598 C12.264,7.598 12.56,7.636 12.845,7.71 C13.129,7.785 13.379,7.883 13.594,8.004 C13.594,8.35 13.51,8.672 13.342,8.97 C13.174,9.269 12.94,9.507 12.642,9.684 C12.343,9.861 12.007,9.95 11.634,9.95 L11.634,9.95 Z M11.368,11.224 C11.853,11.224 12.283,11.121 12.656,10.916 C13.029,10.711 13.318,10.454 13.524,10.146 L13.594,10.146 L13.594,11 L15.106,11 L15.106,6.548 C15.106,5.624 14.826,4.908 14.266,4.399 C13.706,3.891 12.908,3.636 11.872,3.636 C11.256,3.636 10.696,3.757 10.192,4 C9.688,4.243 9.277,4.583 8.96,5.022 L10.038,5.848 C10.234,5.568 10.493,5.349 10.815,5.19 C11.137,5.031 11.48,4.952 11.844,4.952 C12.357,4.952 12.777,5.09 13.104,5.365 C13.431,5.641 13.594,5.998 13.594,6.436 L13.594,6.8 C13.398,6.707 13.132,6.621 12.796,6.541 C12.46,6.462 12.082,6.422 11.662,6.422 C10.812,6.422 10.11,6.637 9.555,7.066 C8.999,7.495 8.722,8.079 8.722,8.816 C8.722,9.283 8.834,9.7 9.058,10.069 C9.282,10.438 9.595,10.723 9.996,10.923 C10.397,11.124 10.854,11.224 11.368,11.224 L11.368,11.224 Z M4.046,11.224 C4.597,11.224 5.131,11.116 5.649,10.902 C6.167,10.688 6.594,10.358 6.93,9.915 C7.266,9.472 7.434,8.924 7.434,8.27 C7.434,7.468 7.198,6.826 6.727,6.345 C6.255,5.864 5.591,5.475 4.732,5.176 L4.102,4.966 C3.504,4.761 3.066,4.546 2.786,4.322 C2.506,4.098 2.366,3.813 2.366,3.468 C2.366,3.104 2.522,2.806 2.835,2.572 C3.147,2.339 3.533,2.222 3.99,2.222 C4.447,2.222 4.821,2.343 5.11,2.586 C5.399,2.829 5.595,3.109 5.698,3.426 L7.112,2.824 C6.935,2.292 6.584,1.814 6.062,1.389 C5.539,0.964 4.839,0.752 3.962,0.752 C3.355,0.752 2.811,0.876 2.331,1.123 C1.85,1.371 1.475,1.704 1.204,2.124 C0.933,2.544 0.798,3.001 0.798,3.496 C0.798,4.215 1.026,4.793 1.484,5.232 C1.941,5.671 2.506,6.007 3.178,6.24 L3.808,6.464 C4.564,6.735 5.094,7.003 5.397,7.269 C5.7,7.535 5.852,7.873 5.852,8.284 C5.852,8.732 5.679,9.084 5.334,9.341 C4.989,9.598 4.568,9.726 4.074,9.726 C3.542,9.726 3.087,9.551 2.709,9.201 C2.331,8.851 2.067,8.4 1.918,7.85 L0.434,8.452 C0.686,9.329 1.143,10.011 1.806,10.496 C2.469,10.981 3.215,11.224 4.046,11.224 L4.046,11.224 Z" id="Fill-25"></path>
                <path d="M38.9502,11.2236 C39.3882,11.2236 39.7622,11.1546 40.0692,11.0136 L40.0692,9.5156 C39.9292,9.6096 39.7992,9.6766 39.6782,9.7186 C39.5562,9.7606 39.4162,9.7826 39.2582,9.7826 C38.9122,9.7826 38.6702,9.6866 38.5292,9.4946 C38.3802,9.3316 38.3052,9.0546 38.3052,8.6616 L38.3052,5.2176 L40.0422,5.2176 L40.0422,3.8596 L38.3052,3.8596 L38.3052,1.8446 L36.7652,1.8446 L36.7652,3.8596 L35.5192,3.8596 L35.5192,5.2176 L36.7652,5.2176 L36.7652,8.9846 C36.7652,9.6886 36.9672,10.2446 37.3682,10.6536 C37.5452,10.8246 37.7732,10.9626 38.0542,11.0676 C38.3342,11.1716 38.6332,11.2236 38.9502,11.2236 L38.9502,11.2236 Z M25.5942,6.5896 C25.7242,6.0956 25.9602,5.7016 26.3012,5.4076 C26.6412,5.1126 27.0592,4.9656 27.5542,4.9656 C27.9652,4.9656 28.3122,5.0496 28.5962,5.2176 C28.8822,5.3866 29.0942,5.5936 29.2342,5.8406 C29.3742,6.0886 29.4532,6.3376 29.4712,6.5896 L25.5942,6.5896 Z M27.6372,11.2236 C28.3932,11.2236 29.0432,11.0556 29.5842,10.7196 C30.1252,10.3836 30.5642,9.9216 30.9002,9.3336 L29.5972,8.7176 C29.4022,9.0636 29.1422,9.3356 28.8212,9.5366 C28.4992,9.7386 28.1182,9.8376 27.6792,9.8376 C27.1292,9.8376 26.6462,9.6586 26.2312,9.2986 C25.8152,8.9396 25.5802,8.4286 25.5242,7.7656 L30.9982,7.7656 C31.0262,7.5706 31.0402,7.4076 31.0402,7.2766 C31.0402,6.5856 30.9022,5.9646 30.6272,5.4136 C30.3512,4.8636 29.9502,4.4296 29.4232,4.1116 C28.8952,3.7946 28.2722,3.6366 27.5542,3.6366 C26.8632,3.6366 26.2472,3.8086 25.7062,4.1536 C25.1652,4.4996 24.7422,4.9636 24.4392,5.5466 C24.1362,6.1306 23.9842,6.7626 23.9842,7.4446 C23.9842,8.1626 24.1402,8.8086 24.4532,9.3826 C24.7652,9.9566 25.1992,10.4076 25.7552,10.7346 C26.3102,11.0606 26.9382,11.2236 27.6372,11.2236 L27.6372,11.2236 Z" id="Fill-27"></path>
                <path d="M88.7217,6.5898 C88.8527,6.0948 89.0877,5.7008 89.4287,5.4068 C89.7697,5.1128 90.1867,4.9658 90.6817,4.9658 C91.0917,4.9658 91.4397,5.0498 91.7247,5.2178 C92.0087,5.3858 92.2217,5.5938 92.3617,5.8408 C92.5017,6.0888 92.5807,6.3378 92.5997,6.5898 L88.7217,6.5898 Z M90.7657,11.2238 C91.5217,11.2238 92.1697,11.0558 92.7117,10.7198 C93.2527,10.3838 93.6917,9.9218 94.0277,9.3338 L92.7257,8.7178 C92.5297,9.0638 92.2707,9.3358 91.9487,9.5368 C91.6267,9.7378 91.2457,9.8378 90.8077,9.8378 C90.2567,9.8378 89.7737,9.6578 89.3587,9.2988 C88.9437,8.9398 88.7067,8.4288 88.6517,7.7658 L94.1247,7.7658 C94.1537,7.5698 94.1677,7.4068 94.1677,7.2768 C94.1677,6.5858 94.0297,5.9648 93.7547,5.4138 C93.4797,4.8628 93.0777,4.4288 92.5507,4.1118 C92.0237,3.7948 91.4007,3.6358 90.6817,3.6358 C89.9907,3.6358 89.3747,3.8088 88.8327,4.1538 C88.2917,4.4998 87.8697,4.9638 87.5667,5.5468 C87.2627,6.1308 87.1117,6.7628 87.1117,7.4438 C87.1117,8.1628 87.2677,8.8088 87.5797,9.3828 C87.8927,9.9568 88.3267,10.4068 88.8827,10.7348 C89.4377,11.0608 90.0657,11.2238 90.7657,11.2238 L90.7657,11.2238 Z M79.2017,10.9998 L80.7417,10.9998 L80.7417,7.1358 C80.7417,6.7718 80.8167,6.4318 80.9657,6.1138 C81.1157,5.7968 81.3257,5.5428 81.5957,5.3508 C81.8667,5.1598 82.1737,5.0638 82.5197,5.0638 C83.0047,5.0638 83.3857,5.1948 83.6607,5.4558 C83.9357,5.7168 84.0737,6.1278 84.0737,6.6878 L84.0737,10.9998 L85.6137,10.9998 L85.6137,6.4778 C85.6137,5.6008 85.3877,4.9078 84.9347,4.3988 C84.4817,3.8908 83.8217,3.6358 82.9537,3.6358 C82.4957,3.6358 82.0647,3.7458 81.6587,3.9648 C81.2527,4.1848 80.9477,4.4618 80.7417,4.7978 L80.6717,4.7978 L80.6717,3.8598 L79.2017,3.8598 L79.2017,10.9998 Z M73.8957,9.8098 C73.5037,9.8098 73.1397,9.7148 72.8037,9.5238 C72.4677,9.3318 72.1997,9.0568 71.9987,8.6968 C71.7977,8.3378 71.6977,7.9148 71.6977,7.4298 C71.6977,6.9448 71.7977,6.5248 71.9987,6.1698 C72.1997,5.8158 72.4677,5.5428 72.8037,5.3508 C73.1397,5.1598 73.5037,5.0638 73.8957,5.0638 C74.2877,5.0638 74.6517,5.1598 74.9877,5.3508 C75.3247,5.5428 75.5917,5.8158 75.7927,6.1698 C75.9927,6.5248 76.0937,6.9448 76.0937,7.4298 C76.0937,7.9148 75.9927,8.3378 75.7927,8.6968 C75.5917,9.0568 75.3247,9.3318 74.9877,9.5238 C74.6517,9.7148 74.2877,9.8098 73.8957,9.8098 L73.8957,9.8098 Z M73.8957,11.2238 C74.6147,11.2238 75.2587,11.0588 75.8277,10.7268 C76.3967,10.3958 76.8397,9.9408 77.1587,9.3618 C77.4747,8.7828 77.6337,8.1398 77.6337,7.4298 C77.6337,6.7298 77.4747,6.0908 77.1587,5.5118 C76.8397,4.9338 76.3967,4.4758 75.8277,4.1398 C75.2587,3.8038 74.6147,3.6358 73.8957,3.6358 C73.1767,3.6358 72.5337,3.8018 71.9637,4.1328 C71.3947,4.4648 70.9507,4.9198 70.6337,5.4978 C70.3167,6.0768 70.1587,6.7208 70.1587,7.4298 C70.1587,8.1398 70.3167,8.7828 70.6337,9.3618 C70.9507,9.9408 71.3947,10.3958 71.9637,10.7268 C72.5337,11.0588 73.1767,11.2238 73.8957,11.2238 L73.8957,11.2238 Z M62.2057,10.9998 L63.7457,10.9998 L63.7457,7.1638 C63.7457,6.7998 63.8257,6.4568 63.9837,6.1348 C64.1427,5.8128 64.3597,5.5538 64.6347,5.3578 C64.9097,5.1618 65.2207,5.0638 65.5657,5.0638 C66.0237,5.0638 66.3947,5.1988 66.6787,5.4698 C66.9637,5.7408 67.1057,6.1468 67.1057,6.6878 L67.1057,10.9998 L68.6457,10.9998 L68.6457,6.4778 C68.6457,5.6008 68.4167,4.9078 67.9597,4.3988 C67.5017,3.8908 66.8397,3.6358 65.9717,3.6358 C65.5047,3.6358 65.0687,3.7458 64.6627,3.9648 C64.2567,4.1848 63.9507,4.4618 63.7457,4.7978 L63.6757,4.7978 L63.7457,3.7058 L63.7457,0.9758 L62.2057,0.9758 L62.2057,10.9998 Z M56.9837,9.8098 C56.6107,9.8098 56.2627,9.7118 55.9407,9.5158 C55.6187,9.3198 55.3597,9.0398 55.1637,8.6758 C54.9677,8.3128 54.8697,7.8968 54.8697,7.4298 C54.8697,6.9638 54.9677,6.5498 55.1637,6.1908 C55.3597,5.8318 55.6187,5.5538 55.9407,5.3578 C56.2627,5.1618 56.6107,5.0638 56.9837,5.0638 C57.3577,5.0638 57.7067,5.1618 58.0347,5.3578 C58.3607,5.5538 58.6217,5.8318 58.8187,6.1908 C59.0137,6.5498 59.1127,6.9638 59.1127,7.4298 C59.1127,7.8968 59.0137,8.3128 58.8187,8.6758 C58.6217,9.0398 58.3607,9.3198 58.0347,9.5158 C57.7067,9.7118 57.3577,9.8098 56.9837,9.8098 L56.9837,9.8098 Z M53.3997,14.0248 L54.9397,14.0248 L54.9397,11.0698 L54.8697,10.0758 L54.9397,10.0758 C55.1457,10.3938 55.4487,10.6638 55.8497,10.8878 C56.2507,11.1118 56.7037,11.2238 57.2077,11.2238 C57.8517,11.2238 58.4357,11.0608 58.9577,10.7348 C59.4807,10.4068 59.8937,9.9568 60.1977,9.3828 C60.4997,8.8088 60.6527,8.1578 60.6527,7.4298 C60.6527,6.7018 60.4997,6.0508 60.1977,5.4768 C59.8937,4.9028 59.4807,4.4528 58.9577,4.1258 C58.4357,3.7988 57.8517,3.6358 57.2077,3.6358 C56.7037,3.6358 56.2507,3.7478 55.8497,3.9718 C55.4487,4.1958 55.1457,4.4708 54.9397,4.7978 L54.8697,4.7978 L54.8697,3.8598 L53.3997,3.8598 L53.3997,14.0248 Z M44.7197,9.8098 C44.3277,9.8098 43.9637,9.7148 43.6277,9.5238 C43.2917,9.3318 43.0237,9.0568 42.8237,8.6968 C42.6217,8.3378 42.5227,7.9148 42.5227,7.4298 C42.5227,6.9448 42.6217,6.5248 42.8237,6.1698 C43.0237,5.8158 43.2917,5.5428 43.6277,5.3508 C43.9637,5.1598 44.3277,5.0638 44.7197,5.0638 C45.1127,5.0638 45.4757,5.1598 45.8127,5.3508 C46.1487,5.5428 46.4157,5.8158 46.6177,6.1698 C46.8177,6.5248 46.9177,6.9448 46.9177,7.4298 C46.9177,7.9148 46.8177,8.3378 46.6177,8.6968 C46.4157,9.0568 46.1487,9.3318 45.8127,9.5238 C45.4757,9.7148 45.1127,9.8098 44.7197,9.8098 L44.7197,9.8098 Z M44.7197,11.2238 C45.4387,11.2238 46.0827,11.0588 46.6527,10.7268 C47.2217,10.3958 47.6647,9.9408 47.9827,9.3618 C48.2987,8.7828 48.4577,8.1398 48.4577,7.4298 C48.4577,6.7298 48.2987,6.0908 47.9827,5.5118 C47.6647,4.9338 47.2217,4.4758 46.6527,4.1398 C46.0827,3.8038 45.4387,3.6358 44.7197,3.6358 C44.0007,3.6358 43.3577,3.8018 42.7877,4.1328 C42.2187,4.4648 41.7757,4.9198 41.4577,5.4978 C41.1407,6.0768 40.9827,6.7208 40.9827,7.4298 C40.9827,8.1398 41.1407,8.7828 41.4577,9.3618 C41.7757,9.9408 42.2187,10.3958 42.7877,10.7268 C43.3577,11.0588 44.0007,11.2238 44.7197,11.2238 L44.7197,11.2238 Z" id="Fill-29"></path>
            </g>
        </g>
    </g>
</svg>