<svg xmlns="http://www.w3.org/2000/svg" width="50" height="49" viewBox="0 0 50 49">
    <g fill="none" fill-rule="evenodd">
        <circle cx="24" cy="24" r="24" fill="#DCE2E5" fill-opacity=".2"/>
        <rect width="35" height="23" fill="#DCE2E5" rx="2" transform="translate(7 13)"/>
        <g transform="translate(10 21)">
            <rect width="29" height="7" fill="#F2F5F6" rx="2"/>
            <path fill="#6B8592" d="M7.565 4.11a.177.177 0 0 1 .09.113.189.189 0 0 1-.02.144l-.148.266a.178.178 0 0 1-.117.09.159.159 0 0 1-.14-.028L6.142 4.04l.024 1.266a.167.167 0 0 1-.047.14.19.19 0 0 1-.14.055h-.298a.19.19 0 0 1-.14-.055.167.167 0 0 1-.047-.14l.023-1.266-1.086.656a.159.159 0 0 1-.14.028.178.178 0 0 1-.118-.09l-.148-.266a.189.189 0 0 1-.02-.144.177.177 0 0 1 .09-.114l1.11-.609-1.11-.61a.177.177 0 0 1-.09-.113.189.189 0 0 1 .02-.144l.148-.266a.178.178 0 0 1 .118-.09.159.159 0 0 1 .14.028l1.086.656-.023-1.266a.167.167 0 0 1 .047-.14.19.19 0 0 1 .14-.055h.297a.19.19 0 0 1 .14.055.167.167 0 0 1 .048.14l-.024 1.266 1.086-.656a.159.159 0 0 1 .14-.028.178.178 0 0 1 .118.09l.148.266a.189.189 0 0 1 .02.144.177.177 0 0 1-.09.114l-1.11.609 1.11.61zm5.563 0a.177.177 0 0 1 .09.113.189.189 0 0 1-.02.144l-.149.266a.178.178 0 0 1-.117.09.159.159 0 0 1-.14-.028l-1.086-.656.023 1.266a.167.167 0 0 1-.047.14.19.19 0 0 1-.14.055h-.297a.19.19 0 0 1-.14-.055.167.167 0 0 1-.048-.14l.024-1.266-1.086.656a.159.159 0 0 1-.14.028.178.178 0 0 1-.118-.09l-.148-.266a.189.189 0 0 1-.02-.144.177.177 0 0 1 .09-.114l1.11-.609-1.11-.61a.177.177 0 0 1-.09-.113.189.189 0 0 1 .02-.144l.148-.266a.178.178 0 0 1 .117-.09.159.159 0 0 1 .14.028l1.087.656-.024-1.266a.167.167 0 0 1 .047-.14.19.19 0 0 1 .14-.055h.298a.19.19 0 0 1 .14.055.167.167 0 0 1 .047.14l-.023 1.266 1.086-.656a.159.159 0 0 1 .14-.028.178.178 0 0 1 .117.09l.149.266a.189.189 0 0 1 .02.144.177.177 0 0 1-.09.114l-1.11.609 1.11.61zm5.562 0a.177.177 0 0 1 .09.113.189.189 0 0 1-.02.144l-.148.266a.178.178 0 0 1-.117.09.159.159 0 0 1-.14-.028l-1.087-.656.024 1.266a.167.167 0 0 1-.047.14.19.19 0 0 1-.14.055h-.298a.19.19 0 0 1-.14-.055.167.167 0 0 1-.047-.14l.023-1.266-1.086.656a.159.159 0 0 1-.14.028.178.178 0 0 1-.118-.09l-.148-.266a.189.189 0 0 1-.02-.144.177.177 0 0 1 .09-.114l1.11-.609-1.11-.61a.177.177 0 0 1-.09-.113.189.189 0 0 1 .02-.144l.148-.266a.178.178 0 0 1 .118-.09.159.159 0 0 1 .14.028l1.086.656-.023-1.266a.167.167 0 0 1 .047-.14.19.19 0 0 1 .14-.055h.297a.19.19 0 0 1 .14.055.167.167 0 0 1 .048.14l-.024 1.266 1.086-.656a.159.159 0 0 1 .14-.028.178.178 0 0 1 .118.09l.148.266a.189.189 0 0 1 .02.144.177.177 0 0 1-.09.114l-1.11.609 1.11.61zm5.563 0a.177.177 0 0 1 .09.113.189.189 0 0 1-.02.144l-.149.266a.178.178 0 0 1-.117.09.159.159 0 0 1-.14-.028L22.83 4.04l.023 1.266a.167.167 0 0 1-.047.14.19.19 0 0 1-.14.055h-.297a.19.19 0 0 1-.14-.055.167.167 0 0 1-.048-.14l.024-1.266-1.086.656a.159.159 0 0 1-.14.028.178.178 0 0 1-.118-.09l-.148-.266a.189.189 0 0 1-.02-.144.177.177 0 0 1 .09-.114l1.11-.609-1.11-.61a.177.177 0 0 1-.09-.113.189.189 0 0 1 .02-.144l.148-.266a.178.178 0 0 1 .117-.09.159.159 0 0 1 .14.028l1.087.656-.024-1.266a.167.167 0 0 1 .047-.14.19.19 0 0 1 .14-.055h.298a.19.19 0 0 1 .14.055.167.167 0 0 1 .047.14l-.023 1.266 1.086-.656a.159.159 0 0 1 .14-.028.178.178 0 0 1 .117.09l.149.266a.189.189 0 0 1 .02.144.177.177 0 0 1-.09.114l-1.11.609 1.11.61z"/>
        </g>
        <g transform="translate(30 29)">
            <circle cx="9" cy="9" r="9" fill="#6B8592"/>
            <path fill="#FFF" fill-rule="nonzero" d="M9 20c6.075 0 11-4.925 11-11S15.075-2 9-2-2 2.925-2 9 2.925 20 9 20zm0-2A9 9 0 1 1 9 0a9 9 0 0 1 0 18z"/>
            <path fill="#F2F5F6" d="M13.61 4c.064 0 .12.023.165.068.046.046.069.101.069.166v3.907c0 .065-.023.12-.069.166a.226.226 0 0 1-.166.068H9.703a.226.226 0 0 1-.166-.068.226.226 0 0 1-.068-.166v-.918c0-.065.023-.12.068-.166a.25.25 0 0 1 .186-.069l1.972.098a3.402 3.402 0 0 0-1.22-1.113 3.351 3.351 0 0 0-1.631-.41c-.625 0-1.201.152-1.729.458a3.386 3.386 0 0 0-1.25 1.25A3.383 3.383 0 0 0 5.406 9c0 .625.153 1.201.46 1.728.305.528.722.945 1.25 1.25a3.383 3.383 0 0 0 1.728.46c.43 0 .84-.075 1.23-.225.39-.15.736-.361 1.035-.635a.272.272 0 0 1 .166-.058c.059 0 .114.026.166.078l.664.664c.04.039.059.094.059.166a.195.195 0 0 1-.078.166c-.43.39-.925.696-1.484.918a4.738 4.738 0 0 1-1.758.332c-.873 0-1.68-.218-2.422-.655a4.919 4.919 0 0 1-1.768-1.757A4.662 4.662 0 0 1 4 9.01c0-.88.218-1.69.654-2.432a4.894 4.894 0 0 1 1.768-1.767 4.695 4.695 0 0 1 2.422-.655 4.832 4.832 0 0 1 3.691 1.7l-.078-1.602a.25.25 0 0 1 .068-.186.226.226 0 0 1 .166-.068h.918z"/>
        </g>
    </g>
</svg>
