<?xml version="1.0" standalone="no"?>
<!DOCTYPE svg PUBLIC "-//W3C//DTD SVG 1.1//EN" "http://www.w3.org/Graphics/SVG/1.1/DTD/svg11.dtd" >
<svg>
<metadata>
Created by FontForge 20090622 at Thu Feb 21 09:39:23 2019
 By deploy user
Copyright (c) 2014 by atipo. All rights reserved.
</metadata>
<defs>
<font id="Geomanist-Light" horiz-adv-x="200" >
  <font-face 
    font-family="Geomanist Light"
    font-weight="300"
    font-stretch="normal"
    units-per-em="1000"
    panose-1="2 0 5 3 0 0 0 2 0 4"
    ascent="800"
    descent="-200"
    x-height="519"
    cap-height="700"
    bbox="-142 -221 1063 993"
    underline-thickness="50"
    underline-position="-50"
    unicode-range="U+0020-U+F6C3"
  />
<missing-glyph horiz-adv-x="508" 
d="M4 700h500v-700h-500v700zM424 650h-340l170 -255zM224 350l-170 255v-510zM454 95v510l-170 -255zM424 50l-170 255l-170 -255h340z" />
    <glyph glyph-name="ellipsis" unicode="&#x2e;&#x2e;&#x2e;" horiz-adv-x="628" 
d="M56 29q0 17 12.5 29.5t29.5 12.5t29.5 -12.5t12.5 -29.5t-12.5 -29.5t-29.5 -12.5t-29.5 12.5t-12.5 29.5zM272 29q0 17 12.5 29.5t29.5 12.5t29.5 -12.5t12.5 -29.5t-12.5 -29.5t-29.5 -12.5t-29.5 12.5t-12.5 29.5zM488 29q0 17 12.5 29.5t29.5 12.5t29.5 -12.5
t12.5 -29.5t-12.5 -29.5t-29.5 -12.5t-29.5 12.5t-12.5 29.5z" />
    <glyph glyph-name=".notdef" horiz-adv-x="508" 
d="M4 700h500v-700h-500v700zM424 650h-340l170 -255zM224 350l-170 255v-510zM454 95v510l-170 -255zM424 50l-170 255l-170 -255h340z" />
    <glyph glyph-name=".null" horiz-adv-x="0" 
 />
    <glyph glyph-name="nonmarkingreturn" horiz-adv-x="333" 
 />
    <glyph glyph-name="space" unicode=" " horiz-adv-x="263" 
 />
    <glyph glyph-name="exclam" unicode="!" horiz-adv-x="242" 
d="M96 700h51l-4 -535h-43zM80 29q0 17 12.5 29.5t29.5 12.5t29.5 -12.5t12.5 -29.5t-12.5 -29.5t-29.5 -12.5t-29.5 12.5t-12.5 29.5z" />
    <glyph glyph-name="quotedbl" unicode="&#x22;" horiz-adv-x="262" 
d="M51 700h49l-6 -178h-37zM162 700h49l-6 -178h-37z" />
    <glyph glyph-name="numbersign" unicode="#" horiz-adv-x="643" 
d="M158 200h-125l9 45h125l44 210h-124l8 45h126l41 200h49l-40 -200h161l41 200h49l-40 -200h128l-8 -45h-130l-43 -210h128l-8 -45h-130l-42 -200h-49l41 200h-162l-42 -200h-49zM379 245l44 210h-162l-44 -210h162z" />
    <glyph glyph-name="dollar" unicode="$" horiz-adv-x="499" 
d="M84 153q41 -119 170 -119q64 0 106 37.5t42 100.5q0 41 -19 72.5t-48.5 51t-66 36.5l-73 35t-66 39.5t-48.5 56.5t-19 81q0 66 44 113t119 54v55h49v-54q67 -7 108.5 -44t57.5 -79l-43 -16q-17 37 -53 65.5t-93 28.5q-66 0 -102 -35t-36 -89q0 -50 35 -85t85 -58
l100.5 -48.5t85.5 -69.5t35 -107q0 -75 -49 -127.5t-131 -59.5v-74h-49v75q-76 7 -121 48.5t-64 99.5z" />
    <glyph glyph-name="percent" unicode="%" horiz-adv-x="734" 
d="M193 420q-63 0 -105 42.5t-42 103.5t42 104t104 43q65 0 107.5 -42.5t42.5 -104.5q0 -61 -43 -103.5t-106 -42.5zM607 700h55l-535 -700h-55zM194 464q44 0 71.5 29t27.5 73t-28 74t-73 30q-43 0 -70.5 -30t-27.5 -74q0 -43 28 -72.5t72 -29.5zM391 133q0 61 42 104
t104 43q65 0 107.5 -43t42.5 -104t-43 -103.5t-106 -42.5t-105 42t-42 104zM439 133q0 -44 28 -73.5t72 -29.5t71.5 29.5t27.5 73.5t-28 73.5t-73 29.5q-43 0 -70.5 -29.5t-27.5 -73.5z" />
    <glyph glyph-name="ampersand" unicode="&#x26;" horiz-adv-x="614" 
d="M488 72q-80 -85 -211 -85q-106 0 -170.5 59t-64.5 145q0 117 126 186q-40 38 -62.5 76t-22.5 88q0 69 49 120.5t136 51.5q86 0 137 -47t51 -124q0 -63 -42.5 -111.5t-128.5 -95.5l197 -189q25 43 33 83.5t8 104.5h49q0 -73 -10 -123t-41 -100l74 -73l-38 -38zM133 540
q0 -34 19 -67.5t39 -53.5t58 -53q157 76 157 175q0 56 -38 91.5t-100 35.5q-60 0 -97.5 -36t-37.5 -92zM277 34q52 0 99 20t78 52l-249 237q-49 -19 -81 -58t-32 -94q0 -72 52.5 -114.5t132.5 -42.5z" />
    <glyph glyph-name="quotesingle" unicode="'" horiz-adv-x="151" 
d="M51 700h49l-6 -178h-37z" />
    <glyph glyph-name="parenleft" unicode="(" horiz-adv-x="284" 
d="M78 616q0 129 116 129h16v-44h-11q-42 0 -56.5 -23t-14.5 -67v-620q0 -44 14.5 -67t56.5 -23h11v-44h-16q-116 0 -116 129v630z" />
    <glyph glyph-name="parenright" unicode=")" horiz-adv-x="284" 
d="M206 -14q0 -129 -116 -129h-16v44h11q42 0 56.5 23t14.5 67v620q0 44 -14.5 67t-56.5 23h-11v44h16q116 0 116 -129v-630z" />
    <glyph glyph-name="asterisk" unicode="*" horiz-adv-x="425" 
d="M80 637l109 -66v129h46v-130l110 67l22 -36l-113 -67l113 -66l-22 -37l-110 65v-127h-46v128l-109 -66l-22 36l112 66l-113 66z" />
    <glyph glyph-name="plus" unicode="+" horiz-adv-x="550" 
d="M42 334h209v224h49v-224h208v-45h-208v-224h-49v224h-209v45z" />
    <glyph glyph-name="comma" unicode="," horiz-adv-x="196" 
d="M56 29q0 17 11.5 29.5t28.5 12.5q19 0 31.5 -12.5t12.5 -32.5q0 -70 -60 -130l-27 24q36 33 41 68q-16 1 -27 13t-11 28z" />
    <glyph glyph-name="hyphen" unicode="-" horiz-adv-x="323" 
d="M40 324h243v-48h-243v48z" />
    <glyph glyph-name="period" unicode="." horiz-adv-x="197" 
d="M56 29q0 17 12.5 29.5t29.5 12.5t29.5 -12.5t12.5 -29.5t-12.5 -29.5t-29.5 -12.5t-29.5 12.5t-12.5 29.5z" />
    <glyph glyph-name="slash" unicode="/" horiz-adv-x="413" 
d="M334 750h49l-304 -858h-49z" />
    <glyph glyph-name="zero" unicode="0" horiz-adv-x="544" 
d="M490 350q0 -182 -47 -272t-171 -90t-171 90t-47 272q0 183 47 273t171 90t171 -90t47 -273zM106 350q0 -50 1.5 -83.5t7 -73.5t16.5 -65t29 -48t46 -33.5t66 -10.5t66 10.5t46 33.5t29 48.5t16.5 65t7 73t1.5 83.5t-1.5 84t-7 73.5t-16.5 65t-29 48.5t-46 33.5t-66 10.5
t-66 -11t-46 -33.5t-29 -48t-16.5 -65.5t-7 -73.5t-1.5 -83.5z" />
    <glyph glyph-name="one" unicode="1" horiz-adv-x="296" 
d="M49 652l116 48h41v-700h-51v647l-86 -37z" />
    <glyph glyph-name="two" unicode="2" horiz-adv-x="495" 
d="M45 20q0 53 35.5 105.5t86 96.5l101 89t86 99.5t35.5 110.5q0 63 -39 103.5t-107 40.5q-114 0 -147 -121l-45 11q4 23 16 47.5t33.5 51t59 43t84.5 16.5q94 0 146 -55t52 -137q0 -51 -25 -101.5t-63 -89.5t-82 -79l-82 -72t-63 -67t-25 -65h351v-47h-408v20z" />
    <glyph glyph-name="three" unicode="3" horiz-adv-x="518" 
d="M444 649l-202 -246h18q84 0 145 -53.5t61 -152.5q0 -88 -61.5 -148.5t-151.5 -60.5q-91 0 -142 41.5t-70 101.5l43 18q37 -114 168 -114q69 0 115.5 46t46.5 116q0 77 -43.5 118t-126.5 41h-61v43l203 254h-323v47h381v-51z" />
    <glyph glyph-name="four" unicode="4" horiz-adv-x="546" 
d="M33 226l335 474h48v-468h96v-48h-96v-184h-51v184h-332v42zM365 232v389l-271 -389h271z" />
    <glyph glyph-name="five" unicode="5" horiz-adv-x="514" 
d="M253 35q73 0 115.5 51t42.5 128q0 78 -45 128t-120 50q-30 0 -55.5 -8t-40.5 -17t-35 -25l-45 8l15 350h338v-48h-291l-12 -254q54 40 126 40q99 0 158 -62.5t59 -161.5q0 -97 -57 -161.5t-152 -64.5q-88 0 -141 42t-71 101l43 18q37 -114 168 -114z" />
    <glyph glyph-name="six" unicode="6" horiz-adv-x="539" 
d="M300 713q82 0 154 -52l-27 -36q-58 41 -127 41q-54 0 -93.5 -27t-61 -73.5t-31 -99.5t-9.5 -114q61 96 171 96q99 0 154 -63.5t55 -159.5q0 -112 -56.5 -174.5t-156.5 -62.5q-218 0 -218 301q0 424 246 424zM275 36q71 0 114.5 49t43.5 140q0 76 -41 125.5t-117 49.5
q-115 0 -170 -117q0 -43 3.5 -76.5t14.5 -67t29 -55t49.5 -35t73.5 -13.5z" />
    <glyph glyph-name="seven" unicode="7" horiz-adv-x="470" 
d="M445 700v-42l-256 -658h-53l255 652h-360v48h414z" />
    <glyph glyph-name="eight" unicode="8" horiz-adv-x="542" 
d="M271 -13q-96 0 -158.5 57t-62.5 147q0 77 42 123t88 61q-37 16 -71 57.5t-34 99.5q0 81 56 131t140 50t140 -50t56 -131q0 -58 -34 -99.5t-71 -57.5q46 -15 88 -61t42 -123q0 -90 -62.5 -147t-158.5 -57zM271 398q61 0 102 40t41 94q0 57 -38 95t-105 38t-105 -38
t-38 -95q0 -54 41 -94t102 -40zM271 349q-72 0 -120 -42.5t-48 -115.5q0 -65 45 -111t123 -46t123 46t45 111q0 73 -48 115.5t-120 42.5z" />
    <glyph glyph-name="nine" unicode="9" horiz-adv-x="539" 
d="M239 -12q-83 0 -154 52l27 36q58 -41 127 -41q54 0 93.5 27t61 73.5t31 99.5t9.5 114q-61 -96 -171 -96q-99 0 -154 63.5t-55 159.5q0 112 56.5 174.5t156.5 62.5q218 0 218 -301q0 -424 -246 -424zM264 665q-71 0 -114.5 -49t-43.5 -140q0 -76 41 -125.5t117 -49.5
q115 0 170 117q0 43 -3.5 76.5t-14.5 67t-29 55t-49.5 35t-73.5 13.5z" />
    <glyph glyph-name="colon" unicode=":" horiz-adv-x="196" 
d="M56 433q0 17 12.5 29.5t29.5 12.5t29.5 -12.5t12.5 -29.5t-12.5 -29.5t-29.5 -12.5t-29.5 12.5t-12.5 29.5zM56 29q0 17 12.5 29.5t29.5 12.5t29.5 -12.5t12.5 -29.5t-12.5 -29.5t-29.5 -12.5t-29.5 12.5t-12.5 29.5z" />
    <glyph glyph-name="semicolon" unicode=";" horiz-adv-x="196" 
d="M56 433q0 17 12.5 29.5t29.5 12.5t29.5 -12.5t12.5 -29.5t-12.5 -29.5t-29.5 -12.5t-29.5 12.5t-12.5 29.5zM56 29q0 17 11.5 29.5t28.5 12.5q19 0 31.5 -12.5t12.5 -32.5q0 -70 -60 -130l-27 24q36 34 41 68q-16 1 -27 13t-11 28z" />
    <glyph glyph-name="less" unicode="&#x3c;" horiz-adv-x="486" 
d="M42 335l401 184v-52l-342 -154l342 -157v-50l-401 183v46z" />
    <glyph glyph-name="equal" unicode="=" horiz-adv-x="550" 
d="M42 407h466v-45h-466v45zM42 253h466v-45h-466v45z" />
    <glyph glyph-name="greater" unicode="&#x3e;" horiz-adv-x="486" 
d="M444 289l-401 -183v50l342 157l-342 154v52l401 -184v-46z" />
    <glyph glyph-name="question" unicode="?" horiz-adv-x="460" 
d="M180 211q0 37 18.5 70t45 59l53.5 52t45.5 61.5t18.5 76.5q0 60 -37.5 98t-100.5 38q-95 0 -138 -93l-40 19q18 47 62.5 84t114.5 37q90 0 141.5 -51.5t51.5 -131.5q0 -47 -19 -86.5t-46.5 -66.5l-54.5 -51.5t-46 -53.5t-19 -61v-46h-50v46zM165 29q0 17 12.5 29.5
t29.5 12.5t29.5 -12.5t12.5 -29.5t-12.5 -29.5t-29.5 -12.5t-29.5 12.5t-12.5 29.5z" />
    <glyph glyph-name="at" unicode="@" horiz-adv-x="884" 
d="M249 259q0 88 55 142.5t135 54.5q87 0 138 -66v60h48v-264q0 -79 66 -79q43 0 70 47.5t27 144.5q0 142 -93.5 237t-248.5 95q-154 0 -252.5 -107t-98.5 -260q0 -155 95.5 -259t242.5 -104q107 0 186 44l23 -36q-31 -21 -88 -37.5t-120 -16.5q-160 0 -275 117.5
t-115 291.5t113.5 293t289.5 119q177 0 284.5 -110.5t107.5 -266.5q0 -118 -40.5 -177.5t-110.5 -59.5q-44 0 -71 22.5t-34 57.5q-13 -26 -51 -53t-93 -27q-80 0 -135 54.5t-55 142.5zM301 259q0 -69 39.5 -110.5t99.5 -41.5t99.5 40t39.5 115q0 67 -38 108t-102 41
q-59 0 -98.5 -41.5t-39.5 -110.5z" />
    <glyph glyph-name="A" unicode="A" horiz-adv-x="616" 
d="M162 251l-95 -251h-52l268 700h50l268 -700h-52l-95 251h-292zM308 642l-128 -344h256z" />
    <glyph glyph-name="B" unicode="B" horiz-adv-x="530" 
d="M85 700h183q85 0 139 -50t54 -129q0 -52 -26.5 -93t-67.5 -61q52 -18 85 -63.5t33 -107.5q0 -82 -57.5 -139t-143.5 -57h-199v700zM274 388q58 0 96 38t38 95t-37.5 94.5t-96.5 37.5h-138v-265h138zM268 46q73 0 118.5 40t45.5 110t-46.5 108t-119.5 38h-130v-296h132z
" />
    <glyph glyph-name="C" unicode="C" horiz-adv-x="665" 
d="M626 74q-14 -15 -39.5 -32t-80 -36t-112.5 -19q-149 0 -250 104t-101 259q0 154 101.5 258.5t246.5 104.5q130 0 221 -77l-18 -46q-86 75 -203 75q-123 0 -209 -90t-86 -225q0 -136 84.5 -225.5t213.5 -89.5q122 0 215 84z" />
    <glyph glyph-name="D" unicode="D" horiz-adv-x="628" 
d="M85 700h124q181 0 279 -92.5t98 -257.5q0 -174 -98.5 -262t-278.5 -88h-124v700zM230 47q142 0 223 78t81 225q0 141 -82 222t-222 81h-94v-606h94z" />
    <glyph glyph-name="E" unicode="E" horiz-adv-x="471" 
d="M85 700h319v-47h-268v-272h235v-47h-235v-287h279v-47h-330v700z" />
    <glyph glyph-name="F" unicode="F" horiz-adv-x="466" 
d="M85 700h319v-47h-268v-277h235v-47h-235v-329h-51v700z" />
    <glyph glyph-name="G" unicode="G" horiz-adv-x="731" 
d="M393 713q151 0 249 -95l-33 -35q-89 82 -216 82q-129 0 -212.5 -90.5t-83.5 -226.5t83.5 -224.5t211.5 -88.5q141 0 224 83v175h-168v47h218v-238q-104 -115 -274 -115q-150 0 -249.5 102.5t-99.5 258.5t100 260.5t250 104.5z" />
    <glyph glyph-name="H" unicode="H" horiz-adv-x="685" 
d="M85 700h51v-318h413v318h51v-700h-51v334h-413v-334h-51v700z" />
    <glyph glyph-name="I" unicode="I" horiz-adv-x="221" 
d="M85 700h51v-700h-51v700z" />
    <glyph glyph-name="J" unicode="J" horiz-adv-x="331" 
d="M29 50q32 -10 70 -10q96 0 96 114v546h51v-549q0 -75 -36.5 -116t-106.5 -41q-20 0 -40 2.5t-29 5.5l-10 2z" />
    <glyph glyph-name="K" unicode="K" horiz-adv-x="541" 
d="M85 700h51v-328l306 328h65l-312 -334l326 -366h-66l-319 356v-356h-51v700z" />
    <glyph glyph-name="L" unicode="L" horiz-adv-x="446" 
d="M85 700h51v-653h279v-47h-330v700z" />
    <glyph glyph-name="M" unicode="M" horiz-adv-x="852" 
d="M426 122l277 578h64v-700h-49v625l-265 -558h-54l-265 558v-625h-49v700h64z" />
    <glyph glyph-name="N" unicode="N" horiz-adv-x="700" 
d="M85 700h50l429 -612v612h51v-700h-51l-428 613v-613h-51v700z" />
    <glyph glyph-name="O" unicode="O" horiz-adv-x="792" 
d="M42 350q0 154 102.5 258.5t251.5 104.5t251.5 -105t102.5 -258q0 -154 -103 -258.5t-252 -104.5t-251 103.5t-102 259.5zM95 350q0 -136 86.5 -225.5t214.5 -89.5t214.5 89.5t86.5 225.5q0 134 -87 224.5t-214 90.5q-128 0 -214.5 -90t-86.5 -225z" />
    <glyph glyph-name="P" unicode="P" horiz-adv-x="491" 
d="M85 700h176q89 0 144.5 -57t55.5 -136q0 -85 -57 -141t-143 -56h-125v-310h-51v700zM260 356q64 0 106 43t42 107q0 61 -42.5 104t-105.5 43h-124v-297h124z" />
    <glyph glyph-name="Q" unicode="Q" horiz-adv-x="793" 
d="M42 350q0 154 102.5 258.5t251.5 104.5t251.5 -105t102.5 -258q0 -149 -97 -252l77 -77l-35 -34l-78 77q-94 -77 -222 -77q-149 0 -251 103.5t-102 259.5zM95 350q0 -136 86.5 -225.5t214.5 -89.5q106 0 186 64l-80 81l34 35l81 -83q80 90 80 218q0 134 -87 224.5
t-214 90.5q-128 0 -214.5 -90t-86.5 -225z" />
    <glyph glyph-name="R" unicode="R" horiz-adv-x="528" 
d="M85 700h161q98 0 153.5 -54.5t55.5 -135.5q0 -64 -35.5 -112t-94.5 -68l178 -330h-57l-169 320h-141v-320h-51v700zM248 366q71 0 112 38.5t41 105.5q0 64 -41.5 103.5t-114.5 39.5h-109v-287h112z" />
    <glyph glyph-name="S" unicode="S" horiz-adv-x="499" 
d="M84 153q41 -119 170 -119q64 0 106 37.5t42 100.5q0 41 -19 72.5t-48.5 51t-66 36.5l-73 35t-66 39.5t-48.5 56.5t-19 81q0 72 51.5 120.5t137.5 48.5q78 0 125 -39t64 -85l-43 -16q-17 37 -53 65.5t-93 28.5q-66 0 -102 -35t-36 -89q0 -50 35 -85t85 -58l100.5 -48.5
t85.5 -69.5t35 -107q0 -80 -55 -134t-146 -54q-88 0 -140 43t-73 107z" />
    <glyph glyph-name="T" unicode="T" horiz-adv-x="511" 
d="M223 653h-201v47h453v-47h-201v-653h-51v653z" />
    <glyph glyph-name="U" unicode="U" horiz-adv-x="664" 
d="M332 -13q-119 0 -185.5 70t-66.5 189v454h51v-453q0 -99 51.5 -155.5t149.5 -56.5t149.5 56.5t51.5 155.5v453h51v-454q0 -119 -66.5 -189t-185.5 -70z" />
    <glyph glyph-name="V" unicode="V" horiz-adv-x="616" 
d="M281 0l-270 700h56l241 -639l241 639h56l-270 -700h-54z" />
    <glyph glyph-name="W" unicode="W" horiz-adv-x="926" 
d="M463 628l-189 -628h-56l-205 700h54l180 -631l188 631h56l188 -631l180 631h54l-205 -700h-56z" />
    <glyph glyph-name="X" unicode="X" horiz-adv-x="586" 
d="M260 365l-222 335h62l193 -296l194 296h60l-222 -334l245 -366h-59l-220 327l-216 -327h-59z" />
    <glyph glyph-name="Y" unicode="Y" horiz-adv-x="507" 
d="M228 333l-217 367h59l184 -317l186 317h57l-218 -367v-333h-51v333z" />
    <glyph glyph-name="Z" unicode="Z" horiz-adv-x="590" 
d="M37 43l446 610h-432v47h495v-44l-446 -609h448v-47h-511v43z" />
    <glyph glyph-name="bracketleft" unicode="[" horiz-adv-x="292" 
d="M86 745h132v-44h-82v-800h82v-44h-132v888z" />
    <glyph glyph-name="backslash" unicode="\" horiz-adv-x="413" 
d="M383 -108h-49l-304 858h49z" />
    <glyph glyph-name="bracketright" unicode="]" horiz-adv-x="292" 
d="M206 -143h-132v44h82v800h-82v44h132v-888z" />
    <glyph glyph-name="asciicircum" unicode="^" horiz-adv-x="506" 
d="M230 700h46l182 -382h-53l-152 329l-152 -329h-53z" />
    <glyph glyph-name="underscore" unicode="_" horiz-adv-x="603" 
d="M565 -29v-45h-527v45h527z" />
    <glyph glyph-name="grave" unicode="`" horiz-adv-x="492" 
d="M312 584h-46l-85 141h58z" />
    <glyph glyph-name="a" unicode="a" horiz-adv-x="502" 
d="M39 159q0 74 56.5 122t142.5 48q49 0 89 -17t60 -39v79q0 64 -38.5 99t-103.5 35q-81 0 -160 -48l-21 39q86 55 184 55q94 0 141.5 -49.5t47.5 -133.5v-349h-41l-9 49q-54 -62 -149 -62q-87 0 -143 49.5t-56 122.5zM90 159q0 -53 41.5 -89.5t109.5 -36.5q65 0 107 36
t42 90q0 56 -41 90t-109 34t-109 -35t-41 -89z" />
    <glyph glyph-name="b" unicode="b" horiz-adv-x="608" 
d="M75 723h50v-303q20 38 70.5 75t127.5 37q109 0 178.5 -77t69.5 -197q0 -119 -71 -195t-182 -76q-35 0 -67 10t-51.5 22.5t-37.5 30t-24.5 27t-12.5 19.5v-96h-50v723zM123 258q0 -94 54.5 -159t142.5 -65q85 0 142 62t57 162q0 99 -56 163t-141 64q-84 0 -141.5 -61.5
t-57.5 -165.5z" />
    <glyph glyph-name="c" unicode="c" horiz-adv-x="524" 
d="M469 409q-13 15 -32 30t-58 30.5t-81 15.5q-89 0 -148 -64.5t-59 -160.5q0 -94 60.5 -160t147.5 -66q100 0 173 80l18 -44q-20 -26 -71 -54.5t-121 -28.5q-112 0 -186 79t-74 194q0 114 74.5 193t185.5 79q68 0 117 -25.5t74 -53.5z" />
    <glyph glyph-name="d" unicode="d" horiz-adv-x="608" 
d="M533 0h-50v96q-6 -10 -12.5 -19.5t-24.5 -27t-37.5 -30t-51.5 -22.5t-67 -10q-111 0 -182 76t-71 195q0 120 69.5 197t178.5 77q77 0 127.5 -37t70.5 -75v303h50v-723zM485 258q0 104 -57.5 165.5t-141.5 61.5q-85 0 -141 -64t-56 -163q0 -100 57 -162t142 -62
q88 0 142.5 65t54.5 159z" />
    <glyph glyph-name="e" unicode="e" horiz-adv-x="568" 
d="M38 258q0 123 73.5 198.5t176.5 75.5q110 0 177 -73t67 -187v-21h-442q0 -102 58.5 -160t153.5 -58q115 0 179 89l33 -23q-69 -112 -212 -112q-116 0 -190 75t-74 196zM480 295q-4 93 -59 142t-134 49q-75 0 -131 -50t-63 -141h387z" />
    <glyph glyph-name="f" unicode="f" horiz-adv-x="278" 
d="M88 474h-60v45h60v31q0 90 42 129.5t106 39.5l27 -2v-45q-13 2 -25 2q-100 0 -100 -123v-32h121v-45h-121v-474h-50v474z" />
    <glyph glyph-name="g" unicode="g" horiz-adv-x="603" 
d="M119 -97q74 -47 161 -47q91 0 147 44.5t56 139.5v56q-6 -10 -12.5 -19.5t-24.5 -27t-37.5 -30t-51.5 -22.5t-67 -10q-111 0 -182 76t-71 195q0 120 69.5 197t178.5 77q77 0 127.5 -37t70.5 -75v99h50v-444q0 -266 -252 -266q-99 0 -183 54zM485 258q0 104 -57.5 165.5
t-141.5 61.5q-85 0 -141 -64t-56 -163q0 -100 57 -162t142 -62q88 0 142.5 65t54.5 159z" />
    <glyph glyph-name="h" unicode="h" horiz-adv-x="542" 
d="M287 532q82 0 133.5 -53t51.5 -142v-337h-50v333q0 70 -39.5 111.5t-101.5 41.5q-69 0 -112.5 -47t-43.5 -122v-317h-50v723h50v-286q20 41 64.5 68t97.5 27z" />
    <glyph glyph-name="i" unicode="i" 
d="M59 657q0 17 12 29t29 12t29 -12t12 -29t-12 -29t-29 -12t-29 12t-12 29zM75 519h50v-519h-50v519z" />
    <glyph glyph-name="j" unicode="j" 
d="M59 657q0 17 12 29t29 12t29 -12t12 -29t-12 -29t-29 -12t-29 12t-12 29zM75 519h50v-540q0 -90 -39.5 -129.5t-103.5 -39.5l-24 1v45q12 -1 22 -1q95 0 95 123v541z" />
    <glyph glyph-name="k" unicode="k" horiz-adv-x="451" 
d="M75 723h50v-429l239 225h67l-251 -233l264 -286h-67l-252 279v-279h-50v723z" />
    <glyph glyph-name="l" unicode="l" 
d="M75 723h50v-723h-50v723z" />
    <glyph glyph-name="m" unicode="m" horiz-adv-x="863" 
d="M793 0h-50v313q0 173 -135 173q-66 0 -107.5 -45.5t-41.5 -128.5v-312h-50v333q0 71 -37 112t-100 41q-61 0 -104 -47.5t-43 -122.5v-316h-50v519h50v-82q17 39 59 67t94 28q61 0 103.5 -28t60.5 -76q22 51 67.5 77.5t104.5 26.5q84 0 131.5 -55t47.5 -143v-334z" />
    <glyph glyph-name="n" unicode="n" horiz-adv-x="542" 
d="M287 532q82 0 133.5 -53t51.5 -142v-337h-50v333q0 70 -39.5 111.5t-101.5 41.5q-69 0 -112.5 -47t-43.5 -122v-317h-50v519h50v-82q20 41 64.5 68t97.5 27z" />
    <glyph glyph-name="o" unicode="o" horiz-adv-x="608" 
d="M38 260q0 117 76 194.5t191 77.5q114 0 190 -78t76 -194q0 -117 -76.5 -195t-190.5 -78q-115 0 -190.5 77.5t-75.5 195.5zM90 260q0 -98 60 -162t154 -64t154.5 64t60.5 162q0 96 -60.5 160.5t-154.5 64.5t-154 -64.5t-60 -160.5z" />
    <glyph glyph-name="p" unicode="p" horiz-adv-x="609" 
d="M75 519h50v-96q6 10 12.5 19.5t24.5 27t37.5 30t51.5 22.5t67 10q111 0 182 -76t71 -195q0 -120 -69.5 -197t-178.5 -77q-77 0 -127.5 37t-70.5 75v-286h-50v706zM123 261q0 -104 57.5 -165.5t141.5 -61.5q85 0 141 64t56 163q0 100 -57 162t-142 62q-88 0 -142.5 -65
t-54.5 -159z" />
    <glyph glyph-name="q" unicode="q" horiz-adv-x="609" 
d="M534 -187h-50v286q-20 -38 -70.5 -75t-127.5 -37q-109 0 -178.5 77t-69.5 197q0 119 71 195t182 76q35 0 67 -10t51.5 -22.5t37.5 -30t24.5 -27t12.5 -19.5v96h50v-706zM486 261q0 94 -54.5 159t-142.5 65q-85 0 -142 -62t-57 -162q0 -99 56 -163t141 -64
q84 0 141.5 61.5t57.5 165.5z" />
    <glyph glyph-name="r" unicode="r" horiz-adv-x="316" 
d="M285 483q-85 0 -122.5 -58.5t-37.5 -150.5v-274h-50v519h50v-93q13 42 57 74t103 32v-49z" />
    <glyph glyph-name="s" unicode="s" horiz-adv-x="409" 
d="M77 123q40 -91 134 -91q47 0 80 27.5t33 73.5q0 38 -27.5 64t-67 41.5l-79 32t-67 48.5t-27.5 79q0 61 44 97.5t111 36.5q65 0 103 -32t49 -71l-41 -16q-33 75 -115 75q-44 0 -73 -23.5t-29 -63.5q0 -31 20 -54t49.5 -35l64.5 -27.5t64.5 -31t49.5 -46t20 -72.5
q0 -65 -46.5 -106.5t-117.5 -41.5q-127 0 -175 119z" />
    <glyph glyph-name="t" unicode="t" horiz-adv-x="277" 
d="M78 627h50v-108h122v-45h-122v-292q0 -83 22.5 -112.5t81.5 -29.5l23 1v-45q-24 -2 -43 -2q-63 0 -98.5 39.5t-35.5 116.5v324h-64v45h64v108z" />
    <glyph glyph-name="u" unicode="u" horiz-adv-x="537" 
d="M255 -13q-82 0 -133.5 53t-51.5 142v337h50v-333q0 -70 39.5 -111.5t101.5 -41.5q69 0 112.5 47t43.5 122v317h50v-519h-50v82q-20 -41 -64.5 -68t-97.5 -27z" />
    <glyph glyph-name="v" unicode="v" horiz-adv-x="482" 
d="M215 0l-208 519h54l180 -459l180 459h54l-208 -519h-52z" />
    <glyph glyph-name="w" unicode="w" horiz-adv-x="810" 
d="M405 452l-160 -452h-53l-185 519h54l158 -457l160 457h52l160 -457l158 457h54l-185 -519h-53z" />
    <glyph glyph-name="x" unicode="x" horiz-adv-x="490" 
d="M245 234l-170 -234h-61l199 270l-182 249h62l152 -213l152 213h62l-182 -249l199 -270h-61z" />
    <glyph glyph-name="y" unicode="y" horiz-adv-x="493" 
d="M148 -179l76 180l-217 518h55l188 -457l182 457h54l-286 -698h-52z" />
    <glyph glyph-name="z" unicode="z" horiz-adv-x="460" 
d="M34 42l325 433h-314v44h373v-42l-324 -433h329v-44h-389v42z" />
    <glyph glyph-name="braceleft" unicode="{" horiz-adv-x="319" 
d="M40 323q73 0 73 111v182q0 129 116 129h16v-44h-11q-42 0 -56.5 -23t-14.5 -67v-179q0 -104 -61 -131q61 -27 61 -131v-179q0 -44 14.5 -67t56.5 -23h11v-44h-16q-116 0 -116 129v182q0 111 -73 111v44z" />
    <glyph glyph-name="bar" unicode="|" horiz-adv-x="237" 
d="M94 763h49v-954h-49v954z" />
    <glyph glyph-name="braceright" unicode="}" horiz-adv-x="319" 
d="M279 279q-73 0 -73 -111v-182q0 -129 -116 -129h-16v44h11q42 0 56.5 23t14.5 67v179q0 104 61 131q-61 27 -61 131v179q0 44 -14.5 67t-56.5 23h-11v44h16q116 0 116 -129v-182q0 -111 73 -111v-44z" />
    <glyph glyph-name="asciitilde" unicode="~" horiz-adv-x="532" 
d="M366 289q34 0 51.5 22t19.5 55h45q0 -52 -31 -87t-86 -35q-34 0 -97 39t-102 39q-34 0 -51.5 -22t-19.5 -55h-45q0 52 31 87t86 35q35 0 73 -19.5t70.5 -39t55.5 -19.5z" />
    <glyph glyph-name="exclamdown" unicode="&#xa1;" horiz-adv-x="242" 
d="M80 518q0 17 12.5 29.5t29.5 12.5t29.5 -12.5t12.5 -29.5t-12.5 -29.5t-29.5 -12.5t-29.5 12.5t-12.5 29.5zM100 382h43l4 -535h-51z" />
    <glyph glyph-name="cent" unicode="&#xa2;" horiz-adv-x="531" 
d="M277 66q-104 8 -171 85.5t-67 186.5q0 108 67.5 185.5t170.5 85.5v92h49v-93q59 -5 103 -30t61 -47l-20 -44q-13 15 -32 30t-58 30.5t-81 15.5q-89 0 -148 -64.5t-59 -160.5q0 -94 60.5 -160t147.5 -66q100 0 173 80l18 -44q-18 -23 -61.5 -49.5t-103.5 -32.5v-66h-49v66
z" />
    <glyph glyph-name="sterling" unicode="&#xa3;" horiz-adv-x="546" 
d="M52 374h61v143q0 88 52 142t140 54q72 0 117 -36.5t59 -81.5l-41 -19q-14 35 -48.5 62t-86.5 27q-69 0 -105 -40t-36 -110v-141h175v-47h-175v-280h331v-47h-453v47h71v280h-61v47z" />
    <glyph glyph-name="yen" unicode="&#xa5;" horiz-adv-x="531" 
d="M77 375h138l-192 325h59l184 -317l186 317h57l-193 -325h138v-44h-163v-99h163v-44h-163v-188h-51v188h-163v44h163v99h-163v44z" />
    <glyph glyph-name="section" unicode="&#xa7;" horiz-adv-x="461" 
d="M424 229q0 -50 -27 -87t-67 -52q73 -56 73 -140q0 -70 -48.5 -114t-129.5 -44q-136 0 -179 113l40 16q38 -83 139 -83q62 0 95 30.5t33 82.5q0 72 -92 127l-149 91q-30 18 -53 50t-23 77q0 50 27 87t67 52q-73 56 -73 140q0 70 48.5 114t129.5 44q136 0 179 -113l-40 -16
q-38 83 -139 83q-62 0 -95 -30.5t-33 -82.5q0 -72 92 -127l109 -64q116 -69 116 -154zM376 228q0 65 -93 118l-99 56q-42 -2 -71 -32.5t-29 -72.5q0 -60 53 -91l139 -83q42 2 71 32.5t29 72.5z" />
    <glyph glyph-name="dieresis" unicode="&#xa8;" horiz-adv-x="492" 
d="M129 653q0 17 12 29t29 12t29 -12t12 -29t-12 -29t-29 -12t-29 12t-12 29zM281 653q0 17 12 29t29 12t29 -12t12 -29t-12 -29t-29 -12t-29 12t-12 29z" />
    <glyph glyph-name="copyright" unicode="&#xa9;" horiz-adv-x="811" 
d="M47 348q0 152 102 258.5t253 106.5q156 0 258.5 -105.5t102.5 -258.5q0 -154 -101 -258.5t-257 -104.5q-155 0 -256.5 104t-101.5 258zM97 348q0 -136 87 -227t221 -91q135 0 221.5 91t86.5 228t-87 228t-224 91q-132 0 -218.5 -92t-86.5 -228zM223 347q0 84 50.5 139
t135.5 55q94 0 150 -70l-30 -31q-50 56 -120 56q-66 0 -101 -41.5t-35 -106.5t35 -106.5t101 -41.5q70 0 120 56l30 -31q-56 -70 -150 -70q-86 0 -136 54.5t-50 137.5z" />
    <glyph glyph-name="ordfeminine" unicode="&#xaa;" horiz-adv-x="407" 
d="M49 432q0 56 42.5 93t109.5 37q66 0 108 -38v50q0 48 -28 73t-75 25q-60 0 -121 -37l-19 36q71 42 143 42q71 0 107 -38t36 -103v-263h-35l-7 33q-42 -42 -109 -42t-109.5 37.5t-42.5 94.5zM92 432q0 -39 30.5 -65.5t80.5 -26.5q48 0 78.5 26t30.5 66t-30 64.5t-79 24.5
q-50 0 -80.5 -25.5t-30.5 -63.5z" />
    <glyph glyph-name="guillemotleft" unicode="&#xab;" horiz-adv-x="398" 
d="M37 291l125 182h54l-125 -182l125 -181h-54zM306 473h54l-125 -182l125 -181h-54l-125 181z" />
    <glyph glyph-name="registered" unicode="&#xae;" horiz-adv-x="452" 
d="M21 540q0 86 56 144t146 58q94 0 150.5 -57.5t56.5 -143.5q0 -85 -56 -143.5t-148 -58.5t-148.5 57.5t-56.5 143.5zM63 540q0 -71 43.5 -117t118.5 -46q76 0 119.5 45.5t43.5 118.5t-44 118t-121 45q-74 0 -117 -45.5t-43 -118.5zM203 517v-85h-41v216h67q36 0 55 -17.5
t19 -47.5q0 -41 -33 -56l41 -95h-43l-33 85h-32zM203 611v-57h30q26 0 26 29q0 28 -26 28h-30z" />
    <glyph glyph-name="macron" unicode="&#xaf;" horiz-adv-x="454" 
d="M112 686h230v-44h-230v44z" />
    <glyph glyph-name="degree" unicode="&#xb0;" horiz-adv-x="345" 
d="M34 576q0 57 38.5 97t98.5 40q62 0 100.5 -39t38.5 -97q0 -59 -38.5 -98t-99.5 -39q-62 0 -100 39t-38 97zM80 576q0 -41 25.5 -68t66.5 -27t66.5 27t25.5 69q0 41 -26 68t-67 27q-40 0 -65.5 -27.5t-25.5 -68.5z" />
    <glyph glyph-name="uni00B2" unicode="&#xb2;" horiz-adv-x="333" 
d="M53 342q0 33 19 63.5t46.5 53l54.5 44t46 45.5t19 49q0 29 -20 49t-53 20q-50 0 -76 -55l-36 16q30 81 112 81q55 0 86.5 -31.5t31.5 -79.5q0 -31 -19 -59.5t-46.5 -49.5l-54.5 -42t-46 -46.5t-19 -52.5h191v-42h-236v37z" />
    <glyph glyph-name="uni00B3" unicode="&#xb3;" horiz-adv-x="333" 
d="M282 662l-112 -124q51 0 87.5 -32t36.5 -87q0 -56 -36 -89t-91 -33q-86 0 -124 82l36 17q26 -57 88 -57q35 0 58 20.5t23 57.5q0 82 -94 82h-33v39l109 120h-169v42h221v-38z" />
    <glyph glyph-name="acute" unicode="&#xb4;" horiz-adv-x="492" 
d="M253 725h58l-85 -141h-46z" />
    <glyph glyph-name="paragraph" unicode="&#xb6;" horiz-adv-x="485" 
d="M233 333q-79 0 -133.5 54t-54.5 130t53.5 129.5t129.5 53.5h54v-745h-49v378zM350 700h49v-745h-49v745z" />
    <glyph glyph-name="periodcentered" unicode="&#xb7;" horiz-adv-x="215" 
d="M65 314q0 17 12.5 29.5t29.5 12.5t29.5 -12.5t12.5 -29.5t-12.5 -29.5t-29.5 -12.5t-29.5 12.5t-12.5 29.5z" />
    <glyph glyph-name="cedilla" unicode="&#xb8;" horiz-adv-x="454" 
d="M225 10l-9 -61q82 -11 82 -82q0 -45 -31 -66.5t-77 -21.5l-34 3l6 41q16 -2 29 -2q62 0 62 45t-64 45h-16l12 99h40z" />
    <glyph glyph-name="uni00B9" unicode="&#xb9;" horiz-adv-x="239" 
d="M49 670l75 30h36v-395h-45v350l-53 -22z" />
    <glyph glyph-name="ordmasculine" unicode="&#xba;" horiz-adv-x="462" 
d="M27 506q0 90 58 148.5t146 58.5q86 0 143.5 -59t57.5 -148q0 -88 -58 -147t-144 -59q-88 0 -145.5 58.5t-57.5 147.5zM72 506q0 -72 44.5 -119t113.5 -47t113 47t44 119q0 71 -44 118.5t-113 47.5t-113.5 -47.5t-44.5 -118.5z" />
    <glyph glyph-name="guillemotright" unicode="&#xbb;" horiz-adv-x="398" 
d="M217 291l-125 -181h-54l125 181l-125 182h54zM236 110h-54l125 181l-125 182h54l125 -182z" />
    <glyph glyph-name="onequarter" unicode="&#xbc;" horiz-adv-x="768" 
d="M563 741h50l-397 -782h-50zM198 305h-45v350l-53 -22l-13 37l75 30h36v-395zM677 124h54v-41h-54v-83h-45v83h-192v35l195 277h42v-271zM632 124v202l-140 -202h140z" />
    <glyph glyph-name="onehalf" unicode="&#xbd;" horiz-adv-x="777" 
d="M144 -41l397 782h50l-397 -782h-50zM87 670l75 30h36v-395h-45v350l-53 -22zM480 37q0 33 19 63.5t46 53l54.5 44t46.5 45.5t19 49q0 29 -20 49t-53 20q-50 0 -76 -55l-36 16q30 81 112 81q55 0 86.5 -31.5t31.5 -79.5q0 -31 -19 -59.5t-46 -49.5l-54.5 -42t-46.5 -46.5
t-19 -52.5h191v-42h-236v37z" />
    <glyph glyph-name="threequarters" unicode="&#xbe;" horiz-adv-x="828" 
d="M623 741h50l-397 -782h-50zM314 419q0 -56 -36 -89t-91 -33q-86 0 -124 82l36 17q26 -57 88 -57q35 0 58 20.5t23 57.5q0 82 -94 82h-33v39l109 120h-169v42h221v-38l-112 -124q51 0 87.5 -32t36.5 -87zM717 124h54v-41h-54v-83h-45v83h-192v35l195 277h42v-271zM672 124
v202l-140 -202h140z" />
    <glyph glyph-name="questiondown" unicode="&#xbf;" horiz-adv-x="460" 
d="M295 518q0 -17 -12.5 -29.5t-29.5 -12.5t-29.5 12.5t-12.5 29.5t12.5 29.5t29.5 12.5t29.5 -12.5t12.5 -29.5zM280 336q0 -37 -18.5 -70t-45 -59l-53.5 -52t-45.5 -61.5t-18.5 -76.5q0 -60 37.5 -98t100.5 -38q95 0 138 93l40 -19q-18 -47 -62.5 -84t-114.5 -37
q-90 0 -141.5 51.5t-51.5 131.5q0 47 19 86.5t46.5 66.5l54.5 51.5t46 53.5t19 61v46h50v-46z" />
    <glyph glyph-name="Agrave" unicode="&#xc0;" horiz-adv-x="616" 
d="M329 747h-46l-85 141h58zM162 251l-95 -251h-52l268 700h50l268 -700h-52l-95 251h-292zM308 642l-128 -344h256z" />
    <glyph glyph-name="Aacute" unicode="&#xc1;" horiz-adv-x="616" 
d="M356 888h58l-85 -141h-46zM162 251l-95 -251h-52l268 700h50l268 -700h-52l-95 251h-292zM308 642l-128 -344h256z" />
    <glyph glyph-name="Acircumflex" unicode="&#xc2;" horiz-adv-x="616" 
d="M308 843l-68 -88h-53l93 125h56l93 -125h-53zM162 251l-95 -251h-52l268 700h50l268 -700h-52l-95 251h-292zM308 642l-128 -344h256z" />
    <glyph glyph-name="Atilde" unicode="&#xc3;" horiz-adv-x="616" 
d="M371 766q-27 0 -67 24t-60 24q-17 0 -28 -12.5t-12 -34.5h-42q0 41 24 66t61 25q27 0 68 -24t58 -24q18 0 29 13t12 35h41q0 -41 -23 -66.5t-61 -25.5zM162 251l-95 -251h-52l268 700h50l268 -700h-52l-95 251h-292zM308 642l-128 -344h256z" />
    <glyph glyph-name="Adieresis" unicode="&#xc4;" horiz-adv-x="616" 
d="M191 812q0 17 12 29t29 12t29 -12t12 -29t-12 -29t-29 -12t-29 12t-12 29zM343 812q0 17 12 29t29 12t29 -12t12 -29t-12 -29t-29 -12t-29 12t-12 29zM162 251l-95 -251h-52l268 700h50l268 -700h-52l-95 251h-292zM308 642l-128 -344h256z" />
    <glyph glyph-name="Aring" unicode="&#xc5;" horiz-adv-x="616" 
d="M226 825q0 35 23 58t58 23q37 0 60 -22.5t23 -57.5t-23 -58.5t-59 -23.5t-59 23t-23 58zM265 825q0 -19 12 -31t31 -12q20 0 31.5 12t11.5 32q0 19 -11.5 31t-32.5 12q-19 0 -30.5 -12t-11.5 -32zM162 251l-95 -251h-52l268 700h50l268 -700h-52l-95 251h-292zM308 642
l-128 -344h256z" />
    <glyph glyph-name="AE" unicode="&#xc6;" horiz-adv-x="788" 
d="M361 700h360v-47h-268v-272h235v-47h-235v-287h279v-47h-330v251h-216l-122 -251h-55zM210 298h192v355h-19z" />
    <glyph glyph-name="Ccedilla" unicode="&#xc7;" horiz-adv-x="665" 
d="M626 74q-14 -15 -39.5 -32t-80 -36t-112.5 -19q-2 0 -7.5 0.5t-8.5 0.5l-5 -39q82 -11 82 -82q0 -45 -31 -66.5t-77 -21.5l-34 3l6 41q16 -2 29 -2q62 0 62 45t-64 45h-16l9 80q-129 19 -212.5 119t-83.5 240q0 154 101.5 258.5t246.5 104.5q130 0 221 -77l-18 -46
q-86 75 -203 75q-123 0 -209 -90t-86 -225q0 -136 84.5 -225.5t213.5 -89.5q122 0 215 84z" />
    <glyph glyph-name="Egrave" unicode="&#xc8;" horiz-adv-x="471" 
d="M289 747h-46l-85 141h58zM85 700h319v-47h-268v-272h235v-47h-235v-287h279v-47h-330v700z" />
    <glyph glyph-name="Eacute" unicode="&#xc9;" horiz-adv-x="471" 
d="M290 888h58l-85 -141h-46zM85 700h319v-47h-268v-272h235v-47h-235v-287h279v-47h-330v700z" />
    <glyph glyph-name="Ecircumflex" unicode="&#xca;" horiz-adv-x="471" 
d="M253 843l-68 -88h-53l93 125h56l93 -125h-53zM85 700h319v-47h-268v-272h235v-47h-235v-287h279v-47h-330v700z" />
    <glyph glyph-name="Edieresis" unicode="&#xcb;" horiz-adv-x="471" 
d="M141 812q0 17 12 29t29 12t29 -12t12 -29t-12 -29t-29 -12t-29 12t-12 29zM293 812q0 17 12 29t29 12t29 -12t12 -29t-12 -29t-29 -12t-29 12t-12 29zM85 700h319v-47h-268v-272h235v-47h-235v-287h279v-47h-330v700z" />
    <glyph glyph-name="Igrave" unicode="&#xcc;" horiz-adv-x="221" 
d="M138 747h-46l-85 141h58zM85 700h51v-700h-51v700z" />
    <glyph glyph-name="Iacute" unicode="&#xcd;" horiz-adv-x="221" 
d="M153 888h58l-85 -141h-46zM85 700h51v-700h-51v700z" />
    <glyph glyph-name="Icircumflex" unicode="&#xce;" horiz-adv-x="221" 
d="M115 843l-68 -88h-53l93 125h56l93 -125h-53zM85 700h51v-700h-51v700z" />
    <glyph glyph-name="Idieresis" unicode="&#xcf;" horiz-adv-x="221" 
d="M-5 812q0 17 12 29t29 12t29 -12t12 -29t-12 -29t-29 -12t-29 12t-12 29zM147 812q0 17 12 29t29 12t29 -12t12 -29t-12 -29t-29 -12t-29 12t-12 29zM85 700h51v-700h-51v700z" />
    <glyph glyph-name="Eth" unicode="&#xd0;" horiz-adv-x="628" 
d="M25 378h60v322h124q181 0 279 -92.5t98 -257.5q0 -174 -98.5 -262t-278.5 -88h-124v332h-60v46zM230 47q142 0 223 78t81 225q0 141 -82 222t-222 81h-94v-275h162v-46h-162v-285h94z" />
    <glyph glyph-name="Ntilde" unicode="&#xd1;" horiz-adv-x="700" 
d="M412 766q-27 0 -67 24t-60 24q-17 0 -28 -12.5t-12 -34.5h-42q0 41 24 66t61 25q26 0 67 -24t59 -24t29 13t12 35h41q0 -41 -23 -66.5t-61 -25.5zM85 700h50l429 -612v612h51v-700h-51l-428 613v-613h-51v700z" />
    <glyph glyph-name="Ograve" unicode="&#xd2;" horiz-adv-x="792" 
d="M423 747h-46l-85 141h58zM42 350q0 154 102.5 258.5t251.5 104.5t251.5 -105t102.5 -258q0 -154 -103 -258.5t-252 -104.5t-251 103.5t-102 259.5zM95 350q0 -136 86.5 -225.5t214.5 -89.5t214.5 89.5t86.5 225.5q0 134 -87 224.5t-214 90.5q-128 0 -214.5 -90
t-86.5 -225z" />
    <glyph glyph-name="Oacute" unicode="&#xd3;" horiz-adv-x="792" 
d="M430 888h58l-85 -141h-46zM42 350q0 154 102.5 258.5t251.5 104.5t251.5 -105t102.5 -258q0 -154 -103 -258.5t-252 -104.5t-251 103.5t-102 259.5zM95 350q0 -136 86.5 -225.5t214.5 -89.5t214.5 89.5t86.5 225.5q0 134 -87 224.5t-214 90.5q-128 0 -214.5 -90
t-86.5 -225z" />
    <glyph glyph-name="Ocircumflex" unicode="&#xd4;" horiz-adv-x="792" 
d="M396 843l-68 -88h-53l93 125h56l93 -125h-53zM42 350q0 154 102.5 258.5t251.5 104.5t251.5 -105t102.5 -258q0 -154 -103 -258.5t-252 -104.5t-251 103.5t-102 259.5zM95 350q0 -136 86.5 -225.5t214.5 -89.5t214.5 89.5t86.5 225.5q0 134 -87 224.5t-214 90.5
q-128 0 -214.5 -90t-86.5 -225z" />
    <glyph glyph-name="Otilde" unicode="&#xd5;" horiz-adv-x="792" 
d="M463 766q-27 0 -67 24t-60 24q-17 0 -28 -12.5t-12 -34.5h-42q0 41 24 66t61 25q27 0 68 -24t58 -24q18 0 29 13t12 35h41q0 -41 -23 -66.5t-61 -25.5zM42 350q0 154 102.5 258.5t251.5 104.5t251.5 -105t102.5 -258q0 -154 -103 -258.5t-252 -104.5t-251 103.5
t-102 259.5zM95 350q0 -136 86.5 -225.5t214.5 -89.5t214.5 89.5t86.5 225.5q0 134 -87 224.5t-214 90.5q-128 0 -214.5 -90t-86.5 -225z" />
    <glyph glyph-name="Odieresis" unicode="&#xd6;" horiz-adv-x="792" 
d="M280 812q0 17 12 29t29 12t29 -12t12 -29t-12 -29t-29 -12t-29 12t-12 29zM432 812q0 17 12 29t29 12t29 -12t12 -29t-12 -29t-29 -12t-29 12t-12 29zM42 350q0 154 102.5 258.5t251.5 104.5t251.5 -105t102.5 -258q0 -154 -103 -258.5t-252 -104.5t-251 103.5
t-102 259.5zM95 350q0 -136 86.5 -225.5t214.5 -89.5t214.5 89.5t86.5 225.5q0 134 -87 224.5t-214 90.5q-128 0 -214.5 -90t-86.5 -225z" />
    <glyph glyph-name="multiply" unicode="&#xd7;" horiz-adv-x="533" 
d="M234 308l-180 196l32 33l180 -196l180 196l31 -32l-181 -196l182 -197l-32 -32l-181 196l-179 -195l-32 32z" />
    <glyph glyph-name="Oslash" unicode="&#xd8;" horiz-adv-x="793" 
d="M43 350q0 154 102.5 258.5t251.5 104.5q112 0 203 -64l54 68l38 -30l-54 -69q113 -105 113 -268q0 -154 -103 -258.5t-252 -104.5q-114 0 -204 63l-52 -67l-38 29l53 68q-112 106 -112 270zM96 350q0 -141 91 -230l383 490q-75 55 -173 55q-128 0 -214.5 -90t-86.5 -225z
M698 350q0 136 -91 229l-384 -490q76 -54 174 -54q128 0 214.5 89.5t86.5 225.5z" />
    <glyph glyph-name="Ugrave" unicode="&#xd9;" horiz-adv-x="664" 
d="M372 747h-46l-85 141h58zM332 -13q-119 0 -185.5 70t-66.5 189v454h51v-453q0 -99 51.5 -155.5t149.5 -56.5t149.5 56.5t51.5 155.5v453h51v-454q0 -119 -66.5 -189t-185.5 -70z" />
    <glyph glyph-name="Uacute" unicode="&#xda;" horiz-adv-x="664" 
d="M366 888h58l-85 -141h-46zM332 -13q-119 0 -185.5 70t-66.5 189v454h51v-453q0 -99 51.5 -155.5t149.5 -56.5t149.5 56.5t51.5 155.5v453h51v-454q0 -119 -66.5 -189t-185.5 -70z" />
    <glyph glyph-name="Ucircumflex" unicode="&#xdb;" horiz-adv-x="664" 
d="M333 843l-68 -88h-53l93 125h56l93 -125h-53zM332 -13q-119 0 -185.5 70t-66.5 189v454h51v-453q0 -99 51.5 -155.5t149.5 -56.5t149.5 56.5t51.5 155.5v453h51v-454q0 -119 -66.5 -189t-185.5 -70z" />
    <glyph glyph-name="Udieresis" unicode="&#xdc;" horiz-adv-x="664" 
d="M219 812q0 17 12 29t29 12t29 -12t12 -29t-12 -29t-29 -12t-29 12t-12 29zM371 812q0 17 12 29t29 12t29 -12t12 -29t-12 -29t-29 -12t-29 12t-12 29zM332 -13q-119 0 -185.5 70t-66.5 189v454h51v-453q0 -99 51.5 -155.5t149.5 -56.5t149.5 56.5t51.5 155.5v453h51v-454
q0 -119 -66.5 -189t-185.5 -70z" />
    <glyph glyph-name="Yacute" unicode="&#xdd;" horiz-adv-x="507" 
d="M296 888h58l-85 -141h-46zM228 333l-217 367h59l184 -317l186 317h57l-218 -367v-333h-51v333z" />
    <glyph glyph-name="Thorn" unicode="&#xde;" horiz-adv-x="491" 
d="M85 700h51v-143h121q93 0 148.5 -51t55.5 -142t-57 -144t-147 -53h-121v-167h-51v700zM256 213q71 0 111.5 40.5t40.5 109.5t-40 108t-112 39h-120v-297h120z" />
    <glyph glyph-name="germandbls" unicode="&#xdf;" horiz-adv-x="527" 
d="M247 674q-124 0 -124 -123v-551h-50v550q0 85 46 127t129 42q78 0 119 -40.5t41 -97.5q0 -93 -76 -130q72 -21 117 -75.5t45 -138.5q0 -115 -71 -176t-181 -61h-12v49h12q50 0 93.5 17.5t75 61.5t31.5 107q0 48 -17.5 85t-47 57.5t-63.5 31t-71 10.5h-13v49h13
q50 0 83 30.5t33 80.5q0 95 -112 95z" />
    <glyph glyph-name="agrave" unicode="&#xe0;" horiz-adv-x="502" 
d="M286 584h-46l-85 141h58zM39 159q0 74 56.5 122t142.5 48q49 0 89 -17t60 -39v79q0 64 -38.5 99t-103.5 35q-81 0 -160 -48l-21 39q86 55 184 55q94 0 141.5 -49.5t47.5 -133.5v-349h-41l-9 49q-54 -62 -149 -62q-87 0 -143 49.5t-56 122.5zM90 159q0 -53 41.5 -89.5
t109.5 -36.5q65 0 107 36t42 90q0 56 -41 90t-109 34t-109 -35t-41 -89z" />
    <glyph glyph-name="aacute" unicode="&#xe1;" horiz-adv-x="502" 
d="M286 725h58l-85 -141h-46zM39 159q0 74 56.5 122t142.5 48q49 0 89 -17t60 -39v79q0 64 -38.5 99t-103.5 35q-81 0 -160 -48l-21 39q86 55 184 55q94 0 141.5 -49.5t47.5 -133.5v-349h-41l-9 49q-54 -62 -149 -62q-87 0 -143 49.5t-56 122.5zM90 159q0 -53 41.5 -89.5
t109.5 -36.5q65 0 107 36t42 90q0 56 -41 90t-109 34t-109 -35t-41 -89z" />
    <glyph glyph-name="acircumflex" unicode="&#xe2;" horiz-adv-x="502" 
d="M251 687l-68 -88h-53l93 125h56l93 -125h-53zM39 159q0 74 56.5 122t142.5 48q49 0 89 -17t60 -39v79q0 64 -38.5 99t-103.5 35q-81 0 -160 -48l-21 39q86 55 184 55q94 0 141.5 -49.5t47.5 -133.5v-349h-41l-9 49q-54 -62 -149 -62q-87 0 -143 49.5t-56 122.5zM90 159
q0 -53 41.5 -89.5t109.5 -36.5q65 0 107 36t42 90q0 56 -41 90t-109 34t-109 -35t-41 -89z" />
    <glyph glyph-name="atilde" unicode="&#xe3;" horiz-adv-x="502" 
d="M313 609q-27 0 -67 24t-60 24q-17 0 -28 -12.5t-12 -34.5h-42q0 41 24 66t61 25q26 0 67.5 -24t58.5 -24q18 0 29 13t12 35h41q0 -41 -23 -66.5t-61 -25.5zM39 159q0 74 56.5 122t142.5 48q49 0 89 -17t60 -39v79q0 64 -38.5 99t-103.5 35q-81 0 -160 -48l-21 39
q86 55 184 55q94 0 141.5 -49.5t47.5 -133.5v-349h-41l-9 49q-54 -62 -149 -62q-87 0 -143 49.5t-56 122.5zM90 159q0 -53 41.5 -89.5t109.5 -36.5q65 0 107 36t42 90q0 56 -41 90t-109 34t-109 -35t-41 -89z" />
    <glyph glyph-name="adieresis" unicode="&#xe4;" horiz-adv-x="502" 
d="M138 653q0 17 12 29t29 12t29 -12t12 -29t-12 -29t-29 -12t-29 12t-12 29zM290 653q0 17 12 29t29 12t29 -12t12 -29t-12 -29t-29 -12t-29 12t-12 29zM39 159q0 74 56.5 122t142.5 48q49 0 89 -17t60 -39v79q0 64 -38.5 99t-103.5 35q-81 0 -160 -48l-21 39q86 55 184 55
q94 0 141.5 -49.5t47.5 -133.5v-349h-41l-9 49q-54 -62 -149 -62q-87 0 -143 49.5t-56 122.5zM90 159q0 -53 41.5 -89.5t109.5 -36.5q65 0 107 36t42 90q0 56 -41 90t-109 34t-109 -35t-41 -89z" />
    <glyph glyph-name="aring" unicode="&#xe5;" horiz-adv-x="502" 
d="M169 664q0 35 23 58t58 23q37 0 60 -22.5t23 -57.5t-23 -58.5t-59 -23.5t-59 23t-23 58zM208 664q0 -19 12 -31t31 -12q20 0 31.5 12t11.5 32q0 19 -11.5 31t-32.5 12q-19 0 -30.5 -12t-11.5 -32zM39 159q0 74 56.5 122t142.5 48q49 0 89 -17t60 -39v79q0 64 -38.5 99
t-103.5 35q-81 0 -160 -48l-21 39q86 55 184 55q94 0 141.5 -49.5t47.5 -133.5v-349h-41l-9 49q-54 -62 -149 -62q-87 0 -143 49.5t-56 122.5zM90 159q0 -53 41.5 -89.5t109.5 -36.5q65 0 107 36t42 90q0 56 -41 90t-109 34t-109 -35t-41 -89z" />
    <glyph glyph-name="ae" unicode="&#xe6;" horiz-adv-x="914" 
d="M39 159q0 74 56.5 122t142.5 48q49 0 89 -17t60 -39v79q0 64 -38.5 99t-103.5 35q-81 0 -160 -48l-21 39q86 55 184 55q74 0 119 -31.5t61 -87.5q34 57 88 88t118 31q110 0 177 -73t67 -187v-21h-442q0 -102 58.5 -160t153.5 -58q115 0 179 89l33 -23q-69 -112 -212 -112
q-76 0 -135 32t-89 92q-16 -49 -64 -86.5t-122 -37.5q-87 0 -143 49.5t-56 122.5zM826 295q-4 93 -59 142t-134 49q-75 0 -131 -50t-63 -141h387zM90 159q0 -53 41.5 -89.5t109.5 -36.5q65 0 105.5 35.5t40.5 90.5q0 56 -39.5 90t-107.5 34t-109 -35t-41 -89z" />
    <glyph glyph-name="ccedilla" unicode="&#xe7;" horiz-adv-x="524" 
d="M469 409q-13 15 -32 30t-58 30.5t-81 15.5q-89 0 -148 -64.5t-59 -160.5q0 -94 60.5 -160t147.5 -66q100 0 173 80l18 -44q-20 -26 -71 -54.5t-122 -28.5l-5 -38q82 -11 82 -82q0 -45 -31 -66.5t-77 -21.5l-34 3l6 41q16 -2 29 -2q62 0 62 45t-64 45h-16l9 79
q-97 14 -158.5 89.5t-61.5 180.5q0 114 74.5 193t185.5 79q68 0 117 -25.5t74 -53.5z" />
    <glyph glyph-name="egrave" unicode="&#xe8;" horiz-adv-x="568" 
d="M326 584h-46l-85 141h58zM38 258q0 123 73.5 198.5t176.5 75.5q110 0 177 -73t67 -187v-21h-442q0 -102 58.5 -160t153.5 -58q115 0 179 89l33 -23q-69 -112 -212 -112q-116 0 -190 75t-74 196zM480 295q-4 93 -59 142t-134 49q-75 0 -131 -50t-63 -141h387z" />
    <glyph glyph-name="eacute" unicode="&#xe9;" horiz-adv-x="568" 
d="M322 725h58l-85 -141h-46zM38 258q0 123 73.5 198.5t176.5 75.5q110 0 177 -73t67 -187v-21h-442q0 -102 58.5 -160t153.5 -58q115 0 179 89l33 -23q-69 -112 -212 -112q-116 0 -190 75t-74 196zM480 295q-4 93 -59 142t-134 49q-75 0 -131 -50t-63 -141h387z" />
    <glyph glyph-name="ecircumflex" unicode="&#xea;" horiz-adv-x="568" 
d="M289 687l-68 -88h-53l93 125h56l93 -125h-53zM38 258q0 123 73.5 198.5t176.5 75.5q110 0 177 -73t67 -187v-21h-442q0 -102 58.5 -160t153.5 -58q115 0 179 89l33 -23q-69 -112 -212 -112q-116 0 -190 75t-74 196zM480 295q-4 93 -59 142t-134 49q-75 0 -131 -50
t-63 -141h387z" />
    <glyph glyph-name="edieresis" unicode="&#xeb;" horiz-adv-x="568" 
d="M172 653q0 17 12 29t29 12t29 -12t12 -29t-12 -29t-29 -12t-29 12t-12 29zM324 653q0 17 12 29t29 12t29 -12t12 -29t-12 -29t-29 -12t-29 12t-12 29zM38 258q0 123 73.5 198.5t176.5 75.5q110 0 177 -73t67 -187v-21h-442q0 -102 58.5 -160t153.5 -58q115 0 179 89
l33 -23q-69 -112 -212 -112q-116 0 -190 75t-74 196zM480 295q-4 93 -59 142t-134 49q-75 0 -131 -50t-63 -141h387z" />
    <glyph glyph-name="igrave" unicode="&#xec;" 
d="M129 584h-46l-85 141h58zM75 519h50v-519h-50v519z" />
    <glyph glyph-name="iacute" unicode="&#xed;" 
d="M142 725h58l-85 -141h-46zM75 519h50v-519h-50v519z" />
    <glyph glyph-name="icircumflex" unicode="&#xee;" 
d="M102 687l-68 -88h-53l93 125h56l93 -125h-53zM75 519h50v-519h-50v519z" />
    <glyph glyph-name="idieresis" unicode="&#xef;" 
d="M-16 653q0 17 12 29t29 12t29 -12t12 -29t-12 -29t-29 -12t-29 12t-12 29zM136 653q0 17 12 29t29 12t29 -12t12 -29t-12 -29t-29 -12t-29 12t-12 29zM75 519h50v-519h-50v519z" />
    <glyph glyph-name="eth" unicode="&#xf0;" horiz-adv-x="593" 
d="M41 247q0 110 71.5 184t186.5 74q81 0 140 -48q-25 39 -67 80t-71 59l-162 -65l-8 43l130 53q-53 37 -121 72l37 25q69 -32 135 -78l118 48l8 -43l-87 -36q198 -153 198 -351q0 -121 -68.5 -199t-189.5 -78q-110 0 -180 75t-70 185zM93 247q0 -90 55.5 -152t143.5 -62
q98 0 151.5 66t53.5 165q0 81 -56.5 138t-142.5 57q-94 0 -149.5 -61t-55.5 -151z" />
    <glyph glyph-name="ntilde" unicode="&#xf1;" horiz-adv-x="542" 
d="M333 609q-27 0 -67 24t-60 24q-17 0 -28 -12.5t-12 -34.5h-42q0 41 24 66t61 25q27 0 68 -24t58 -24q18 0 29 13t12 35h41q0 -41 -23 -66.5t-61 -25.5zM287 532q82 0 133.5 -53t51.5 -142v-337h-50v333q0 70 -39.5 111.5t-101.5 41.5q-69 0 -112.5 -47t-43.5 -122v-317
h-50v519h50v-82q20 41 64.5 68t97.5 27z" />
    <glyph glyph-name="ograve" unicode="&#xf2;" horiz-adv-x="608" 
d="M327 584h-46l-85 141h58zM38 260q0 117 76 194.5t191 77.5q114 0 190 -78t76 -194q0 -117 -76.5 -195t-190.5 -78q-115 0 -190.5 77.5t-75.5 195.5zM90 260q0 -98 60 -162t154 -64t154.5 64t60.5 162q0 96 -60.5 160.5t-154.5 64.5t-154 -64.5t-60 -160.5z" />
    <glyph glyph-name="oacute" unicode="&#xf3;" horiz-adv-x="608" 
d="M339 725h58l-85 -141h-46zM38 260q0 117 76 194.5t191 77.5q114 0 190 -78t76 -194q0 -117 -76.5 -195t-190.5 -78q-115 0 -190.5 77.5t-75.5 195.5zM90 260q0 -98 60 -162t154 -64t154.5 64t60.5 162q0 96 -60.5 160.5t-154.5 64.5t-154 -64.5t-60 -160.5z" />
    <glyph glyph-name="ocircumflex" unicode="&#xf4;" horiz-adv-x="608" 
d="M307 687l-68 -88h-53l93 125h56l93 -125h-53zM38 260q0 117 76 194.5t191 77.5q114 0 190 -78t76 -194q0 -117 -76.5 -195t-190.5 -78q-115 0 -190.5 77.5t-75.5 195.5zM90 260q0 -98 60 -162t154 -64t154.5 64t60.5 162q0 96 -60.5 160.5t-154.5 64.5t-154 -64.5
t-60 -160.5z" />
    <glyph glyph-name="otilde" unicode="&#xf5;" horiz-adv-x="608" 
d="M371 609q-27 0 -67 24t-60 24q-17 0 -28 -12.5t-12 -34.5h-42q0 41 24 66t61 25q27 0 68 -24t58 -24q18 0 29 13t12 35h41q0 -41 -23 -66.5t-61 -25.5zM38 260q0 117 76 194.5t191 77.5q114 0 190 -78t76 -194q0 -117 -76.5 -195t-190.5 -78q-115 0 -190.5 77.5
t-75.5 195.5zM90 260q0 -98 60 -162t154 -64t154.5 64t60.5 162q0 96 -60.5 160.5t-154.5 64.5t-154 -64.5t-60 -160.5z" />
    <glyph glyph-name="odieresis" unicode="&#xf6;" horiz-adv-x="608" 
d="M189 653q0 17 12 29t29 12t29 -12t12 -29t-12 -29t-29 -12t-29 12t-12 29zM341 653q0 17 12 29t29 12t29 -12t12 -29t-12 -29t-29 -12t-29 12t-12 29zM38 260q0 117 76 194.5t191 77.5q114 0 190 -78t76 -194q0 -117 -76.5 -195t-190.5 -78q-115 0 -190.5 77.5
t-75.5 195.5zM90 260q0 -98 60 -162t154 -64t154.5 64t60.5 162q0 96 -60.5 160.5t-154.5 64.5t-154 -64.5t-60 -160.5z" />
    <glyph glyph-name="divide" unicode="&#xf7;" horiz-adv-x="550" 
d="M235 477q0 17 11.5 28.5t28.5 11.5t28.5 -11.5t11.5 -28.5t-11.5 -28.5t-28.5 -11.5t-28.5 11.5t-11.5 28.5zM42 334h466v-45h-466v45zM235 146q0 16 11.5 28t28.5 12t28.5 -12t11.5 -28t-11.5 -28t-28.5 -12t-28.5 12t-11.5 28z" />
    <glyph glyph-name="oslash" unicode="&#xf8;" horiz-adv-x="609" 
d="M38 260q0 117 76 194.5t191 77.5q84 0 152 -46l38 49l37 -30l-39 -49q78 -78 78 -196q0 -117 -76.5 -195t-190.5 -78q-83 0 -146 40l-37 -47l-36 29l37 47q-84 79 -84 204zM90 260q0 -100 62 -165l275 353q-55 37 -123 37q-94 0 -154 -64.5t-60 -160.5zM519 260
q0 93 -57 156l-274 -350q50 -32 116 -32q94 0 154.5 64t60.5 162z" />
    <glyph glyph-name="ugrave" unicode="&#xf9;" horiz-adv-x="537" 
d="M314 584h-46l-85 141h58zM255 -13q-82 0 -133.5 53t-51.5 142v337h50v-333q0 -70 39.5 -111.5t101.5 -41.5q69 0 112.5 47t43.5 122v317h50v-519h-50v82q-20 -41 -64.5 -68t-97.5 -27z" />
    <glyph glyph-name="uacute" unicode="&#xfa;" horiz-adv-x="537" 
d="M307 725h58l-85 -141h-46zM255 -13q-82 0 -133.5 53t-51.5 142v337h50v-333q0 -70 39.5 -111.5t101.5 -41.5q69 0 112.5 47t43.5 122v317h50v-519h-50v82q-20 -41 -64.5 -68t-97.5 -27z" />
    <glyph glyph-name="ucircumflex" unicode="&#xfb;" horiz-adv-x="537" 
d="M270 687l-68 -88h-53l93 125h56l93 -125h-53zM255 -13q-82 0 -133.5 53t-51.5 142v337h50v-333q0 -70 39.5 -111.5t101.5 -41.5q69 0 112.5 47t43.5 122v317h50v-519h-50v82q-20 -41 -64.5 -68t-97.5 -27z" />
    <glyph glyph-name="udieresis" unicode="&#xfc;" horiz-adv-x="537" 
d="M155 653q0 17 12 29t29 12t29 -12t12 -29t-12 -29t-29 -12t-29 12t-12 29zM307 653q0 17 12 29t29 12t29 -12t12 -29t-12 -29t-29 -12t-29 12t-12 29zM255 -13q-82 0 -133.5 53t-51.5 142v337h50v-333q0 -70 39.5 -111.5t101.5 -41.5q69 0 112.5 47t43.5 122v317h50v-519
h-50v82q-20 -41 -64.5 -68t-97.5 -27z" />
    <glyph glyph-name="yacute" unicode="&#xfd;" horiz-adv-x="493" 
d="M287 725h58l-85 -141h-46zM148 -179l76 180l-217 518h55l188 -457l182 457h54l-286 -698h-52z" />
    <glyph glyph-name="thorn" unicode="&#xfe;" horiz-adv-x="609" 
d="M75 723h50v-300q6 10 12.5 19.5t24.5 27t37.5 30t51.5 22.5t67 10q111 0 182 -76t71 -195q0 -120 -69.5 -197t-178.5 -77q-77 0 -127.5 37t-70.5 75v-286h-50v910zM123 261q0 -104 57.5 -165.5t141.5 -61.5q85 0 141 64t56 163q0 100 -57 162t-142 62q-88 0 -142.5 -65
t-54.5 -159z" />
    <glyph glyph-name="ydieresis" unicode="&#xff;" horiz-adv-x="493" 
d="M134 653q0 17 12 29t29 12t29 -12t12 -29t-12 -29t-29 -12t-29 12t-12 29zM286 653q0 17 12 29t29 12t29 -12t12 -29t-12 -29t-29 -12t-29 12t-12 29zM148 -179l76 180l-217 518h55l188 -457l182 457h54l-286 -698h-52z" />
    <glyph glyph-name="Amacron" unicode="&#x100;" horiz-adv-x="616" 
d="M193 816h230v-44h-230v44zM162 251l-95 -251h-52l268 700h50l268 -700h-52l-95 251h-292zM308 642l-128 -344h256z" />
    <glyph glyph-name="amacron" unicode="&#x101;" horiz-adv-x="502" 
d="M139 686h230v-44h-230v44zM39 159q0 74 56.5 122t142.5 48q49 0 89 -17t60 -39v79q0 64 -38.5 99t-103.5 35q-81 0 -160 -48l-21 39q86 55 184 55q94 0 141.5 -49.5t47.5 -133.5v-349h-41l-9 49q-54 -62 -149 -62q-87 0 -143 49.5t-56 122.5zM90 159q0 -53 41.5 -89.5
t109.5 -36.5q65 0 107 36t42 90q0 56 -41 90t-109 34t-109 -35t-41 -89z" />
    <glyph glyph-name="Abreve" unicode="&#x102;" horiz-adv-x="616" 
d="M308 750q-55 0 -85 33.5t-30 84.5h45q0 -34 17.5 -55t52.5 -21t52.5 21t17.5 55h45q0 -51 -30 -84.5t-85 -33.5zM162 251l-95 -251h-52l268 700h50l268 -700h-52l-95 251h-292zM308 642l-128 -344h256z" />
    <glyph glyph-name="abreve" unicode="&#x103;" horiz-adv-x="502" 
d="M251 590q-55 0 -85 33.5t-30 84.5h45q0 -34 17.5 -55t52.5 -21t52.5 21t17.5 55h45q0 -51 -30 -84.5t-85 -33.5zM39 159q0 74 56.5 122t142.5 48q49 0 89 -17t60 -39v79q0 64 -38.5 99t-103.5 35q-81 0 -160 -48l-21 39q86 55 184 55q94 0 141.5 -49.5t47.5 -133.5v-349
h-41l-9 49q-54 -62 -149 -62q-87 0 -143 49.5t-56 122.5zM90 159q0 -53 41.5 -89.5t109.5 -36.5q65 0 107 36t42 90q0 56 -41 90t-109 34t-109 -35t-41 -89z" />
    <glyph glyph-name="Aogonek" unicode="&#x104;" horiz-adv-x="616" 
d="M473 -98q0 34 24 59.5t52 38.5l-95 251h-292l-95 -251h-52l268 700h50l268 -700q-24 -9 -51 -35t-27 -57q0 -29 21.5 -42t50.5 -13v-42q-47 0 -84.5 21.5t-37.5 69.5zM308 642l-128 -344h256z" />
    <glyph glyph-name="aogonek" unicode="&#x105;" horiz-adv-x="502" 
d="M309 -98q0 32 25.5 60t52.5 40v47q-54 -62 -149 -62q-87 0 -143 49.5t-56 122.5q0 74 56.5 122t142.5 48q49 0 89 -17t60 -39v79q0 64 -38.5 99t-103.5 35q-81 0 -160 -48l-21 39q86 55 184 55q94 0 141.5 -49.5t47.5 -133.5v-349q-24 -9 -51 -35t-27 -57q0 -29 21.5 -42
t50.5 -13v-42q-47 0 -84.5 21.5t-37.5 69.5zM90 159q0 -53 41.5 -89.5t109.5 -36.5q65 0 107 36t42 90q0 56 -41 90t-109 34t-109 -35t-41 -89z" />
    <glyph glyph-name="Cacute" unicode="&#x106;" horiz-adv-x="665" 
d="M409 888h58l-85 -141h-46zM626 74q-14 -15 -39.5 -32t-80 -36t-112.5 -19q-149 0 -250 104t-101 259q0 154 101.5 258.5t246.5 104.5q130 0 221 -77l-18 -46q-86 75 -203 75q-123 0 -209 -90t-86 -225q0 -136 84.5 -225.5t213.5 -89.5q122 0 215 84z" />
    <glyph glyph-name="cacute" unicode="&#x107;" horiz-adv-x="524" 
d="M315 725h58l-85 -141h-46zM469 409q-13 15 -32 30t-58 30.5t-81 15.5q-89 0 -148 -64.5t-59 -160.5q0 -94 60.5 -160t147.5 -66q100 0 173 80l18 -44q-20 -26 -71 -54.5t-121 -28.5q-112 0 -186 79t-74 194q0 114 74.5 193t185.5 79q68 0 117 -25.5t74 -53.5z" />
    <glyph glyph-name="Ccircumflex" unicode="&#x108;" horiz-adv-x="665" 
d="M397 843l-68 -88h-53l93 125h56l93 -125h-53zM626 74q-14 -15 -39.5 -32t-80 -36t-112.5 -19q-149 0 -250 104t-101 259q0 154 101.5 258.5t246.5 104.5q130 0 221 -77l-18 -46q-86 75 -203 75q-123 0 -209 -90t-86 -225q0 -136 84.5 -225.5t213.5 -89.5q122 0 215 84z
" />
    <glyph glyph-name="ccircumflex" unicode="&#x109;" horiz-adv-x="524" 
d="M302 687l-68 -88h-53l93 125h56l93 -125h-53zM469 409q-13 15 -32 30t-58 30.5t-81 15.5q-89 0 -148 -64.5t-59 -160.5q0 -94 60.5 -160t147.5 -66q100 0 173 80l18 -44q-20 -26 -71 -54.5t-121 -28.5q-112 0 -186 79t-74 194q0 114 74.5 193t185.5 79q68 0 117 -25.5
t74 -53.5z" />
    <glyph glyph-name="Cdotaccent" unicode="&#x10a;" horiz-adv-x="665" 
d="M353 812q0 17 12 29t29 12t29 -12t12 -29t-12 -29t-29 -12t-29 12t-12 29zM626 74q-14 -15 -39.5 -32t-80 -36t-112.5 -19q-149 0 -250 104t-101 259q0 154 101.5 258.5t246.5 104.5q130 0 221 -77l-18 -46q-86 75 -203 75q-123 0 -209 -90t-86 -225q0 -136 84.5 -225.5
t213.5 -89.5q122 0 215 84z" />
    <glyph glyph-name="cdotaccent" unicode="&#x10b;" horiz-adv-x="524" 
d="M259 657q0 17 12 29t29 12t29 -12t12 -29t-12 -29t-29 -12t-29 12t-12 29zM469 409q-13 15 -32 30t-58 30.5t-81 15.5q-89 0 -148 -64.5t-59 -160.5q0 -94 60.5 -160t147.5 -66q100 0 173 80l18 -44q-20 -26 -71 -54.5t-121 -28.5q-112 0 -186 79t-74 194q0 114 74.5 193
t185.5 79q68 0 117 -25.5t74 -53.5z" />
    <glyph glyph-name="Ccaron" unicode="&#x10c;" horiz-adv-x="665" 
d="M459 880h53l-93 -125h-56l-93 125h53l68 -88zM626 74q-14 -15 -39.5 -32t-80 -36t-112.5 -19q-149 0 -250 104t-101 259q0 154 101.5 258.5t246.5 104.5q130 0 221 -77l-18 -46q-86 75 -203 75q-123 0 -209 -90t-86 -225q0 -136 84.5 -225.5t213.5 -89.5q122 0 215 84z
" />
    <glyph glyph-name="ccaron" unicode="&#x10d;" horiz-adv-x="524" 
d="M362 724h53l-93 -125h-56l-93 125h53l68 -88zM469 409q-13 15 -32 30t-58 30.5t-81 15.5q-89 0 -148 -64.5t-59 -160.5q0 -94 60.5 -160t147.5 -66q100 0 173 80l18 -44q-20 -26 -71 -54.5t-121 -28.5q-112 0 -186 79t-74 194q0 114 74.5 193t185.5 79q68 0 117 -25.5
t74 -53.5z" />
    <glyph glyph-name="Dcaron" unicode="&#x10e;" horiz-adv-x="628" 
d="M336 880h53l-93 -125h-56l-93 125h53l68 -88zM85 700h124q181 0 279 -92.5t98 -257.5q0 -174 -98.5 -262t-278.5 -88h-124v700zM230 47q142 0 223 78t81 225q0 141 -82 222t-222 81h-94v-606h94z" />
    <glyph glyph-name="dcaron" unicode="&#x10f;" horiz-adv-x="611" 
d="M533 0h-50v96q-6 -10 -12.5 -19.5t-24.5 -27t-37.5 -30t-51.5 -22.5t-67 -10q-111 0 -182 76t-71 195q0 120 69.5 197t178.5 77q77 0 127.5 -37t70.5 -75v303h50v-723zM580 723h47l-24 -166h-37zM485 258q0 104 -57.5 165.5t-141.5 61.5q-85 0 -141 -64t-56 -163
q0 -100 57 -162t142 -62q88 0 142.5 65t54.5 159z" />
    <glyph glyph-name="Dcroat" unicode="&#x110;" horiz-adv-x="628" 
d="M25 378h60v322h124q181 0 279 -92.5t98 -257.5q0 -174 -98.5 -262t-278.5 -88h-124v332h-60v46zM230 47q142 0 223 78t81 225q0 141 -82 222t-222 81h-94v-275h162v-46h-162v-285h94z" />
    <glyph glyph-name="dcroat" unicode="&#x111;" horiz-adv-x="608" 
d="M533 0h-50v96q-6 -10 -12.5 -19.5t-24.5 -27t-37.5 -30t-51.5 -22.5t-67 -10q-111 0 -182 76t-71 195q0 120 69.5 197t178.5 77q77 0 127.5 -37t70.5 -75v173h-130v44h130v86h50v-86h70v-44h-70v-593zM485 258q0 104 -57.5 165.5t-141.5 61.5q-85 0 -141 -64t-56 -163
q0 -100 57 -162t142 -62q88 0 142.5 65t54.5 159z" />
    <glyph glyph-name="Emacron" unicode="&#x112;" horiz-adv-x="471" 
d="M138 816h230v-44h-230v44zM85 700h319v-47h-268v-272h235v-47h-235v-287h279v-47h-330v700z" />
    <glyph glyph-name="emacron" unicode="&#x113;" horiz-adv-x="568" 
d="M176 686h230v-44h-230v44zM38 258q0 123 73.5 198.5t176.5 75.5q110 0 177 -73t67 -187v-21h-442q0 -102 58.5 -160t153.5 -58q115 0 179 89l33 -23q-69 -112 -212 -112q-116 0 -190 75t-74 196zM480 295q-4 93 -59 142t-134 49q-75 0 -131 -50t-63 -141h387z" />
    <glyph glyph-name="Ebreve" unicode="&#x114;" horiz-adv-x="471" 
d="M248 750q-55 0 -85 33.5t-30 84.5h45q0 -34 17.5 -55t52.5 -21t52.5 21t17.5 55h45q0 -51 -30 -84.5t-85 -33.5zM85 700h319v-47h-268v-272h235v-47h-235v-287h279v-47h-330v700z" />
    <glyph glyph-name="ebreve" unicode="&#x115;" horiz-adv-x="568" 
d="M288 590q-55 0 -85 33.5t-30 84.5h45q0 -34 17.5 -55t52.5 -21t52.5 21t17.5 55h45q0 -51 -30 -84.5t-85 -33.5zM38 258q0 123 73.5 198.5t176.5 75.5q110 0 177 -73t67 -187v-21h-442q0 -102 58.5 -160t153.5 -58q115 0 179 89l33 -23q-69 -112 -212 -112
q-116 0 -190 75t-74 196zM480 295q-4 93 -59 142t-134 49q-75 0 -131 -50t-63 -141h387z" />
    <glyph glyph-name="Edotaccent" unicode="&#x116;" horiz-adv-x="471" 
d="M223 812q0 17 12 29t29 12t29 -12t12 -29t-12 -29t-29 -12t-29 12t-12 29zM85 700h319v-47h-268v-272h235v-47h-235v-287h279v-47h-330v700z" />
    <glyph glyph-name="edotaccent" unicode="&#x117;" horiz-adv-x="568" 
d="M251 657q0 17 12 29t29 12t29 -12t12 -29t-12 -29t-29 -12t-29 12t-12 29zM38 258q0 123 73.5 198.5t176.5 75.5q110 0 177 -73t67 -187v-21h-442q0 -102 58.5 -160t153.5 -58q115 0 179 89l33 -23q-69 -112 -212 -112q-116 0 -190 75t-74 196zM480 295q-4 93 -59 142
t-134 49q-75 0 -131 -50t-63 -141h387z" />
    <glyph glyph-name="Eogonek" unicode="&#x118;" horiz-adv-x="471" 
d="M85 700h319v-47h-268v-272h235v-47h-235v-287h279v-47q-24 -9 -51 -35t-27 -57q0 -29 21.5 -42t50.5 -13v-42q-47 0 -84.5 21.5t-37.5 69.5q0 32 23.5 59t49.5 39h-275v700z" />
    <glyph glyph-name="eogonek" unicode="&#x119;" horiz-adv-x="568" 
d="M260 -98q0 48 51 85h-9q-116 0 -190 75t-74 196q0 123 73.5 198.5t176.5 75.5q110 0 177 -73t67 -187v-21h-442q0 -102 58.5 -160t153.5 -58q115 0 179 89l33 -23q-48 -76 -131 -101q-25 -12 -49 -36t-24 -54q0 -29 21.5 -42t50.5 -13v-42q-29 0 -55 7.5t-46.5 29
t-20.5 54.5zM480 295q-4 93 -59 142t-134 49q-75 0 -131 -50t-63 -141h387z" />
    <glyph glyph-name="Ecaron" unicode="&#x11a;" horiz-adv-x="471" 
d="M330 880h53l-93 -125h-56l-93 125h53l68 -88zM85 700h319v-47h-268v-272h235v-47h-235v-287h279v-47h-330v700z" />
    <glyph glyph-name="ecaron" unicode="&#x11b;" horiz-adv-x="568" 
d="M358 724h53l-93 -125h-56l-93 125h53l68 -88zM38 258q0 123 73.5 198.5t176.5 75.5q110 0 177 -73t67 -187v-21h-442q0 -102 58.5 -160t153.5 -58q115 0 179 89l33 -23q-69 -112 -212 -112q-116 0 -190 75t-74 196zM480 295q-4 93 -59 142t-134 49q-75 0 -131 -50
t-63 -141h387z" />
    <glyph glyph-name="Gcircumflex" unicode="&#x11c;" horiz-adv-x="731" 
d="M397 843l-68 -88h-53l93 125h56l93 -125h-53zM393 713q151 0 249 -95l-33 -35q-89 82 -216 82q-129 0 -212.5 -90.5t-83.5 -226.5t83.5 -224.5t211.5 -88.5q141 0 224 83v175h-168v47h218v-238q-104 -115 -274 -115q-150 0 -249.5 102.5t-99.5 258.5t100 260.5t250 104.5
z" />
    <glyph glyph-name="gcircumflex" unicode="&#x11d;" horiz-adv-x="603" 
d="M301 687l-68 -88h-53l93 125h56l93 -125h-53zM119 -97q74 -47 161 -47q91 0 147 44.5t56 139.5v56q-6 -10 -12.5 -19.5t-24.5 -27t-37.5 -30t-51.5 -22.5t-67 -10q-111 0 -182 76t-71 195q0 120 69.5 197t178.5 77q77 0 127.5 -37t70.5 -75v99h50v-444q0 -266 -252 -266
q-99 0 -183 54zM485 258q0 104 -57.5 165.5t-141.5 61.5q-85 0 -141 -64t-56 -163q0 -100 57 -162t142 -62q88 0 142.5 65t54.5 159z" />
    <glyph glyph-name="Gbreve" unicode="&#x11e;" horiz-adv-x="731" 
d="M387 750q-55 0 -85 33.5t-30 84.5h45q0 -34 17.5 -55t52.5 -21t52.5 21t17.5 55h45q0 -51 -30 -84.5t-85 -33.5zM393 713q151 0 249 -95l-33 -35q-89 82 -216 82q-129 0 -212.5 -90.5t-83.5 -226.5t83.5 -224.5t211.5 -88.5q141 0 224 83v175h-168v47h218v-238
q-104 -115 -274 -115q-150 0 -249.5 102.5t-99.5 258.5t100 260.5t250 104.5z" />
    <glyph glyph-name="gbreve" unicode="&#x11f;" horiz-adv-x="603" 
d="M301 590q-55 0 -85 33.5t-30 84.5h45q0 -34 17.5 -55t52.5 -21t52.5 21t17.5 55h45q0 -51 -30 -84.5t-85 -33.5zM119 -97q74 -47 161 -47q91 0 147 44.5t56 139.5v56q-6 -10 -12.5 -19.5t-24.5 -27t-37.5 -30t-51.5 -22.5t-67 -10q-111 0 -182 76t-71 195q0 120 69.5 197
t178.5 77q77 0 127.5 -37t70.5 -75v99h50v-444q0 -266 -252 -266q-99 0 -183 54zM485 258q0 104 -57.5 165.5t-141.5 61.5q-85 0 -141 -64t-56 -163q0 -100 57 -162t142 -62q88 0 142.5 65t54.5 159z" />
    <glyph glyph-name="Gdotaccent" unicode="&#x120;" horiz-adv-x="731" 
d="M353 812q0 17 12 29t29 12t29 -12t12 -29t-12 -29t-29 -12t-29 12t-12 29zM393 713q151 0 249 -95l-33 -35q-89 82 -216 82q-129 0 -212.5 -90.5t-83.5 -226.5t83.5 -224.5t211.5 -88.5q141 0 224 83v175h-168v47h218v-238q-104 -115 -274 -115q-150 0 -249.5 102.5
t-99.5 258.5t100 260.5t250 104.5z" />
    <glyph glyph-name="gdotaccent" unicode="&#x121;" horiz-adv-x="603" 
d="M260 657q0 17 12 29t29 12t29 -12t12 -29t-12 -29t-29 -12t-29 12t-12 29zM119 -97q74 -47 161 -47q91 0 147 44.5t56 139.5v56q-6 -10 -12.5 -19.5t-24.5 -27t-37.5 -30t-51.5 -22.5t-67 -10q-111 0 -182 76t-71 195q0 120 69.5 197t178.5 77q77 0 127.5 -37t70.5 -75
v99h50v-444q0 -266 -252 -266q-99 0 -183 54zM485 258q0 104 -57.5 165.5t-141.5 61.5q-85 0 -141 -64t-56 -163q0 -100 57 -162t142 -62q88 0 142.5 65t54.5 159z" />
    <glyph glyph-name="uni0122" unicode="&#x122;" horiz-adv-x="731" 
d="M393 713q151 0 249 -95l-33 -35q-89 82 -216 82q-129 0 -212.5 -90.5t-83.5 -226.5t83.5 -224.5t211.5 -88.5q141 0 224 83v175h-168v47h218v-238q-104 -115 -274 -115q-150 0 -249.5 102.5t-99.5 258.5t100 260.5t250 104.5zM357 -77q0 17 11.5 29.5t28.5 12.5
q19 0 31.5 -12.5t12.5 -32.5q0 -70 -60 -130l-27 24q36 33 41 68q-16 1 -27 13t-11 28z" />
    <glyph glyph-name="uni0123" unicode="&#x123;" horiz-adv-x="603" 
d="M335 616q0 -17 -11.5 -29.5t-28.5 -12.5q-19 0 -31.5 12.5t-12.5 32.5q0 70 60 130l27 -24q-36 -33 -41 -68q16 -1 27 -13t11 -28zM119 -97q74 -47 161 -47q91 0 147 44.5t56 139.5v56q-6 -10 -12.5 -19.5t-24.5 -27t-37.5 -30t-51.5 -22.5t-67 -10q-111 0 -182 76
t-71 195q0 120 69.5 197t178.5 77q77 0 127.5 -37t70.5 -75v99h50v-444q0 -266 -252 -266q-99 0 -183 54zM485 258q0 104 -57.5 165.5t-141.5 61.5q-85 0 -141 -64t-56 -163q0 -100 57 -162t142 -62q88 0 142.5 65t54.5 159z" />
    <glyph glyph-name="Hcircumflex" unicode="&#x124;" horiz-adv-x="685" 
d="M347 843l-68 -88h-53l93 125h56l93 -125h-53zM85 700h51v-318h413v318h51v-700h-51v334h-413v-334h-51v700z" />
    <glyph glyph-name="hcircumflex" unicode="&#x125;" horiz-adv-x="542" 
d="M271 838l-68 -88h-53l93 125h56l93 -125h-53zM287 532q82 0 133.5 -53t51.5 -142v-337h-50v333q0 70 -39.5 111.5t-101.5 41.5q-69 0 -112.5 -47t-43.5 -122v-317h-50v723h50v-286q20 41 64.5 68t97.5 27z" />
    <glyph glyph-name="Hbar" unicode="&#x126;" horiz-adv-x="685" 
d="M85 518h-63v46h63v136h51v-136h413v136h51v-136h63v-46h-63v-518h-51v334h-413v-334h-51v518zM549 382v136h-413v-136h413z" />
    <glyph glyph-name="hbar" unicode="&#x127;" horiz-adv-x="542" 
d="M287 532q82 0 133.5 -53t51.5 -142v-337h-50v333q0 70 -39.5 111.5t-101.5 41.5q-69 0 -112.5 -47t-43.5 -122v-317h-50v594h-69v44h69v85h50v-85h128v-44h-128v-157q20 41 64.5 68t97.5 27z" />
    <glyph glyph-name="Itilde" unicode="&#x128;" horiz-adv-x="221" 
d="M175 766q-27 0 -67 24t-60 24q-17 0 -28 -12.5t-12 -34.5h-42q0 41 24 66t61 25q27 0 68 -24t58 -24q18 0 29 13t12 35h41q0 -41 -23 -66.5t-61 -25.5zM85 700h51v-700h-51v700z" />
    <glyph glyph-name="itilde" unicode="&#x129;" 
d="M164 609q-27 0 -67 24t-60 24q-17 0 -28 -12.5t-12 -34.5h-42q0 41 24 66t61 25q26 0 67 -24t59 -24t29 13t12 35h41q0 -41 -23 -66.5t-61 -25.5zM75 519h50v-519h-50v519z" />
    <glyph glyph-name="Imacron" unicode="&#x12a;" horiz-adv-x="221" 
d="M-1 816h230v-44h-230v44zM85 700h51v-700h-51v700z" />
    <glyph glyph-name="imacron" unicode="&#x12b;" 
d="M-14 686h230v-44h-230v44zM75 519h50v-519h-50v519z" />
    <glyph glyph-name="Ibreve" unicode="&#x12c;" horiz-adv-x="221" 
d="M112 750q-55 0 -85 33.5t-30 84.5h45q0 -34 17.5 -55t52.5 -21t52.5 21t17.5 55h45q0 -51 -30 -84.5t-85 -33.5zM85 700h51v-700h-51v700z" />
    <glyph glyph-name="ibreve" unicode="&#x12d;" 
d="M101 590q-55 0 -85 33.5t-30 84.5h45q0 -34 17.5 -55t52.5 -21t52.5 21t17.5 55h45q0 -51 -30 -84.5t-85 -33.5zM75 519h50v-519h-50v519z" />
    <glyph glyph-name="Iogonek" unicode="&#x12e;" horiz-adv-x="221" 
d="M8 -98q0 32 25 59t52 39v700h51v-700q-24 -9 -51 -35t-27 -57q0 -29 21.5 -42t50.5 -13v-42q-29 0 -55 7.5t-46.5 29t-20.5 54.5z" />
    <glyph glyph-name="iogonek" unicode="&#x12f;" 
d="M59 657q0 17 12 29t29 12t29 -12t12 -29t-12 -29t-29 -12t-29 12t-12 29zM-3 -98q0 32 25 59t53 39v519h50v-519q-24 -9 -51 -35t-27 -57q0 -29 21.5 -42t50.5 -13v-42q-47 0 -84.5 21.5t-37.5 69.5z" />
    <glyph glyph-name="Idotaccent" unicode="&#x130;" horiz-adv-x="221" 
d="M71 812q0 17 12 29t29 12t29 -12t12 -29t-12 -29t-29 -12t-29 12t-12 29zM85 700h51v-700h-51v700z" />
    <glyph glyph-name="dotlessi" unicode="&#x131;" 
d="M75 519h50v-519h-50v519z" />
    <glyph glyph-name="IJ" unicode="&#x132;" horiz-adv-x="552" 
d="M85 700h51v-700h-51v700zM250 50q32 -10 70 -10q96 0 96 114v546h51v-549q0 -75 -36.5 -116t-106.5 -41q-20 0 -40 2.5t-30 5.5l-9 2z" />
    <glyph glyph-name="ij" unicode="&#x133;" horiz-adv-x="400" 
d="M59 657q0 17 12 29t29 12t29 -12t12 -29t-12 -29t-29 -12t-29 12t-12 29zM259 657q0 17 12 29t29 12t29 -12t12 -29t-12 -29t-29 -12t-29 12t-12 29zM75 519h50v-519h-50v519zM275 519h50v-540q0 -90 -39.5 -129.5t-103.5 -39.5l-24 1v45q12 -1 22 -1q95 0 95 123v541z
" />
    <glyph glyph-name="Jcircumflex" unicode="&#x134;" horiz-adv-x="331" 
d="M221 843l-68 -88h-53l93 125h56l93 -125h-53zM29 50q32 -10 70 -10q96 0 96 114v546h51v-549q0 -75 -36.5 -116t-106.5 -41q-20 0 -40 2.5t-29 5.5l-10 2z" />
    <glyph glyph-name="jcircumflex" unicode="&#x135;" 
d="M100 687l-68 -88h-53l93 125h56l93 -125h-53zM75 519h50v-540q0 -90 -39.5 -129.5t-103.5 -39.5l-24 1v45q12 -1 22 -1q95 0 95 123v541z" />
    <glyph glyph-name="uni0136" unicode="&#x136;" horiz-adv-x="541" 
d="M85 700h51v-328l306 328h65l-312 -334l326 -366h-66l-319 356v-356h-51v700zM253 -77q0 17 11.5 29.5t28.5 12.5q19 0 31.5 -12.5t12.5 -32.5q0 -70 -60 -130l-27 24q36 33 41 68q-16 1 -27 13t-11 28z" />
    <glyph glyph-name="uni0137" unicode="&#x137;" horiz-adv-x="451" 
d="M75 723h50v-429l239 225h67l-251 -233l264 -286h-67l-252 279v-279h-50v723zM207 -77q0 17 11.5 29.5t28.5 12.5q19 0 31.5 -12.5t12.5 -32.5q0 -70 -60 -130l-27 24q36 33 41 68q-16 1 -27 13t-11 28z" />
    <glyph glyph-name="kgreenlandic" unicode="&#x138;" horiz-adv-x="451" 
d="M84 519h50v-230l239 230h67l-251 -238l264 -281h-67l-252 274v-274h-50v519z" />
    <glyph glyph-name="Lacute" unicode="&#x139;" horiz-adv-x="446" 
d="M160 888h58l-85 -141h-46zM85 700h51v-653h279v-47h-330v700z" />
    <glyph glyph-name="lacute" unicode="&#x13a;" 
d="M143 891h58l-85 -141h-46zM75 723h50v-723h-50v723z" />
    <glyph glyph-name="uni013B" unicode="&#x13b;" horiz-adv-x="446" 
d="M85 700h51v-653h279v-47h-330v700zM213 -77q0 17 11.5 29.5t28.5 12.5q19 0 31.5 -12.5t12.5 -32.5q0 -70 -60 -130l-27 24q36 33 41 68q-16 1 -27 13t-11 28z" />
    <glyph glyph-name="uni013C" unicode="&#x13c;" 
d="M75 723h50v-723h-50v723zM61 -77q0 17 11.5 29.5t28.5 12.5q19 0 31.5 -12.5t12.5 -32.5q0 -70 -60 -130l-27 24q36 33 41 68q-16 1 -27 13t-11 28z" />
    <glyph glyph-name="Lcaron" unicode="&#x13d;" horiz-adv-x="446" 
d="M85 700h51v-653h279v-47h-330v700zM283 700h47l-24 -166h-37z" />
    <glyph glyph-name="lcaron" unicode="&#x13e;" horiz-adv-x="204" 
d="M75 723h50v-723h-50v723zM163 723h47l-24 -166h-37z" />
    <glyph glyph-name="Ldot" unicode="&#x13f;" horiz-adv-x="446" 
d="M85 700h51v-653h279v-47h-330v700zM257 368q0 17 12.5 29.5t29.5 12.5t29.5 -12.5t12.5 -29.5t-12.5 -29.5t-29.5 -12.5t-29.5 12.5t-12.5 29.5z" />
    <glyph glyph-name="ldot" unicode="&#x140;" horiz-adv-x="289" 
d="M75 723h50v-723h-50v723zM168 314q0 17 12.5 29.5t29.5 12.5t29.5 -12.5t12.5 -29.5t-12.5 -29.5t-29.5 -12.5t-29.5 12.5t-12.5 29.5z" />
    <glyph glyph-name="Lslash" unicode="&#x141;" horiz-adv-x="446" 
d="M25 316l60 37v347h51v-316l133 83v-54l-133 -82v-284h279v-47h-330v300l-60 -36v52z" />
    <glyph glyph-name="lslash" unicode="&#x142;" horiz-adv-x="240" 
d="M25 363l70 47v313h50v-280l73 50v-56l-73 -49v-388h-50v355l-70 -47v55z" />
    <glyph glyph-name="Nacute" unicode="&#x143;" horiz-adv-x="700" 
d="M399 888h58l-85 -141h-46zM85 700h50l429 -612v612h51v-700h-51l-428 613v-613h-51v700z" />
    <glyph glyph-name="nacute" unicode="&#x144;" horiz-adv-x="542" 
d="M311 725h58l-85 -141h-46zM287 532q82 0 133.5 -53t51.5 -142v-337h-50v333q0 70 -39.5 111.5t-101.5 41.5q-69 0 -112.5 -47t-43.5 -122v-317h-50v519h50v-82q20 41 64.5 68t97.5 27z" />
    <glyph glyph-name="uni0145" unicode="&#x145;" horiz-adv-x="700" 
d="M85 700h50l429 -612v612h51v-700h-51l-428 613v-613h-51v700zM308 -77q0 17 11.5 29.5t28.5 12.5q19 0 31.5 -12.5t12.5 -32.5q0 -70 -60 -130l-27 24q36 33 41 68q-16 1 -27 13t-11 28z" />
    <glyph glyph-name="uni0146" unicode="&#x146;" horiz-adv-x="542" 
d="M287 532q82 0 133.5 -53t51.5 -142v-337h-50v333q0 70 -39.5 111.5t-101.5 41.5q-69 0 -112.5 -47t-43.5 -122v-317h-50v519h50v-82q20 41 64.5 68t97.5 27zM230 -77q0 17 11.5 29.5t28.5 12.5q19 0 31.5 -12.5t12.5 -32.5q0 -70 -60 -130l-27 24q36 33 41 68
q-16 1 -27 13t-11 28z" />
    <glyph glyph-name="Ncaron" unicode="&#x147;" horiz-adv-x="700" 
d="M418 880h53l-93 -125h-56l-93 125h53l68 -88zM85 700h50l429 -612v612h51v-700h-51l-428 613v-613h-51v700z" />
    <glyph glyph-name="ncaron" unicode="&#x148;" horiz-adv-x="542" 
d="M355 724h53l-93 -125h-56l-93 125h53l68 -88zM287 532q82 0 133.5 -53t51.5 -142v-337h-50v333q0 70 -39.5 111.5t-101.5 41.5q-69 0 -112.5 -47t-43.5 -122v-317h-50v519h50v-82q20 41 64.5 68t97.5 27z" />
    <glyph glyph-name="napostrophe" unicode="&#x149;" horiz-adv-x="542" 
d="M-4 668q0 17 11.5 29.5t28.5 12.5q19 0 31.5 -12.5t12.5 -32.5q0 -70 -60 -130l-27 24q36 33 41 68q-16 1 -27 13t-11 28zM287 532q82 0 133.5 -53t51.5 -142v-337h-50v333q0 70 -39.5 111.5t-101.5 41.5q-69 0 -112.5 -47t-43.5 -122v-317h-50v519h50v-82q20 41 64.5 68
t97.5 27z" />
    <glyph glyph-name="Eng" unicode="&#x14a;" horiz-adv-x="700" 
d="M398 -134q32 -10 70 -10q96 0 96 114v30l-428 618v-618h-51v700h50l429 -617v617h51v-733q0 -75 -36.5 -116t-106.5 -41q-20 0 -40 2.5t-30 5.5l-9 2z" />
    <glyph glyph-name="eng" unicode="&#x14b;" horiz-adv-x="542" 
d="M422 333q0 70 -39.5 111.5t-101.5 41.5q-69 0 -112.5 -47t-43.5 -122v-317h-50v519h50v-82q20 41 64.5 68t97.5 27q82 0 133.5 -53t51.5 -142v-358q0 -90 -39.5 -129.5t-103.5 -39.5l-24 1v45q12 -1 22 -1q95 0 95 123v355z" />
    <glyph glyph-name="Omacron" unicode="&#x14c;" horiz-adv-x="792" 
d="M281 816h230v-44h-230v44zM42 350q0 154 102.5 258.5t251.5 104.5t251.5 -105t102.5 -258q0 -154 -103 -258.5t-252 -104.5t-251 103.5t-102 259.5zM95 350q0 -136 86.5 -225.5t214.5 -89.5t214.5 89.5t86.5 225.5q0 134 -87 224.5t-214 90.5q-128 0 -214.5 -90
t-86.5 -225z" />
    <glyph glyph-name="omacron" unicode="&#x14d;" horiz-adv-x="608" 
d="M193 686h230v-44h-230v44zM38 260q0 117 76 194.5t191 77.5q114 0 190 -78t76 -194q0 -117 -76.5 -195t-190.5 -78q-115 0 -190.5 77.5t-75.5 195.5zM90 260q0 -98 60 -162t154 -64t154.5 64t60.5 162q0 96 -60.5 160.5t-154.5 64.5t-154 -64.5t-60 -160.5z" />
    <glyph glyph-name="Obreve" unicode="&#x14e;" horiz-adv-x="792" 
d="M401 750q-55 0 -85 33.5t-30 84.5h45q0 -34 17.5 -55t52.5 -21t52.5 21t17.5 55h45q0 -51 -30 -84.5t-85 -33.5zM42 350q0 154 102.5 258.5t251.5 104.5t251.5 -105t102.5 -258q0 -154 -103 -258.5t-252 -104.5t-251 103.5t-102 259.5zM95 350q0 -136 86.5 -225.5
t214.5 -89.5t214.5 89.5t86.5 225.5q0 134 -87 224.5t-214 90.5q-128 0 -214.5 -90t-86.5 -225z" />
    <glyph glyph-name="obreve" unicode="&#x14f;" horiz-adv-x="608" 
d="M304 590q-55 0 -85 33.5t-30 84.5h45q0 -34 17.5 -55t52.5 -21t52.5 21t17.5 55h45q0 -51 -30 -84.5t-85 -33.5zM38 260q0 117 76 194.5t191 77.5q114 0 190 -78t76 -194q0 -117 -76.5 -195t-190.5 -78q-115 0 -190.5 77.5t-75.5 195.5zM90 260q0 -98 60 -162t154 -64
t154.5 64t60.5 162q0 96 -60.5 160.5t-154.5 64.5t-154 -64.5t-60 -160.5z" />
    <glyph glyph-name="Ohungarumlaut" unicode="&#x150;" horiz-adv-x="792" 
d="M383 888h58l-85 -141h-46zM497 888h58l-85 -141h-46zM42 350q0 154 102.5 258.5t251.5 104.5t251.5 -105t102.5 -258q0 -154 -103 -258.5t-252 -104.5t-251 103.5t-102 259.5zM95 350q0 -136 86.5 -225.5t214.5 -89.5t214.5 89.5t86.5 225.5q0 134 -87 224.5t-214 90.5
q-128 0 -214.5 -90t-86.5 -225z" />
    <glyph glyph-name="ohungarumlaut" unicode="&#x151;" horiz-adv-x="608" 
d="M290 725h58l-85 -141h-46zM404 725h58l-85 -141h-46zM38 260q0 117 76 194.5t191 77.5q114 0 190 -78t76 -194q0 -117 -76.5 -195t-190.5 -78q-115 0 -190.5 77.5t-75.5 195.5zM90 260q0 -98 60 -162t154 -64t154.5 64t60.5 162q0 96 -60.5 160.5t-154.5 64.5t-154 -64.5
t-60 -160.5z" />
    <glyph glyph-name="OE" unicode="&#x152;" horiz-adv-x="1081" 
d="M42 350q0 154 102.5 258.5t251.5 104.5q46 0 95 -13h519v-47h-417q66 -45 107.5 -116t48.5 -156h228v-47h-228q-4 -91 -45.5 -165.5t-110.5 -121.5h428v-47h-530q-50 -13 -96 -13q-149 0 -251 103.5t-102 259.5zM95 350q0 -136 86.5 -225.5t214.5 -89.5t214.5 89.5
t86.5 225.5q0 134 -87 224.5t-214 90.5q-128 0 -214.5 -90t-86.5 -225z" />
    <glyph glyph-name="oe" unicode="&#x153;" horiz-adv-x="1049" 
d="M38 260q0 117 76 194.5t191 77.5q80 0 143.5 -40.5t95.5 -109.5q30 70 91 110t134 40q110 0 177 -73t67 -187v-21h-442q0 -103 58.5 -160.5t153.5 -57.5q115 0 179 89l33 -23q-69 -112 -212 -112q-83 0 -146 40t-93 110q-32 -69 -96 -109.5t-144 -40.5
q-115 0 -190.5 77.5t-75.5 195.5zM961 295q-4 93 -59 142t-134 49q-75 0 -131 -50t-63 -141h387zM90 260q0 -98 60 -162t154 -64t154.5 64t60.5 162q0 96 -60.5 160.5t-154.5 64.5t-154 -64.5t-60 -160.5z" />
    <glyph glyph-name="Racute" unicode="&#x154;" horiz-adv-x="528" 
d="M295 888h58l-85 -141h-46zM85 700h161q98 0 153.5 -54.5t55.5 -135.5q0 -64 -35.5 -112t-94.5 -68l178 -330h-57l-169 320h-141v-320h-51v700zM248 366q71 0 112 38.5t41 105.5q0 64 -41.5 103.5t-114.5 39.5h-109v-287h112z" />
    <glyph glyph-name="racute" unicode="&#x155;" horiz-adv-x="316" 
d="M208 725h58l-85 -141h-46zM285 483q-85 0 -122.5 -58.5t-37.5 -150.5v-274h-50v519h50v-93q13 42 57 74t103 32v-49z" />
    <glyph glyph-name="uni0156" unicode="&#x156;" horiz-adv-x="528" 
d="M85 700h161q98 0 153.5 -54.5t55.5 -135.5q0 -64 -35.5 -112t-94.5 -68l178 -330h-57l-169 320h-141v-320h-51v700zM248 366q71 0 112 38.5t41 105.5q0 64 -41.5 103.5t-114.5 39.5h-109v-287h112zM230 -77q0 17 11.5 29.5t28.5 12.5q19 0 31.5 -12.5t12.5 -32.5
q0 -70 -60 -130l-27 24q36 33 41 68q-16 1 -27 13t-11 28z" />
    <glyph glyph-name="uni0157" unicode="&#x157;" horiz-adv-x="316" 
d="M285 483q-85 0 -122.5 -58.5t-37.5 -150.5v-274h-50v519h50v-93q13 42 57 74t103 32v-49zM71 -77q0 17 11.5 29.5t28.5 12.5q19 0 31.5 -12.5t12.5 -32.5q0 -70 -60 -130l-27 24q36 33 41 68q-16 1 -27 13t-11 28z" />
    <glyph glyph-name="Rcaron" unicode="&#x158;" horiz-adv-x="528" 
d="M317 880h53l-93 -125h-56l-93 125h53l68 -88zM85 700h161q98 0 153.5 -54.5t55.5 -135.5q0 -64 -35.5 -112t-94.5 -68l178 -330h-57l-169 320h-141v-320h-51v700zM248 366q71 0 112 38.5t41 105.5q0 64 -41.5 103.5t-114.5 39.5h-109v-287h112z" />
    <glyph glyph-name="rcaron" unicode="&#x159;" horiz-adv-x="316" 
d="M239 724h53l-93 -125h-56l-93 125h53l68 -88zM285 483q-85 0 -122.5 -58.5t-37.5 -150.5v-274h-50v519h50v-93q13 42 57 74t103 32v-49z" />
    <glyph glyph-name="Sacute" unicode="&#x15a;" horiz-adv-x="499" 
d="M289 888h58l-85 -141h-46zM84 153q41 -119 170 -119q64 0 106 37.5t42 100.5q0 41 -19 72.5t-48.5 51t-66 36.5l-73 35t-66 39.5t-48.5 56.5t-19 81q0 72 51.5 120.5t137.5 48.5q78 0 125 -39t64 -85l-43 -16q-17 37 -53 65.5t-93 28.5q-66 0 -102 -35t-36 -89
q0 -50 35 -85t85 -58l100.5 -48.5t85.5 -69.5t35 -107q0 -80 -55 -134t-146 -54q-88 0 -140 43t-73 107z" />
    <glyph glyph-name="sacute" unicode="&#x15b;" horiz-adv-x="409" 
d="M239 725h58l-85 -141h-46zM77 123q40 -91 134 -91q47 0 80 27.5t33 73.5q0 38 -27.5 64t-67 41.5l-79 32t-67 48.5t-27.5 79q0 61 44 97.5t111 36.5q65 0 103 -32t49 -71l-41 -16q-33 75 -115 75q-44 0 -73 -23.5t-29 -63.5q0 -31 20 -54t49.5 -35l64.5 -27.5t64.5 -31
t49.5 -46t20 -72.5q0 -65 -46.5 -106.5t-117.5 -41.5q-127 0 -175 119z" />
    <glyph glyph-name="Scircumflex" unicode="&#x15c;" horiz-adv-x="499" 
d="M250 843l-68 -88h-53l93 125h56l93 -125h-53zM84 153q41 -119 170 -119q64 0 106 37.5t42 100.5q0 41 -19 72.5t-48.5 51t-66 36.5l-73 35t-66 39.5t-48.5 56.5t-19 81q0 72 51.5 120.5t137.5 48.5q78 0 125 -39t64 -85l-43 -16q-17 37 -53 65.5t-93 28.5q-66 0 -102 -35
t-36 -89q0 -50 35 -85t85 -58l100.5 -48.5t85.5 -69.5t35 -107q0 -80 -55 -134t-146 -54q-88 0 -140 43t-73 107z" />
    <glyph glyph-name="scircumflex" unicode="&#x15d;" horiz-adv-x="409" 
d="M211 687l-68 -88h-53l93 125h56l93 -125h-53zM77 123q40 -91 134 -91q47 0 80 27.5t33 73.5q0 38 -27.5 64t-67 41.5l-79 32t-67 48.5t-27.5 79q0 61 44 97.5t111 36.5q65 0 103 -32t49 -71l-41 -16q-33 75 -115 75q-44 0 -73 -23.5t-29 -63.5q0 -31 20 -54t49.5 -35
l64.5 -27.5t64.5 -31t49.5 -46t20 -72.5q0 -65 -46.5 -106.5t-117.5 -41.5q-127 0 -175 119z" />
    <glyph glyph-name="Scedilla" unicode="&#x15e;" horiz-adv-x="499" 
d="M84 153q41 -119 170 -119q64 0 106 37.5t42 100.5q0 41 -19 72.5t-48.5 51t-66 36.5l-73 35t-66 39.5t-48.5 56.5t-19 81q0 72 51.5 120.5t137.5 48.5q78 0 125 -39t64 -85l-43 -16q-17 37 -53 65.5t-93 28.5q-66 0 -102 -35t-36 -89q0 -50 35 -85t85 -58l100.5 -48.5
t85.5 -69.5t35 -107q0 -77 -51.5 -130t-136.5 -57l-5 -39q82 -11 82 -82q0 -45 -31 -66.5t-77 -21.5l-34 3l6 41q16 -2 29 -2q62 0 62 45t-64 45h-16l9 77q-76 7 -122 49t-65 100z" />
    <glyph glyph-name="scedilla" unicode="&#x15f;" horiz-adv-x="409" 
d="M77 123q40 -91 134 -91q47 0 80 27.5t33 73.5q0 38 -27.5 64t-67 41.5l-79 32t-67 48.5t-27.5 79q0 61 44 97.5t111 36.5q65 0 104 -33.5t48 -69.5l-41 -16q-33 75 -115 75q-44 0 -73 -23.5t-29 -63.5q0 -31 20 -54t49.5 -35l64.5 -27.5t64.5 -31t49.5 -46t20 -72.5
q0 -62 -43.5 -103t-110.5 -44l-5 -39q82 -11 82 -82q0 -45 -31 -66.5t-77 -21.5l-34 3l6 41q16 -2 29 -2q62 0 62 45t-64 45h-16l9 78q-104 11 -146 117z" />
    <glyph glyph-name="Scaron" unicode="&#x160;" horiz-adv-x="499" 
d="M316 880h53l-93 -125h-56l-93 125h53l68 -88zM84 153q41 -119 170 -119q64 0 106 37.5t42 100.5q0 41 -19 72.5t-48.5 51t-66 36.5l-73 35t-66 39.5t-48.5 56.5t-19 81q0 72 51.5 120.5t137.5 48.5q78 0 125 -39t64 -85l-43 -16q-17 37 -53 65.5t-93 28.5q-66 0 -102 -35
t-36 -89q0 -50 35 -85t85 -58l100.5 -48.5t85.5 -69.5t35 -107q0 -80 -55 -134t-146 -54q-88 0 -140 43t-73 107z" />
    <glyph glyph-name="scaron" unicode="&#x161;" horiz-adv-x="409" 
d="M280 724h53l-93 -125h-56l-93 125h53l68 -88zM77 123q40 -91 134 -91q47 0 80 27.5t33 73.5q0 38 -27.5 64t-67 41.5l-79 32t-67 48.5t-27.5 79q0 61 44 97.5t111 36.5q65 0 103 -32t49 -71l-41 -16q-33 75 -115 75q-44 0 -73 -23.5t-29 -63.5q0 -31 20 -54t49.5 -35
l64.5 -27.5t64.5 -31t49.5 -46t20 -72.5q0 -65 -46.5 -106.5t-117.5 -41.5q-127 0 -175 119z" />
    <glyph glyph-name="uni0162" unicode="&#x162;" horiz-adv-x="511" 
d="M223 653h-201v47h453v-47h-201v-653h-7l-7 -51q82 -11 82 -82q0 -45 -31 -66.5t-77 -21.5l-34 3l6 41q16 -2 29 -2q62 0 62 45t-64 45h-16l11 89h-5v653z" />
    <glyph glyph-name="uni0163" unicode="&#x163;" horiz-adv-x="277" 
d="M78 627h50v-108h122v-45h-122v-292q0 -83 22.5 -112.5t81.5 -29.5l23 1v-45q-24 -2 -43 -2q-10 0 -24 2l-7 -47q82 -11 82 -82q0 -45 -31 -66.5t-77 -21.5l-34 3l6 41q16 -2 29 -2q62 0 62 45t-64 45h-16l11 95q-71 33 -71 144v324h-64v45h64v108z" />
    <glyph glyph-name="Tcaron" unicode="&#x164;" horiz-adv-x="511" 
d="M326 880h53l-93 -125h-56l-93 125h53l68 -88zM223 653h-201v47h453v-47h-201v-653h-51v653z" />
    <glyph glyph-name="tcaron" unicode="&#x165;" horiz-adv-x="278" 
d="M191 723h47l-24 -166h-37zM78 627h50v-108h122v-45h-122v-292q0 -83 22.5 -112.5t81.5 -29.5l23 1v-45q-24 -2 -43 -2q-63 0 -98.5 39.5t-35.5 116.5v324h-64v45h64v108z" />
    <glyph glyph-name="Tbar" unicode="&#x166;" horiz-adv-x="511" 
d="M91 404h132v249h-201v47h453v-47h-201v-249h132v-45h-132v-359h-51v359h-132v45z" />
    <glyph glyph-name="tbar" unicode="&#x167;" horiz-adv-x="277" 
d="M78 627h50v-108h122v-45h-122v-131h122v-44h-122v-117q0 -83 22.5 -112.5t81.5 -29.5l23 1v-45q-24 -2 -43 -2q-63 0 -98.5 39.5t-35.5 116.5v149h-62v44h62v131h-64v45h64v108z" />
    <glyph glyph-name="Utilde" unicode="&#x168;" horiz-adv-x="664" 
d="M397 766q-27 0 -67 24t-60 24q-17 0 -28 -12.5t-12 -34.5h-42q0 41 24 66t61 25q27 0 68 -24t58 -24q18 0 29 13t12 35h41q0 -41 -23 -66.5t-61 -25.5zM332 -13q-119 0 -185.5 70t-66.5 189v454h51v-453q0 -99 51.5 -155.5t149.5 -56.5t149.5 56.5t51.5 155.5v453h51
v-454q0 -119 -66.5 -189t-185.5 -70z" />
    <glyph glyph-name="utilde" unicode="&#x169;" horiz-adv-x="537" 
d="M335 609q-27 0 -67 24t-60 24q-17 0 -28 -12.5t-12 -34.5h-42q0 41 24 66t61 25q27 0 68 -24t58 -24q18 0 29 13t12 35h41q0 -41 -23 -66.5t-61 -25.5zM255 -13q-82 0 -133.5 53t-51.5 142v337h50v-333q0 -70 39.5 -111.5t101.5 -41.5q69 0 112.5 47t43.5 122v317h50
v-519h-50v82q-20 -41 -64.5 -68t-97.5 -27z" />
    <glyph glyph-name="Umacron" unicode="&#x16a;" horiz-adv-x="664" 
d="M228 816h230v-44h-230v44zM332 -13q-119 0 -185.5 70t-66.5 189v454h51v-453q0 -99 51.5 -155.5t149.5 -56.5t149.5 56.5t51.5 155.5v453h51v-454q0 -119 -66.5 -189t-185.5 -70z" />
    <glyph glyph-name="umacron" unicode="&#x16b;" horiz-adv-x="537" 
d="M159 686h230v-44h-230v44zM255 -13q-82 0 -133.5 53t-51.5 142v337h50v-333q0 -70 39.5 -111.5t101.5 -41.5q69 0 112.5 47t43.5 122v317h50v-519h-50v82q-20 -41 -64.5 -68t-97.5 -27z" />
    <glyph glyph-name="Ubreve" unicode="&#x16c;" horiz-adv-x="664" 
d="M335 750q-55 0 -85 33.5t-30 84.5h45q0 -34 17.5 -55t52.5 -21t52.5 21t17.5 55h45q0 -51 -30 -84.5t-85 -33.5zM332 -13q-119 0 -185.5 70t-66.5 189v454h51v-453q0 -99 51.5 -155.5t149.5 -56.5t149.5 56.5t51.5 155.5v453h51v-454q0 -119 -66.5 -189t-185.5 -70z" />
    <glyph glyph-name="ubreve" unicode="&#x16d;" horiz-adv-x="537" 
d="M271 590q-55 0 -85 33.5t-30 84.5h45q0 -34 17.5 -55t52.5 -21t52.5 21t17.5 55h45q0 -51 -30 -84.5t-85 -33.5zM255 -13q-82 0 -133.5 53t-51.5 142v337h50v-333q0 -70 39.5 -111.5t101.5 -41.5q69 0 112.5 47t43.5 122v317h50v-519h-50v82q-20 -41 -64.5 -68t-97.5 -27
z" />
    <glyph glyph-name="Uring" unicode="&#x16e;" horiz-adv-x="664" 
d="M257 825q0 35 23 58t58 23q37 0 60 -22.5t23 -57.5t-23 -58.5t-59 -23.5t-59 23t-23 58zM296 825q0 -19 12 -31t31 -12q20 0 31.5 12t11.5 32q0 19 -11.5 31t-32.5 12q-19 0 -30.5 -12t-11.5 -32zM332 -13q-119 0 -185.5 70t-66.5 189v454h51v-453q0 -99 51.5 -155.5
t149.5 -56.5t149.5 56.5t51.5 155.5v453h51v-454q0 -119 -66.5 -189t-185.5 -70z" />
    <glyph glyph-name="uring" unicode="&#x16f;" horiz-adv-x="537" 
d="M190 664q0 35 23 58t58 23q37 0 60 -22.5t23 -57.5t-23 -58.5t-59 -23.5t-59 23t-23 58zM229 664q0 -19 12 -31t31 -12q20 0 31.5 12t11.5 32q0 19 -11.5 31t-32.5 12q-19 0 -30.5 -12t-11.5 -32zM255 -13q-82 0 -133.5 53t-51.5 142v337h50v-333q0 -70 39.5 -111.5
t101.5 -41.5q69 0 112.5 47t43.5 122v317h50v-519h-50v82q-20 -41 -64.5 -68t-97.5 -27z" />
    <glyph glyph-name="Uhungarumlaut" unicode="&#x170;" horiz-adv-x="664" 
d="M312 888h58l-85 -141h-46zM426 888h58l-85 -141h-46zM332 -13q-119 0 -185.5 70t-66.5 189v454h51v-453q0 -99 51.5 -155.5t149.5 -56.5t149.5 56.5t51.5 155.5v453h51v-454q0 -119 -66.5 -189t-185.5 -70z" />
    <glyph glyph-name="uhungarumlaut" unicode="&#x171;" horiz-adv-x="537" 
d="M247 725h58l-85 -141h-46zM361 725h58l-85 -141h-46zM255 -13q-82 0 -133.5 53t-51.5 142v337h50v-333q0 -70 39.5 -111.5t101.5 -41.5q69 0 112.5 47t43.5 122v317h50v-519h-50v82q-20 -41 -64.5 -68t-97.5 -27z" />
    <glyph glyph-name="Uogonek" unicode="&#x172;" horiz-adv-x="664" 
d="M296 -98q0 48 51 85h-15q-119 0 -185.5 70t-66.5 189v454h51v-453q0 -99 51.5 -155.5t149.5 -56.5t149.5 56.5t51.5 155.5v453h51v-454q0 -93 -41.5 -157.5t-118.5 -88.5q-24 -9 -51 -35t-27 -57q0 -29 21.5 -42t50.5 -13v-42q-29 0 -55 7.5t-46.5 29t-20.5 54.5z" />
    <glyph glyph-name="uogonek" unicode="&#x173;" horiz-adv-x="537" 
d="M339 -98q0 32 25.5 60t52.5 40v80q-20 -41 -64.5 -68t-97.5 -27q-82 0 -133.5 53t-51.5 142v337h50v-333q0 -70 39.5 -111.5t101.5 -41.5q69 0 112.5 47t43.5 122v317h50v-519q-24 -9 -51 -35t-27 -57q0 -29 21.5 -42t50.5 -13v-42q-47 0 -84.5 21.5t-37.5 69.5z" />
    <glyph glyph-name="Wcircumflex" unicode="&#x174;" horiz-adv-x="926" 
d="M465 843l-68 -88h-53l93 125h56l93 -125h-53zM463 628l-189 -628h-56l-205 700h54l180 -631l188 631h56l188 -631l180 631h54l-205 -700h-56z" />
    <glyph glyph-name="wcircumflex" unicode="&#x175;" horiz-adv-x="810" 
d="M406 687l-68 -88h-53l93 125h56l93 -125h-53zM405 452l-160 -452h-53l-185 519h54l158 -457l160 457h52l160 -457l158 457h54l-185 -519h-53z" />
    <glyph glyph-name="Ycircumflex" unicode="&#x176;" horiz-adv-x="507" 
d="M255 843l-68 -88h-53l93 125h56l93 -125h-53zM228 333l-217 367h59l184 -317l186 317h57l-218 -367v-333h-51v333z" />
    <glyph glyph-name="ycircumflex" unicode="&#x177;" horiz-adv-x="493" 
d="M252 687l-68 -88h-53l93 125h56l93 -125h-53zM148 -179l76 180l-217 518h55l188 -457l182 457h54l-286 -698h-52z" />
    <glyph glyph-name="Ydieresis" unicode="&#x178;" horiz-adv-x="507" 
d="M138 834q0 17 12 29t29 12t29 -12t12 -29t-12 -29t-29 -12t-29 12t-12 29zM290 834q0 17 12 29t29 12t29 -12t12 -29t-12 -29t-29 -12t-29 12t-12 29zM228 333l-217 367h59l184 -317l186 317h57l-218 -367v-333h-51v333z" />
    <glyph glyph-name="Zacute" unicode="&#x179;" horiz-adv-x="590" 
d="M338 888h58l-85 -141h-46zM37 43l446 610h-432v47h495v-44l-446 -609h448v-47h-511v43z" />
    <glyph glyph-name="zacute" unicode="&#x17a;" horiz-adv-x="460" 
d="M257 725h58l-85 -141h-46zM34 42l325 433h-314v44h373v-42l-324 -433h329v-44h-389v42z" />
    <glyph glyph-name="Zdotaccent" unicode="&#x17b;" horiz-adv-x="590" 
d="M256 812q0 17 12 29t29 12t29 -12t12 -29t-12 -29t-29 -12t-29 12t-12 29zM37 43l446 610h-432v47h495v-44l-446 -609h448v-47h-511v43z" />
    <glyph glyph-name="zdotaccent" unicode="&#x17c;" horiz-adv-x="460" 
d="M189 657q0 17 12 29t29 12t29 -12t12 -29t-12 -29t-29 -12t-29 12t-12 29zM34 42l325 433h-314v44h373v-42l-324 -433h329v-44h-389v42z" />
    <glyph glyph-name="Zcaron" unicode="&#x17d;" horiz-adv-x="590" 
d="M363 880h53l-93 -125h-56l-93 125h53l68 -88zM37 43l446 610h-432v47h495v-44l-446 -609h448v-47h-511v43z" />
    <glyph glyph-name="zcaron" unicode="&#x17e;" horiz-adv-x="460" 
d="M298 724h53l-93 -125h-56l-93 125h53l68 -88zM34 42l325 433h-314v44h373v-42l-324 -433h329v-44h-389v42z" />
    <glyph glyph-name="florin" unicode="&#x192;" horiz-adv-x="445" 
d="M174 -30q-12 -86 -57 -124t-105 -38q-14 0 -28 1.5t-21 2.5l-7 2l7 45q24 -6 52 -6q48 0 76 34t38 113l49 365h-76v45h82l20 135q13 88 57.5 125t104.5 37q14 0 28 -1.5t21 -3.5l7 -1l-7 -45q-24 6 -52 6q-48 0 -75 -30t-37 -103l-17 -119h115v-45h-121z" />
    <glyph glyph-name="Aringacute" unicode="&#x1fa;" horiz-adv-x="616" 
d="M354 993h58l-85 -141h-46zM226 744q0 35 23 58t58 23q37 0 60 -22.5t23 -57.5q0 -54 -46 -75l257 -670h-52l-95 251h-292l-95 -251h-52l257 670q-46 21 -46 74zM265 744q0 -19 12 -31t31 -12q20 0 31.5 12t11.5 32q0 19 -11.5 31t-32.5 12q-19 0 -30.5 -12t-11.5 -32z
M308 642l-128 -344h256z" />
    <glyph glyph-name="aringacute" unicode="&#x1fb;" horiz-adv-x="502" 
d="M295 917h58l-85 -141h-46zM169 664q0 35 23 58t58 23q37 0 60 -22.5t23 -57.5t-23 -58.5t-59 -23.5t-59 23t-23 58zM208 664q0 -19 12 -31t31 -12q20 0 31.5 12t11.5 32q0 19 -11.5 31t-32.5 12q-19 0 -30.5 -12t-11.5 -32zM39 159q0 74 56.5 122t142.5 48q49 0 89 -17
t60 -39v79q0 64 -38.5 99t-103.5 35q-81 0 -160 -48l-21 39q86 55 184 55q94 0 141.5 -49.5t47.5 -133.5v-349h-41l-9 49q-54 -62 -149 -62q-87 0 -143 49.5t-56 122.5zM90 159q0 -53 41.5 -89.5t109.5 -36.5q65 0 107 36t42 90q0 56 -41 90t-109 34t-109 -35t-41 -89z" />
    <glyph glyph-name="AEacute" unicode="&#x1fc;" horiz-adv-x="788" 
d="M520 888h58l-85 -141h-46zM361 700h360v-47h-268v-272h235v-47h-235v-287h279v-47h-330v251h-216l-122 -251h-55zM210 298h192v355h-19z" />
    <glyph glyph-name="aeacute" unicode="&#x1fd;" horiz-adv-x="914" 
d="M482 725h58l-85 -141h-46zM39 159q0 74 56.5 122t142.5 48q49 0 89 -17t60 -39v79q0 64 -38.5 99t-103.5 35q-81 0 -160 -48l-21 39q86 55 184 55q74 0 119 -31.5t61 -87.5q34 57 88 88t118 31q110 0 177 -73t67 -187v-21h-442q0 -102 58.5 -160t153.5 -58q115 0 179 89
l33 -23q-69 -112 -212 -112q-76 0 -135 32t-89 92q-16 -49 -64 -86.5t-122 -37.5q-87 0 -143 49.5t-56 122.5zM826 295q-4 93 -59 142t-134 49q-75 0 -131 -50t-63 -141h387zM90 159q0 -53 41.5 -89.5t109.5 -36.5q65 0 105.5 35.5t40.5 90.5q0 56 -39.5 90t-107.5 34
t-109 -35t-41 -89z" />
    <glyph glyph-name="Oslashacute" unicode="&#x1fe;" horiz-adv-x="793" 
d="M430 888h58l-85 -141h-46zM43 350q0 154 102.5 258.5t251.5 104.5q112 0 203 -64l54 68l38 -30l-54 -69q113 -105 113 -268q0 -154 -103 -258.5t-252 -104.5q-114 0 -204 63l-52 -67l-38 29l53 68q-112 106 -112 270zM96 350q0 -141 91 -230l383 490q-75 55 -173 55
q-128 0 -214.5 -90t-86.5 -225zM698 350q0 136 -91 229l-384 -490q76 -54 174 -54q128 0 214.5 89.5t86.5 225.5z" />
    <glyph glyph-name="oslashacute" unicode="&#x1ff;" horiz-adv-x="609" 
d="M339 725h58l-85 -141h-46zM38 260q0 117 76 194.5t191 77.5q84 0 152 -46l38 49l37 -30l-39 -49q78 -78 78 -196q0 -117 -76.5 -195t-190.5 -78q-83 0 -146 40l-37 -47l-36 29l37 47q-84 79 -84 204zM90 260q0 -100 62 -165l275 353q-55 37 -123 37q-94 0 -154 -64.5
t-60 -160.5zM519 260q0 93 -57 156l-274 -350q50 -32 116 -32q94 0 154.5 64t60.5 162z" />
    <glyph glyph-name="uni0218" unicode="&#x218;" horiz-adv-x="499" 
d="M84 153q41 -119 170 -119q64 0 106 37.5t42 100.5q0 41 -19 72.5t-48.5 51t-66 36.5l-73 35t-66 39.5t-48.5 56.5t-19 81q0 72 51.5 120.5t137.5 48.5q78 0 125 -39t64 -85l-43 -16q-17 37 -53 65.5t-93 28.5q-66 0 -102 -35t-36 -89q0 -50 35 -85t85 -58l100.5 -48.5
t85.5 -69.5t35 -107q0 -80 -55 -134t-146 -54q-88 0 -140 43t-73 107zM214 -77q0 17 11.5 29.5t28.5 12.5q19 0 31.5 -12.5t12.5 -32.5q0 -70 -60 -130l-27 24q36 33 41 68q-16 1 -27 13t-11 28z" />
    <glyph glyph-name="uni0219" unicode="&#x219;" horiz-adv-x="409" 
d="M77 123q40 -91 134 -91q47 0 80 27.5t33 73.5q0 38 -27.5 64t-67 41.5l-79 32t-67 48.5t-27.5 79q0 61 44 97.5t111 36.5q65 0 103 -32t49 -71l-41 -16q-33 75 -115 75q-44 0 -73 -23.5t-29 -63.5q0 -31 20 -54t49.5 -35l64.5 -27.5t64.5 -31t49.5 -46t20 -72.5
q0 -65 -46.5 -106.5t-117.5 -41.5q-127 0 -175 119zM171 -77q0 17 11.5 29.5t28.5 12.5q19 0 31.5 -12.5t12.5 -32.5q0 -70 -60 -130l-27 24q36 33 41 68q-16 1 -27 13t-11 28z" />
    <glyph glyph-name="uni021A" unicode="&#x21a;" horiz-adv-x="511" 
d="M223 653h-201v47h453v-47h-201v-653h-51v653zM207 -77q0 17 11.5 29.5t28.5 12.5q19 0 31.5 -12.5t12.5 -32.5q0 -70 -60 -130l-27 24q36 33 41 68q-16 1 -27 13t-11 28z" />
    <glyph glyph-name="uni021B" unicode="&#x21b;" horiz-adv-x="277" 
d="M78 627h50v-108h122v-45h-122v-292q0 -83 22.5 -112.5t81.5 -29.5l23 1v-45q-24 -2 -43 -2q-63 0 -98.5 39.5t-35.5 116.5v324h-64v45h64v108zM145 -77q0 17 11.5 29.5t28.5 12.5q19 0 31.5 -12.5t12.5 -32.5q0 -70 -60 -130l-27 24q36 33 41 68q-16 1 -27 13t-11 28z
" />
    <glyph glyph-name="uni0237" unicode="&#x237;" 
d="M75 519h50v-540q0 -90 -39.5 -129.5t-103.5 -39.5l-24 1v45q12 -1 22 -1q95 0 95 123v541z" />
    <glyph glyph-name="circumflex" unicode="&#x2c6;" horiz-adv-x="454" 
d="M227 687l-68 -88h-53l93 125h56l93 -125h-53z" />
    <glyph glyph-name="caron" unicode="&#x2c7;" horiz-adv-x="454" 
d="M295 724h53l-93 -125h-56l-93 125h53l68 -88z" />
    <glyph glyph-name="breve" unicode="&#x2d8;" horiz-adv-x="455" 
d="M227 590q-55 0 -85 33.5t-30 84.5h45q0 -34 17.5 -55t52.5 -21t52.5 21t17.5 55h45q0 -51 -30 -84.5t-85 -33.5z" />
    <glyph glyph-name="dotaccent" unicode="&#x2d9;" horiz-adv-x="455" 
d="M186 657q0 17 12 29t29 12t29 -12t12 -29t-12 -29t-29 -12t-29 12t-12 29z" />
    <glyph glyph-name="ring" unicode="&#x2da;" horiz-adv-x="455" 
d="M145 664q0 35 23 58t58 23q37 0 60 -22.5t23 -57.5t-23 -58.5t-59 -23.5t-59 23t-23 58zM184 664q0 -19 12 -31t31 -12q20 0 31.5 12t11.5 32q0 19 -11.5 31t-32.5 12q-19 0 -30.5 -12t-11.5 -32z" />
    <glyph glyph-name="ogonek" unicode="&#x2db;" horiz-adv-x="454" 
d="M163 -98q0 32 23.5 59t49.5 39h55q-24 -9 -51 -35t-27 -57q0 -29 21.5 -42t50.5 -13v-42q-29 0 -55 7.5t-46.5 29t-20.5 54.5z" />
    <glyph glyph-name="tilde" unicode="&#x2dc;" horiz-adv-x="454" 
d="M289 609q-27 0 -67 24t-60 24q-17 0 -28 -12.5t-12 -34.5h-42q0 41 24 66t61 25q26 0 67.5 -24t58.5 -24q18 0 29 13t12 35h41q0 -41 -23 -66.5t-61 -25.5z" />
    <glyph glyph-name="hungarumlaut" unicode="&#x2dd;" horiz-adv-x="454" 
d="M177 725h58l-85 -141h-46zM291 725h58l-85 -141h-46z" />
    <glyph glyph-name="Wgrave" unicode="&#x1e80;" horiz-adv-x="926" 
d="M490 749h-46l-85 141h58zM463 628l-189 -628h-56l-205 700h54l180 -631l188 631h56l188 -631l180 631h54l-205 -700h-56z" />
    <glyph glyph-name="wgrave" unicode="&#x1e81;" horiz-adv-x="810" 
d="M428 584h-46l-85 141h58zM405 452l-160 -452h-53l-185 519h54l158 -457l160 457h52l160 -457l158 457h54l-185 -519h-53z" />
    <glyph glyph-name="Wacute" unicode="&#x1e82;" horiz-adv-x="926" 
d="M506 890h58l-85 -141h-46zM463 628l-189 -628h-56l-205 700h54l180 -631l188 631h56l188 -631l180 631h54l-205 -700h-56z" />
    <glyph glyph-name="wacute" unicode="&#x1e83;" horiz-adv-x="810" 
d="M447 725h58l-85 -141h-46zM405 452l-160 -452h-53l-185 519h54l158 -457l160 457h52l160 -457l158 457h54l-185 -519h-53z" />
    <glyph glyph-name="Wdieresis" unicode="&#x1e84;" horiz-adv-x="926" 
d="M346 812q0 17 12 29t29 12t29 -12t12 -29t-12 -29t-29 -12t-29 12t-12 29zM498 812q0 17 12 29t29 12t29 -12t12 -29t-12 -29t-29 -12t-29 12t-12 29zM463 628l-189 -628h-56l-205 700h54l180 -631l188 631h56l188 -631l180 631h54l-205 -700h-56z" />
    <glyph glyph-name="wdieresis" unicode="&#x1e85;" horiz-adv-x="810" 
d="M287 653q0 17 12 29t29 12t29 -12t12 -29t-12 -29t-29 -12t-29 12t-12 29zM439 653q0 17 12 29t29 12t29 -12t12 -29t-12 -29t-29 -12t-29 12t-12 29zM405 452l-160 -452h-53l-185 519h54l158 -457l160 457h52l160 -457l158 457h54l-185 -519h-53z" />
    <glyph glyph-name="Ygrave" unicode="&#x1ef2;" horiz-adv-x="507" 
d="M283 749h-46l-85 141h58zM228 333l-217 367h59l184 -317l186 317h57l-218 -367v-333h-51v333z" />
    <glyph glyph-name="ygrave" unicode="&#x1ef3;" horiz-adv-x="493" 
d="M289 584h-46l-85 141h58zM148 -179l76 180l-217 518h55l188 -457l182 457h54l-286 -698h-52z" />
    <glyph glyph-name="endash" unicode="&#x2013;" horiz-adv-x="577" 
d="M40 321h497v-45h-497v45z" />
    <glyph glyph-name="emdash" unicode="&#x2014;" horiz-adv-x="840" 
d="M40 321h760v-45h-760v45z" />
    <glyph glyph-name="quoteleft" unicode="&#x2018;" horiz-adv-x="165" 
d="M123 576q0 -17 -11.5 -29.5t-28.5 -12.5q-19 0 -31.5 12.5t-12.5 32.5q0 70 60 130l27 -24q-36 -33 -41 -68q16 -1 27 -13t11 -28z" />
    <glyph glyph-name="quoteright" unicode="&#x2019;" horiz-adv-x="165" 
d="M42 667q0 17 11.5 29.5t28.5 12.5q19 0 31.5 -12.5t12.5 -32.5q0 -70 -60 -130l-27 24q36 33 41 68q-16 1 -27 13t-11 28z" />
    <glyph glyph-name="quotesinglbase" unicode="&#x201a;" horiz-adv-x="196" 
d="M56 29q0 17 11.5 29.5t28.5 12.5q19 0 31.5 -12.5t12.5 -32.5q0 -70 -60 -130l-27 24q36 33 41 68q-16 1 -27 13t-11 28z" />
    <glyph glyph-name="quotedblleft" unicode="&#x201c;" horiz-adv-x="287" 
d="M123 576q0 -17 -11.5 -29.5t-28.5 -12.5q-19 0 -31.5 12.5t-12.5 32.5q0 70 60 130l27 -24q-36 -33 -41 -68q16 -1 27 -13t11 -28zM245 576q0 -17 -11.5 -29.5t-28.5 -12.5q-19 0 -31.5 12.5t-12.5 32.5q0 70 60 130l27 -24q-36 -33 -41 -68q16 -1 27 -13t11 -28z" />
    <glyph glyph-name="quotedblright" unicode="&#x201d;" horiz-adv-x="287" 
d="M42 667q0 17 11.5 29.5t28.5 12.5q19 0 31.5 -12.5t12.5 -32.5q0 -70 -60 -130l-27 24q36 33 41 68q-16 1 -27 13t-11 28zM164 667q0 17 11.5 29.5t28.5 12.5q19 0 31.5 -12.5t12.5 -32.5q0 -70 -60 -130l-27 24q36 33 41 68q-16 1 -27 13t-11 28z" />
    <glyph glyph-name="quotedblbase" unicode="&#x201e;" horiz-adv-x="287" 
d="M42 29q0 17 11.5 29.5t28.5 12.5q19 0 31.5 -12.5t12.5 -32.5q0 -70 -60 -130l-27 24q36 33 41 68q-16 1 -27 13t-11 28zM164 29q0 17 11.5 29.5t28.5 12.5q19 0 31.5 -12.5t12.5 -32.5q0 -70 -60 -130l-27 24q36 33 41 68q-16 1 -27 13t-11 28z" />
    <glyph glyph-name="dagger" unicode="&#x2020;" horiz-adv-x="355" 
d="M151 476h-114v45h114v179h50v-179h117v-45h-117v-476h-50v476z" />
    <glyph glyph-name="daggerdbl" unicode="&#x2021;" horiz-adv-x="352" 
d="M37 245h114v210h-114v45h114v200h50v-200h117v-45h-117v-210h117v-45h-117v-200h-50v200h-114v45z" />
    <glyph glyph-name="bullet" unicode="&#x2022;" horiz-adv-x="406" 
d="M203 138q-74 0 -123 50t-49 122t49 122t123 50t123 -50t49 -122t-49 -122t-123 -50z" />
    <glyph glyph-name="perthousand" unicode="&#x2030;" horiz-adv-x="1083" 
d="M193 420q-63 0 -105 42.5t-42 103.5t42 104t104 43q65 0 107.5 -42.5t42.5 -104.5q0 -61 -43 -103.5t-106 -42.5zM607 700h55l-535 -700h-55zM194 464q44 0 71.5 29t27.5 73t-28 74t-73 30q-43 0 -70.5 -30t-27.5 -74q0 -43 28 -72.5t72 -29.5zM391 133q0 61 42 104
t104 43q65 0 107.5 -43t42.5 -104t-43 -103.5t-106 -42.5t-105 42t-42 104zM741 133q0 61 42 104t104 43q65 0 107.5 -43t42.5 -104t-43 -103.5t-106 -42.5t-105 42t-42 104zM439 133q0 -44 28 -73.5t72 -29.5t71.5 29.5t27.5 73.5t-28 73.5t-73 29.5q-43 0 -70.5 -29.5
t-27.5 -73.5zM789 133q0 -44 28 -73.5t72 -29.5t71.5 29.5t27.5 73.5t-28 73.5t-73 29.5q-43 0 -70.5 -29.5t-27.5 -73.5z" />
    <glyph glyph-name="guilsinglleft" unicode="&#x2039;" horiz-adv-x="254" 
d="M37 291l125 182h54l-125 -182l125 -181h-54z" />
    <glyph glyph-name="guilsinglright" unicode="&#x203a;" horiz-adv-x="254" 
d="M91 110h-54l125 181l-125 182h54l125 -182z" />
    <glyph glyph-name="fraction" unicode="&#x2044;" horiz-adv-x="401" 
d="M-23 -41l397 782h50l-397 -782h-50z" />
    <glyph glyph-name="Euro" unicode="&#x20ac;" horiz-adv-x="619" 
d="M30 304h54q-3 23 -3 46q0 29 3 56h-54v45h63q29 116 117 189t209 73q95 0 158 -42l-23 -41q-60 35 -135 35q-100 0 -172.5 -59t-98.5 -155h305l-4 -45h-310q-4 -24 -4 -54q0 -24 3 -48h303l-3 -46h-291q25 -96 95.5 -159t170.5 -63q90 0 152 42l23 -40
q-23 -18 -71.5 -34.5t-103.5 -16.5q-123 0 -208 77.5t-113 193.5h-62v46z" />
    <glyph glyph-name="uni2116" unicode="&#x2116;" horiz-adv-x="1113" 
d="M713 536q0 74 49 125.5t126 51.5t126 -51.5t49 -125.5t-49 -125.5t-126 -51.5t-126 51.5t-49 125.5zM93 700h50l429 -617v617h51v-700h-51l-428 618v-618h-51v700zM761 536q0 -56 35 -93.5t92 -37.5t92 37.5t35 93.5t-35 93.5t-92 37.5t-92 -37.5t-35 -93.5zM727 294h321
v-49h-321v49z" />
    <glyph glyph-name="trademark" unicode="&#x2122;" horiz-adv-x="705" 
d="M123 659h-95v41h234v-41h-96v-318h-43v318zM468 382l-124 243v-284h-41v359h49l138 -269l138 269h49v-359h-41v284l-124 -243h-44z" />
    <glyph glyph-name="minus" unicode="&#x2212;" horiz-adv-x="550" 
d="M42 334h466v-45h-466v45z" />
    <glyph glyph-name="uniF6C3" unicode="&#xf6c3;" horiz-adv-x="0" 
d="M-139 -77q0 17 11.5 29.5t28.5 12.5q19 0 31.5 -12.5t12.5 -32.5q0 -70 -60 -130l-27 24q36 33 41 68q-16 1 -27 13t-11 28z" />
    <glyph glyph-name="hyphen.caps" horiz-adv-x="323" 
d="M40 375h243v-48h-243v48z" />
    <glyph glyph-name="endash.caps" horiz-adv-x="577" 
d="M40 375h497v-45h-497v45z" />
    <glyph glyph-name="emdash.caps" horiz-adv-x="840" 
d="M40 375h760v-45h-760v45z" />
    <glyph glyph-name="guillemotleft.caps" horiz-adv-x="398" 
d="M37 357l125 182h54l-125 -182l125 -181h-54zM306 539h54l-125 -182l125 -181h-54l-125 181z" />
    <glyph glyph-name="guillemotright.caps" horiz-adv-x="398" 
d="M216 357l-125 -181h-54l125 181l-125 182h54zM235 176h-54l125 181l-125 182h54l125 -182z" />
    <glyph glyph-name="guilsinglleft.caps" horiz-adv-x="254" 
d="M37 357l125 182h54l-125 -182l125 -181h-54z" />
    <glyph glyph-name="guilsinglright.caps" horiz-adv-x="254" 
d="M216 357l-125 -181h-54l125 181l-125 182h54z" />
    <glyph glyph-name="parenleft.caps" horiz-adv-x="284" 
d="M78 655q0 129 116 129h16v-44h-11q-42 0 -56.5 -23t-14.5 -67v-620q0 -44 14.5 -67t56.5 -23h11v-44h-16q-116 0 -116 129v630z" />
    <glyph glyph-name="parenright.caps" horiz-adv-x="284" 
d="M206 25q0 -129 -116 -129h-16v44h11q42 0 56.5 23t14.5 67v620q0 44 -14.5 67t-56.5 23h-11v44h16q116 0 116 -129v-630z" />
    <glyph glyph-name="bracketleft.caps" horiz-adv-x="292" 
d="M86 784h132v-44h-82v-800h82v-44h-132v888z" />
    <glyph glyph-name="bracketright.caps" horiz-adv-x="292" 
d="M206 -104h-132v44h82v800h-82v44h132v-888z" />
    <glyph glyph-name="braceleft.caps" horiz-adv-x="319" 
d="M40 362q73 0 73 111v182q0 129 116 129h16v-44h-11q-42 0 -56.5 -23t-14.5 -67v-179q0 -104 -61 -131q61 -27 61 -131v-179q0 -44 14.5 -67t56.5 -23h11v-44h-16q-116 0 -116 129v182q0 111 -73 111v44z" />
    <glyph glyph-name="bar.caps" horiz-adv-x="237" 
d="M94 804h49v-954h-49v954z" />
    <glyph glyph-name="braceright.caps" horiz-adv-x="319" 
d="M279 318q-73 0 -73 -111v-182q0 -129 -116 -129h-16v44h11q42 0 56.5 23t14.5 67v179q0 104 61 131q-61 27 -61 131v179q0 44 -14.5 67t-56.5 23h-11v44h16q116 0 116 -129v-182q0 -111 73 -111v-44z" />
    <glyph glyph-name="slash.caps" horiz-adv-x="413" 
d="M334 777h49l-304 -858h-49z" />
    <glyph glyph-name="backslash.caps" horiz-adv-x="413" 
d="M383 -81h-49l-304 858h49z" />
    <glyph glyph-name="exclamdown.caps" horiz-adv-x="242" 
d="M80 671q0 17 12.5 29.5t29.5 12.5t29.5 -12.5t12.5 -29.5t-12.5 -29.5t-29.5 -12.5t-29.5 12.5t-12.5 29.5zM100 535h43l4 -535h-51z" />
    <glyph glyph-name="questiondown.caps" horiz-adv-x="460" 
d="M295 671q0 -17 -12.5 -29.5t-29.5 -12.5t-29.5 12.5t-12.5 29.5t12.5 29.5t29.5 12.5t29.5 -12.5t12.5 -29.5zM280 489q0 -37 -18.5 -70t-45 -59l-53.5 -52t-45.5 -61.5t-18.5 -76.5q0 -60 37.5 -98t100.5 -38q95 0 138 93l40 -19q-18 -47 -62.5 -84t-114.5 -37
q-90 0 -141.5 51.5t-51.5 131.5q0 47 19 86.5t46.5 66.5l54.5 51.5t46 53.5t19 61v46h50v-46z" />
    <glyph glyph-name="periodcentered.caps" horiz-adv-x="215" 
d="M65 355q0 17 12.5 29.5t29.5 12.5t29.5 -12.5t12.5 -29.5t-12.5 -29.5t-29.5 -12.5t-29.5 12.5t-12.5 29.5z" />
    <glyph glyph-name="bullet.caps" horiz-adv-x="406" 
d="M203 182q-74 0 -123 50t-49 122t49 122t123 50t123 -50t49 -122t-49 -122t-123 -50z" />
    <glyph glyph-name="zero.tab" horiz-adv-x="544" 
d="M490 350q0 -182 -47 -272t-171 -90t-171 90t-47 272q0 183 47 273t171 90t171 -90t47 -273zM106 350q0 -50 1.5 -83.5t7 -73.5t16.5 -65t29 -48t46 -33.5t66 -10.5t66 10.5t46 33.5t29 48.5t16.5 65t7 73t1.5 83.5t-1.5 84t-7 73.5t-16.5 65t-29 48.5t-46 33.5t-66 10.5
t-66 -11t-46 -33.5t-29 -48t-16.5 -65.5t-7 -73.5t-1.5 -83.5z" />
    <glyph glyph-name="one.tab" horiz-adv-x="544" 
d="M116 0v47h150v600l-151 -68l-20 42l181 79h41v-653h131v-47h-332z" />
    <glyph glyph-name="two.tab" horiz-adv-x="544" 
d="M65 20q0 53 36 105.5t87.5 96.5l103 89t87.5 99.5t36 110.5q0 63 -40 103.5t-109 40.5q-117 0 -150 -121l-45 11q4 23 16.5 47.5t34.5 50.5t60 43t85 17q94 0 147.5 -55t53.5 -137q0 -51 -25.5 -101.5t-64 -89.5t-83.5 -79l-83.5 -72t-64 -67t-25.5 -65h357v-47h-414v20z
" />
    <glyph glyph-name="three.tab" horiz-adv-x="544" 
d="M462 649l-202 -246h18q84 0 145 -53.5t61 -152.5q0 -88 -61.5 -148.5t-151.5 -60.5q-91 0 -142 41.5t-70 101.5l43 18q37 -114 168 -114q69 0 115.5 46t46.5 116q0 77 -43.5 118t-126.5 41h-61v43l203 254h-323v47h381v-51z" />
    <glyph glyph-name="four.tab" horiz-adv-x="544" 
d="M37 226l330 474h48v-468h91v-48h-91v-184h-51v184h-327v42zM364 232v389l-266 -389h266z" />
    <glyph glyph-name="five.tab" horiz-adv-x="544" 
d="M272 35q73 0 116.5 51.5t43.5 127.5q0 78 -46 128t-121 50q-70 0 -133 -50l-45 8l15 350h342v-48h-295l-12 -254q54 40 128 40q100 0 159.5 -63t59.5 -161q0 -97 -58 -161.5t-153 -64.5q-88 0 -142 42t-72 101l43 18q37 -114 170 -114z" />
    <glyph glyph-name="six.tab" horiz-adv-x="544" 
d="M302 713q82 0 154 -52l-27 -36q-58 41 -127 41q-54 0 -93.5 -27t-61 -73.5t-31 -99.5t-9.5 -114q61 96 171 96q99 0 154 -63.5t55 -159.5q0 -112 -56.5 -174.5t-156.5 -62.5q-218 0 -218 301q0 424 246 424zM277 36q71 0 114.5 49t43.5 140q0 76 -41 125.5t-117 49.5
q-115 0 -170 -117q0 -43 3.5 -76.5t14.5 -67t29 -55t49.5 -35t73.5 -13.5z" />
    <glyph glyph-name="seven.tab" horiz-adv-x="544" 
d="M484 700v-42l-264 -658h-53l263 652h-370v48h424z" />
    <glyph glyph-name="eight.tab" horiz-adv-x="544" 
d="M272 -13q-96 0 -158.5 57t-62.5 147q0 77 42 123t88 61q-37 16 -71 57.5t-34 99.5q0 81 56 131t140 50t140 -50t56 -131q0 -58 -34 -99.5t-71 -57.5q46 -15 88 -61t42 -123q0 -90 -62.5 -147t-158.5 -57zM272 398q61 0 102 40t41 94q0 57 -38 95t-105 38t-105 -38
t-38 -95q0 -54 41 -94t102 -40zM272 349q-72 0 -120 -42.5t-48 -115.5q0 -65 45 -111t123 -46t123 46t45 111q0 73 -48 115.5t-120 42.5z" />
    <glyph glyph-name="nine.tab" horiz-adv-x="544" 
d="M241 -12q-83 0 -154 52l27 36q58 -41 127 -41q54 0 93.5 27t61 73.5t31 99.5t9.5 114q-61 -96 -171 -96q-99 0 -154 63.5t-55 159.5q0 112 56.5 174.5t156.5 62.5q218 0 218 -301q0 -424 -246 -424zM266 665q-71 0 -114.5 -49t-43.5 -140q0 -76 41 -125.5t117 -49.5
q115 0 170 117q0 43 -3.5 76.5t-14.5 67t-29 55t-49.5 35t-73.5 13.5z" />
    </font>
</defs>
</svg>
