<svg xmlns="http://www.w3.org/2000/svg" xmlns:xlink="http://www.w3.org/1999/xlink" width="48" height="44" viewBox="0 0 48 44">
    <defs>
        <path id="a" d="M.645.876h15.213v1H.645z"/>
        <path id="c" d="M.645.876h15.213v1H.645z"/>
        <path id="e" d="M.645.95h15.213v1H.645z"/>
        <path id="g" d="M.339.027H15.55V1H.34z"/>
        <path id="i" d="M.339.027h7.607V1H.339z"/>
        <path id="k" d="M0 .056h15.213V1H0z"/>
        <path id="m" d="M0 .056h7.607V1H0z"/>
    </defs>
    <g fill="none" fill-rule="evenodd">
        <path d="M0-2h48v48H0z"/>
        <path fill="#DCE2E5" d="M45.482 22c0 12.15-9.762 22-21.805 22S1.872 34.15 1.872 22 11.634 0 23.677 0s21.805 9.85 21.805 22" opacity=".25"/>
        <path fill="#C6426E" d="M33.173 24.732h6.794v5.116h-6.794a.814.814 0 0 1-.81-.818v-3.48c0-.451.362-.818.81-.818"/>
        <g transform="translate(31.716 28.028)">
            <mask id="b" fill="#fff">
                <use xlink:href="#a"/>
            </mask>
            <path fill="#642B73" d="M15.858.932v.07a.815.815 0 0 1-.81.819H1.457A.816.816 0 0 1 .644 1V.933h15.213z" mask="url(#b)"/>
        </g>
        <path fill="#642B73" d="M39.967 29.848h-6.794a.814.814 0 0 1-.811-.818v-.07h7.605v.888z"/>
        <path fill="#F2F5F6" d="M33.087 19.57h13.59c.448 0 .81.367.81.82v3.478a.814.814 0 0 1-.81.818h-13.59a.814.814 0 0 1-.811-.818V20.39c0-.452.363-.819.81-.819"/>
        <path fill="#DCE2E5" d="M33.087 19.57h6.794v5.116h-6.794a.814.814 0 0 1-.811-.818V20.39c0-.452.363-.819.81-.819"/>
        <path fill="#6B8592" d="M47.488 23.799v.069a.815.815 0 0 1-.81.819H33.086a.816.816 0 0 1-.812-.82V23.8h15.213z"/>
        <path fill="#6B8592" d="M39.882 24.687h-6.795a.814.814 0 0 1-.812-.819v-.07h7.607v.889z"/>
        <path fill="#F2F5F6" d="M33.173 24.732h13.59c.448 0 .81.367.81.819v3.479a.815.815 0 0 1-.81.819h-13.59a.815.815 0 0 1-.81-.82v-3.478c0-.452.362-.82.81-.82"/>
        <path fill="#DCE2E5" d="M33.173 24.732h6.794v5.116h-6.794a.814.814 0 0 1-.81-.818v-3.48c0-.451.362-.818.81-.818"/>
        <g transform="translate(31.716 28.028)">
            <mask id="d" fill="#fff">
                <use xlink:href="#c"/>
            </mask>
            <path fill="#6B8592" d="M15.858.932v.07a.815.815 0 0 1-.81.819H1.457A.816.816 0 0 1 .644 1V.933h15.213z" mask="url(#d)"/>
        </g>
        <path fill="#6B8592" d="M39.967 29.848h-6.794a.814.814 0 0 1-.811-.818v-.07h7.605v.888z"/>
        <path fill="#F2F5F6" d="M33.173 29.806h13.59c.448 0 .81.367.81.819v3.479a.814.814 0 0 1-.81.818h-13.59a.814.814 0 0 1-.81-.818v-3.48c0-.451.362-.818.81-.818"/>
        <path fill="#DCE2E5" d="M33.173 29.806h6.794v5.116h-6.794a.814.814 0 0 1-.81-.818v-3.48c0-.451.362-.818.81-.818"/>
        <g transform="translate(31.716 33.028)">
            <mask id="f" fill="#fff">
                <use xlink:href="#e"/>
            </mask>
            <path fill="#6B8592" d="M15.858 1.006v.07a.815.815 0 0 1-.81.818H1.457a.816.816 0 0 1-.813-.819v-.069h15.213z" mask="url(#f)"/>
        </g>
        <path fill="#6B8592" d="M39.967 34.922h-6.794a.814.814 0 0 1-.811-.818v-.07h7.605v.888z"/>
        <path fill="#C6426E" d="M17.009 24.81h6.794v5.116H17.01a.815.815 0 0 1-.812-.82v-3.479c0-.451.364-.817.812-.817"/>
        <path fill="#642B73" d="M31.41 29.038v.069a.815.815 0 0 1-.811.819h-13.59a.817.817 0 0 1-.812-.819v-.069h15.212z"/>
        <path fill="#642B73" d="M23.804 29.926h-6.795a.816.816 0 0 1-.812-.82v-.068h7.607v.888z"/>
        <path fill="#F2F5F6" d="M17.009 24.81h13.59c.447 0 .81.366.81.818v3.479a.814.814 0 0 1-.81.819h-13.59a.815.815 0 0 1-.812-.82v-3.479c0-.451.364-.817.812-.817"/>
        <path fill="#DCE2E5" d="M17.009 24.81h6.794v5.116H17.01a.815.815 0 0 1-.812-.82v-3.479c0-.451.364-.817.812-.817"/>
        <path fill="#6B8592" d="M31.41 29.038v.069a.815.815 0 0 1-.811.819h-13.59a.817.817 0 0 1-.812-.819v-.069h15.212z"/>
        <path fill="#6B8592" d="M23.804 29.926h-6.795a.816.816 0 0 1-.812-.82v-.068h7.607v.888z"/>
        <path fill="#F2F5F6" d="M17.009 29.883h13.59c.447 0 .81.367.81.819v3.479a.814.814 0 0 1-.81.818h-13.59a.815.815 0 0 1-.812-.818V30.7c0-.451.364-.818.812-.818"/>
        <path fill="#DCE2E5" d="M17.009 29.883h6.794v5.116H17.01a.815.815 0 0 1-.812-.818V30.7c0-.451.364-.818.812-.818"/>
        <g transform="translate(15.858 34.028)">
            <mask id="h" fill="#fff">
                <use xlink:href="#g"/>
            </mask>
            <path fill="#6B8592" d="M15.551.083v.07a.815.815 0 0 1-.81.818H1.15A.817.817 0 0 1 .34.152V.083H15.55z" mask="url(#h)"/>
        </g>
        <g transform="translate(15.858 34.028)">
            <mask id="j" fill="#fff">
                <use xlink:href="#i"/>
            </mask>
            <path fill="#6B8592" d="M7.946.971H1.15A.815.815 0 0 1 .34.153v-.07h7.607v.888z" mask="url(#j)"/>
        </g>
        <path fill="#F2F5F6" d="M.811 29.912h13.59c.449 0 .811.367.811.819v3.479a.814.814 0 0 1-.81.818H.812A.814.814 0 0 1 0 34.21v-3.48c0-.451.362-.818.81-.818"/>
        <path fill="#DCE2E5" d="M.811 29.912h6.794v5.116H.811a.814.814 0 0 1-.81-.818v-3.48c0-.451.362-.818.81-.818"/>
        <g transform="translate(0 34.028)">
            <mask id="l" fill="#fff">
                <use xlink:href="#k"/>
            </mask>
            <path fill="#6B8592" d="M15.213.112v.07a.815.815 0 0 1-.811.818H.812A.816.816 0 0 1 0 .181V.112h15.213z" mask="url(#l)"/>
        </g>
        <g transform="translate(0 34.028)">
            <mask id="n" fill="#fff">
                <use xlink:href="#m"/>
            </mask>
            <path fill="#6B8592" d="M7.607 1H.812A.814.814 0 0 1 0 .182v-.07h7.607V1z" mask="url(#n)"/>
        </g>
        <path stroke="#6B8592" stroke-linecap="round" stroke-linejoin="round" stroke-width="4" d="M6.708 26.814l12.809-9.256 6.058 3.842 11.627-8.498"/>
        <path fill="#6B8592" d="M38.803 17.437L42.54 9l-9.11.953z"/>
    </g>
</svg>
