<svg xmlns="http://www.w3.org/2000/svg" xmlns:xlink="http://www.w3.org/1999/xlink" width="48" height="48" viewBox="0 0 48 48">
    <defs>
        <path id="a" d="M0 0h47.574v48H0z"/>
    </defs>
    <g fill="none" fill-rule="evenodd">
        <path d="M0 0h48v48H0z"/>
        <g>
            <mask id="b" fill="#fff">
                <use xlink:href="#a"/>
            </mask>
            <path fill="#DCE2E5" d="M47.574 24c0 13.255-10.65 24-23.787 24C10.65 48 0 37.255 0 24S10.65 0 23.787 0c13.138 0 23.787 10.745 23.787 24" mask="url(#b)" opacity=".25"/>
        </g>
        <path fill="#667C88" d="M22.905 24.618h1.735a1.48 1.48 0 0 1 1.472 1.485c0 .82-.66 1.486-1.472 1.486h-1.735a1.48 1.48 0 0 1-1.471-1.486.6.6 0 0 0-.597-.6.598.598 0 0 0-.597.6c0 1.483 1.196 2.69 2.665 2.69h.271v1.328a.6.6 0 0 0 .597.601.6.6 0 0 0 .596-.6v-1.33h.27c1.47 0 2.666-1.206 2.666-2.689s-1.196-2.689-2.665-2.689h-1.735a1.48 1.48 0 0 1-1.471-1.485c0-.819.66-1.485 1.471-1.485h1.735a1.48 1.48 0 0 1 1.472 1.485.6.6 0 0 0 .596.602.6.6 0 0 0 .597-.602c0-1.482-1.196-2.688-2.665-2.688h-.27v-1.33a.6.6 0 0 0-.597-.6.6.6 0 0 0-.597.6v1.33h-.27c-1.47 0-2.666 1.206-2.666 2.688 0 1.483 1.196 2.69 2.665 2.69"/>
        <path fill="#6B8592" d="M4.718 25.196h1.205c.277 4.448 2.101 8.59 5.206 11.77 3.381 3.462 7.876 5.37 12.658 5.37 4.781 0 9.278-1.908 12.659-5.37a18.42 18.42 0 0 0 4.692-8.425 1.205 1.205 0 0 0-.65-1.384 1.15 1.15 0 0 0-1.444.412l-.468.698-1.318-1.962a1.156 1.156 0 0 0-1.178-.497 1.18 1.18 0 0 0-.92.904c-1.238 5.444-5.914 9.246-11.373 9.246-6.043 0-11.03-4.728-11.617-10.762h1.11c.432 0 .832-.246 1.033-.64a1.221 1.221 0 0 0-.072-1.233l-4.28-6.377a1.16 1.16 0 0 0-.963-.52c-.384 0-.744.195-.961.52l-4.282 6.377a1.221 1.221 0 0 0-.071 1.234c.202.393.6.639 1.034.639"/>
        <path fill="#DCE2E5" d="M6.491 19.247l.981-1.46.565-.841c.217-.326.578-.52.962-.52s.744.195.962.52l2.579 3.841c1.403-5.174 5.957-8.744 11.247-8.744 6.044 0 11.03 4.727 11.617 10.762h-1.109c-.434 0-.832.245-1.034.639-.201.393-.174.867.072 1.233l4.28 6.378c.218.325.577.518.963.518.384 0 .744-.194.962-.518l4.28-6.378c.246-.366.274-.84.071-1.233a1.163 1.163 0 0 0-1.033-.64h-1.204c-.278-4.447-2.102-8.59-5.206-11.768-3.381-3.464-7.878-5.371-12.659-5.371-4.782 0-9.277 1.907-12.659 5.37a18.406 18.406 0 0 0-4.637 8.212z"/>
    </g>
</svg>
