<svg xmlns="http://www.w3.org/2000/svg" xmlns:xlink="http://www.w3.org/1999/xlink" width="48" height="49" viewBox="0 0 48 49">
    <defs>
        <path id="a" d="M3.388.233C1.757.233.422 1.58.422 3.226v20.197c0 1.646 1.335 2.993 2.966 2.993h31.331c1.631 0 2.966-1.347 2.966-2.993V3.226c0-1.646-1.335-2.993-2.966-2.993H3.388z"/>
        <path id="c" d="M3.074.134C1.522.134.25 1.416.25 2.982v32.694c0 1.566 1.27 2.849 2.823 2.849h12.564c1.552 0 2.822-1.283 2.822-2.85V2.983c0-1.566-1.27-2.848-2.822-2.848"/>
        <path id="e" d="M3.074.134C1.522.134.25 1.416.25 2.982v32.694c0 1.566 1.27 2.849 2.823 2.849h12.564c1.552 0 2.822-1.283 2.822-2.85V2.983c0-1.566-1.27-2.848-2.822-2.848"/>
        <path id="g" d="M3.074.134C1.522.134.25 1.416.25 2.982v32.694c0 1.566 1.27 2.849 2.823 2.849h12.564c1.552 0 2.822-1.283 2.822-2.85V2.983c0-1.566-1.27-2.848-2.822-2.848"/>
        <path id="i" d="M3.074.134C1.522.134.25 1.416.25 2.982v32.694c0 1.566 1.27 2.849 2.823 2.849h12.564c1.552 0 2.822-1.283 2.822-2.85V2.983c0-1.566-1.27-2.848-2.822-2.848"/>
        <path id="k" d="M19.054 10.052L.422.022v17.863c0 1.567 1.33 2.91 2.883 2.91h31.497c1.996 0 2.883-1.79 2.883-2.91V.022l-18.631 10.03z"/>
        <path id="m" d="M.422 10.116s0 2.463 2.883 2.463L19.054 1.836 15.684.022.422 10.116z"/>
        <path id="o" d="M10.053 5.474L.273.326v1.002l9.78 5.265 8.984-4.836V.327z"/>
    </defs>
    <g fill="none" fill-rule="evenodd">
        <path d="M0 0h48v48H0z"/>
        <path fill="#DCE2E5" d="M47.77 24.397c0 13.255-10.65 24-23.788 24-13.137 0-23.787-10.745-23.787-24 0-13.254 10.65-24 23.787-24 13.138 0 23.787 10.746 23.787 24" opacity=".25"/>
        <g transform="translate(4.715 16.96)">
            <mask id="b" fill="#fff">
                <use xlink:href="#a"/>
            </mask>
            <path fill="#667C88" d="M-1.921 28.78h41.95V-2.13h-41.95z" mask="url(#b)"/>
        </g>
        <path fill="#DCE2E5" d="M14.395 40.331v-32.3c0-1.675 1.358-3.045 3.018-3.045h12.173c1.66 0 3.018 1.37 3.018 3.045v32.3c0 1.675-1.358 3.045-3.018 3.045H17.413c-1.66 0-3.018-1.37-3.018-3.045"/>
        <path fill="#F2F5F6" d="M16.058 24.181c0 4.146 3.332 7.508 7.442 7.508 4.109 0 7.44-3.362 7.44-7.508s-3.331-7.508-7.44-7.508c-4.11 0-7.442 3.362-7.442 7.508"/>
        <g transform="translate(13.876 4.852)">
            <mask id="d" fill="#fff">
                <use xlink:href="#c"/>
            </mask>
            <path fill="#B2BEC4" d="M19.864 49.767c-4.578 0-8.29-3.744-8.29-8.364 0-4.618 3.712-8.363 8.29-8.363 4.578 0 8.29 3.745 8.29 8.363 0 4.62-3.712 8.364-8.29 8.364" mask="url(#d)"/>
        </g>
        <g transform="translate(13.876 4.852)">
            <mask id="f" fill="#fff">
                <use xlink:href="#e"/>
            </mask>
            <path fill="#B2BEC4" d="M-1.335 49.767c-4.579 0-8.29-3.744-8.29-8.364 0-4.618 3.711-8.363 8.29-8.363 4.578 0 8.29 3.745 8.29 8.363 0 4.62-3.712 8.364-8.29 8.364" mask="url(#f)"/>
        </g>
        <g transform="translate(13.876 4.852)">
            <mask id="h" fill="#fff">
                <use xlink:href="#g"/>
            </mask>
            <path fill="#667C88" d="M19.864 5.618c-4.578 0-8.29-3.744-8.29-8.363s3.712-8.364 8.29-8.364c4.578 0 8.29 3.745 8.29 8.364 0 4.619-3.712 8.363-8.29 8.363" mask="url(#h)"/>
        </g>
        <g transform="translate(13.876 4.852)">
            <mask id="j" fill="#fff">
                <use xlink:href="#i"/>
            </mask>
            <path fill="#667C88" d="M-1.335 5.618c-4.579 0-8.29-3.744-8.29-8.363s3.711-8.364 8.29-8.364c4.578 0 8.29 3.745 8.29 8.364 0 4.619-3.712 8.363-8.29 8.363" mask="url(#j)"/>
        </g>
        <path fill="#667C88" d="M23.04 23.506v1.351c0 .632-.51 1.145-1.136 1.145a1.142 1.142 0 0 1-1.137-1.145v-1.351c0-.632.51-1.146 1.137-1.146.253 0 .46-.208.46-.465a.463.463 0 0 0-.46-.465 2.068 2.068 0 0 0-2.057 2.076v.21h-1.016a.463.463 0 0 0-.46.465c0 .256.206.464.46.464h1.016v.212c0 1.144.922 2.075 2.057 2.075a2.068 2.068 0 0 0 2.055-2.075v-1.351c0-.632.51-1.146 1.137-1.146.626 0 1.136.514 1.136 1.146v1.351c0 .632-.51 1.145-1.136 1.145a.463.463 0 0 0-.46.465c0 .256.206.465.46.465a2.068 2.068 0 0 0 2.056-2.075v-.212h1.016c.254 0 .46-.208.46-.464a.463.463 0 0 0-.46-.464h-1.016v-.211a2.068 2.068 0 0 0-2.056-2.076 2.068 2.068 0 0 0-2.057 2.076"/>
        <g transform="translate(4.715 22.582)">
            <mask id="l" fill="#fff">
                <use xlink:href="#k"/>
            </mask>
            <path fill="#DCE2E5" d="M-1.921 23.158h41.95V-2.34h-41.95z" mask="url(#l)"/>
        </g>
        <g transform="translate(4.715 30.798)">
            <mask id="n" fill="#fff">
                <use xlink:href="#m"/>
            </mask>
            <path fill="#F2F5F6" d="M-1.921 14.942h23.317V-2.342H-1.921z" mask="url(#n)"/>
        </g>
        <g transform="translate(13.715 26.041)">
            <mask id="p" fill="#fff">
                <use xlink:href="#o"/>
            </mask>
            <path fill="#667C88" d="M-2.07 8.957h23.45V-2.037H-2.07z" mask="url(#p)"/>
        </g>
    </g>
</svg>
