<svg xmlns="http://www.w3.org/2000/svg" width="48" height="48" viewBox="0 0 48 48">
    <g fill="none" fill-rule="evenodd">
        <path d="M0 0h48v48H0z"/>
        <path fill="#DCE2E5" d="M47.574 24c0 13.255-10.65 24-23.787 24C10.65 48 0 37.255 0 24S10.65 0 23.787 0c13.137 0 23.787 10.745 23.787 24" opacity=".25"/>
        <path fill="#6B8592" d="M46.136 24.035L39.375 6.264c-.59-1.548-2.327-2.33-3.862-1.735L5.015 16.341c-1.22.472-1.955 1.675-1.912 2.926a3.661 3.661 0 0 1 2.97-1.532h32.669c2.028 0 3.678 1.665 3.678 3.712v7.257l1.996-.773c1.535-.595 2.309-2.348 1.72-3.896"/>
        <path fill="#F2F5F6" d="M29.577 17.735l12.316-4.77-1.812-4.764-24.617 9.534z"/>
        <path fill="#DCE2E5" d="M39.489 43.498H5.326c-1.233 0-2.242-1.018-2.242-2.262V20.693c0-1.244 1.009-2.262 2.242-2.262h34.163c1.233 0 2.242 1.018 2.242 2.262v20.543c0 1.244-1.01 2.262-2.242 2.262"/>
        <path fill="#6B8592" d="M14.254 30.5H8.017a1.493 1.493 0 0 1-1.482-1.495v-3.74c0-.823.666-1.496 1.482-1.496h6.237c.816 0 1.482.673 1.482 1.496v3.74c0 .822-.666 1.495-1.482 1.495M12.33 38.16H7.18a.65.65 0 0 1-.645-.652v-.554a.65.65 0 0 1 .646-.651h5.15a.65.65 0 0 1 .645.65v.555a.65.65 0 0 1-.646.651M20.841 38.16h-5.15a.65.65 0 0 1-.644-.652v-.554a.65.65 0 0 1 .645-.651h5.15a.65.65 0 0 1 .645.65v.555a.65.65 0 0 1-.646.651M29.353 38.16h-5.15a.65.65 0 0 1-.645-.652v-.554a.65.65 0 0 1 .645-.651h5.15a.65.65 0 0 1 .645.65v.555a.65.65 0 0 1-.645.651M37.864 38.16h-5.15a.65.65 0 0 1-.645-.652v-.554a.65.65 0 0 1 .645-.651h5.15a.65.65 0 0 1 .646.65v.555a.65.65 0 0 1-.646.651"/>
    </g>
</svg>
