<svg xmlns="http://www.w3.org/2000/svg" width="72" height="72" viewBox="0 0 72 72">
    <path fill="#EF473A" fill-rule="evenodd" d="M36 72c19.882 0 36-16.118 36-36S55.882 0 36 0 0 16.118 0 36s16.118 36 36 36zm0-3C17.775 69 3 54.225 3 36S17.775 3 36 3s33 14.775 33 33-14.775 33-33 33zm3.64-33l4.688 4.688c.281.28.422.625.422 1.03 0 .407-.14.766-.422 1.079l-1.031 1.031c-.313.281-.672.422-1.078.422-.407 0-.75-.14-1.032-.422L36.5 39.141l-4.688 4.687c-.28.281-.625.422-1.03.422-.407 0-.766-.14-1.079-.422l-1.031-1.031c-.281-.313-.422-.672-.422-1.078s.14-.75.422-1.031L33.359 36l-4.687-4.687c-.281-.282-.422-.625-.422-1.032 0-.406.14-.765.422-1.078l1.031-1.031c.313-.281.672-.422 1.078-.422s.75.14 1.031.422l4.688 4.687 4.687-4.687c.282-.281.625-.422 1.032-.422.406 0 .765.14 1.078.422l1.031 1.031c.281.313.422.672.422 1.078 0 .407-.14.75-.422 1.032L39.641 36z"/>
</svg>
