<?xml version="1.0" encoding="UTF-8"?>
<svg width="15px" height="16px" viewBox="0 0 15 16" version="1.1" xmlns="http://www.w3.org/2000/svg" xmlns:xlink="http://www.w3.org/1999/xlink">
    <!-- Generator: Sketch 62 (91390) - https://sketch.com -->
    <title></title>
    <desc>Created with Sketch.</desc>
    <g id="Travel-Portal-Login" stroke="none" stroke-width="1" fill="none" fill-rule="evenodd">
        <g id="travelportal-mobile-01d-login-popup" transform="translate(-284.000000, -189.000000)" fill="#6b8592" fill-rule="nonzero">
            <g id="Popup" transform="translate(-1.000000, 0.000000)">
                <g id="Overrides_Nouse-/-Common-/-CTA-Blurb-/-Popup-/-Mobile-OptionsOCBC-" transform="translate(10.000000, 174.000000)">
                    <g id="Controls-/-Buttons-/-Close" transform="translate(275.000000, 15.000000)">
                        <path d="M1.70063376,15.3898659 L7.49998856,9.59097531 L13.2988727,15.3898659 C13.4451279,15.5360753 13.6827982,15.5360753 13.8290076,15.3898659 L14.8898266,14.3290469 C15.0360359,14.1828375 15.0360359,13.9451672 14.8898266,13.7989121 L9.09093597,8.0000279 L14.8898266,2.20113086 C15.0360359,2.05487572 15.0360359,1.81720539 14.8898266,1.67099602 L13.8290076,0.610177016 C13.6827982,0.463967648 13.4451279,0.463967648 13.2988727,0.610177016 L7.49998856,6.40906761 L1.70109153,0.609719253 C1.55483638,0.463464109 1.31716605,0.463464109 1.17095668,0.609719253 L0.109679914,1.67049248 C-0.0365752302,1.81674763 -0.0365752302,2.05441796 0.109679914,2.2006731 L5.90902827,8.0000279 L0.109679914,13.7989121 C-0.0365752302,13.9451672 -0.0365752302,14.1828375 0.109679914,14.3290469 L1.17045314,15.3898659 C1.31670829,15.5360753 1.55437862,15.5360753 1.70063376,15.3898659 Z" id=""></path>
                    </g>
                </g>
            </g>
        </g>
    </g>
</svg>