<?xml version="1.0" encoding="UTF-8"?>
<svg width="30px" height="21px" viewBox="0 0 30 21" version="1.1" xmlns="http://www.w3.org/2000/svg" xmlns:xlink="http://www.w3.org/1999/xlink">
    <!-- Generator: sketchtool 54.1 (76490) - https://sketchapp.com -->
    <title>FAB314E6-FD4E-46EE-8D02-93E1F3E7F83E</title>
    <desc>Created with sketchtool.</desc>
    <g id="Dashboard" stroke="none" stroke-width="1" fill="none" fill-rule="evenodd">
        <g id="01-dashboard---product-detail" transform="translate(-173.000000, -156.000000)" fill="#667C88">
            <g id="card" transform="translate(20.000000, 99.000000)">
                <g id="icon" transform="translate(130.000000, 29.998195)">
                    <path d="M25.3008344,45.4007715 L50.7003464,45.4007715 L50.7003464,36.1997953 L25.3008344,36.1997953 L25.3008344,45.4007715 Z M25.3008344,31.6016689 L50.7003464,31.6016689 L50.7003464,29.300244 L25.3008344,29.300244 L25.3008344,31.6016689 Z M50.7003464,27 L25.3008344,27 C24.0302684,27 23,28.0308589 23,29.2996536 L23,45.4007715 C23,46.6695662 24.0302684,47.6986539 25.3008344,47.6986539 L50.7003464,47.6986539 C51.970322,47.6986539 53,46.6695662 53,45.4007715 L53,29.2996536 C53,28.0308589 51.970322,27 50.7003464,27 L50.7003464,27 Z" id="Fill-1"></path>
                </g>
            </g>
        </g>
    </g>
</svg>