<?xml version="1.0" encoding="UTF-8"?>
<svg width="41px" height="33px" viewBox="0 0 41 33" version="1.1" xmlns="http://www.w3.org/2000/svg" xmlns:xlink="http://www.w3.org/1999/xlink">
    <!-- Generator: sketchtool 54.1 (76490) - https://sketchapp.com -->
    <title>2E4C83DC-D702-4156-B79C-BBE2B9484164</title>
    <desc>Created with sketchtool.</desc>
    <g id="Dashboard" stroke="none" stroke-width="1" fill="none" fill-rule="evenodd">
        <g id="01-dashboard-default" transform="translate(-125.000000, -593.000000)" fill="#525252">
            <g id="quick-actions" transform="translate(0.000000, 578.000000)">
                <g id="icon" transform="translate(125.000000, 15.000000)">
                    <path d="M1.17460317,28.2125587 L35.8253968,28.2125587 L35.8253968,1.17436825 L1.17460317,1.17436825 L1.17460317,28.2125587 Z M36.4126984,29.3871619 L0.587301587,29.3871619 C0.26252381,29.3871619 0,29.1240508 0,28.7998603 L0,0.587066667 C0,0.26287619 0.26252381,-0.000234920635 0.587301587,-0.000234920635 L36.4126984,-0.000234920635 C36.7374762,-0.000234920635 37,0.26287619 37,0.587066667 L37,28.7998603 C37,29.1240508 36.7374762,29.3871619 36.4126984,29.3871619 L36.4126984,29.3871619 Z" id="Fill-1"></path>
                    <path d="M4.43177778,24.1783841 L32.5682222,24.1783841 L32.5682222,11.5032413 L4.43177778,11.5032413 L4.43177778,24.1783841 Z M33.1555238,25.3529873 L3.84447619,25.3529873 C3.51969841,25.3529873 3.2571746,25.0898762 3.2571746,24.7656857 L3.2571746,10.9159397 C3.2571746,10.5917492 3.51969841,10.3286381 3.84447619,10.3286381 L33.1555238,10.3286381 C33.4803016,10.3286381 33.7428254,10.5917492 33.7428254,10.9159397 L33.7428254,24.7656857 C33.7428254,25.0898762 33.4803016,25.3529873 33.1555238,25.3529873 L33.1555238,25.3529873 Z" id="Fill-3"></path>
                    <path d="M13.5738905,25.3529286 C13.2491127,25.3529286 12.9865889,25.0898175 12.9865889,24.765627 L12.9865889,10.915881 C12.9865889,10.5916905 13.2491127,10.3285794 13.5738905,10.3285794 C13.8986683,10.3285794 14.1611921,10.5916905 14.1611921,10.915881 L14.1611921,24.765627 C14.1611921,25.0898175 13.8986683,25.3529286 13.5738905,25.3529286" id="Fill-4"></path>
                    <path d="M23.4261095,25.3529286 C23.1013317,25.3529286 22.8388079,25.0898175 22.8388079,24.765627 L22.8388079,10.915881 C22.8388079,10.5916905 23.1013317,10.3285794 23.4261095,10.3285794 C23.7508873,10.3285794 24.0134111,10.5916905 24.0134111,10.915881 L24.0134111,24.765627 C24.0134111,25.0898175 23.7508873,25.3529286 23.4261095,25.3529286" id="Fill-5"></path>
                    <path d="M33.1555825,5.20913016 L3.84453492,5.20913016 C3.51975714,5.20913016 3.25723333,4.94601905 3.25723333,4.62182857 C3.25723333,4.2976381 3.51975714,4.03452698 3.84453492,4.03452698 L33.1555825,4.03452698 C33.4803603,4.03452698 33.7428841,4.2976381 33.7428841,4.62182857 C33.7428841,4.94601905 33.4803603,5.20913016 33.1555825,5.20913016" id="Fill-6"></path>
                    <path d="M33.1555825,7.44821746 L3.84453492,7.44821746 C3.51975714,7.44821746 3.25723333,7.18510635 3.25723333,6.86091587 C3.25723333,6.5367254 3.51975714,6.27361429 3.84453492,6.27361429 L33.1555825,6.27361429 C33.4803603,6.27361429 33.7428841,6.5367254 33.7428841,6.86091587 C33.7428841,7.18510635 33.4803603,7.44821746 33.1555825,7.44821746" id="Fill-7"></path>
                    <path d="M33.1555825,18.4279968 L3.84453492,18.4279968 C3.51975714,18.4279968 3.25723333,18.1648857 3.25723333,17.8406952 C3.25723333,17.5165048 3.51975714,17.2533937 3.84453492,17.2533937 L33.1555825,17.2533937 C33.4803603,17.2533937 33.7428841,17.5165048 33.7428841,17.8406952 C33.7428841,18.1648857 33.4803603,18.4279968 33.1555825,18.4279968" id="Fill-8"></path>
                </g>
            </g>
        </g>
    </g>
</svg>