<?xml version="1.0" encoding="UTF-8"?>
<svg width="22px" height="33px" viewBox="0 0 22 33" version="1.1" xmlns="http://www.w3.org/2000/svg" xmlns:xlink="http://www.w3.org/1999/xlink">
    <!-- Generator: sketchtool 54.1 (76490) - https://sketchapp.com -->
    <title>A9587472-372B-4F7E-9A77-86CCDBCC521A</title>
    <desc>Created with sketchtool.</desc>
    <defs>
        <path d="M2.61642857,0.764238095 L2.61642857,1.71495238 L2.41161905,1.71495238 C1.30271429,1.71495238 0.400190476,2.57871429 0.400190476,3.63995238 L0.400190476,3.63995238 C0.400190476,4.70066667 1.30271429,5.56442857 2.41161905,5.56442857 L2.41161905,5.56442857 L3.72166667,5.56442857 C4.33452381,5.56442857 4.83266667,6.04057143 4.83266667,6.6272381 L4.83266667,6.6272381 C4.83266667,7.21338095 4.33452381,7.69057143 3.72166667,7.69057143 L3.72166667,7.69057143 L2.41161905,7.69057143 C1.7987619,7.69057143 1.30061905,7.21338095 1.30061905,6.6272381 L1.30061905,6.6272381 C1.30061905,6.38995238 1.09947619,6.19614286 0.850666667,6.19614286 L0.850666667,6.19614286 C0.601333333,6.19614286 0.400190476,6.38995238 0.400190476,6.6272381 L0.400190476,6.6272381 C0.400190476,7.68847619 1.30271429,8.55171429 2.41161905,8.55171429 L2.41161905,8.55171429 L2.61642857,8.55171429 L2.61642857,9.50242857 C2.61642857,9.7402381 2.81809524,9.93352381 3.06690476,9.93352381 L3.06690476,9.93352381 C3.31466667,9.93352381 3.51685714,9.7402381 3.51685714,9.50242857 L3.51685714,9.50242857 L3.51685714,8.55171429 L3.72166667,8.55171429 C4.83109524,8.55171429 5.73361905,7.68847619 5.73361905,6.6272381 L5.73361905,6.6272381 C5.73361905,5.566 4.83109524,4.7027619 3.72166667,4.7027619 L3.72166667,4.7027619 L2.41161905,4.7027619 C1.7987619,4.7027619 1.30061905,4.22557143 1.30061905,3.63995238 L1.30061905,3.63995238 C1.30061905,3.05380952 1.7987619,2.57661905 2.41161905,2.57661905 L2.41161905,2.57661905 L3.72166667,2.57661905 C4.33452381,2.57661905 4.83266667,3.05380952 4.83266667,3.63995238 L4.83266667,3.63995238 C4.83266667,3.8772381 5.03380952,4.07 5.28261905,4.07 L5.28261905,4.07 C5.53142857,4.07 5.73361905,3.8772381 5.73361905,3.63995238 L5.73361905,3.63995238 C5.73361905,2.57871429 4.83109524,1.71495238 3.72166667,1.71495238 L3.72166667,1.71495238 L3.51685714,1.71495238 L3.51685714,0.764238095 C3.51685714,0.526952381 3.31466667,0.333142857 3.06690476,0.333142857 L3.06690476,0.333142857 C2.81809524,0.333142857 2.61642857,0.526952381 2.61642857,0.764238095 L2.61642857,0.764238095 Z" id="path-1"></path>
    </defs>
    <g id="Dashboard" stroke="none" stroke-width="1" fill="none" fill-rule="evenodd">
        <g id="01-dashboard-default" transform="translate(-42.000000, -593.000000)">
            <g id="quick-actions" transform="translate(0.000000, 578.000000)">
                <g id="icon" transform="translate(42.000000, 15.000000)">
                    <g id="Group-15">
                        <g id="Group-3" transform="translate(12.571429, 3.273810)">
                            <mask id="mask-2" fill="white">
                                <use xlink:href="#path-1"></use>
                            </mask>
                            <g id="Clip-2"></g>
                            <polygon id="Fill-1" fill="#495A63" mask="url(#mask-2)" points="-4.9332381 15.2669524 11.0665238 15.2669524 11.0665238 -4.9997619 -4.9332381 -4.9997619"></polygon>
                        </g>
                        <g id="Group-14" transform="translate(0.000000, 0.130952)" fill="#525252">
                            <path d="M18.3047857,16.0250619 L3.4102619,16.0250619 C3.12111905,16.0250619 2.88645238,15.7903952 2.88645238,15.5012524 C2.88645238,15.2121095 3.12111905,14.9774429 3.4102619,14.9774429 L18.3047857,14.9774429 C18.5944524,14.9774429 18.8285952,15.2121095 18.8285952,15.5012524 C18.8285952,15.7903952 18.5944524,16.0250619 18.3047857,16.0250619" id="Fill-4"></path>
                            <path d="M18.3047857,18.7832333 L3.4102619,18.7832333 C3.12111905,18.7832333 2.88645238,18.5485667 2.88645238,18.2594238 C2.88645238,17.970281 3.12111905,17.7356143 3.4102619,17.7356143 L18.3047857,17.7356143 C18.5944524,17.7356143 18.8285952,17.970281 18.8285952,18.2594238 C18.8285952,18.5485667 18.5944524,18.7832333 18.3047857,18.7832333" id="Fill-6"></path>
                            <path d="M18.3047857,21.5414048 L3.4102619,21.5414048 C3.12111905,21.5414048 2.88645238,21.3067381 2.88645238,21.0175952 C2.88645238,20.7284524 3.12111905,20.4937857 3.4102619,20.4937857 L18.3047857,20.4937857 C18.5944524,20.4937857 18.8285952,20.7284524 18.8285952,21.0175952 C18.8285952,21.3067381 18.5944524,21.5414048 18.3047857,21.5414048" id="Fill-8"></path>
                            <path d="M13.2150333,31.791519 L0.643080952,31.791519 C0.353414286,31.791519 0.119271429,31.5568524 0.119271429,31.2677095 L0.119271429,0.886757143 C0.119271429,0.597614286 0.353414286,0.362947619 0.643080952,0.362947619 L21.0716524,0.362947619 C21.361319,0.362947619 21.5954619,0.597614286 21.5954619,0.886757143 L21.5954619,24.218281 C21.5954619,24.5074238 21.361319,24.7420905 21.0716524,24.7420905 C20.7819857,24.7420905 20.5478429,24.5074238 20.5478429,24.218281 L20.5478429,1.41056667 L1.16689048,1.41056667 L1.16689048,30.7439 L13.2150333,30.7439 C13.5047,30.7439 13.7388429,30.9785667 13.7388429,31.2677095 C13.7388429,31.5568524 13.5047,31.791519 13.2150333,31.791519" id="Fill-10"></path>
                            <path d="M13.738319,24.7418286 L13.738319,30.0941143 L19.7034619,24.7418286 L13.738319,24.7418286 Z M13.2145095,31.7912571 C13.1422238,31.7912571 13.0699381,31.7765905 13.001319,31.7462095 C12.8122238,31.6618762 12.6907,31.4743524 12.6907,31.2674476 L12.6907,24.218019 C12.6907,23.9288762 12.9248429,23.6942095 13.2145095,23.6942095 L21.0716524,23.6942095 C21.2885095,23.6942095 21.4833667,23.827781 21.5608905,24.031019 C21.6384143,24.2332095 21.5834143,24.4631619 21.4215571,24.6077333 L13.5644143,31.6576857 C13.4659381,31.7456857 13.3412714,31.7912571 13.2145095,31.7912571 L13.2145095,31.7912571 Z" id="Fill-12"></path>
                        </g>
                    </g>
                </g>
            </g>
        </g>
    </g>
</svg>