<?xml version="1.0" encoding="UTF-8"?>
<svg width="45px" height="45px" viewBox="0 0 45 45" version="1.1" xmlns="http://www.w3.org/2000/svg" xmlns:xlink="http://www.w3.org/1999/xlink">
    <!-- Generator: sketchtool 54.1 (76490) - https://sketchapp.com -->
    <title>89CF1D70-9806-4C89-9196-07C8AE484623</title>
    <desc>Created with sketchtool.</desc>
    <defs>
        <polygon id="path-1" points="0 0.0800488287 27.2411889 0.0800488287 27.2411889 15.2913129 0 15.2913129"></polygon>
        <polygon id="path-3" points="0.00313565001 0.0817595598 35.4499121 0.0817595598 35.4499121 35.843272 0.00313565001 35.843272"></polygon>
        <polygon id="path-5" points="0.0277515216 0.00195600949 35.4499121 0.00195600949 35.4499121 35.7613733 0.0277515216 35.7613733"></polygon>
    </defs>
    <g id="Dashboard-New" stroke="none" stroke-width="1" fill="none" fill-rule="evenodd">
        <g id="00-notes" transform="translate(-506.000000, -511.000000)">
            <g id="design" transform="translate(255.000000, -586.000000)">
                <g id="actions" transform="translate(221.000000, 1027.000000)">
                    <g id="action1" transform="translate(0.000000, 55.000000)">
                        <g id="content" transform="translate(5.000000, 15.000000)">
                            <g id="icon" transform="translate(25.000000, 0.000000)">
                                <circle id="Oval" fill="#BAF4F2" opacity="0.25" cx="22.0982143" cy="22.0982143" r="22.0982143"></circle>
                                <g id="Group-28" transform="translate(1.064974, 2.129948)">
                                    <path d="M8.23379776,31.5748709 L2.06056467,26.676172 C1.72334434,26.4202539 1.61293855,25.9684894 1.81533565,25.6727964 C2.80476946,24.2271499 4.71079037,23.7334007 6.58355163,24.437646 L12.1666289,27.6328161 L8.23379776,31.5748709 Z" id="Fill-1" fill="#79E0D6"></path>
                                    <path d="M10.305476,33.6649448 L15.1737954,39.9058427 C15.427461,40.2460574 15.8752494,40.3574435 16.1683399,40.1532492 L16.5363862,39.8968401 C17.7484163,39.0525642 18.162296,37.4260482 17.5718968,35.8279312 L14.2255711,29.7099591 L10.305476,33.6649448 Z" id="Fill-3" fill="#79E0D6"></path>
                                    <polygon id="Fill-5" fill="#319988" opacity="0.3" points="8.59396725 25.5880987 5.10121801 29.0890284 8.23378965 31.5748791 12.1667019 27.6327425"></polygon>
                                    <path d="M9.9062873,12.3891349 L9.9062873,12.3891349 C9.13101314,11.6069767 9.0696856,10.3606958 9.76229738,9.50324345 C10.752948,8.27676822 11.9941005,6.91108075 12.7386298,6.15994037 C13.7571861,5.13233974 13.8461759,5.25510184 14.9344152,4.58212 C15.0946294,4.48301006 15.301407,4.50690775 15.4342833,4.64096397 L17.5863445,6.8121345 C17.7192208,6.94619072 17.742827,7.15480445 17.6446705,7.31644121 C16.9776119,8.41434361 17.0992935,8.50404179 16.0807372,9.53164242 C15.3362079,10.2827828 13.9825405,11.5349562 12.76686,12.5344034 C11.9168733,13.2330835 10.6814803,13.1712932 9.9062873,12.3891349" id="Fill-7" fill="#319988"></path>
                                    <path d="M29.3351024,31.9904697 L29.3351024,31.9904697 C28.5598282,31.2083114 28.4985007,29.9620306 29.1911125,29.1045782 C30.1817631,27.878103 31.4229156,26.5124155 32.1674449,25.7612751 C33.1860012,24.7336745 33.2749099,24.8564366 34.3632303,24.1834548 C34.5234445,24.0843448 34.7302221,24.1082425 34.8630984,24.2422987 L37.0151596,26.4134693 C37.1480359,26.5475255 37.1716421,26.7561392 37.0734856,26.917776 C36.406427,28.0156784 36.5281086,28.1053766 35.5095523,29.133059 C34.765023,29.8841994 33.4113556,31.1363728 32.1956751,32.13582 C31.3456884,32.8345001 30.1103766,32.772628 29.3351024,31.9904697" id="Fill-9" fill="#319988"></path>
                                    <g id="Group-13" transform="translate(0.000000, 4.501359)">
                                        <mask id="mask-2" fill="white">
                                            <use xlink:href="#path-1"></use>
                                        </mask>
                                        <g id="Clip-12"></g>
                                        <path d="M19.624974,15.2913129 L27.2411889,7.60746924 L3.64777162,0.128801997 C3.16193747,0.00366649477 2.67894256,0.122827575 2.35754084,0.447083206 L0.364233651,2.45809012 C-0.303311719,3.13156301 -0.0167920636,4.36614054 0.925591526,4.8766672 L19.624974,15.2913129 Z" id="Fill-11" fill="#79E0D6" mask="url(#mask-2)"></path>
                                    </g>
                                    <polygon id="Fill-14" fill="#319988" opacity="0.3" points="21.9102684 10.4190324 15.1110239 17.2786512 19.6250064 19.7926554 27.2412213 12.1088118"></polygon>
                                    <path d="M21.9967354,22.1854525 L29.6129502,14.5016088 L37.0257945,38.3045256 C37.1498287,38.7946738 37.0317164,39.2819575 36.7103147,39.6062131 L34.7170075,41.61722 C34.0494621,42.2906929 32.8257506,42.0016291 32.3197173,41.0508775 L21.9967354,22.1854525 Z" id="Fill-16" fill="#79E0D6"></path>
                                    <g id="Group-20" transform="translate(6.084081, 0.000082)">
                                        <mask id="mask-4" fill="white">
                                            <use xlink:href="#path-3"></use>
                                        </mask>
                                        <g id="Clip-19"></g>
                                        <path d="M30.288194,11.2713287 L17.4931282,24.1799274 C15.3461777,26.3459419 13.0636739,28.3662788 10.6740091,30.2157307 L4.58635874,34.9271765 C3.17704221,36.0179587 1.50091845,36.1498871 0.600068855,35.2410383 C-0.300780742,34.3321895 -0.17001356,32.6411825 0.911168198,31.2193518 L5.58114655,25.0776457 C7.41432072,22.6667617 9.41679459,20.3640721 11.5638262,18.1979757 L24.358892,5.28937702 C26.1080247,3.52471273 28.1169071,2.05443196 30.2391157,1.04500012 C32.0666925,0.175762593 34.0092991,-0.36881009 34.9528995,0.583169088 C35.8964999,1.53514827 35.3567202,3.4950043 34.4951332,5.33880923 C33.4946669,7.48002581 32.0373267,9.50666442 30.288194,11.2713287" id="Fill-18" fill="#BAF4F2" mask="url(#mask-4)"></path>
                                    </g>
                                    <g id="Group-23" transform="translate(6.084081, 0.081923)">
                                        <mask id="mask-6" fill="white">
                                            <use xlink:href="#path-5"></use>
                                        </mask>
                                        <g id="Clip-22"></g>
                                        <path d="M34.9528913,0.501434081 C34.6207816,0.166375384 34.1645567,0.0172603515 33.633457,0.00195600949 C33.671665,0.993382743 33.245536,2.25079403 32.6811766,3.45844575 C31.6807103,5.59949864 30.2233701,7.6262191 28.4741563,9.39088339 L15.6791716,22.2994821 C13.5322211,24.4654966 11.2497173,26.4858334 8.8600525,28.3352036 L2.77240215,33.0466494 C1.87601422,33.7404189 0.871897483,34.0456055 0.0277515216,33.9424853 C0.0911882064,34.4151194 0.280281445,34.8365208 0.600060743,35.1591396 C1.50091034,36.0679884 3.1770341,35.93606 4.58635063,34.8452778 L10.674001,30.133832 C13.0636658,28.2843801 15.3460885,26.2641251 17.4931201,24.0980287 L30.2881859,11.1895119 C32.0373186,9.42484758 33.4946588,7.39812712 34.4952062,5.25707422 C35.3567121,3.41326929 35.8964918,1.45341326 34.9528913,0.501434081" id="Fill-21" fill="#79E0D6" opacity="0.3" mask="url(#mask-6)"></path>
                                    </g>
                                    <path d="M37.4324383,8.79930919 L36.9955201,9.24010698 C36.5897525,9.64947767 32.0507036,5.07012391 32.4564712,4.66075322 L32.8933894,4.21995543 C33.1687954,3.94210388 33.5730218,3.85453358 33.9022111,4.00143889 C35.5423982,4.73342838 36.9234846,6.12686008 37.6491127,7.78161137 C37.7945628,8.11364194 37.7078444,8.52145764 37.4324383,8.79930919" id="Fill-24" fill="#319988"></path>
                                    <path d="M8.06660722,34.4603041 C7.91093586,34.4603041 7.75518339,34.4003962 7.63642213,34.2804985 C7.39881848,34.040785 7.39881848,33.6521202 7.63642213,33.4124886 L12.9495284,28.0522042 C13.187132,27.8124907 13.5723761,27.8124907 13.8098986,28.0522042 C14.0475022,28.2919177 14.0475022,28.6805825 13.8098986,28.9202141 L8.49679231,34.2804985 C8.37803104,34.4003143 8.22235969,34.4603041 8.06660722,34.4603041" id="Fill-26" fill="#319988"></path>
                                </g>
                            </g>
                        </g>
                    </g>
                </g>
            </g>
        </g>
    </g>
</svg>