<?xml version="1.0" encoding="UTF-8"?>
<svg width="46px" height="33px" viewBox="0 0 46 33" version="1.1" xmlns="http://www.w3.org/2000/svg" xmlns:xlink="http://www.w3.org/1999/xlink">
    <!-- Generator: sketchtool 54.1 (76490) - https://sketchapp.com -->
    <title>F2567E87-0245-4EB8-8FEF-4E1D1C070BAD</title>
    <desc>Created with sketchtool.</desc>
    <defs>
        <path d="M2.60814458,0.723253012 L2.60814458,1.8333494 L2.36927711,1.8333494 C1.07351807,1.8333494 0.0199518072,2.84146988 0.0199518072,4.08180723 L0.0199518072,4.08180723 C0.0199518072,5.31992771 1.07351807,6.32804819 2.36927711,6.32804819 L2.36927711,6.32804819 L3.89836145,6.32804819 C4.61440964,6.32804819 5.19578313,6.88559036 5.19578313,7.57004819 L5.19578313,7.57004819 C5.19578313,8.25395181 4.61440964,8.81093976 3.89836145,8.81093976 L3.89836145,8.81093976 L2.36927711,8.81093976 C1.65322892,8.81093976 1.07240964,8.25395181 1.07240964,7.57004819 L1.07240964,7.57004819 C1.07240964,7.29293976 0.83686747,7.06626506 0.545903614,7.06626506 L0.545903614,7.06626506 C0.256048193,7.06626506 0.0199518072,7.29293976 0.0199518072,7.57004819 L0.0199518072,7.57004819 C0.0199518072,8.80872289 1.07351807,9.81684337 2.36927711,9.81684337 L2.36927711,9.81684337 L2.60814458,9.81684337 L2.60814458,10.9269398 C2.60814458,11.2051566 2.84368675,11.4301687 3.13409639,11.4301687 L3.13409639,11.4301687 C3.42339759,11.4301687 3.66004819,11.2051566 3.66004819,10.9269398 L3.66004819,10.9269398 L3.66004819,9.81684337 L3.89836145,9.81684337 C5.19412048,9.81684337 6.24768675,8.80872289 6.24768675,7.57004819 L6.24768675,7.57004819 C6.24768675,6.33081928 5.19412048,5.3226988 3.89836145,5.3226988 L3.89836145,5.3226988 L2.36927711,5.3226988 C1.65322892,5.3226988 1.07240964,4.76571084 1.07240964,4.08180723 L1.07240964,4.08180723 C1.07240964,3.39679518 1.65322892,2.83980723 2.36927711,2.83980723 L2.36927711,2.83980723 L3.89836145,2.83980723 C4.61440964,2.83980723 5.19578313,3.39679518 5.19578313,4.08180723 L5.19578313,4.08180723 C5.19578313,4.35836145 5.43187952,4.58392771 5.72173494,4.58392771 L5.72173494,4.58392771 C6.01214458,4.58392771 6.24768675,4.35836145 6.24768675,4.08180723 L6.24768675,4.08180723 C6.24768675,2.84146988 5.19412048,1.8333494 3.89836145,1.8333494 L3.89836145,1.8333494 L3.66004819,1.8333494 L3.66004819,0.723253012 C3.66004819,0.446144578 3.42339759,0.220024096 3.13409639,0.220024096 L3.13409639,0.220024096 C2.84368675,0.220024096 2.60814458,0.446144578 2.60814458,0.723253012 L2.60814458,0.723253012 Z" id="path-1"></path>
    </defs>
    <g id="Dashboard" stroke="none" stroke-width="1" fill="none" fill-rule="evenodd">
        <g id="01-dashboard-default" transform="translate(-210.000000, -593.000000)">
            <g id="quick-actions" transform="translate(0.000000, 578.000000)">
                <g id="icon" transform="translate(210.000000, 15.000000)">
                    <g id="Group-21" transform="translate(8.867470, 0.049880)" fill="#525252">
                        <path d="M0.821515663,22.1159687 C0.515033735,22.1159687 0.267298795,21.8676795 0.267298795,21.5617518 L0.267298795,18.4315349 C0.267298795,18.125053 0.515033735,17.8773181 0.821515663,17.8773181 C1.12799759,17.8773181 1.37573253,18.125053 1.37573253,18.4315349 L1.37573253,21.5617518 C1.37573253,21.8676795 1.12799759,22.1159687 0.821515663,22.1159687" id="Fill-1"></path>
                        <path d="M0.821515663,14.3845325 C0.515033735,14.3845325 0.267298795,14.1362434 0.267298795,13.8303157 L0.267298795,4.44299036 C0.267298795,4.13650843 0.515033735,3.88877349 0.821515663,3.88877349 C1.12799759,3.88877349 1.37573253,4.13650843 1.37573253,4.44299036 L1.37573253,13.8303157 C1.37573253,14.1362434 1.12799759,14.3845325 0.821515663,14.3845325" id="Fill-3"></path>
                        <path d="M23.222906,8.25949398 L5.17150843,8.25949398 C4.86502651,8.25949398 4.61729157,8.01120482 4.61729157,7.70527711 C4.61729157,7.3993494 4.86502651,7.15106024 5.17150843,7.15106024 L23.222906,7.15106024 C23.529388,7.15106024 23.7771229,7.3993494 23.7771229,7.70527711 C23.7771229,8.01120482 23.529388,8.25949398 23.222906,8.25949398" id="Fill-5"></path>
                        <path d="M4.6171253,1.40294458 C2.78599277,1.6074506 1.37551084,2.81176386 1.37551084,4.26159518 C1.37551084,5.71198072 2.78599277,6.91573976 4.6171253,7.12024578 L4.6171253,1.40294458 Z M5.17134217,8.25971566 C2.46731807,8.25971566 0.267077108,6.46626988 0.267077108,4.26159518 C0.267077108,2.0574747 2.46731807,0.263474699 5.17134217,0.263474699 C5.4778241,0.263474699 5.72555904,0.511763855 5.72555904,0.817691566 L5.72555904,7.7054988 C5.72555904,8.01142651 5.4778241,8.25971566 5.17134217,8.25971566 L5.17134217,8.25971566 Z" id="Fill-7"></path>
                        <path d="M27.6149639,11.7032867 C27.3084819,11.7032867 27.060747,11.4549976 27.060747,11.1490699 C27.060747,9.55569639 25.3581928,8.25938313 23.2649157,8.25938313 C22.958988,8.25938313 22.7106988,8.01109398 22.7106988,7.70516627 C22.7106988,7.39923855 22.958988,7.1509494 23.2649157,7.1509494 C25.9689398,7.1509494 28.1691807,8.94439518 28.1691807,11.1490699 C28.1691807,11.4549976 27.9214458,11.7032867 27.6149639,11.7032867" id="Fill-9"></path>
                        <path d="M23.0924988,25.5598169 L5.17134217,25.5598169 C4.86486024,25.5598169 4.6171253,25.3115277 4.6171253,25.0056 C4.6171253,24.6996723 4.86486024,24.4513831 5.17134217,24.4513831 L23.0924988,24.4513831 C23.3989807,24.4513831 23.6467157,24.6996723 23.6467157,25.0056 C23.6467157,25.3115277 23.3989807,25.5598169 23.0924988,25.5598169" id="Fill-11"></path>
                        <path d="M23.8193542,25.5904096 L23.8193542,31.3077108 C25.6504867,31.1032048 27.0609687,29.8994458 27.0609687,28.4490602 C27.0609687,26.9992289 25.6504867,25.7949157 23.8193542,25.5904096 M23.2651373,32.4471807 C22.9586554,32.4471807 22.7109205,32.1988916 22.7109205,31.8929639 L22.7109205,25.0051566 C22.7109205,24.6992289 22.9586554,24.4509398 23.2651373,24.4509398 C25.9691614,24.4509398 28.1694024,26.2449398 28.1694024,28.4490602 C28.1694024,30.6537349 25.9691614,32.4471807 23.2651373,32.4471807" id="Fill-13"></path>
                        <path d="M5.17134217,25.5598169 C2.46731807,25.5598169 0.267077108,23.7663711 0.267077108,21.5616964 C0.267077108,21.2557687 0.515366265,21.0074795 0.821293976,21.0074795 C1.1277759,21.0074795 1.37551084,21.2557687 1.37551084,21.5616964 C1.37551084,23.1550699 3.07861928,24.4513831 5.17134217,24.4513831 C5.4778241,24.4513831 5.72555904,24.6996723 5.72555904,25.0056 C5.72555904,25.3115277 5.4778241,25.5598169 5.17134217,25.5598169" id="Fill-15"></path>
                        <path d="M27.6139108,14.3845325 L27.6139108,14.3845325 C27.3074289,14.3845325 27.059694,14.1362434 27.059694,13.8303157 L27.0608024,11.3302434 C27.0608024,11.0243157 27.3090916,10.7760265 27.6150193,10.7760265 C27.9215012,10.7760265 28.1692361,11.0248699 28.1692361,11.3307976 L28.1681277,13.8303157 C28.1681277,14.1367976 27.9198386,14.3845325 27.6139108,14.3845325" id="Fill-17"></path>
                        <path d="M27.6068723,28.2781398 L27.6063181,28.2781398 C27.3003904,28.2781398 27.0526554,28.0298506 27.0526554,27.7239229 L27.0576434,18.4308145 C27.0576434,18.1248867 27.3059325,17.8771518 27.6118602,17.8771518 L27.6124145,17.8771518 C27.9183422,17.8771518 28.1660771,18.125441 28.1660771,18.4313687 L28.1610892,27.7239229 C28.1610892,28.0304048 27.9128,28.2781398 27.6068723,28.2781398" id="Fill-19"></path>
                    </g>
                    <g id="Group-24" transform="translate(19.951807, 10.580000)">
                        <mask id="mask-2" fill="white">
                            <use xlink:href="#path-1"></use>
                        </mask>
                        <g id="Clip-23"></g>
                        <polygon id="Fill-22" fill="#495A63" mask="url(#mask-2)" points="-6.20778313 17.6584578 12.4759759 17.6584578 12.4759759 -6.00771084 -6.20778313 -6.00771084"></polygon>
                    </g>
                    <g id="Group-33" transform="translate(0.000000, 10.580000)" fill="#525252">
                        <path d="M14.7819614,8.45540964 L5.78591325,8.45540964 C5.47943133,8.45540964 5.23169639,8.20712048 5.23169639,7.90119277 C5.23169639,7.59526506 5.47943133,7.3469759 5.78591325,7.3469759 L14.2277446,7.3469759 L14.2277446,4.30321687 L5.78591325,4.30321687 C5.47943133,4.30321687 5.23169639,4.05548193 5.23169639,3.749 C5.23169639,3.44307229 5.47943133,3.19478313 5.78591325,3.19478313 L14.7819614,3.19478313 C15.0884434,3.19478313 15.3361783,3.44307229 15.3361783,3.749 L15.3361783,7.90119277 C15.3361783,8.20712048 15.0884434,8.45540964 14.7819614,8.45540964" id="Fill-25"></path>
                        <path d="M5.78563614,11.2235012 C5.64153976,11.2235012 5.49966024,11.1669711 5.39380482,11.0611157 L0.549949398,6.21726024 C0.333250602,6.00056145 0.333250602,5.64974217 0.549949398,5.43359759 L5.39380482,0.589742169 C5.55231084,0.430681928 5.7906241,0.383573494 5.9979012,0.469477108 C6.20517831,0.554826506 6.33985301,0.757115663 6.33985301,0.981573494 L6.33985301,3.74933253 C6.33985301,4.05526024 6.09211807,4.3035494 5.78563614,4.3035494 C5.47915422,4.3035494 5.23141928,4.05526024 5.23141928,3.74933253 L5.23141928,2.31945301 L1.72544337,5.82542892 L5.23141928,9.33140482 L5.23141928,7.90097108 C5.23141928,7.59504337 5.47915422,7.34675422 5.78563614,7.34675422 C6.09211807,7.34675422 6.33985301,7.59504337 6.33985301,7.90097108 L6.33985301,10.6692843 C6.33985301,10.893188 6.20517831,11.0954771 5.9979012,11.1813807 C5.92917831,11.2096458 5.85713012,11.2235012 5.78563614,11.2235012" id="Fill-27"></path>
                        <path d="M40.3857831,8.45540964 L31.3902892,8.45540964 C31.0838072,8.45540964 30.8360723,8.20712048 30.8360723,7.90119277 L30.8360723,3.749 C30.8360723,3.44307229 31.0838072,3.19478313 31.3902892,3.19478313 L40.3857831,3.19478313 C40.6922651,3.19478313 40.94,3.44307229 40.94,3.749 C40.94,4.05548193 40.6922651,4.30321687 40.3857831,4.30321687 L31.944506,4.30321687 L31.944506,7.3469759 L40.3857831,7.3469759 C40.6922651,7.3469759 40.94,7.59526506 40.94,7.90119277 C40.94,8.20712048 40.6922651,8.45540964 40.3857831,8.45540964" id="Fill-29"></path>
                        <path d="M40.3857831,11.2235012 C40.3142892,11.2235012 40.242241,11.2096458 40.1735181,11.1813807 C39.966241,11.0954771 39.8315663,10.893188 39.8315663,10.6692843 L39.8315663,7.90097108 C39.8315663,7.59504337 40.0793012,7.34675422 40.3857831,7.34675422 C40.6922651,7.34675422 40.94,7.59504337 40.94,7.90097108 L40.94,9.33140482 L44.4459759,5.82542892 L40.94,2.31945301 L40.94,3.74933253 C40.94,4.05526024 40.6922651,4.3035494 40.3857831,4.3035494 C40.0793012,4.3035494 39.8315663,4.05526024 39.8315663,3.74933253 L39.8315663,0.981573494 C39.8315663,0.757115663 39.966241,0.554826506 40.1735181,0.469477108 C40.3807952,0.384127711 40.6191084,0.430681928 40.7776145,0.589742169 L45.6214699,5.43359759 C45.8381687,5.64974217 45.8381687,6.00056145 45.6214699,6.21726024 L40.7776145,11.0611157 C40.671759,11.1669711 40.5298795,11.2235012 40.3857831,11.2235012" id="Fill-31"></path>
                    </g>
                </g>
            </g>
        </g>
    </g>
</svg>