<?xml version="1.0" encoding="UTF-8"?>
<svg width="35px" height="33px" viewBox="0 0 35 33" version="1.1" xmlns="http://www.w3.org/2000/svg" xmlns:xlink="http://www.w3.org/1999/xlink">
    <!-- Generator: sketchtool 54.1 (76490) - https://sketchapp.com -->
    <title>16BCD457-3031-4E09-B17D-65AA4A290E0C</title>
    <desc>Created with sketchtool.</desc>
    <defs>
        <polygon id="path-1" points="0.273076949 0.244180015 8.38871186 0.244180015 8.38871186 7.66008305 0.273076949 7.66008305"></polygon>
    </defs>
    <g id="Dashboard" stroke="none" stroke-width="1" fill="none" fill-rule="evenodd">
        <g id="01-dashboard-default" transform="translate(-306.000000, -593.000000)">
            <g id="quick-actions" transform="translate(0.000000, 578.000000)">
                <g id="icon" transform="translate(306.000000, 15.000000)">
                    <path d="M16.3657627,32.8035102 C13.0601695,32.8035102 9.83623729,31.8023237 7.06144068,29.8799339 C3.46108475,27.3853576 1.04705085,23.6379 0.265118644,19.3283237 C-1.34908475,10.4311881 4.57637288,1.87915424 13.4729492,0.264950847 C22.374,-1.34925254 30.9215593,4.57620508 32.536322,13.4727814 C33.1370339,16.7862051 32.7175424,20.1516458 31.3225932,23.2044254 C31.1945085,23.4852051 30.8617119,23.6099339 30.5820508,23.4812898 C30.3007119,23.3526458 30.1771017,23.0209678 30.3057458,22.7396288 C31.6044915,19.8954763 31.9954576,16.7599169 31.4350169,13.6724593 C29.931,5.38274746 21.9651356,-0.138320339 13.6731864,1.36569661 C5.38235593,2.86971356 -0.138152542,10.8383746 1.36642373,19.1280864 C2.09410169,23.1440186 4.34369492,26.6358661 7.69850847,28.9604085 C11.0538814,31.2849508 15.1134407,32.1636458 19.1282542,31.4348492 C21.9863898,30.9163576 24.6202373,29.6075441 26.745661,27.6487983 C26.9733051,27.4396119 27.3267966,27.4541542 27.5359831,27.6806797 C27.7451695,27.9083237 27.7306271,28.2618153 27.5035424,28.4710017 C25.2215085,30.5740525 22.3946949,31.9790695 19.3284915,32.5355949 C18.3401695,32.7151373 17.3490508,32.8035102 16.3657627,32.8035102" id="Fill-1" fill="#525252"></path>
                    <g id="Group-5" transform="translate(26.288136, 22.176392)">
                        <mask id="mask-2" fill="white">
                            <use xlink:href="#path-1"></use>
                        </mask>
                        <g id="Clip-4"></g>
                        <path d="M7.82955763,7.66008305 C7.79767627,7.66008305 7.76579492,7.65728644 7.73335424,7.65169322 L0.736235593,6.42957458 C0.431964407,6.37699831 0.228371186,6.08671017 0.28150678,5.78299831 C0.334642373,5.47872712 0.624930508,5.27233729 0.928642373,5.32826949 L6.80935424,6.35518475 L4.04686271,1.06287966 C3.90423559,0.788811864 4.01050678,0.450981356 4.28401525,0.307794915 C4.55752373,0.164608475 4.89591356,0.271438983 5.0391,0.544947458 L8.32567627,6.84179492 C8.42355763,7.03084576 8.40677797,7.25904915 8.28148983,7.43076102 C8.17465932,7.57674407 8.00574407,7.66008305 7.82955763,7.66008305" id="Fill-3" fill="#525252" mask="url(#mask-2)"></path>
                    </g>
                    <path d="M19.8129203,16.9103746 C19.5036153,16.9103746 19.2535983,16.6597983 19.2535983,16.3510525 L19.2535983,9.42105254 C19.2535983,9.11230678 19.5036153,8.86173051 19.8129203,8.86173051 C20.1222254,8.86173051 20.3722424,9.11230678 20.3722424,9.42105254 L20.3722424,16.3510525 C20.3722424,16.6597983 20.1222254,16.9103746 19.8129203,16.9103746" id="Fill-6" fill="#525252"></path>
                    <path d="M12.8830881,16.9103746 C12.5737831,16.9103746 12.3237661,16.6597983 12.3237661,16.3510525 L12.3237661,9.42105254 C12.3237661,9.11230678 12.5737831,8.86173051 12.8830881,8.86173051 C13.1923932,8.86173051 13.4424102,9.11230678 13.4424102,9.42105254 L13.4424102,16.3510525 C13.4424102,16.6597983 13.1923932,16.9103746 12.8830881,16.9103746" id="Fill-8" fill="#525252"></path>
                    <path d="M19.8129203,9.98054237 C19.5036153,9.98054237 19.2535983,9.7299661 19.2535983,9.42122034 C19.2535983,7.81932203 17.950378,6.51554237 16.3484797,6.51554237 C14.746022,6.51554237 13.4422424,7.81932203 13.4422424,9.42122034 C13.4422424,9.7299661 13.1922254,9.98054237 12.8829203,9.98054237 C12.5741746,9.98054237 12.3235983,9.7299661 12.3235983,9.42122034 C12.3235983,7.20238983 14.1290898,5.39689831 16.3484797,5.39689831 C18.5667508,5.39689831 20.3722424,7.20238983 20.3722424,9.42122034 C20.3722424,9.7299661 20.1222254,9.98054237 19.8129203,9.98054237" id="Fill-10" fill="#525252"></path>
                    <path d="M16.3483119,20.4740949 C14.128922,20.4740949 12.3239898,18.7122305 12.3239898,16.5459763 C12.3239898,16.5325525 12.3267864,16.4676712 12.3279051,16.4542475 C12.350278,16.1522136 12.5947017,15.897722 12.9118373,15.9133831 C13.2144305,15.9273661 13.4521424,16.1566881 13.4471085,16.4592814 C13.4471085,16.4699085 13.4443119,16.524722 13.4437525,16.5353492 C13.4426339,18.0952983 14.7464136,19.3554508 16.3483119,19.3554508 C17.9502102,19.3554508 19.2534305,18.0952983 19.2534305,16.5459763 C19.2528712,16.5392644 19.2495153,16.4755017 19.2495153,16.4687898 C19.2383288,16.1600441 19.4805153,15.9016373 19.7887017,15.8910102 C20.0980068,15.8809424 20.3564136,16.1220102 20.3670407,16.4307559 C20.3703966,16.4827729 20.3720746,16.5140949 20.3720746,16.5459763 C20.3720746,18.7122305 18.5671424,20.4740949 16.3483119,20.4740949" id="Fill-12" fill="#525252"></path>
                    <path d="M22.7826966,16.8989085 C22.4733915,16.8989085 22.2233746,16.6483322 22.2233746,16.3395864 L22.2233746,12.3175017 C22.2233746,12.0087559 22.4733915,11.7581797 22.7826966,11.7581797 C23.0920017,11.7581797 23.3420186,12.0087559 23.3420186,12.3175017 L23.3420186,16.3395864 C23.3420186,16.6483322 23.0920017,16.8989085 22.7826966,16.8989085" id="Fill-14" fill="#525252"></path>
                    <path d="M9.9133678,16.8989085 C9.60406271,16.8989085 9.35404576,16.6483322 9.35404576,16.3395864 L9.35404576,12.3175017 C9.35404576,12.0087559 9.60406271,11.7581797 9.9133678,11.7581797 C10.2226729,11.7581797 10.4726898,12.0087559 10.4726898,12.3175017 L10.4726898,16.3395864 C10.4726898,16.6483322 10.2226729,16.8989085 9.9133678,16.8989085" id="Fill-16" fill="#525252"></path>
                    <path d="M16.3483119,23.5175898 C12.4912271,23.5175898 9.35398983,20.4603356 9.35398983,16.7022508 C9.35398983,16.6547085 9.35678644,16.6082847 9.36014237,16.5613017 C9.3685322,16.2525559 9.63476949,15.9896746 9.93624407,15.9907932 C10.2449898,15.9997424 10.4899729,16.2301831 10.4821424,16.5389288 L10.4726339,16.7022508 C10.4726339,19.8434034 13.1087186,22.3989458 16.3483119,22.3989458 C19.5879051,22.3989458 22.2234305,19.8434034 22.2234305,16.7022508 L22.2144814,16.5439627 C22.2032949,16.2352169 22.4438034,15.9762508 22.7531085,15.9645051 C23.0406,15.9600305 23.3213797,16.1943864 23.3320068,16.5031322 C23.339278,16.6054881 23.3420746,16.6535898 23.3420746,16.7022508 C23.3420746,20.4603356 20.2048373,23.5175898 16.3483119,23.5175898" id="Fill-18" fill="#525252"></path>
                    <path d="M16.3483119,28.3939271 C16.0390068,28.3939271 15.7889898,28.1433508 15.7889898,27.8346051 L15.7889898,23.3796051 C15.7889898,23.0708593 16.0390068,22.8202831 16.3483119,22.8202831 C16.6576169,22.8202831 16.9076339,23.0708593 16.9076339,23.3796051 L16.9076339,27.8346051 C16.9076339,28.1433508 16.6576169,28.3939271 16.3483119,28.3939271" id="Fill-20" fill="#525252"></path>
                </g>
            </g>
        </g>
    </g>
</svg>