<svg xmlns="http://www.w3.org/2000/svg" width="26" height="26" viewBox="0 0 26 26">
    <path fill="#8E8E93" fill-rule="evenodd" d="M26 21.785A4.22 4.22 0 0 1 21.785 26h-2.92a.66.66 0 0 1 0-1.32h2.92a2.898 2.898 0 0 0 2.895-2.895v-2.92a.66.66 0 0 1 1.32 0v2.92zM7.795 25.34a.66.66 0 0 1-.66.66h-2.92A4.22 4.22 0 0 1 0 21.785v-2.92a.66.66 0 0 1 1.32 0v2.92a2.898 2.898 0 0 0 2.895 2.895h2.92a.66.66 0 0 1 .66.66zM1.32 7.135a.66.66 0 0 1-1.32 0v-2.92A4.22 4.22 0 0 1 4.215 0h2.92a.66.66 0 0 1 0 1.32h-2.92A2.898 2.898 0 0 0 1.32 4.215v2.92zm24.68 0a.66.66 0 0 1-1.32 0v-2.92a2.898 2.898 0 0 0-2.895-2.895h-2.92a.66.66 0 0 1 0-1.32h2.92A4.22 4.22 0 0 1 26 4.215v2.92zm-8.444 12.082A6.695 6.695 0 0 1 13 20.998a6.695 6.695 0 0 1-4.556-1.781.686.686 0 0 1 .93-1.008A5.328 5.328 0 0 0 13 19.627a5.328 5.328 0 0 0 3.625-1.418.686.686 0 0 1 .93 1.008zm-3.185-4.541c0 .966-.786 1.752-1.752 1.752h-.558a.686.686 0 1 1 0-1.371h.558c.21 0 .381-.171.381-.381V9.8a.686.686 0 1 1 1.371 0v4.875zm4.723-2.958a.647.647 0 0 1-1.295 0V9.763a.647.647 0 0 1 1.295 0v1.955zm-11.388.647a.647.647 0 0 1-.647-.647V9.763a.647.647 0 0 1 1.295 0v1.955c0 .357-.29.647-.648.647z"/>
</svg>
