<svg xmlns="http://www.w3.org/2000/svg" xmlns:xlink="http://www.w3.org/1999/xlink" width="45" height="45" viewBox="0 0 45 45">
    <defs>
        <path id="a" d="M0 45h45V0H0z"/>
    </defs>
    <g fill="none" fill-rule="evenodd">
        <path fill="#BAF4F2" d="M45 22.5C45 34.926 34.926 45 22.5 45S0 34.926 0 22.5 10.074 0 22.5 0 45 10.074 45 22.5" opacity=".25"/>
        <g>
            <path fill="#79E0D6" d="M30.075 6.04V8.4h-4.128V6.04H11.793V8.4H7.665V6.04H3.833a.886.886 0 0 0-.886.887v5.6h31.845v-5.6a.886.886 0 0 0-.886-.886h-3.831z"/>
            <path fill="#BAF4F2" d="M7.665 12.528H2.947V37c0 .49.397.887.886.887h30.96v-25.36H7.664z"/>
            <mask id="b" fill="#fff">
                <use xlink:href="#a"/>
            </mask>
            <path fill="#319988" d="M24.767 21.964h4.128v-4.128h-4.128v4.128zm0 5.307h4.128v-4.128h-4.128v4.128zm0 5.308h4.128V28.45h-4.128v4.128zm-5.307 0h4.128V28.45H19.46v4.128zm-5.308 0h4.128V28.45h-4.128v4.128zm-5.308 0h4.128V28.45H8.844v4.128zm0-5.308h4.128v-4.128H8.844v4.128zm0-5.307h4.128v-4.128H8.844v4.128zm5.308 0h4.128v-4.128h-4.128v4.128zm0 5.307h4.128v-4.128h-4.128v4.128zm5.308 0h4.128v-4.128H19.46v4.128zm0-5.307h4.128v-4.128H19.46v4.128zm5.307-5.308H8.551a.886.886 0 0 0-.886.886V32.872c0 .49.397.886.886.886h21.524V17.543a.886.886 0 0 0-.886-.887h-4.422zM8.55 3.682h2.357c.49 0 .886.397.886.886V8.4H7.665V4.568c0-.49.397-.886.886-.886M26.833 3.682h2.355c.49 0 .887.397.887.886V8.4h-4.129V4.568c0-.49.397-.886.887-.886" mask="url(#b)"/>
            <path fill="#79E0D6" d="M33.149 22.926a9.4 9.4 0 1 1-.001 18.801 9.4 9.4 0 0 1 0-18.801" mask="url(#b)"/>
            <path fill="#BAF4F2" d="M33.149 24.494a7.832 7.832 0 1 1 0 15.665 7.832 7.832 0 0 1 0-15.665" mask="url(#b)"/>
            <path fill="#319988" d="M33.505 31.835h-1.147a.974.974 0 0 1 0-1.946h1.147c.537 0 .973.437.973.973a.395.395 0 0 0 .79 0c0-.97-.791-1.761-1.763-1.761h-.179v-.87a.395.395 0 0 0-.788 0v.87h-.18c-.97 0-1.761.79-1.761 1.761 0 .972.79 1.762 1.761 1.762h1.147a.974.974 0 0 1 0 1.946h-1.147a.974.974 0 0 1-.972-.973.395.395 0 0 0-.79 0c0 .97.791 1.76 1.762 1.76h.18v.871a.394.394 0 0 0 .788 0v-.87h.18c.97 0 1.761-.79 1.761-1.761 0-.971-.79-1.762-1.762-1.762" mask="url(#b)"/>
        </g>
    </g>
</svg>
