<svg xmlns="http://www.w3.org/2000/svg" xmlns:xlink="http://www.w3.org/1999/xlink" width="45" height="45" viewBox="0 0 45 45">
    <defs>
        <path id="a" d="M0 0h45v45H0z"/>
        <path id="c" d="M0 45h45V0H0z"/>
    </defs>
    <g fill="none" fill-rule="evenodd">
        <g>
            <mask id="b" fill="#fff">
                <use xlink:href="#a"/>
            </mask>
            <path fill="#BAF4F2" d="M45 22.5C45 34.926 34.926 45 22.5 45S0 34.926 0 22.5 10.074 0 22.5 0 45 10.074 45 22.5" mask="url(#b)" opacity=".25"/>
        </g>
        <g>
            <path fill="#79E0D6" d="M9.81 1.676h21.16c.779 0 1.41.631 1.41 1.41v38.088a1.41 1.41 0 0 1-1.41 1.411H9.81a1.41 1.41 0 0 1-1.411-1.41V3.086c0-.78.632-1.411 1.41-1.411"/>
            <path fill="#BAF4F2" d="M20.39 39.058a1.41 1.41 0 1 1 0 2.822 1.41 1.41 0 0 1 0-2.822"/>
            <mask id="d" fill="#fff">
                <use xlink:href="#c"/>
            </mask>
            <path fill="#BAF4F2" d="M8.399 38.353H32.38V5.908H8.4z" mask="url(#d)"/>
            <path fill="#E6E6E6" d="M20.39 4.497a.743.743 0 0 1-.501-.204.813.813 0 0 1-.148-.233.665.665 0 0 1 0-.536.805.805 0 0 1 .148-.233.737.737 0 0 1 1.001 0 .805.805 0 0 1 .148.233.665.665 0 0 1 0 .536.813.813 0 0 1-.148.233.743.743 0 0 1-.5.204" mask="url(#d)"/>
            <path fill="#BAF4F2" d="M20.89 3.291a.737.737 0 0 0-1.001 0 .807.807 0 0 0-.149.233.668.668 0 0 0 0 .536.814.814 0 0 0 .149.233.716.716 0 0 0 1.001 0 .822.822 0 0 0 .148-.233.665.665 0 0 0 0-.536.814.814 0 0 0-.148-.233" mask="url(#d)"/>
            <path fill="#319988" d="M26.86 11.585a9.682 9.682 0 0 0-5.097 1.441v1.985a8.104 8.104 0 1 1 0 12.6v1.985a9.679 9.679 0 0 0 5.097 1.442c5.371 0 9.726-4.355 9.726-9.727 0-5.37-4.355-9.726-9.726-9.726" mask="url(#d)"/>
            <path fill="#BAF4F2" d="M26 17.626h.224v-1.084a.492.492 0 0 1 .982 0v1.084h.223c1.21 0 2.194.984 2.194 2.193a.492.492 0 0 1-.983 0c0-.668-.543-1.211-1.211-1.211H26a1.213 1.213 0 0 0 0 2.423h1.428c1.21 0 2.194.984 2.194 2.194s-.984 2.194-2.194 2.194h-.223v1.084a.491.491 0 0 1-.982 0v-1.084H26a2.196 2.196 0 0 1-2.194-2.194.492.492 0 0 1 .982 0c0 .668.544 1.212 1.212 1.212h1.428c.668 0 1.211-.544 1.211-1.212 0-.668-.543-1.212-1.211-1.212H26a2.197 2.197 0 0 1-2.194-2.194c0-1.21.984-2.193 2.194-2.193m.859 11.789a8.104 8.104 0 1 0-5.097-14.404v12.6a8.068 8.068 0 0 0 5.097 1.804" mask="url(#d)"/>
            <path fill="#319988" d="M26 22.013h1.429a1.213 1.213 0 0 1 0 2.424H26a1.213 1.213 0 0 1-1.212-1.212.492.492 0 0 0-.982 0c0 1.21.984 2.193 2.194 2.193h.223v1.085a.492.492 0 0 0 .982 0v-1.085h.223c1.21 0 2.194-.983 2.194-2.193s-.984-2.194-2.194-2.194H26a1.213 1.213 0 0 1 0-2.423h1.428c.668 0 1.211.543 1.211 1.212a.492.492 0 0 0 .983 0c0-1.21-.984-2.194-2.194-2.194h-.223v-1.084a.491.491 0 0 0-.982 0v1.084H26c-1.21 0-2.194.984-2.194 2.194s.984 2.193 2.194 2.193" mask="url(#d)"/>
            <path fill="#79E0D6" d="M19.737 32.085h2.026V10.714h-2.026z" mask="url(#d)"/>
        </g>
    </g>
</svg>
