<?xml version="1.0" encoding="utf-8"?>
<!-- Generator: Adobe Illustrator 23.0.4, SVG Export Plug-In . SVG Version: 6.00 Build 0)  -->
<svg version="1.1" id="Layer_1" xmlns="http://www.w3.org/2000/svg" xmlns:xlink="http://www.w3.org/1999/xlink" x="0px" y="0px"
	 viewBox="0 0 10 12" style="enable-background:new 0 0 10 12;" xml:space="preserve">
<style type="text/css">
	.st0{fill-rule:evenodd;clip-rule:evenodd;fill:#FFFFFF;}
</style>
<title>Rectangle</title>
<desc>Created with Sketch.</desc>
<g>
	<g transform="translate(-323.000000, -996.000000)">
		<g id="Group-11" transform="translate(323.000000, 996.000000)">
			<path id="Rectangle" class="st0" d="M1,0h1c0.6,0,1,0.4,1,1v10c0,0.6-0.4,1-1,1H1c-0.6,0-1-0.4-1-1V1C0,0.4,0.4,0,1,0z"/>
		</g>
	</g>
</g>
<g>
	<g transform="translate(-323.000000, -996.000000)">
		<g id="Group-11_1_" transform="translate(323.000000, 996.000000)">
			<path id="Rectangle_1_" class="st0" d="M8,0h1c0.6,0,1,0.4,1,1v10c0,0.6-0.4,1-1,1H8c-0.6,0-1-0.4-1-1V1C7,0.4,7.4,0,8,0z"/>
		</g>
	</g>
</g>
</svg>
