<svg xmlns="http://www.w3.org/2000/svg" xmlns:xlink="http://www.w3.org/1999/xlink" width="45" height="45" viewBox="0 0 45 45">
    <defs>
        <path id="a" d="M.362 0h33.26v44.595H.361z"/>
    </defs>
    <g fill="none" fill-rule="evenodd">
        <path fill="#BAF4F2" d="M45 22.297c0 12.315-10.074 22.298-22.5 22.298S0 34.612 0 22.297C0 9.983 10.074 0 22.5 0S45 9.983 45 22.297" opacity=".25"/>
        <g transform="translate(5.727 .214)">
            <mask id="b" fill="#fff">
                <use xlink:href="#a"/>
            </mask>
            <path fill="#BAF4F2" d="M26.987 6.227v-.41h.693c1.076 0 1.775-.873 1.775-1.94V1.94C29.455.873 28.755 0 27.68 0H6.23C5.155 0 4.455.872 4.455 1.94v1.938c0 1.066.7 1.94 1.775 1.94h.979v.409c0 3.77-6.847 1.771-6.847 8.724v21.517c0 4.488 3.671 8.127 8.2 8.127H25.42c4.53 0 8.201-3.639 8.201-8.127V14.95c.001-6.953-6.634-4.954-6.634-8.724" mask="url(#b)" opacity=".5"/>
        </g>
        <path fill="#79E0D6" d="M21.7.214h11.707c1.076 0 1.775.872 1.775 1.939v1.939c0 1.066-.7 1.939-1.775 1.939H21.668h1.996-11.706c-1.076 0-1.775-.873-1.775-1.94V2.154c0-1.067.699-1.94 1.775-1.94h11.739"/>
        <path fill="#79E0D6" d="M30.19 6.03h1.651c.001-.012.009-.023.009-.035V.213h-1.667v5.782c0 .012.006.023.006.035M26.856 6.03h1.652c0-.012.008-.023.008-.035V.213H26.85v5.782c0 .012.007.023.007.035M23.523 6.03H25.175c0-.012.008-.023.008-.035V.213h-1.666v5.782c0 .012.006.023.006.035M20.19 6.03h1.652c0-.012.008-.023.008-.035V.213H20.182v5.782c.001.012.007.023.007.035M16.856 6.03h1.652c0-.012.008-.023.008-.035V.213H16.85v5.782c0 .012.007.023.007.035M13.523 6.03h1.652c0-.012.008-.023.008-.035V.213h-1.667v5.782c0 .012.007.023.007.035"/>
        <path fill="#BAF4F2" d="M34.353 28.232H22.112a.727.727 0 0 0-.73.724v3.078c0 .4.326.725.73.725h12.241a.728.728 0 0 0 .731-.725v-3.078c0-.4-.327-.724-.73-.724"/>
        <path fill="#79E0D6" d="M34.353 28.232h-6.12v4.527h6.12a.728.728 0 0 0 .731-.725v-3.078c0-.4-.327-.724-.73-.724"/>
        <path fill="#319988" d="M21.381 31.973v.061c0 .4.327.724.73.724h12.242a.727.727 0 0 0 .731-.724v-.061H21.381z"/>
        <path fill="#319988" d="M28.232 32.758h6.121a.728.728 0 0 0 .731-.724v-.061h-6.852v.785z"/>
        <path fill="#BAF4F2" d="M34.462 32.945H22.22a.727.727 0 0 0-.73.724v3.078c0 .4.326.725.73.725h12.242a.728.728 0 0 0 .73-.725V33.67c0-.4-.327-.724-.73-.724"/>
        <path fill="#79E0D6" d="M34.462 32.945H28.34v4.526h6.12a.727.727 0 0 0 .732-.724V33.67c0-.4-.328-.724-.731-.724"/>
        <path fill="#319988" d="M21.49 36.686v.061c0 .4.327.724.73.724h12.242a.727.727 0 0 0 .73-.724v-.06H21.49z"/>
        <path fill="#319988" d="M28.34 37.471h6.122a.727.727 0 0 0 .73-.724v-.06h-6.851v.784z"/>
        <path fill="#BAF4F2" d="M34.462 37.434H22.22a.727.727 0 0 0-.73.724v3.078c0 .4.326.724.73.724h12.242a.728.728 0 0 0 .73-.724v-3.078c0-.4-.327-.724-.73-.724"/>
        <path fill="#79E0D6" d="M34.462 37.434H28.34v4.526h6.12a.728.728 0 0 0 .732-.724v-3.078c0-.4-.328-.724-.731-.724"/>
        <path fill="#319988" d="M21.49 41.175v.061c0 .4.327.724.73.724h12.242a.727.727 0 0 0 .73-.724v-.061H21.49z"/>
        <path fill="#319988" d="M28.34 41.96h6.122a.728.728 0 0 0 .73-.724v-.061h-6.851v.785z"/>
        <path fill="#C6426E" d="M23.88 32.945h-6.121v4.526h6.12a.727.727 0 0 0 .732-.724V33.67c0-.4-.327-.724-.731-.724"/>
        <path fill="#642B73" d="M10.907 36.686v.061c0 .4.328.724.731.724H23.88a.727.727 0 0 0 .73-.724v-.06H10.908z"/>
        <path fill="#642B73" d="M17.759 37.471h6.12a.727.727 0 0 0 .732-.724v-.06h-6.852v.784z"/>
        <path fill="#BAF4F2" d="M22.748 28.232H10.506a.727.727 0 0 0-.73.724v3.078c0 .4.326.725.73.725h12.242a.728.728 0 0 0 .73-.725v-3.078c0-.4-.327-.724-.73-.724"/>
        <path fill="#79E0D6" d="M22.748 28.232h-6.121v4.527h6.12a.728.728 0 0 0 .732-.725v-3.078c0-.4-.328-.724-.731-.724"/>
        <path fill="#319988" d="M9.775 31.973v.061c0 .4.327.724.73.724h12.242a.727.727 0 0 0 .731-.724v-.061H9.775z"/>
        <path fill="#319988" d="M16.627 32.758h6.12a.728.728 0 0 0 .731-.724v-.061h-6.851v.785z"/>
        <path fill="#BAF4F2" d="M23.88 32.945H11.638a.727.727 0 0 0-.73.724v3.078c0 .4.326.725.73.725H23.88a.728.728 0 0 0 .73-.725V33.67c0-.4-.326-.724-.73-.724"/>
        <path fill="#79E0D6" d="M23.88 32.945h-6.121v4.526h6.12a.727.727 0 0 0 .732-.724V33.67c0-.4-.327-.724-.731-.724"/>
        <path fill="#319988" d="M10.907 36.686v.061c0 .4.328.724.731.724H23.88a.727.727 0 0 0 .73-.724v-.06H10.908z"/>
        <path fill="#319988" d="M17.759 37.471h6.12a.727.727 0 0 0 .732-.724v-.06h-6.852v.784z"/>
        <path fill="#BAF4F2" d="M23.88 37.434H11.638a.727.727 0 0 0-.73.724v3.078c0 .4.326.724.73.724H23.88a.728.728 0 0 0 .73-.724v-3.078c0-.4-.326-.724-.73-.724"/>
        <path fill="#79E0D6" d="M23.88 37.434h-6.121v4.526h6.12a.728.728 0 0 0 .732-.724v-3.078c0-.4-.327-.724-.731-.724"/>
        <path fill="#319988" d="M10.907 41.175v.061c0 .4.328.724.731.724H23.88a.727.727 0 0 0 .73-.724v-.061H10.908z"/>
        <path fill="#319988" d="M17.759 41.96h6.12a.728.728 0 0 0 .732-.724v-.061h-6.852v.785z"/>
        <path fill="#79E0D6" d="M23.062 14.916c3.646 0 6.602 2.929 6.602 6.542 0 3.614-2.956 6.543-6.602 6.543-3.647 0-6.603-2.929-6.603-6.543 0-3.613 2.956-6.542 6.603-6.542"/>
        <path fill="#BAF4F2" d="M23.062 16.007c3.038 0 5.5 2.441 5.5 5.452 0 3.01-2.462 5.451-5.5 5.451s-5.501-2.44-5.501-5.451c0-3.011 2.463-5.452 5.5-5.452"/>
        <path fill="#319988" d="M23.448 21.27h-.97a.82.82 0 0 1-.822-.815.82.82 0 0 1 .822-.815h.97a.82.82 0 0 1 .823.815c0 .182.149.33.333.33a.333.333 0 0 0 .334-.33c0-.814-.669-1.476-1.49-1.476h-.151v-.73c0-.18-.15-.33-.334-.33a.332.332 0 0 0-.333.33v.73h-.152c-.82 0-1.489.662-1.489 1.476s.669 1.475 1.49 1.475h.969a.82.82 0 0 1 .823.816.82.82 0 0 1-.823.815h-.97a.82.82 0 0 1-.822-.815c0-.182-.15-.33-.333-.33a.333.333 0 0 0-.334.33c0 .813.669 1.475 1.49 1.475h.151v.73c0 .182.15.33.333.33a.332.332 0 0 0 .334-.33v-.73h.15c.822 0 1.49-.662 1.49-1.475 0-.814-.668-1.476-1.49-1.476"/>
    </g>
</svg>
